<?xml version="1.0" encoding="utf-8"?>
<!-- Generator: Adobe Illustrator 14.0.0, SVG Export Plug-In . SVG Version: 6.00 Build 43363)  -->
<!DOCTYPE svg PUBLIC "-//W3C//DTD SVG 1.1//EN" "http://www.w3.org/Graphics/SVG/1.1/DTD/svg11.dtd">
<svg version="1.1" id="图层_1" xmlns="http://www.w3.org/2000/svg" xmlns:xlink="http://www.w3.org/1999/xlink" x="0px" y="0px"
	 width="900px" height="600px" viewBox="0 0 900 600" enable-background="new 0 0 900 600" xml:space="preserve">
<rect fill="#C40640" width="900" height="600"/>
<path fill="#FFFFFF" d="M602.759,385.335c-0.363,1.987-2.138,2.313-3.435,3.035c-21.116,11.674-42.244,23.31-63.386,34.911
	c-27.21,14.889-54.476,29.67-81.646,44.613c-2.399,1.723-5.688,1.81-8.186,0.217c-48.021-26.418-96.077-52.78-144.174-79.091
	c-1.679-0.939-4.618-1.337-4.445-3.614c0.21-2.583,3.339-2.294,5.285-2.891c47.702-14.456,95.403-28.863,143.104-43.223
	c2.685-0.868,5.597-0.868,8.281,0c48.02,14.456,96.039,28.948,144.059,43.476C599.915,383.347,602.072,383.257,602.759,385.335
	L602.759,385.335z M601.957,373.915L453.51,130.751c6.83,1.463,11.639,4.662,16.639,7.39c43.249,23.587,86.436,47.18,129.558,70.779
	c2.323,1.025,3.729,3.308,3.529,5.728c0,52.679-0.031,105.353-0.096,158.019C603.14,373.048,603.465,373.607,601.957,373.915z
	 M296.781,373.896v-6.287V215.931c-0.312-3.143,1.488-6.133,4.503-7.48c46.124-25.093,92.179-50.27,138.163-75.531
	c0.266-0.148,0.547-0.269,0.84-0.361c1.508-0.452,3.091-2.656,4.598-1.03c1.012,1.102-0.687,2.638-1.431,3.849
	c-19.538,32.188-39.097,64.376-58.673,96.564c-28.139,46.065-56.275,92.118-84.413,138.161
	C299.548,371.438,299.223,373.246,296.781,373.896L296.781,373.896z"/>
<path fill="#3B668C" d="M449.999,318.062h-47.168c-4.045,0-4.751-0.669-2.614-4.121c15.723-25.537,31.375-51.143,46.958-76.813
	c2.786-4.554,2.919-4.571,5.477-0.343c15.824,25.875,31.642,51.775,47.454,77.699c1.907,3.252,0.857,3.613-2.443,3.613
	C481.863,318.007,465.893,318.062,449.999,318.062L449.999,318.062z"/>
</svg>
