<?xml version="1.0" encoding="utf-8"?>
<!-- Generator: Adobe Illustrator 14.0.0, SVG Export Plug-In . SVG Version: 6.00 Build 43363)  -->
<!DOCTYPE svg PUBLIC "-//W3C//DTD SVG 1.1//EN" "http://www.w3.org/Graphics/SVG/1.1/DTD/svg11.dtd">
<svg version="1.1" id="图层_1" xmlns="http://www.w3.org/2000/svg" xmlns:xlink="http://www.w3.org/1999/xlink" x="0px" y="0px"
	 width="900px" height="600px" viewBox="0 0 900 600" enable-background="new 0 0 900 600" xml:space="preserve">
<rect fill="#6ED1A0" width="900" height="600"/>
<path fill="#FFFFFF" d="M366.731,366.846c33.057,52.945,81.437,77.792,141.677,81.467c-4.57,3.97-9.614,7.326-15.012,9.986
	c-15.102,8.735-31.797,14.175-49.04,15.978c-13.573,1.327-27.269,0.205-40.466-3.315c-22.802-6.336-44.019-17.614-62.225-33.074
	c-20.191-16.642-36.391-37.824-47.349-61.914c-20.768-45.99-21.355-98.914-1.614-145.379c0.469-1.341,1.227-2.557,2.217-3.555
	c0.344,0.928,0.636,1.875,0.875,2.836c2.47,17.716,12.989,29.119,27.904,36.909c14.137,7.409,29.479,10.845,44.957,13.681
	c19.445,3.575,39.123,5.273,58.646,8.169c22.226,3.296,44.063,8.169,64.17,19.134c19.542,10.645,33.367,26.164,38.462,48.812
	c3.17,14.101,2.47,28.241,0.097,42.401c-1.225,7.291-3.188,14.381-4.938,21.53c-0.274,2.58-2.374,4.549-4.9,4.594
	c-31.14,4.588-62.905-0.271-91.392-13.98c-17.003-8.407-32.938-18.925-47.447-31.317
	C376.337,375.633,372.564,370.041,366.731,366.846z"/>
<path fill="#22BBD0" d="M541.428,449.052c2.449-4.394,4.842-8.588,7.174-12.843c13.048-23.848,21.002-49.352,21.391-76.733
	c0.544-31.757-7.875-60.417-31.734-82.405c-15.129-13.981-33.543-21.111-53.047-25.765c-19.814-4.733-40.038-6.472-60.28-7.989
	c-24.657-1.997-49.371-3.574-73.522-9.666c-10.461-2.656-20.592-6.292-28.914-13.801c-6.572-5.83-9.986-14.569-9.16-23.448
	c0.219-1.876,1.049-3.621,2.354-4.953c30.121-37.508,68.35-60.017,115.427-65.129c51.511-5.593,96.974,9.467,135.261,45.497
	c32.435,30.538,50.85,68.745,54.602,113.843c4.492,53.925-12.25,100.34-48.516,139.387c-8.071,8.642-17.089,16.295-26.873,22.808
	C544.367,448.711,542.904,449.133,541.428,449.052z"/>
</svg>
