<?xml version="1.0" encoding="utf-8"?>
<!-- Generator: Adobe Illustrator 14.0.0, SVG Export Plug-In . SVG Version: 6.00 Build 43363)  -->
<!DOCTYPE svg PUBLIC "-//W3C//DTD SVG 1.1//EN" "http://www.w3.org/Graphics/SVG/1.1/DTD/svg11.dtd">
<svg version="1.1" id="图层_1" xmlns="http://www.w3.org/2000/svg" xmlns:xlink="http://www.w3.org/1999/xlink" x="0px" y="0px"
	 width="900px" height="600px" viewBox="0 0 900 600" enable-background="new 0 0 900 600" xml:space="preserve">
<rect fill="#20ADEE" width="900" height="600"/>
<path fill="#1063AF" d="M450.223,378.25c8.709-0.742,17.438-1.522,25.703-4.715c26.59-10.247,43.418-29.2,49.82-57.156
	c0.83-3.583,2.067-4.623,5.739-4.604c25.575,0.186,51.167,0,76.742,0h3.801c0,1.577-1.033,2.041-1.679,2.672
	c-52.429,52.98-104.906,105.917-157.434,158.81c-0.83,0.854-1.494,2.079-2.971,2.005c0-5.828,0.148-11.639,0.166-17.468
	L450.223,378.25z"/>
<path fill="#FFFFFF" d="M505.191,299.875c-0.012,30.604-24.68,55.404-55.099,55.393c-30.42-0.01-55.071-24.827-55.061-55.43
	c0.011-30.604,24.679-55.403,55.099-55.393c0.073,0,0.146,0,0.221,0C480.621,244.729,505.051,269.422,505.191,299.875
	L505.191,299.875z"/>
<path fill="#FFFFFF" d="M450.223,378.25l-0.111,79.544c0,5.829-0.11,11.64-0.166,17.468c-4.224-3.438-8.161-7.22-11.772-11.305
	c-49.488-49.799-98.94-99.629-148.354-149.49c-0.627-0.631-1.199-1.3-1.846-1.856c0.867-1.188,1.975-0.78,2.935-0.78h79.122
	c2.473,0,3.524,0.65,4.078,3.213c6.809,30.646,25.242,50.658,54.969,60.107c5.664,1.737,11.536,2.687,17.456,2.822
	C447.75,377.86,448.986,378.102,450.223,378.25z"/>
<path fill="#A6CD3A" d="M449.964,124.75c1.55-0.167,2.14,1.151,2.989,2.004c52.392,52.72,104.752,105.452,157.082,158.197
	c0.684,0.705,2.049,1.336,1.643,2.395c-0.406,1.058-2.012,0.668-3.063,0.668h-77.498c-3.174,0-4.502-0.779-5.185-4.027
	c-6.497-31.947-32.07-56.451-64.104-61.427c-2.232-0.371-4.502-0.464-6.771-0.687c-0.351-0.26-0.757-0.762-1.07-0.706
	c-3.931,0.558-3.949-1.856-3.931-4.733c0.111-11.287,0-22.573,0-33.859C450.056,163.306,450.025,144.03,449.964,124.75
	L449.964,124.75z"/>
<path fill="#D1E189" d="M449.964,124.75c0,19.269,0.05,38.538,0.147,57.806v33.859c0,2.915,0,5.29,3.931,4.733
	c0.313,0,0.72,0.445,1.069,0.705c-4.096,1.096-8.229-0.203-12.436,0.26c-16.634,1.609-32.295,8.621-44.617,19.975
	c-12.438,11.062-20.846,25.983-23.896,42.398c-0.479,2.451-1.495,3.268-4.06,3.268c-25.594-0.111-51.168,0-76.761-0.111
	c-1.587,0-4.077,1.133-4.613-0.278c-0.627-1.708,1.845-2.841,3.045-4.084c51.407-51.804,102.846-103.577,154.315-155.319
	C447.252,126.773,448.156,125.176,449.964,124.75z"/>
</svg>
