<?xml version="1.0" encoding="utf-8"?>
<!-- Generator: Adobe Illustrator 14.0.0, SVG Export Plug-In . SVG Version: 6.00 Build 43363)  -->
<!DOCTYPE svg PUBLIC "-//W3C//DTD SVG 1.1//EN" "http://www.w3.org/Graphics/SVG/1.1/DTD/svg11.dtd">
<svg version="1.1" id="图层_1" xmlns="http://www.w3.org/2000/svg" xmlns:xlink="http://www.w3.org/1999/xlink" x="0px" y="0px"
	 width="900px" height="600px" viewBox="0 0 900 600" enable-background="new 0 0 900 600" xml:space="preserve">
<rect fill="#4268B1" width="900" height="600"/>
<path fill="#F57139" d="M558.553,237.034c0,6.195-0.143,12.391,0,18.586c0.1,2.448-0.966,4.804-2.887,6.375
	c-12.404,11.749-24.564,23.658-37.112,35.307c-2.6,2.426-2.456,3.669,0,6.015c12.59,11.549,24.974,23.298,37.522,34.866
	c1.527,1.221,2.396,3.062,2.354,4.991v37.954c0,1.042,0.635,2.546-0.9,3.007c-1.166,0.341-1.78-0.923-2.518-1.604l-71.441-66.723
	c-4.483-4.171-8.926-8.4-13.572-12.391c-2.272-2.005-2.211-3.168,0-5.193c19.557-18.605,39.044-37.271,58.463-55.997
	c8.844-8.48,17.646-17.021,26.612-25.482c0.859-0.822,1.536-2.566,3.05-1.884c1.516,0.682,0.573,2.005,0.573,3.208
	C558.573,224.463,558.553,230.719,558.553,237.034L558.553,237.034z"/>
<path fill="#FFFFFF" d="M514.746,410.921h-19.365c-2.238,0.112-4.404-0.79-5.875-2.447c-12.139-12.35-24.4-24.6-36.56-36.93
	c-2.048-2.005-3.235-2.246-5.343,0c-11.791,12.311-23.787,24.439-35.639,36.71c-1.652,1.812-4.055,2.792-6.531,2.667
	c-12.773-0.121-25.547,0-38.341,0c-0.962,0-2.354,0.541-2.845-0.602c-0.492-1.143,0.818-1.725,1.514-2.446l80.879-82.783
	c3.48-3.548,3.521-3.608,7.186,0c27.294,27.454,54.526,54.929,81.697,82.422c0.717,0.722,2.047,1.364,1.699,2.427
	c-0.471,1.463-2.047,0.741-3.111,0.741C527.664,410.921,521.215,410.921,514.746,410.921z"/>
<path fill="#F57139" d="M341.648,216.223c4.523,2.646,7.758,6.756,11.524,10.245c25.343,23.437,50.583,46.996,75.966,70.413
	c2.354,2.165,2.682,3.348,0.205,5.714c-28.318,27.254-56.643,54.561-84.973,81.92c-0.594,0.563-1.023,1.745-2.048,1.203
	c-1.023-0.541-0.491-1.402-0.511-2.125c-0.164-13.152-0.308-26.304-0.533-39.436c-0.037-1.811,0.76-3.541,2.17-4.712
	c12.467-12.03,24.831-24.06,37.379-36.089c2.437-2.326,2.928-3.729,0.123-6.275c-12.078-10.906-23.909-22.054-35.967-33.041
	c-2.657-2.084-4.135-5.29-3.971-8.621c0.286-12.029,0.102-24.239,0.123-36.369C341.033,218.188,340.645,217.246,341.648,216.223
	L341.648,216.223z"/>
<path fill="#FFFFFF" d="M362.59,189.197h42.742c2.227-0.139,4.39,0.76,5.834,2.426c11.996,12.431,24.176,24.821,36.15,37.231
	c2.047,2.165,3.234,2.005,5.262,0c12.281-12.41,24.707-24.661,37.051-36.991c1.036-1.135,2.543-1.747,4.094-1.664
	c13.163,0.181,26.346,0.201,39.508,0.301c0.983,0,2.396-0.582,2.908,0.461c0.512,1.043-0.881,2.005-1.658,2.747
	c-24.456,24.513-48.945,49-73.469,73.46c-3.051,3.027-6.141,6.015-9.027,9.183c-1.72,1.844-2.887,1.885-4.729,0
	c-15.968-16.588-32.003-33.128-48.106-49.622c-11.136-11.468-22.319-22.916-33.551-34.344L362.59,189.197z"/>
<path fill="#F57139" d="M320.42,334.013c-0.553-0.463-1.188-0.924-1.74-1.465c-10.234-9.804-20.471-19.668-30.705-29.412
	c-1.842-1.744-1.863-2.887,0-4.691c9.977-9.824,19.918-19.729,29.825-29.713c1.74-1.744,2.743-1.703,4.442,0
	c10.166,9.891,20.402,19.723,30.705,29.492c1.454,1.385,2.048,2.326,0.226,4.01c-10.092,10.025-20.062,20.049-30.112,30.074
	C322.324,332.97,321.71,333.871,320.42,334.013z M613.414,299.948c-0.225,1.264-1.146,1.844-1.883,2.566
	c-9.949,9.764-19.979,19.447-29.867,29.271c-1.74,1.744-2.742,1.684-4.422,0c-8.597-8.521-17.358-16.901-25.936-25.422
	c-2.047-2.005-6.141-3.489-5.629-6.355c0.368-2.307,3.602-4.19,5.629-6.215c8.516-8.441,17.113-16.762,25.506-25.322
	c2.15-2.186,3.256-2.006,5.281,0.1c9.662,9.664,19.509,19.167,29.273,28.75C612.187,298.144,613.189,298.825,613.414,299.948
	L613.414,299.948z"/>
<path fill="#FFFFFF" d="M483.774,431.21c-0.571,0.762-1.187,1.492-1.843,2.186c-10.234,9.703-20.47,19.348-30.541,29.091
	c-1.884,1.805-2.969,1.624-4.729-0.18c-9.621-9.885-19.365-19.648-29.13-29.393c-1.761-1.765-2.272-3.107-0.144-5.093
	c10.42-9.684,20.654-19.467,30.89-29.251c1.27-1.203,2.19-1.464,3.563,0c10.167,10.425,20.401,20.817,30.706,31.176
	C482.936,430.128,483.304,430.628,483.774,431.21z M452.373,136.247c0.777,0.722,1.453,1.283,2.047,2.005
	c9.805,10.024,19.549,20.149,29.437,30.074c1.761,1.784,1.536,2.787-0.163,4.311c-10.522,9.597-20.963,19.214-31.32,28.851
	c-1.638,1.484-2.641,1.343-4.095-0.261c-9.798-10.185-19.624-20.296-29.478-30.334c-1.433-1.484-1.821-2.626-0.123-4.17
	c10.468-9.624,20.922-19.247,31.361-28.871C450.78,137.267,451.561,136.731,452.373,136.247z"/>
</svg>
