<?xml version="1.0" encoding="utf-8"?>
<!-- Generator: Adobe Illustrator 14.0.0, SVG Export Plug-In . SVG Version: 6.00 Build 43363)  -->
<!DOCTYPE svg PUBLIC "-//W3C//DTD SVG 1.1//EN" "http://www.w3.org/Graphics/SVG/1.1/DTD/svg11.dtd">
<svg version="1.1" id="图层_1" xmlns="http://www.w3.org/2000/svg" xmlns:xlink="http://www.w3.org/1999/xlink" x="0px" y="0px"
	 width="900px" height="600px" viewBox="0 0 900 600" enable-background="new 0 0 900 600" xml:space="preserve">
<rect fill="#094096" width="900" height="600"/>
<path fill="#70D0FE" d="M482.574,218.45c-0.369,11.843-3.119,23.486-8.08,34.214c-7.474,16.82-17.943,31.704-28.24,46.653
	c-12.251,17.613-24.654,35.073-33.234,54.91c-4.645,10.517-7.438,21.774-8.255,33.267c-0.282,4.404,0,8.564,0.151,12.857
	c0,1.52-0.26,2.202-1.803,1.035c-14.945-10.414-28.695-22.017-37.275-38.705c-7.299-14.135-7.842-28.908-3.715-44.033
	c4.127-15.126,11.514-28.292,19.551-41.216c9.775-15.544,19.963-30.823,29.607-46.411c10.166-16.601,18.985-33.95,23.504-53.215
	c2.598-10.612,3.332-21.604,2.172-32.475c0-0.836-0.586-2.224,0.326-2.818s1.716,0.683,2.367,1.233
	c12.338,10.92,23.721,22.765,32.063,37.142C478.557,192.212,482.305,205.175,482.574,218.45z"/>
<path fill="#FFFFFF" d="M548.48,315.676c3.41,6.143,6.516,11.955,9.818,17.768c22.171,40.363,44.357,80.729,66.557,121.092
	c1.695,3.082,1.695,3.104-1.78,3.104H472.256c-3.367,0-3.389,0-2.411-3.28c5.019-16.424,13.858-30.823,23.895-44.408
	c10.688-14.553,22.505-28.225,32.735-43.131c8.689-12.857,16.119-26.42,19.833-41.831c0.369-1.542,0.674-3.127,1.021-4.69
	C547.438,318.701,547.828,317.136,548.48,315.676L548.48,315.676z"/>
<path fill="#70D0FE" d="M430.289,397.072c-0.164-17.734,5.713-34.982,16.639-48.834c8.232-11.008,17.921-20.563,26.871-30.822
	c10.621-12.198,19.94-25.166,24.785-40.952c3.115-10.472,4.315-21.433,3.541-32.342c0-0.837-0.565-2.026,0.455-2.444
	c1.021-0.418,1.5,0.815,1.998,1.454c8.787,10.856,15.886,23.011,21.05,36.041c7.046,17.926,6.4,38.016-1.781,55.438
	c-6.517,14.641-16.161,27.213-25.827,39.763c-12.361,16.006-25.285,31.594-34.931,49.537c-5.353,9.603-9.414,19.888-12.077,30.581
	c-0.174,0.749-0.261,1.739-1.151,1.96c-0.891,0.22-1.151-0.661-1.455-1.233C438.521,436.063,430.766,416.248,430.289,397.072
	L430.289,397.072z"/>
<path fill="#FFFFFF" d="M340.813,336.041c0.181,5.273,0.733,10.527,1.651,15.721c3.497,16.711,12.121,30.516,23.568,42.713
	c11.447,12.196,24.568,21.091,38.102,30.008c4.627,3.061,9.21,6.23,13.881,9.248c1.159,0.771,2.025,1.92,2.454,3.258
	c2.105,6.024,4.587,11.908,7.429,17.613c1.282,2.51,0.631,2.929-1.89,2.929H276.45c-2.411,0.153-3.063-0.155-1.737-2.599
	c21.635-39.189,43.213-78.408,64.732-117.658C339.728,336.813,339.814,336.041,340.813,336.041z"/>
</svg>
