<?xml version="1.0" encoding="utf-8"?>
<!-- Generator: Adobe Illustrator 14.0.0, SVG Export Plug-In . SVG Version: 6.00 Build 43363)  -->
<!DOCTYPE svg PUBLIC "-//W3C//DTD SVG 1.1//EN" "http://www.w3.org/Graphics/SVG/1.1/DTD/svg11.dtd">
<svg version="1.1" id="图层_1" xmlns="http://www.w3.org/2000/svg" xmlns:xlink="http://www.w3.org/1999/xlink" x="0px" y="0px"
	 width="900px" height="600px" viewBox="0 0 900 600" enable-background="new 0 0 900 600" xml:space="preserve">
<rect fill="#088AA3" width="900" height="600"/>
<path fill="#FAE605" d="M614.434,180.972l-1.168-1.114l-37.121-35.392l-1.231-1.299c-22.974-21.903-71.387-14.045-124.861,15.901
	c-53.345-29.823-101.888-37.681-124.926-15.901l-38.289,36.691l-1.363,1.114c-22.973,21.966-14.731,68.062,16.679,119.108
	c-31.28,50.859-39.522,97.143-16.679,119.045l1.233,1.176l38.289,36.506c23.038,21.966,71.386,14.045,124.926-15.9
	c53.345,29.945,101.888,37.866,124.861,15.9l1.232-1.113l37.12-35.393l1.169-1.176c23.037-21.902,14.73-68.063-16.68-119.045
	C629.425,249.219,637.473,202.938,614.434,180.972L614.434,180.972z M586.723,169.711c1.363,20.852-8.241,49.004-26.866,79.693
	c-8.371-9.467-17.457-18.933-27.126-28.152c-9.67-9.219-19.471-17.882-29.594-25.863
	C535.39,177.631,564.854,168.411,586.723,169.711z M450.051,369.439c-12.979-9.961-25.634-20.976-38.224-32.916
	c-12.59-11.941-24.143-24.256-34.59-36.444c21.788-25.393,46.18-48.649,72.813-69.423c12.979,9.961,25.635,20.975,38.225,32.979
	c12.591,12.003,24.076,24.193,34.524,36.444c-10.448,12.375-22,24.44-34.524,36.444C475.75,348.527,462.835,359.727,450.051,369.439
	z M313.313,169.711c21.87-1.3,51.398,7.92,83.588,25.678c-9.93,7.982-19.858,16.582-29.528,25.863
	c-9.67,9.281-18.755,18.562-27.127,28.152C321.62,218.715,311.951,190.563,313.313,169.711z M313.313,430.387
	c-1.362-20.852,8.308-48.943,26.933-79.693c8.393,9.527,17.436,18.934,27.127,28.215c9.669,9.219,19.469,17.882,29.528,25.863
	C364.712,422.528,335.184,431.686,313.313,430.387L313.313,430.387z M586.723,430.387c-21.869,1.299-51.333-7.857-83.586-25.615
	c9.994-7.92,19.857-16.646,29.594-25.863c9.733-9.221,18.755-18.563,27.126-28.215C578.481,381.443,588.086,409.535,586.723,430.387
	z"/>
</svg>
