<?xml version="1.0" encoding="utf-8" ?>	<!-- Generator: Assembly 2.4 - http://assemblyapp.co -->	<svg version="1.1" xmlns="http://www.w3.org/2000/svg" xmlns:xlink="http://www.w3.org/1999/xlink" width="900.00" height="600.00" viewBox="0 0 900.0 600.0">		<rect x="0" y="0" width="900.00" height="600.00" fill="#ffffff" />		<g id="document" transform="scale(0.21994571693366874 0.21994571693366874) translate(2044.9183278852777 1365.3333333333333)">			<g>				<path d="M-0.128486,-861.908 C-238.074,-861.587 -430.865,-668.731 -431.106,-430.786 L-431.106,-408.647 C-431.106,-401.801 -430.377,-398.16 -429.94,-392.917 L-429.94,-386.799 C-419.78,-286.897 -375.006,-193.691 -303.371,-123.319 C-303.329,-123.03 -303.329,-122.735 -303.371,-122.445 C-246.731,-62.7081 -238.313,28.026 -282.997,97.1637 C-327.68,166.301 -413.865,195.893 -491.595,168.787 C-569.325,141.68 -618.419,64.9127 -610.422,-17.0184 C-602.424,-98.9495 -539.41,-164.773 -457.905,-176.336 C-499.867,-251.174 -522.635,-335.242 -524.176,-421.027 C-744.835,-372.321 -890.445,-161.502 -857.871,62.108 C-825.298,285.718 -625.595,446.235 -400.211,429.966 C-174.827,413.697 -0.248721,226.162 -0.128471,0.191537 L-0.128471,-21.3646 L-0.128471,-24.8602 C-0.128471,-31.1231 -1.00237,-37.2404 -1.58497,-43.3577 L-1.58497,-44.6685 C-10.449,-133.104 -46.529,-216.612 -104.851,-283.679 C-107.472,-286.738 -136.02,-314.412 -145.195,-327.374 C-188.365,-387.626 -189.787,-468.293 -148.768,-530.029 C-107.749,-591.765 -32.8329,-621.711 39.4393,-605.261 C111.712,-588.811 166.286,-529.39 176.544,-455.983 C251.357,-498.007 335.441,-520.78 421.236,-522.253 C377.994,-720.388 202.67,-861.714 -0.128486,-861.908 L-0.128486,-861.908 Z " fill="#004c72" fill-opacity="1.00" />				<path d="M430.994,-430.786 C271.72,-430.678 125.463,-342.823 50.5576,-202.261 C77.6468,-138.207 91.5657,-69.3554 91.4851,0.191512 L91.4851,10.0957 C90.7802,52.9704 84.7129,95.5884 73.4246,136.956 C73.4246,138.413 72.5507,139.724 72.2594,141.18 C69.929,149.191 67.4529,157.202 64.8312,165.067 L62.6465,171.767 C59.8792,179.34 57.1118,186.332 54.1988,194.197 L52.0141,199.731 C44.1911,218.579 35.2918,236.961 25.3602,254.787 C116.456,267.863 182.661,348.08 178.222,440.002 C173.784,531.924 100.159,605.39 8.22782,609.629 C-83.7037,613.868 -163.777,547.49 -176.656,456.366 C-251.468,498.39 -335.552,521.163 -421.347,522.637 C-374.439,737.692 -173.059,882.878 45.8008,859.428 C264.66,835.979 430.711,651.426 430.994,431.314 L430.994,410.195 L430.994,404.66 C430.994,399.417 430.994,394.174 429.683,388.93 L429.683,383.541 C429.683,378.152 428.373,372.763 427.644,367.374 L427.644,363.15 C426.77,357.033 425.605,351.061 424.44,345.09 L424.44,343.196 C418.685,315.415 410.146,288.284 398.951,262.215 C396.33,256.098 393.562,250.126 390.795,244.3 L389.193,241.096 C386.862,236.581 384.532,231.92 382.056,227.405 L375.793,221.725 C374.045,218.52 372.152,215.316 370.258,212.112 L365.015,203.373 C365.015,202.499 363.995,201.771 363.559,201.042 C346.315,173.168 325.991,147.323 302.968,123.994 C245.598,64.6271 236.404,-26.3276 280.733,-95.9744 C325.062,-165.621 411.355,-195.8 489.427,-168.96 C567.5,-142.121 616.995,-65.2603 609.128,16.9213 C601.262,99.103 538.084,165.178 456.337,176.719 C498.361,251.531 521.134,335.615 522.608,421.41 C737.971,374.785 883.477,173.215 859.924,-45.8745 C836.371,-264.965 651.346,-431.001 430.994,-430.786 L430.994,-430.786 Z " fill="#00b6bd" fill-opacity="1.00" />			</g>		</g>	</svg>