<?xml version="1.0" encoding="utf-8" ?>	<!-- Generator: Assembly 2.4 - http://assemblyapp.co -->	<svg version="1.1" xmlns="http://www.w3.org/2000/svg" xmlns:xlink="http://www.w3.org/1999/xlink" width="900.00" height="600.00" viewBox="0 0 900.0 600.0">		<rect x="0" y="0" width="900.00" height="600.00" fill="#ffffff" />		<g id="document" transform="scale(0.21994571693366874 0.21994571693366874) translate(2044.9183278852777 1365.3333333333333)">			<g>				<path d="M66.6912,942.916 C82.893,935.757 89.9264,933.37 96.7085,929.603 C333.749,792.117 571.292,655.302 809.337,519.157 C836.968,503.332 838.727,482.106 838.727,455.48 C837.848,163.345 837.345,-128.791 838.727,-420.926 C841.77,-450.789 825.457,-479.274 798.159,-491.761 C543.368,-637.62 289.121,-784.399 35.4179,-932.099 C10.55,-946.668 -7.53571,-948.552 -33.534,-933.355 C-289.749,-783.98 -546.55,-635.568 -803.937,-488.119 C-827.128,-477.35 -841.052,-453.171 -838.727,-427.708 C-837.722,-131.051 -837.722,165.773 -838.727,462.764 C-840.501,488.153 -826.336,511.979 -803.183,522.548 C-573.427,654.925 -343.252,787.303 -112.659,919.681 C-99.2204,927.342 -84.9025,933.37 -63.6769,943.92 C-65.3534,918.829 -65.3534,893.654 -63.6769,868.563 C-57.0203,823.474 -75.7341,799.611 -115.297,777.506 C-304.946,671.001 -492.083,560.352 -680.476,452.591 C-705.298,441.603 -720.425,416.089 -718.155,389.04 C-716.732,141.868 -716.732,-105.346 -718.155,-352.602 C-720.667,-380.974 -705.085,-407.866 -679.22,-419.795 C-461.94,-544.009 -245.916,-669.981 -28.0078,-793.944 C-10.2726,-802.11 10.147,-802.11 27.8822,-793.944 C244.911,-670.358 461.061,-544.386 678.216,-420.172 C704.074,-408.169 719.642,-381.252 717.15,-352.853 C715.811,-107.104 715.811,138.602 717.15,384.267 C720.214,414.1 703.957,442.576 676.708,455.103 C484.045,564.748 292.386,676.402 101.104,788.308 C87.1632,796.471 69.9567,811.417 68.1983,825.107 C65.3188,864.31 64.8155,903.652 66.6912,942.916 L66.6912,942.916 Z " fill="#f37735" fill-opacity="1.00" />				<path d="M65.812,-620.999 C65.812,-583.195 68.0728,-556.318 65.0585,-529.44 C61.0394,-493.394 76.4877,-473.927 108.138,-456.469 C215.773,-397.062 320.645,-333.511 427.527,-273.1 C452.395,-262.097 467.531,-236.516 465.206,-209.423 C464.033,-58.1221 464.033,93.1786 465.206,244.479 C468.009,270.061 454.367,294.627 431.169,305.77 C296.908,381.63 164.028,459.624 29.2637,534.982 C10.3214,543.645 -11.4518,543.645 -30.3941,534.982 C-165.284,460.001 -298.164,381.63 -432.3,305.644 C-455.488,294.465 -469.194,269.964 -466.587,244.354 C-465.331,93.053 -465.331,-58.2477 -466.587,-209.548 C-468.969,-236.686 -453.823,-262.333 -428.909,-273.351 C-317.882,-335.646 -207.986,-399.951 -98.2157,-464.382 C-85.6561,-471.415 -69.3287,-482.97 -67.9472,-493.645 C-64.3049,-532.454 -66.44,-571.891 -66.44,-615.473 C-75.0098,-613.138 -83.4038,-610.2 -91.5591,-606.681 C-248.93,-516.253 -405.799,-426.201 -561.286,-333.637 C-575.601,-322.162 -584.181,-305.001 -584.773,-286.664 C-586.782,-84.3716 -586.782,117.837 -584.773,319.962 C-583.025,340.818 -572.299,359.886 -555.383,372.21 C-382.689,474.068 -208.237,573.539 -35.1668,675.021 C-14.3379,689.831 13.5843,689.831 34.4131,675.021 C207.567,573.372 381.308,472.896 555.634,373.591 C575.996,364.003 588.082,342.601 585.777,320.213 C584.773,118.005 584.773,-84.2041 585.777,-286.413 C587.765,-308.947 575.264,-330.268 554.63,-339.54 C468.597,-387.517 383.569,-438.509 297.912,-487.994 C224.314,-530.571 150.338,-572.519 65.812,-620.999 L65.812,-620.999 Z " fill="#e61f33" fill-opacity="1.00" />				<path d="M65.8121,364.423 C155.864,312.05 236.371,266.835 314.868,218.858 C325.418,212.452 332.326,191.855 332.326,177.662 C334.461,71.4087 335.214,-34.8451 332.326,-141.099 C330.048,-161.86 318.924,-180.628 301.806,-192.593 C210.875,-247.981 118.688,-300.731 25.4959,-351.723 C8.95677,-359.137 -9.96148,-359.137 -26.5006,-351.723 C-120.948,-299.852 -214.517,-246.222 -306.453,-190.332 C-322.203,-178.877 -332.304,-161.234 -334.21,-141.852 C-336.721,-35.515 -336.721,70.6969 -334.21,176.783 C-331.764,196.166 -321.338,213.647 -305.448,225.012 C-260.736,254.904 -212.884,280.023 -166.288,306.9 L-65.812,364.046 C-67.4325,337.193 -67.4325,310.267 -65.812,283.414 C-59.5322,240.083 -74.7293,210.066 -116.05,196.376 C-203.213,167.489 -215.899,105.696 -218.159,20.5425 C-221.425,-74.1565 -190.78,-125.023 -108.389,-171.242 C-30.0173,-215.2 23.7376,-219.847 105.123,-172.623 C186.509,-125.399 216.903,-75.6637 215.271,19.0353 C213.764,106.45 199.32,168.996 111.403,198.26 C89.0699,205.816 72.184,224.314 66.6912,247.242 C64.4305,282.66 65.812,318.455 65.812,364.423 L65.8121,364.423 Z " fill="#f37735" fill-opacity="1.00" />				<path d="M-80.3811,18.7842 C-80.2555,60.8587 -39.1858,105.822 -0.62795,106.575 C37.9299,107.329 81.0091,59.1003 81.0091,15.1419 C80.8835,-24.923 39.0602,-72.1469 0.753602,-72.7749 C-37.553,-73.4029 -80.3811,-25.0486 -80.3811,18.7842 L-80.3811,18.7842 Z " fill="#e61f33" fill-opacity="1.00" />			</g>		</g>	</svg>