<?xml version="1.0" encoding="utf-8" ?>	<!-- Generator: Assembly 2.4 - http://assemblyapp.co -->	<svg version="1.1" xmlns="http://www.w3.org/2000/svg" xmlns:xlink="http://www.w3.org/1999/xlink" width="900.00" height="600.00" viewBox="0 0 900.0 600.0">		<rect x="0" y="0" width="900.00" height="600.00" fill="#ffffff" />		<g id="document" transform="scale(0.21994571693366874 0.21994571693366874) translate(2044.9183278852777 1365.3333333333333)">			<g>				<path d="M-342.605,-756.593 C-228.531,-822.45 -115.633,-890.542 0.205243,-953.224 C80.2923,-910.887 156.969,-862.552 235.409,-818.569 C270.69,-798.107 307.499,-780.349 338.546,-753.888 C321.216,-717.182 300.173,-682.347 275.747,-649.928 C183.076,-701.32 92.9933,-757.299 -0.147549,-807.868 C-95.8756,-758.004 -186.782,-699.321 -282.393,-648.046 C-306.269,-682.189 -326.825,-718.537 -343.781,-756.593 L-342.605,-756.593 Z M-526.77,-651.457 C-513.01,-657.337 -499.016,-671.684 -483.257,-666.745 C-462.029,-633.997 -442.672,-600.073 -425.279,-565.137 C-505.013,-515.509 -588.04,-471.055 -669.656,-423.309 C-684.709,-413.313 -706.701,-402.964 -702.467,-381.09 L-702.467,-80.8514 C-743.88,-76.0299 -785.713,-76.0299 -827.125,-80.8514 C-827.047,-212.174 -827.008,-343.653 -827.008,-475.289 C-729.045,-537.383 -626.026,-591.009 -527.005,-651.692 L-526.77,-651.457 Z M423.573,-566.43 C440.645,-603.939 461.448,-639.634 485.667,-672.978 C600.093,-609.355 712.991,-543.616 825.772,-476.818 C828.241,-344.28 828.477,-211.507 825.772,-78.9698 C784.641,-76.166 743.353,-76.5986 702.29,-80.2634 C700.996,-183.4 703.701,-286.537 701.466,-389.557 C702.29,-404.963 685.825,-411.548 675.594,-419.31 C591.744,-468.585 505.777,-514.215 423.573,-566.43 Z M537.176,-307.471 C521.535,-318.408 505.659,-328.992 489.195,-338.518 C352.071,-415.9 216.475,-495.869 79.8219,-573.722 C53.7142,-588.069 29.6058,-607.238 0.793261,-616.529 C-24.1384,-610.061 -45.0716,-593.832 -67.2983,-581.248 C-179.412,-516.724 -291.526,-452.082 -403.64,-387.322 C-448.447,-361.215 -494.9,-337.694 -537.471,-308.176 C-543.704,-176.227 -538.412,-43.9244 -540.059,88.1428 C-538.177,163.526 -544.763,239.261 -535.943,314.409 C-356.599,416.605 -180.196,522.447 0.558102,622.644 C179.666,520.918 357.245,416.253 536.118,314.174 C538.235,106.959 537.176,-100.373 537.176,-307.471 L537.176,-307.471 Z M407.814,239.849 C393.066,251.792 377.055,262.084 360.068,270.544 C239.408,337.694 121.688,410.255 0.558074,476.465 C-138.565,402.376 -272.279,318.055 -411.049,242.319 C-413.872,82.8507 -412.46,-76.7353 -411.755,-236.204 C-297.798,-305.824 -180.196,-369.094 -65.2991,-438.009 C-43.8956,-450.867 -21.9432,-462.627 0.558029,-473.29 C75.7058,-432.717 148.384,-387.322 223.179,-345.927 C285.155,-307.588 350.659,-275.365 411.342,-235.145 C412.165,-88.8484 411.342,57.5662 412.048,203.863 C411.225,215.623 413.694,228.795 407.814,239.849 L407.814,239.849 Z " fill="#8dc63e" fill-opacity="1.00" />				<path d="M245.024,-138.594 C228.442,-158.704 202.922,-168.112 181.166,-181.519 C119.543,-213.859 62.1527,-253.727 -0.411611,-284.068 C-41.9251,-265.016 -80.0282,-239.732 -119.543,-217.152 C-162.702,-191.868 -207.391,-169.406 -248.905,-141.064 C-251.374,-52.7446 -250.081,35.3394 -249.963,124.011 C-253.844,147.532 -229.03,157.646 -212.448,167.759 C-140.946,206.45 -73.2073,251.727 -0.176417,287.478 C82.8507,243.025 163.408,193.397 244.906,146.356 C254.314,85.9083 247.846,24.7552 249.728,-36.0451 C249.258,-69.9145 254.55,-105.077 245.024,-138.594 L245.024,-138.594 Z " fill="#f37735" fill-opacity="1.00" />				<path d="M-826.954,87.7899 C-826.013,218.916 -828.248,349.925 -825.778,481.522 C-712.41,545.615 -600.923,613.942 -485.908,675.212 C-461.945,641.374 -441.532,605.157 -424.99,567.136 C-516.602,511.863 -610.566,461.882 -701.473,406.021 C-704.295,299.474 -702.178,193.632 -702.178,87.7899 C-743.63,82.9688 -785.502,82.9688 -826.954,87.7899 Z M701.403,87.5547 C700.227,194.102 703.284,299.944 700.227,405.786 C609.673,462.588 514.533,512.451 423.274,568.43 C437.71,607.764 458.486,644.471 484.78,677.094 C550.01,640.167 614.887,602.652 679.411,564.549 C728.216,535.619 779.726,510.922 825.708,477.406 C827.472,347.103 828.178,216.682 825.708,86.2611 C784.456,83.5748 743.06,84.0073 701.873,87.5547 L701.403,87.5547 Z M-280.575,654.279 C-304.101,687.416 -324.159,722.883 -340.434,760.121 C-267.05,807.75 -188.963,847.852 -114.168,893.129 C-75.7118,911.945 -41.372,940.17 0.494316,953.224 C21.2324,946.089 40.9885,936.369 59.2954,924.294 C139.618,878.076 218.999,830.212 300.262,785.641 C312.022,777.409 327.663,771.764 335.543,758.71 C322.724,721.312 299.086,688.972 279.799,654.867 C183.366,700.614 94.3408,761.768 0.259106,811.631 C-94.881,761.885 -184.376,701.32 -280.575,653.338 L-280.575,654.279 Z " fill="#8dc63e" fill-opacity="1.00" />			</g>		</g>	</svg>