<?xml version="1.0" encoding="utf-8"?>
<!-- Generator: Adobe Illustrator 14.0.0, SVG Export Plug-In . SVG Version: 6.00 Build 43363)  -->
<!DOCTYPE svg PUBLIC "-//W3C//DTD SVG 1.1//EN" "http://www.w3.org/Graphics/SVG/1.1/DTD/svg11.dtd">
<svg version="1.1" id="图层_1" xmlns="http://www.w3.org/2000/svg" xmlns:xlink="http://www.w3.org/1999/xlink" x="0px" y="0px"
	 width="900px" height="600px" viewBox="0 0 900 600" enable-background="new 0 0 900 600" xml:space="preserve">
<rect fill="#CC112F" width="900" height="600"/>
<path fill="#FFFFFF" d="M286.94,136.48h275.722c-1.738,1.853-2.867,3.125-4.063,4.308L429.337,268.615
	c-4.514,4.465-4.514,4.465-9.026,0L289.152,138.846C288.656,138.355,288.047,137.686,286.94,136.48z"/>
<path fill="#062F60" d="M284.143,192.794l273.734,270.81h-40.102c-2.309,0.123-4.553-0.767-6.138-2.432
	c-74.937-74.148-149.911-148.273-224.923-222.376c-1.477-1.044-2.416-2.676-2.572-4.464
	C284.256,220.539,284.143,206.745,284.143,192.794z M615.626,160.497v20.289c0.087,2.035-0.738,4.003-2.257,5.379
	c-45.225,44.641-90.426,89.349-135.604,134.122c-2.01,1.986-3.295,1.986-5.281,0c-6.859-6.994-13.841-13.868-20.941-20.623
	c-2.258-2.121-2.076-3.236,0-5.335c34.346-33.808,68.633-67.683,102.859-101.624l53.709-53.145c0.88-0.848,1.715-1.763,2.662-2.522
	c1.077-0.982,2.653-1.212,3.973-0.58c1.263,0.58,0.856,1.897,0.856,2.901C615.648,146.413,615.626,153.444,615.626,160.497
	L615.626,160.497z M284.143,288.124l177.307,175.437c-0.429,0.514-1.602,0-2.595,0h-37.822c-2.179,0.139-4.308-0.678-5.822-2.231
	c-42.591-42.216-85.265-84.4-128.021-126.556c-2.082-1.813-3.205-4.471-3.047-7.209
	C284.322,314.462,284.143,301.293,284.143,288.124z M615.626,261.34v21.918c0.094,1.891-0.657,3.728-2.055,5.022
	c-28.088,27.722-56.138,55.474-84.151,83.254c-1.827,1.808-3.068,2.031-4.986,0c-7.025-7.098-14.157-14.144-21.394-21.138
	c-1.782-1.718-1.828-2.767,0-4.463c36.528-36.01,73.026-72.057,109.493-108.142c0.655-0.647,1.196-1.875,2.257-1.541
	c1.061,0.335,0.903,1.831,0.903,2.857C615.648,246.43,615.626,253.885,615.626,261.34z M615.648,398.318v58.457
	c0,1.139,0.677,2.745-0.7,3.303c-1.377,0.559-1.985-1.115-2.775-1.896c-19.385-19.106-38.657-38.279-58.087-57.318
	c-2.256-2.232-2.617-3.438,0-5.915c19.475-18.995,38.747-38.19,58.109-57.296c0.79-0.781,1.376-2.478,2.799-1.897
	c1.422,0.581,0.744,2.231,0.767,3.281C615.7,358.797,615.663,378.559,615.648,398.318L615.648,398.318z M284.143,383.007
	l81.06,80.353c-0.857,0.915-2.257,0.38-3.521,0.38c-24.35,0-48.722,0-73.071,0.111c-3.565,0-4.513-0.893-4.513-4.464
	c0.18-24.218,0-48.436,0-72.652L284.143,383.007z"/>
</svg>
