<?xml version="1.0" encoding="utf-8" ?>	<!-- Generator: Assembly 2.4 - http://assemblyapp.co -->	<svg version="1.1" xmlns="http://www.w3.org/2000/svg" xmlns:xlink="http://www.w3.org/1999/xlink" width="900.00" height="600.00" viewBox="0 0 900.0 600.0">		<rect x="0" y="0" width="900.00" height="600.00" fill="#ffffff" />		<g id="document" transform="scale(0.21994571693366874 0.21994571693366874) translate(2044.9183278852777 1365.3333333333333)">			<g>				<g>					<path d="M81.4075,-853.664 C-1.83641,-860.964 -85.697,-856.29 -167.614,-839.782 C41.8814,-610.691 112.053,-286.669 16.1101,8.56921 C-79.6567,303.713 -326.708,524.58 -630.694,586.819 C-622.296,595.903 -613.555,604.986 -604.815,614.069 C-554.932,663.899 -499.164,707.466 -438.743,743.807 C-135.565,629.665 111.228,380.301 211.488,71.9813 C312.326,-240.193 264.38,-581.374 81.4075,-853.664 L81.4075,-853.664 Z " fill="#1f80aa" fill-opacity="1.00" />					<path d="M-178.411,-54.8429 C-95.7032,-311.314 -177.575,-592.297 -385.1,-764.202 C-450.229,-731.139 -510.875,-689.902 -565.568,-641.491 C-388.761,-531.815 -309.497,-315.731 -373.446,-117.741 C-437.899,79.9309 -628.814,208.198 -836.183,193.15 C-820.356,264.253 -795.594,333.068 -762.488,397.954 C-493.376,381.043 -261.858,201.562 -178.411,-54.8429 Z " fill="#1f80aa" fill-opacity="1.00" />					<path d="M-568.481,-181.496 C-530.091,-299.922 -592.818,-431.374 -705.588,-484.332 C-800.6,-346.412 -853.203,-183.718 -856.921,-16.2815 C-732.567,11.1912 -607.698,-60.3322 -568.481,-181.496 L-568.481,-181.496 Z " fill="#1f80aa" fill-opacity="1.00" />				</g>				<path d="M853.664,-81.4075 C581.417,-264.326 240.313,-312.271 -71.81,-211.488 C-380.301,-111.228 -629.494,135.565 -743.636,438.743 C-707.295,499.164 -663.728,554.932 -613.898,604.815 C-604.815,613.898 -595.731,621.953 -586.648,630.865 C-524.331,326.861 -303.457,79.7944 -8.30644,-16.0596 C286.844,-111.914 610.737,-41.7672 839.782,167.614 C856.29,85.697 860.964,1.83639 853.664,-81.4075 L853.664,-81.4075 Z " fill="#1f80aa" fill-opacity="1.00" />				<path d="M54.8429,178.411 C-201.553,261.834 -380.992,493.386 -397.783,762.488 C-333.004,795.823 -264.238,820.76 -193.15,836.697 C-208.49,629.174 -80.0951,438.016 117.814,373.726 C315.723,309.436 531.946,388.647 641.491,565.568 C689.878,510.981 731.114,450.452 764.202,385.443 C592.381,177.793 311.384,95.7819 54.8429,178.411 L54.8429,178.411 Z " fill="#1f80aa" fill-opacity="1.00" />				<path d="M181.496,568.481 C60.6753,608.041 -10.4208,732.811 17.1384,856.921 C184.663,853.101 347.391,800.248 485.188,704.903 C431.374,592.818 300.094,530.091 181.496,568.481 L181.496,568.481 Z M735.752,-413.207 C741.108,-418.622 746.144,-424.345 750.834,-430.346 C674.13,-556.348 568.345,-662.133 442.342,-738.837 C436.515,-734.038 430.688,-728.897 425.204,-723.241 C344.625,-636.677 347.094,-501.841 430.788,-418.286 C514.482,-334.73 649.322,-332.485 735.752,-413.207 L735.752,-413.207 Z " fill="#1f80aa" fill-opacity="1.00" />			</g>		</g>	</svg>