<?xml version="1.0" encoding="utf-8"?>
<!-- Generator: Adobe Illustrator 14.0.0, SVG Export Plug-In . SVG Version: 6.00 Build 43363)  -->
<!DOCTYPE svg PUBLIC "-//W3C//DTD SVG 1.1//EN" "http://www.w3.org/Graphics/SVG/1.1/DTD/svg11.dtd">
<svg version="1.1" id="图层_1" xmlns="http://www.w3.org/2000/svg" xmlns:xlink="http://www.w3.org/1999/xlink" x="0px" y="0px"
	 width="900px" height="600px" viewBox="0 0 900 600" enable-background="new 0 0 900 600" xml:space="preserve">
<rect fill="#282363" width="900" height="600"/>
<path fill="#EC1C25" d="M450.021,139.661c68.695-0.111,129.327,46.228,149.159,114c0.921,2.247,0.551,4.835-0.96,6.713
	c-27.912,36.569-63.436,61.549-107.584,71.583c-55.121,12.509-105.731,0.866-151.268-33.565
	c-13.992-10.756-26.508-23.414-37.205-37.629c-1.689-1.918-2.17-4.662-1.234-7.066c18.07-56.214,54.738-92.542,110.002-108.983
	C423.657,141.107,436.822,139.405,450.021,139.661z"/>
<path fill="#FFFFFF" d="M296.849,275.69c35.678,58.016,84.506,94.638,153.291,94.604c68.785-0.036,117.373-36.623,153.566-95.398
	c3.966,25.504,1.842,51.62-6.189,76.088c-7.751,24.424-21.23,46.5-39.244,64.271c-55.254,55.083-141.264,60.337-202.445,12.366
	c-28.732-22.322-48.974-54.305-57.213-90.398C293.025,313.956,293.471,284.788,296.849,275.69z"/>
</svg>
