<?xml version="1.0" encoding="utf-8"?>
<!-- Generator: Adobe Illustrator 14.0.0, SVG Export Plug-In . SVG Version: 6.00 Build 43363)  -->
<!DOCTYPE svg PUBLIC "-//W3C//DTD SVG 1.1//EN" "http://www.w3.org/Graphics/SVG/1.1/DTD/svg11.dtd">
<svg version="1.1" id="图层_1" xmlns="http://www.w3.org/2000/svg" xmlns:xlink="http://www.w3.org/1999/xlink" x="0px" y="0px"
	 width="900px" height="600px" viewBox="0 0 900 600" enable-background="new 0 0 900 600" xml:space="preserve">
<rect fill="#148233" width="900" height="600"/>
<path fill="#FFFFFF" d="M367.357,300.825c0-0.317,0-0.667-0.252-1.016h80.783c0.222,0,0.441-0.381,0.662-0.571l-1.166,1.174
	l-80.122-80.873v80.396h-78.451c-3.782,0-4.444-1.396-4.413-4.759V221c0-3.712,1.355-4.537,4.728-4.537h76.844l-80.878-81.095
	l0.946-1.586c1.109-0.279,2.235-0.48,3.372-0.603h74.165c2.731,0.288,5.275,1.535,7.186,3.521
	c25.121,25.287,50.054,50.415,75.047,75.796c1.071,1.079,2.238,2.063,4.256,3.903v-6.313v-71.799c0-3.966,1.103-5.14,5.044-5.108
	c24.036,0.169,48.098,0.169,72.178,0c4.287,0,5.705,1.079,5.674,5.584c-0.221,23.288,0,46.575,0,69.799v6.124l1.104,0.73
	l81.256-81.792c0,2.982,0.314,4.473,0.314,5.996v72.274c-0.123,2.909-1.234,5.687-3.151,7.869
	c-25.426,25.762-50.871,51.387-76.339,76.875c-1.053,0.92-2.181,1.748-3.373,2.475v-77.954c0-3.553-1.104-4.6-4.634-4.568h-73.125
	c-1.345,0.087-2.682,0.268-4.002,0.539c1.07,1.333,1.67,2.221,2.427,2.982l75.646,76.145c1.174,0.998,2.416,1.91,3.719,2.729
	c0,0.413,0,0.857,0.158,1.269c-0.44-0.14-0.895-0.236-1.354-0.286h-77.411c-0.967,0.082-1.927,0.241-2.868,0.476l1.48-0.983
	l80.122,81.188v-80.522h82.392c0,2.126,0.252,3.808,0.252,5.521v71.322c0,6.346,0,6.346-6.114,6.346h-75.741l81.131,81.507
	l-0.818,1.363c-1.137,0.224-2.282,0.383-3.437,0.477h-74.165c-2.441-0.181-4.741-1.227-6.491-2.95
	c-25.026-25.001-49.916-50.064-74.669-75.193c-1.279-1.42-2.449-2.938-3.499-4.535l-1.702,0.793v77.096
	c0,3.744-0.978,4.95-4.791,4.918c-24.396-0.169-48.803-0.169-73.22,0c-4.224,0-4.917-1.617-4.886-5.33v-77.636
	c-27.61,27.919-54.308,54.981-81.95,82.998c-0.386-1.545-0.67-3.113-0.851-4.696v-75.161c0.201-2.321,1.205-4.501,2.837-6.155
	c25.782-26.164,51.628-52.265,77.537-78.302c0.852-0.692,1.771-1.3,2.742-1.809c0,25.698,0,51.366-0.315,77.032
	c0,4.76,1.544,5.744,5.958,5.711c23.608-0.222,47.278,0,70.792,0c1.514,0,3.152-0.189,5.421-0.349
	c-1.67-1.84-2.647-3.174-3.72-4.094l-66.189-66.627C375.521,308.344,371.392,304.506,367.357,300.825L367.357,300.825z"/>
</svg>
