<?xml version="1.0" encoding="utf-8"?>
<!-- Generator: Adobe Illustrator 14.0.0, SVG Export Plug-In . SVG Version: 6.00 Build 43363)  -->
<!DOCTYPE svg PUBLIC "-//W3C//DTD SVG 1.1//EN" "http://www.w3.org/Graphics/SVG/1.1/DTD/svg11.dtd">
<svg version="1.1" id="图层_1" xmlns="http://www.w3.org/2000/svg" xmlns:xlink="http://www.w3.org/1999/xlink" x="0px" y="0px"
	 width="900px" height="600px" viewBox="0 0 900 600" enable-background="new 0 0 900 600" xml:space="preserve">
<rect fill="#FFFFFF" width="900" height="600"/>
<g>
	<g>
		<path fill="#E60012" d="M449.996,130.75l198.945,338.484c-148.705-214.371-280.332-201.298-397.883,0L449.996,130.75z"/>
		<path fill="#FDD000" d="M449.996,130.75c-116.692,198.588-57.643,338.484,198.945,338.484H251.059L449.996,130.75z"/>
		<path fill="#5DC2D0" d="M450.004,130.75c116.693,198.588,57.643,338.484-198.945,338.484h397.883L450.004,130.75z"/>
		<path fill="#A50082" d="M450.077,130.879l198.864,338.355c-49.714-71.686-97.519-117.898-143.536-140.186
			C513.698,274.714,494.864,207.13,450.077,130.879z"/>
		<path fill="#ABCD03" d="M449.996,420.391c42.304,31.356,108.271,48.859,198.945,48.859H251.059
			C341.733,469.234,407.7,451.755,449.996,420.391z"/>
		<path fill="#F08437" d="M449.996,130.75c-43.064,73.277-62.165,138.553-56.268,191.778
			c-49.771,19.336-97.268,68.975-142.67,146.706L449.996,130.75z"/>
	</g>
</g>
</svg>
