<?xml version="1.0" encoding="utf-8"?>
<!-- Generator: Adobe Illustrator 14.0.0, SVG Export Plug-In . SVG Version: 6.00 Build 43363)  -->
<!DOCTYPE svg PUBLIC "-//W3C//DTD SVG 1.1//EN" "http://www.w3.org/Graphics/SVG/1.1/DTD/svg11.dtd">
<svg version="1.1" id="图层_1" xmlns="http://www.w3.org/2000/svg" xmlns:xlink="http://www.w3.org/1999/xlink" x="0px" y="0px"
	 width="900px" height="600px" viewBox="0 0 900 600" enable-background="new 0 0 900 600" xml:space="preserve">
<rect fill="#99AF18" width="900" height="600"/>
<path fill="#FFFFFF" d="M328.703,420.39l-25.18-206.743c-15.188,26.552-23.109,56.229-23.054,86.364
	C280.187,344.344,297.364,387.214,328.703,420.39z M318.221,199.649l76.309,262.874c17.694,6.284,36.461,9.489,55.38,9.458
	c5.461,0.032,10.919-0.231,16.347-0.791L318.221,199.649z M545.313,442.265c17.545-12.23,32.541-27.388,44.238-44.713
	L318.001,192.186L545.313,442.265z"/>
<path fill="#FFFFFF" d="M321.373,188.058l296.29,137.129c1.276-8.339,1.9-16.753,1.87-25.177
	c-0.035-11.754-1.262-23.478-3.665-35.013l-291.417-80.276C323.242,185.891,322.179,187.061,321.373,188.058L321.373,188.058z
	 M330.792,177.809l238.234-0.172c-59.396-61.692-160.84-66.518-226.582-10.78C338.363,170.317,334.474,173.973,330.792,177.809
	L330.792,177.809z"/>
</svg>
