<?xml version="1.0" encoding="utf-8"?>
<!-- Generator: Adobe Illustrator 14.0.0, SVG Export Plug-In . SVG Version: 6.00 Build 43363)  -->
<!DOCTYPE svg PUBLIC "-//W3C//DTD SVG 1.1//EN" "http://www.w3.org/Graphics/SVG/1.1/DTD/svg11.dtd">
<svg version="1.1" id="图层_1" xmlns="http://www.w3.org/2000/svg" xmlns:xlink="http://www.w3.org/1999/xlink" x="0px" y="0px"
	 width="900px" height="600px" viewBox="0 0 900 600" enable-background="new 0 0 900 600" xml:space="preserve">
<rect fill="#4A81D1" width="900" height="600"/>
<path fill="#FFFFFF" d="M432.542,289.224c-5.962-5.857-15.662-5.891-21.666-0.073c-0.025,0.024-0.051,0.049-0.076,0.073
	l-11.027,10.76l-3.176,3.099l-23.383,22.609c-14.402,14.414-37.744,15.601-53.604,2.724c-16.19-13.674-17.954-37.564-3.939-53.36
	c1.217-1.372,2.533-2.656,3.939-3.843c15.865-12.86,39.193-11.675,53.604,2.724l7.644,7.457c6.007,5.849,15.734,5.849,21.741,0
	c5.995-5.862,5.995-15.352,0-21.213l-7.328-7.185c-26-25.367-68.088-27.921-95.797-4.427c-29.008,24.57-32.109,67.431-6.927,95.733
	c2.144,2.408,4.458,4.667,6.927,6.758c27.919,23.528,69.797,20.941,95.832-4.426l37.236-36.195
	c6.004-5.817,6.037-15.282,0.076-21.14C432.593,289.273,432.567,289.248,432.542,289.224z M449.991,250.986l-3.489-3.133
	l-23.208-22.779c-14.758-14.06-15.973-36.821-2.792-52.301c14.015-15.796,38.501-17.517,54.691-3.843
	c1.405,1.188,2.722,2.472,3.938,3.843c13.197,15.474,11.982,38.248-2.792,52.301l-7.643,7.491c-5.995,5.861-5.995,15.352,0,21.213
	c6.007,5.849,15.734,5.849,21.742,0l7.364-7.185c25.999-25.367,28.65-66.432,4.536-93.467
	c-25.183-28.302-69.111-31.328-98.119-6.758c-2.468,2.091-4.783,4.349-6.927,6.758c-24.114,27.24-21.462,68.1,4.537,93.501
	l37.133,36.331c5.961,5.858,15.662,5.891,21.666,0.074c0.025-0.024,0.051-0.049,0.076-0.074c5.994-5.861,5.994-15.352,0-21.213
	L449.991,250.986z M600.51,248.909c-27.71-23.529-69.798-20.941-95.797,4.426l-37.098,36.195c-6.004,5.817-6.037,15.282-0.075,21.14
	c0.025,0.025,0.051,0.049,0.075,0.073c5.962,5.858,15.663,5.891,21.667,0.073c0.025-0.023,0.05-0.048,0.075-0.073l10.854-10.589
	l4.014-3.916l22.544-21.962c14.403-14.415,37.744-15.601,53.604-2.724c16.19,13.674,17.954,37.564,3.938,53.36
	c-1.216,1.372-2.532,2.656-3.938,3.844c-15.865,12.86-39.194,11.675-53.604-2.724l-7.678-7.458c-6.008-5.849-15.734-5.849-21.742,0
	c-5.994,5.862-5.994,15.353,0,21.214l7.364,7.185c25.999,25.367,68.087,27.955,95.832,4.426
	c28.999-24.578,32.085-67.44,6.894-95.734C605.294,253.256,602.979,250.999,600.51,248.909L600.51,248.909z M498.151,353.374
	l-37.132-36.195c-5.962-5.858-15.662-5.891-21.666-0.073c-0.026,0.023-0.051,0.049-0.075,0.073c-5.996,5.862-5.996,15.353,0,21.213
	l10.888,10.59l2.617,2.554l23.906,23.358c14.757,14.06,15.973,36.821,2.792,52.301c-14.016,15.797-38.502,17.518-54.691,3.843
	c-1.406-1.188-2.723-2.471-3.939-3.843c-13.197-15.474-11.981-38.248,2.793-52.301l7.643-7.456c5.994-5.862,5.994-15.353,0-21.214
	c-6.008-5.849-15.734-5.849-21.742,0l-7.363,7.15c-26,25.367-28.652,66.431-4.537,93.501c25.182,28.302,69.111,31.328,98.119,6.758
	c2.469-2.091,4.783-4.349,6.926-6.758C526.769,419.805,524.151,378.741,498.151,353.374z"/>
<ellipse fill="#FCA424" cx="449.294" cy="198.957" rx="18.391" ry="17.945"/>
<ellipse fill="#FCA424" cx="554.514" cy="300.665" rx="18.392" ry="17.945"/>
<ellipse fill="#FCA424" cx="554.514" cy="198.957" rx="18.392" ry="17.945"/>
<ellipse fill="#FCA424" cx="347.425" cy="198.957" rx="18.391" ry="17.945"/>
<ellipse fill="#FCA424" cx="554.514" cy="402.44" rx="18.392" ry="17.944"/>
<ellipse fill="#FCA424" cx="344.981" cy="402.44" rx="18.392" ry="17.944"/>
<ellipse fill="#FCA424" cx="344.981" cy="299.813" rx="18.392" ry="17.944"/>
<ellipse fill="#FCA424" cx="450.166" cy="402.44" rx="18.392" ry="17.944"/>
</svg>
