<?xml version="1.0" encoding="utf-8"?>
<!-- Generator: Adobe Illustrator 14.0.0, SVG Export Plug-In . SVG Version: 6.00 Build 43363)  -->
<!DOCTYPE svg PUBLIC "-//W3C//DTD SVG 1.1//EN" "http://www.w3.org/Graphics/SVG/1.1/DTD/svg11.dtd">
<svg version="1.1" id="图层_1" xmlns="http://www.w3.org/2000/svg" xmlns:xlink="http://www.w3.org/1999/xlink" x="0px" y="0px"
	 width="900px" height="600px" viewBox="0 0 900 600" enable-background="new 0 0 900 600" xml:space="preserve">
<rect fill="#1788D1" width="900" height="600"/>
<path fill="#FFFFFF" d="M446.863,150.128c26.148,0.104,48.029,4.723,68.884,13.89c3.044,1.337,2.882,2.24,0.81,4.375
	c-13.256,13.989-24.881,29.335-34.666,45.767c-11.307,18.378-17.15,39.401-16.893,60.768c0.16,8.937,1.504,17.817,3.998,26.426
	c4.754,17.71,13.687,33.7,22.114,49.882c8.753,16.807,17.865,33.439,22.728,51.826c2.582,9.578,3.83,19.446,3.71,29.342
	c0,2.24-1.134,3.021-3.007,3.82c-25.123,11.199-52.922,15.634-80.447,12.83c-28.07-2.602-54.825-12.723-77.24-29.221
	c-18.322-13.216-33.389-30.172-44.122-49.656c-14.036-24.951-20.184-53.319-17.685-81.602c3.295-38.163,19.27-70.734,48.264-97.316
	c21.662-19.971,48.925-33.378,78.412-38.562C429.988,151.015,438.413,150.153,446.863,150.128z"/>
<path fill="#F57037" d="M560.392,405.354c0.737-3.629,1.423-6.598,1.98-9.602c3.603-19.897-0.198-38.856-7.833-57.296
	c-7.799-18.924-18.712-36.252-28.347-54.273c-7.204-13.387-13.327-27.086-16.063-42.069c-3.801-20.835,0.666-39.933,11.615-57.956
	c2.07-3.472,4.61-6.492,6.609-9.913c1.477-2.552,2.846-2.118,4.952-0.816c21.188,12.944,38.8,30.65,51.325,51.6
	c13.988,22.938,21.199,49.129,20.854,75.734c-0.396,37.121-13.093,69.953-38.485,98.045
	C565.08,401.239,562.861,403.438,560.392,405.354z"/>
</svg>
