<?xml version="1.0" encoding="utf-8"?>
<!-- Generator: Adobe Illustrator 14.0.0, SVG Export Plug-In . SVG Version: 6.00 Build 43363)  -->
<!DOCTYPE svg PUBLIC "-//W3C//DTD SVG 1.1//EN" "http://www.w3.org/Graphics/SVG/1.1/DTD/svg11.dtd">
<svg version="1.1" id="图层_1" xmlns="http://www.w3.org/2000/svg" xmlns:xlink="http://www.w3.org/1999/xlink" x="0px" y="0px"
	 width="900px" height="600px" viewBox="0 0 900 600" enable-background="new 0 0 900 600" xml:space="preserve">
<rect fill="#6BBB47" width="900" height="600"/>
<path fill="#20ADEE" d="M786.433,136.069c-0.57-0.335-0.872-0.973-0.369-1.309c0.504-0.335,0.771,0.369,0.973,0.839
	C786.815,135.729,786.612,135.887,786.433,136.069z"/>
<path fill="#FFFFFF" d="M429.913,138.748c-0.653,10.868,0.356,21.771,2.996,32.35c4.162,16.012,13.632,28.311,27.208,37.867
	c10.488,7.375,22.197,12.622,33.572,18.429c11.376,5.806,22.807,11.558,32.888,19.546c14.067,11.006,24.475,25.826,29.909,42.592
	c4.479,12.553,6.095,25.906,4.735,39.13c-1.355,11.86-5.337,23.292-11.672,33.503c-8.644,14.422-21.487,26.014-36.901,33.305
	c-31.223,14.553-60.909,11.505-88.784-8.402c-4.831-3.334-9.136-7.337-12.781-11.883c2.442,0.758,4.884,1.533,7.399,2.254
	c14.729,4.654,30.242,6.491,45.687,5.41c19.311-1.588,36.698-7.719,50.681-21.314c14.428-14.011,19.478-31.087,16.906-50.49
	c-1.756-13.241-8.067-25.511-17.904-34.801c-8.047-7.916-17.554-13.831-27.19-19.583c-8.213-4.905-16.647-9.448-24.73-14.552
	c-10.931-6.87-21.03-14.714-28.43-25.389c-6.02-8.834-9.658-19.006-10.58-29.572c-1.331-12.983,0.722-25.605,3.884-38.156
	C427.561,145.501,428.6,142.076,429.913,138.748z"/>
<path fill="#F37422" d="M628.198,427.711c-4.864-2.381-9.415-5.41-14.335-7.646c-11.616-5.409-23.694-8.854-36.697-8.367
	c-12.412,0.451-23.695,4.599-34.479,10.297s-20.346,12.299-30.445,18.556c-11.764,7.212-23.879,13.866-37.438,17.545
	c-17.701,4.814-35.255,3.877-52.771-1.137c-21.197-6.095-38.085-17.87-49.941-36.063c-19.644-30.258-18.496-71.516,5.975-99.627
	c10.385-11.799,23.939-20.541,39.139-25.244c3.258-1.113,6.589-2.012,9.971-2.688c0,1.137-0.889,1.425-1.443,1.804
	c-12.465,10.218-22.753,22.723-30.279,36.804c-9.248,17.742-13.059,36.316-7.713,55.898c4.55,16.77,15.001,28.941,30.76,36.983
	c18.922,9.647,37.956,8.89,57.191,1.01c11.803-4.851,22.771-11.251,33.924-17.311c12.023-6.509,24.193-12.622,37.809-15.562
	c17.516-3.606,33.793-0.343,49.09,8.439c11.375,6.83,21.71,15.182,30.704,24.812c0.346,0.427,0.667,0.872,0.962,1.334
	L628.198,427.711z"/>
<path fill="#ED564D" d="M491.174,349.523c-1.238-5.644-2.293-10.602-3.699-15.436c-5.826-19.239-15.148-36.46-30.741-49.912
	c-13.854-11.991-29.817-18.717-48.591-17.906c-14.243,0.632-26.358,6.384-36.994,15.184c-12.633,10.387-18.867,24.09-21.309,39.67
	c-1.85,12.353-1.85,24.83-1.85,37.291c0.136,11.604-0.931,23.189-3.182,34.585c-5.104,23.657-20.217,39.039-42.246,48.776
	c-9.486,4.074-19.346,7.268-29.447,9.539c-0.431,0.212-0.95,0.147-1.313-0.162c3.366-1.911,6.714-3.697,9.951-5.662
	c12.781-7.736,23.639-17.293,30.371-30.654c4.688-9.836,7.173-20.531,7.288-31.376c0.499-13.506-0.999-26.939-1.368-40.409
	c-0.352-12.623,0.147-25.245,3.588-37.525c5.346-19.041,16.646-34.26,31.832-46.883c11.324-9.529,25.043-15.951,39.75-18.609
	c17.092-3.206,34.778-1.321,50.756,5.41c17.423,6.945,31.967,19.365,41.322,35.289c8.446,14.393,12.086,30.994,10.412,47.496
	c-0.529,6.329-1.727,12.59-3.569,18.681C491.914,347.631,491.674,348.226,491.174,349.523z"/>
</svg>
