<?xml version="1.0" encoding="utf-8"?>
<!-- Generator: Adobe Illustrator 14.0.0, SVG Export Plug-In . SVG Version: 6.00 Build 43363)  -->
<!DOCTYPE svg PUBLIC "-//W3C//DTD SVG 1.1//EN" "http://www.w3.org/Graphics/SVG/1.1/DTD/svg11.dtd">
<svg version="1.1" id="图层_1" xmlns="http://www.w3.org/2000/svg" xmlns:xlink="http://www.w3.org/1999/xlink" x="0px" y="0px"
	 width="900px" height="600px" viewBox="0 0 900 600" enable-background="new 0 0 900 600" xml:space="preserve">
<rect fill="#FFFFFF" width="900" height="600"/>
<g>
	<path fill="#4DA5D0" d="M313.763,183.02c108.589-109.828,241.786-53.305,284.706,16.017c17.946,28.601,22.605,62.493,0.728,84.229
		c-40.043,39.327-103.711-9.617-141.206-35.465c-52.202-36.18-173.823-53.806-189.658,48.264
		c-9.064-113.045,152.527-153.373,235.088-82.621c-13.299,5.744-26.344,11.703-39.133,17.875
		c41.639-0.033,82.518,10.945,118.346,31.783c-8.415-44.951-34.319-84.919-72.224-111.436c3.802,10.491,6.247,21.409,7.28,32.498
		c-61.784-39.802-141.611-40.25-203.854-1.144H313.763z"/>
	<path fill="#4AB319" d="M586.602,416.868c-108.808,109.828-241.86,53.628-284.96-15.766c-17.692-28.852-22.352-62.707-0.437-84.194
		c40.043-39.612,103.674,9.582,141.169,35.466c52.202,35.751,173.568,53.627,189.294-48.3
		c9.064,113.045-152.163,153.729-234.87,82.228c13.287-5.47,26.101-11.44,39.133-17.876c-41.672,0.244-82.61-10.763-118.346-31.818
		c8.334,45.135,34.306,85.281,72.369,111.865c-3.828-10.569-6.274-21.573-7.28-32.748c61.773,39.839,141.622,40.288,203.855,1.144
		H586.602z"/>
</g>
</svg>
