<?xml version="1.0" encoding="utf-8"?>
<!-- Generator: Adobe Illustrator 14.0.0, SVG Export Plug-In . SVG Version: 6.00 Build 43363)  -->
<!DOCTYPE svg PUBLIC "-//W3C//DTD SVG 1.1//EN" "http://www.w3.org/Graphics/SVG/1.1/DTD/svg11.dtd">
<svg version="1.1" id="图层_1" xmlns="http://www.w3.org/2000/svg" xmlns:xlink="http://www.w3.org/1999/xlink" x="0px" y="0px"
	 width="900px" height="600px" viewBox="0 0 900 600" enable-background="new 0 0 900 600" xml:space="preserve">
<rect fill="#8A6682" width="900" height="600"/>
<g>
	<g>
		<path fill="#00476E" d="M262.209,122.709h375.582v34.057c-187.433,0.08-339.371,143.5-339.513,320.476h-36.069V122.709z
			 M637.791,375.412v101.83H530.15C530.123,421.068,578.298,375.492,637.791,375.412L637.791,375.412z"/>
		<path fill="#009EA1" d="M342.9,477.242c0.028-153.751,132.056-278.37,294.891-278.343v46.025
			c-135.856-0.054-246.037,103.894-246.094,232.172c0,0.049,0,0.098,0,0.146H342.9z"/>
		<path fill="#009EA1" d="M438.432,477.242c0.029-103.934,89.285-188.167,199.359-188.141l0,0v44.227
			c-84.206-0.027-152.492,64.405-152.521,143.914c0,0.017,0,0.032,0,0.049L438.432,477.242z"/>
	</g>
</g>
</svg>
