<svg id="svg" version="1.1" xmlns="http://www.w3.org/2000/svg" xmlns:xlink="http://www.w3.org/1999/xlink" width="400" height="266.25" viewBox="0, 0, 400,266.25"><g id="svgg"><path id="path0" d="M0.000 133.156 L 0.000 266.312 200.000 266.312 L 400.000 266.312 400.000 133.156 L 400.000 0.000 200.000 0.000 L 0.000 0.000 0.000 133.156 M278.162 133.156 L 278.162 211.318 200.000 211.318 L 121.838 211.318 121.769 133.422 C 121.732 90.579,121.758 55.376,121.828 55.193 C 121.929 54.927,137.715 54.873,200.058 54.926 L 278.162 54.993 278.162 133.156 M134.221 133.156 L 134.221 198.935 200.000 198.935 L 265.779 198.935 265.779 133.156 L 265.779 67.377 200.000 67.377 L 134.221 67.377 134.221 133.156 M250.866 133.156 L 250.866 184.021 200.000 184.021 L 149.134 184.021 149.134 133.156 L 149.134 82.290 200.000 82.290 L 250.866 82.290 250.866 133.156 M163.639 97.003 C 163.569 97.187,163.542 113.575,163.580 133.422 L 163.648 169.507 200.000 169.507 L 236.352 169.507 236.352 133.156 L 236.352 96.804 200.059 96.737 C 171.164 96.683,163.740 96.737,163.639 97.003 M226.232 133.156 L 226.232 159.387 200.000 159.387 L 173.768 159.387 173.700 133.422 C 173.662 119.141,173.688 107.306,173.758 107.123 C 173.860 106.857,179.261 106.802,200.059 106.856 L 226.232 106.924 226.232 133.156 M177.896 133.156 L 177.896 155.260 200.000 155.260 L 222.104 155.260 222.104 133.156 L 222.104 111.052 200.000 111.052 L 177.896 111.052 177.896 133.156 M217.044 133.156 L 217.044 150.200 200.000 150.200 L 182.956 150.200 182.956 133.156 L 182.956 116.112 200.000 116.112 L 217.044 116.112 217.044 133.156 M187.750 133.156 L 187.750 145.406 200.000 145.406 L 212.250 145.406 212.250 133.156 L 212.250 120.905 200.000 120.905 L 187.750 120.905 187.750 133.156 " stroke="none" fill="#b80f0a" fill-rule="evenodd"></path><path id="path1" d="M121.828 55.193 C 121.758 55.376,121.732 90.579,121.769 133.422 L 121.838 211.318 200.000 211.318 L 278.162 211.318 278.162 133.156 L 278.162 54.993 200.058 54.926 C 137.715 54.873,121.929 54.927,121.828 55.193 M265.779 133.156 L 265.779 198.935 200.000 198.935 L 134.221 198.935 134.221 133.156 L 134.221 67.377 200.000 67.377 L 265.779 67.377 265.779 133.156 M149.134 133.156 L 149.134 184.021 200.000 184.021 L 250.866 184.021 250.866 133.156 L 250.866 82.290 200.000 82.290 L 149.134 82.290 149.134 133.156 M236.352 133.156 L 236.352 169.507 200.000 169.507 L 163.648 169.507 163.580 133.422 C 163.542 113.575,163.569 97.187,163.639 97.003 C 163.740 96.737,171.164 96.683,200.059 96.737 L 236.352 96.804 236.352 133.156 M173.758 107.123 C 173.688 107.306,173.662 119.141,173.700 133.422 L 173.768 159.387 200.000 159.387 L 226.232 159.387 226.232 133.156 L 226.232 106.924 200.059 106.856 C 179.261 106.802,173.860 106.857,173.758 107.123 M222.104 133.156 L 222.104 155.260 200.000 155.260 L 177.896 155.260 177.896 133.156 L 177.896 111.052 200.000 111.052 L 222.104 111.052 222.104 133.156 M182.956 133.156 L 182.956 150.200 200.000 150.200 L 217.044 150.200 217.044 133.156 L 217.044 116.112 200.000 116.112 L 182.956 116.112 182.956 133.156 M212.250 133.156 L 212.250 145.406 200.000 145.406 L 187.750 145.406 187.750 133.156 L 187.750 120.905 200.000 120.905 L 212.250 120.905 212.250 133.156 " stroke="none" fill="#ffffff" fill-rule="evenodd"></path></g></svg>