<?xml version="1.0" encoding="utf-8"?>
<!-- Generator: Adobe Illustrator 14.0.0, SVG Export Plug-In . SVG Version: 6.00 Build 43363)  -->
<!DOCTYPE svg PUBLIC "-//W3C//DTD SVG 1.1//EN" "http://www.w3.org/Graphics/SVG/1.1/DTD/svg11.dtd">
<svg version="1.1" id="图层_1" xmlns="http://www.w3.org/2000/svg" xmlns:xlink="http://www.w3.org/1999/xlink" x="0px" y="0px"
	 width="900px" height="600px" viewBox="0 0 900 600" enable-background="new 0 0 900 600" xml:space="preserve">
<rect fill="#FFFFFF" width="900" height="600"/>
<linearGradient id="SVGID_1_" gradientUnits="userSpaceOnUse" x1="216.2612" y1="547.3574" x2="216.2612" y2="438.6168" gradientTransform="matrix(2.5673 0 0 -2.5673 29.0392 1581.3667)">
	<stop  offset="0.42" style="stop-color:#30B5EA"/>
	<stop  offset="0.99" style="stop-color:#0161A5"/>
	<stop  offset="1" style="stop-color:#005FA4"/>
</linearGradient>
<path fill="url(#SVGID_1_)" d="M661.847,322.436c0.416-3.188,0.631-6.398,0.643-9.612v-0.54
	c-80.176,10.191-150.475,58.104-188.811,128.68h157.445c35.185-0.007,63.703-28.3,63.696-63.195
	C694.816,354.742,682.183,333.543,661.847,322.436z"/>
<linearGradient id="SVGID_2_" gradientUnits="userSpaceOnUse" x1="157.3491" y1="670.2725" x2="157.3491" y2="432.0031" gradientTransform="matrix(2.5673 0 0 -2.5673 29.0392 1581.3667)">
	<stop  offset="0.42" style="stop-color:#30B5EA"/>
	<stop  offset="0.99" style="stop-color:#0161A5"/>
	<stop  offset="1" style="stop-color:#005FA4"/>
</linearGradient>
<path fill="url(#SVGID_2_)" d="M660.827,297.506c-8.494-40.477-48.467-66.46-89.279-58.035c-0.004,0.001-0.01,0.002-0.014,0.003
	h-0.084l-1.676,0.36c-8.148-52.095-57.335-87.776-109.863-79.696c-29.744,4.575-55.616,22.687-69.925,48.949
	c-38.871-20.515-87.151-5.895-107.837,32.655c-6.137,11.437-9.346,24.193-9.346,37.148v1.205
	c-44.443,7.715-74.166,49.701-66.387,93.779c2.795,15.832,10.275,30.484,21.488,42.09
	c90.271-106.784,235.859-161.395,382.646-129.539c6.117,1.385,12.15,2.77,18.156,4.404
	c-139.541-23.131-275.479,38.779-350.96,149.579c3.032,0.337,6.081,0.508,9.134,0.513h35.023
	C392.975,332.13,525.657,271.813,660.827,297.506z"/>
<linearGradient id="SVGID_3_" gradientUnits="userSpaceOnUse" x1="191.7227" y1="558.0557" x2="191.7227" y2="438.0386" gradientTransform="matrix(2.5673 0 0 -2.5673 29.0392 1581.3667)">
	<stop  offset="0.42" style="stop-color:#30B5EA"/>
	<stop  offset="0.99" style="stop-color:#0161A5"/>
	<stop  offset="1" style="stop-color:#005FA4"/>
</linearGradient>
<path fill="url(#SVGID_3_)" d="M661.246,300.054c-112.898-9.513-221.526,45.056-280.589,140.951h43.293
	c49.221-84.202,139.758-136.222,237.896-136.686C661.693,302.934,661.483,301.467,661.246,300.054z"/>
</svg>
