<?xml version="1.0" encoding="utf-8"?>
<!-- Generator: Adobe Illustrator 14.0.0, SVG Export Plug-In . SVG Version: 6.00 Build 43363)  -->
<!DOCTYPE svg PUBLIC "-//W3C//DTD SVG 1.1//EN" "http://www.w3.org/Graphics/SVG/1.1/DTD/svg11.dtd">
<svg version="1.1" id="图层_1" xmlns="http://www.w3.org/2000/svg" xmlns:xlink="http://www.w3.org/1999/xlink" x="0px" y="0px"
	 width="900px" height="600px" viewBox="0 0 900 600" enable-background="new 0 0 900 600" xml:space="preserve">
<rect fill="#072A50" width="900" height="600"/>
<path fill="#FFFFFF" d="M599.372,322.51c-7.409,7.151-14.43,13.902-21.413,20.676l-120.146,116.76
	c-6.496,6.3-17.521,6.203-24.355-0.329c-7.071-6.737-14.018-13.585-21.014-20.384c-24.004-23.328-48.012-46.643-72.025-69.945
	c-0.994-0.799-2.048-1.521-3.153-2.166c5.832-4.488,10.713-8.514,15.907-12.162c19.924-13.803,42.471-23.625,66.33-28.897
	c28.928-6.45,58.68-8.692,88.283-6.653h2.104c-0.661-0.344-1.342-0.649-2.041-0.912c-41.876-10.764-84.228-14.352-127.18-7.541
	c-25.817,3.989-50.85,11.816-74.217,23.206c-0.806,0.306-1.714,0.215-2.439-0.243c-6.258-5.947-12.354-11.98-18.66-18.135
	c7.684-5.223,15.992-9.52,24.742-12.794c22.854-8.781,46.744-13.05,71.125-15.13c44.829-3.807,88.983,0.742,132.725,10.155
	c27.877,5.97,55.313,13.743,82.125,23.267C597.007,321.598,597.883,321.951,599.372,322.51z"/>
<path fill="#CC2944" d="M321.195,248.842c4.279-4.037,8.623-8.015,12.84-12.162c32.928-31.938,65.943-63.78,98.646-95.937
	c7.224-7.076,18.982-7.122,26.265-0.101c0.006,0.005,0.011,0.011,0.017,0.016c36.02,35.092,72.088,70.136,108.208,105.131
	c0.341,0.336,0.579,0.757,0.688,1.217c-58.059-18.864-116.918-26.575-178.156-12.893c1.252,0.086,1.728,0.17,2.24,0.158
	c43.328-1.599,86.621,3.924,128.057,16.334c27.334,8.101,54.116,17.636,80.474,28.303c0.729,0.285,1.399,0.697,1.978,1.216
	c2.503,2.433,5.094,4.78,7.509,7.298c6.444,6.768,6.217,17.277-0.513,23.777c-1.79,1.738-3.505,4.463-5.595,4.804
	s-4.593-1.728-6.884-2.81c-48.809-23.108-99.309-41.596-152.336-53.125c-33.127-7.213-66.844-9.633-100.71-10.447
	c-7.397-0.171-14.793,0-22.19,0C321.533,249.377,321.357,249.121,321.195,248.842L321.195,248.842z"/>
</svg>
