<?xml version="1.0" encoding="utf-8"?>
<!-- Generator: Adobe Illustrator 14.0.0, SVG Export Plug-In . SVG Version: 6.00 Build 43363)  -->
<!DOCTYPE svg PUBLIC "-//W3C//DTD SVG 1.1//EN" "http://www.w3.org/Graphics/SVG/1.1/DTD/svg11.dtd">
<svg version="1.1" id="图层_1" xmlns="http://www.w3.org/2000/svg" xmlns:xlink="http://www.w3.org/1999/xlink" x="0px" y="0px"
	 width="900px" height="600px" viewBox="0 0 900 600" enable-background="new 0 0 900 600" xml:space="preserve">
<rect fill="#FFFFFF" width="900" height="600"/>
<g>
	<g>
		<path fill="#808184" d="M506.42,467.392l124.881-68.272L506.42,339.621V467.392z"/>
		<path fill="#BBBCBE" d="M506.42,132.588v207.033l124.881,59.498V200.88L506.42,132.588z"/>
		<path fill="#1D76BB" d="M336.26,436.06v-69.113l-67.561,32.173L336.26,436.06z"/>
		<path fill="#26AAE1" d="M268.699,200.88v198.239l67.561-32.173V163.94L268.699,200.88z M353.79,154.366v204.219l67.539-32.175
			V117.426L353.79,154.366z"/>
		<path fill="#1D76BB" d="M353.79,445.634l67.539,36.633V326.41l-67.539,32.175V445.634z M449.989,312.748l-11.13,5.322v174.078
			l11.13,6.102l56.431-30.859v-127.77L449.989,312.748z"/>
		<path fill="#26AAE1" d="M506.42,339.621V132.588l-56.431-30.838l-11.13,6.081V318.07l11.13-5.322L506.42,339.621L506.42,339.621z"
			/>
	</g>
</g>
</svg>
