<svg xmlns="http://www.w3.org/2000/svg" width="900" height="600">
  <path fill="#00bfbf" d="M-1-1h902v602H-1z"/>
  <path fill="#007f3f" d="M316.998901 307.892944c33.258118 0 64.475586 12.27356 87.921021 34.521912 23.511261 22.279114 36.419952 51.953918 36.419952 83.524292h51.237213c0-91.727661-78.766785-166.334106-175.578186-166.334106v48.287903zm.066406-85.606476c118.412018 0 214.69696 91.385803 214.69696 203.714539h51.238831c0-138.958466-119.336304-252.002014-265.935791-252.002014v48.287476zm70.796875 169.938171c0 18.488892-15.871582 33.496735-35.431152 33.496735s-35.432129-15.007843-35.432129-33.496735c0-18.457092 15.871521-33.434418 35.432129-33.434418s35.431152 14.977325 35.431152 33.434418z"/>
</svg>