<?xml version="1.0" encoding="utf-8"?>
<!-- Generator: Adobe Illustrator 14.0.0, SVG Export Plug-In . SVG Version: 6.00 Build 43363)  -->
<!DOCTYPE svg PUBLIC "-//W3C//DTD SVG 1.1//EN" "http://www.w3.org/Graphics/SVG/1.1/DTD/svg11.dtd">
<svg version="1.1" id="图层_1" xmlns="http://www.w3.org/2000/svg" xmlns:xlink="http://www.w3.org/1999/xlink" x="0px" y="0px"
	 width="900px" height="600px" viewBox="0 0 900 600" enable-background="new 0 0 900 600" xml:space="preserve">
<rect fill="#FBC208" width="900" height="600"/>
<path fill="#FFFFFF" d="M588.241,368.648c0,38.128-31.053,69.036-69.356,69.036c-38.305,0-69.355-30.908-69.355-69.036
	c0.051-38.145-30.973-69.109-69.294-69.16c-0.021,0-0.041,0-0.063,0c-38.304,0-69.355-30.908-69.355-69.037
	c0-38.127,31.052-69.036,69.355-69.036c38.305,0,69.356,30.909,69.356,69.036c0,38.129,31.051,69.037,69.355,69.037
	c38.321,0.018,69.374,30.953,69.356,69.098C588.241,368.607,588.241,368.628,588.241,368.648z"/>
<path fill="#0654FC" d="M490.581,263.154c-27.114-26.931-27.161-70.643-0.104-97.631c27.056-26.99,70.97-27.037,98.084-0.105
	c27.114,26.932,27.161,70.643,0.104,97.633c-12.984,12.953-30.605,20.244-48.989,20.271
	C521.264,283.389,503.588,276.127,490.581,263.154z"/>
<path fill="#E7235B" d="M311.378,434.521c-27.08-26.966-27.071-70.677,0.02-97.632c27.09-26.955,71.005-26.947,98.084,0.019
	c27.08,26.966,27.072,70.677-0.02,97.632c-13.003,12.938-30.635,20.208-49.021,20.211
	C342.03,454.791,324.366,447.508,311.378,434.521z"/>
</svg>
