<?xml version="1.0" encoding="utf-8"?>
<!-- Generator: Adobe Illustrator 14.0.0, SVG Export Plug-In . SVG Version: 6.00 Build 43363)  -->
<!DOCTYPE svg PUBLIC "-//W3C//DTD SVG 1.1//EN" "http://www.w3.org/Graphics/SVG/1.1/DTD/svg11.dtd">
<svg version="1.1" id="图层_1" xmlns="http://www.w3.org/2000/svg" xmlns:xlink="http://www.w3.org/1999/xlink" x="0px" y="0px"
	 width="900px" height="600px" viewBox="0 0 900 600" enable-background="new 0 0 900 600" xml:space="preserve">
<rect fill="#5DCCED" width="900" height="600"/>
<path opacity="0.8" fill="#FFFFFF" enable-background="new    " d="M513.602,334.975V236.07h59.155
	c36.082,6.506,64.394,34.771,71.102,70.987v56.873H542.225C526.386,363.824,513.602,350.893,513.602,334.975L513.602,334.975z"/>
<path fill="#FFFFFF" d="M386.36,207.155V108.25h121.783c4.72-0.006,9.248,1.87,12.595,5.216l118.081,118.885
	c3.323,3.35,5.189,7.887,5.189,12.617v62.089c-6.728-36.26-35.11-64.537-71.253-70.985H415.175
	c-15.893,0.021-28.793-12.908-28.813-28.877C386.36,207.18,386.36,207.167,386.36,207.155z"/>
<path opacity="0.8" fill="#FFFFFF" enable-background="new    " d="M386.438,265.024v98.906h-59.309
	c-36.087-6.514-64.405-34.771-71.139-70.987V236.07h101.632C373.536,236.07,386.438,249.034,386.438,265.024L386.438,265.024z"/>
<path fill="#FFFFFF" d="M513.64,392.846v98.904H391.856c-4.707,0-9.223-1.876-12.557-5.216L261.18,367.841
	c-3.324-3.349-5.19-7.887-5.19-12.616v-62.281c6.733,36.215,35.052,64.474,71.139,70.986h157.85
	C500.826,363.992,513.64,376.92,513.64,392.846z"/>
</svg>
