<svg width="600" height="400" xmlns="http://www.w3.org/2000/svg">
 <!-- Created with Method Draw - http://github.com/duopixel/Method-Draw/ -->

 <g>
  <title>background</title>
  <rect fill="#fff" id="canvas_background" height="402" width="602" y="-1" x="-1"/>
  <g display="none" overflow="visible" y="0" x="0" height="100%" width="100%" id="canvasGrid">
   <rect fill="url(#gridpattern)" stroke-width="0" y="0" x="0" height="100%" width="100%"/>
  </g>
 </g>
 <g>
  <title>Layer 1</title>
  <g stroke="null" id="svg_10">
   <g stroke="null" transform="matrix(2.99412 0 0 3.00294 -289.723 -172.722)" id="svg_5">
    <path stroke="null" id="svg_6" d="m215.648071,92.299484c-11.560989,-0.734001 -21.212997,2.584 -28.153992,11.83799c-6.96701,9.291008 -7.088013,19.374008 -1.848007,30.200996c-3.345001,-1.554993 -5.602005,-3.537994 -7.554001,-5.821991c-14.188995,-16.579002 -5.322998,-42.739998 16.235001,-47.986992c0.134003,-0.031998 0.272995,-0.031998 0.397995,-0.081009c3.743011,-1.35199 6.729004,-0.623001 9.590012,2.417c2.712997,2.888008 6.084991,5.158012 9.169998,7.696999c0.716995,0.581009 1.442001,1.155014 2.162994,1.737007z" fill="#EA1D24" clip-rule="evenodd" fill-rule="evenodd"/>
    <path stroke="null" id="svg_7" d="m178.168076,155.408463c11.479996,1.49501 21.173996,-1.248993 28.095001,-10.458984c6.972,-9.281998 6.653992,-19.354996 1.845001,-30.102989c0.990005,0.524994 1.615997,0.797005 2.186005,1.159988c13.905991,8.919006 16.770996,28.301003 6.119995,41.290993c-5.382004,6.563004 -12.335007,10.207001 -20.730011,11.122009c-0.796997,0.084 -1.844986,-0.073013 -2.439987,-0.542007c-4.746002,-3.712997 -9.407013,-7.531006 -14.085999,-11.32399c-0.282013,-0.23201 -0.492004,-0.563019 -0.990005,-1.14502z" fill="#0098D3" clip-rule="evenodd" fill-rule="evenodd"/>
    <path stroke="null" id="svg_8" d="m206.663071,136.903473c-1.065994,3.347992 -3.366989,5.622009 -5.847992,7.651001c-10.527008,8.622009 -26.748001,7.897995 -36.89801,-1.555008c-5.837997,-5.434998 -9.26799,-12.078003 -9.992996,-20.048988c-0.071991,-0.800987 0.102997,-1.844994 0.585999,-2.439995c3.55101,-4.431999 7.208008,-8.783997 10.839005,-13.149994c0.197006,-0.237 0.475006,-0.402 1.199997,-0.998001c-1.199997,11.541985 1.960999,21.078987 10.876007,27.987991c9.01799,6.984985 18.908005,7.185989 29.237991,2.552994z" fill="#FDD329" clip-rule="evenodd" fill-rule="evenodd"/>
    <path stroke="null" id="svg_9" d="m227.45607,142.391479c3.058014,-22.414009 -18.403,-39.833992 -40.936996,-29.903992c2.740005,-4.383003 6.197006,-7.656013 10.477005,-9.962006c18.39299,-9.92099 39.623978,2.144997 42.870987,21.249992c0.367004,2.167999 0.102997,3.907013 -1.557983,5.713005c-3.749008,4.065994 -7.147003,8.447998 -10.853012,12.903z" clip-rule="evenodd" fill-rule="evenodd"/>
   </g>
  </g>
 </g>
</svg>