<?xml version="1.0" encoding="utf-8"?>
<!-- Generator: Adobe Illustrator 14.0.0, SVG Export Plug-In . SVG Version: 6.00 Build 43363)  -->
<!DOCTYPE svg PUBLIC "-//W3C//DTD SVG 1.1//EN" "http://www.w3.org/Graphics/SVG/1.1/DTD/svg11.dtd">
<svg version="1.1" id="图层_1" xmlns="http://www.w3.org/2000/svg" xmlns:xlink="http://www.w3.org/1999/xlink" x="0px" y="0px"
	 width="900px" height="600px" viewBox="0 0 900 600" enable-background="new 0 0 900 600" xml:space="preserve">
<rect fill="#FFFFFF" width="900" height="600"/>
<g>
	<g>
		<path fill="#0691CA" d="M503.345,150.414c26.88,22.136,47.6,51.169,60.065,84.168c12.262,30.719,16.603,64.169,12.601,97.117
			h-7.98c-15.054,4.116-30.655,5.72-46.204,4.748c3.102-40.679-3.833-81.504-20.162-118.698
			c-13.979-30.913-35.728-57.434-63.005-76.831c10.614-1.079,21.308-1.079,31.922,0
			C481.762,143.047,492.729,146.226,503.345,150.414L503.345,150.414z"/>
		<path fill="#004883" d="M402.115,184.081c-9.729-8.94-20.28-16.891-31.502-23.739c10.656-5.788,21.934-10.278,33.603-13.381
			c6.595-2.434,13.328-4.452,20.162-6.043c31.018,19.678,55.48,48.58,70.146,82.873c15.782,35.679,22.571,74.867,19.742,113.951
			h-6.721c-19.614-4.152-38.195-12.377-54.604-24.172c2.912-30.941-3.699-62.041-18.902-88.916
			C425.634,209.422,414.849,195.715,402.115,184.081z"/>
		<path fill="#44C2F4" d="M281.985,348.531c5.502-35.067,20.001-67.994,42.003-95.39c18.963-26.483,44.291-47.454,73.507-60.86
			c11.367,10.039,21.145,21.834,28.982,34.962l4.2,8.201c-35.973,17.71-66.923,44.609-89.888,78.125
			c-19.754,28.447-31.655,61.855-34.443,96.686c-9.728-15.445-17.094-32.331-21.842-50.069L281.985,348.531z M605.413,380.472
			c-31.578,17.62-67.563,25.136-103.329,21.582c-37.941-3.711-74.354-17.223-105.849-39.278
			c14.315-18.375,32.768-32.893,53.765-42.3c17.37,12.483,37.131,21.019,57.965,25.034h11.762
			c17.891,1.76,35.942,0.299,53.344-4.316l11.341-3.452l16.382-6.475c5.867-2.445,11.614-5.182,17.222-8.201v14.676
			C615.725,352.507,611.485,366.883,605.413,380.472z"/>
		<path fill="#0691CA" d="M360.952,421.909c-2.524,12.493-3.791,25.222-3.78,37.982c-16.069-10.549-30.273-23.83-42.004-39.278
			c0.857-36.874,12.412-72.646,33.183-102.728c22.521-31.132,52.072-56.167,86.107-72.945c8.4,21.785,11.71,45.291,9.661,68.629
			c-27.262,12.492-50.135,33.284-65.525,59.565C370.058,388.243,364.092,404.738,360.952,421.909z"/>
		<path fill="#004883" d="M559.63,446.512h-2.101c-31.432,12.349-65.452,16.068-98.709,10.79
			c-32.227-3.707-62.938-16.063-89.048-35.824c3.256-15.172,8.782-29.733,16.382-43.163c1.691-2.492,3.234-5.087,4.62-7.771
			c32.666,23.781,70.681,38.635,110.47,43.164c33.675,3.325,67.603-2.635,98.289-17.266l-4.621,8.201
			C585.421,420.46,573.506,434.598,559.63,446.512z"/>
	</g>
</g>
</svg>
