<?xml version="1.0" encoding="utf-8"?>
<!-- Generator: Adobe Illustrator 14.0.0, SVG Export Plug-In . SVG Version: 6.00 Build 43363)  -->
<!DOCTYPE svg PUBLIC "-//W3C//DTD SVG 1.1//EN" "http://www.w3.org/Graphics/SVG/1.1/DTD/svg11.dtd">
<svg version="1.1" id="图层_1" xmlns="http://www.w3.org/2000/svg" xmlns:xlink="http://www.w3.org/1999/xlink" x="0px" y="0px"
	 width="900px" height="600px" viewBox="0 0 900 600" enable-background="new 0 0 900 600" xml:space="preserve">
<rect fill="#4FC2E4" width="900" height="600"/>
<path fill="#F1743C" d="M414.908,118.529c57.632-9.946,120.557,7.111,163.525,46.681c13.973,12.836,25.804,27.781,35.055,44.279
	c20.15,36.038,26.559,76.88,21.048,117.362c-5.851-16.817-7.744-34.957-14.323-51.558c-9.395-23.665-25.393-43.942-42.216-62.946
	c-16.55-18.948-35.448-35.754-56.249-50.02c-36.414-24.625-81.301-36.038-125.412-36.758
	C401.888,121.82,408.248,119.409,414.908,118.529L414.908,118.529z"/>
<path fill="#F8CA80" d="M366.574,140.175c6.16-3.459,13.015-5.535,20.076-6.079c21.631-1.225,43.164,2.403,64.114,7.472
	c24.276,6.126,48.553,14.415,69.357,28.374c15.487,10.307,29.374,24.793,33.089,43.533c-8.352-4.612-16.096-10.234-24.787-14.15
	c-20.617-9.055-42.564-14.789-65.012-16.985c-21.753-3.288-43.91-2.939-65.546,1.033c-40.542,5.67-79.651,23.473-109.099,51.871
	c-7.064,7.207-12.866,15.279-19.42,22.752c1.41-11.793,5.084-23.209,10.826-33.635c17.649-37.047,50.059-65.638,86.497-84.089
	L366.574,140.175z"/>
<path fill="#67BF87" d="M415.782,187.385c21.36-2.939,43.086-1.962,64.09,2.883c-7.699,3.663-15.772,6.498-24.083,8.457
	c-38.502,11.076-73.873,34.788-95.77,68.424c-24.277,36.038-32.482,80.004-33.987,122.528c0.219,16.457,2.938,32.746,3.836,49.131
	c-4.068-2.471-7.896-5.31-11.435-8.48c-39.498-38.633-60.303-95.572-53.626-150.326c1.141-5.477,4.854-9.897,8.254-14.15
	C308.966,223.903,359.801,192.526,415.782,187.385z"/>
<path fill="#FFFFFF" d="M555.396,215.086c11.99,8.361,22.771,18.304,32.045,29.551c20.805,23.616,39.061,51.895,42.119,83.776
	c3.035,30.415-12.138,58.813-29.908,82.502c-36.529,47.707-94.11,74.995-154.567,73.253c-26.146-2.619-50.422-16.05-68.532-34.429
	c-8.175-8.207-13.874-18.507-16.46-29.743c15.707-0.744,33.089-1.009,46.125-11.027c8.934-6.486,8.035-18.764,6.021-28.302
	c-7.283-22.175-26.705-37.359-36.027-58.477c-5.316-11.196-8.738-24.843-2.912-36.543c6.36-13.693,20.877-20.998,34.521-25.851
	c18.814-6.198,38.624-8.938,58.263-10.595c26.074-0.313,52.219-1.13,78.292,0.191c-24.98,12.013-52.17,21.19-72.829,40.291
	c-8.278,7.688-16.993,17.273-16.436,29.262c-0.606,11.028,6.846,20.109,13.691,27.941c20.611,24.025,46.709,42.957,67.174,67.271
	c24.154-15.28,46.44-36.038,55.835-63.546c10.536-28.83,4.856-61.097-7.768-88.365c-7.283-16.986-18.814-31.545-28.622-47.089
	L555.396,215.086z"/>
</svg>
