<svg width="599.9999999999999" height="400" xmlns="http://www.w3.org/2000/svg">
 <!-- Created with Method Draw - http://github.com/duopixel/Method-Draw/ -->

 <g>
  <title>background</title>
  <rect fill="#2b5f96" id="canvas_background" height="402" width="602" y="-1" x="-1"/>
  <g display="none" overflow="visible" y="0" x="0" height="100%" width="100%" id="canvasGrid">
   <rect fill="url(#gridpattern)" stroke-width="0" y="0" x="0" height="100%" width="100%"/>
  </g>
 </g>
 <g>
  <title>Layer 1</title>
  <g stroke="null" id="svg_20">
   <path stroke="null" id="svg_4" fill="#ffffff" d="m356.875,162.433884l60.666748,0l0,34.619766l-60.666748,0l0,-34.619766z"/>
   <path stroke="null" id="svg_5" fill="#ffffff" d="m389.375,121.921432c15.527771,0 28.166748,12.890305 28.166748,28.72702l0,5.892731l-66.444519,0l0,40.512466l-43.875,0l73.666718,-75.132217l8.486053,0z"/>
   <path stroke="null" id="svg_6" fill="#ffffff" d="m357.055573,88.590698l24.013885,24.491623l-42.972198,43.827133l-23.833374,-24.491623l42.791687,-43.827133z"/>
   <path stroke="null" id="svg_7" fill="#ffffff" d="m309.027771,80.304062c5.236115,-5.340271 12.458344,-8.470779 19.861115,-8.470779c7.583313,0 14.624969,2.94635 19.861145,8.470779l4.152771,4.235413l-46.944489,47.878357l28.166687,28.727005l-31.055542,31.673401l0,-106.253143l5.958313,-6.261032z"/>
   <path stroke="null" id="svg_8" fill="#ffffff" d="m263.166626,80.119919l33.944489,0l0,61.873581l-33.944489,0l0,-61.873581z"/>
   <path stroke="null" id="svg_9" fill="#ffffff" d="m223.444427,108.662796c0,-15.83667 12.638855,-28.727005 28.166626,-28.727005l5.777832,0l0,67.766281l39.722229,0l0,44.747864l-73.666687,-75.132187l0,-8.654953z"/>
   <path stroke="null" id="svg_10" fill="#ffffff" d="m190.76384,141.809372l24.013901,-24.491623l42.972229,43.827087l-24.013885,24.491653l-42.972244,-43.827118z"/>
   <path stroke="null" id="svg_11" fill="#ffffff" d="m182.638824,190.608459c-5.236084,-5.340271 -8.305542,-12.706177 -8.305542,-20.25621c0,-7.734207 2.888885,-14.91597 8.305542,-20.256241l4.152802,-4.235413l46.944458,47.878372l28.166656,-28.727005l31.055542,31.673401l-104.180542,0l-6.138916,-6.076904z"/>
   <path stroke="null" id="svg_12" fill="#ffffff" d="m182.458282,202.94635l60.666718,0l0,34.619781l-60.666718,0l0,-34.619781z"/>
   <path stroke="null" id="svg_13" fill="#ffffff" d="m210.444397,278.078552c-15.527756,0 -28.166656,-12.89032 -28.166656,-28.72699l0,-5.892731l66.444427,0l0,-40.512482l43.875031,0l-73.666656,75.132202l-8.486145,0z"/>
   <path stroke="null" id="svg_14" fill="#ffffff" d="m242.763855,311.409332l-24.013885,-24.491669l42.97226,-43.827118l24.013885,24.491638l-42.97226,43.827148z"/>
   <path stroke="null" id="svg_15" fill="#ffffff" d="m290.791656,319.695953c-5.236115,5.340302 -12.458344,8.470764 -19.861145,8.470764c-7.583313,0 -14.624969,-2.94635 -19.861115,-8.470764l-4.152771,-4.235413l46.944458,-47.878357l-28.166656,-28.72702l31.055603,-31.673401l0,106.253143l-5.958374,6.261047z"/>
   <path stroke="null" id="svg_16" fill="#ffffff" d="m302.888885,258.0065l33.944489,0l0,61.873596l-33.944489,0l0,-61.873596z"/>
   <path stroke="null" id="svg_17" fill="#ffffff" d="m376.555603,291.153046c0,15.83667 -12.638885,28.727051 -28.166656,28.727051l-5.777832,0l0,-67.9505l-39.722229,0l0,-44.747864l73.666718,75.132263l0,8.83905z"/>
   <path stroke="null" id="svg_18" fill="#ffffff" d="m409.055603,258.0065l-24.013947,24.491608l-42.972198,-43.827118l24.013885,-24.491608l42.97226,43.827118z"/>
   <path stroke="null" id="svg_19" fill="#ffffff" d="m417.361176,249.719849l-4.152802,4.235382l-46.944458,-47.878357l-28.166656,28.72702l-31.055542,-31.67337l104.180542,0l6.138916,6.260986c5.236145,5.340302 8.305542,12.706207 8.305542,20.256256s-3.069397,14.731781 -8.305542,20.072083z"/>
  </g>
 </g>
</svg>