<?xml version="1.0" encoding="utf-8"?>
<!-- Generator: Adobe Illustrator 14.0.0, SVG Export Plug-In . SVG Version: 6.00 Build 43363)  -->
<!DOCTYPE svg PUBLIC "-//W3C//DTD SVG 1.1//EN" "http://www.w3.org/Graphics/SVG/1.1/DTD/svg11.dtd">
<svg version="1.1" id="cube" xmlns="http://www.w3.org/2000/svg" xmlns:xlink="http://www.w3.org/1999/xlink" x="0px" y="0px"
	 width="900px" height="600px" viewBox="0 0 900 600" enable-background="new 0 0 900 600" xml:space="preserve">
<rect fill="#FFFFFF" width="900" height="600"/>
<g>
	<path fill="#C4D700" d="M451.42,237.988c45.154,0,84.428,25.071,104.571,62.012c9.153-16.794,14.361-36.038,14.361-56.499
		C570.353,178.055,517.1,125,451.42,125s-118.933,53.055-118.933,118.501c0,20.461,5.209,39.705,14.362,56.499
		C366.984,263.06,406.266,237.988,451.42,237.988z"/>
	<path fill="#00A0E9" d="M570.353,356.49c0-20.452-5.208-39.704-14.361-56.499c-20.144,36.932-59.417,62.012-104.571,62.012
		c-45.146,0-84.427-25.071-104.57-62.012c-9.153,16.795-14.362,36.038-14.362,56.499c0,65.454,53.245,118.51,118.933,118.51
		C517.1,475,570.353,421.944,570.353,356.49z"/>
	<path fill="#6A5800" d="M586.31,372.233c0-25.966-6.604-50.391-18.232-71.704c11.62-21.313,18.232-45.747,18.232-71.711
		c0-23.002-5.2-44.787-14.461-64.279c51.084,24.11,86.429,75.933,86.429,135.99c0,60.066-35.345,111.889-86.429,135.999
		C581.109,417.028,586.31,395.235,586.31,372.233z"/>
	<path fill="#6A5800" d="M313.682,372.233c0-25.966,6.604-50.391,18.225-71.704c-11.621-21.313-18.225-45.747-18.225-71.711
		c0-23.002,5.2-44.787,14.462-64.279c-51.077,24.103-86.421,75.925-86.421,135.99c0,60.066,35.344,111.889,86.429,135.999
		C318.882,417.028,313.682,395.235,313.682,372.233z"/>
</g>
</svg>
