<svg width="900" height="600" xmlns="http://www.w3.org/2000/svg">
 <!-- Created with MK Tools - http://tool.mkblog.cn/svg/ -->

 <g>
  <title>background</title>
  <rect fill="#ce0963" id="canvas_background" height="602" width="902" y="-1" x="-1"/>
 </g>
 <g>
  <title>Layer 1</title>
  <g fill="#CE0963" stroke="null" id="svg_27">
   <g stroke="null" transform="matrix(0.394102 0 0 0.412361 -762.621 -504.812)" id="svg_24"/>
   <g stroke="null" transform="matrix(0.394102 0 0 0.412361 -762.621 -504.812)" id="svg_23">
    <polygon stroke="null" id="svg_26" points="3396.008378216997,1728.412353515625 3076.928544232622,1899.0623779296875 2856.408524701372,1780.912353515625 3076.928544232622,1662.7623291015625 3199.458329388872,1728.412353515625 3297.748368451372,1675.7623291015625 3076.928544232622,1557.452392578125 2708.998368451372,1754.5823974609375 2708.998368451372,1806.9224853515625 3027.788407513872,1978.0423583984375 3027.788407513872,2214.342529296875 2807.268387982622,2096.1923828125 2807.268387982622,1964.8824462890625 2708.998368451372,1912.2222900390625 2708.998368451372,2148.842529296875 3076.928544232622,2345.982421875 3125.768387982622,2319.802490234375 3126.058427045122,1978.0423583984375 3346.578446576372,1859.8924560546875 3346.578446576372,2096.1923828125 3224.038407513872,2161.8525390625 3224.038407513872,2267.152587890625 3444.848466107622,2148.842529296875 3444.848466107622,1754.5823974609375 " fill="#ffffff"/>
   </g>
  </g>
 </g>
</svg>