<?xml version="1.0"?>
<svg width="300" height="200" xmlns="http://www.w3.org/2000/svg" xmlns:svg="http://www.w3.org/2000/svg">
 <!-- Created with SVG-edit - https://github.com/SVG-Edit/svgedit-->

 <g class="layer">
  <title>Layer 1</title>
  <rect fill="#ffffff" height="551" id="svg_1" stroke="#000000" stroke-dasharray="5,2,2,2,2,2" stroke-opacity="0" width="551" x="-136" y="-193.05"/>
  <g id="svg_9">
   <path d="m178.7,69.62c10.64,0 19.27,8.77 19.27,19.58c0,0.24 -0.01,0.5 -0.02,0.74c3.56,-1.33 7.22,-3.12 10.94,-5.51a60.47,61.45 0 0 0 -3.03,-8.93l-5,2.91l-2.9,-5.6l4.78,-3.6a61.36,62.35 0 0 0 -9.69,-12.9l-5.04,7.43l-5.11,-1.25s1.48,-8.72 2.57,-12.71a60.65,61.63 0 0 0 -19.76,-9.53l4.34,22.96l-5.9,2.13l-13.67,-27.19c-0.17,0 -0.34,-0.02 -0.51,-0.02c-11.03,0 -21.36,3 -30.28,8.21l37.37,25.38l-2.63,5.07l-50.7,-17.01c-8.16,9.68 -13.42,21.95 -14.43,35.43c9.97,-7.3 33.06,-19.05 70.14,-5.71c0,-0.11 -0.01,-0.21 -0.01,-0.32c0,-10.81 8.63,-19.58 19.27,-19.58z" fill="#ff9900" id="svg_7"/>
   <path d="m179.76,127.74c-23.06,-1.11 -43.77,-23.57 -69.13,-14.98c19.52,-13.22 53.51,5.11 71.08,4.84c9.23,-0.14 19.98,-1.75 27.96,-5.54a61.21,62.2 0 0 0 0.47,-21.44c-7.58,4.64 -17.57,9.1 -28.69,8.57c-17.03,-0.82 -26.75,-9.31 -50.36,-10.38c-20.47,-0.68 -34.28,7.55 -41.91,13.86a60.52,61.5 0 0 0 9.37,30.4c6.62,-1.93 11.07,-3.77 20.12,-3.77c23.2,0 33.18,14.39 61.11,10.57c-24.17,8.51 -47.34,-3.86 -56.26,-4.25c-8.3,-0.37 -14.15,0.99 -20.14,4.17c11.17,13.49 27.9,22.07 46.6,22.07c25.65,0 47.57,-16.13 56.53,-38.93c-9.79,4.6 -14.93,5.39 -26.74,4.82z" fill="#00A99D" id="svg_8"/>
  </g>
 </g>
</svg>