<?xml version="1.0" encoding="utf-8"?>
<!-- Generator: Adobe Illustrator 14.0.0, SVG Export Plug-In . SVG Version: 6.00 Build 43363)  -->
<!DOCTYPE svg PUBLIC "-//W3C//DTD SVG 1.1//EN" "http://www.w3.org/Graphics/SVG/1.1/DTD/svg11.dtd">
<svg version="1.1" id="图层_1" xmlns="http://www.w3.org/2000/svg" xmlns:xlink="http://www.w3.org/1999/xlink" x="0px" y="0px"
	 width="900px" height="600px" viewBox="0 0 900 600" enable-background="new 0 0 900 600" xml:space="preserve">
<rect fill="#1C75BC" width="900" height="600"/>
<path fill="#FFFFFF" d="M385.475,411.945V248.007l-49.422,33.316v120.976C352.285,406.727,368.801,409.95,385.475,411.945z
	 M437.358,415.059c12.632,0,25.096-0.559,37.323-1.643V187.895l-49.422,33.316v193.668
	C429.245,414.986,433.27,415.059,437.358,415.059z"/>
<path fill="#27AAE1" d="M560.57,395.142c1.134-0.427,2.211-0.872,3.318-1.331V127.756l-49.416,33.31v246.716
	C530.129,404.807,545.541,400.581,560.57,395.142L560.57,395.142z"/>
<path fill="#FFFFFF" d="M572.221,257.474v3.067c41.931,17.263,68.386,42.437,68.386,70.516c0,29.884-29.979,56.501-76.718,73.777
	c-16.099,5.857-32.623,10.367-49.416,13.484c-25.448,4.746-51.258,7.098-77.114,7.025c-104.536,0-190.597-36.59-201.94-83.723
	c-0.85,4.234-1.279,8.549-1.281,12.873c0,65.035,96.647,117.75,215.859,117.75c119.213,0,215.866-52.715,215.866-117.75
	C665.837,314.22,628.75,278.723,572.221,257.474L572.221,257.474z"/>
</svg>
