<?xml version="1.0"?>
<svg width="300" height="200" xmlns="http://www.w3.org/2000/svg" xmlns:svg="http://www.w3.org/2000/svg">
 <g class="layer">
  <title>Layer 1</title>
  <rect fill="#ffffff" height="634" id="svg_8" width="634" x="-178" y="-218.22"/>
  <g id="svg_5">
   <path d="m185.2,104.26l0,-41.69l-22.14,-12.57l-22,0l33.2,18.86l0,41.68l10.94,-6.28zm-56.91,24.83l35.26,20.5l-0.13,0l0.54,0.41l22.69,-13.12l10.93,-19l-33.34,19.41l-35.95,-20.77l0,12.57z" fill="#6ebfc2" id="svg_1"/>
   <path d="m171.96,117l0.13,0l-19.65,11.23l10.8,6.29l35.81,-20.91l0,-26.38l-10.94,-19l0,39l-16.15,9.77zm-0.21,-46.22l-35.79,-20.78l-22.7,13.13l-10.93,19.13l33.89,-19.54l16.4,9.57l-0.27,0l19.4,11.2l0,-12.71z" fill="#f15a24" id="svg_2"/>
   <path d="m136.77,66.41l-35.81,20.91l0,26.24l10.93,19l0,-38.95l16.13,-9.61l19.68,-11.3l-10.93,-6.29z" fill="#6ebfc2" id="svg_3"/>
   <path d="m114.63,94.56l0,41.69l22.14,12.57l22.19,0l-33.4,-18.82l0,-41.72l-10.93,6.28z" fill="#f15a24" id="svg_4"/>
  </g>
 </g>
</svg>