<?xml version="1.0" encoding="utf-8"?>
<!-- Generator: Adobe Illustrator 14.0.0, SVG Export Plug-In . SVG Version: 6.00 Build 43363)  -->
<!DOCTYPE svg PUBLIC "-//W3C//DTD SVG 1.1//EN" "http://www.w3.org/Graphics/SVG/1.1/DTD/svg11.dtd">
<svg version="1.1" id="图层_1" xmlns="http://www.w3.org/2000/svg" xmlns:xlink="http://www.w3.org/1999/xlink" x="0px" y="0px"
	 width="900px" height="600px" viewBox="0 0 900 600" enable-background="new 0 0 900 600" xml:space="preserve">
<rect fill="#FFFFFF" width="900" height="600"/>
<g>
	<g>
		<path fill="#0C3183" d="M384.89,300.026l65.104-64.85l65.104,64.85l-65.104,64.851L384.89,300.026z M519.555,110.27l-139.104-0.02
			l107.235,106.788l69.527-69.252L519.555,110.27z M380.432,489.73l139.101,0.02L412.336,382.972l-69.541,69.27L380.432,489.73z
			 M259.622,230.65l-0.104,138.639l107.19-106.795l-69.524-69.252L259.622,230.65z M640.482,369.269l-0.013-138.56L533.214,337.541
			l69.56,69.289L640.482,369.269L640.482,369.269z"/>
		<path fill="#1F86C9" d="M380.451,110.25l-37.708,37.561l69.56,69.288l37.705-37.583L380.451,110.25z M487.635,382.945
			l-37.604,37.575l69.501,69.229l37.662-37.519L487.635,382.945L487.635,382.945z M329.038,300.026l-69.521,69.263l37.705,37.508
			l69.501-69.232L329.038,300.026z M533.311,262.478l69.524-69.252l37.636,37.489l-69.524,69.252L533.311,262.478z"/>
	</g>
</g>
</svg>
