<?xml version="1.0" encoding="utf-8"?>
<!DOCTYPE svg PUBLIC "-//W3C//DTD SVG 1.1//EN" "http://www.w3.org/Graphics/SVG/1.1/DTD/svg11.dtd">
<svg xmlns="http://www.w3.org/2000/svg" xml:space="preserve" width="900" height="600">
  <path fill="#FFF" d="M0 0h900v600H0z"/>
  <path fill="#FCC916" d="M592.022 439.601c-17.978 18.032-39.271 32.356-62.686 42.17-51.89 22.063-110.572 21.191-161.795-2.4-23.147-10.665-44.114-25.595-61.824-44.022-.161-.238-.283-.501-.363-.777 5.421-.252 10.864-.229 16.307-.412 16.375-.568 32.672-2.543 48.715-5.899 13.786-2.855 27.341-6.746 40.551-11.641 13.321-4.919 26.261-10.827 38.714-17.677 12.55-6.862 24.546-14.707 35.878-23.463 12.992-9.945 25.068-21.051 36.084-33.183 7.473-8.222 14.506-16.841 21.068-25.819 2.064-2.881 4.536-5.533 5.557-9.146.794 0 1.111-.504 1.18-1.258.718-.328 1.191-1.035 1.225-1.83 2.086-3.179 4.286-6.266 6.169-9.559 3.969-6.86 7.778-13.995 11.634-21.016.533.427 1.04.886 1.52 1.372 21.732 23.711 34.845 54.153 37.194 86.352 2.223 26.074-2.812 52.257-14.537 75.604-.386.911-.908 1.666-.591 2.604z"/>
  <path fill="#2DDAF3" d="M310.685 149.08c10.61-10.797 22.492-20.244 35.38-28.128 20.468-12.693 43.065-21.505 66.677-26.001 66.856-13.02 135.717 8.791 183.182 58.018.311.368.583.766.816 1.189-.742.196-1.502.319-2.269.366-8.346-.708-16.624.435-24.947.709-11.392.628-22.724 2.088-33.905 4.368-14.375 2.692-28.5 6.594-42.229 11.663-11.491 4.113-22.696 8.995-33.543 14.613-27.621 14.138-52.697 32.844-74.184 55.342-8.969 9.228-17.304 19.061-24.947 29.432-1.951 2.653-4.672 4.963-5.239 8.53l-.612.64-.612.686c-.658.137-.726.617-.68 1.166-.408 0-.567.206-.227.572-7.618 10.398-14.269 21.483-19.867 33.114-.703-.664-1.474-1.259-2.109-1.99-14.727-16.584-25.399-36.414-31.162-57.903-8.514-29.84-7.225-61.656 3.674-90.696 2.039-5.331 4.535-10.477 6.803-15.69z"/>
  <path fill="#8C9916" d="M310.685 149.08c-2.268 5.214-4.649 10.359-6.6 15.688-10.929 29.03-12.25 60.847-3.765 90.696 5.838 21.449 16.572 41.224 31.343 57.743.635.731 1.406 1.326 2.109 1.99.703.662.884 1.303 1.406 1.875 6.532 7.013 13.836 13.25 21.772 18.592 51.368 35.007 119.236 32.736 168.19-5.627 8.406-6.821 16.16-14.424 23.156-22.707-.93 3.613-3.492 6.266-5.557 9.146-6.584 8.98-13.641 17.598-21.137 25.819-11.037 12.134-23.137 23.24-36.152 33.183-11.332 8.756-23.328 16.601-35.878 23.463-12.454 6.85-25.394 12.758-38.714 17.677-13.21 4.895-26.765 8.785-40.551 11.641-16.018 3.384-32.292 5.389-48.647 5.991-5.443.184-10.886.16-16.307.411-6.305-6.126-12.001-12.858-17.009-20.101-18.434-25.102-30.713-54.244-35.834-85.049-7.889-44.342-.696-90.072 20.412-129.778 9.375-17.919 21.336-34.334 35.494-48.71.636-.709 1.407-1.303 2.269-1.943z"/>
  <path fill="#29AAE2" d="M355.567 279.179c.567-3.567 3.289-5.877 5.239-8.53 7.643-10.371 15.979-20.204 24.948-29.432 21.463-22.473 46.508-41.164 74.093-55.296 10.845-5.634 22.051-10.531 33.543-14.659 13.729-5.054 27.856-8.94 42.229-11.618 11.182-2.288 22.514-3.755 33.905-4.391 8.301-.274 16.579-1.418 24.947-.709.767-.046 1.526-.169 2.269-.366.394.057.685.399.681.8-.628 5.444-.984 10.917-1.066 16.397-1.2 13.734-3.353 27.367-6.44 40.797-3.521 15.771-8.479 31.182-14.811 46.034-2.108 4.917-3.628 10.154-6.804 14.544-.362-.32-.771-.595-1.111-.938-35.833-35.332-78.448-49.35-127.912-40.912-27.361 4.672-52.67 17.615-72.574 37.115-3.856 3.64-7.417 7.436-11.136 11.164z"/>
  <path fill="#585A8C" d="M568.231 272.821c3.244-4.391 4.764-9.628 6.805-14.545 6.331-14.852 11.288-30.262 14.81-46.034 3.142-13.427 5.348-27.06 6.6-40.797.082-5.48.438-10.953 1.065-16.396 4.791 4.44 9.122 9.359 12.928 14.681 20.444 26.056 33.979 56.929 39.326 89.713 9.934 61.516-4.657 116.545-43.771 165.088-4.256 5.357-8.895 10.395-13.88 15.069-.317-.938.204-1.692.59-2.47 11.725-23.347 16.76-49.529 14.538-75.604-2.351-32.198-15.464-62.641-37.195-86.351-.479-.486-.986-.944-1.52-1.372l-.296-.982z"/>
  <path fill="#8C9916" d="M449.864 214.978c.07-.781.532-1.472 1.225-1.83-.033.794-.507 1.502-1.225 1.83z"/>
  <path fill="#8C9916" d="M448.73 216.167c.064-.641.548-1.157 1.179-1.258-.068.755-.386 1.235-1.179 1.258z"/>
  <path fill="#29AAE2" d="M254.957 189.159c.189.413.011.902-.399 1.093-.088.042-.184.066-.281.074-.046-.504-.046-1.03.68-1.167zm1.066-1.235-.612.64.612-.64z"/>
  <path fill="#29AAE2" d="M255.479 188.519c0 .389 0 .731-.613.686l.613-.686zm-1.248 1.783-.227.572c-.249-.366-.09-.503.227-.572z"/>
</svg>