<?xml version="1.0" encoding="utf-8"?>
<!-- Generator: Adobe Illustrator 14.0.0, SVG Export Plug-In . SVG Version: 6.00 Build 43363)  -->
<!DOCTYPE svg PUBLIC "-//W3C//DTD SVG 1.1//EN" "http://www.w3.org/Graphics/SVG/1.1/DTD/svg11.dtd">
<svg version="1.1" id="图层_1" xmlns="http://www.w3.org/2000/svg" xmlns:xlink="http://www.w3.org/1999/xlink" x="0px" y="0px"
	 width="900px" height="600px" viewBox="0 0 900 600" enable-background="new 0 0 900 600" xml:space="preserve">
<rect fill="#6DC9B7" width="900" height="600"/>
<path fill="#FFFFFF" d="M685.79,300L509.04,475.25L332.326,300l59.093-58.568l29.264,29.056L390.96,300l29.723,29.512l29.3,29.021
	l59.058,58.604L627.227,300L509.04,182.828l-29.723,29.547l-29.301,29.057l-29.299-29.057l29.299-29.057l59.022-58.568L685.79,300z"
	/>
<path fill="#FFFFFF" d="M508.616,241.432l-29.299-29.057l-29.301-29.057L390.96,124.75L214.21,300l176.75,175.25l59.058-58.533
	l-29.334-29.092l-29.723,29.512L272.773,300L390.96,182.828l29.758,29.547l58.6,58.113L509.04,300l-29.723,29.512l29.299,29.057
	L567.674,300L508.616,241.432z"/>
</svg>
