<svg width="600" height="400" xmlns="http://www.w3.org/2000/svg">
 <!-- Created with Method Draw - http://github.com/duopixel/Method-Draw/ -->

 <g>
  <title>background</title>
  <rect fill="#fff" id="canvas_background" height="402" width="602" y="-1" x="-1"/>
  <g display="none" overflow="visible" y="0" x="0" height="100%" width="100%" id="canvasGrid">
   <rect fill="url(#gridpattern)" stroke-width="0" y="0" x="0" height="100%" width="100%"/>
  </g>
 </g>
 <g>
  <title>Layer 1</title>
  <g stroke="null" id="svg_108">
   <g stroke="null" transform="matrix(1.86328 0 0 1.86325 -260.358 -152.731)" id="svg_68">
    <path stroke="null" id="svg_69" d="m328.93692,144.659607c0.299988,0.199997 0.699982,0.399994 1,0.5c0.5,0.199997 1.099976,0.199997 1.699982,0.099991c1,-0.199997 1.800018,-0.800003 2.200012,-1.599991c-0.700012,-0.600006 -1.700012,-0.800003 -2.700012,-0.600006c-0.5,0.100006 -0.899994,0.300003 -1.199982,0.5c-0.400024,0.300003 -0.700012,0.699997 -1,1.100006z" fill="#00B04C"/>
    <path stroke="null" id="svg_70" d="m301.336884,126.059608c0.5,-0.300011 0.800018,-0.800003 1.100006,-1.300011c0.200012,-0.300003 0.300018,-0.699989 0.300018,-1.099983c0.099976,-0.700012 0,-1.300003 -0.300018,-1.800011c-0.100006,-0.300003 -0.299988,-0.599998 -0.499969,-0.799995c-0.600006,0.399986 -1.100006,1.100006 -1.300018,1.899994c0,0.200012 -0.100006,0.300003 -0.100006,0.499992c0,0.500008 0,0.900017 0.100006,1.300003c0.100006,0.400017 0.300018,0.900017 0.699982,1.300011z" fill="#00B04C"/>
    <path stroke="null" id="svg_71" d="m301.736908,134.459595c-0.400024,0.200012 -0.800018,0.5 -1.200012,0.800003c-0.899994,0.800003 -1.600006,1.800003 -2,3c0,0.199997 -0.100006,0.300003 -0.100006,0.5c-0.100006,0.699997 -0.100006,1.5 0,2.199997c0.100006,0.800003 0.5,1.600006 0.899994,2.300003c0.400024,-0.199997 0.800018,-0.399994 1.100006,-0.699997c0.800018,-0.699997 1.5,-1.600006 1.899994,-2.600006c0.100006,-0.199997 0.100006,-0.299988 0.100006,-0.5c0.300018,-1.199997 0.300018,-2.5 -0.100006,-3.599991c-0.099976,-0.600006 -0.299988,-1 -0.599976,-1.400009z" fill="#00B04C"/>
    <path stroke="null" id="svg_72" d="m302.336884,128.659607c-0.299988,1.199997 -0.299988,2.399994 0.100006,3.599991c0.200012,0.5 0.399994,0.900009 0.700012,1.300003c0.399994,-0.199997 0.799988,-0.399994 1.199982,-0.800003c0.900024,-0.800003 1.600006,-1.800003 2,-3.099991c0.5,-1.700005 0.100006,-3.499992 -0.799988,-4.900009c-0.399994,0.200005 -0.799988,0.500008 -1.200012,0.800003c-0.799988,0.700005 -1.5,1.600014 -1.899994,2.600006c-0.100006,0.199997 -0.100006,0.299988 -0.100006,0.5z" fill="#00B04C"/>
    <path stroke="null" id="svg_73" d="m310.036896,127.559601c0.400024,-0.800003 0.5,-1.800003 0.200012,-2.800003c-0.399994,-0.899994 -1.100006,-1.599983 -2,-1.899994c-0.399994,0.800011 -0.5,1.800011 -0.200012,2.800011c0.400024,0.899986 1.100006,1.599991 2,1.899986z" fill="#00B04C"/>
    <path stroke="null" id="svg_74" d="m295.136902,126.559601c0.100006,-1 -0.399994,-1.899986 -1,-2.599998c-0.699982,0.599998 -1.199982,1.400009 -1.300018,2.499992c-0.099976,1 0.300018,1.900009 1,2.600006c0.800018,-0.600006 1.300018,-1.399986 1.300018,-2.5z" fill="#00B04C"/>
    <path stroke="null" id="svg_75" d="m284.036896,136.259598c0.700012,0.400009 1.5,0.699997 2.400024,0.800003c0.099976,0 0.199982,0 0.399994,0c0.199982,-1.199997 0.100006,-2.5 -0.399994,-3.599991c-0.200012,-0.400009 -0.400024,-0.800003 -0.700012,-1.200012c-0.5,-0.599991 -1,-1.099991 -1.600006,-1.5c-0.899994,-0.5 -1.799988,-0.800003 -2.699982,-0.899994c-0.300018,1.600006 0,3.399994 1.099976,4.800003c0.300018,0.799988 0.899994,1.299988 1.5,1.599991z" fill="#00B04C"/>
    <path stroke="null" id="svg_76" d="m286.43689,129.859604c0.400024,0.699997 1,1.099991 1.700012,1.399994c0.399994,-0.800003 0.5,-1.800003 0.200012,-2.800003c-0.300018,-0.899994 -1,-1.499992 -1.900024,-1.899994c0,0 -0.099976,0 -0.099976,0c-0.400024,0.800011 -0.5,1.800003 -0.200012,2.800003c0.100006,0.199997 0.200012,0.399994 0.299988,0.5z" fill="#00B04C"/>
    <path stroke="null" id="svg_77" d="m292.736908,138.059601c0.899994,-1.100006 1.399994,-2.5 1.399994,-4c0,-1.399994 -0.600006,-2.699997 -1.399994,-3.699997c-0.200012,-0.300003 -0.5,-0.5 -0.800018,-0.800003c-1.199982,1.199997 -2,2.800003 -1.899994,4.600006c0.100006,1.799988 0.899994,3.399994 2.200012,4.5c0.200012,-0.300003 0.299988,-0.400009 0.5,-0.600006z" fill="#00B04C"/>
    <path stroke="null" id="svg_78" d="m298.536896,132.759598c0.400024,0.300003 0.700012,0.5 1.200012,0.800003c0.399994,-0.600006 0.700012,-1.300003 0.899994,-2.099991c0.200012,-0.800003 0.200012,-1.700012 0,-2.500015c0,-0.099991 0,-0.199997 -0.100006,-0.299988c-0.299988,-1.299995 -1.099976,-2.299995 -2,-3.100006c-0.399994,-0.299995 -0.799988,-0.499992 -1.199982,-0.800003c-0.899994,1.400017 -1.300018,3.200005 -0.800018,4.900009c0.299988,1.299988 1,2.399994 2,3.099991z" fill="#00B04C"/>
    <path stroke="null" id="svg_79" d="m309.43692,137.459595c0.399994,-0.199997 0.799988,-0.5 1.199982,-0.799988c0.899994,-0.800003 1.700012,-1.800003 2,-3.100006c0.5,-1.800003 0.100006,-3.5 -0.799988,-4.899994c-0.399994,0.199997 -0.800018,0.5 -1.200012,0.699997c-0.899994,0.800003 -1.600006,1.800003 -2,3.099991c-0.5,1.800003 -0.199982,3.600006 0.800018,5z" fill="#00B04C"/>
    <path stroke="null" id="svg_80" d="m328.336884,146.059601c-1.399994,-0.5 -3,-0.5 -4.399994,0.199997c-0.199982,0.100006 -0.399994,0.199997 -0.5,0.300003c-0.100006,0.100006 -0.299988,0.100006 -0.399994,0.199997c-1.399994,0.900009 -2.200012,2.300003 -2.5,3.800003c0.799988,0.300003 1.700012,0.399994 2.5,0.300003c0.299988,0 0.600006,-0.100006 0.899994,-0.199997c0.5,-0.100006 1,-0.300003 1.5,-0.600006c1.600006,-0.899994 2.600006,-2.399994 2.899994,-4z" fill="#00B04C"/>
    <path stroke="null" id="svg_81" d="m323.93692,141.259598c-0.400024,0.600006 -0.700012,1.300003 -0.800018,2c0.300018,0.100006 0.5,0.200012 0.800018,0.200012c1.399994,0.299988 2.799988,0.099991 4.099976,-0.700012c0.800018,-0.399994 1.400024,-1 1.900024,-1.699997c0.5,-0.699997 0.799988,-1.5 1,-2.300003c-0.300018,-0.099991 -0.700012,-0.199997 -1,-0.299988c-1.300018,-0.200012 -2.700012,0 -3.900024,0.699997c-0.899994,0.5 -1.599976,1.199997 -2.099976,2.099991z" fill="#00B04C"/>
    <path stroke="null" id="svg_82" d="m323.93692,133.359604c0.099976,-0.100006 0.299988,-0.100006 0.399994,-0.199997c0.899994,-0.5 1.399994,-1.300003 1.600006,-2.200012c-0.600006,-0.199997 -1.300018,-0.299988 -2,-0.099991c-0.300018,0.099991 -0.5,0.199997 -0.800018,0.300003c0,0 -0.100006,0.099991 -0.100006,0.099991c-0.799988,0.5 -1.299988,1.300003 -1.5,2.100006c0.5,0.199997 1,0.199997 1.5,0.199997c0.299988,0 0.600006,0 0.900024,-0.199997z" fill="#00B04C"/>
    <path stroke="null" id="svg_83" d="m323.93692,136.459595c-0.400024,0.5 -0.600006,1.200012 -0.600006,1.800003c0.199982,0 0.399994,0 0.600006,0c0.699982,0 1.5,-0.300003 2.099976,-0.800003c0.800018,-0.599991 1.100006,-1.599991 1.100006,-2.5c-0.899994,-0.099991 -1.899994,0.100006 -2.699982,0.800003c-0.200012,0.300003 -0.400024,0.5 -0.5,0.699997z" fill="#00B04C"/>
    <path stroke="null" id="svg_84" d="m314.136902,128.959595c0.600006,-0.199997 1.100006,-0.599991 1.5,-1.099991c0.199982,-0.300003 0.399994,-0.599998 0.5,-0.900002c0.300018,-0.899994 0.300018,-1.899994 -0.199982,-2.799988c-0.100037,0 -0.200012,0.099991 -0.300018,0.199997c-0.699982,0.300003 -1.199982,0.899994 -1.5,1.599991c0,0.100006 -0.100006,0.100006 -0.100006,0.200012c-0.299988,0.899994 -0.299988,1.799988 0.100006,2.599983c0,0 0,0.100006 0,0.199997z" fill="#00B04C"/>
    <path stroke="null" id="svg_85" d="m315.636902,130.859604c-0.699982,1.300003 -0.899994,2.800003 -0.600006,4.199997c0.200012,0 0.400024,0 0.600006,-0.100006c0.699982,-0.099991 1.399994,-0.399994 2.100006,-0.799988c0.599976,-0.400009 1.200012,-0.900009 1.700012,-1.600006c1.099976,-1.5 1.399963,-3.199997 1,-4.899986c-0.900024,0.099983 -1.800018,0.399986 -2.600037,0.899986c-0.599976,0.399994 -1.199982,0.899994 -1.699982,1.600006c-0.300018,0.299988 -0.399994,0.5 -0.5,0.699997z" fill="#00B04C"/>
    <path stroke="null" id="svg_86" d="m317.236908,137.559601c-0.800018,0.800003 -1.300018,1.800003 -1.600006,2.800003c-0.100006,0.599991 -0.200012,1.199997 -0.200012,1.800003c0.100006,0 0.100006,0 0.200012,0c0.699982,0 1.399994,-0.100006 2.100006,-0.300003c0.899994,-0.300003 1.699982,-0.800003 2.399994,-1.5c1.299988,-1.300003 1.799988,-3 1.699982,-4.600006c-1.5,-0.099991 -3,0.300003 -4.199982,1.300003c-0.100006,0.199997 -0.300018,0.399994 -0.399994,0.5z" fill="#00B04C"/>
    <path stroke="null" id="svg_87" d="m291.836884,139.759598c-0.399994,0.800003 -0.5,1.800003 -0.199982,2.800003c0.199982,0.600006 0.600006,1.100006 1.100006,1.399994c0.299988,0.200012 0.599976,0.400009 0.899994,0.500015c0.5,-0.900009 0.5,-1.900009 0.199982,-2.800003c-0.199982,-0.600006 -0.599976,-1.100006 -1.099976,-1.400009c-0.299988,-0.300003 -0.600006,-0.399994 -0.900024,-0.5z" fill="#00B04C"/>
    <path stroke="null" id="svg_88" d="m314.93692,162.559601c-0.200012,-0.199997 -0.5,-0.399994 -0.800018,-0.600006c-0.600006,-0.299988 -1.199982,-0.399994 -1.799988,-0.399994c-0.100006,0.900009 0.299988,1.900009 1,2.600006c0.199982,0.199997 0.5,0.399994 0.799988,0.599991c0.5,0.300003 1,0.400009 1.5,0.400009c0.100006,0 0.200012,0 0.200012,0c0,-0.5 -0.100006,-1 -0.200012,-1.5c-0.199982,-0.400009 -0.399994,-0.800003 -0.699982,-1.100006z" fill="#00B04C"/>
    <path stroke="null" id="svg_89" d="m284.036896,143.359604c0.700012,0.399994 1.5,0.599991 2.400024,0.699997c0.399994,0 0.799988,0 1.199982,-0.100006c0,-1.299988 -0.399994,-2.5 -1.199982,-3.599991c-0.300018,-0.300003 -0.600006,-0.600006 -0.900024,-0.900009c-0.399994,-0.399994 -1,-0.699997 -1.5,-1c-1.099976,-0.399994 -2.199982,-0.599991 -3.299988,-0.399994c0,1.699997 0.700012,3.300003 2.100006,4.5c0.399994,0.399994 0.799988,0.600006 1.199982,0.800003z" fill="#00B04C"/>
    <path stroke="null" id="svg_90" d="m279.43689,163.45961c0.100006,0 0.300018,-0.100006 0.400024,-0.100006c0.899994,-0.300003 1.599976,-1.100006 2,-1.899994c-0.700012,-0.400009 -1.5,-0.500015 -2.400024,-0.300003c-0.099976,0 -0.299988,0.099991 -0.399994,0.099991c-0.600006,0.200012 -1.199982,0.699997 -1.600006,1.200012c-0.199982,0.199997 -0.299988,0.499985 -0.399994,0.799988c0.100006,0.100006 0.300018,0.100006 0.399994,0.200012c0.600006,0.099991 1.300018,0.199997 2,0z" fill="#00B04C"/>
    <path stroke="null" id="svg_91" d="m328.336884,160.859604c-0.899994,-0.400009 -1.899994,-0.400009 -2.799988,0c0.299988,0.899994 0.899994,1.699997 1.799988,2.099991c0.900024,0.400009 1.800018,0.400009 2.600006,0.100006c0.100006,0 0.100006,0 0.200012,-0.100006c-0.100006,-0.199997 -0.100006,-0.299988 -0.200012,-0.5c-0.299988,-0.699997 -0.799988,-1.299988 -1.600006,-1.599991z" fill="#00B04C"/>
    <path stroke="null" id="svg_92" d="m329.93692,151.059601c-0.200012,-0.100006 -0.300018,-0.100006 -0.5,-0.100006c-1,-0.099991 -2,0.100006 -2.700012,0.700012c0.5,0.800003 1.299988,1.399994 2.299988,1.5c0.300018,0 0.600006,0 0.800018,0c0.699982,-0.100006 1.299988,-0.300003 1.799988,-0.800003c-0.199982,-0.5 -0.899994,-1 -1.699982,-1.300003z" fill="#00B04C"/>
    <path stroke="null" id="svg_93" d="m331.336884,147.259598c-0.5,0 -1,0.200012 -1.399994,0.5c-0.399994,0.199997 -0.699982,0.5 -1,0.900009c0.300018,0.299988 0.600006,0.5 1,0.599991c0.5,0.200012 1.100006,0.300003 1.600006,0.300003c1,-0.099991 1.799988,-0.600006 2.399994,-1.399994c-0.600006,-0.600006 -1.600006,-1 -2.600006,-0.900009z" fill="#00B04C"/>
    <path stroke="null" id="svg_94" d="m271.43689,159.45961c-0.799988,0 -1.5,0.099991 -2.099976,0.399994c-0.900024,0.399994 -1.700012,0.899994 -2.400024,1.699997c0.600006,0.699997 1.5,1.300003 2.400024,1.699997c0.699982,0.300003 1.399994,0.400009 2.099976,0.400009c1.600006,0 3,-0.600006 4.100006,-1.600006c0.200012,-0.100006 0.300018,-0.300003 0.5,-0.5c-0.100006,-0.199997 -0.299988,-0.300003 -0.5,-0.5c-1.100006,-0.899994 -2.5,-1.599991 -4.100006,-1.599991z" fill="#00B04C"/>
    <path stroke="null" id="svg_95" d="m329.93692,154.659607c-1,-0.300003 -2,-0.400009 -3,-0.200012c-1.200012,0.200012 -2.200012,0.800003 -3,1.600006c-0.400024,0.300003 -0.700012,0.699997 -0.900024,1.100006c0,0.099991 -0.099976,0.099991 -0.099976,0.199997c0,0 0.099976,0.099991 0.099976,0.099991c0.300018,0.200012 0.600006,0.400009 0.900024,0.600006c1.099976,0.600006 2.5,0.800003 3.799988,0.5c0.799988,-0.199997 1.600006,-0.5 2.200012,-0.899994c0.799988,-0.5 1.399994,-1.200012 1.799988,-2c-0.5,-0.5 -1.100006,-0.800003 -1.799988,-1z" fill="#00B04C"/>
    <path stroke="null" id="svg_96" d="m319.43692,162.559601c1.299988,0 2.5,-0.399994 3.599976,-1.199997c0.300018,-0.199997 0.600006,-0.5 0.900024,-0.800003l0,-0.099991l0,-0.100006c-0.300018,-0.300003 -0.600006,-0.600006 -0.900024,-0.800003c-1,-0.699997 -2.199982,-1.199997 -3.599976,-1.199997c-0.600006,0 -1.200012,0.100006 -1.700012,0.300003c-0.799988,0.199997 -1.5,0.599991 -2.100006,1.099991c-0.299988,0.199997 -0.5,0.5 -0.699982,0.700012c0.199982,0.299988 0.5,0.499985 0.699982,0.699997c0.600006,0.5 1.300018,0.899994 2.100006,1.099991c0.5,0.200012 1.099976,0.300003 1.700012,0.300003z" fill="#00B04C"/>
    <path stroke="null" id="svg_97" d="m275.536896,143.459595c0.600006,0.200012 1.300018,0.300003 1.900024,0.400009c0.599976,0 1.099976,0 1.699982,-0.199997c-0.100006,-1.300003 -0.699982,-2.5 -1.699982,-3.5c-0.300018,-0.300003 -0.600006,-0.5 -0.900024,-0.700012c-0.299988,-0.199997 -0.599976,-0.399994 -1,-0.599991c-1.199982,-0.5 -2.599976,-0.600006 -3.899994,-0.300003c0.200012,1.699997 1.100006,3.199997 2.600006,4.300003c0.399994,0.199997 0.899994,0.399994 1.299988,0.599991z" fill="#00B04C"/>
    <path stroke="null" id="svg_98" d="m279.43689,135.159607c0,0 0.100006,0 0.100006,0.099991c0.399994,-0.800003 0.5,-1.800003 0.200012,-2.800003c-0.100006,-0.199997 -0.200012,-0.399994 -0.300018,-0.599991c-0.399994,-0.600006 -1,-1.100006 -1.699982,-1.300003c-0.100006,0.199997 -0.200012,0.5 -0.300018,0.699997c-0.099976,0.600006 -0.199982,1.199997 0,1.699997c0,0.100006 0.100006,0.200012 0.100006,0.300003c0.399994,0.900009 1.100006,1.5 1.899994,1.900009z" fill="#00B04C"/>
    <path stroke="null" id="svg_99" d="m275.536896,136.559601c0.600006,0.300003 1.300018,0.300003 1.900024,0.199997c0,0 0.099976,0 0.099976,0c0,-0.199997 0,-0.399994 -0.099976,-0.699997c-0.200012,-0.699997 -0.600006,-1.300003 -1.200012,-1.800003c-0.200012,-0.199997 -0.399994,-0.300003 -0.700012,-0.399994c-0.599976,-0.300003 -1.299988,-0.300003 -2,-0.199997c0.100006,0.899994 0.5,1.799988 1.300018,2.5c0.199982,0.199997 0.5,0.299988 0.699982,0.399994z" fill="#00B04C"/>
    <path stroke="null" id="svg_100" d="m281.836914,149.759598c0.699982,0.5 1.399994,0.800003 2.199982,0.900009c0.800018,0.199997 1.600006,0.099991 2.399994,0c0.100006,0 0.200012,0 0.300018,-0.100006c0,-0.5 -0.100006,-0.899994 -0.300018,-1.300003c-0.399994,-1.199997 -1.199982,-2.199997 -2.299988,-2.899994c0,0 -0.100006,-0.100006 -0.100006,-0.100006c-1.399994,-0.899994 -3.100006,-1.199997 -4.699982,-0.799988c0,0 -0.100006,0 -0.100006,0c0,0.199997 0.100006,0.499985 0.100006,0.699997c0.399994,1.5 1.199982,2.799988 2.5,3.599991z" fill="#00B04C"/>
    <path stroke="null" id="svg_101" d="m270.836914,148.659607c1.399994,1 3.199982,1.299988 4.699982,0.899994c0.100006,0 0.100006,0 0.200012,0c0,-0.300003 -0.100006,-0.5 -0.200012,-0.800003c-0.299988,-1.399994 -1.199982,-2.599991 -2.399994,-3.5c-1.100006,-0.800003 -2.5,-1.099991 -3.799988,-1c-0.400024,0 -0.700012,0.100006 -1.100006,0.199997c0.100006,1 0.5,2 1.100006,2.800003c0.399994,0.5 0.899994,1 1.5,1.400009z" fill="#00B04C"/>
    <path stroke="null" id="svg_102" d="m275.536896,155.859604c0.700012,0.099991 1.300018,0.199997 1.900024,0.099991c0.699982,-0.099991 1.299988,-0.299988 2,-0.5c0.299988,-0.099991 0.599976,-0.299988 0.899994,-0.5c-0.200012,-0.5 -0.5,-0.899994 -0.899994,-1.299988c-0.5,-0.600006 -1.200012,-1.100006 -2,-1.5c-0.300018,-0.100006 -0.700012,-0.300003 -1.100006,-0.400009c-0.300018,-0.099991 -0.600006,-0.099991 -0.800018,-0.099991c-1.5,-0.200012 -2.899994,0.199997 -4,1c0.800018,1.5 2.100006,2.599991 3.900024,3.099991c-0.000031,0.100006 0.099976,0.100006 0.099976,0.100006z" fill="#00B04C"/>
    <path stroke="null" id="svg_103" d="m269.336914,152.059601c0.5,-0.199997 1,-0.399994 1.399994,-0.800003c-0.300018,-0.5 -0.800018,-0.899994 -1.399994,-1.099991c-0.300018,-0.100006 -0.700012,-0.200012 -1,-0.200012c-1,-0.099991 -1.900024,0.300003 -2.600006,0.900009c0.600006,0.800003 1.399994,1.300003 2.399994,1.399994c0.399994,0 0.799988,-0.099991 1.200012,-0.199997z" fill="#00B04C"/>
    <path stroke="null" id="svg_104" d="m269.336914,155.759598c0.099976,-0.099991 0.099976,-0.199997 0.199982,-0.299988c-0.100006,-0.100006 -0.100006,-0.100006 -0.199982,-0.100006c-0.700012,-0.5 -1.600006,-0.699997 -2.5,-0.5c-1,0.199997 -1.800018,0.800003 -2.300018,1.600006c0.700012,0.599991 1.700012,0.799988 2.700012,0.699997c0.899994,-0.200012 1.600006,-0.699997 2.100006,-1.400009z" fill="#00B04C"/>
    <path stroke="null" id="svg_105" d="m292.736908,149.259598c2.199982,3.100006 4.699982,6.400009 5.799988,11.300003c0.200012,0.900009 0.399994,1.900009 0.5,3c-0.200012,-0.199997 -0.299988,-0.399994 -0.5,-0.5c-1.899994,-2.100006 -3.799988,-3.699997 -5.799988,-5.100006c-0.300018,-0.199997 -0.700012,-0.499985 -1,-0.699997c-1.800018,-3.5 -2.200012,-7.599991 -5.300018,-11c-0.199982,-0.300003 -0.5,-0.5 -0.699982,-0.699997c0.299988,0.399994 0.5,0.800003 0.699982,1.199997c1.700012,3.100006 2,6.199997 3.100006,9.100006c-1,-0.600006 -2,-1.199997 -3.100006,-1.800003c-0.799988,-0.399994 -1.600006,-0.899994 -2.399994,-1.399994c-1.399994,-0.800003 -3,-1.800003 -4.700012,-2.800003c-0.5,-0.300003 -1,-0.600006 -1.5,-0.900009c0,0.900009 0.600006,1.700012 1.5,2.500015c1.200012,1.099991 2.900024,2.199997 4.700012,3.299988c0.799988,0.600006 1.600006,1.100006 2.399994,1.700012c1,0.799988 1.800018,1.599991 2.399994,2.599991c-0.399994,-0.100006 -1.299988,-0.300003 -2.399994,-0.599991c-0.699982,-0.100006 -1.5,-0.300003 -2.399994,-0.400009c-1.399994,-0.199997 -3,-0.399994 -4.700012,-0.5c-0.699982,-0.099991 -1.299988,-0.099991 -2,-0.099991c-0.599976,0 -1.299988,-0.100006 -1.899994,0c-2.600006,0 -4.899994,0.299988 -6.199982,1.099991c-0.100006,0 -0.100006,0.100006 -0.200012,0.100006l0.200012,0c2.099976,0 4.199982,0.099991 6.199982,0.299988c0.700012,0.100006 1.300018,0.100006 1.899994,0.200012c0.700012,0.099991 1.300018,0.199997 2,0.300003c1.600006,0.299988 3.200012,0.699997 4.700012,1.099991c0.799988,0.300003 1.600006,0.600006 2.399994,0.900009c2.5,1.099991 3.899994,3.699997 6.300018,4.399994c0.799988,0.199997 2.199982,0.199997 3.099976,1.199997c1.200012,1.300003 -1.599976,3.800003 -3.399994,5.899994c-3.799988,3.900009 -8.100006,10.200012 -9.399994,12.200012c-0.5,-0.200012 -1.100006,-0.5 -1.600006,-0.600006c1.600006,-2.699997 7.800018,-13.099991 11.700012,-14.600006c-4,-1.899994 -13.299988,11.700012 -13.299988,11.700012l-0.100006,0.199982c-0.600006,-6.999985 -3.899994,-6.999985 -3.899994,-6.999985c2.399994,1.599991 1.699982,10.5 1.699982,10.5s9.700012,2.599991 14.800018,12.899994c-0.100006,-1.099991 -0.399994,-2.400009 -1,-3.799988l0,0c0,0 6.699982,-16.600006 8,-16.600006c-1.800018,-1.800003 -9.100006,14.300003 -9.100006,14.300003l0,0c-0.600006,-1.100006 -1.300018,-2.300018 -2.200012,-3.300018c2.299988,-3.699982 9.900024,-15.899994 11.200012,-16.899994c-2.100006,-0.899994 -9.899994,11.800003 -12.200012,15.700012c-0.5,-0.400009 -0.899994,-0.900009 -1.5,-1.300003c0.300018,-0.500015 4.200012,-8.199997 8,-13c1.700012,-2 4.200012,-4.600006 7,-4.400009c2.299988,0.200012 4.400024,1.800003 6.200012,3.200012c4.099976,4.599991 8.700012,13.699982 9,14.300003c-0.5,0.399979 -1,0.799988 -1.400024,1.299988c-2.299988,-3.800003 -10.099976,-16.5 -12.199982,-15.599991c1.300018,0.899994 8.899994,13.099991 11.199982,16.899994c-0.899963,1 -1.599976,2.199997 -2.199982,3.300003l0,0c0,0 -7.300018,-16 -9.100006,-14.300003c1.299988,0 8,16.600006 8,16.600006l0,0c-0.5,1.399994 -0.799988,2.699997 -1,3.800003c5,-10.400009 14.799988,-12.900009 14.799988,-12.900009s-0.699982,-8.899994 1.700012,-10.5c0,0 -3.299988,0 -3.899994,7l-0.100006,-0.200012c0,0 -9.299988,-13.599991 -13.200012,-11.899994c3.800018,1.5 10.100037,11.899994 11.700012,14.600006c-0.600006,0.199997 -1.100006,0.399994 -1.600006,0.600006c-1.600006,-2.400009 -7.199982,-10.800003 -11.399994,-14c-1.099976,-2.5 -1.799988,-6.600006 3.5,-10.800003c1.100006,-0.800003 2.299988,-1.300003 3.5,-1.699997c0.5,-0.200012 1,-0.400009 1.5,-0.600006c0.700012,-0.300003 1.400024,-0.5 2.100006,-0.800003c2.100006,-0.800003 3.899994,-1.699997 5.300018,-3.399994c0.299988,-0.400009 0.699982,-0.900009 0.899963,-1.400009c0.200012,-0.399994 0.400024,-0.899994 0.600037,-1.299988c-0.200012,0.099991 -0.400024,0.299988 -0.600037,0.399994c-0.299988,0.199997 -0.599976,0.399994 -0.899963,0.5c-1.5,0.800003 -3.300018,1.399994 -5.300018,2c-0.699982,0.199997 -1.399994,0.399994 -2.100006,0.600006c-0.5,0.099991 -0.899994,0.199997 -1.299988,0.399994c0.399994,-0.699997 0.799988,-1.399994 1.299988,-2.100006c0.600006,-0.799988 1.299988,-1.699997 2.100006,-2.5c0.800018,-0.899994 1.800018,-1.699997 2.800018,-2.399994c-0.900024,0.300003 -1.900024,0.800003 -2.800018,1.5c-0.699982,0.5 -1.399994,1 -2.100006,1.600006c-0.5,0.399994 -1,0.899994 -1.5,1.399994c-1.200012,1.199997 -2.299988,2.399994 -3.299988,3.600006l-0.200012,0.099991c-2.5,0.900009 -4.799988,2.100006 -6.299988,3.800003c-0.5,0.600006 -0.900024,1.300003 -1.299988,2c0,-2.5 0.399963,-4.699997 1.299988,-6.399994c1.399994,-3 3.700012,-5.100006 6.299988,-6.700012c1.200012,-0.699997 2.400024,-1.299988 3.5,-1.899994c0.5,-0.199997 1,-0.5 1.5,-0.699997c0.700012,-0.300003 1.400024,-0.600006 2.100006,-0.900009c2.300018,-1 4,-1.899994 4,-3.099991c-1.199982,1 -2.600006,1.5 -4,1.800003c-0.699982,0.099991 -1.399994,0.299988 -2.100006,0.399994c-0.5,0.100006 -1,0.100006 -1.5,0.199997c-0.599976,0.100006 -1.099976,0.199997 -1.599976,0.400009c1.399963,-4.100006 1.799988,-5.900009 0.599976,-9.800003c0,4.899994 -0.599976,7.599991 -2.5,9.699997c-0.399994,0.5 -0.899994,1 -1.5,1.5c-1.299988,1.100006 -3.099976,2 -4.700012,3.399994c-0.699982,0.5 -1.299988,1.100006 -1.899963,1.800003c-0.100037,0.100006 -0.200012,0.300003 -0.300018,0.400009c0,-0.900009 0.100006,-1.700012 0.300018,-2.400009c0.399963,-1.5 1.099976,-3 1.899963,-4.399994c1.900024,-3.699997 4,-7.400009 2,-12.900009c-0.199982,3.300003 -1.099976,5.700012 -2,7.600006c-0.599976,1.199997 -1.299988,2.199997 -1.899963,3.199997c-0.700012,1.100006 -1.300018,2.300003 -1.700012,3.5l-0.200012,-0.199997c-0.799988,-0.600006 -1.5,-1.300003 -2.099976,-1.899994c-3.5,-3.900009 -2.900024,-7.300003 -2.100006,-12.700012c-4.5,13.400009 2.100006,11.200012 2.100006,21.500015c-2.100006,-2.800003 -4.100006,-4.800003 -5.700012,-6.800003c-2.399994,-3 -4,-6.100006 -4,-12.100006c-1.399994,6.899994 1.100006,10.600006 4,14.699997z" fill="#C07061"/>
    <path stroke="null" id="svg_106" d="m240.43689,187.759598c0,33.300003 27,60.300003 60.300018,60.300003c33.299988,0 60.299988,-27 60.299988,-60.300003c0,-10.199997 -4.799988,-20.099991 -9.700012,-27.699997l-0.799988,0c4.5,8.199997 7.200012,17.600006 7.200012,27.699997c0,8 -1.600006,15.600006 -4.600006,22.600006c-1.300018,3 -2.800018,5.800003 -4.5,8.499985c-0.899994,1.400009 -1.899994,2.700012 -2.899994,4c-8,-5.299988 -19.700012,-15.299988 -22.600006,-22.899994c2.199982,-3.499985 6.199982,-8.899994 6.199982,-12.299988c0,-3.399994 -1.299988,-10.600006 -1.299988,-14.300003c-2.099976,5.599991 0.799988,10.699997 -1,14.100006c-2.5,4.599991 -6.399994,9.699997 -7,13.199997c1.400024,7.199997 12,19 20.799988,27.600006c-2.799988,2.699982 -5.799988,5.199982 -9.099976,7.299988c-1.600006,1.100006 -3.300018,2.100006 -5.100006,2.899994c-0.5,0.300018 -1,0.400024 -1.600006,0.700012c-3.600006,-10.700012 -11.600006,-33.200012 -15.200012,-32.599991c-2.299988,0.399979 -3.5,-2.100006 -4.199982,-4.300003l0,0c0,0 0.199982,-13.300018 -5,-21.900009c1.600006,3.400009 3.600006,16.300003 4.199982,20.200012c-0.5,6.899994 3.5,8.599991 5.5,9.299988c1.700012,0.600006 8,22.199997 10.600006,31.099991c-6.299988,2.400024 -13.100006,3.700012 -20.299988,3.700012c-7.199982,0 -14,-1.299988 -20.299988,-3.799988c2.5,-8.800018 8.899994,-30.500015 10.600006,-31.100006c1.899994,-0.700012 5.899994,-2.400009 5.5,-9.300003c0.599976,-3.899994 2.599976,-16.800003 4.199982,-20.199997c-5.199982,8.599991 -5,21.899994 -5,21.899994c-0.600006,2.199997 -1.799988,4.699997 -4.100006,4.300003c-3.600006,-0.699997 -11.699982,21.900009 -15.299988,32.599991c-0.5,-0.299988 -1.100006,-0.399994 -1.600006,-0.699982c-1.700012,-0.900024 -3.399994,-1.900024 -5.100006,-2.900024c-3.199982,-2.099976 -6.199982,-4.5 -8.899994,-7.199982c8.700012,-8.600006 19.299988,-20.600006 20.600006,-27.700012c-0.600006,-3.5 -4.5,-8.600006 -7,-13.199997c-1.799988,-3.400009 1.100006,-8.5 -1,-14.100006c0,3.699997 -1.299988,10.900009 -1.299988,14.300003c0,3.399994 4,8.700012 6.199982,12.300003c-2.799988,7.600006 -14.399994,17.699997 -22.299988,23.099991c-1.100006,-1.399994 -2.100006,-2.799988 -3.100006,-4.199982c-1.700012,-2.700012 -3.299988,-5.5 -4.600006,-8.5c-3,-6.900009 -4.600006,-14.5 -4.600006,-22.5c0,-10.000015 2.600006,-19.500015 7.200012,-27.700012l-0.799988,0c-4.800018,7.600006 -9.500031,17.400009 -9.500031,27.699997z" fill="#C07061"/>
    <path stroke="null" id="svg_107" d="m367.136902,187.259598c0,9.300003 -1.899994,18.200012 -5.399994,26.300003c-1.5,3.5 -3.299988,6.799988 -5.299988,9.899994c-2.5,3.899994 -5.5,7.5 -8.700012,10.800018c-3.299988,3.299988 -6.900024,6.199982 -10.799988,8.699982c-1.900024,1.200012 -3.900024,2.400024 -5.900024,3.400024c-9.100006,4.699982 -19.399994,7.299988 -30.299988,7.299988c-10.899994,0 -21.200012,-2.600006 -30.300018,-7.299988c-2,-1 -4,-2.200012 -5.899994,-3.400024c-3.899994,-2.5 -7.5,-5.399994 -10.799988,-8.699982c-3.300018,-3.300018 -6.200012,-6.900024 -8.800018,-10.900024c-2,-3.099991 -3.799988,-6.399994 -5.299988,-9.899994c-3.5,-8 -5.399994,-16.899994 -5.399994,-26.199997c0,-9.699997 2.100006,-18.899994 5.799988,-27.199997l-1.600006,0c-4.299988,8 -8,17.400009 -8,27.199997c0,38.800003 31.5,70.300003 70.300018,70.300003c38.799988,0 70.299988,-31.5 70.299988,-70.300003c0,-9.699997 -3.699982,-19.199997 -8.199982,-27.199997l-1.399994,0c3.599976,8.300003 5.699982,17.5 5.699982,27.199997z" fill="#00B04C"/>
   </g>
  </g>
 </g>
</svg>