<svg width="600" height="400" xmlns="http://www.w3.org/2000/svg">
 <!-- Created with Method Draw - http://github.com/duopixel/Method-Draw/ -->

 <g>
  <title>background</title>
  <rect fill="#fff" id="canvas_background" height="402" width="602" y="-1" x="-1"/>
  <g display="none" overflow="visible" y="0" x="0" height="100%" width="100%" id="canvasGrid">
   <rect fill="url(#gridpattern)" stroke-width="0" y="0" x="0" height="100%" width="100%"/>
  </g>
 </g>
 <g>
  <title>Layer 1</title>
  <g stroke="null" id="svg_13">
   <g stroke="null" transform="matrix(2.27188 0 0 2.27185 -663.677 -414.778)" id="svg_4" fill-rule="evenodd">
    <path stroke="null" id="svg_5" fill="#00c8f6" d="m450.892242,219.440369l9.540009,7.540009c-6.570007,-2.5 -22.680023,-3.279999 -44.200012,14a35.759998,35.759998 0 0 1 34.660004,-21.540009z"/>
    <path stroke="null" id="svg_6" fill="#f40058" d="m475.342224,297.320374l-7.539978,9.529999c2.51001,-6.559998 3.279999,-22.670013 -14,-44.200012a35.779999,35.779999 0 0 1 21.539978,34.670013l0,0z"/>
    <path stroke="null" id="svg_7" fill="#f6b000" d="m397.502228,321.770355l-9.48999,-7.539978c6.570007,2.51001 22.679993,3.279999 44.200012,-14a35.779999,35.779999 0 0 1 -34.710022,21.539978z"/>
    <path stroke="null" id="svg_8" fill="#00c8f6" d="m417.94223,224.120361c-22.579987,22.110016 -17.279999,55 6.580017,50c-9.220001,20.680023 -40.640015,-0.880005 -34.230011,-39.179993a115.330002,115.330002 0 0 1 27.649994,-10.820007z"/>
    <path stroke="null" id="svg_9" fill="#f40058" d="m470.71225,264.370361c-22.110016,-22.579987 -55,-17.279999 -50,6.580017c-20.700012,-9.220001 0.879974,-40.640015 39.179993,-34.230011a116.169998,116.169998 0 0 1 10.820007,27.649994z"/>
    <path stroke="null" id="svg_10" fill="#f6b000" d="m430.46225,317.140381c22.579987,-22.120026 17.279999,-55 -6.580017,-50c9.209991,-20.700012 40.630005,0.879974 34.230011,39.179993a116.5,116.5 0 0 1 -27.649994,10.820007z"/>
    <path stroke="null" id="svg_11" fill="#2eb67e" d="m377.69223,276.890381c22.110016,22.579987 55,17.279999 50,-6.580017c20.680023,9.210022 -0.880005,40.630005 -39.179993,34.230011a116.07,116.07 0 0 1 -10.820007,-27.649994z"/>
    <path stroke="null" id="svg_12" fill="#2eb67e" d="m373.012238,243.930359l7.579987,-9.48999c-2.5,6.570007 -3.279999,22.679993 14,44.200012a35.790001,35.790001 0 0 1 -21.579987,-34.710022z"/>
   </g>
  </g>
 </g>
</svg>