<?xml version="1.0" encoding="utf-8"?>
<!-- Generator: Adobe Illustrator 14.0.0, SVG Export Plug-In . SVG Version: 6.00 Build 43363)  -->
<!DOCTYPE svg PUBLIC "-//W3C//DTD SVG 1.1//EN" "http://www.w3.org/Graphics/SVG/1.1/DTD/svg11.dtd">
<svg version="1.1" id="图层_1" xmlns="http://www.w3.org/2000/svg" xmlns:xlink="http://www.w3.org/1999/xlink" x="0px" y="0px"
	 width="900px" height="600px" viewBox="0 0 900 600" enable-background="new 0 0 900 600" xml:space="preserve">
<rect fill="#215FAC" width="900" height="600"/>
<g>
	<path fill="#FFFFFF" d="M563.158,263.088l-75.095-127.695c-12.087-20.655-38.933-27.776-59.963-15.905
		c-6.735,3.802-12.324,9.29-16.194,15.905l-45.512,77.369c-5.698,9.692-2.316,22.086,7.552,27.682
		c3.135,1.778,6.691,2.714,10.312,2.715c7.414,0.018,14.266-3.88,17.939-10.207l29.963-50.958
		c5.701-9.69,18.321-13.005,28.187-7.405c3.13,1.777,5.73,4.331,7.54,7.405l47.637,81.094c3.677,6.271,3.677,13.992,0,20.264
		l-23.668,40.49c-5.697,9.669-2.335,22.043,7.509,27.639c3.146,1.789,6.72,2.728,10.355,2.721c3.604-0.005,7.146-0.93,10.278-2.682
		c3.163-1.771,5.783-4.344,7.585-7.45l35.575-60.718C566.836,277.081,566.836,269.36,563.158,263.088L563.158,263.088z"/>
	<path fill="#FFFFFF" d="M431.932,283.65h-95.272c-7.372-0.006-14.185,3.858-17.863,10.132l-75.058,127.731
		c-12.17,20.584-5.046,46.961,15.912,58.913c6.687,3.814,14.282,5.824,22.015,5.828h94.817c11.395-0.002,20.63-9.077,20.628-20.269
		c-0.001-3.556-0.954-7.049-2.764-10.128c-3.679-6.273-10.492-10.138-17.864-10.132h-63.642
		c-11.374-0.015-20.583-9.082-20.568-20.253c0.004-3.506,0.936-6.949,2.705-9.994l47.636-81.169
		c3.69-6.263,10.496-10.123,17.864-10.132h71.454c7.362,0.006,14.169-3.841,17.863-10.096c5.719-9.68,2.364-22.08-7.492-27.696
		C439.152,284.591,435.574,283.647,431.932,283.65z"/>
	<path fill="#FFFFFF" d="M656.27,421.514l-45.513-77.406c-5.701-9.69-18.321-13.005-28.188-7.405c-3.13,1.777-5.73,4.33-7.539,7.405
		c-3.68,6.259-3.68,13.969,0,20.228l30,51.145c5.677,9.704,2.269,22.09-7.612,27.665c-3.119,1.761-6.653,2.689-10.251,2.694h-91.519
		c-7.371,0.006-14.184-3.858-17.863-10.133l-21.884-37.25c-5.671-9.684-18.261-13.019-28.12-7.449
		c-1.287,0.728-2.489,1.588-3.587,2.568l-0.683,0.635l-2.313,2.271c-8.609,10.58,1.024,25.145,1.138,25.777
		c10.443,17.83,20.974,35.785,31.594,53.864c3.675,6.223,10.424,10.075,17.75,10.132h146.549
		c24.235,0.051,43.924-19.204,43.975-43.007C662.22,435.614,660.172,428.115,656.27,421.514z"/>
</g>
</svg>
