<?xml version="1.0" encoding="utf-8"?>
<!-- Generator: Adobe Illustrator 14.0.0, SVG Export Plug-In . SVG Version: 6.00 Build 43363)  -->
<!DOCTYPE svg PUBLIC "-//W3C//DTD SVG 1.1//EN" "http://www.w3.org/Graphics/SVG/1.1/DTD/svg11.dtd">
<svg version="1.1" id="图层_1" xmlns="http://www.w3.org/2000/svg" xmlns:xlink="http://www.w3.org/1999/xlink" x="0px" y="0px"
	 width="900px" height="600px" viewBox="0 0 900 600" enable-background="new 0 0 900 600" xml:space="preserve">
<rect fill="#589F43" width="900" height="600"/>
<g>
	<path fill="#FFFFFF" d="M301.523,256.784v-41.809L450,129.75l148.477,85.226v170.05L450,470.25l-148.477-85.225V267.638
		l1.214-0.804l44.907-25.729l46.525-26.532L450,182.413l102.355,58.693v117.789L450,417.588l-102.355-58.693v-64.724l36.411-21.307
		L450,235.478v41.809l-2.427,1.608l-63.517,36.181v22.513L450,375.376l65.54-37.788v-75.176L450,224.624l-2.427,1.206
		l-41.266,23.719l-22.251,12.864l-36.411,20.904l-9.305,5.227v75.577L450,428.039l111.66-63.919V235.88L450,171.961L301.523,256.784
		z"/>
</g>
</svg>
