<?xml version="1.0" encoding="utf-8"?>
<!-- Generator: Adobe Illustrator 14.0.0, SVG Export Plug-In . SVG Version: 6.00 Build 43363)  -->
<!DOCTYPE svg PUBLIC "-//W3C//DTD SVG 1.1//EN" "http://www.w3.org/Graphics/SVG/1.1/DTD/svg11.dtd">
<svg version="1.1" id="图层_1" xmlns="http://www.w3.org/2000/svg" xmlns:xlink="http://www.w3.org/1999/xlink" x="0px" y="0px"
	 width="900px" height="600px" viewBox="0 0 900 600" enable-background="new 0 0 900 600" xml:space="preserve">
<rect fill="#FFFFFF" width="900" height="600"/>
<g>
	<g>
		
			<linearGradient id="SVGID_1_" gradientUnits="userSpaceOnUse" x1="778.4141" y1="494.2256" x2="778.4141" y2="559.0426" gradientTransform="matrix(-5.28 2.82 -2.82 -5.28 6060.6572 938.0406)">
			<stop  offset="0" style="stop-color:#00E155"/>
			<stop  offset="1" style="stop-color:#007262"/>
		</linearGradient>
		<path opacity="0.8" fill="url(#SVGID_1_)" enable-background="new    " d="M581.154,304.441l-78.517-78.455
			c-15.383-15.302-41.16-16.082-57.575-1.742c-4.268,3.728-7.624,8.269-9.84,13.314L372.03,417.271
			c-8.503,19.396,1.469,41.544,22.274,49.471c9.644,3.675,20.433,3.762,30.143,0.242l155.324-106.518
			C579.771,360.466,609.584,334.54,581.154,304.441z"/>
		
			<linearGradient id="SVGID_2_" gradientUnits="userSpaceOnUse" x1="727.7344" y1="542.7988" x2="735.4402" y2="504.151" gradientTransform="matrix(-5.4 2.64 -2.64 -5.4 5769.5396 1159.7998)">
			<stop  offset="0" style="stop-color:#FF566F"/>
			<stop  offset="1" style="stop-color:#FFCC00"/>
		</linearGradient>
		<path opacity="0.8" fill="url(#SVGID_2_)" enable-background="new    " d="M324.891,291.784l97.409,82.221
			c18.825,11.482,44.07,6.565,56.388-10.983c2.326-3.314,4.082-6.947,5.203-10.768l55.585-173.809
			c5.966-20.201-6.766-41.085-28.436-46.646c-11.333-2.908-23.463-1.106-33.265,4.942l-152.885,91.621
			c-18.787,11.536-23.985,35.084-11.611,52.598C316.322,285.265,320.272,288.948,324.891,291.784z"/>
		<path opacity="0.8" fill="#FFCA00" enable-background="new    " d="M395.217,351.168l40.041-113.61
			c8.527-19.407,32.317-28.694,53.134-20.745c5.411,2.066,10.282,5.195,14.281,9.173l16.344,16.356l-35.127,109.945
			c-5.955,20.223-28.368,32.116-50.063,26.565c-4.09-1.047-7.979-2.683-11.528-4.849L395.217,351.168z"/>
	</g>
</g>
</svg>
