<?xml version="1.0" encoding="utf-8"?>
<!-- Generator: Adobe Illustrator 14.0.0, SVG Export Plug-In . SVG Version: 6.00 Build 43363)  -->
<!DOCTYPE svg PUBLIC "-//W3C//DTD SVG 1.1//EN" "http://www.w3.org/Graphics/SVG/1.1/DTD/svg11.dtd">
<svg version="1.1" id="图层_1" xmlns="http://www.w3.org/2000/svg" xmlns:xlink="http://www.w3.org/1999/xlink" x="0px" y="0px"
	 width="900px" height="600px" viewBox="0 0 900 600" enable-background="new 0 0 900 600" xml:space="preserve">
<rect fill="#EC1E27" width="900" height="600"/>
<path fill="#FFFFFF" d="M303.904,295.174c-12.902,6.298-23.491,16.519-30.258,29.206c-0.43-5.159-1.053-10.295-1.268-15.431
	c-1.58-37.534,5.242-73.124,25.326-105.354c23.938-38.397,58.622-62.637,101.758-74.636c38.447-11.167,79.478-9.482,116.887,4.8
	c33.739,12.535,62.407,35.886,81.555,66.428c16.517,25.799,25.637,54.238,29.442,84.5c1.126,9.023,1.029,8.928-8.138,9.84
	c-9.169,0.912-17.954,0.72-27.48,2.399c4.787,4.008,9.12,7.919,13.788,11.279c3.423,2.4,3.471,3.983,0.167,6.743
	c-20.499,17.115-42.702,32.064-66.259,44.614c-38.396,20.839-80.597,33.68-124.067,37.749c-32.938,2.929-65.541,1.129-96.611-11.879
	c-10.118-3.842-19.247-9.91-26.715-17.759c-15.081-16.751-15.822-35.422-2.753-54.477
	C293.707,306.813,298.997,301.27,303.904,295.174L303.904,295.174z M483.291,264.192v91.771c0,2.592-0.335,5.255,3.711,3.264
	c16.137-7.979,31.457-17.521,45.744-28.487c1.76-1.391,2.666-3.602,2.395-5.831V172.757c0-3.888-1.174-4.992-4.932-4.943
	c-13.979,0.176-27.959,0.176-41.938,0c-3.926,0-5.218,0.983-5.194,5.111C483.388,203.354,483.291,233.761,483.291,264.192
	L483.291,264.192z M424.884,304.989v70.965c0,4.15,0.91,5.447,5.194,4.224c14.228-3.938,28.228-8.658,41.939-14.136
	c3.126-0.826,5.168-3.836,4.787-7.056c-0.16-41.693-0.16-83.38,0-125.058c0-3.646-0.814-5.063-4.787-4.991
	c-13.98,0.216-27.959,0.192-41.939,0c-3.877,0-5.219,0.937-5.17,5.063c0.096,23.688,0,47.35-0.024,71.013V304.989z M365.256,335.348
	v48.79c0,3.264,0.694,4.535,4.213,4.391c14.449-0.685,28.841-2.287,43.088-4.799c3.59-0.6,5.026-1.944,5.002-5.881
	c-0.191-30.59-0.191-61.195,0-91.818c0-3.888-1.125-4.968-4.906-4.799c-14.147,0.168-28.295,0.191-42.441,0
	c-3.734,0-4.979,0.911-4.932,4.799C365.375,302.565,365.256,318.98,365.256,335.348L365.256,335.348z"/>
<path fill="#47A6AE" d="M305.676,402.136c10.834,8.058,22.984,14.164,35.906,18.047c23.743,6.491,48.353,9.221,72.938,8.088
	c22.635-0.651,45.176-3.212,67.384-7.655c44.69-8.928,87.419-23.23,126.725-46.798c1.03-0.6,1.963-1.704,3.734-1.104
	c-0.958,3.858-2.578,7.521-4.787,10.823c-21.831,40.605-53.645,70.124-97.474,84.379c-64.99,21.144-124.811,10.224-177.879-33.718
	c-9.047-7.731-17.152-16.504-24.153-26.135c-1.269-1.703-3.017-3.455-2.394-6V402.136z M305.676,402.063l-0.742-0.144
	c0.526-0.815,0.455,0.12,0.67,0.216L305.676,402.063z"/>
</svg>
