<?xml version="1.0" encoding="utf-8"?>
<!-- Generator: Adobe Illustrator 14.0.0, SVG Export Plug-In . SVG Version: 6.00 Build 43363)  -->
<!DOCTYPE svg PUBLIC "-//W3C//DTD SVG 1.1//EN" "http://www.w3.org/Graphics/SVG/1.1/DTD/svg11.dtd">
<svg version="1.1" id="cube" xmlns="http://www.w3.org/2000/svg" xmlns:xlink="http://www.w3.org/1999/xlink" x="0px" y="0px"
	 width="900px" height="600px" viewBox="0 0 900 600" enable-background="new 0 0 900 600" xml:space="preserve">
<rect fill="#0085D0" width="900" height="600"/>
<g>
	<path fill="#FFFFFF" d="M449.994,135.5c-92.515,0-167.517,73.642-167.517,164.5c0,26.259,6.296,51.066,17.445,73.092
		c7.995-93.145,66.944-175.612,153.681-214.502c0,0,6.887-2.789,10.725-3.466c21.264-3.78,41.627,10.096,45.471,30.966
		c3.29,18.002-6.775,35.296-23.24,42.15l0.019,0.066c-0.143,0.042-1.128,0.375-1.441,0.478c-7.768,2.662-21.621,8.82-23.574,9.757
		c-69.513,33.397-120.288,95.05-139.729,167.35c3.246,3.786,6.665,7.439,10.237,10.936
		c17.703-61.132,66.385-109.882,128.943-128.035c0,0,5.187-1.294,7.989-1.392c15.517-0.574,28.551,11.306,29.13,26.532
		c0.511,13.133-8.445,24.426-20.851,27.662l0.019,0.042c-0.111,0.019-0.851,0.151-1.091,0.206
		c-5.79,1.107-16.274,4.125-17.765,4.592c-46.002,14.65-84.119,45.918-107.249,86.381c4.017,2.886,8.138,5.607,12.419,8.13
		c25.797-33.923,66.525-54.914,110.377-55.657c0,0,3.967,0.078,5.987,0.563c11.192,2.588,18.104,13.598,15.461,24.59
		c-2.279,9.473-10.933,15.806-20.462,15.709l0.012,0.036c-0.08-0.012-0.622-0.055-0.819-0.066
		c-4.361-0.339-12.442-0.218-13.625-0.163c-27.572,1.18-53.782,10.344-75.655,25.647c20.025,8.3,42.004,12.897,65.104,12.897
		c92.502,0,167.528-73.66,167.528-164.512C617.522,209.142,542.502,135.5,449.994,135.5z"/>
</g>
</svg>
