<?xml version="1.0" encoding="utf-8"?>
<!-- Generator: Adobe Illustrator 14.0.0, SVG Export Plug-In . SVG Version: 6.00 Build 43363)  -->
<!DOCTYPE svg PUBLIC "-//W3C//DTD SVG 1.1//EN" "http://www.w3.org/Graphics/SVG/1.1/DTD/svg11.dtd">
<svg version="1.1" id="图层_1" xmlns="http://www.w3.org/2000/svg" xmlns:xlink="http://www.w3.org/1999/xlink" x="0px" y="0px"
	 width="900px" height="600px" viewBox="0 0 900 600" enable-background="new 0 0 900 600" xml:space="preserve">
<rect fill="#FFFFFF" width="900" height="600"/>
<path fill="#39B54A" d="M438.615,311.059h-79.229c-6.288,0-11.386-4.951-11.386-11.058c0-6.106,5.098-11.057,11.386-11.057h79.229
	v-76.939c0-6.106,5.098-11.057,11.386-11.057c6.289,0,11.386,4.95,11.386,11.057v76.939h170.314
	c-6.393-97.351-92.839-171.238-193.086-165.031S262.282,214.07,268.674,311.42c5.823,88.696,78.606,159.377,169.941,165.031V311.059
	L438.615,311.059z"/>
<path fill="#009245" d="M461.387,311.059v165.394c91.614-5.499,164.651-76.427,170.314-165.394H461.387L461.387,311.059z"/>
</svg>
