<?xml version="1.0" encoding="utf-8"?>
<!-- Generator: Adobe Illustrator 14.0.0, SVG Export Plug-In . SVG Version: 6.00 Build 43363)  -->
<!DOCTYPE svg PUBLIC "-//W3C//DTD SVG 1.1//EN" "http://www.w3.org/Graphics/SVG/1.1/DTD/svg11.dtd">
<svg version="1.1" id="cube" xmlns="http://www.w3.org/2000/svg" xmlns:xlink="http://www.w3.org/1999/xlink" x="0px" y="0px"
	 width="900px" height="600px" viewBox="0 0 900 600" enable-background="new 0 0 900 600" xml:space="preserve">
<rect fill="#FFFFFF" width="900" height="600"/>
<g>
	<path fill="#EA6000" d="M449.67,227.504c-68.71,0-132.417,26.021-184.971,70.39l4.454,70.354
		c17.938-8.623,36.643-15.922,55.903-21.909c1.723-0.888,3.619-1.412,5.664-1.412c6.689,0,12.127,5.315,12.779,12.127h0.043
		l6.343,124.196H450.33V227.522C450.104,227.522,449.887,227.504,449.67,227.504z"/>
	<path fill="#FBC600" d="M450.33,227.504c68.684,0,132.391,26.021,184.971,70.39l-4.48,70.354
		c-17.921-8.623-36.634-15.922-55.912-21.909c-1.714-0.888-3.619-1.412-5.663-1.412c-6.673,0-12.128,5.315-12.754,12.127h-0.053
		l-6.342,124.196H449.67V227.522C449.887,227.522,450.104,227.504,450.33,227.504z"/>
	<path fill="#EA6000" d="M445.302,170.338c0,28.493-22.192,51.597-49.552,51.597c-27.352,0-49.553-23.104-49.553-51.597
		c0.008-28.493,22.201-51.588,49.553-51.588C423.109,118.75,445.302,141.845,445.302,170.338z"/>
	<path fill="#FBC600" d="M553.776,170.338c0,28.493-22.184,51.597-49.552,51.597c-27.369,0-49.553-23.104-49.553-51.597
		c0-28.493,22.184-51.588,49.553-51.588C531.593,118.75,553.776,141.845,553.776,170.338z"/>
</g>
</svg>
