<?xml version="1.0" encoding="utf-8"?>
<!-- Generator: Adobe Illustrator 25.0.0, SVG Export Plug-In . SVG Version: 6.00 Build 0)  -->
<svg version="1.1" id="Capa_1" xmlns="http://www.w3.org/2000/svg" xmlns:xlink="http://www.w3.org/1999/xlink" x="0px" y="0px"
	 viewBox="0 0 900 600" style="enable-background:new 0 0 900 600;" xml:space="preserve">
<style type="text/css">
	.st0{fill:#205AB7;}
	.st1{fill:#FFFFFF;}
</style>
<path class="st0" d="M0,0h900v600H0V0z"/>
<g>
	<g>
		<g>
			<path class="st1" d="M395.7,386.2c-5,11.4-12.9,18.9-23.4,22.2c-28.5,9-68.8-14-77-19.1c-0.2-9.7-0.1-56.1,22-76.2
				c8.1-7.4,18.5-10.5,30.9-9.1c1.9,13.9,13.8,24.6,28.2,24.6h18.3c-2.6,1.1-5.2,2.3-7.8,3.5c-6,2.9-11.4,7-17,10.6
				c-5.6,3.6-11.2,7.2-16.8,10.9c-5.5,3.7-11.1,7.4-16.6,11.2l0.3,0.6c6-2.9,12-5.9,18-8.8c6-3,11.9-6,17.9-9.1
				c5.9-3.1,12.1-5.6,17.7-9.4c2.8-1.8,5.5-3.8,8.2-5.9c0,0,0,0,0,0l-10,17.4C381.4,361.9,384.6,377.6,395.7,386.2z"/>
			<path class="st1" d="M505.1,421.5c-6.5,29.2-46.6,52.5-55.1,57.2c-8.5-4.6-48.6-27.9-55-57.1c-2.4-10.8,0.2-21.3,7.5-31.4
				c5.7,2.3,12,2.7,18.1,1.1c7.4-2,13.5-6.7,17.3-13.2l9.6-16.6c-0.4,3.1-0.8,6.3-1,9.4c-0.5,6.6,0.4,13.1,0.7,19.7
				c0.3,6.6,0.6,13.1,1,19.7c0.5,6.6,0.8,13.1,1.4,19.7h0.7c0.6-6.6,0.9-13.1,1.4-19.7c0.4-6.5,0.7-13.1,1-19.7
				c0.3-6.6,1.2-13.1,0.7-19.7c-0.2-3.1-0.5-6.3-1-9.4l9.6,16.6c3.8,6.6,9.9,11.3,17.3,13.2c2.5,0.7,5,1,7.4,1
				c3.6,0,7.2-0.7,10.6-2.1C504.9,400.2,507.4,410.8,505.1,421.5z"/>
			<path class="st1" d="M604.7,389.3c-8.3,5-48.5,28.1-77,19.1c-10.5-3.3-18.3-10.8-23.4-22.2c11-8.6,14.3-24.3,7.1-36.7l-10-17.3
				c2.5,2,5.1,3.8,7.7,5.6c2.7,1.8,5.5,3.4,8.5,4.8c2.9,1.4,5.9,2.8,8.7,4.3c5.8,3,11.6,5.9,17.4,8.8c5.9,2.8,11.7,5.8,17.5,8.5
				l0.3-0.6c-5.3-3.7-10.8-7.3-16.2-10.9c-5.4-3.6-10.9-7.1-16.3-10.6c-2.7-1.7-5.4-3.6-8.1-5.4c-2.7-1.8-5.5-3.4-8.4-4.9
				c-2.4-1.2-4.7-2.3-7.2-3.3h18.2c14.4,0,26.3-10.7,28.2-24.6c12.4-1.4,22.8,1.7,30.9,9.1C604.8,333.3,604.9,379.7,604.7,389.3z"/>
			<path class="st1" d="M582.7,286.9c-8.1,7.4-18.5,10.5-30.9,9.1c-1.9-13.9-13.8-24.5-28.2-24.5h-20c2.9-1.1,5.8-2.4,8.6-3.8
				c2.9-1.4,5.7-3.1,8.4-4.9c2.7-1.8,5.3-3.7,8.1-5.4c5.5-3.5,10.9-7,16.3-10.6c5.4-3.6,10.8-7.2,16.1-10.9l-0.3-0.6
				c-5.9,2.8-11.7,5.7-17.5,8.5c-5.8,2.9-11.6,5.8-17.3,8.8c-2.9,1.5-5.8,2.9-8.7,4.3c-2.9,1.4-5.7,3-8.4,4.8
				c-2.2,1.4-4.3,2.9-6.4,4.6l9.1-15.7c3.8-6.6,4.8-14.2,2.8-21.6c-1.6-6.1-5.1-11.3-10-15.1c5-11.4,12.9-18.9,23.4-22.2
				c28.5-9,68.8,14.1,77,19.1C604.9,220.4,604.8,266.7,582.7,286.9z"/>
			<path class="st1" d="M497.5,209.9c-5.7-2.3-12-2.7-18.1-1.1c-7.4,2-13.5,6.7-17.3,13.2l-9,15.5c0.4-2.6,0.6-5.2,0.8-7.8
				c0.6-6.5-0.3-13.1-0.5-19.6c-0.2-6.5-0.5-13.1-0.9-19.6c-0.4-6.5-0.7-13.1-1.2-19.6h-0.7c-0.6,6.5-1,13.1-1.5,19.6
				c-0.5,6.5-0.8,13.1-1.2,19.6c-0.3,6.5-1.3,13.1-0.8,19.6c0.2,3.3,0.5,6.5,1,9.8c0,0.1,0,0.1,0,0.2L437.9,222
				c-3.8-6.6-9.9-11.3-17.3-13.2c-6.1-1.6-12.4-1.2-18.1,1.1c-7.4-10.1-9.9-20.6-7.6-31.4c6.5-29.2,46.6-52.5,55.1-57.2
				c8.5,4.6,48.6,27.9,55.1,57.2C507.4,189.3,504.9,199.8,497.5,209.9z"/>
			<path class="st1" d="M387.3,267.4c3,1.5,6,2.8,9.1,4.1h-20.1c-14.4,0-26.3,10.7-28.2,24.6c-12.4,1.4-22.8-1.7-30.9-9.1
				c-22.1-20.2-22.2-66.6-22-76.2c8.2-5,48.4-28.1,77-19.1c10.5,3.3,18.4,10.8,23.4,22.2c-4.8,3.8-8.3,9-10,15.1
				c-2,7.4-1,15,2.8,21.6l9.1,15.8c-2.2-1.7-4.5-3.4-6.9-4.9c-5.5-3.8-11.7-6.3-17.6-9.4c-5.9-3.1-11.8-6.1-17.8-9.1
				c-6-2.9-11.9-5.9-17.9-8.8l-0.3,0.6c5.5,3.8,11,7.4,16.6,11.2c5.5,3.7,11.1,7.3,16.7,10.9C376,260.5,381.3,264.5,387.3,267.4z"/>
		</g>
	</g>
	<g>
		<g>
			<path class="st1" d="M618.5,289.9l-17.5,10l17.4,10.2c2,1.4,4.3,2.2,6.9,2.2c6.8,0.1,12.3-5.4,12.3-12.1
				c0.1-6.8-5.4-12.3-12.1-12.3C622.9,287.8,620.5,288.5,618.5,289.9z"/>
			<path class="st1" d="M281.6,310.1l17.5-10.1l-17.5-10.1c-2-1.4-4.4-2.2-6.9-2.2c-6.8,0-12.2,5.5-12.2,12.2
				c0,6.8,5.5,12.2,12.2,12.2C277.2,312.2,279.6,311.4,281.6,310.1z"/>
		</g>
		<g>
			<path class="st1" d="M525.5,149l-0.2,20.2l17.5-10c2.2-1,4.1-2.7,5.4-4.9c3.4-5.8,1.5-13.3-4.4-16.8c-5.8-3.4-13.3-1.5-16.8,4.4
				C525.8,144.2,525.3,146.6,525.5,149z"/>
			<path class="st1" d="M374.5,450.9l0-20.2L357,440.8c-2.2,1-4,2.7-5.3,4.9c-3.4,5.9-1.4,13.3,4.5,16.7c5.9,3.4,13.3,1.4,16.7-4.5
				C374.2,455.7,374.7,453.3,374.5,450.9z"/>
		</g>
		<g>
			<path class="st1" d="M541.9,441.6l-17.3-10.4l-0.3,20.2c-0.2,2.4,0.2,4.9,1.5,7.1c3.3,5.9,10.7,8,16.7,4.7
				c5.9-3.3,8-10.7,4.7-16.7C545.9,444.3,544.1,442.6,541.9,441.6z"/>
			<path class="st1" d="M358.1,158.5l17.4,10.2l0.2-20.2c0.2-2.4-0.3-4.9-1.5-7.1c-3.3-5.9-10.8-7.9-16.7-4.6
				c-5.9,3.3-7.9,10.8-4.6,16.7C354.1,155.8,356,157.4,358.1,158.5z"/>
		</g>
	</g>
	<g>
		<path class="st1" d="M523.6,278.4h-36.3l18.1-31.4c2.9-5,3.6-10.8,2.1-16.3c-1.5-5.6-5.1-10.2-10-13.1c-5-2.9-10.8-3.6-16.3-2.1
			c-5.6,1.5-10.2,5.1-13.1,10L450,256.9l-18.1-31.4c-2.9-5-7.5-8.5-13.1-10c-5.6-1.5-11.4-0.7-16.3,2.1c-5,2.9-8.5,7.5-10,13.1
			c-1.5,5.6-0.7,11.4,2.1,16.3l18.1,31.4h-36.3c-11.9,0-21.5,9.7-21.5,21.6c0,11.9,9.7,21.6,21.5,21.6h36.3L394.5,353
			c-5.9,10.3-2.4,23.5,7.9,29.4c5,2.9,10.8,3.6,16.3,2.1c5.6-1.5,10.2-5.1,13.1-10l18.1-31.4l18.1,31.4c2.9,5,7.5,8.5,13.1,10
			c5.6,1.5,11.4,0.7,16.3-2.1c10.3-5.9,13.8-19.2,7.9-29.4l-18.1-31.4h36.3c11.9,0,21.6-9.7,21.6-21.6
			C545.1,288.1,535.5,278.4,523.6,278.4z M476.1,232.1l7.5,4.3l6.5-5.8l-1.8,8.5l7.5,4.3l-8.7,0.9l-1.8,8.5l-3.5-7.9l-8.6,0.9
			l6.5-5.8L476.1,232.1z M404.7,243.1l7.6-4.3l-1.7-8.5l6.4,5.9l7.6-4.3l-3.6,7.9l6.4,5.9l-8.6-1l-3.6,7.9l-1.7-8.5L404.7,243.1z
			 M391.6,307l-8.3-2.7l-5.1,7v-8.7l-8.3-2.7l8.3-2.7v-8.7l5.1,7l8.3-2.7l-5.1,7L391.6,307z M423.9,367.9l-7.5-4.3l-6.5,5.8l1.8-8.5
			l-7.5-4.3l8.7-0.9l1.8-8.5l3.5,7.9l8.7-0.9l-6.5,5.8L423.9,367.9z M495.3,356.8l-7.6,4.3l1.7,8.5l-6.4-5.9l-7.6,4.3l3.6-7.9
			l-6.4-5.9l8.6,1l3.6-7.9l1.7,8.5L495.3,356.8z M450,341.9c-23.1,0-41.9-18.8-41.9-41.9c0-23.1,18.8-41.9,41.9-41.9
			c23.1,0,41.9,18.8,41.9,41.9C491.9,323.1,473.1,341.9,450,341.9z M521.8,302.7v8.7l-5.1-7l-8.3,2.7l5.1-7l-5.1-7l8.3,2.7l5.1-7
			v8.7l8.3,2.7L521.8,302.7z M450,265c-19.3,0-35,15.7-35,35c0,19.3,15.7,35,35,35c19.3,0,35-15.7,35-35
			C485,280.7,469.3,265,450,265z"/>
	</g>
</g>
</svg>
