<?xml version="1.0" encoding="utf-8"?>
<!-- Generator: Adobe Illustrator 25.0.0, SVG Export Plug-In . SVG Version: 6.00 Build 0)  -->
<svg version="1.1" id="Capa_1" xmlns="http://www.w3.org/2000/svg" xmlns:xlink="http://www.w3.org/1999/xlink" x="0px" y="0px"
	 viewBox="0 0 399.6 266.4" style="enable-background:new 0 0 399.6 266.4;" xml:space="preserve">
<style type="text/css">
	.st0{fill:#66023C;}
	.st1{fill:#FFFFFF;}
	.st2{fill:#D3A524;}
</style>
<rect class="st0" width="399.6" height="266.4"/>
<g>
	<polygon class="st1" points="164.1,133.2 137,158.2 112,133.2 137,108.2 	"/>
	<rect x="137.7" y="164.8" class="st1" width="30.5" height="30.5"/>
	<polygon class="st1" points="224.8,196 199.8,221 174.8,196 199.8,168.9 	"/>
	<rect x="231.4" y="164.8" class="st1" width="30.5" height="30.5"/>
	<polygon class="st1" points="287.6,133.2 262.6,158.2 235.5,133.2 262.6,108.2 	"/>
	<rect x="231.4" y="71.1" class="st1" width="30.5" height="30.5"/>
	<polygon class="st1" points="224.8,70.4 199.8,97.5 174.8,70.4 199.8,45.4 	"/>
	<polygon class="st2" points="224.1,133.2 249.9,157.1 223.7,157.1 223.7,183.3 199.8,157.5 176,183.3 176,157.1 149.7,157.1 
		175.5,133.2 149.7,109.4 176,109.4 176,83.1 199.8,108.9 223.7,83.1 223.7,109.4 249.9,109.4 	"/>
	<rect x="137.7" y="71.1" class="st1" width="30.5" height="30.5"/>
</g>
</svg>
