<svg width="600" height="400" xmlns="http://www.w3.org/2000/svg">
 <!-- Created with Method Draw - http://github.com/duopixel/Method-Draw/ -->

 <g>
  <title>background</title>
  <rect fill="#fff" id="canvas_background" height="402" width="602" y="-1" x="-1"/>
  <g display="none" overflow="visible" y="0" x="0" height="100%" width="100%" id="canvasGrid">
   <rect fill="url(#gridpattern)" stroke-width="0" y="0" x="0" height="100%" width="100%"/>
  </g>
 </g>
 <g>
  <title>Layer 1</title>
  <g stroke="null" id="svg_122">
   <g stroke="null" transform="matrix(2.31013 0 0 2.20351 -183.754 -94.0023)" id="svg_117" fill-rule="evenodd">
    <path stroke="null" id="svg_118" fill="#fc2162" d="m198.310638,169.299774c-23.100006,39.430008 -58.559998,-25.100006 -29.62001,-42.459984c-10,20.939995 10.589996,62.999992 29.699997,34.199989c-16.719986,17.159988 -33.479996,-17.860001 -23.969986,-30.600006c8.269989,5.300003 30.339996,17.240005 36.709991,4.630005c3.149994,4.410004 1.350006,9.689987 -1.100006,13.929993l-11.719986,20.300003z"/>
    <path stroke="null" id="svg_119" fill="#f4b943" d="m173.53064,122.329781c-39.419998,-23.099998 25.110001,-58.559998 42.499985,-29.619995c-20.939987,-9.970001 -62.949997,10.589996 -34.209991,29.699997c-17.190002,-16.720001 17.830002,-33.480003 30.569992,-23.970001c-5.299988,8.270004 -17.23999,30.340004 -4.62999,36.709999c-4.410004,3.149994 -9.690002,1.349991 -13.930008,-1.100006l-20.299988,-11.719994z"/>
    <path stroke="null" id="svg_120" fill="#00dac8" d="m220.500626,97.559784c23.100021,-39.43 58.560013,25.099998 29.62001,42.5c10,-20.950005 -10.589996,-63 -29.700012,-34.209999c16.720001,-17.200005 33.480011,17.820007 24,30.55999c-8.269989,-5.300003 -30.339996,-17.239998 -36.709991,-4.62999c-3.169998,-4.409996 -1.380005,-9.689995 1.110001,-13.939995l11.679993,-20.280006z"/>
    <path stroke="null" id="svg_121" fill="#5e2f56" d="m245.28064,144.519775c39.429993,23.100006 -25.100006,58.560013 -42.500015,29.619995c20.940018,10 63.000015,-10.589996 34.199997,-29.699997c17.200012,16.720001 -17.819992,33.480011 -30.559998,24c5.300018,-8.270004 17.240005,-30.339996 4.630005,-36.709991c4.410004,-3.139999 9.690002,-1.350006 13.930008,1.099991l20.300003,11.690002z"/>
   </g>
  </g>
 </g>
</svg>