<?xml version="1.0" encoding="utf-8"?>
<!-- Generator: Adobe Illustrator 14.0.0, SVG Export Plug-In . SVG Version: 6.00 Build 43363)  -->
<!DOCTYPE svg PUBLIC "-//W3C//DTD SVG 1.1//EN" "http://www.w3.org/Graphics/SVG/1.1/DTD/svg11.dtd">
<svg version="1.1" id="图层_1" xmlns="http://www.w3.org/2000/svg" xmlns:xlink="http://www.w3.org/1999/xlink" x="0px" y="0px"
	 width="900px" height="600px" viewBox="-144 96 900 600" enable-background="new -144 96 900 600" xml:space="preserve">
<rect x="-144" y="96" fill="#FFFFFF" width="900" height="600"/>
<path fill="#5B9D47" d="M330.633,358.718l-67.215-56.396l-67.288,56.467h-9.394l76.682-64.468l77.083,64.468L330.633,358.718
	L330.633,358.718z"/>
<path fill="#2B9CC6" d="M352.891,358.789l-89.509-75.018l-89.401,75.018h-17.179l106.58-89.462l106.652,89.462H352.891z"/>
<path fill="#E87A32" d="M266.415,372.525h24.232v23.507h-24.232V372.525z M266.415,343.637h24.232v23.472h-24.232V343.637z
	 M236.225,343.637h24.232v23.472h-24.232V343.637z M236.225,372.525h24.232v23.507h-24.232V372.525z"/>
<path fill="#2B9CC6" d="M271.641,269.327l107.419,89.462h76.097l-111.842-89.462H271.641z"/>
<path fill="#E87A32" d="M305.486,239.518c93.605,0.024,171.002,70.648,176.608,161.152c0.22-3.541,0.329-6.833,0.329-10.267
	c0-94.672-79.234-171.418-176.974-171.418c-97.74,0-176.974,76.747-176.974,171.418c0,3.54,0,6.868,0.329,10.267
	C134.413,310.139,211.853,239.505,305.486,239.518z"/>
<path fill="#5B9D47" d="M141.962,405.379c27.961,69.317,92.252,109.746,132.786,129.254c2.363-25.283,10.691-49.701,24.342-71.371
	c-35.527-56.105-101.769-86.759-169.153-78.275c-12.264,90.238,52.505,173.309,145.468,186.57
	c-1.126-8.533-1.579-17.137-1.352-25.736C154.061,495.619,141.962,405.379,141.962,405.379z"/>
<path fill="#5B9D47" d="M482.059,384.704c-94.189-11.957-180.552,52.308-192.896,143.541c-1.616,11.943-1.89,24.021-0.817,36.021
	c14.4-4.814,127.083-45.032,166.776-143.31c0,0-13.926,104.473-161.331,151.133c94.352,9.618,178.89-56.672,188.82-148.063
	C484.032,410.943,483.847,397.744,482.059,384.704L482.059,384.704z"/>
</svg>
