<?xml version="1.0" encoding="utf-8"?>
<!-- Generator: Adobe Illustrator 14.0.0, SVG Export Plug-In . SVG Version: 6.00 Build 43363)  -->
<!DOCTYPE svg PUBLIC "-//W3C//DTD SVG 1.1//EN" "http://www.w3.org/Graphics/SVG/1.1/DTD/svg11.dtd">
<svg version="1.1" id="图层_1" xmlns="http://www.w3.org/2000/svg" xmlns:xlink="http://www.w3.org/1999/xlink" x="0px" y="0px"
	 width="900px" height="600px" viewBox="0 0 900 600" enable-background="new 0 0 900 600" xml:space="preserve">
<rect fill="#01AAC5" width="900" height="600"/>
<path fill="#FFFFFF" d="M318.564,416.999v-32.228L400.928,300l-41.556-42.675l-40.808-41.981v-32.228l8.146,8.443L432.291,300
	L318.564,416.999z"/>
<path fill="#FFFFFF" d="M581.513,183.116v32.228L499.07,300l82.442,84.771v32.228L467.708,300L581.513,183.116z"/>
<path fill="#FFFFFF" d="M336.272,167.735h31.364L450,252.506l82.442-84.771h31.363L450,284.657L336.272,167.735L336.272,167.735z"/>
<path fill="#FFFFFF" d="M563.805,432.381h-31.363l-41.635-42.791L450,347.609l-82.363,84.771h-31.364L450,315.343l8.264,8.442
	L563.805,432.381z"/>
<path fill="#FFFFFF" d="M318.564,239.631L259.694,300l58.87,60.484L377.356,300L318.564,239.631z"/>
<path fill="#FFFFFF" d="M581.513,239.631L522.643,300l58.87,60.484L640.305,300L581.513,239.631z"/>
<path fill="#FFFFFF" d="M450,107.25l-58.792,60.485L450,228.258l58.87-60.523L450,107.25z"/>
<path fill="#FFFFFF" d="M450,371.857l-58.792,60.523L450,492.75l58.87-60.369L450,371.857z"/>
</svg>
