<?xml version="1.0" encoding="utf-8"?>
<!-- Generator: Adobe Illustrator 14.0.0, SVG Export Plug-In . SVG Version: 6.00 Build 43363)  -->
<!DOCTYPE svg PUBLIC "-//W3C//DTD SVG 1.1//EN" "http://www.w3.org/Graphics/SVG/1.1/DTD/svg11.dtd">
<svg version="1.1" id="图层_1" xmlns="http://www.w3.org/2000/svg" xmlns:xlink="http://www.w3.org/1999/xlink" x="0px" y="0px"
	 width="900px" height="600px" viewBox="0 0 900 600" enable-background="new 0 0 900 600" xml:space="preserve">
<rect fill="#39B54A" width="900" height="600"/>
<g>
	<path fill="#FFFFFF" d="M323.805,177.865c69.729-67.378,182.662-67.378,252.391,0l-34.572,33.46
		c-50.637-48.892-132.609-48.892-183.246,0l-86.77,83.979c1.105-42.69,18.579-83.455,49.022-114.365L323.805,177.865z
		 M515.363,363.26c-36.108,34.916-94.618,34.916-130.727,0l34.572-33.46c17.018,16.429,44.564,16.429,61.582,0l122.627-118.544
		c9.068,14.774,15.803,30.778,19.979,47.48L515.363,363.26z"/>
	<path fill="#FFFFFF" d="M515.363,236.74l-34.572,33.46c-17.018-16.429-44.564-16.429-61.582,0L296.583,388.743
		c-9.054-14.72-15.789-30.663-19.98-47.308L384.637,236.74C420.746,201.824,479.255,201.824,515.363,236.74z M576.195,422.135
		c-69.729,67.378-182.663,67.378-252.391,0l34.572-33.461c50.637,48.894,132.609,48.894,183.246,0l86.77-84.013
		c-1.103,42.7-18.575,83.478-49.021,114.399L576.195,422.135z"/>
</g>
</svg>
