<?xml version="1.0" encoding="utf-8"?>
<!-- Generator: Adobe Illustrator 14.0.0, SVG Export Plug-In . SVG Version: 6.00 Build 43363)  -->
<!DOCTYPE svg PUBLIC "-//W3C//DTD SVG 1.1//EN" "http://www.w3.org/Graphics/SVG/1.1/DTD/svg11.dtd">
<svg version="1.1" id="图层_1" xmlns="http://www.w3.org/2000/svg" xmlns:xlink="http://www.w3.org/1999/xlink" x="0px" y="0px"
	 width="900px" height="600px" viewBox="0 0 900 600" enable-background="new 0 0 900 600" xml:space="preserve">
<rect fill="#FFFFFF" width="900" height="600"/>
<path fill="#333333" d="M450.056,205.385l43.477,23.672l43.626,23.636v178.25l76.996-41.889V210.804l-82.049-44.456l-82.05-44.598
	l-76.997,41.782L450.056,205.385z"/>
<path fill="#EF1A24" d="M527.166,352.834l-33.634,18.109l-43.477,23.672l-43.551,23.636l-33.37,18.11l76.921,41.889l31.862-17.361
	l45.248-24.526V352.834z M362.841,252.692l43.664-23.636l33.333-18.182l-76.997-41.817l-16.063,8.77l-60.934,33.048v83.6
	l33.521-18.11L362.841,252.692z"/>
<path fill="#333333" d="M362.841,347.309v-83.208l-0.113-0.107l-76.882,41.747v83.313l76.882,41.781l76.884-41.781v-0.106
	l-33.183-18.005L362.841,347.309L362.841,347.309z"/>
</svg>
