<svg width="600" height="400" xmlns="http://www.w3.org/2000/svg">
 <!-- Created with Method Draw - http://github.com/duopixel/Method-Draw/ -->

 <g>
  <title>background</title>
  <rect x="-1" y="-1" width="602" height="402" id="canvas_background" fill="#fff"/>
  <g id="canvasGrid" display="none">
   <rect id="svg_1" width="100%" height="100%" x="0" y="0" stroke-width="0" fill="url(#gridpattern)"/>
  </g>
 </g>
 <g>
  <title>Layer 1</title>
  <g stroke="null" id="svg_32">
   <g stroke="null" transform="matrix(2.83996 0 0 2.82773 -889.989 -565.326)" id="svg_12">
    <g stroke="null" id="svg_13">
     <radialGradient stroke="null" gradientTransform="translate(-30.9866 0) translate(0 -29.3523) translate(400.609 0) translate(0 248.899)" gradientUnits="userSpaceOnUse" r="98.2667" cy="50.4023" cx="51.749" id="svg_10">
      <stop stroke="null" stop-color="#26A9E0" offset="0.0121"/>
      <stop stroke="null" stop-color="#239CD7" offset="0.0861"/>
      <stop stroke="null" stop-color="#1C79BE" offset="0.2235"/>
      <stop stroke="null" stop-color="#1B75BB" offset="0.2364"/>
      <stop stroke="null" stop-color="#120742" offset="1"/>
     </radialGradient>
     <path stroke="null" id="svg_14" d="m425.002716,295.435394c1.766998,-1.325989 2.610992,-3.434998 3.561981,-5.338989c-7.311981,-3.466003 -16.000977,-2.154999 -22.58197,2.312988c-5.183014,3.514008 -14.153015,7.886017 -17.026001,-1.423981c-0.328003,8.010986 5.636993,16.031982 13.523987,17.748993c9.674011,2.109985 17.139008,-6.571014 22.522003,-13.299011" fill="url(#svg_10)"/>
    </g>
    <g stroke="null" id="svg_15">
     <radialGradient stroke="null" gradientTransform="translate(-30.9866 0) translate(0 -29.3523) translate(400.609 0) translate(0 248.899)" gradientUnits="userSpaceOnUse" r="98.2695" cy="50.3979" cx="51.75" id="svg_9">
      <stop stroke="null" stop-color="#26A9E0" offset="0.0121"/>
      <stop stroke="null" stop-color="#239CD7" offset="0.0861"/>
      <stop stroke="null" stop-color="#1C79BE" offset="0.2235"/>
      <stop stroke="null" stop-color="#1B75BB" offset="0.2364"/>
      <stop stroke="null" stop-color="#120742" offset="1"/>
     </radialGradient>
     <path stroke="null" id="svg_16" d="m400.531708,269.622406c6.019012,-7.522003 5.31601,-12.945007 3.541992,-21.694992c-1.199005,-5.951996 5.811005,-16.272003 12.921021,-13.906006c-8.904022,-4.712982 -21.063019,0.442017 -24.779022,9.554016c-1.860992,4.55899 -2.094971,9.53299 -0.481995,14.186966c1.037994,2.985016 4.90802,11.860016 8.798004,11.860016" fill="url(#svg_9)"/>
    </g>
    <g stroke="null" id="svg_17">
     <radialGradient stroke="null" gradientTransform="translate(-30.9866 0) translate(0 -29.3523) translate(400.609 0) translate(0 248.899)" gradientUnits="userSpaceOnUse" r="98.2789" cy="50.4014" cx="51.748" id="svg_8">
      <stop stroke="null" stop-color="#26A9E0" offset="0.0121"/>
      <stop stroke="null" stop-color="#239CD7" offset="0.0861"/>
      <stop stroke="null" stop-color="#1C79BE" offset="0.2235"/>
      <stop stroke="null" stop-color="#1B75BB" offset="0.2364"/>
      <stop stroke="null" stop-color="#120742" offset="1"/>
     </radialGradient>
     <path stroke="null" id="svg_18" d="m445.923706,254.495407c-2.924988,-0.796997 -15.311981,-3.134003 -14.493988,1.791c0.790009,4.720001 3.669006,8.90799 7.524994,11.679993c3.300995,2.367004 7.042999,2.584991 10.531006,4.328003c3.977997,2.65799 5.335999,8.014008 4.002991,12.462982c10.792999,-9.446991 6.347992,-26.783997 -7.565002,-30.261978" fill="url(#svg_8)"/>
    </g>
    <path stroke="null" id="svg_19" d="m423.8237,265.702393l0,19.984009c0,0.425995 -0.105988,0.824005 -0.294983,1.173004c-2.938995,-0.542999 -5.964996,-0.447998 -8.884003,0.194c-0.261017,-0.391998 -0.408997,-0.860016 -0.408997,-1.367004l0,-19.984009c0,-1.375977 1.112,-2.490997 2.483978,-2.490997l4.619019,0c1.373993,0.001007 2.484985,1.115021 2.484985,2.490997z" fill="#1B75BB"/>
    <path stroke="null" id="svg_20" d="m422.270721,259.074402c0,1.787994 -1.453003,3.240997 -3.240997,3.240997c-1.787018,0 -3.240021,-1.453003 -3.240021,-3.240997c0,-1.786987 1.45401,-3.240982 3.240021,-3.240982c1.787994,0 3.240997,1.453995 3.240997,3.240982z" fill="#1B75BB"/>
    <g stroke="null" id="svg_21">
     <g stroke="null" id="svg_22">
      <path stroke="null" id="svg_23" d="m437.468719,270.957397c0,2.484009 -3.723022,5.972992 -4.485016,8.64502c-1.178986,4.133972 -1.003998,8.571991 0.03302,12.719971c2.25,7.193024 -4.633026,13.387024 -11.128021,14.682007c9.266998,3.605011 20.708008,0.439026 24.813019,-9.104004c4.550995,-10.588989 -0.710999,-20.311981 -9.233002,-26.942993" fill="#CE9D28"/>
     </g>
     <g stroke="null" id="svg_24">
      <path stroke="null" id="svg_25" d="m408.539703,287.869385c-1.15799,-6.945984 -5.536987,-14.053986 -12.398987,-16.533997c-6.889008,-2.492981 -13.859009,-7.223999 -10.739014,-15.949966c-18.21698,15.411972 3.334015,43.286972 23.138,32.483963" fill="#CE9D28"/>
     </g>
     <g stroke="null" id="svg_26">
      <path stroke="null" id="svg_27" d="m408.987701,252.268417c6.815002,2.729004 14.555023,2.480988 20.915009,-1.334991c7.223999,-5.162018 14.300995,-8.326019 19.13501,1.334991c1.178009,-9.429993 -6.065002,-19.338013 -15.820007,-19.847015c-5.303009,-0.274994 -10.65799,2.721008 -14.415009,6.259003c-2.865997,2.696014 -9.815002,9.533997 -9.815002,13.588013" fill="#CE9D28"/>
     </g>
     <path stroke="null" id="svg_28" d="m410.835724,267.720398l-4.613007,0c-1.372009,0 -2.484009,1.11499 -2.484009,2.487l0,5.631012c3.287018,3.25 5.436005,7.756989 6.26001,12.231995c0.053986,0.145996 0.093994,0.298004 0.134003,0.447998c1.037994,-0.447998 2.102997,-0.837006 3.194,-1.139008l0,-17.171997c0,-1.372009 -1.112,-2.487 -2.490997,-2.487z" fill="#CE9D28"/>
     <path stroke="null" id="svg_29" d="m434.462708,270.207397l0,3.972015c-1.110992,1.707001 -2.497986,3.47998 -2.925995,4.996002c-0.891022,3.129974 -1.011993,6.434998 -0.562988,9.651001c-1.89502,-0.837006 -3.856018,-1.365021 -5.858002,-1.613007c-0.080017,-0.02002 -0.160004,-0.040009 -0.240021,-0.061005l0,-16.945007c0,-1.372009 1.110016,-2.487 2.490021,-2.487l4.612976,0c1.373016,0 2.484009,1.11499 2.484009,2.487z" fill="#CE9D28"/>
     <circle stroke="null" id="svg_30" r="3.24" cy="263.653412" cx="408.532715" fill="#CE9D28"/>
     <circle stroke="null" id="svg_31" r="3.24" cy="263.653412" cx="429.668715" fill="#CE9D28"/>
    </g>
   </g>
  </g>
 </g>
</svg>