<?xml version="1.0" encoding="utf-8" ?>	<!-- Generator: Assembly 2.4 - http://assemblyapp.co -->	<svg version="1.1" xmlns="http://www.w3.org/2000/svg" xmlns:xlink="http://www.w3.org/1999/xlink" width="900.00" height="600.00" viewBox="0 0 900.0 600.0">		<rect x="0" y="0" width="900.00" height="600.00" fill="#ffffff" />		<g id="document" transform="scale(0.21994571693366874 0.21994571693366874) translate(2044.9183278852777 1365.3333333333333)">			<g>				<path d="M-157.013,-854.185 C-238.552,-823.496 -314.026,-779.604 -393.781,-740.886 C-415.207,-731.924 -434.306,-718.195 -449.628,-700.741 C-440.171,-695.031 -430.893,-689.322 -421.08,-684.326 C-326.337,-638.114 -232.308,-590.475 -137.743,-544.263 C-76.3653,-517.678 -19.6266,-483.421 40.6806,-456.3 C120.258,-418.296 198.942,-378.329 277.984,-339.076 C310.864,-325.395 341.344,-306.541 368.266,-283.229 C393.067,-253.254 379.686,-211.86 386.109,-176.175 C402.702,-166.362 418.582,-156.549 436.424,-148.52 C546.155,-94.9925 654.815,-41.4654 763.832,12.0617 C777.927,18.485 792.558,24.0161 807.01,29.9041 C815.034,8.317 818.261,-14.7584 816.467,-37.7185 C813.255,-144.773 830.741,-251.827 818.608,-358.881 C811.231,-413.754 788.115,-465.315 752.056,-507.329 C712.624,-554.79 658.919,-587.442 607.889,-621.164 C561.711,-651.164 513.272,-677.531 463.009,-700.027 C395.744,-731.073 333.474,-771.753 265.494,-801.193 C184.312,-838.484 103.843,-887.015 11.9544,-892.011 C-46.747,-895.401 -103.486,-876.31 -157.013,-854.185 L-157.013,-854.185 Z " fill="#f4be68" fill-opacity="1.00" />				<path d="M-661.06,-599.575 C-730.288,-558.002 -805.047,-501.263 -813.969,-414.549 C-817.716,-333.579 -817.359,-252.47 -812.898,-171.536 C-519.57,-25.7641 -226.955,117.689 65.3031,262.747 C133.996,300.037 206.615,328.764 272.631,369.801 C306.175,400.668 296.005,452.411 301.179,493.449 C393.424,539.304 485.491,585.515 578.271,630.478 C599.682,643.325 622.342,628.337 640.184,617.632 C697.993,583.374 758.479,543.586 790.952,483.992 C823.425,424.399 815.753,354.457 815.753,289.154 C813.612,256.681 817.18,224.207 813.612,191.913 C808.616,176.211 790.952,170.859 777.927,163.187 C442.134,-2.21216 107.233,-169.217 -228.561,-334.437 C-254.254,-348.176 -283.515,-362.628 -296.183,-390.64 C-297.759,-422.635 -301.214,-454.509 -306.532,-486.097 C-351.495,-512.325 -399.669,-533.915 -445.702,-555.861 C-491.736,-577.807 -535.985,-603.143 -582.553,-623.483 C-611.279,-637.579 -636.972,-611.886 -661.06,-599.575 L-661.06,-599.575 Z " fill="#e16b59" fill-opacity="1.00" />				<path d="M-814.504,-24.3367 C-819.683,7.92054 -821.477,40.6308 -819.857,73.261 C-820.213,168.361 -825.031,263.639 -821.819,358.739 C-818.706,413.246 -798.476,465.381 -764.01,507.723 C-721.581,554.821 -672.032,594.978 -617.167,626.731 C-558.526,662.178 -498.337,694.711 -436.603,724.329 C-361.843,762.69 -287.441,801.051 -211.075,836.736 C-144.88,866.889 -75.6517,894.902 -2.14112,892.226 C62.9835,893.296 124.718,869.744 184.133,846.192 C250.15,818.18 314.561,786.063 378.615,753.769 C403.341,742.193 427.194,728.835 449.984,713.802 C416.874,693.413 382.487,675.176 347.034,659.204 C152.017,561.963 -44.2491,465.615 -240.515,368.195 C-281.553,346.784 -326.158,330.548 -363.092,301.822 C-395.922,273.452 -384.681,225.813 -389.142,187.631 C-402.803,175.681 -418.44,166.202 -435.354,159.618 C-540.802,108.054 -645.894,55.2403 -751.52,3.31897 C-771.645,-7.76538 -792.724,-17.0211 -814.504,-24.3367 L-814.504,-24.3367 Z " fill="#b44457" fill-opacity="1.00" />			</g>		</g>	</svg>