<?xml version="1.0" encoding="utf-8"?>
<!-- Generator: Adobe Illustrator 14.0.0, SVG Export Plug-In . SVG Version: 6.00 Build 43363)  -->
<!DOCTYPE svg PUBLIC "-//W3C//DTD SVG 1.1//EN" "http://www.w3.org/Graphics/SVG/1.1/DTD/svg11.dtd">
<svg version="1.1" id="图层_1" xmlns="http://www.w3.org/2000/svg" xmlns:xlink="http://www.w3.org/1999/xlink" x="0px" y="0px"
	 width="900px" height="600px" viewBox="0 0 900 600" enable-background="new 0 0 900 600" xml:space="preserve">
<rect fill="#FFBD54" width="900" height="600"/>
<path fill="#0081FF" d="M551.223,280.935c-15.952,4.708-31.159,11.328-45.226,19.688c-22.344-13.33-41.414-30.789-55.997-51.264
	c-9.159-12.877-16.423-26.81-21.604-41.436c-6.173-17.5-9.31-35.782-9.296-54.177h40.451c-0.025,18.623,4.075,37.055,12.053,54.177
	C486.9,240.772,515.425,266.93,551.223,280.935L551.223,280.935z"/>
<path fill="#D6B3FF" d="M450,249.358c-14.583,20.475-33.653,37.934-55.996,51.264c-14.058,8.406-29.265,15.065-45.228,19.805
	c-18.988,5.699-38.838,8.609-58.816,8.622v-37.256c20.199,0.033,40.196-3.69,58.785-10.946
	c35.797-13.973,64.332-40.098,79.651-72.924C433.577,222.549,440.841,236.481,450,249.358z"/>
<path fill="#FFFFFF" d="M610.04,272.459v37.138c-60.331-0.051-114.851,33.018-138.469,83.988
	c-5.162-14.627-12.416-28.561-21.571-41.436C485.177,302.39,545.427,272.388,610.04,272.459L610.04,272.459z"/>
<path fill="#7C43FF" d="M480.899,447.762h-40.483c0.027-18.616-4.05-37.046-11.987-54.177
	c-15.309-32.859-43.843-59.025-79.652-73.041c15.969-4.775,31.178-11.475,45.228-19.922c22.37,13.408,41.442,30.959,55.996,51.527
	c9.155,12.875,16.409,26.809,21.571,41.436C477.774,411.079,480.923,429.364,480.899,447.762z"/>
<path fill="#0081FF" d="M491.7,153.746c0.018,14.638,3.289,29.118,9.616,42.553c10.546,22.702,29.153,41.455,52.791,53.206
	c18.266-4.355,37.061-6.561,55.933-6.563v-89.461H491.7V153.746z"/>
<path fill="#D6B3FF" d="M336.181,253.802c24.749-9.689,45.189-26.797,57.983-48.527c-4.772-16.826-7.186-34.142-7.181-51.529v-0.265
	H289.96v108.884C305.839,262.403,321.561,259.491,336.181,253.802z"/>
<path fill="#FFFFFF" d="M610.04,339.114c-15.881-0.03-31.604,2.893-46.221,8.592c-24.741,9.686-45.18,26.781-57.982,48.498
	c4.725,16.713,7.137,33.908,7.18,51.175h97.023V339.114z"/>
<path fill="#7C43FF" d="M398.94,405.179v-0.264c-10.609-22.615-29.221-41.279-52.824-52.971c-18.34,4.365-37.209,6.58-56.156,6.592
	v88.843h118.307C408.277,432.88,405.104,418.528,398.94,405.179z"/>
</svg>
