<svg width="600" height="400" xmlns="http://www.w3.org/2000/svg">
 <!-- Created with Method Draw - http://github.com/duopixel/Method-Draw/ -->

 <g>
  <title>background</title>
  <rect fill="#fff" id="canvas_background" height="402" width="602" y="-1" x="-1"/>
  <g display="none" overflow="visible" y="0" x="0" height="100%" width="100%" id="canvasGrid">
   <rect fill="url(#gridpattern)" stroke-width="0" y="0" x="0" height="100%" width="100%"/>
  </g>
 </g>
 <g>
  <title>Layer 1</title>
  <g stroke="null" id="svg_35">
   <g stroke="null" transform="matrix(3.41733 0 0 3.55684 -1141.8 -766.051)" id="svg_26">
    <linearGradient stroke="null" gradientTransform="translate(-28.0921 0) translate(0 -28.396) translate(398.895 0) translate(0 247.974)" y2="0.500011" x2="1.000033" y1="0.500011" x1="0.000049" id="svg_24">
     <stop stroke="null" stop-color="#B1D240" offset="0"/>
     <stop stroke="null" stop-color="#81BB41" offset="1"/>
    </linearGradient>
    <path stroke="null" id="svg_27" d="m444.167999,244.654846c7.160004,6.257996 11.620026,15.623016 11.404022,26.005005c-0.257019,12.481995 -7.207031,23.210999 -17.265015,28.707001c10.601013,-4.446991 18.225006,-15.403992 18.494019,-28.375c0.225983,-10.919006 -4.820007,-20.627014 -12.633026,-26.337006z" fill="url(#svg_24)"/>
    <path stroke="null" id="svg_28" d="m453.141022,267.891846c-18.997009,-0.92099 -39.035004,6.179993 -52.923004,21.233002c1.677979,1.768005 3.557007,3.347992 5.602997,4.704987c10.154999,-14.478973 28.36499,-24.589996 47.320007,-25.937988z" fill="#006838"/>
    <path stroke="null" id="svg_29" d="m436.393005,297.51886c2.916992,-1.025024 5.627014,-2.416016 8.087006,-4.106995c2.23999,-6.150024 4.929993,-12.160004 8.661011,-17.539032c-6.834015,6.133026 -11.950012,13.752014 -16.748016,21.646027z" fill="#D6DE23"/>
    <path stroke="null" id="svg_30" d="m423.121002,299.45285c1.891022,0.084015 3.819,0.027008 5.766998,-0.203003c0.940002,-0.110992 1.859009,-0.259979 2.77002,-0.438995c5.110992,-10.035004 11.929993,-19.747986 21.483002,-26.289001c-12.359009,5.492004 -21.994019,15.640015 -30.02002,26.931z" fill="#8BC53F"/>
    <path stroke="null" id="svg_31" d="m410.351013,296.356842c2.268982,1.045013 4.669983,1.848022 7.174988,2.378998c3.285004,-5.389008 7.982025,-10.43399 12.894012,-14.899994c6.658997,-5.768005 13.928986,-11.518005 22.721985,-13.833008c-9.138977,0.995026 -17.462006,5.710022 -25.199005,10.624023c-6.380981,4.348999 -12.607971,9.138977 -17.59198,15.72998z" fill="#37B34A"/>
    <linearGradient stroke="null" gradientTransform="translate(-28.0921 0) translate(0 -28.396) translate(398.895 0) translate(0 247.974)" y2="0.723556" x2="0.843986" y1="0.063381" x1="0.060237" id="svg_23">
     <stop stroke="null" stop-color="#B1D240" offset="0"/>
     <stop stroke="null" stop-color="#81BB41" offset="1"/>
    </linearGradient>
    <path stroke="null" id="svg_32" d="m425.821014,303.091858c-18.477997,0 -33.458008,-14.252014 -33.458008,-31.832001c0,-17.582001 14.980011,-31.832001 33.458008,-31.832001c6.815002,0 13.152985,1.942993 18.441986,5.272003c-6.054993,-5.022003 -13.824982,-8.042023 -22.306976,-8.042023c-19.300018,0 -34.949005,15.64502 -34.949005,34.947021s15.648987,34.945007 34.949005,34.945007c9.965973,0 18.945984,-4.176025 25.312988,-10.865021c-5.807007,4.623016 -13.28299,7.407013 -21.447998,7.407013z" fill="url(#svg_23)"/>
    <path stroke="null" id="svg_33" d="m395.614014,271.013855c1.531982,-14.296997 12.109009,-25.304993 24.005005,-28.615997c-10.90802,5.753998 -17.397003,14.30899 -17.213013,24.975983l-6.791992,3.640015z" fill="#006838"/>
    <linearGradient stroke="null" gradientTransform="translate(-28.0921 0) translate(0 -28.396) translate(398.895 0) translate(0 247.974)" y2="1.05213" x2="0.941199" y1="-0.129687" x1="-0.052251" id="svg_22">
     <stop stroke="null" stop-color="#B1D240" offset="0"/>
     <stop stroke="null" stop-color="#81BB41" offset="1"/>
    </linearGradient>
    <path stroke="null" id="svg_34" d="m396.658997,281.571838c2.223999,-2.825989 3.434021,-4.919983 6.262024,-6.800995c3.378998,-2.25 7.953979,-0.954987 12.320984,-6.809998c6.196014,-8.319 1.312012,-14.194 7.747009,-19.246002c4.069,-3.199982 9.169006,-6.316986 21.21698,-4.059998c-5.779968,-2.882996 -18.267975,-3.082001 -23.645996,0.912018c-8.270996,6.139984 -5.817993,16.628998 -8.454987,19.952972c-2.710999,3.415009 -5.937012,5.130005 -9.401001,7.011017c-3.82901,2.079987 -5.317993,5.303009 -6.045013,9.040985z" fill="url(#svg_22)"/>
   </g>
  </g>
 </g>
</svg>