<?xml version="1.0" encoding="utf-8" ?>	<!-- Generator: Assembly 2.4 - http://assemblyapp.co -->	<svg version="1.1" xmlns="http://www.w3.org/2000/svg" xmlns:xlink="http://www.w3.org/1999/xlink" width="900.00" height="600.00" viewBox="0 0 900.0 600.0">		<rect x="0" y="0" width="900.00" height="600.00" fill="#f9b194" />		<g id="document" transform="scale(0.21994571693366874 0.21994571693366874) translate(2044.9183278852777 1365.3333333333333)">			<g>				<path d="M-22.7302,-881.88 C-73.8733,-849.137 -124.205,-810.171 -157.759,-777.699 C-215.396,-721.144 -255.986,-663.777 -275.198,-612.093 C-281.693,-593.963 -289.54,-559.868 -290.893,-542.549 C-293.058,-516.031 -293.058,-510.889 -291.705,-494.924 C-286.293,-441.346 -258.962,-380.461 -213.773,-321.471 C-190.231,-290.622 -131.511,-236.773 -77.1205,-196.454 C-46.2723,-173.453 -1.62358,-141.523 5.64512e-06,-141.523 C1.6236,-141.523 46.2723,-173.183 77.1205,-196.454 C113.922,-223.785 161.818,-265.186 184.277,-288.458 C245.703,-352.86 284.669,-427.816 291.434,-494.653 C293.058,-510.889 293.058,-515.49 290.893,-542.279 C289.54,-560.95 281.422,-594.775 274.116,-613.717 C243.538,-693.273 170.477,-777.699 71.1673,-849.137 C43.5663,-868.62 2.43537,-895.68 -4.97206e-14,-895.68 C-0.811762,-895.68 -11.0945,-889.456 -22.7302,-881.88 Z " fill="#c06c84" fill-opacity="1.00" />				<path d="M-537.137,-291.434 C-557.703,-289.811 -592.069,-282.234 -611.281,-275.198 C-690.567,-245.703 -776.887,-171.559 -848.867,-71.1673 C-868.62,-43.5663 -895.68,-2.43537 -895.68,1.42802e-14 C-895.68,2.43537 -868.62,43.5663 -849.137,71.1673 C-815.042,118.793 -787.17,150.453 -746.039,187.795 C-686.778,242.185 -634.012,272.492 -576.374,285.21 C-557.162,289.54 -547.42,290.622 -520.36,292.517 C-477.876,295.493 -414.556,275.198 -362.06,241.915 C-294.952,199.431 -245.433,146.394 -161.006,28.6834 C-150.182,13.5299 -141.252,0.811778 -141.252,-1.74192e-05 C-141.252,-0.811813 -150.182,-13.5299 -161.006,-28.6834 C-237.315,-135.57 -288.728,-192.395 -343.389,-229.738 C-373.426,-250.303 -390.203,-259.504 -421.863,-272.492 C-463.535,-289.54 -495.195,-294.952 -537.137,-291.434 Z " fill="#c06c84" fill-opacity="1.00" />				<path d="M493.3,-291.705 C472.194,-289.54 449.464,-283.587 425.651,-274.116 C393.45,-261.127 382.626,-255.445 348.53,-233.526 C294.14,-198.348 238.938,-138.005 160.735,-28.6834 C149.911,-13.5299 140.982,-0.811811 140.982,-1.54838e-05 C140.982,1.35298 172.642,46.2723 195.913,77.1205 C236.232,131.511 290.081,190.231 320.929,213.773 C380.19,259.233 439.993,286.022 494.383,291.705 C510.619,293.328 515.219,293.328 542.008,291.164 C573.127,288.728 611.281,277.093 645.647,260.045 C712.756,226.491 787.441,157.218 848.596,71.4379 C868.62,43.5663 895.68,2.43537 895.68,1.62981e-13 C895.68,-5.95316 837.772,-88.4856 812.336,-119.063 C771.475,-168.041 720.874,-214.043 675.954,-242.997 C620.752,-278.716 549.856,-297.387 493.3,-291.705 Z " fill="#c06c84" fill-opacity="1.00" />				<path d="M-28.6834,161.006 C-138.005,239.209 -198.348,294.411 -233.526,348.801 C-255.445,382.626 -261.127,393.45 -274.116,425.922 C-287.105,458.393 -294.411,495.195 -292.787,520.36 C-290.893,547.15 -289.54,557.162 -285.481,576.374 C-265.186,667.566 -188.336,765.522 -71.4379,849.137 C-43.5663,868.62 -2.43537,895.68 -4.9738e-14,895.68 C2.43537,895.68 43.5663,868.62 71.1673,849.137 C156.947,787.711 225.679,713.567 259.774,645.647 C276.822,611.823 288.187,573.398 290.893,542.279 C293.058,515.219 293.058,510.619 291.434,494.654 C286.022,440.263 259.233,380.461 213.502,321.2 C189.96,290.352 131.24,236.503 76.8499,196.184 C46.0017,173.183 1.35298,141.252 -0.270606,141.252 C-0.811762,141.252 -13.5299,150.182 -28.6834,161.006 Z " fill="#c06c84" fill-opacity="1.00" />			</g>		</g>	</svg>