<?xml version="1.0" encoding="utf-8"?>
<!-- Generator: Adobe Illustrator 14.0.0, SVG Export Plug-In . SVG Version: 6.00 Build 43363)  -->
<!DOCTYPE svg PUBLIC "-//W3C//DTD SVG 1.1//EN" "http://www.w3.org/Graphics/SVG/1.1/DTD/svg11.dtd">
<svg version="1.1" id="图层_1" xmlns="http://www.w3.org/2000/svg" xmlns:xlink="http://www.w3.org/1999/xlink" x="0px" y="0px"
	 width="900px" height="600px" viewBox="0 0 900 600" enable-background="new 0 0 900 600" xml:space="preserve">
<rect fill="#47B3E3" width="900" height="600"/>
<path fill="#8EC640" d="M303.657,258.563c0-2.845,0.183-5.69,0-8.516c-0.629-8.129,3.369-10.873,11.02-11.503
	c36.527-2.906,67.697-31.969,73.684-68.165c2.78-16.828,2.78-16.828,20.598-16.828c20.414,0,21.227,0.955,18.264,21.278
	c-7.895,53.369-54.893,97.898-108.649,102.918C304.124,279.091,303.657,278.542,303.657,258.563z"/>
<path fill="#FDDE19" d="M491.348,446.311c-22.708,0.163-20.598,0.956-17.938-20.201c6.838-54.548,58.85-102.125,112.119-103.142
	c8.117-0.142,11.485,2.277,10.775,10.528c-0.467,5.646-0.467,11.323,0,16.97c0.589,7.174-2.374,10.039-9.416,10.853
	c-33.585,3.882-56.82,21.827-70.072,52.841c-3.166,6.989-4.957,14.524-5.275,22.193c-0.163,8.657-4.222,10.751-11.689,10.02
	C497.019,446.209,494.181,446.188,491.348,446.311L491.348,446.311z"/>
<path fill="#F34242" d="M408.856,446.229c-17.716,0-17.716,0-20.699-17.479c-5.783-34.163-36.812-63.145-72.121-67.393
	c-12.176-1.463-12.176-1.463-12.318-14.063c0-5.102,0.203-10.162,0-15.324c-0.284-6.545,2.517-9.125,9.111-8.902
	c26.598,0.811,52.084,10.871,72.082,28.453c25.184,21.523,40.119,48.776,42.757,82.269c0.954,12.012,0.224,12.337-11.973,12.397
	L408.856,446.229z"/>
<path fill="#FFFFFF" d="M491.673,154.935c17.229,0,17.229,0,20.293,16.421c6.939,34.932,34.807,61.877,69.909,67.596
	c14.043,2.296,14.043,2.296,14.043,16.807v11.889c-0.121,9.431-1.44,10.589-11.08,10.162
	c-56.131-3.19-105.849-51.093-111.612-106.86C471.399,153.004,471.319,154.996,491.673,154.935L491.673,154.935z"/>
<path fill="#8EC640" d="M317.74,192.736c-13.538-0.151-24.39-11.265-24.239-24.823c0.002-0.153,0.005-0.307,0.01-0.46
	c0.443-13.346,11.282-23.987,24.615-24.164c13.637-0.27,24.91,10.582,25.18,24.24c0.27,13.657-10.566,24.947-24.203,25.217
	C318.648,192.756,318.194,192.752,317.74,192.736z"/>
<path fill="#F34242" d="M318.369,456.635c-13.446,0.281-24.573-10.408-24.854-23.874c-0.004-0.225-0.006-0.451-0.004-0.677
	c0.354-13.374,11.137-24.11,24.493-24.388c13.423,0.028,24.386,10.747,24.737,24.185
	C342.843,446.453,332.96,456.533,318.369,456.635z"/>
<path fill="#FDDE19" d="M606.491,432.328c0,14.43-10.025,24.388-24.575,24.388c-13.656,0.068-24.798-10.935-24.92-24.611
	c0.559-13.664,11.874-24.402,25.528-24.226c13.101-0.14,23.835,10.383,23.975,23.503C606.503,431.697,606.5,432.013,606.491,432.328
	z"/>
<path fill="#FFFFFF" d="M606.247,168.226c-0.157,13.469-11.187,24.261-24.635,24.104c-13.449-0.157-24.226-11.204-24.068-24.672l0,0
	c0.764-13.286,11.555-23.776,24.838-24.145C595.769,143.78,606.429,154.819,606.247,168.226z"/>
</svg>
