<?xml version="1.0" encoding="utf-8"?>
<!-- Generator: Adobe Illustrator 14.0.0, SVG Export Plug-In . SVG Version: 6.00 Build 43363)  -->
<!DOCTYPE svg PUBLIC "-//W3C//DTD SVG 1.1//EN" "http://www.w3.org/Graphics/SVG/1.1/DTD/svg11.dtd">
<svg version="1.1" id="图层_1" xmlns="http://www.w3.org/2000/svg" xmlns:xlink="http://www.w3.org/1999/xlink" x="0px" y="0px"
	 width="900px" height="600px" viewBox="0 0 900 600" enable-background="new 0 0 900 600" xml:space="preserve">
<rect fill="#FFFFFF" width="900" height="600"/>
<g>
	<g>
		<path fill="#00AEEF" d="M586.683,341.204c-3.364,5.683-7.046,11.169-11.028,16.432c-27.544,36.506-68.366,60.476-113.467,66.627
			c-9.542,11.382-20.652,21.328-32.992,29.537l1.272,0.19c58.545,7.649,116.279-19.099,148.626-68.858
			c3.01-9.732,5.171-19.712,6.457-29.823c0.597-4.749,1.005-9.411,1.226-13.985L586.683,341.204z M523.457,224.547
			c-18.162-0.033-36.188,3.183-53.233,9.498c22.441,31.814,32.13,70.995,27.123,109.7c-0.283,2.216-0.612,4.408-0.989,6.577
			c33.162-3.07,64.441-16.892,89.146-39.393c-3.931-30.576-15.898-59.538-34.664-83.89c-9.039-1.612-18.203-2.407-27.383-2.375
			V224.547z M414.774,159.914c-13.933-0.001-27.813,1.713-41.333,5.105c-2.757,1.591-5.467,3.277-8.13,5.034
			c8.98,1.233,17.835,3.26,26.463,6.055c7.989-6.138,16.498-11.556,25.427-16.194H414.774z"/>
		<path fill="#EC008C" d="M346.128,398.476c7.193,12.962,16.017,24.933,26.251,35.617c2.757,1.614,5.562,3.134,8.413,4.582
			c-3.43-8.453-6.118-17.192-8.036-26.118c-9.258-3.904-18.16-8.616-26.605-14.081H346.128z M391.774,176.108
			c-24.307,18.72-43.213,43.639-54.765,72.184c9.259,26.051,25.292,49.12,46.423,66.793c16.129-35.41,44.917-63.39,80.617-78.357
			c2.042-0.854,4.093-1.646,6.151-2.374C451,206.9,423.481,186.463,391.774,176.108z M458.677,144.718
			c-9.865,2.232-19.517,5.331-28.845,9.26c-4.32,1.836-8.539,3.815-12.654,5.936c52.357,0.741,101.537,25.443,133.639,67.126
			c14.57,2.661,28.688,7.411,41.923,14.104l-0.472-1.211C569.499,185.043,517.625,148.071,458.677,144.718z"/>
		<path fill="#2E3192" d="M417.178,159.914c-8.921,4.632-17.421,10.042-25.404,16.17c31.684,10.313,59.199,30.689,78.426,58.08
			c25.754-9.605,53.596-12.066,80.616-7.124c-27.832-36.28-68.841-59.917-113.985-65.701
			C430.312,160.489,423.75,160.013,417.178,159.914z"/>
		<path fill="#FFF200" d="M383.432,315.085c-13.926,30.472-17.68,64.67-10.699,97.472c20.906,8.782,43.333,13.302,65.983,13.297
			c7.827-0.003,15.646-0.543,23.401-1.614c17.774-21.097,29.6-46.617,34.24-73.894c-4.714,0.443-9.521,0.665-14.423,0.665
			c-33.725,0.024-66.52-11.141-93.318-31.771C386.857,317.879,385.129,316.494,383.432,315.085z M603.932,290.866
			c-5.556,7.219-11.729,13.933-18.451,20.064c1.278,10.037,1.681,20.167,1.202,30.274c7.555-12.756,13.439-26.444,17.509-40.722
			c0-3.206,0-6.411-0.283-9.498L603.932,290.866z M328.171,204.673l-0.777,1.021c-35.796,47.305-41.652,111.048-15.082,164.169
			c6.856,7.488,14.347,14.361,22.387,20.54c3.724,2.864,7.533,5.548,11.429,8.049c-3.198-5.776-6.069-11.729-8.602-17.832
			c-17.605-42.29-17.792-89.9-0.518-132.329C332.016,234.25,329.04,219.562,328.171,204.673L328.171,204.673z"/>
		<path fill="#00A651" d="M585.48,310.93c-24.697,22.502-55.968,36.331-89.123,39.416c-4.614,27.277-16.415,52.806-34.17,73.917
			c45.111-6.14,85.943-30.112,113.49-66.627c3.982-5.263,7.664-10.749,11.028-16.432C587.177,331.096,586.767,320.966,585.48,310.93
			z"/>
		<path fill="#ED1C24" d="M337.009,248.292c-17.274,42.428-17.087,90.039,0.518,132.329c2.532,6.103,5.404,12.056,8.602,17.832
			c8.452,5.467,17.362,10.179,26.628,14.081c-6.983-32.802-3.229-67.001,10.699-97.472
			C362.318,297.397,346.277,274.338,337.009,248.292L337.009,248.292z"/>
	</g>
</g>
</svg>
