<?xml version="1.0" encoding="utf-8"?>
<!-- Generator: Adobe Illustrator 14.0.0, SVG Export Plug-In . SVG Version: 6.00 Build 43363)  -->
<!DOCTYPE svg PUBLIC "-//W3C//DTD SVG 1.1//EN" "http://www.w3.org/Graphics/SVG/1.1/DTD/svg11.dtd">
<svg version="1.1" id="图层_1" xmlns="http://www.w3.org/2000/svg" xmlns:xlink="http://www.w3.org/1999/xlink" x="0px" y="0px"
	 width="900px" height="600px" viewBox="0 0 900 600" enable-background="new 0 0 900 600" xml:space="preserve">
<title>资源 132</title>
<rect fill="#EF5B24" width="900" height="600"/>
<path fill="#1686CB" d="M488.85,139.479c-57.467,16.823-78.552,60.027-90.045,111.006c-2.896,14.334-8.711,27.977-17.107,40.146
	c-16.621,23.067-51.586,30.119-79.215,16.016c-24.047-12.277-31.65-34.92-21.395-63.426c28.468-78.337,115.771-129.019,194.5-112.96
	C480.009,131.11,485.092,130.472,488.85,139.479z M403.977,464.894c26.523-14.869,50.261-21.922,64.849-42.228
	c13.703-19.032,20.378-40.486,27.274-61.727c3.984-14.768,9.279-29.18,15.824-43.078c15.502-28.959,52.494-40.357,82.627-25.461
	c0.457,0.227,0.911,0.457,1.362,0.694c18.522,9.261,30.457,30.97,26.788,48.813c-15.958,76.851-109.893,140.871-190.832,129.485
	C424.664,470.416,417.636,468.122,403.977,464.894L403.977,464.894z"/>
<path fill="#FFFFFF" d="M602.146,202.904c0,27.273-23.562,50.555-51.145,50.512c-27.584-0.043-53.665-25.701-53.046-52.253
	c0.618-26.552,24.577-48.685,53.354-48.388c28.149,0.063,50.915,22.044,50.849,49.096
	C602.159,202.216,602.154,202.561,602.146,202.904L602.146,202.904z M347.395,446.923c-28.1,0.193-51.041-21.542-51.242-48.546
	c-0.003-0.443,0-0.886,0.01-1.328c0.309-26.169,25.683-50.979,51.719-50.512c27.672,0.425,53.797,26.17,53.046,52.296
	C400.176,424.96,375.598,447.306,347.395,446.923z"/>
</svg>
