<svg width="600" height="400" xmlns="http://www.w3.org/2000/svg">
 <!-- Created with Method Draw - http://github.com/duopixel/Method-Draw/ -->

 <g>
  <title>background</title>
  <rect fill="#fff" id="canvas_background" height="402" width="602" y="-1" x="-1"/>
  <g display="none" overflow="visible" y="0" x="0" height="100%" width="100%" id="canvasGrid">
   <rect fill="url(#gridpattern)" stroke-width="0" y="0" x="0" height="100%" width="100%"/>
  </g>
 </g>
 <g>
  <title>Layer 1</title>
  <g stroke="null" id="svg_17">
   <g stroke="null" transform="matrix(2.56241 0 0 2.67986 -802.429 -547.863)" id="svg_10">
    <polygon stroke="null" id="svg_11" points="399.8959732055664,241.40249633789062 393.45597076416016,252.54248046875 406.45597076416016,275.0625 380.45597076416016,275.0625 378.19596099853516,278.9725036621094 421.58597564697266,278.9725036621094 " fill="#0067B5"/>
    <polygon stroke="null" id="svg_12" points="447.44596099853516,233.95249938964844 434.57596588134766,233.95249938964844 421.57596588134766,256.4624938964844 408.57596588134766,233.95249938964844 404.06595611572266,233.95249938964844 425.7559585571289,271.5224914550781 " fill="#009FE8"/>
    <polygon stroke="null" id="svg_13" points="478.13599395751953,271.5824890136719 471.70597076416016,260.4324951171875 445.69596099853516,260.4324951171875 458.70597076416016,237.9224853515625 456.44596099853516,234.0124969482422 434.7559585571289,271.5824890136719 " fill="#009FE8"/>
    <polygon stroke="null" id="svg_14" points="460.57596588134766,316.73248291015625 467.0059585571289,305.5824890136719 454.0059585571289,283.0724792480469 480.00598907470703,283.0724792480469 482.26599884033203,279.1625061035156 438.8859634399414,279.1625061035156 " fill="#009FE8"/>
    <polygon stroke="null" id="svg_15" points="413.0159683227539,324.1824951171875 425.8859634399414,324.1824951171875 438.8859634399414,301.6625061035156 451.8859634399414,324.1824951171875 456.3959732055664,324.1824951171875 434.71598052978516,286.6025085449219 " fill="#0067B5"/>
    <polygon stroke="null" id="svg_16" points="382.31595611572266,286.552490234375 388.7559585571289,297.6925048828125 414.7559585571289,297.6925048828125 401.7659683227539,320.2024841308594 404.0159683227539,324.11248779296875 425.70597076416016,286.552490234375 " fill="#0067B5"/>
   </g>
  </g>
 </g>
</svg>