<svg width="600" height="400" xmlns="http://www.w3.org/2000/svg">
 <!-- Created with Method Draw - http://github.com/duopixel/Method-Draw/ -->

 <g>
  <title>background</title>
  <rect fill="#fff" id="canvas_background" height="402" width="602" y="-1" x="-1"/>
  <g display="none" overflow="visible" y="0" x="0" height="100%" width="100%" id="canvasGrid">
   <rect fill="url(#gridpattern)" stroke-width="0" y="0" x="0" height="100%" width="100%"/>
  </g>
 </g>
 <g>
  <title>Layer 1</title>
  <g stroke="null" id="svg_372">
   <g stroke="null" transform="matrix(2.15534 0 0 2.19753 -350.426 -214.944)" id="svg_355">
    <path stroke="null" id="svg_356" d="m248.87468,218.973007c0,0 0,0 0,0c18.999985,-11.600006 53.399979,-29.399994 101.399979,-40c-48,10.600006 -82.399994,28.399994 -101.399979,40z" fill="none"/>
    <path stroke="null" id="svg_357" d="m264.274658,192.772995c-6.199982,2 -11.599991,3.900009 -16.099991,5.600006c4.5,-1.5 9.900009,-3.5 16.099991,-5.600006z" fill="none"/>
    <path stroke="null" id="svg_358" d="m355.874664,176.973007c0.299988,0 0.600006,-0.099991 0.899994,-0.099991c-0.600006,0.099991 -1.299988,0.099991 -1.899994,0.199997c0.399994,-0.100006 0.699982,-0.100006 1,-0.100006z" fill="none"/>
    <path stroke="null" id="svg_359" d="m312.47467,239.373001c16.899994,-20.600006 35.5,-38 50,-50.200012c0,0 0,0 0,-0.099991c-14.400024,12.199997 -33.200012,29.699997 -50,50.300003z" fill="none"/>
    <path stroke="null" id="svg_360" d="m244.574692,181.473007c1.299988,-11.5 11.099976,-20.300003 22.999985,-20.300003c0,0 0,0 0,0c2.899994,-11 11.799988,-16.800003 22.299988,-16.800003c10.100006,0 18.700012,6.400009 21.899994,15.399994c6.799988,0.300018 12.799988,3.5 16.899994,8.400009c3.200012,-2.5 7.300018,-4 11.700012,-4c8.299988,0 15.399994,5.300003 18.100006,12.699997c0.599976,0 1.299988,0 1.899994,0c0,0 0,0 0,0c0.300018,0 0.699982,0 1,0c-5.600006,-27.799988 -30.200012,-48.799988 -59.600006,-48.799988c-31,0 -56.599991,23.299988 -60.299973,53.299988c1,0 2,0.100006 3.100006,0.100006c0,0 0,0 0,0z" fill="#005EA3"/>
    <path stroke="null" id="svg_361" d="m340.374664,164.173004c-4.399994,0 -8.399994,1.5 -11.699982,4c-4.100037,-4.900009 -10.100037,-8.099991 -16.900024,-8.400009c-3.199982,-9 -11.799988,-15.399994 -21.899994,-15.399994c-10.5,0 -19.399994,5.800003 -22.299988,16.800003c0,0 0,0 0,0c-11.900009,0 -21.699997,8.800003 -22.999985,20.300003c9.599976,0.600006 23.499985,2 38.499985,5.699997c0.199982,0 0.399994,-0.099991 0.599976,-0.099991c19.600006,-5 43.900024,-8.800018 71.300018,-9.800018c0.600006,-0.099991 1.299988,0 1.899994,0c0,0 0,0 0,0c0.5,0 1.100006,-0.099991 1.600006,-0.099991c-2.700012,-7.599991 -9.799988,-13 -18.100006,-13z" fill="#D5DAE1"/>
    <path stroke="null" id="svg_362" d="m264.274658,192.772995c5.700012,-1.899994 11.899994,-3.899994 18.800018,-5.599991c-15,-3.599991 -28.900009,-5.099991 -38.499985,-5.699997c0,0 0,0 0,0c-1.100006,-0.100006 -2.100006,-0.100006 -3.100006,-0.200012c-0.300018,2.5 -0.5,5 -0.5,7.5c0,3.900009 0.399994,7.700012 1.100006,11.400009c1.799988,-0.5 3.799988,-1.099991 6,-1.800003c4.599976,-1.699997 9.999985,-3.600006 16.199966,-5.600006z" fill="#2E8B42"/>
    <path stroke="null" id="svg_363" d="m315.47467,248.072983c26,-6 45.699982,-28.799988 47,-56.199982c-21.300018,20.600006 -36.600006,40.399994 -47,56.199982z" fill="#28813D"/>
    <path stroke="null" id="svg_364" d="m354.874664,177.073013c-27.399994,1 -51.700012,5 -71.300018,10c-0.199982,0 -0.399994,0.099991 -0.599976,0.099991c-6.800018,1.800003 -13.100006,3.700012 -18.800018,5.599991c-6.199982,2.100021 -11.599991,4.100021 -16.099991,5.600006c-2.199982,0.700012 -4.199982,1.399994 -6,1.800003c0.600006,3.400009 1.600006,6.700012 2.800018,9.900009c42.699997,-21.5 92.299973,-30.700012 110.999985,-33.100006c-0.300018,0 -0.600006,0 -1,0.100006z" fill="#28813D"/>
    <path stroke="null" id="svg_365" d="m361.374664,176.873001c-0.300018,0 -0.699982,0 -1,0c-3.399994,0.600006 -6.600006,1.300003 -9.899994,2.100006c-48,10.699997 -82.5,28.399994 -101.399979,40c2.299988,4.099976 5.099976,7.799988 8.299973,11.200012c40.299988,-29.800018 90.300018,-47.100006 104.399994,-51.600006c-0.200012,-0.600006 -0.299988,-1.200012 -0.399994,-1.700012z" fill="#28813D"/>
    <path stroke="null" id="svg_366" d="m361.774658,179.073013c-46.899994,18 -79.5,41.5 -98,57.199982c4.200012,3.300018 8.799988,6.100006 13.700012,8.300018c30.599976,-30.300003 68.299988,-52.5 84.799988,-61.5c-0.100006,-1.400009 -0.299988,-2.700012 -0.5,-4z" fill="#28813D"/>
    <path stroke="null" id="svg_367" d="m362.574646,189.073013c0,-0.100006 0,-0.199997 0,-0.199997c0,-1.600021 -0.099976,-3.100021 -0.199982,-4.700012c-33.700012,22.099991 -71.100006,58.400009 -76.200012,63.400009c5,1.299988 10.200012,2 15.600006,2c0.900024,0 1.799988,0 2.700012,-0.100006c2.599976,-3.5 5.299988,-6.899994 8,-10.200012c16.799988,-20.5 35.599976,-38 50.099976,-50.199982z" fill="#28813D"/>
    <path stroke="null" id="svg_368" d="m361.674683,178.573013c-14.100037,4.5 -64.100037,21.799988 -104.400024,51.600006c2,2.199982 4.200012,4.199982 6.5,6.099976c18.5,-15.699982 51.100006,-39.199982 98,-57.199982c-0.099976,-0.200012 -0.099976,-0.300018 -0.099976,-0.5z" fill="#2E8B42"/>
    <path stroke="null" id="svg_369" d="m312.47467,239.373001c-2.700012,3.300018 -5.400024,6.699982 -8,10.199982c3.699982,-0.199982 7.399994,-0.699982 10.899994,-1.5c10.399994,-15.699982 25.699982,-35.599976 47,-56.199982c0,-0.899994 0.100006,-1.800003 0.100006,-2.700012c-14.400024,12.200012 -33.100006,29.600006 -50,50.200012z" fill="#2E8B42"/>
    <path stroke="null" id="svg_370" d="m362.274658,183.073013c-16.5,9 -54.200012,31.199982 -84.799988,61.5c2.799988,1.200012 5.699982,2.200012 8.599976,3c5.100006,-5 42.5,-41.300018 76.200012,-63.400009c0,-0.400009 0,-0.699997 0,-1.099991z" fill="#2E8B42"/>
    <path stroke="null" id="svg_371" d="m360.274658,176.873001c0,0 0,0 0,0c-0.600006,0 -1.299988,0.100006 -1.899994,0.199997c-0.5,0 -1.100006,0.100006 -1.600006,0.100006c0,0 0,0 0,0c-0.299988,0 -0.600006,-0.100006 -0.899994,0c-18.700012,2.400009 -68.299988,11.5 -110.999985,33c1.200012,3.099991 2.600006,6 4.200012,8.800003c18.799973,-11.600006 53.399979,-29.399994 101.399979,-40c3.200012,-0.700012 6.5,-1.5 9.799988,-2.100006z" fill="#2E8B42"/>
   </g>
  </g>
 </g>
</svg>