<?xml version="1.0" encoding="utf-8"?>
<!-- Generator: Adobe Illustrator 14.0.0, SVG Export Plug-In . SVG Version: 6.00 Build 43363)  -->
<!DOCTYPE svg PUBLIC "-//W3C//DTD SVG 1.1//EN" "http://www.w3.org/Graphics/SVG/1.1/DTD/svg11.dtd">
<svg version="1.1" id="图层_1" xmlns="http://www.w3.org/2000/svg" xmlns:xlink="http://www.w3.org/1999/xlink" x="0px" y="0px"
	 width="900px" height="600px" viewBox="0 0 900 600" enable-background="new 0 0 900 600" xml:space="preserve">
<rect fill="#FFFFFF" width="900" height="600"/>
<g>
	
		<linearGradient id="SVGID_1_" gradientUnits="userSpaceOnUse" x1="40.3491" y1="542.1602" x2="63.1768" y2="542.1602" gradientTransform="matrix(6 0 0 -6 219.2422 3602.3398)">
		<stop  offset="0" style="stop-color:#0EB8F9"/>
		<stop  offset="1" style="stop-color:#42E0C9"/>
	</linearGradient>
	<path fill="url(#SVGID_1_)" d="M461.336,405.131L598.3,330.863v-37.229L461.336,367.9V405.131L461.336,405.131z"/>
	<path fill="none" d="M541.344,238.24l-136.999-74.234l-34.352,18.615l136.998,74.233L541.344,238.24z"/>
	<path fill="none" d="M347.355,256.629v148.501l34.352,18.614V275.244L347.355,256.629z"/>
	<path fill="#333333" d="M438.287,454.32L450,460.75l148.3-80.375v-12.86L438.287,454.32z M313.414,213.195l-11.714,6.43v160.75
		l11.714,6.43V213.195z M598.3,232.485v-12.86L450,139.25l-11.714,6.43L598.3,232.485z M496.066,300l-69.082-37.455v74.909
		L496.066,300z M598.3,256.854v-12.699l-91.309,49.415l-171.042-92.56l-11.713,6.43l91.309,49.511v185.184l11.714,6.431v-99.087
		L598.3,256.854z"/>
</g>
</svg>
