<?xml version="1.0" encoding="utf-8"?>
<!-- Generator: Adobe Illustrator 14.0.0, SVG Export Plug-In . SVG Version: 6.00 Build 43363)  -->
<!DOCTYPE svg PUBLIC "-//W3C//DTD SVG 1.1//EN" "http://www.w3.org/Graphics/SVG/1.1/DTD/svg11.dtd">
<svg version="1.1" id="图层_1" xmlns="http://www.w3.org/2000/svg" xmlns:xlink="http://www.w3.org/1999/xlink" x="0px" y="0px"
	 width="900px" height="600px" viewBox="0 0 900 600" enable-background="new 0 0 900 600" xml:space="preserve">
<rect fill="#0095D6" width="900" height="600"/>
<path fill="#FFFFFF" d="M455.278,129.988c-83.904-0.434-152.269,68.043-152.698,152.947
	c-0.428,84.904,67.242,154.085,151.146,154.519c4.877,0,9.681-0.192,14.44-0.607c-17.311-3.513-33.582-12.493-42.019-28.233
	c-38.211-71.302,0.806-140.246,0.806-140.246c-27.974,98.408,34.783,159.794,44.055,168.183
	c83.411-9.185,143.672-85.055,134.596-169.461c-8.358-77.719-73.025-136.715-150.281-137.101H455.278z M423.467,423.863
	c-191.392-78.948-63.636-230.487,57.017-250.717C402.831,220.409,357.795,347.449,423.467,423.863z M470.715,198.814
	c9.022-12.938,28.164-25.194,28.164-25.194c27.168,1.912,39.295,24.632,39.295,24.632
	C507.285,168.877,470.715,198.814,470.715,198.814z"/>
<path fill="#FFFFFF" d="M560.362,467.851c-33.217-21.89-97.308-20.2-131.315-25.58c-52.153-8.226-96.662-24.587-125.676-86.655
	c0,0-41.271,88.537,44.904,109.523C423.248,483.398,501.734,442.611,560.362,467.851L560.362,467.851z"/>
</svg>
