<svg id="svg" version="1.1" xmlns="http://www.w3.org/2000/svg" xmlns:xlink="http://www.w3.org/1999/xlink" width="400" height="266.8" viewBox="0, 0, 400,266.8"><g id="svgg"><path id="path0" d="M0.000 133.422 L 0.000 266.845 200.000 266.845 L 400.000 266.845 400.000 133.422 L 400.000 0.000 200.000 0.000 L 0.000 0.000 0.000 133.422 M201.814 64.243 C 205.096 69.941,208.345 75.576,215.548 88.059 C 217.538 91.508,219.350 94.544,219.573 94.806 C 219.960 95.259,221.020 95.275,240.677 95.119 C 253.268 95.020,261.512 95.053,261.727 95.204 C 262.091 95.460,261.830 95.930,247.082 121.548 C 243.956 126.978,241.354 131.661,241.300 131.955 C 241.239 132.285,242.745 135.134,245.249 139.426 C 247.475 143.242,251.368 149.967,253.900 154.370 C 256.431 158.773,259.303 163.749,260.281 165.427 C 261.259 167.106,261.999 168.637,261.926 168.830 C 261.816 169.114,257.863 169.179,240.766 169.179 C 221.030 169.179,219.724 169.208,219.453 169.646 C 219.295 169.903,217.060 173.776,214.487 178.252 C 211.914 182.728,208.700 188.312,207.345 190.660 C 205.991 193.009,203.491 197.362,201.792 200.334 C 200.092 203.306,198.573 205.735,198.417 205.732 C 198.260 205.730,196.702 203.238,194.954 200.195 C 193.206 197.153,191.145 193.582,190.375 192.262 C 187.785 187.823,183.251 179.998,182.550 178.756 C 182.167 178.079,180.774 175.648,179.454 173.352 L 177.053 169.179 155.905 169.179 C 140.206 169.179,134.757 169.101,134.757 168.874 C 134.757 168.595,137.838 163.121,143.824 152.769 C 148.445 144.777,153.403 136.165,153.973 135.139 C 154.294 134.562,154.795 133.660,155.087 133.134 L 155.617 132.179 152.031 125.930 C 150.059 122.492,145.595 114.757,142.112 108.739 C 138.629 102.722,135.493 97.304,135.144 96.700 C 134.794 96.095,134.584 95.525,134.677 95.432 C 134.770 95.339,144.222 95.262,155.682 95.259 C 167.141 95.257,176.657 95.167,176.827 95.059 C 176.997 94.951,179.206 91.260,181.736 86.857 C 191.696 69.525,196.788 60.657,197.402 59.573 C 198.293 58.000,198.106 57.802,201.814 64.243 M198.442 67.958 C 198.152 68.248,198.231 131.288,198.521 131.288 C 198.662 131.288,199.069 130.777,199.427 130.153 C 199.784 129.530,203.703 122.655,208.135 114.877 C 212.568 107.098,216.303 100.620,216.436 100.480 C 216.748 100.153,216.749 98.914,216.437 98.586 C 216.240 98.378,208.113 84.257,200.857 71.514 C 198.910 68.093,198.666 67.734,198.442 67.958 M143.181 99.770 C 142.974 100.104,143.182 100.242,148.099 103.059 C 150.520 104.446,155.984 107.595,160.240 110.057 C 164.496 112.518,170.380 115.918,173.316 117.611 C 181.380 122.262,185.368 124.573,187.725 125.961 C 197.557 131.748,198.338 132.109,197.374 130.420 C 196.393 128.701,191.346 119.963,186.934 112.342 C 184.768 108.599,182.449 104.576,181.781 103.402 C 181.113 102.228,180.280 100.877,179.929 100.400 L 179.292 99.533 161.310 99.533 C 151.141 99.533,143.263 99.636,143.181 99.770 M247.365 103.720 C 240.607 107.679,238.159 109.105,231.888 112.740 C 203.580 129.147,199.335 131.645,199.334 131.890 C 199.333 132.001,207.523 132.061,217.533 132.023 L 235.732 131.955 239.043 126.217 C 242.467 120.284,247.751 111.145,251.385 104.870 C 254.655 99.222,254.916 99.296,247.365 103.720 M163.652 132.340 L 160.660 132.488 155.007 142.362 C 151.898 147.792,147.929 154.721,146.188 157.759 C 142.533 164.135,142.463 164.281,143.182 164.005 C 143.465 163.897,147.538 161.575,152.235 158.847 C 156.931 156.118,162.335 152.983,164.243 151.881 C 166.151 150.779,168.973 149.134,170.514 148.225 C 172.055 147.317,175.777 145.156,178.786 143.422 C 181.795 141.689,185.517 139.529,187.058 138.624 C 188.599 137.718,191.509 136.027,193.525 134.866 C 195.541 133.705,197.152 132.635,197.105 132.488 C 197.013 132.200,169.004 132.076,163.652 132.340 M199.096 133.489 C 199.865 134.950,216.274 163.251,216.735 163.909 L 217.248 164.643 235.508 164.643 C 245.552 164.643,253.769 164.546,253.769 164.428 C 253.769 164.310,252.899 163.723,251.835 163.123 C 250.771 162.523,246.958 160.327,243.362 158.242 C 239.767 156.157,231.241 151.232,224.416 147.297 C 217.592 143.362,209.186 138.511,205.737 136.517 C 199.222 132.751,198.546 132.443,199.096 133.489 M188.801 148.956 L 179.769 164.757 180.293 165.701 C 180.765 166.549,186.089 175.811,191.191 184.656 C 192.249 186.491,193.420 188.544,193.794 189.219 C 195.441 192.192,197.814 196.150,198.030 196.283 C 198.166 196.367,198.266 183.026,198.266 164.792 C 198.266 147.392,198.168 133.155,198.049 133.155 C 197.930 133.155,193.768 140.266,188.801 148.956 " stroke="none" fill="#28711b" fill-rule="evenodd"></path><path id="path1" d="M197.402 59.573 C 196.788 60.657,191.696 69.525,181.736 86.857 C 179.206 91.260,176.997 94.951,176.827 95.059 C 176.657 95.167,167.141 95.257,155.682 95.259 C 144.222 95.262,134.770 95.339,134.677 95.432 C 134.584 95.525,134.794 96.095,135.144 96.700 C 135.493 97.304,138.629 102.722,142.112 108.739 C 145.595 114.757,150.059 122.492,152.031 125.930 L 155.617 132.179 155.087 133.134 C 154.795 133.660,154.294 134.562,153.973 135.139 C 153.403 136.165,148.445 144.777,143.824 152.769 C 137.838 163.121,134.757 168.595,134.757 168.874 C 134.757 169.101,140.206 169.179,155.905 169.179 L 177.053 169.179 179.454 173.352 C 180.774 175.648,182.167 178.079,182.550 178.756 C 183.251 179.998,187.785 187.823,190.375 192.262 C 191.145 193.582,193.206 197.153,194.954 200.195 C 196.702 203.238,198.260 205.730,198.417 205.732 C 198.573 205.735,200.092 203.306,201.792 200.334 C 203.491 197.362,205.991 193.009,207.345 190.660 C 208.700 188.312,211.914 182.728,214.487 178.252 C 217.060 173.776,219.295 169.903,219.453 169.646 C 219.724 169.208,221.030 169.179,240.766 169.179 C 257.863 169.179,261.816 169.114,261.926 168.830 C 261.999 168.637,261.259 167.106,260.281 165.427 C 259.303 163.749,256.431 158.773,253.900 154.370 C 251.368 149.967,247.475 143.242,245.249 139.426 C 242.745 135.134,241.239 132.285,241.300 131.955 C 241.354 131.661,243.956 126.978,247.082 121.548 C 261.830 95.930,262.091 95.460,261.727 95.204 C 261.512 95.053,253.268 95.020,240.677 95.119 C 221.020 95.275,219.960 95.259,219.573 94.806 C 219.350 94.544,217.538 91.508,215.548 88.059 C 208.345 75.576,205.096 69.941,201.814 64.243 C 198.106 57.802,198.293 58.000,197.402 59.573 M200.857 71.514 C 208.113 84.257,216.240 98.378,216.437 98.586 C 216.749 98.914,216.748 100.153,216.436 100.480 C 216.303 100.620,212.568 107.098,208.135 114.877 C 203.703 122.655,199.784 129.530,199.427 130.153 C 199.069 130.777,198.662 131.288,198.521 131.288 C 198.231 131.288,198.152 68.248,198.442 67.958 C 198.666 67.734,198.910 68.093,200.857 71.514 M179.929 100.400 C 180.280 100.877,181.113 102.228,181.781 103.402 C 182.449 104.576,184.768 108.599,186.934 112.342 C 191.346 119.963,196.393 128.701,197.374 130.420 C 198.338 132.109,197.557 131.748,187.725 125.961 C 185.368 124.573,181.380 122.262,173.316 117.611 C 170.380 115.918,164.496 112.518,160.240 110.057 C 155.984 107.595,150.520 104.446,148.099 103.059 C 143.182 100.242,142.974 100.104,143.181 99.770 C 143.263 99.636,151.141 99.533,161.310 99.533 L 179.292 99.533 179.929 100.400 M253.648 100.801 C 253.551 101.057,252.532 102.889,251.385 104.870 C 247.751 111.145,242.467 120.284,239.043 126.217 L 235.732 131.955 217.533 132.023 C 207.523 132.061,199.333 132.001,199.334 131.890 C 199.335 131.645,203.580 129.147,231.888 112.740 C 238.159 109.105,240.607 107.679,247.365 103.720 C 253.178 100.315,253.974 99.945,253.648 100.801 M197.105 132.488 C 197.152 132.635,195.541 133.705,193.525 134.866 C 191.509 136.027,188.599 137.718,187.058 138.624 C 185.517 139.529,181.795 141.689,178.786 143.422 C 175.777 145.156,172.055 147.317,170.514 148.225 C 168.973 149.134,166.151 150.779,164.243 151.881 C 162.335 152.983,156.931 156.118,152.235 158.847 C 147.538 161.575,143.465 163.897,143.182 164.005 C 142.463 164.281,142.533 164.135,146.188 157.759 C 147.929 154.721,151.898 147.792,155.007 142.362 L 160.660 132.488 163.652 132.340 C 169.004 132.076,197.013 132.200,197.105 132.488 M205.737 136.517 C 209.186 138.511,217.592 143.362,224.416 147.297 C 231.241 151.232,239.767 156.157,243.362 158.242 C 246.958 160.327,250.771 162.523,251.835 163.123 C 252.899 163.723,253.769 164.310,253.769 164.428 C 253.769 164.546,245.552 164.643,235.508 164.643 L 217.248 164.643 216.735 163.909 C 216.274 163.251,199.865 134.950,199.096 133.489 C 198.546 132.443,199.222 132.751,205.737 136.517 M198.266 164.792 C 198.266 183.026,198.166 196.367,198.030 196.283 C 197.814 196.150,195.441 192.192,193.794 189.219 C 193.420 188.544,192.249 186.491,191.191 184.656 C 186.089 175.811,180.765 166.549,180.293 165.701 L 179.769 164.757 188.801 148.956 C 193.768 140.266,197.930 133.155,198.049 133.155 C 198.168 133.155,198.266 147.392,198.266 164.792 " stroke="none" fill="#ffffff" fill-rule="evenodd"></path></g></svg>