<svg width="599.9999999999999" height="400" xmlns="http://www.w3.org/2000/svg">
 <!-- Created with Method Draw - http://github.com/duopixel/Method-Draw/ -->

 <g>
  <title>background</title>
  <rect x="-1" y="-1" width="602" height="402" id="canvas_background" fill="#fff"/>
  <g id="canvasGrid" display="none">
   <rect id="svg_1" width="100%" height="100%" x="0" y="0" stroke-width="0" fill="url(#gridpattern)"/>
  </g>
 </g>
 <g>
  <title>Layer 1</title>
  <g stroke="null" id="svg_169">
   <g stroke="null" transform="matrix(2.76916 0 0 2.80442 -862.221 -556.392)" id="svg_160">
    <path stroke="null" id="svg_161" d="m451.462433,238.721649c0,0 -25.016998,-3.719986 -32.231995,23.772003c0,0 40.72998,-0.058014 35,34.447968c0,0 21.660004,-30.378967 -21.571991,-43.605972c-0.001007,0 3.748993,-9.277008 18.803986,-14.613998z" fill="#00ADEE"/>
    <path stroke="null" id="svg_162" d="m449.761444,301.281647c0,0 3.723999,-25.018005 -23.77002,-32.233002c0,0 0.054016,40.72699 -34.442993,35c0,0 30.375,21.665985 43.598999,-21.569c-0.001007,-0.001007 9.276001,3.746979 14.614014,18.802002z" fill="#F6921E"/>
    <path stroke="null" id="svg_163" d="m385.098419,299.03363c0,0 24.697998,5.455017 33.806,-21.470978c0,0 -40.627991,-2.777008 -32.510986,-36.800018c0,0 -23.727997,28.795013 18.480011,45.001007c0,0 -4.387024,8.993011 -19.775024,13.269989z" fill="#EB008B"/>
    <path stroke="null" id="svg_164" d="m388.883423,236.198639c0,0 -4.902985,24.812988 22.216003,33.324005c0,0 1.878021,-40.682007 36.070007,-33.324005c0,0 -29.31601,-23.080994 -44.580994,19.47699c0,-0.000977 -9.088013,-4.184998 -13.705017,-19.47699z" fill="#8BC53F"/>
    <ellipse stroke="null" id="svg_165" ry="5.025" rx="3.968" cy="241.416643" cx="400.235428" fill="#EB008B"/>
    <path stroke="null" id="svg_166" d="m446.980438,254.271637c-2.77301,0.128006 -5.106018,-1.540009 -5.209015,-3.72699c-0.108002,-2.186996 2.056,-4.068985 4.828003,-4.201004c2.774017,-0.128006 5.106995,1.535995 5.209015,3.723022c0.10199,2.189957 -2.061005,4.071976 -4.828003,4.204971z" fill="#8BC53F"/>
    <path stroke="null" id="svg_167" d="m434.217438,296.798645c-0.13501,-2.774017 1.53299,-5.107025 3.722992,-5.209015c2.19101,-0.105011 4.069,2.055023 4.199005,4.82901c0.13501,2.772003 -1.53299,5.105011 -3.725006,5.208008c-2.190002,0.10498 -4.067993,-2.058014 -4.196991,-4.828003z" fill="#00ADEE"/>
    <path stroke="null" id="svg_168" d="m390.653442,283.832642c2.779999,0.063995 4.983978,1.888 4.936981,4.083008c-0.046997,2.190002 -2.332977,3.912994 -5.106995,3.85199c-2.779999,-0.062012 -4.98999,-1.885986 -4.936005,-4.076019c0.046021,-2.190979 2.332001,-3.919983 5.106018,-3.858978z" fill="#F6921E"/>
   </g>
  </g>
 </g>
</svg>