<?xml version="1.0" encoding="utf-8"?>
<!-- Generator: Adobe Illustrator 14.0.0, SVG Export Plug-In . SVG Version: 6.00 Build 43363)  -->
<!DOCTYPE svg PUBLIC "-//W3C//DTD SVG 1.1//EN" "http://www.w3.org/Graphics/SVG/1.1/DTD/svg11.dtd">
<svg version="1.1" id="图层_1" xmlns="http://www.w3.org/2000/svg" xmlns:xlink="http://www.w3.org/1999/xlink" x="0px" y="0px"
	 width="900px" height="600px" viewBox="0 0 900 600" enable-background="new 0 0 900 600" xml:space="preserve">
<rect fill="#FFFFFF" width="900" height="600"/>
<g>
	<path fill-rule="evenodd" clip-rule="evenodd" fill="#2470CB" d="M487.584,220.21c0,3.512,0,7.024,0,10.536
		c-23.012-0.706-23.478-21.366-41.666-26.34c0,12.292,0,24.584,0,36.877c-1.984,0-3.968,0-5.952,0
		c-23.306-25.03-49.1-47.859-77.38-68.486c17.301-19.809,52.267-23.983,89.285-26.341
		C468.354,166.988,472.246,198.665,487.584,220.21z"/>
	<path fill-rule="evenodd" clip-rule="evenodd" fill="#2825CC" d="M434.013,288.696c1.984,0,3.968,0,5.953,0
		c4.217,19.536-10.169,22.608-5.953,42.145c5.228,7.667,28.075-13.433,35.714-21.072c4.409,39.084-29.295,89.927-41.667,131.703
		c-38.18,2.183-56.196-13.48-83.333-21.072c-5.378-9.288-13.314-16.313-23.809-21.072c20.38-38.155,63.963-55.776,89.285-89.559
		C420.699,305.009,428.635,297.984,434.013,288.696z"/>
	<path fill-rule="evenodd" clip-rule="evenodd" fill="#CE2B42" d="M517.346,293.964c1.984,0,3.969,0,5.952,0
		c20.529,27.488,46.716,49.968,59.523,84.291c-16.98,28.872-40.219,52.206-83.332,57.949c-0.549-46.928-8.841-87.002-17.857-126.436
		c12.506,6.492,23.208,14.581,35.714,21.072C517.346,318.549,517.346,306.257,517.346,293.964z"/>
	<path fill-rule="evenodd" clip-rule="evenodd" fill="#F3D128" d="M517.346,293.964c5.407-11.019,17.567-16.061,35.714-15.804
		c-8.161-12.094-24.512-16.939-35.714-26.341c1.898-12.369,9.403-19.774,5.952-36.877c-17.762,0.084-20.238,13.697-35.714,15.804
		c0-3.512,0-7.024,0-10.536c7.944-19.309,14.075-40.225,17.857-63.218c24.068,8.551,42.771,21.85,59.522,36.877
		c-5.474,26.764-27.567,38.819-41.666,57.95c27.22-2.25,50.47-8.013,83.333-5.268c6.592,22.262,6.858,50.123,5.952,79.022
		c-32.586-4.623-66.601-35.75-89.285-31.609C521.314,293.964,519.33,293.964,517.346,293.964z"/>
	<path fill-rule="evenodd" clip-rule="evenodd" fill="#59C615" d="M434.013,288.696c-55.293,9.012-100.302,27.126-154.76,36.877
		c-4.435-44.314,6.95-74.627,17.857-105.363c59.781-3.741,95.531,13.788,142.856,21.073c1.984,0,3.968,0,5.952,0
		c-8.255,13.767-30.752,14.928-47.619,21.072c9.62,12.559,41.141,5.733,41.667,26.341
		C437.981,288.696,435.998,288.696,434.013,288.696z"/>
</g>
</svg>
