<?xml version="1.0" encoding="utf-8"?>
<!-- Generator: Adobe Illustrator 14.0.0, SVG Export Plug-In . SVG Version: 6.00 Build 43363)  -->
<!DOCTYPE svg PUBLIC "-//W3C//DTD SVG 1.1//EN" "http://www.w3.org/Graphics/SVG/1.1/DTD/svg11.dtd">
<svg version="1.1" id="图层_1" xmlns="http://www.w3.org/2000/svg" xmlns:xlink="http://www.w3.org/1999/xlink" x="0px" y="0px"
	 width="900px" height="600px" viewBox="0 0 900 600" enable-background="new 0 0 900 600" xml:space="preserve">
<rect fill="#333333" width="900" height="600"/>
<path fill="#FF6600" d="M450.091,470.75c75.564,0.122,142.375-49.352,164.732-121.984c-91.02-6.078-160.184,45.283-212.787,115.154
	C417.663,468.426,433.836,470.726,450.091,470.75z M421.041,129.25c-93.019,15.453-155.976,103.859-140.618,197.461
	c10.756,65.555,58.116,118.989,121.613,137.209c0-2.186-0.237-4.234-0.237-6.317C284.443,400.811,361.923,204.004,421.041,129.25z"
	/>
<path fill="#FFFFFF" d="M494.753,132.665C375.124,229.446,334.467,331.93,391.55,441.415v0.205
	c2.262,4.554,4.773,9.027,7.534,13.421c-39.097-125.74,21.041-219.926,161.066-288.431
	C541.081,150.617,518.757,139.03,494.753,132.665z"/>
<path fill="#FFFFFF" d="M606.611,227.158C468.011,259.26,394.739,334.799,402.036,463.92
	c42.015-108.324,111.993-171.945,219.847-174.609C620.788,267.801,615.604,246.702,606.611,227.158z"/>
</svg>
