<svg width="600" height="400" xmlns="http://www.w3.org/2000/svg">
 <!-- Created with Method Draw - http://github.com/duopixel/Method-Draw/ -->

 <g>
  <title>background</title>
  <rect fill="#fff" id="canvas_background" height="402" width="602" y="-1" x="-1"/>
  <g display="none" overflow="visible" y="0" x="0" height="100%" width="100%" id="canvasGrid">
   <rect fill="url(#gridpattern)" stroke-width="0" y="0" x="0" height="100%" width="100%"/>
  </g>
 </g>
 <g>
  <title>Layer 1</title>
  <g stroke="null" id="svg_10">
   <g stroke="null" transform="matrix(2.11879 0 0 2.16026 -162.447 -107.599)" id="svg_5">
    <path stroke="null" id="svg_6" d="m247.934052,113.030663c0.01001,0.01001 0.029999,0.029999 0.040009,0.040009c16.380005,16.379982 16.380005,43.030006 0,59.410011c-16.380005,16.37999 -43.029999,16.37999 -59.410004,0c-16.380005,-16.380005 -16.380005,-43.030029 0,-59.410011l0,0l-7.25,-7.250008l0,0c-20.380005,20.380013 -20.380005,53.530014 0,73.900009c20.380005,20.369995 53.529999,20.369995 73.899994,0c20.370026,-20.380005 20.370026,-53.519997 0,-73.900009c-0.009979,-0.009995 -0.029999,-0.019997 -0.049988,-0.039993l-7.230011,7.249992z" fill="#8DC21F"/>
    <path stroke="null" id="svg_7" d="m237.654053,123.310661c0.01001,0.020004 0.029999,0.029999 0.040009,0.040009c10.709991,10.709999 10.709991,28.140007 0,38.850014c-10.710007,10.709991 -28.139999,10.709991 -38.850006,0c-10.709991,-10.710007 -10.709991,-28.13002 0,-38.850014l0,0l-7.25,-7.25l0,0c-14.709991,14.709984 -14.709991,38.640007 0,53.349998c14.710007,14.710007 38.630005,14.710007 53.340012,0c14.709976,-14.709991 14.709976,-38.630005 0,-53.349998c-0.01001,-0.01001 -0.020004,-0.020004 -0.040009,-0.040009l-7.240005,7.25z" fill="#138F2E"/>
    <path stroke="null" id="svg_8" d="m240.98407,142.770676c0,-6.060013 -2.360001,-11.77002 -6.650009,-16.050011l-7.25,7.239998c4.860001,4.860001 4.860001,12.76001 0,17.62001c-4.860001,4.860001 -12.770004,4.860001 -17.619995,0c-4.860001,-4.860001 -4.860001,-12.76001 0,-17.62001c0.009995,-0.020004 0.019989,-0.029999 0.039993,-0.039993l-7.25,-7.239998c-0.009995,0.009995 -0.029999,0.020004 -0.039993,0.039993c-8.860001,8.849998 -8.860001,23.260017 0,32.120018c4.289993,4.289993 9.98999,6.649994 16.049988,6.649994c6.070007,0 11.770004,-2.37001 16.070007,-6.660004c4.290009,-4.279999 6.650009,-9.98999 6.650009,-16.059998z" fill="#006E35"/>
    <path stroke="null" id="svg_9" d="m218.684052,89.78067c-13.009995,0 -24.899994,4.739998 -34.079987,12.579994l34.019989,34.029991l34.089996,-34.079987c-9.169998,-7.810005 -21.049988,-12.529999 -34.029999,-12.529999z" fill="#006E35"/>
   </g>
  </g>
 </g>
</svg>