<svg width="600" height="400" xmlns="http://www.w3.org/2000/svg">
 <!-- Created with Method Draw - http://github.com/duopixel/Method-Draw/ -->

 <g>
  <title>background</title>
  <rect fill="#fff" id="canvas_background" height="402" width="602" y="-1" x="-1"/>
  <g display="none" overflow="visible" y="0" x="0" height="100%" width="100%" id="canvasGrid">
   <rect fill="url(#gridpattern)" stroke-width="0" y="0" x="0" height="100%" width="100%"/>
  </g>
 </g>
 <g>
  <title>Layer 1</title>
  <g stroke="null" id="svg_103">
   <g stroke="null" transform="matrix(2.00545 0 0 1.90807 -311.839 -168.316)" id="svg_30">
    <g stroke="null" id="svg_31">
     <g stroke="null" id="svg_32">
      <g stroke="null" id="svg_33">
       <path stroke="null" id="svg_34" d="m356.888275,199.182404c0,13.699997 -5.300018,26.600006 -15,36.299988c-9.700012,9.700012 -22.600006,15.000031 -36.300018,15.000031c-13.699982,0 -26.599976,-5.300018 -36.299988,-15.000031c-9.700012,-9.699982 -15,-22.599991 -15,-36.299988l-1.100006,0c0,14 5.399994,27.200012 15.300018,37.100006c9.899994,9.899994 23.099976,15.299988 37.099976,15.299988c14,0 27.200012,-5.399994 37.100006,-15.299988c9.899994,-9.899994 15.300018,-23.100006 15.300018,-37.100006l-1.100006,0z" fill="#888A8C"/>
      </g>
      <g stroke="null" id="svg_35">
       <path stroke="null" id="svg_36" d="m261.688263,199.182404c0,24.100006 19.600006,43.700012 43.799988,43.700012c24.100006,0 43.800018,-19.600006 43.800018,-43.700012l-1.100006,0c0,23.5 -19.199982,42.700012 -42.700012,42.700012c-23.599976,0 -42.699982,-19.200012 -42.699982,-42.700012l-1.100006,0z" fill="#888A8C"/>
      </g>
      <g stroke="null" id="svg_37">
       <path stroke="null" id="svg_38" d="m339.588257,199.182404c0,18.800003 -15.299988,34.100006 -34.099976,34.100006c-18.800018,0 -34.100006,-15.300003 -34.100006,-34.100006l-1.100006,0c0,19.400009 15.700012,35.100006 35.100006,35.100006c19.399994,0 35.100006,-15.800003 35.100006,-35.100006l-0.900024,0z" fill="#888A8C"/>
      </g>
      <g stroke="null" id="svg_39">
       <path stroke="null" id="svg_40" d="m278.988281,199.182404c0,14.600006 11.899994,26.5 26.5,26.5c14.600006,0 26.5,-11.899994 26.5,-26.5l-1.100006,0c0,14 -11.399994,25.399994 -25.399994,25.399994c-14,0 -25.399994,-11.399994 -25.399994,-25.399994l-1.100006,0z" fill="#888A8C"/>
      </g>
      <g stroke="null" id="svg_41">
       <path stroke="null" id="svg_42" d="m322.288269,199.182404c0,9.199997 -7.5,16.800003 -16.799988,16.800003c-9.300018,0 -16.800018,-7.5 -16.800018,-16.800003l-1.100006,0c0,9.800003 8,17.800003 17.800018,17.800003c9.799988,0 17.799988,-8 17.799988,-17.800003l-0.899994,0z" fill="#888A8C"/>
      </g>
     </g>
    </g>
    <g stroke="null" id="svg_43">
     <g stroke="null" id="svg_44">
      <rect stroke="null" id="svg_45" height="0.5" width="101.4" fill="#979A9C" y="242.982409" x="257.488269"/>
     </g>
     <g stroke="null" id="svg_46">
      <rect stroke="null" id="svg_47" height="0.5" width="101.4" fill="#979A9C" y="233.482409" x="257.488269"/>
     </g>
     <g stroke="null" id="svg_48">
      <rect stroke="null" id="svg_49" height="0.5" width="101.4" fill="#979A9C" y="223.882409" x="257.488269"/>
     </g>
     <g stroke="null" id="svg_50">
      <rect stroke="null" id="svg_51" height="0.5" width="101.4" fill="#979A9C" y="214.382409" x="257.488269"/>
     </g>
     <g stroke="null" id="svg_52">
      <rect stroke="null" id="svg_53" height="0.5" width="101.4" fill="#979A9C" y="204.782409" x="257.488269"/>
     </g>
     <g stroke="null" id="svg_54">
      <rect stroke="null" id="svg_55" height="57.3" width="0.5" fill="#979A9C" y="195.582409" x="341.688269"/>
     </g>
     <g stroke="null" id="svg_56">
      <rect stroke="null" id="svg_57" height="57.3" width="0.5" fill="#979A9C" y="195.582409" x="324.788269"/>
     </g>
     <g stroke="null" id="svg_58">
      <rect stroke="null" id="svg_59" height="57.3" width="0.5" fill="#979A9C" y="195.582409" x="307.888269"/>
     </g>
     <g stroke="null" id="svg_60">
      <rect stroke="null" id="svg_61" height="57.3" width="0.5" fill="#979A9C" y="195.582409" x="290.988269"/>
     </g>
     <g stroke="null" id="svg_62">
      <rect stroke="null" id="svg_63" height="57.3" width="0.5" fill="#979A9C" y="195.582409" x="274.088269"/>
     </g>
    </g>
    <g stroke="null" id="svg_64">
     <path stroke="null" id="svg_65" d="m308.788269,156.882416l-2.300018,-2.600006l1.700012,-2.399994l0.600006,-14.100006c0.100006,-2.399994 -1.799988,-4.5 -4.200012,-4.600006c-2.399994,-0.099991 -4.499969,1.800003 -4.599976,4.200012l-0.500031,14.099991l1.900024,2.600006l-2.5,2.399994l9.899994,0.400009zm-3.100006,-18.300003c0,-0.200012 0.200012,-0.400009 0.400024,-0.400009c0.199982,0 0.399994,0.199997 0.399994,0.400009l-0.5,11.300003c0,0.199997 -0.200012,0.399994 -0.400024,0.399994c-0.199982,0 -0.399994,-0.199997 -0.399994,-0.399994l0.5,-11.300003zm-3.399994,-0.200012c0,-0.199997 0.199982,-0.399994 0.399994,-0.399994c0.200012,0 0.400024,0.199997 0.400024,0.399994l-0.500031,11.300003c0,0.199997 -0.199982,0.400009 -0.399994,0.400009c-0.199982,0 -0.399994,-0.200012 -0.399994,-0.400009l0.5,-11.300003z" fill="#DB9130"/>
     <path stroke="null" id="svg_66" d="m305.588257,150.28241c0.200012,0 0.400024,-0.199997 0.400024,-0.400009l0.5,-11.299988c0,-0.200012 -0.200012,-0.400009 -0.399994,-0.400009c-0.200012,0 -0.400024,0.199997 -0.400024,0.400009l-0.5,11.299988c0,0.200012 0.200012,0.400009 0.399994,0.400009z" fill="#FFFFFE"/>
     <path stroke="null" id="svg_67" d="m302.188263,150.082413c0.200012,0 0.399994,-0.200012 0.399994,-0.400009l0.500031,-11.199997c0,-0.199997 -0.200012,-0.399994 -0.400024,-0.399994c-0.199982,0 -0.399994,0.199997 -0.399994,0.399994l-0.5,11.199997c0,0.300003 0.100006,0.400009 0.399994,0.400009z" fill="#FFFFFE"/>
     <path stroke="null" id="svg_68" d="m302.488251,157.882416l-0.399994,10.099991c-1.5,1.100006 -1.199982,2.800003 -1.199982,2.800003l0.899994,3.699997l3,0.100006c0,0 0.600006,-2.199997 1,-3.800003c0.299988,-1.199997 -0.700012,-2.199997 -1.100006,-2.600006l0.399994,-10.099991l-2.600006,-0.199997z" fill="#DB9130"/>
     <path stroke="null" id="svg_69" d="m321.888275,160.982407l-1.100006,-3.300003l2.5,-1.599991l6,-12.800003c1,-2.199997 0.100006,-4.800003 -2.100006,-5.900009c-2.199982,-1 -4.799988,-0.099991 -5.899994,2.100006l-6,12.800003l0.799988,3.100006l-3.299988,1.399994l9.100006,4.199997zm4.100006,-18.100006c0.099976,-0.199997 0.299988,-0.299988 0.499969,-0.199997c0.200012,0.100006 0.300018,0.300003 0.200012,0.5l-4.799988,10.300003c-0.100006,0.199997 -0.300018,0.300003 -0.5,0.199997c-0.200012,-0.099991 -0.300018,-0.299988 -0.200012,-0.5l4.800018,-10.300003zm-7.899994,8.800003l4.799988,-10.299988c0.100006,-0.200012 0.299988,-0.300003 0.5,-0.200012c0.199982,0.100006 0.299988,0.300003 0.199982,0.5l-4.799988,10.300003c-0.100006,0.199997 -0.300018,0.300003 -0.5,0.199997c-0.199982,-0.099991 -0.299988,-0.299988 -0.199982,-0.5z" fill="#DB9130"/>
     <path stroke="null" id="svg_70" d="m321.388275,153.582413c0.199982,0.099991 0.399994,0 0.5,-0.200012l4.799988,-10.299988c0.100006,-0.200012 0,-0.400009 -0.200012,-0.5c-0.199982,-0.100006 -0.399994,0 -0.499969,0.199997l-4.800018,10.300003c-0.099976,0.199997 0,0.399994 0.200012,0.5z" fill="#FFFFFE"/>
     <path stroke="null" id="svg_71" d="m318.288269,152.182404c0.199982,0.100006 0.399994,0 0.5,-0.199997l4.799988,-10.300003c0.100006,-0.199997 0,-0.399994 -0.199982,-0.5c-0.200012,-0.099991 -0.399994,0 -0.5,0.200012l-4.799988,10.299988c-0.100006,0.200012 0,0.400009 0.199982,0.5z" fill="#FFFFFE"/>
     <path stroke="null" id="svg_72" d="m311.288269,175.582413c0,0 1.399994,-1.800003 2.399994,-3.200012c0.799988,-1 0.200012,-2.299988 -0.100006,-2.799988l4.200012,-9.100006l-2.200012,-1l-4.299988,9.199997c-1.800018,0.5 -2.199982,2.100006 -2.199982,2.100006l-0.500031,3.699997l2.700012,1.100006z" fill="#DB9130"/>
     <path stroke="null" id="svg_73" d="m328.988281,162.482407l-3.400024,-0.099991l6.700012,7.399994l0.199982,-3.399994l2.900024,-0.5l10.399994,-9.5c1.799988,-1.600006 1.899994,-4.400009 0.299988,-6.200012c-1.600006,-1.800003 -4.399994,-1.899994 -6.199982,-0.300003l-10.400024,9.500015l-0.499969,3.099991zm14.100006,-7.899994c0.199982,-0.100006 0.399994,-0.100006 0.599976,0c0.100006,0.199997 0.100006,0.399994 0,0.599991l-8.399994,7.600006c-0.199982,0.099991 -0.399994,0.099991 -0.600006,0c-0.100006,-0.199997 -0.100006,-0.400009 0,-0.600006l8.400024,-7.599991zm-10.700012,5.099991l8.399994,-7.599991c0.200012,-0.100006 0.399994,-0.100006 0.600006,0c0.099976,0.199997 0.099976,0.399994 0,0.599991l-8.399994,7.600006c-0.200012,0.100006 -0.400024,0.100006 -0.600006,0c-0.200012,-0.199997 -0.100006,-0.399994 0,-0.600006z" fill="#DB9130"/>
     <path stroke="null" id="svg_74" d="m334.688263,162.78241c0.100006,0.199997 0.400024,0.199997 0.600006,0l8.399994,-7.600006c0.200012,-0.099991 0.200012,-0.399994 0,-0.599991c-0.100006,-0.200012 -0.399994,-0.200012 -0.599976,0l-8.400024,7.599991c-0.100006,0.200012 -0.100006,0.400009 0,0.600006z" fill="#FFFFFE"/>
     <path stroke="null" id="svg_75" d="m332.988281,160.28241l8.399994,-7.600006c0.199982,-0.099991 0.199982,-0.399994 0,-0.599991c-0.100006,-0.200012 -0.399994,-0.200012 -0.600006,0l-8.399994,7.599991c-0.200012,0.100006 -0.200012,0.400009 0,0.600006c0.099976,0.100006 0.399994,0.199997 0.600006,0z" fill="#FFFFFE"/>
     <path stroke="null" id="svg_76" d="m321.288269,174.582413l7.5,-6.800003l-1.600006,-1.800003l-7.5,6.800003c-1.899994,-0.300003 -2.899994,1.100006 -2.899994,1.100006l-2,3.199997l2,2.099991c0,0 2,-1.199997 3.399994,-2c1.200012,-0.699997 1.200012,-2 1.100006,-2.599991z" fill="#DB9130"/>
     <path stroke="null" id="svg_77" d="m338.288269,173.882416l-3.100006,-1.400009l3.399994,9.400009l1.500031,-3.100006l2.899994,0.699997l13.299988,-4.800003c2.299988,-0.799988 3.5,-3.299988 2.700012,-5.599991c-0.800018,-2.300003 -3.400024,-3.5 -5.600006,-2.699997l-13.299988,4.799988l-1.800018,2.700012zm16.600006,-1.600006c0.100006,0.199997 0,0.399994 -0.200012,0.5l-10.699982,3.800003c-0.200012,0.099991 -0.400024,0 -0.500031,-0.200012c-0.099976,-0.199997 0,-0.399994 0.200012,-0.5l10.700012,-3.799988c0.199982,-0.100006 0.399994,0 0.5,0.199997zm-12.400024,0.399994l10.700012,-3.799988c0.200012,-0.100006 0.399994,0 0.5,0.199997c0.100006,0.199997 0,0.399994 -0.200012,0.5l-10.699982,3.800003c-0.200012,0.099991 -0.399994,0 -0.5,-0.200012c-0.100006,-0.199997 0,-0.5 0.199982,-0.5z" fill="#DB9130"/>
     <path stroke="null" id="svg_78" d="m343.488251,176.382416c0.100006,0.199997 0.300018,0.299988 0.500031,0.199997l10.699982,-3.800003c0.200012,-0.100006 0.300018,-0.300003 0.200012,-0.5c-0.100006,-0.199997 -0.300018,-0.300003 -0.5,-0.199997l-10.700012,3.800003c-0.200012,0.099991 -0.299988,0.299988 -0.200012,0.5z" fill="#FFFFFE"/>
     <path stroke="null" id="svg_79" d="m342.788269,173.382416l10.699982,-3.800003c0.200012,-0.100006 0.300018,-0.300003 0.200012,-0.5c-0.100006,-0.199997 -0.299988,-0.300003 -0.5,-0.199997l-10.700012,3.799988c-0.199982,0.100006 -0.299988,0.300003 -0.199982,0.5c0.100006,0.200012 0.299988,0.300003 0.5,0.200012z" fill="#FFFFFE"/>
     <path stroke="null" id="svg_80" d="m326.588257,182.082413l9.500031,-3.400009l-0.800018,-2.300003l-9.5,3.400009c-1.600006,-1 -3.100006,-0.100006 -3.100006,-0.100006l-3.100006,2.199997l1.100006,2.800003c0,0 2.300018,-0.299988 3.899994,-0.599991c1.300018,-0.199997 1.800018,-1.400009 2,-2z" fill="#DB9130"/>
     <path stroke="null" id="svg_81" d="m359.188263,186.882416l-14.100006,-0.699997l-2.600006,1.899994l-2.399994,-2.5l-0.5,10l2.600006,-2.300003l2.399994,1.699997l14.100006,0.700012c2.399994,0.099991 4.5,-1.800003 4.600006,-4.200012c0.199982,-2.399994 -1.700012,-4.5 -4.100006,-4.599991zm-1.199982,6.399994l-1.900024,-0.099991l-9.399994,-0.5c-0.200012,0 -0.399994,-0.200012 -0.399994,-0.400009c0,-0.199997 0.199982,-0.399994 0.399994,-0.399994l11.300018,0.599991c0.199982,0 0.399963,0.200012 0.399963,0.400009c0.000031,0.199997 -0.199982,0.399994 -0.399963,0.399994zm0.199982,-3.399994l-11.300018,-0.600006c-0.199982,0 -0.399994,-0.199997 -0.399994,-0.399994c0,-0.199997 0.200012,-0.400009 0.399994,-0.400009l11.300018,0.600006c0.199982,0 0.399994,0.199997 0.399994,0.399994c0,0.199997 -0.199982,0.400009 -0.399994,0.400009z" fill="#DB9130"/>
     <path stroke="null" id="svg_82" d="m357.988281,192.482407l-11.300018,-0.599991c-0.200012,0 -0.399994,0.199997 -0.399994,0.399994c0,0.199997 0.199982,0.399994 0.399994,0.399994l9.399994,0.5l1.900024,0.100006c0.199982,0 0.399963,-0.199997 0.399963,-0.399994c0.000031,-0.200012 -0.099976,-0.400009 -0.399963,-0.400009z" fill="#FFFFFE"/>
     <path stroke="null" id="svg_83" d="m358.188263,189.082413l-11.299988,-0.600006c-0.200012,0 -0.400024,0.199997 -0.400024,0.400009c0,0.199997 0.200012,0.399994 0.400024,0.399994l11.299988,0.600006c0.200012,0 0.399994,-0.200012 0.399994,-0.400009c0,-0.199997 -0.199982,-0.399994 -0.399994,-0.399994z" fill="#FFFFFE"/>
     <path stroke="null" id="svg_84" d="m325.888275,187.382416l-3.700012,0.899994l-0.100006,3c0,0 2.200012,0.600006 3.800018,1c1.199982,0.300003 2.199982,-0.599991 2.599976,-1.099991l10.100006,0.5l0.100006,-2.400009l-10.100006,-0.5c-1,-1.699997 -2.699982,-1.399994 -2.699982,-1.399994z" fill="#DB9130"/>
     <path stroke="null" id="svg_85" d="m265.688263,187.28241l-14.100006,-0.899994c-2.399994,-0.199997 -4.5,1.699997 -4.699982,4.099991c-0.200012,2.400009 1.699982,4.5 4.100006,4.700012l14.100006,0.899994l2.599976,-1.800003l2.300018,2.5l0.699982,-9.899994l-2.599976,2.199997l-2.400024,-1.800003zm-2.399994,6.5l-11.299988,-0.800003c-0.200012,0 -0.400024,-0.199997 -0.400024,-0.399994c0,-0.199997 0.200012,-0.399994 0.400024,-0.399994l11.299988,0.799988c0.200012,0 0.399994,0.200012 0.399994,0.400009c0,0.199997 -0.199982,0.399994 -0.399994,0.399994zm0.200012,-3.5l-11.300018,-0.800003c-0.199982,0 -0.399994,-0.199997 -0.399994,-0.399994c0,-0.199997 0.200012,-0.399994 0.399994,-0.399994l11.300018,0.799988c0.199982,0 0.399994,0.200012 0.399994,0.400009c0,0.299988 -0.100006,0.5 -0.399994,0.399994z" fill="#DB9130"/>
     <path stroke="null" id="svg_86" d="m263.588257,189.582413l-11.299988,-0.800003c-0.200012,0 -0.399994,0.100006 -0.399994,0.399994c0,0.200012 0.199982,0.400009 0.399994,0.400009l11.299988,0.800003c0.200012,0 0.400024,-0.100006 0.400024,-0.400009c0,-0.199997 -0.200012,-0.399994 -0.400024,-0.399994z" fill="#FFFFFE"/>
     <path stroke="null" id="svg_87" d="m263.388275,192.982407l-11.300018,-0.800003c-0.199982,0 -0.399994,0.200012 -0.399994,0.400009c0,0.199997 0.200012,0.399994 0.399994,0.399994l11.300018,0.800003c0.199982,0 0.399994,-0.100006 0.399994,-0.399994c-0.100006,-0.200012 -0.200012,-0.400009 -0.399994,-0.400009z" fill="#FFFFFE"/>
     <path stroke="null" id="svg_88" d="m281.688263,191.482407l-10.100006,-0.699997l-0.199982,2.399994l10.100006,0.700012c1.099976,1.599991 2.799988,1.299988 2.799988,1.299988l3.700012,-0.799988l0.100006,-3c0,0 -2.200012,-0.600006 -3.800018,-1c-1.200012,-0.300003 -2.200012,0.599991 -2.600006,1.099991z" fill="#DB9130"/>
     <path stroke="null" id="svg_89" d="m253.688263,174.082413l12.600006,6.299988l3.100006,-0.699997l1.199982,3.200012l4.400024,-8.900009l-3.300018,1l-1.399994,-2.5l-12.600006,-6.300003c-2.199982,-1.099991 -4.799988,-0.199997 -5.899994,2c-1.100006,2.100006 -0.200012,4.800003 1.899994,5.900009zm3.200012,-5.199997c0.100006,-0.200012 0.299988,-0.300003 0.5,-0.200012l10.100006,5c0.199982,0.100006 0.299988,0.300003 0.199982,0.5c-0.100006,0.200012 -0.299988,0.300003 -0.5,0.200012l-10.100006,-5c-0.299988,-0.100006 -0.299988,-0.300003 -0.199982,-0.5zm-1.600006,3c0.100006,-0.200012 0.299988,-0.300003 0.5,-0.200012l10.100006,5c0.199982,0.100006 0.299988,0.300003 0.199982,0.5c0,0.300003 -0.299988,0.400009 -0.5,0.300003l-10.099976,-5c-0.200012,-0.099991 -0.300018,-0.399994 -0.200012,-0.599991z" fill="#DB9130"/>
     <path stroke="null" id="svg_90" d="m256.988281,169.382416l10.099976,5c0.200012,0.099991 0.400024,0 0.5,-0.200012c0.100006,-0.199997 0,-0.399994 -0.199982,-0.5l-10.100006,-5c-0.200012,-0.099991 -0.399994,0 -0.5,0.200012c0,0.199997 0,0.399994 0.200012,0.5z" fill="#FFFFFE"/>
     <path stroke="null" id="svg_91" d="m255.488281,172.482407l10.099976,5c0.200012,0.100006 0.400024,0 0.5,-0.199997c0.100006,-0.199997 0,-0.399994 -0.199982,-0.5l-10.100006,-5c-0.200012,-0.100006 -0.399994,0 -0.5,0.199997c-0.100006,0.100006 0,0.400009 0.200012,0.5z" fill="#FFFFFE"/>
     <path stroke="null" id="svg_92" d="m283.488281,182.482407l-9.100006,-4.5l-1.100006,2.199997l9.100006,4.5c0.399994,1.800003 2.100006,2.300003 2.100006,2.300003l3.699982,0.699997l1.300018,-2.699997c0,0 -1.800018,-1.399994 -3.100006,-2.399994c-1.100006,-0.900009 -2.300018,-0.400009 -2.899994,-0.100006z" fill="#DB9130"/>
     <path stroke="null" id="svg_93" d="m273.588257,166.28241l3.100006,0.599991l-0.199982,3.400009l7.5,-6.5l-3.300018,-0.300003l-0.399994,-3l-9.200012,-10.600006c-1.599976,-1.799988 -4.399994,-2 -6.199982,-0.399994c-1.800018,1.600006 -2,4.400009 -0.399994,6.199997l9.099976,10.600006zm-4.299988,-14.300003c0.200012,-0.099991 0.399994,-0.099991 0.600006,0l7.399994,8.600006c0.100006,0.199997 0.100006,0.399994 0,0.599991c-0.200012,0.100006 -0.399994,0.100006 -0.600006,0l-7.399994,-8.599991c-0.200012,-0.199997 -0.200012,-0.400009 0,-0.600006zm-2.600006,2.300003c0.200012,-0.100006 0.400024,-0.100006 0.600006,0l7.399994,8.600006c0.100006,0.199997 0.100006,0.399994 0,0.599991c-0.199982,0.100006 -0.399994,0.100006 -0.599976,0l-7.400024,-8.600006c-0.199982,-0.199997 -0.199982,-0.499985 0,-0.599991z" fill="#DB9130"/>
     <path stroke="null" id="svg_94" d="m276.688263,161.082413c0.100006,0.199997 0.400024,0.199997 0.600006,0c0.200012,-0.100006 0.200012,-0.400009 0,-0.600006l-7.5,-8.399994c-0.100006,-0.200012 -0.399994,-0.200012 -0.600006,0c-0.199982,0.099991 -0.199982,0.399994 0,0.599991l7.5,8.400009z" fill="#FFFFFE"/>
     <path stroke="null" id="svg_95" d="m274.088257,163.382416c0.100006,0.199997 0.400024,0.199997 0.600006,0c0.200012,-0.100006 0.200012,-0.400009 0,-0.600006l-7.399994,-8.600006c-0.100006,-0.199997 -0.399994,-0.199997 -0.600006,0c-0.199982,0.100006 -0.199982,0.400009 0,0.600006l7.399994,8.600006z" fill="#FFFFFE"/>
     <path stroke="null" id="svg_96" d="m288.588257,174.882416l-6.599976,-7.600006l-1.800018,1.600006l6.600006,7.599991c-0.299988,1.900009 1,2.900009 1,2.900009l3.200012,2l2.199982,-2c0,0 -1.100006,-2 -1.899994,-3.5c-0.700012,-1.100006 -2.100006,-1.100006 -2.700012,-1z" fill="#DB9130"/>
     <path stroke="null" id="svg_97" d="m285.688263,156.082413l2.700012,1.699997l-1.5,3.099991l9.5,-3.099991l-3,-1.600006l0.799988,-2.899994l-4.399994,-13.400009c-0.799988,-2.299988 -3.299988,-3.599991 -5.600006,-2.799988c-2.299988,0.799988 -3.600006,3.299988 -2.799988,5.599991l4.299988,13.400009zm1.5,-14.800003c0.200012,-0.100006 0.399994,0 0.5,0.300003l3.600006,10.799988c0.100006,0.200012 0,0.400009 -0.299988,0.5c-0.200012,0.100006 -0.400024,0 -0.5,-0.299988l-3.600006,-10.800003c0,-0.199997 0.100006,-0.5 0.299988,-0.5zm-3.199982,1.099991c0.199982,-0.099991 0.399994,0 0.5,0.300003l3.599976,10.800003c0.100006,0.199997 0,0.400009 -0.299988,0.5c-0.200012,0.100006 -0.399994,0 -0.5,-0.300003l-3.600006,-10.800003c-0.100006,-0.299988 0,-0.5 0.300018,-0.5z" fill="#DB9130"/>
     <path stroke="null" id="svg_98" d="m290.488281,152.482407c0.099976,0.199997 0.299988,0.300003 0.5,0.300003c0.199982,-0.100006 0.299988,-0.300003 0.299988,-0.5l-3.600006,-10.800003c-0.100006,-0.199997 -0.299988,-0.300003 -0.5,-0.300003c-0.199982,0.100006 -0.299988,0.300003 -0.299988,0.5l3.600006,10.800003z" fill="#FFFFFE"/>
     <path stroke="null" id="svg_99" d="m287.288269,153.582413c0.100006,0.199997 0.299988,0.299988 0.5,0.299988c0.200012,-0.099991 0.299988,-0.299988 0.299988,-0.5l-3.599976,-10.799988c-0.100006,-0.200012 -0.300018,-0.300003 -0.5,-0.300003c-0.200012,0.099991 -0.300018,0.300003 -0.200012,0.5l3.5,10.800003z" fill="#FFFFFE"/>
     <path stroke="null" id="svg_100" d="m298.288269,171.78241c-0.199982,-1.300003 -1.399994,-1.800003 -2,-2l-3.200012,-9.600006l-2.299988,0.800003l3.200012,9.600006c-1,1.599991 -0.200012,3.099991 -0.200012,3.099991l2.100006,3.100006l2.799988,-1c0,-0.100006 -0.200012,-2.300003 -0.399994,-4z" fill="#DB9130"/>
     <path stroke="null" id="svg_101" d="m305.288269,185.582413c-4.899994,0 -8.899994,4 -8.899994,8.899994c0,4.900009 4,8.900009 8.899994,8.900009c4.899994,0 8.899994,-4 8.899994,-8.900009c0,-4.899994 -4,-8.899994 -8.899994,-8.899994zm0,12.099991c-1.700012,0 -3.199982,-1.399994 -3.199982,-3.199997c0,-1.699997 1.399963,-3.199997 3.199982,-3.199997c1.700012,0 3.199982,1.399994 3.199982,3.199997c-0.099976,1.699997 -1.499969,3.199997 -3.199982,3.199997z" fill="#9F9592"/>
     <circle stroke="null" id="svg_102" r="3.2" cy="194.482409" cx="305.288269" fill="#FFFFFE"/>
    </g>
   </g>
  </g>
 </g>
</svg>