<?xml version="1.0" encoding="utf-8"?>
<!-- Generator: Adobe Illustrator 14.0.0, SVG Export Plug-In . SVG Version: 6.00 Build 43363)  -->
<!DOCTYPE svg PUBLIC "-//W3C//DTD SVG 1.1//EN" "http://www.w3.org/Graphics/SVG/1.1/DTD/svg11.dtd">
<svg version="1.1" id="图层_1" xmlns="http://www.w3.org/2000/svg" xmlns:xlink="http://www.w3.org/1999/xlink" x="0px" y="0px"
	 width="900px" height="600px" viewBox="0 0 900 600" enable-background="new 0 0 900 600" xml:space="preserve">
<rect fill="#FFFFFF" width="900" height="600"/>
<g>
	<g>
		<path fill="#FFCD64" d="M568.389,254.539v-92.033c-0.047-27.059-22.026-48.983-49.154-49.03h-48.514
			c2.621,1.639,5.075,3.529,7.328,5.643c11.152,10.701,17.45,25.473,17.442,40.908v94.513L568.389,254.539L568.389,254.539z"/>
		<path fill="#8C103D" d="M568.389,427.149H413.594v12.823c0.009,12.897,5.269,25.239,14.571,34.197
			c9.17,7.754,20.764,12.077,32.784,12.226h58.284c27.077-0.047,49.036-21.894,49.154-48.901L568.389,427.149L568.389,427.149z"/>
		<path fill="#E24956" d="M637,320.668c-1.575,2.605-3.396,5.053-5.442,7.311c-10.729,11.123-25.539,17.404-41.013,17.396h-95.012
			v72.67h92.312c27.111-0.048,49.085-21.945,49.155-48.988V320.668z"/>
		<path fill="#FF912B" d="M637,230.986c0-27.093-21.994-49.069-49.155-49.116h-10.371v154.442h12.856
			c12.931-0.008,25.305-5.254,34.285-14.533c7.771-9.148,12.104-20.711,12.256-32.701L637,230.986z"/>
		<path fill="#64D1DA" d="M263,279.332c1.644-2.614,3.538-5.062,5.657-7.31c10.714-11.155,25.526-17.469,41.013-17.483h94.754
			V181.87h-92.268C284.994,181.917,263,203.893,263,230.986V279.332z"/>
		<path fill="#065280" d="M380.81,486.524h48.471c-2.611-1.571-5.065-3.391-7.328-5.43c-11.237-10.737-17.572-25.601-17.528-41.122
			v-94.556H331.57v92.076C331.616,464.587,353.648,486.524,380.81,486.524L380.81,486.524z"/>
		<path fill="#64DA91" d="M331.569,172.851h154.837v-12.824c-0.01-12.898-5.269-25.239-14.571-34.197
			c-9.165-7.807-20.776-12.176-32.827-12.354H380.81c-27.161,0-49.192,21.938-49.24,49.03V172.851z"/>
		<path fill="#34B2E3" d="M263,369.057c0.047,27.06,22.027,48.983,49.155,49.03h10.371v-154.4h-12.857
			c-12.931,0.009-25.304,5.254-34.284,14.534c-7.83,9.14-12.211,20.723-12.385,32.744V369.057z"/>
	</g>
</g>
</svg>
