<?xml version="1.0" encoding="utf-8"?>
<!-- Generator: Adobe Illustrator 14.0.0, SVG Export Plug-In . SVG Version: 6.00 Build 43363)  -->
<!DOCTYPE svg PUBLIC "-//W3C//DTD SVG 1.1//EN" "http://www.w3.org/Graphics/SVG/1.1/DTD/svg11.dtd">
<svg version="1.1" id="图层_1" xmlns="http://www.w3.org/2000/svg" xmlns:xlink="http://www.w3.org/1999/xlink" x="0px" y="0px"
	 width="900px" height="600px" viewBox="0 0 900 600" enable-background="new 0 0 900 600" xml:space="preserve">
<rect fill="#FFFFFF" width="900" height="600"/>
<g>
	<g>
		<path fill="#E42E0E" d="M396.76,463.75H260.548l76.215-131.74c-7.352,38.389,3.641,78.004,29.731,107.149
			C375.214,448.903,385.431,457.204,396.76,463.75z M599.537,394.743l39.915,69.007H529.829c2.347-1.191,4.662-2.436,6.945-3.732
			C563.57,444.763,585.369,422.092,599.537,394.743z"/>
		<path fill="#F18A00" d="M550.446,309.896l32.466,56.146c-10.75,30.504-32.346,56.008-60.688,71.673
			c-43.687,24.09-100.352,23.305-135.898-16.28c-35.545-39.584-33.377-101.785,6.224-137.511
			c31.994-28.858,84.857-35.225,115.469-1.004c13.601,15.596,19.929,36.22,17.411,56.742c-1.636,13.944-8.346,26.804-18.856,36.135
			c-19.455,17.534-51.921,21.956-70.715,1.004c-6.234-7.376-10.003-16.511-10.78-26.129c-1.006-13.206,5.438-25.532,19.298-27.665
			c5.199-1.014,10.556,0.717,14.174,4.579c1.558,1.796,2.638,3.952,3.143,6.273c5.218,21.957,33.189,12.265,24.483-10.979
			c-1.8-4.77-4.476-9.163-7.889-12.954c-11.238-12.272-28.625-16.859-44.472-11.731c-24.389,7.215-37.306,29.861-35.483,54.735
			c1.171,15.404,7.326,30.013,17.538,41.623c28.883,32.151,77.723,28.639,108.397,0.973c15.42-13.719,25.242-32.621,27.594-53.104
			C553.084,331.574,552.606,320.6,550.446,309.896L550.446,309.896z"/>
		<path fill="#E42E0E" d="M450,136.25l70.149,121.232c-40.543-36.166-102.458-30.049-142.938,4.611L450,136.25z"/>
	</g>
</g>
</svg>
