<?xml version="1.0" encoding="utf-8"?>
<!-- Generator: Adobe Illustrator 14.0.0, SVG Export Plug-In . SVG Version: 6.00 Build 43363)  -->
<!DOCTYPE svg PUBLIC "-//W3C//DTD SVG 1.1//EN" "http://www.w3.org/Graphics/SVG/1.1/DTD/svg11.dtd">
<svg version="1.1" id="图层_1" xmlns="http://www.w3.org/2000/svg" xmlns:xlink="http://www.w3.org/1999/xlink" x="0px" y="0px"
	 width="900px" height="600px" viewBox="0 0 900 600" enable-background="new 0 0 900 600" xml:space="preserve">
<rect fill="#FFFFFF" width="900" height="600"/>
<g>
	<g>
		
			<linearGradient id="SVGID_1_" gradientUnits="userSpaceOnUse" x1="142.8438" y1="475.7256" x2="46.3232" y2="511.038" gradientTransform="matrix(2.071 0 0 -2.071 212.0937 1244.9617)">
			<stop  offset="0" style="stop-color:#E4007F"/>
			<stop  offset="1" style="stop-color:#007ECA"/>
		</linearGradient>
		<path fill="url(#SVGID_1_)" d="M493.842,221.996l84.75,48.133c33.959,19.162,38.124,33.594,11.58,52.217
			c-52.795-19.066-110.219-41.462-116.705-44.313c-55.567-23.462-40.909-36.624,0.305-49.343c5.559-1.665,12.655-4.083,20.07-6.659
			V221.996z"/>
		
			<linearGradient id="SVGID_2_" gradientUnits="userSpaceOnUse" x1="146.6411" y1="485.6445" x2="50.0112" y2="520.9969" gradientTransform="matrix(2.071 0 0 -2.071 212.0937 1244.9617)">
			<stop  offset="0" style="stop-color:#E4007F"/>
			<stop  offset="1" style="stop-color:#007ECA"/>
		</linearGradient>
		<path fill="url(#SVGID_2_)" d="M428.844,185.205l32.981,18.767l25.066,14.24c-6.792,1.665-13.278,3.485-18.678,4.694
			c-30.306,7.103-70.543,14.995-45.697-27.103C423.604,193.839,425.913,189.899,428.844,185.205z"/>
		
			<linearGradient id="SVGID_3_" gradientUnits="userSpaceOnUse" x1="147.9468" y1="489.3301" x2="51.5462" y2="524.5986" gradientTransform="matrix(2.071 0 0 -2.071 212.0937 1244.9617)">
			<stop  offset="0" style="stop-color:#E4007F"/>
			<stop  offset="1" style="stop-color:#007ECA"/>
		</linearGradient>
		<path fill="url(#SVGID_3_)" d="M363.553,148.281l60.82,34.528c-3.091,4.791-5.717,8.779-7.097,10.779
			c-27.937,38.899-39.358,8.922-48.471-24.672c-1.856-6.814-3.555-13.617-5.252-20.587V148.281z"/>
		
			<linearGradient id="SVGID_4_" gradientUnits="userSpaceOnUse" x1="146.5029" y1="486.2734" x2="50.2927" y2="521.4723" gradientTransform="matrix(2.071 0 0 -2.071 212.0937 1244.9617)">
			<stop  offset="0" style="stop-color:#E4007F"/>
			<stop  offset="1" style="stop-color:#007ECA"/>
		</linearGradient>
		<path fill="url(#SVGID_4_)" d="M292.545,178.402v-10.587c0-44.205,14.048-51.618,55.104-28.456l10.994,6.204
			c1.674,7.868,3.53,15.689,5.069,23.761c7.097,35.57,8.636,64.983-35.351,36.624C323.475,202.462,305.665,188.689,292.545,178.402z
			"/>
		
			<linearGradient id="SVGID_5_" gradientUnits="userSpaceOnUse" x1="136.7661" y1="460.1621" x2="40.5999" y2="495.3449" gradientTransform="matrix(2.071 0 0 -2.071 212.0937 1244.9617)">
			<stop  offset="0" style="stop-color:#E4007F"/>
			<stop  offset="1" style="stop-color:#007ECA"/>
		</linearGradient>
		<path fill="url(#SVGID_5_)" d="M292.545,250.14v-64.769c11.116,9.833,24.235,21.486,28.095,24.815
			c37.354,32.241,12.973,36.624-12.508,38.744c-5.094,0.455-10.347,0.91-15.587,1.198V250.14z"/>
		
			<linearGradient id="SVGID_6_" gradientUnits="userSpaceOnUse" x1="126.1875" y1="430.9072" x2="29.7405" y2="466.1927" gradientTransform="matrix(2.071 0 0 -2.071 212.0937 1244.9617)">
			<stop  offset="0" style="stop-color:#E4007F"/>
			<stop  offset="1" style="stop-color:#007ECA"/>
		</linearGradient>
		<path fill="url(#SVGID_6_)" d="M292.545,324.753V257.41l16.21,0.455c40.311,1.509,36.426,20.887,3.86,49.942
			C310.172,310.201,302.586,316.585,292.545,324.753z"/>
		
			<linearGradient id="SVGID_7_" gradientUnits="userSpaceOnUse" x1="111.8257" y1="395.5098" x2="16.6442" y2="430.3322" gradientTransform="matrix(2.071 0 0 -2.071 212.0937 1244.9617)">
			<stop  offset="0" style="stop-color:#E4007F"/>
			<stop  offset="1" style="stop-color:#007ECA"/>
		</linearGradient>
		<path fill="url(#SVGID_7_)" d="M303.967,470.961c-8.025-5.139-11.421-18.768-11.421-41.618v-95.954
			c11.727-8.935,20.839-15.894,23.771-18.157c64.68-49.785,39.517,10.432,26.556,47.224
			C337.742,378.18,314.777,441.151,303.967,470.961z"/>
		
			<linearGradient id="SVGID_8_" gradientUnits="userSpaceOnUse" x1="112.3555" y1="393.6641" x2="15.2166" y2="429.2027" gradientTransform="matrix(2.071 0 0 -2.071 212.0937 1244.9617)">
			<stop  offset="0" style="stop-color:#E4007F"/>
			<stop  offset="1" style="stop-color:#007ECA"/>
		</linearGradient>
		<path fill="url(#SVGID_8_)" d="M417.423,421.02l-72.071,40.72c-16.686,9.377-28.571,13.294-36.927,11.186
			c10.994-29.211,35.192-91.571,40.75-106.697c22.769-61.906,39.871-73.858,54.664-8.779
			C405.537,364.407,411.401,392.719,417.423,421.02L417.423,421.02z"/>
		
			<linearGradient id="SVGID_9_" gradientUnits="userSpaceOnUse" x1="121.8262" y1="419.1289" x2="25.5252" y2="454.361" gradientTransform="matrix(2.071 0 0 -2.071 212.0937 1244.9617)">
			<stop  offset="0" style="stop-color:#E4007F"/>
			<stop  offset="1" style="stop-color:#007ECA"/>
		</linearGradient>
		<path fill="url(#SVGID_9_)" d="M495.075,376.97l-33.188,18.768l-38.906,22.097c-5.24-27.846-10.347-55.248-11.58-62.206
			c-14.353-83.834,18.518-48.133,51.866-13.174c8.185,8.384,20.681,22.252,31.76,34.504L495.075,376.97z"/>
		
			<linearGradient id="SVGID_10_" gradientUnits="userSpaceOnUse" x1="130.6064" y1="442.5674" x2="34.0523" y2="477.8921" gradientTransform="matrix(2.071 0 0 -2.071 212.0937 1244.9617)">
			<stop  offset="0" style="stop-color:#E4007F"/>
			<stop  offset="1" style="stop-color:#007ECA"/>
		</linearGradient>
		<path fill="url(#SVGID_10_)" d="M576.271,331.112l-77.188,43.594c-11.727-12.862-24.846-28-32.981-37.378
			c-32.26-36.623-55.726-73.056,6.951-51.007c6.021,1.964,60.82,21.342,112.222,39.354c-2.785,1.821-5.717,3.593-8.953,5.45
			L576.271,331.112z"/>
	</g>
</g>
</svg>
