<?xml version="1.0" encoding="utf-8"?>
<!-- Generator: Adobe Illustrator 14.0.0, SVG Export Plug-In . SVG Version: 6.00 Build 43363)  -->
<!DOCTYPE svg PUBLIC "-//W3C//DTD SVG 1.1//EN" "http://www.w3.org/Graphics/SVG/1.1/DTD/svg11.dtd">
<svg version="1.1" id="图层_1" xmlns="http://www.w3.org/2000/svg" xmlns:xlink="http://www.w3.org/1999/xlink" x="0px" y="0px"
	 width="900px" height="600px" viewBox="0 0 900 600" enable-background="new 0 0 900 600" xml:space="preserve">
<linearGradient id="SVGID_1_" gradientUnits="userSpaceOnUse" x1="72.6797" y1="872.4912" x2="761.9327" y2="-173.2821">
	<stop  offset="0" style="stop-color:#C1272D"/>
	<stop  offset="1" style="stop-color:#FF2A4E"/>
</linearGradient>
<rect fill="url(#SVGID_1_)" width="900" height="600"/>
<path fill="#FFFFFF" d="M570.32,180.043c-33.24-33.403-73.346-50.09-120.316-50.059s-87.08,16.717-120.324,50.059
	c-33.25,33.039-49.875,73.02-49.875,119.941s16.625,87.08,49.875,120.475c33.25,33.038,73.357,49.558,120.324,49.558
	c46.966,0,87.071-16.52,120.316-49.558c33.255-33.373,49.88-73.531,49.875-120.475C620.19,253.042,603.565,213.062,570.32,180.043
	L570.32,180.043z M554.232,403.584c-28.856,28.824-63.687,43.236-104.49,43.236c-40.805,0-75.547-14.412-104.229-43.236
	c-28.677-28.998-43.015-63.795-43.015-104.393c0-40.771,14.338-75.568,43.015-104.393c28.676-28.823,63.418-43.233,104.229-43.228
	c40.799,0,75.629,14.41,104.49,43.228s43.284,63.611,43.269,104.377C597.501,339.789,583.078,374.591,554.232,403.584z"/>
<path fill="#FFFFFF" d="M550.802,356.167l-22.169,22.118L450.535,300l-78.373,78.285l-22.154-22.118l41.426-41.588h-69.671
	c3.169,29.265,15.563,54.341,37.21,75.612c25.146,25.307,55.666,37.953,91.563,37.938c35.701,0,66.221-12.643,91.557-37.93
	c21.283-21.264,33.602-46.355,36.939-75.62h-69.663L550.802,356.167z"/>
<path fill="#7C7C7C" d="M350.008,241.539l22.154-22.457l78.373,78.285l78.098-78.285l22.169,22.48l-41.434,41.441h69.663
	c-3.338-29.266-15.656-54.203-36.94-75.475c-25.33-25.307-55.849-37.973-91.556-37.999c-35.891,0-66.412,12.674-91.563,38.022
	c-21.646,21.264-34.041,46.208-37.21,75.474h69.655L350.008,241.539z"/>
</svg>
