<?xml version="1.0" encoding="utf-8"?>
<!-- Generator: Adobe Illustrator 14.0.0, SVG Export Plug-In . SVG Version: 6.00 Build 43363)  -->
<!DOCTYPE svg PUBLIC "-//W3C//DTD SVG 1.1//EN" "http://www.w3.org/Graphics/SVG/1.1/DTD/svg11.dtd">
<svg version="1.1" id="图层_1" xmlns="http://www.w3.org/2000/svg" xmlns:xlink="http://www.w3.org/1999/xlink" x="0px" y="0px"
	 width="900px" height="600px" viewBox="0 0 900 600" enable-background="new 0 0 900 600" xml:space="preserve">
<title>资源 139</title>
<rect fill="#144579" width="900" height="600"/>
<path fill="#FFFFFF" d="M375.688,222.235c3.063,11.285-3.094,21.479-12.178,32.349c-31.011,37.157-27.018,96.404,6.955,131.157
	c20.116,21.679,48.943,33.967,79.123,33.728c32.946,0.588,64.248-13.839,84.449-38.922c33.273-39.689,30.479-100.379-6.156-135.902
	c-2.498-2.299-3.855-5.521-3.727-8.848v-32.99c0-1.795-0.565-4.008,1.23-5.098c1.798-1.09,3.994,0.609,5.592,1.699
	c34.438,23.02,56.298,54.15,62.653,94.032c6.354,38.696-2.097,74.7-26.952,105.991c-31.144,39.272-72.936,58.797-124.276,56.489
	c-40.86-1.828-75.065-18.467-102.116-48.315c-26.254-28.063-39.064-65.464-35.303-103.072c3.76-44.787,26.086-79.669,64.217-105.35
	c1.498-1.025,3.162-2.66,5.125-1.699c1.963,0.963,1.297,3.207,1.33,4.97C375.756,208.161,375.688,213.836,375.688,222.235z"/>
<path fill="#AC2929" d="M462.3,268.786V149.491c0-1.859-1.131-4.553,1.265-5.418c2.396-0.865,3.56,1.635,5.024,2.981
	c8.884,7.919,17.602,16.094,26.452,24.109c3.55,3.09,5.478,7.547,5.258,12.151c-0.134,63.414-0.134,126.818,0,190.212
	c0.396,4.249-1.92,8.307-5.856,10.259c-7.645,4.472-15.883,7.923-24.49,10.26c-6.92,1.731-7.619,1.186-7.619-5.61
	C462.289,348.53,462.278,308.647,462.3,268.786L462.3,268.786z M437.544,269.074v118.623c0,7.566-0.631,8.015-8.118,6.091
	c-8.423-2.323-16.481-5.729-23.957-10.131c-3.946-1.993-6.257-6.079-5.856-10.355c0.167-18.338,0-36.645,0-54.983V184.693
	c-0.422-5.114,1.629-10.13,5.557-13.593c8.852-7.823,17.17-16.03,25.854-24.045c1.598-1.282,3.195-3.943,5.59-2.917
	c2.396,1.026,0.932,3.687,0.932,5.61V269.074z"/>
</svg>
