<?xml version="1.0"?>
<svg width="300" height="200" xmlns="http://www.w3.org/2000/svg" xmlns:svg="http://www.w3.org/2000/svg">
 <g class="layer">
  <title>Layer 1</title>
  <rect fill="#ffffff" height="579" id="svg_14" stroke="#000000" stroke-opacity="0" width="579" x="-134" y="-213.05"/>
  <g id="svg_1" transform="matrix(1 0 0 1 0 0)">
   <g id="svg_2">
    <path d="m185.86,77.22l-15,0a35.94,35.94 0 0 0 -35.92,-35.92l0,-15a51,51 0 0 1 50.92,50.92z" fill="#00afec" id="svg_3"/>
    <path d="m148.63,69.18a35.93,35.93 0 0 0 -50.76,0l-10.63,-10.63a51,51 0 0 1 72,0l-10.61,10.63z" fill="#007bc7" id="svg_4"/>
    <path d="m91.32,115.09l-15,0a51,51 0 0 1 50.92,-50.92l0,15a35.94,35.94 0 0 0 -35.92,35.92z" fill="#a64a97" id="svg_5"/>
    <path d="m108.57,162.78a51,51 0 0 1 0,-72l10.62,10.61a35.94,35.94 0 0 0 0,50.76l-10.62,10.63z" fill="#e6287b" id="svg_6"/>
    <path d="m165.1,173.7a51,51 0 0 1 -50.91,-50.92l15,0a35.94,35.94 0 0 0 35.89,35.89l0,15l0.02,0.03z" fill="#eb6133" id="svg_7"/>
    <path d="m176.8,156.3a50.76,50.76 0 0 1 -36,-14.89l10.62,-10.59a35.94,35.94 0 0 0 50.76,0l10.62,10.62a50.77,50.77 0 0 1 -36,14.89l0,-0.03z" fill="#f39800" id="svg_8"/>
    <path d="m172.8,135.84l0,-15a35.94,35.94 0 0 0 35.89,-35.9l15,0a51,51 0 0 1 -50.92,50.92l0.03,-0.02z" fill="#8ec43e" id="svg_9"/>
    <path d="m191.47,109.23l-10.62,-10.62a35.94,35.94 0 0 0 0,-50.76l10.63,-10.62a51,51 0 0 1 0,72l-0.01,0z" fill="#00ada9" id="svg_10"/>
    <path d="m89.19,81.3c14.68,-3.5 27.67,-8.87 38.05,-15.59l0,-1.54a50.8,50.8 0 0 0 -38.05,17.13z" fill="#fff" id="svg_11" opacity="0.2"/>
    <path d="m87.24,58.55l10.62,10.63a35.92,35.92 0 0 1 36.6,-8.7a61.22,61.22 0 0 0 11.16,-11.65a51,51 0 0 0 -58.38,9.72zm66,-28.83a50.62,50.62 0 0 0 -18.3,-3.42l0,15a35.68,35.68 0 0 1 13.71,2.73a37.85,37.85 0 0 0 4.59,-14.31z" fill="#fff" id="svg_12" opacity="0.2"/>
   </g>
  </g>
 </g>
</svg>