<svg id="svg" version="1.1" xmlns="http://www.w3.org/2000/svg" xmlns:xlink="http://www.w3.org/1999/xlink" width="400" height="266.8" viewBox="0, 0, 400,266.8"><g id="svgg"><path id="path0" d="M0.000 133.422 L 0.000 266.845 200.000 266.845 L 400.000 266.845 400.000 133.422 L 400.000 0.000 200.000 0.000 L 0.000 0.000 0.000 133.422 M281.169 47.364 C 282.763 47.838,284.703 49.731,285.286 51.382 C 285.600 52.273,285.657 64.920,285.657 133.441 L 285.657 214.447 284.853 216.019 C 283.955 217.776,282.523 218.966,280.834 219.357 C 279.159 219.746,118.927 219.689,117.627 219.299 C 116.204 218.873,114.257 217.099,113.645 215.672 C 112.937 214.021,112.847 53.264,113.552 51.193 C 114.095 49.599,115.684 48.086,117.458 47.473 C 119.449 46.785,278.862 46.679,281.169 47.364 M274.403 52.258 C 274.182 52.502,272.831 54.510,271.402 56.720 C 268.434 61.308,264.687 66.478,260.988 71.091 C 259.586 72.840,258.144 74.641,257.782 75.094 C 249.304 85.728,232.222 103.363,211.487 122.889 C 171.969 160.102,158.021 176.446,153.085 191.328 C 152.359 193.519,151.907 196.011,152.360 195.330 C 152.507 195.110,152.629 194.663,152.631 194.338 C 152.641 192.873,154.698 187.678,155.226 187.783 C 155.390 187.815,155.457 187.614,155.379 187.319 C 155.073 186.148,159.909 177.915,164.154 172.382 C 167.553 167.952,169.188 165.873,169.400 165.715 C 169.501 165.639,170.471 164.556,171.554 163.309 C 177.082 156.944,191.509 142.277,202.664 131.682 C 205.597 128.897,209.200 125.472,210.670 124.071 C 212.140 122.670,214.237 120.688,215.330 119.668 C 230.663 105.351,247.049 88.392,256.828 76.718 C 260.916 71.837,261.771 70.758,265.172 66.177 C 266.971 63.756,268.537 61.654,268.653 61.508 C 268.768 61.361,269.155 60.761,269.511 60.173 C 269.868 59.586,270.285 58.974,270.437 58.813 C 270.589 58.652,271.254 57.644,271.915 56.573 C 272.575 55.502,273.386 54.338,273.716 53.985 C 274.046 53.633,274.316 53.166,274.316 52.948 C 274.316 50.798,279.333 53.662,280.120 56.262 C 280.628 57.939,280.584 120.407,280.073 122.482 C 279.503 124.801,277.853 128.413,276.639 130.001 C 273.971 133.489,272.591 134.986,268.418 138.914 C 266.577 140.647,260.039 145.500,255.978 148.147 C 252.523 150.399,246.186 154.236,245.921 154.236 C 245.829 154.236,245.305 154.518,244.758 154.863 C 242.108 156.532,231.409 161.920,225.484 164.570 C 224.676 164.931,223.536 165.441,222.949 165.704 C 222.362 165.967,220.981 166.565,219.880 167.034 C 218.779 167.502,217.500 168.057,217.038 168.266 C 216.575 168.475,216.140 168.646,216.071 168.646 C 215.738 168.646,213.447 169.774,213.557 169.884 C 213.838 170.164,225.991 164.790,234.023 160.833 C 260.152 147.963,274.899 136.241,279.977 124.305 L 280.582 122.882 280.665 90.060 C 280.725 66.561,280.664 56.949,280.452 56.221 C 279.711 53.679,275.571 50.966,274.403 52.258 M280.028 133.993 C 277.938 136.337,265.774 146.528,261.243 149.730 C 248.851 158.488,227.947 168.688,208.272 175.576 C 205.180 176.658,204.495 176.975,205.728 176.751 C 206.237 176.659,206.838 176.489,207.063 176.373 C 207.288 176.258,209.033 175.604,210.941 174.922 C 212.849 174.239,214.890 173.495,215.477 173.268 C 216.064 173.041,216.965 172.700,217.478 172.510 C 218.342 172.190,224.400 169.714,225.617 169.183 C 225.911 169.055,227.171 168.505,228.419 167.962 C 237.247 164.115,248.742 158.189,254.153 154.695 C 254.658 154.369,255.577 153.803,256.197 153.436 C 256.817 153.069,258.095 152.258,259.037 151.634 C 259.978 151.011,260.815 150.500,260.896 150.500 C 260.977 150.500,261.488 150.110,262.033 149.633 C 262.578 149.156,263.366 148.526,263.783 148.232 C 266.152 146.569,273.277 140.641,276.985 137.250 C 277.498 136.780,278.459 135.911,279.119 135.320 L 280.320 134.243 280.459 142.572 L 280.599 150.901 280.659 142.161 C 280.693 137.355,280.679 133.422,280.628 133.422 C 280.578 133.422,280.308 133.679,280.028 133.993 M280.516 180.280 C 280.449 211.403,280.496 210.362,279.072 212.187 C 277.293 214.466,281.976 214.260,230.362 214.335 C 205.244 214.371,184.635 214.343,184.565 214.272 C 184.372 214.075,181.321 207.828,180.979 206.928 C 180.813 206.493,180.373 205.417,180.000 204.536 C 179.627 203.656,179.321 202.732,179.321 202.484 C 179.320 202.236,179.187 201.951,179.024 201.850 C 178.149 201.309,182.553 211.805,184.132 214.022 L 184.693 214.810 230.149 214.810 C 274.589 214.810,275.632 214.798,276.762 214.291 C 278.157 213.666,278.790 213.140,279.812 211.762 L 280.587 210.716 280.659 187.879 C 280.698 175.320,280.696 161.921,280.654 158.105 C 280.612 154.290,280.550 164.268,280.516 180.280 M212.208 170.168 C 211.878 170.232,211.608 170.396,211.608 170.532 C 211.608 170.669,211.416 170.781,211.181 170.781 C 210.946 170.781,210.376 170.950,209.914 171.157 C 207.398 172.283,202.525 174.058,193.062 177.294 C 186.872 179.410,181.675 181.592,180.565 182.541 C 180.394 182.688,179.882 183.073,179.428 183.398 C 172.333 188.478,170.595 196.232,174.344 206.081 C 175.124 208.130,177.256 212.445,178.021 213.524 C 178.716 214.503,178.977 214.466,170.911 214.525 L 163.702 214.578 161.664 213.234 C 157.073 210.207,153.562 205.773,152.770 202.001 C 152.495 200.694,152.069 200.017,152.265 201.201 C 153.010 205.686,156.235 209.971,161.555 213.542 L 163.442 214.809 171.114 214.809 C 176.517 214.810,178.786 214.723,178.786 214.516 C 178.786 214.355,178.136 213.064,177.343 211.648 C 171.133 200.568,171.158 191.555,177.415 185.498 C 180.639 182.377,184.033 180.640,192.128 177.968 C 199.743 175.454,210.319 171.565,211.671 170.782 C 211.926 170.634,212.309 170.514,212.522 170.514 C 212.736 170.514,212.985 170.394,213.075 170.247 C 213.166 170.100,213.143 169.996,213.024 170.016 C 212.906 170.036,212.538 170.105,212.208 170.168 M203.469 177.319 L 202.668 177.697 203.469 177.540 C 203.909 177.453,204.384 177.278,204.523 177.150 C 204.903 176.802,204.394 176.883,203.469 177.319 M198.799 178.952 C 183.549 184.950,179.077 188.255,177.952 194.362 C 177.621 196.159,177.920 199.589,178.533 201.025 C 178.831 201.723,178.602 199.436,178.230 197.999 C 176.387 190.881,183.414 184.651,199.600 179.052 C 202.063 178.199,203.060 177.704,202.255 177.732 C 202.042 177.739,200.487 178.288,198.799 178.952 " stroke="none" fill="#799e9b" fill-rule="evenodd"></path><path id="path1" d="M124.483 52.038 C 121.006 52.237,118.876 53.789,118.229 56.598 C 117.851 58.239,117.854 208.354,118.233 209.996 C 118.947 213.094,121.117 214.468,125.488 214.588 C 129.267 214.692,129.397 214.600,128.200 212.675 C 122.949 204.236,122.555 191.512,127.249 182.017 C 130.154 176.141,133.072 170.679,135.320 166.911 C 135.582 166.471,136.241 165.330,136.783 164.376 C 137.325 163.422,138.099 162.101,138.502 161.441 C 142.277 155.257,147.234 144.586,149.906 136.891 C 150.288 135.791,150.745 134.530,150.921 134.089 C 152.115 131.111,154.244 121.834,155.575 113.809 C 156.533 108.035,157.438 94.728,157.435 86.458 C 157.432 74.689,155.899 53.080,155.004 52.168 C 154.729 51.889,129.023 51.779,124.483 52.038 M159.972 52.037 C 159.881 52.184,160.048 55.096,160.344 58.508 C 163.154 90.930,162.651 110.453,158.611 125.817 C 156.279 134.683,149.008 151.840,144.588 158.906 C 144.221 159.493,143.496 160.754,142.977 161.708 C 141.711 164.036,140.346 166.401,139.475 167.773 C 139.081 168.394,138.759 168.967,138.759 169.046 C 138.759 169.125,138.480 169.638,138.138 170.185 C 137.460 171.271,136.264 173.453,134.082 177.585 C 126.806 191.362,126.482 204.721,133.225 212.942 L 134.648 214.676 146.043 214.746 C 153.095 214.789,157.438 214.719,157.438 214.563 C 157.438 214.423,156.628 213.630,155.637 212.798 C 144.975 203.852,145.897 190.637,158.588 170.514 C 161.408 166.042,167.377 158.133,172.905 151.540 C 181.700 141.054,190.328 126.415,194.514 114.877 C 194.993 113.556,195.480 112.235,195.596 111.941 C 196.670 109.218,196.931 108.494,196.930 108.237 C 196.929 108.073,197.219 106.978,197.574 105.804 C 198.439 102.939,199.266 99.721,199.597 97.932 C 201.690 86.597,201.857 84.796,201.857 73.649 C 201.856 67.288,201.739 63.030,201.518 61.374 C 200.564 54.237,200.318 52.663,200.093 52.235 C 199.805 51.686,160.310 51.491,159.972 52.037 M199.539 52.259 C 200.312 52.749,201.419 62.937,201.632 71.514 C 201.822 79.181,201.370 85.365,200.023 93.529 C 199.118 99.018,197.415 105.712,195.679 110.607 C 193.858 115.743,189.817 125.321,188.924 126.618 C 188.823 126.765,188.112 128.069,187.344 129.518 C 186.575 130.966,185.496 132.887,184.945 133.787 C 184.395 134.687,183.894 135.544,183.833 135.690 C 183.309 136.953,176.680 146.306,173.741 149.930 C 168.862 155.946,164.410 161.553,163.180 163.230 C 160.861 166.392,157.296 171.708,156.218 173.612 C 155.645 174.623,155.036 175.690,154.864 175.984 C 145.415 192.063,145.645 205.433,155.504 213.165 C 156.127 213.654,156.638 214.164,156.638 214.299 C 156.638 214.443,152.246 214.543,145.955 214.543 L 135.272 214.543 134.488 213.741 C 132.112 211.310,130.420 208.244,129.397 204.516 C 128.749 202.155,128.750 193.725,129.398 191.194 C 131.302 183.756,132.933 179.990,138.285 170.672 C 139.457 168.631,140.657 166.529,140.952 166.002 C 141.247 165.475,141.941 164.263,142.495 163.309 C 148.527 152.927,155.148 138.900,156.776 133.055 C 156.985 132.303,157.382 131.087,157.657 130.354 C 157.932 129.620,158.220 128.839,158.296 128.619 C 158.372 128.399,158.825 126.538,159.304 124.483 C 159.783 122.428,160.336 120.087,160.534 119.280 C 160.917 117.719,161.348 114.541,161.710 110.607 C 161.832 109.286,162.031 107.245,162.153 106.071 C 162.403 103.665,162.409 83.288,162.161 78.986 C 161.584 68.972,160.839 58.489,160.422 54.500 C 160.296 53.297,160.319 52.463,160.483 52.299 C 160.805 51.976,199.033 51.937,199.539 52.259 " stroke="none" fill="#fccd91" fill-rule="evenodd"></path><path id="path2" d="M160.483 52.299 C 160.319 52.463,160.296 53.297,160.422 54.500 C 160.839 58.489,161.584 68.972,162.161 78.986 C 162.409 83.288,162.403 103.665,162.153 106.071 C 162.031 107.245,161.832 109.286,161.710 110.607 C 161.348 114.541,160.917 117.719,160.534 119.280 C 160.336 120.087,159.783 122.428,159.304 124.483 C 158.825 126.538,158.372 128.399,158.296 128.619 C 158.220 128.839,157.932 129.620,157.657 130.354 C 157.382 131.087,156.985 132.303,156.776 133.055 C 155.148 138.900,148.527 152.927,142.495 163.309 C 141.941 164.263,141.247 165.475,140.952 166.002 C 140.657 166.529,139.457 168.631,138.285 170.672 C 132.933 179.990,131.302 183.756,129.398 191.194 C 128.750 193.725,128.749 202.155,129.397 204.516 C 130.420 208.244,132.112 211.310,134.488 213.741 L 135.272 214.543 145.955 214.543 C 152.246 214.543,156.638 214.443,156.638 214.299 C 156.638 214.164,156.127 213.654,155.504 213.165 C 146.342 205.980,145.421 194.664,152.805 179.987 C 153.765 178.079,154.691 176.278,154.864 175.984 C 155.036 175.690,155.645 174.623,156.218 173.612 C 157.296 171.708,160.861 166.392,163.180 163.230 C 164.410 161.553,168.862 155.946,173.741 149.930 C 176.680 146.306,183.309 136.953,183.833 135.690 C 183.894 135.544,184.395 134.687,184.945 133.787 C 185.496 132.887,186.575 130.966,187.344 129.518 C 188.112 128.069,188.823 126.765,188.924 126.618 C 189.025 126.471,189.958 124.490,190.997 122.215 C 195.013 113.419,197.592 105.652,199.460 96.731 C 201.030 89.232,201.839 79.840,201.632 71.514 C 201.419 62.937,200.312 52.749,199.539 52.259 C 199.033 51.937,160.805 51.976,160.483 52.299 " stroke="none" fill="#f2a86a" fill-rule="evenodd"></path><path id="path3" d="M117.458 47.473 C 115.684 48.086,114.095 49.599,113.552 51.193 C 112.847 53.264,112.937 214.021,113.645 215.672 C 114.257 217.099,116.204 218.873,117.627 219.299 C 118.927 219.689,279.159 219.746,280.834 219.357 C 282.523 218.966,283.955 217.776,284.853 216.019 L 285.657 214.447 285.657 133.441 C 285.657 64.920,285.600 52.273,285.286 51.382 C 284.703 49.731,282.763 47.838,281.169 47.364 C 278.862 46.679,119.449 46.785,117.458 47.473 M280.859 47.668 C 282.559 48.204,283.731 49.193,284.598 50.824 L 285.257 52.064 285.256 133.150 C 285.255 212.049,285.241 214.269,284.751 215.413 C 284.125 216.872,283.302 217.774,281.921 218.513 L 280.854 219.083 237.705 219.077 C 209.721 219.073,194.499 218.978,194.394 218.808 C 194.304 218.664,194.111 218.546,193.965 218.546 C 193.818 218.546,193.768 218.660,193.854 218.799 C 193.953 218.958,179.906 219.058,155.972 219.068 C 113.429 219.086,116.990 219.242,115.142 217.278 C 113.393 215.420,113.542 223.271,113.542 133.155 L 113.542 51.634 114.251 50.545 C 115.221 49.055,116.421 48.101,117.757 47.758 C 118.374 47.599,118.999 47.425,119.146 47.372 C 120.229 46.974,279.584 47.267,280.859 47.668 M160.014 51.701 C 159.902 51.883,174.265 51.880,192.662 51.696 C 196.551 51.657,190.824 51.597,179.936 51.563 C 169.047 51.529,160.083 51.591,160.014 51.701 M272.859 53.941 C 271.367 56.383,270.934 57.038,268.817 60.051 C 261.712 70.166,255.803 77.385,244.830 89.357 C 240.107 94.510,231.229 103.497,222.653 111.808 C 218.089 116.230,210.307 123.617,210.002 123.816 C 208.821 124.587,179.164 153.891,175.704 157.705 C 170.334 163.626,166.898 167.632,164.957 170.236 C 164.132 171.343,163.394 172.308,163.316 172.382 C 161.357 174.237,154.816 185.555,153.276 189.755 C 151.525 194.531,151.165 198.207,152.094 201.838 C 153.367 206.815,156.696 210.956,162.171 214.373 L 163.302 215.079 171.090 215.085 C 179.782 215.093,179.623 215.130,178.636 213.315 C 175.373 207.314,174.237 204.609,173.450 200.961 C 173.178 199.698,172.946 199.033,172.935 199.483 C 172.881 201.699,174.919 207.323,177.343 211.648 C 178.136 213.064,178.786 214.355,178.786 214.516 C 178.786 214.723,176.517 214.810,171.114 214.809 L 163.442 214.809 161.555 213.542 C 149.665 205.561,149.000 194.876,159.381 178.613 C 167.196 166.371,181.085 151.517,211.487 122.889 C 232.222 103.363,249.304 85.728,257.782 75.094 C 258.144 74.641,259.586 72.840,260.988 71.091 C 265.407 65.581,271.217 57.365,274.208 52.399 C 275.176 50.792,279.674 53.545,280.451 56.221 C 280.662 56.947,280.723 66.580,280.667 89.841 C 280.623 107.773,280.685 122.270,280.804 122.057 C 281.253 121.253,281.054 56.796,280.599 55.706 C 279.721 53.606,277.620 51.961,275.352 51.598 L 274.384 51.444 272.859 53.941 M124.010 51.960 C 124.484 52.019,125.324 52.020,125.878 51.963 C 126.432 51.905,126.044 51.857,125.017 51.855 C 123.989 51.854,123.536 51.901,124.010 51.960 M129.630 51.966 C 130.553 52.018,131.994 52.018,132.832 51.965 C 133.670 51.912,132.915 51.869,131.154 51.870 C 129.393 51.870,128.707 51.913,129.630 51.966 M153.169 51.873 C 153.169 51.931,153.639 52.023,154.214 52.078 C 154.788 52.133,155.202 52.086,155.132 51.973 C 155.005 51.768,153.169 51.674,153.169 51.873 M205.035 52.164 C 204.951 52.383,205.020 53.253,205.188 54.099 C 206.925 62.843,206.515 83.206,204.430 91.661 C 204.286 92.248,203.966 93.869,203.720 95.264 C 203.474 96.658,203.060 98.639,202.800 99.666 C 202.539 100.694,202.120 102.495,201.868 103.669 C 201.289 106.367,200.723 107.794,200.425 107.311 C 200.252 107.032,200.174 107.047,200.046 107.383 C 199.956 107.615,200.000 107.805,200.142 107.805 C 200.474 107.805,200.477 109.463,200.146 110.261 C 200.006 110.598,199.465 112.255,198.944 113.943 C 198.423 115.630,197.825 117.432,197.615 117.945 C 197.405 118.459,196.912 119.720,196.518 120.747 C 195.107 124.431,192.103 131.106,191.795 131.243 C 191.684 131.292,191.594 131.422,191.594 131.531 C 191.594 131.874,188.109 138.002,186.800 139.960 C 185.015 142.631,184.981 142.712,186.003 141.859 C 187.039 140.994,191.127 137.255,194.377 134.199 C 195.562 133.085,196.951 131.787,197.465 131.314 C 201.634 127.481,209.090 120.464,212.408 117.251 C 217.836 111.996,219.195 110.733,220.078 110.130 C 220.554 109.806,220.944 109.396,220.945 109.221 C 220.946 109.046,221.298 108.695,221.727 108.442 C 222.156 108.189,222.607 107.770,222.728 107.512 C 222.849 107.255,224.630 105.310,226.684 103.192 C 233.180 96.494,238.911 90.288,241.761 86.864 C 242.715 85.717,244.156 84.067,244.963 83.196 C 245.771 82.324,246.551 81.398,246.698 81.138 C 246.845 80.877,247.530 80.016,248.220 79.224 C 250.827 76.235,254.492 71.856,255.677 70.314 C 256.353 69.433,257.887 67.512,259.085 66.044 C 260.283 64.576,261.802 62.715,262.460 61.908 C 263.936 60.099,267.485 55.639,268.268 54.610 C 268.586 54.192,269.125 53.504,269.465 53.081 C 269.806 52.658,270.009 52.190,269.917 52.040 C 269.614 51.550,205.223 51.674,205.035 52.164 M155.632 54.970 C 155.632 55.484,155.687 55.694,155.754 55.437 C 155.821 55.180,155.821 54.760,155.754 54.503 C 155.687 54.246,155.632 54.456,155.632 54.970 M202.063 75.517 C 202.063 76.031,202.118 76.241,202.185 75.984 C 202.252 75.727,202.252 75.307,202.185 75.050 C 202.118 74.793,202.063 75.003,202.063 75.517 M157.254 77.518 C 157.256 78.399,157.305 78.727,157.365 78.247 C 157.424 77.768,157.423 77.047,157.362 76.646 C 157.301 76.245,157.253 76.638,157.254 77.518 M161.793 83.256 C 161.793 84.209,161.842 84.600,161.901 84.123 C 161.960 83.646,161.960 82.865,161.901 82.388 C 161.842 81.911,161.793 82.302,161.793 83.256 M162.080 93.796 C 162.080 95.851,162.122 96.656,162.173 95.585 C 162.224 94.515,162.223 92.834,162.172 91.850 C 162.121 90.865,162.080 91.741,162.080 93.796 M157.257 95.264 C 157.257 96.217,157.305 96.608,157.364 96.131 C 157.424 95.654,157.424 94.873,157.364 94.396 C 157.305 93.919,157.257 94.310,157.257 95.264 M156.967 99.800 C 156.967 100.314,157.021 100.524,157.089 100.267 C 157.156 100.010,157.156 99.590,157.089 99.333 C 157.021 99.076,156.967 99.286,156.967 99.800 M161.775 102.869 C 161.778 103.456,161.833 103.664,161.897 103.332 C 161.960 103.001,161.958 102.520,161.891 102.265 C 161.824 102.010,161.772 102.282,161.775 102.869 M198.250 103.554 C 198.124 104.456,198.153 104.499,198.792 104.368 C 199.259 104.272,199.328 104.200,199.015 104.133 C 198.760 104.078,198.525 103.726,198.474 103.319 C 198.393 102.685,198.368 102.712,198.250 103.554 M200.201 105.804 C 200.204 106.391,200.258 106.600,200.322 106.268 C 200.386 105.936,200.384 105.455,200.317 105.200 C 200.250 104.945,200.198 105.217,200.201 105.804 M156.433 106.471 C 156.433 106.985,156.488 107.195,156.555 106.938 C 156.622 106.681,156.622 106.261,156.555 106.004 C 156.488 105.747,156.433 105.957,156.433 106.471 M279.927 124.216 C 275.517 137.769,251.134 154.549,213.075 170.222 C 212.782 170.343,212.241 170.577,211.875 170.741 C 208.726 172.150,199.302 175.599,192.128 177.968 C 179.547 182.121,172.753 187.769,172.938 193.921 C 172.952 194.404,173.090 194.127,173.333 193.124 C 174.976 186.342,180.464 182.002,191.995 178.366 C 193.756 177.811,195.317 177.272,195.464 177.168 C 195.610 177.064,196.147 176.890,196.656 176.781 C 197.165 176.672,197.765 176.488,197.990 176.372 C 198.215 176.256,199.660 175.719,201.201 175.179 C 204.251 174.109,204.592 173.980,206.044 173.343 C 206.580 173.108,207.123 172.915,207.250 172.915 C 207.453 172.915,210.505 171.716,212.008 171.045 C 212.302 170.914,213.742 170.313,215.210 169.708 C 216.678 169.104,218.246 168.443,218.694 168.239 C 219.143 168.036,220.464 167.458,221.630 166.956 C 223.986 165.941,226.210 164.947,228.419 163.922 C 230.760 162.835,239.607 158.406,241.361 157.443 C 242.241 156.959,243.945 156.043,245.147 155.407 C 246.966 154.444,249.360 153.072,251.368 151.841 C 252.485 151.155,255.527 149.243,256.140 148.841 C 256.524 148.588,257.161 148.199,257.556 147.975 C 257.950 147.751,259.036 146.997,259.967 146.299 C 260.899 145.601,262.000 144.790,262.415 144.496 C 262.829 144.203,263.305 143.839,263.472 143.687 C 263.639 143.535,264.196 143.119,264.710 142.762 C 265.223 142.405,265.779 141.988,265.944 141.837 C 266.109 141.685,266.827 141.081,267.540 140.494 C 273.932 135.231,281.130 125.695,280.384 123.477 C 280.324 123.297,280.118 123.629,279.927 124.216 M279.472 134.119 C 278.911 134.649,277.687 135.760,276.751 136.587 C 275.816 137.415,274.662 138.452,274.188 138.893 C 272.719 140.257,270.013 142.578,268.597 143.689 C 267.853 144.273,267.185 144.824,267.111 144.915 C 267.004 145.048,263.552 147.632,259.706 150.459 C 258.921 151.035,252.170 155.154,249.099 156.930 C 245.289 159.133,237.162 163.318,232.955 165.243 C 232.148 165.612,230.707 166.271,229.753 166.708 C 228.799 167.144,226.938 167.949,225.617 168.497 C 223.003 169.580,222.753 169.686,220.895 170.499 C 220.206 170.801,219.480 171.047,219.281 171.047 C 219.082 171.047,218.805 171.148,218.666 171.271 C 218.445 171.467,213.128 173.474,207.538 175.473 C 206.548 175.828,204.924 176.418,203.930 176.785 C 202.937 177.151,201.983 177.452,201.811 177.452 C 201.640 177.452,201.417 177.585,201.317 177.747 C 201.104 178.090,201.569 177.976,204.136 177.053 C 205.090 176.709,206.951 176.048,208.272 175.582 C 239.092 164.716,261.695 151.713,279.189 134.787 L 280.726 133.300 280.656 171.907 C 280.618 193.141,280.674 210.427,280.780 210.321 C 280.937 210.164,281.066 168.822,281.001 139.493 C 280.986 132.611,281.003 132.672,279.472 134.119 M135.023 167.312 C 134.724 167.899,134.539 168.379,134.612 168.379 C 134.686 168.379,134.991 167.899,135.290 167.312 C 135.590 166.724,135.775 166.244,135.701 166.244 C 135.628 166.244,135.323 166.724,135.023 167.312 M200.000 178.176 C 199.706 178.246,199.352 178.412,199.213 178.545 C 199.073 178.677,198.773 178.787,198.546 178.788 C 198.318 178.788,197.788 178.969,197.368 179.188 C 196.947 179.407,196.460 179.586,196.285 179.586 C 196.109 179.586,195.733 179.767,195.448 179.987 C 194.786 180.499,195.020 180.431,198.399 179.128 C 201.221 178.040,201.665 177.775,200.000 178.176 M193.329 180.775 C 192.889 180.982,191.928 181.410,191.194 181.727 C 178.585 187.168,175.373 192.702,178.782 203.115 C 179.288 204.661,181.764 210.510,182.320 211.474 C 182.489 211.768,182.972 212.636,183.393 213.404 C 184.376 215.199,184.030 215.080,188.373 215.119 C 192.103 215.153,192.128 215.157,192.128 215.766 C 192.128 216.103,192.259 216.460,192.418 216.559 C 192.607 216.676,192.677 216.473,192.618 215.974 L 192.528 215.210 195.990 215.135 C 199.322 215.063,199.469 215.083,199.920 215.669 L 200.388 216.278 200.394 215.697 L 200.400 215.116 211.189 215.095 L 221.977 215.074 222.093 215.676 L 222.209 216.278 222.245 215.677 L 222.282 215.077 248.837 215.077 C 269.315 215.077,275.644 215.000,276.495 214.743 C 277.689 214.382,280.459 211.989,280.445 211.331 C 280.440 211.106,280.187 211.279,279.846 211.741 C 278.898 213.026,277.999 213.774,276.762 214.309 C 275.647 214.792,274.010 214.810,230.149 214.810 L 184.693 214.810 184.130 214.019 C 182.892 212.282,179.925 205.559,178.766 201.868 C 175.777 192.350,179.560 186.860,192.929 181.317 C 193.883 180.921,194.713 180.550,194.774 180.492 C 195.041 180.240,194.060 180.432,193.329 180.775 M124.483 190.527 C 124.380 191.134,124.353 191.686,124.421 191.755 C 124.489 191.823,124.625 191.379,124.723 190.767 C 124.821 190.156,124.849 189.603,124.785 189.539 C 124.721 189.476,124.586 189.920,124.483 190.527 M128.414 194.530 C 128.414 195.043,128.469 195.254,128.536 194.997 C 128.603 194.740,128.603 194.320,128.536 194.063 C 128.469 193.806,128.414 194.016,128.414 194.530 M123.883 195.464 C 123.886 196.051,123.941 196.259,124.005 195.928 C 124.068 195.596,124.066 195.115,123.999 194.860 C 123.932 194.605,123.880 194.877,123.883 195.464 M172.736 196.798 C 172.737 197.825,172.785 198.213,172.843 197.659 C 172.901 197.106,172.900 196.265,172.841 195.791 C 172.782 195.318,172.735 195.771,172.736 196.798 M128.425 201.734 C 128.425 202.395,128.477 202.665,128.541 202.335 C 128.604 202.005,128.604 201.464,128.541 201.134 C 128.477 200.804,128.425 201.074,128.425 201.734 M128.766 213.540 C 129.198 214.250,129.193 214.279,128.582 214.524 C 127.956 214.775,127.956 214.776,128.686 214.793 C 129.573 214.813,129.640 214.321,128.870 213.439 L 128.321 212.809 128.766 213.540 M123.749 214.738 C 124.373 214.795,125.394 214.795,126.017 214.738 C 126.641 214.682,126.131 214.636,124.883 214.636 C 123.636 214.636,123.125 214.682,123.749 214.738 M144.579 215.009 C 146.679 215.055,150.042 215.055,152.051 215.009 C 154.060 214.964,152.342 214.927,148.232 214.927 C 144.123 214.927,142.479 214.964,144.579 215.009 M202.539 215.811 C 202.551 216.395,203.061 216.784,203.065 216.211 C 203.067 215.881,202.949 215.610,202.802 215.610 C 202.655 215.610,202.537 215.700,202.539 215.811 M210.807 216.011 C 210.807 216.231,210.927 216.411,211.074 216.411 C 211.221 216.411,211.341 216.231,211.341 216.011 C 211.341 215.791,211.221 215.610,211.074 215.610 C 210.927 215.610,210.807 215.791,210.807 216.011 " stroke="none" fill="#d5dfcc" fill-rule="evenodd"></path><path id="path4" d="M274.516 52.456 C 274.406 52.567,274.316 52.812,274.316 53.001 C 274.316 53.190,274.046 53.633,273.716 53.985 C 273.386 54.338,272.575 55.502,271.915 56.573 C 271.254 57.644,270.589 58.652,270.437 58.813 C 270.285 58.974,269.868 59.586,269.511 60.173 C 269.155 60.761,268.768 61.361,268.653 61.508 C 268.537 61.654,266.971 63.756,265.172 66.177 C 255.424 79.303,238.332 97.885,220.131 115.143 C 218.584 116.611,216.423 118.647,215.330 119.668 C 214.237 120.688,212.140 122.670,210.670 124.071 C 209.200 125.472,205.597 128.897,202.664 131.682 C 191.509 142.277,177.082 156.944,171.554 163.309 C 170.471 164.556,169.501 165.639,169.400 165.715 C 169.188 165.873,167.553 167.952,164.154 172.382 C 159.909 177.915,155.073 186.148,155.379 187.319 C 155.456 187.613,155.390 187.815,155.227 187.783 C 154.727 187.683,153.463 190.673,152.713 193.729 C 150.858 201.283,154.034 208.203,161.664 213.234 L 163.702 214.578 170.911 214.525 C 178.977 214.466,178.716 214.503,178.021 213.524 C 177.256 212.445,175.124 208.130,174.344 206.081 C 170.595 196.232,172.333 188.478,179.428 183.398 C 179.882 183.073,180.394 182.688,180.565 182.541 C 181.675 181.592,186.872 179.410,193.062 177.294 C 202.525 174.058,207.398 172.283,209.914 171.157 C 210.376 170.950,210.946 170.781,211.181 170.781 C 211.416 170.781,211.608 170.660,211.608 170.514 C 211.608 170.367,211.798 170.247,212.032 170.247 C 212.265 170.247,213.234 169.887,214.185 169.446 C 215.136 169.006,215.978 168.646,216.056 168.646 C 216.133 168.646,216.575 168.475,217.038 168.266 C 217.500 168.057,218.779 167.502,219.880 167.034 C 220.981 166.565,222.362 165.967,222.949 165.704 C 223.536 165.441,224.676 164.931,225.484 164.570 C 231.409 161.920,242.108 156.532,244.758 154.863 C 245.305 154.518,245.829 154.236,245.921 154.236 C 246.186 154.236,252.523 150.399,255.978 148.147 C 260.039 145.500,266.577 140.647,268.418 138.914 C 272.591 134.986,273.971 133.489,276.639 130.001 C 277.853 128.413,279.503 124.801,280.073 122.482 C 280.586 120.400,280.621 57.740,280.110 56.276 C 279.272 53.869,275.602 51.363,274.516 52.456 M279.113 135.325 C 278.456 135.914,277.498 136.780,276.985 137.250 C 273.277 140.641,266.152 146.569,263.783 148.232 C 263.366 148.526,262.578 149.156,262.033 149.633 C 261.488 150.110,260.977 150.500,260.896 150.500 C 260.815 150.500,259.978 151.011,259.037 151.634 C 258.095 152.258,256.817 153.069,256.197 153.436 C 255.577 153.803,254.658 154.369,254.153 154.695 C 248.742 158.189,237.247 164.115,228.419 167.962 C 227.171 168.505,225.911 169.055,225.617 169.183 C 221.584 170.943,216.456 172.948,210.941 174.922 C 209.033 175.604,207.276 176.265,207.038 176.389 C 206.799 176.513,206.167 176.696,205.634 176.797 C 205.100 176.897,204.598 177.085,204.518 177.215 C 204.437 177.345,204.168 177.452,203.920 177.453 C 203.672 177.454,203.169 177.611,202.802 177.802 C 202.435 177.992,200.994 178.549,199.600 179.039 C 184.158 184.460,177.190 190.197,178.071 196.765 C 178.442 199.525,178.857 201.622,179.078 201.855 C 179.211 201.994,179.320 202.294,179.321 202.522 C 179.321 202.749,179.627 203.656,180.000 204.536 C 180.373 205.417,180.813 206.493,180.979 206.928 C 181.321 207.828,184.372 214.075,184.565 214.272 C 185.070 214.785,276.090 214.240,277.170 213.718 C 278.434 213.105,279.676 211.680,280.144 210.303 C 280.416 209.505,280.653 134.600,280.385 134.332 C 280.342 134.289,279.770 134.737,279.113 135.325 " stroke="none" fill="#58868d" fill-rule="evenodd"></path><path id="path5" d="M119.146 47.372 C 118.999 47.425,118.374 47.599,117.757 47.758 C 116.421 48.101,115.221 49.055,114.251 50.545 L 113.542 51.634 113.542 133.155 C 113.542 223.271,113.393 215.420,115.142 217.278 C 116.990 219.242,113.429 219.086,155.972 219.068 C 179.906 219.058,193.953 218.958,193.854 218.799 C 193.768 218.660,193.818 218.546,193.965 218.546 C 194.111 218.546,194.304 218.664,194.394 218.808 C 194.499 218.978,209.721 219.073,237.705 219.077 L 280.854 219.083 281.921 218.513 C 283.302 217.774,284.125 216.872,284.751 215.413 C 285.241 214.269,285.255 212.049,285.256 133.150 L 285.257 52.064 284.598 50.824 C 283.731 49.193,282.559 48.204,280.859 47.668 C 279.584 47.267,120.229 46.974,119.146 47.372 M199.820 51.733 C 201.417 52.746,202.603 72.274,201.741 83.351 C 201.357 88.286,200.839 91.835,199.582 98.161 C 199.426 98.948,199.361 99.755,199.438 99.955 C 199.514 100.155,199.413 100.482,199.213 100.682 C 198.567 101.329,198.381 103.995,198.972 104.147 C 199.384 104.253,199.368 104.279,198.875 104.305 C 198.171 104.342,197.960 104.718,197.358 107.005 C 196.959 108.519,196.312 110.431,195.597 112.208 C 195.479 112.502,195.110 113.522,194.777 114.476 C 193.451 118.274,189.539 126.667,187.190 130.754 C 186.641 131.708,185.955 132.909,185.664 133.422 C 183.003 138.127,176.058 148.132,173.532 150.901 C 172.951 151.537,169.306 156.014,167.485 158.328 C 164.993 161.494,161.799 165.869,159.852 168.779 C 158.773 170.394,157.668 172.040,157.397 172.437 C 157.126 172.835,156.905 173.215,156.905 173.283 C 156.905 173.350,156.345 174.345,155.661 175.495 C 145.895 191.906,145.996 204.889,155.951 212.962 L 158.065 214.676 157.151 214.850 C 156.649 214.946,151.457 214.992,145.615 214.952 L 134.993 214.881 134.186 214.111 C 127.226 207.475,126.380 194.400,132.080 181.573 C 133.825 177.645,138.674 168.716,141.708 163.843 C 144.863 158.774,151.397 145.757,153.697 139.960 C 154.454 138.052,155.177 136.251,155.304 135.957 C 155.523 135.452,156.499 132.448,157.690 128.619 C 161.379 116.761,162.523 103.423,161.739 81.388 C 161.412 72.209,161.184 68.696,160.080 55.845 C 159.913 53.904,159.847 52.133,159.933 51.909 C 160.109 51.451,199.103 51.279,199.820 51.733 M277.415 52.282 C 278.699 52.903,280.021 54.324,280.599 55.706 C 281.077 56.851,281.247 121.212,280.774 122.135 C 280.639 122.399,280.457 123.074,280.371 123.635 C 279.783 127.457,273.519 135.699,267.545 140.513 C 266.829 141.089,266.109 141.685,265.944 141.837 C 265.779 141.988,265.223 142.405,264.710 142.762 C 264.196 143.119,263.639 143.535,263.472 143.687 C 263.305 143.839,262.829 144.203,262.415 144.496 C 262.000 144.790,260.899 145.601,259.967 146.299 C 259.036 146.997,257.950 147.751,257.556 147.975 C 257.161 148.199,256.524 148.588,256.140 148.841 C 255.527 149.243,252.485 151.155,251.368 151.841 C 249.360 153.072,246.966 154.444,245.147 155.407 C 243.945 156.043,242.241 156.959,241.361 157.443 C 236.874 159.908,227.492 164.431,221.630 166.956 C 220.464 167.458,219.143 168.036,218.694 168.239 C 218.246 168.443,216.678 169.104,215.210 169.708 C 213.742 170.313,212.302 170.914,212.008 171.045 C 210.505 171.716,207.453 172.915,207.250 172.915 C 207.123 172.915,206.580 173.108,206.044 173.343 C 204.592 173.980,204.251 174.109,201.201 175.179 C 199.660 175.719,198.215 176.256,197.990 176.372 C 197.765 176.488,197.165 176.672,196.656 176.781 C 196.147 176.890,195.610 177.064,195.464 177.168 C 195.317 177.272,193.756 177.811,191.995 178.366 C 176.751 183.173,171.143 189.964,173.439 200.838 C 174.234 204.605,175.329 207.234,178.636 213.315 C 179.623 215.130,179.782 215.093,171.090 215.085 L 163.302 215.079 162.171 214.373 C 152.399 208.274,149.464 200.151,153.276 189.755 C 154.816 185.555,161.357 174.237,163.316 172.382 C 163.394 172.308,164.132 171.343,164.957 170.236 C 166.898 167.632,170.334 163.626,175.704 157.705 C 179.164 153.891,208.821 124.587,210.002 123.816 C 210.307 123.617,218.089 116.230,222.653 111.808 C 238.174 96.768,247.870 86.496,257.782 74.593 C 261.488 70.142,264.729 65.871,268.817 60.051 C 270.934 57.038,271.367 56.383,272.859 53.941 L 274.384 51.444 275.352 51.598 C 275.885 51.684,276.813 51.991,277.415 52.282 M155.299 52.293 C 155.453 52.582,155.762 54.833,155.984 57.296 C 158.119 80.958,157.914 98.989,155.319 115.677 C 155.182 116.558,155.001 117.759,154.917 118.346 C 154.722 119.709,152.965 127.573,152.502 129.153 C 152.309 129.813,151.888 131.254,151.566 132.355 C 151.244 133.456,150.620 135.377,150.178 136.624 C 149.736 137.872,149.205 139.373,148.997 139.960 C 148.788 140.547,148.506 141.268,148.369 141.561 C 148.232 141.855,147.632 143.286,147.036 144.741 C 145.952 147.390,140.157 158.893,138.460 161.766 C 137.964 162.605,137.028 164.226,136.379 165.368 C 135.730 166.510,134.419 168.766,133.465 170.380 C 130.058 176.146,126.369 183.824,125.525 186.905 C 124.102 192.097,123.652 199.269,124.505 203.149 C 125.352 207.001,127.193 211.353,128.797 213.296 C 129.957 214.700,129.764 214.810,126.136 214.810 C 121.545 214.810,119.634 213.799,118.330 210.678 C 117.747 209.283,117.748 57.731,118.331 56.078 C 119.043 54.060,120.526 52.686,122.702 52.029 C 124.497 51.487,155.000 51.734,155.299 52.293 M269.917 52.040 C 270.009 52.190,269.806 52.658,269.465 53.081 C 269.125 53.504,268.586 54.192,268.268 54.610 C 267.485 55.639,263.936 60.099,262.460 61.908 C 261.802 62.715,260.283 64.576,259.085 66.044 C 257.887 67.512,256.353 69.433,255.677 70.314 C 254.492 71.856,250.827 76.235,248.220 79.224 C 247.530 80.016,246.845 80.877,246.698 81.138 C 246.551 81.398,245.771 82.324,244.963 83.196 C 244.156 84.067,242.715 85.717,241.761 86.864 C 238.911 90.288,233.180 96.494,226.684 103.192 C 224.630 105.310,222.849 107.255,222.728 107.512 C 222.607 107.770,222.156 108.189,221.727 108.442 C 221.298 108.695,220.946 109.046,220.945 109.221 C 220.944 109.396,220.554 109.806,220.078 110.130 C 219.195 110.733,217.836 111.996,212.408 117.251 C 209.090 120.464,201.634 127.481,197.465 131.314 C 196.951 131.787,195.562 133.085,194.377 134.199 C 191.127 137.255,187.039 140.994,186.003 141.859 C 184.981 142.712,185.015 142.631,186.800 139.960 C 188.109 138.002,191.594 131.874,191.594 131.531 C 191.594 131.422,191.684 131.292,191.795 131.243 C 192.103 131.106,195.107 124.431,196.518 120.747 C 196.912 119.720,197.405 118.459,197.615 117.945 C 197.825 117.432,198.423 115.630,198.944 113.943 C 199.465 112.255,200.006 110.598,200.146 110.261 C 200.477 109.463,200.474 107.805,200.142 107.805 C 200.000 107.805,199.956 107.615,200.046 107.383 C 200.174 107.047,200.252 107.032,200.425 107.311 C 200.723 107.794,201.289 106.367,201.868 103.669 C 202.120 102.495,202.539 100.694,202.800 99.666 C 203.060 98.639,203.474 96.658,203.720 95.264 C 203.966 93.869,204.286 92.248,204.430 91.661 C 206.515 83.206,206.925 62.843,205.188 54.099 C 205.020 53.253,204.951 52.383,205.035 52.164 C 205.223 51.674,269.614 51.550,269.917 52.040 M200.322 106.268 C 200.258 106.600,200.204 106.391,200.201 105.804 C 200.198 105.217,200.250 104.945,200.317 105.200 C 200.384 105.455,200.386 105.936,200.322 106.268 M281.001 139.493 C 281.070 170.773,280.930 210.157,280.750 210.388 C 280.628 210.545,280.450 210.998,280.355 211.394 C 280.139 212.301,277.926 214.230,276.555 214.707 C 275.709 215.002,270.589 215.069,248.899 215.073 L 222.282 215.077 222.245 215.677 L 222.209 216.278 222.093 215.676 L 221.977 215.074 211.189 215.095 L 200.400 215.116 200.394 215.697 L 200.388 216.278 199.920 215.669 C 199.469 215.083,199.322 215.063,195.990 215.135 L 192.528 215.210 192.618 215.974 C 192.677 216.473,192.607 216.676,192.418 216.559 C 192.259 216.460,192.128 216.103,192.128 215.766 C 192.128 215.157,192.103 215.153,188.373 215.119 C 184.030 215.080,184.376 215.199,183.393 213.404 C 182.972 212.636,182.489 211.768,182.320 211.474 C 181.764 210.510,179.288 204.661,178.782 203.115 C 175.373 192.701,178.577 187.180,191.194 181.726 C 191.928 181.408,192.907 180.977,193.369 180.768 C 193.832 180.558,194.332 180.387,194.482 180.387 C 194.631 180.387,195.093 180.214,195.509 180.003 C 196.891 179.300,198.208 178.786,198.624 178.786 C 198.850 178.786,199.109 178.666,199.199 178.519 C 199.290 178.372,199.549 178.252,199.775 178.252 C 200.001 178.252,200.565 178.084,201.027 177.878 C 201.490 177.672,202.738 177.191,203.803 176.810 C 204.867 176.429,206.548 175.828,207.538 175.473 C 213.128 173.474,218.445 171.467,218.666 171.271 C 218.805 171.148,219.082 171.047,219.281 171.047 C 219.480 171.047,220.206 170.801,220.895 170.499 C 222.753 169.686,223.003 169.580,225.617 168.497 C 226.938 167.949,228.799 167.144,229.753 166.708 C 230.707 166.271,232.148 165.612,232.955 165.243 C 237.162 163.318,245.289 159.133,249.099 156.930 C 252.170 155.154,258.921 151.035,259.706 150.459 C 263.552 147.632,267.004 145.048,267.111 144.915 C 267.185 144.824,267.853 144.273,268.597 143.689 C 270.013 142.578,272.719 140.257,274.188 138.893 C 274.662 138.452,275.816 137.415,276.751 136.587 C 277.687 135.760,278.911 134.649,279.472 134.119 C 281.003 132.672,280.986 132.611,281.001 139.493 M203.065 216.211 C 203.061 216.696,203.011 216.735,202.802 216.411 C 202.468 215.894,202.468 215.610,202.802 215.610 C 202.949 215.610,203.067 215.881,203.065 216.211 M211.341 216.011 C 211.341 216.231,211.221 216.411,211.074 216.411 C 210.927 216.411,210.807 216.231,210.807 216.011 C 210.807 215.791,210.927 215.610,211.074 215.610 C 211.221 215.610,211.341 215.791,211.341 216.011 " stroke="none" fill="#fff5e4" fill-rule="evenodd"></path></g></svg>