<svg width="600" height="400" xmlns="http://www.w3.org/2000/svg">
 <!-- Created with Method Draw - http://github.com/duopixel/Method-Draw/ -->

 <g>
  <title>background</title>
  <rect fill="#fff" id="canvas_background" height="402" width="602" y="-1" x="-1"/>
  <g display="none" overflow="visible" y="0" x="0" height="100%" width="100%" id="canvasGrid">
   <rect fill="url(#gridpattern)" stroke-width="0" y="0" x="0" height="100%" width="100%"/>
  </g>
 </g>
 <g>
  <title>Layer 1</title>
  <linearGradient y2="0.312766" x2="0.708276" y1="0.816298" x1="0.315807" id="svg_21">
   <stop stop-color="#DAE639" offset="0"/>
   <stop stop-color="#C6D93B" offset="0.1609"/>
   <stop stop-color="#81AE43" offset="0.7326"/>
   <stop stop-color="#669D46" offset="1"/>
  </linearGradient>
  <linearGradient y2="0.722925" x2="0.585674" y1="0.211052" x1="0.448608" id="svg_20">
   <stop stop-color="#DAE639" offset="0"/>
   <stop stop-color="#C6D93B" offset="0.1609"/>
   <stop stop-color="#81AE43" offset="0.7326"/>
   <stop stop-color="#669D46" offset="1"/>
  </linearGradient>
  <g stroke="null" id="svg_25">
   <path stroke="null" id="svg_23" d="m397.325958,172.757782l-37.525909,-35.125351c13.276733,57.309769 -26.224274,92.537842 -26.224274,92.537842c-34.453583,31.83876 -37.416199,66.655991 -35.880035,85.245712c14.922638,0.616211 29.954895,-4.416351 41.256622,-15.097778l58.373596,-54.639389c21.506042,-20.027603 21.506042,-52.790726 0,-72.921036z" fill="url(#svg_21)"/>
   <path stroke="null" id="svg_24" d="m316.129547,212.504852c38.184235,-34.714493 32.91745,-71.996643 26.663147,-90.791771l-3.730652,-3.492035c-1.20697,-1.12973 -2.30426,-2.156784 -3.51123,-3.28656c11.301697,53.71508 -24.468597,87.71064 -24.468597,87.71064c-48.608124,47.655457 -30.393768,99.72728 -30.393768,99.72728l-8.558563,-13.249084c-27.650665,-56.796204 20.847687,-103.732727 20.847687,-103.732727c33.027222,-31.941498 32.259125,-64.807289 27.321564,-84.732216c-3.401459,-3.183884 -6.583557,-6.162323 -9.216919,-8.627258c9.765472,52.277168 -25.017273,85.245705 -25.017273,85.245705c-48.608124,47.655426 -30.393799,99.727264 -30.393799,99.727264l-8.558563,-13.249054c-27.650635,-56.796219 20.847778,-103.732727 20.847778,-103.732727c28.30899,-27.422424 31.82016,-55.461113 29.077026,-75.488716l-94.363342,88.326881c-21.506073,20.130356 -21.506073,52.893463 0,73.023773l58.373596,54.639404c8.668274,8.11377 19.421326,12.940948 30.613251,14.481506c-25.236664,-57.412476 24.468658,-102.500305 24.468658,-102.500305z" fill="url(#svg_20)"/>
  </g>
 </g>
</svg>