<?xml version="1.0" encoding="utf-8"?>
<!-- Generator: Adobe Illustrator 14.0.0, SVG Export Plug-In . SVG Version: 6.00 Build 43363)  -->
<!DOCTYPE svg PUBLIC "-//W3C//DTD SVG 1.1//EN" "http://www.w3.org/Graphics/SVG/1.1/DTD/svg11.dtd">
<svg version="1.1" id="图层_1" xmlns="http://www.w3.org/2000/svg" xmlns:xlink="http://www.w3.org/1999/xlink" x="0px" y="0px"
	 width="900px" height="600px" viewBox="0 0 900 600" enable-background="new 0 0 900 600" xml:space="preserve">
<rect fill-rule="evenodd" clip-rule="evenodd" fill="#232D54" width="900" height="600"/>
<path fill-rule="evenodd" clip-rule="evenodd" fill="#FFFFFF" d="M343.461,278.193c-19.709-4.706-36.166-21.912-34.406-45.807
	c1.458-19.792,23.873-36.262,43.818-23.739c9.746,6.119,13.972,17.958,13.308,35.442c8.872,0.78,19.15,0.111,28.563,0.334
	c0.757-12.928,0.108-27.306,0.325-40.792c11.252,0,22.504,0,33.756,0c0,7.133,0,14.266,0,21.399c1.407,0,2.813,0,4.22,0
	c0.756-6.465,0.108-14.377,0.325-21.399c12.009,0,24.019,0,36.027,0c0,7.133,0,14.266,0,21.399c1.408,0,2.814,0,4.22,0
	c0.757-6.465,0.11-14.377,0.325-21.399c11.252,0,22.504,0,33.756,0c0,13.597,0,27.195,0,40.792c9.413,0,18.826,0,28.238,0
	c-0.337-25.153,10.076-41.174,31.484-39.12c15.745,1.512,26.362,17.353,23.045,38.117c-0.009,0.325-0.397,0.259-0.648,0.334
	c-4.011-9.773-8.707-20.49-18.178-24.074c-7.133-2.701-15.476,0.408-18.5,5.684c-4.294,7.488-2.922,24.64-2.922,35.107
	c0,13.297,0,25.639,0,38.117c0,12.826,0.363,25.653-1.298,36.779c-4.821,32.271-21.09,54.324-43.818,69.213
	c-15.512,10.16-32.633,16.558-58.749,15.714c-23.14-0.747-40.866-9.244-54.853-19.728c-20.97-15.714-36.034-39.385-38.625-74.561
	c-1.774-24.085-0.324-49.61-0.325-75.9c0-13.446,0.489-26.985-9.413-30.426c-12.117-4.211-21.123,9.081-20.449,20.73
	c0.771,13.314,11.457,26.039,18.501,34.104C342.082,275.538,343.973,276.639,343.461,278.193z M409.026,314.304
	c1.557,25.812,19.506,43.119,46.09,41.126c12.062-0.905,22.479-6.563,28.563-13.708c11.212-13.169,10.063-31.889,10.063-56.507
	c0-22.372,0-46.465,0-67.206c-2.38,0-4.761,0-7.141,0c-0.216,7.022,0.432,14.934-0.325,21.399c-9.953,0-19.907,0-29.861,0
	c0-7.133,0-14.266,0-21.399c-3.354,0-6.708,0-10.062,0c0,7.133,0,14.266,0,21.399c-10.062-0.223-20.989,0.445-30.51-0.334
	c0-7.021,0-14.042,0-21.064c-2.272,0-4.544,0-6.816,0C410.407,249.035,407.185,283.778,409.026,314.304z M397.341,328.681
	c-4.317-19.625-1.435-46.668-2.271-69.88c-9.629,0-19.259,0-28.888,0c1.05,30.014-3.051,65.334,4.544,88.605
	C379.691,341.261,389.007,335.476,397.341,328.681z M507.697,259.804c-0.734,23.093,1.889,49.646-2.271,69.212
	c8.708,6.298,17.516,12.494,26.615,18.39c7.428-23.333,3.035-58.84,4.219-88.605c-9.412,0-18.825,0-28.237,0
	C507.644,258.856,507.67,259.329,507.697,259.804z M402.859,342.725c-8.974,6.136-18.316,11.893-26.615,18.724
	c13.891,23.919,34.167,41.26,68.161,44.469c0-12.147,0-24.295,0-36.444C424.377,366.922,411.594,356.908,402.859,342.725z
	 M526.523,360.779c-9.283-5.707-17.474-12.538-26.94-18.055c-8.322,14.498-21.45,24.044-41.222,26.748c0,12.149,0,24.297,0,36.444
	C492.371,402.501,513.12,385.424,526.523,360.779z"/>
<ellipse fill-rule="evenodd" clip-rule="evenodd" fill="none" stroke="#FFFFFF" stroke-width="20" cx="450" cy="300" rx="194.287" ry="188"/>
</svg>
