<svg width="900" height="600" xmlns="http://www.w3.org/2000/svg">
 <!-- Created with MK Tools - http://tool.mkblog.cn/svg/ -->

 <g>
  <title>background</title>
  <rect fill="#fff" id="canvas_background" height="602" width="902" y="-1" x="-1"/>
 </g>
 <g>
  <title>Layer 1</title>
  <g stroke="null" id="svg_6">
   <path stroke="null" id="svg_4" fill="#91c51c" d="m569.532593,244.753189c-6.196777,-27.580261 -20.139709,-49.272522 -47.15802,-60.614502a74.85791,74.869469 0 0 0 -50.504272,-2.231201c-29.620972,8.367004 -50.504333,27.952057 -66.925934,52.991211a227.238358,227.273438 0 0 0 -16.669586,32.290604c-0.433716,0.867645 -1.363251,2.045258 -0.371765,2.726929s1.921051,-0.681671 2.54071,-1.425385a168.554245,168.580261 0 0 1 55.771606,-46.11171a90.226097,90.240028 0 0 1 46.724243,-11.218079a60.915005,60.924408 0 0 1 24.973328,6.879639a13.261254,13.263301 0 0 1 5.019348,5.268127a81.922318,81.934967 0 0 1 11.216309,24.791229c4.151978,17.725693 -2.664551,30.988998 -16.359619,41.959152a169.235886,169.262009 0 0 1 -46.352356,23.179749c-19.148376,7.189514 -38.792358,12.953369 -57.692688,20.700653a134.223709,134.244431 0 0 0 -24.167694,12.39566c-10.968445,7.189392 -19.644073,16.052307 -19.644073,30.617065a125.610092,125.629486 0 0 1 -8.861481,-17.167908a151.327011,151.350372 0 0 1 -14.190735,-75.179352a124.494652,124.51387 0 0 1 37.181091,-79.083969a139.429062,139.450577 0 0 1 78.080292,-40.471649a94.377983,94.392548 0 0 1 70.953857,13.449188a79.257675,79.269913 0 0 1 31.479919,42.888824a132.116776,132.137177 0 0 1 5.081421,18.593414a7.498186,7.499343 0 0 1 -0.123901,4.772308z"/>
   <path stroke="null" id="svg_5" fill="#2d9c4c" d="m540.841187,367.283783a261.259094,261.299408 0 0 1 -116.872498,34.583801a53.47879,53.487049 0 0 1 -17.599121,-1.549561c-4.833496,-1.301514 -4.833496,-1.425446 -3.284302,-6.197723a77.398621,77.410568 0 0 1 31.541992,-39.294128a240.685547,240.722702 0 0 1 48.521301,-24.047424c20.449646,-8.057251 41.333008,-14.874695 60.97699,-24.791229a106.58577,106.602226 0 0 0 34.826294,-24.915192a59.11792,59.127048 0 0 0 12.393677,-23.799561c0.309814,-1.11554 0,-2.850967 1.735107,-2.789017s1.487244,1.735428 1.859009,2.850998a100.264992,100.280472 0 0 1 1.115479,52.247467a162.543304,162.56839 0 0 1 -49.574829,82.864655a160.06456,160.089264 0 0 1 -77.33667,41.525238a126.415672,126.435188 0 0 1 -99.955109,-20.080811a148.724335,148.747284 0 0 1 -57.320831,-67.803986c-19.705933,-48.65274 -12.021881,-94.020737 18.590546,-135.917801a168.492279,168.51828 0 0 1 38.234528,-37.18692c2.47876,-1.797333 4.957489,-3.594696 7.498199,-5.330048c0.867615,-0.619781 1.673187,-1.61142 3.160431,-0.805725a100.698761,100.71431 0 0 1 -10.162872,9.172791a161.118027,161.142899 0 0 0 -44.989105,66.50235c-15.368164,46.607559 -6.94043,89.558334 21.99884,128.604446a110.923561,110.940689 0 0 0 47.095978,37.682617a94.501915,94.51651 0 0 0 30.984283,6.197845a143.70488,143.727066 0 0 0 114.641663,-44.686157a16.669519,16.672092 0 0 0 1.859131,-2.293152s0.06189,-0.185974 0.06189,-0.743774z"/>
  </g>
 </g>
</svg>