<?xml version="1.0" encoding="utf-8"?>
<!-- Generator: Adobe Illustrator 14.0.0, SVG Export Plug-In . SVG Version: 6.00 Build 43363)  -->
<!DOCTYPE svg PUBLIC "-//W3C//DTD SVG 1.1//EN" "http://www.w3.org/Graphics/SVG/1.1/DTD/svg11.dtd">
<svg version="1.1" id="图层_1" xmlns="http://www.w3.org/2000/svg" xmlns:xlink="http://www.w3.org/1999/xlink" x="0px" y="0px"
	 width="900px" height="600px" viewBox="0 0 900 600" enable-background="new 0 0 900 600" xml:space="preserve">
<rect fill="#FFFFFF" width="900" height="600"/>
<g>
	<g>
		<path fill="#173558" d="M466.707,128.25c0,0,28.39,54.843-15.517,46.698c-23.446-4.736-47.4-6.668-71.328-5.755l90.305,33.339
			c13.404,3.154,26.196,8.399,37.878,15.53C509.013,191.165,498.594,160.576,466.707,128.25z"/>
		<path fill="#173558" d="M460.604,163.219c7.888-5.792,7.069-17.303-1.786-25.702s-22.325-10.461-30.25-4.67
			c-7.926,5.792-7.07,17.304,1.785,25.702C439.21,166.948,452.753,169.047,460.604,163.219z"/>
		<path fill="#EE4443" d="M301.873,194.134c0,0,62.994,3.62,33.823,36.417c-15.985,17.374-29.73,36.581-40.93,57.195l101.728-86.879
			C373.686,189.029,342.951,184.323,301.873,194.134z"/>
		<path fill="#EE4443" d="M310.691,239.963c11.87-3.258,20.502-13.647,19.274-23.168c-1.228-9.52-11.87-14.479-23.776-11.33
			s-20.539,13.611-19.312,23.132C288.106,238.116,298.785,243.221,310.691,239.963z"/>
		<path fill="#173558" d="M320.478,347.693c-9.116-3.62-18.939,2.715-21.99,14.48c-3.051,11.764,1.897,24.108,11.162,27.838
			c9.266,3.729,18.939-2.717,21.99-14.48C334.691,363.766,329.557,351.422,320.478,347.693z"/>
		<path fill="#173558" d="M339.044,283.909c-21.804,13.539-41.077,36.996-52.761,76.02c0,0,34.604-51.331,49.338-10.28
			c7.493,22.115,17.74,43.256,30.511,62.951L339.044,283.909z"/>
		<path fill="#00ACA4" d="M436.978,436.745c-7.852,5.792-7.07,17.304,1.786,25.702c8.855,8.397,22.324,10.461,30.25,4.669
			s7.069-17.304-1.786-25.701C458.372,433.017,444.828,430.953,436.978,436.745z"/>
		<path fill="#00ACA4" d="M419.563,396.78c-10.466-2.464-20.568-6.21-30.064-11.149c0,25.991,11.163,55.276,41.376,86.119
			c0,0-28.391-54.843,15.516-46.734c23.446,4.742,47.4,6.675,71.328,5.756L419.563,396.78z"/>
		<path fill="#173558" d="M605.866,369.015c-1.229-9.521-11.907-14.479-23.777-11.33c-11.868,3.149-20.501,13.647-19.272,23.167
			c1.228,9.521,11.868,14.48,23.775,11.331C598.498,389.033,607.094,378.535,605.866,369.015L605.866,369.015z"/>
		<path fill="#173558" d="M557.048,367.168c15.992-17.367,29.737-36.576,40.93-57.195l-106.416,84.201
			c23.367,13.72,55.44,19.801,99.347,9.303C590.871,403.369,527.877,399.965,557.048,367.168z"/>
		<path fill="#FBB015" d="M579.559,240.47c9.079,3.62,18.94-2.715,21.953-14.48c3.015-11.765-1.897-24.109-11.162-27.838
			s-18.938,2.715-21.99,14.48C565.309,224.396,570.48,236.85,579.559,240.47z"/>
		<path fill="#FBB015" d="M564.416,238.406c-7.487-22.164-17.733-43.354-30.511-63.096l19.311,133.07
			c24.93-12.344,47.479-36.489,60.501-80.255C613.717,228.125,579.15,279.457,564.416,238.406z"/>
	</g>
</g>
</svg>
