<svg width="599.9999999999999" height="400" xmlns="http://www.w3.org/2000/svg">
 <!-- Created with Method Draw - http://github.com/duopixel/Method-Draw/ -->

 <g>
  <title>background</title>
  <rect fill="#00909e" id="canvas_background" height="402" width="602" y="-1" x="-1"/>
  <g display="none" overflow="visible" y="0" x="0" height="100%" width="100%" id="canvasGrid">
   <rect fill="url(#gridpattern)" stroke-width="0" y="0" x="0" height="100%" width="100%"/>
  </g>
 </g>
 <g>
  <title>Layer 1</title>
  <g stroke="null" id="svg_25">
   <path stroke="null" id="svg_24" fill="#ffffff" d="m413.965576,171.653168l-16.569489,8.628998c4.166931,21.198486 1.617798,43.943146 -8.284698,64.343597c-15.049896,30.924805 -45.100464,52.871429 -80.249451,56.013794l0.048981,-18.554932c6.274902,-0.698303 12.304565,-2.094879 18.040222,-4.189789l0,0.049896c14.412537,-5.187378 27.452454,-14.514709 37.256836,-27.333527c3.676697,-4.838303 6.86319,-10.075577 9.412323,-15.661926c2.255035,-4.888123 4.019897,-9.975769 5.245392,-15.163147l-53.63031,0.049866c-14.216492,19.203339 -40.492432,17.956314 -53.434265,0.448944c-7.59845,-10.275024 -8.774963,-23.792145 -3.088409,-35.364014c14.020355,-28.53064 54.561768,-22.994095 61.866119,6.933105l-17.353912,0c-8.28479,-13.766479 -28.874176,-7.731186 -28.874176,8.13028c0,15.911285 20.638367,21.896713 28.874176,8.130188l33.678253,0c4.657135,-32.670547 -20.001007,-58.108704 -48.237854,-58.108704c-45.492676,0 -65.542786,55.115997 -34.707794,85.791428c19.069672,19.003754 49.267395,19.053665 68.435028,0.349091l19.461884,0c-34.756805,51.574631 -114.761108,26.735001 -114.761108,-36.112167c0,-35.314117 28.138763,-63.944473 62.846558,-63.944473c36.031372,0 64.954437,30.825058 62.748505,67.884903l18.383331,0c0.539276,-11.272598 -1.176605,-22.595032 -5.1474,-33.169312c17.500977,-9.127808 11.275146,-5.885696 32.256622,-16.809143c-32.354584,-78.608894 -132.654144,-98.310982 -191.431854,-37.95771l15.932236,9.875977c45.590652,-42.945557 117.996597,-33.169327 151.233688,20.150978c-0.049103,0.049896 -16.128326,8.379639 -16.177307,8.42955c-3.431641,-5.287186 -7.451416,-10.125381 -11.912476,-14.414978l0.049072,0c-34.756775,-33.518486 -90.348083,-29.378532 -119.957458,9.377213c-18.922607,-11.771393 -10.392807,-6.484222 -31.031174,-19.253174c-24.560135,34.516052 -28.481857,78.658707 -13.137955,115.868225c2.353104,5.686218 5.098328,11.122955 8.235718,16.310333c16.079315,26.635254 42.061127,46.287445 72.700073,53.71936l0.048981,-19.003754c-23.775757,-6.933136 -43.825882,-22.595062 -56.620636,-43.145081c-19.020691,-30.525757 -20.001144,-67.98465 -5.196381,-98.560349c0.097961,0.049881 15.441986,9.576691 15.54007,9.626572c-2.598267,5.636353 -4.559052,11.621765 -5.882736,17.856613l-0.048965,-0.049881c-3.186493,15.312775 -2.009903,31.523315 3.529602,46.337326c10.686798,28.630356 36.374481,49.379898 66.76828,52.871445c-0.049011,22.644928 0,14.265289 -0.049011,36.860321c38.580536,3.391754 79.269012,-13.916107 104.368347,-49.180389c3.529602,-4.937958 6.666992,-10.175232 9.412323,-15.661865c12.892822,-25.488068 16.030212,-54.916473 9.412201,-82.399628l0,-0.000061z"/>
  </g>
 </g>
</svg>