<svg width="600" height="400" xmlns="http://www.w3.org/2000/svg">
 <!-- Created with Method Draw - http://github.com/duopixel/Method-Draw/ -->

 <g>
  <title>background</title>
  <rect fill="#fff" id="canvas_background" height="402" width="602" y="-1" x="-1"/>
  <g display="none" overflow="visible" y="0" x="0" height="100%" width="100%" id="canvasGrid">
   <rect fill="url(#gridpattern)" stroke-width="0" y="0" x="0" height="100%" width="100%"/>
  </g>
 </g>
 <g>
  <title>Layer 1</title>
  <g stroke="null" id="svg_20">
   <g stroke="null" transform="matrix(3.55539 0 0 3.39104 -403.964 -239.658)" id="svg_13">
    <path stroke="null" id="svg_14" d="m202.833817,108.566292c0.006989,-2.406998 0.044998,-4.807999 -0.507004,-7.171005c-0.405991,-1.744995 -1.487,-4.830994 -3.792999,-5.227997c-2.555008,-0.434998 -4.005997,2.245003 -4.602005,4.049995c-0.597992,1.774002 -0.713989,3.578003 -0.839996,5.413002c-0.07399,0.941002 -0.007004,1.907005 -0.007004,2.848007c0,0.036987 -0.006989,0.080994 -0.006989,0.116989c-0.059998,0.083008 -0.090012,0.16301 -0.090012,0.258011l0,2.356003c0,0.110992 0.052002,0.221985 0.143005,0.309998c0.147003,0.147003 0.410004,0.25 0.705002,0.25l2.451996,0c0.03801,0 0.074005,-0.006012 0.112,-0.006012c0.080002,0.065002 0.102005,0.168015 0.094009,0.279007c-0.206009,0.160995 -0.343002,0.457001 -0.343002,0.787003l0,1.481003c0,0.30899 0.115997,0.580994 0.300995,0.75c0,0.30899 -0.016998,0.653 -0.030991,0.942993c-0.060013,0.860992 -0.095001,1.722 -0.119019,2.591003l1.672012,1.67099l1.619995,-1.620987c-0.014008,-0.448013 -0.026993,-0.891006 -0.059006,-1.340012c-0.042999,-0.734985 -0.088989,-1.465988 -0.132996,-2.194c0.221008,-0.154999 0.367004,-0.455994 0.367004,-0.800995l0,-1.481003c0,-0.315994 -0.123001,-0.595993 -0.322998,-0.764999c0.007996,-0.125992 0.007996,-0.235992 0.015991,-0.315994c0.059006,0.014999 0.125,0.020996 0.19101,0.020996l2.459991,0c0.469009,0 0.846008,-0.25 0.846008,-0.559998l0,-0.5c0.007996,-0.119003 0.007996,-0.250992 0,-0.376999l0,-1.479996c0,-0.106003 -0.044006,-0.20401 -0.125,-0.285004zm-4.563004,1.988998c-0.126007,0.389999 -0.665009,0.317001 -0.746002,0c-0.419006,-1.604004 0.414001,-10.028 0.414001,-10.028s0.828995,8.445007 0.332001,10.028z" fill="#6B4C2D"/>
    <g stroke="null" id="svg_15">
     <g stroke="null" id="svg_16">
      <path stroke="null" id="svg_17" d="m185.552811,139.585281l11.537003,-9.591003l-4.146011,-3.448997l-9.965988,8.338997l-5.346008,5.180008l-5.388992,-6.432007c0,0 -12.298004,10.611008 -13.505005,11.729004c-1.205002,1.110992 -4.397003,5.011002 -3.886993,15.337997c0.149002,0.931 0.141998,1.168991 0.141998,1.168991l1.162994,0.300018c0,0 6.537003,1.618988 11.076996,0.770996c0.946014,-0.147003 4.112,-1.013 8.453003,-4.690994c0.828003,-0.681 10.095001,-8.445999 10.095001,-8.445999l-5.360001,-6.404007l5.132004,-3.813004z" fill="#6B4C2D"/>
      <path stroke="null" id="svg_18" d="m203.053818,125.034294l7.187988,-5.979004l18.294006,-15.556c0,0 1.743011,-1.576004 2.200989,-2.048996c0.453003,-0.475006 1.455017,-2.108002 0.219025,-3.419006c-1.233032,-1.311996 -3.746017,0.271004 -3.746017,0.271004l-3.686005,2.878998l-15.547989,12.786003l-9.075012,7.590988l4.153015,3.476013z" fill="#6B4C2D"/>
     </g>
     <path stroke="null" id="svg_19" d="m239.842819,162.168289l1.161987,-0.300018c0,0 -0.009003,-0.237991 0.143005,-1.168991c0.51001,-10.326996 -2.686005,-14.227005 -3.890015,-15.337997c-1.204987,-1.117004 -13.502991,-11.729004 -13.502991,-11.729004l-5.388992,6.432007l-5.347,-5.180008l-24.997009,-20.916985l-15.552994,-12.785004l-3.684006,-2.878998c0,0 -2.511993,-1.583 -3.744995,-0.271004c-1.235001,1.311005 -0.235001,2.944 0.218002,3.418999c0.455994,0.473007 2.19899,2.049004 2.19899,2.049004l18.292999,15.556007l24.695007,20.528984l5.134995,3.811996l-5.360001,6.404007c0,0 9.267014,7.766006 10.095001,8.445999c4.339996,3.679001 7.505005,4.543991 8.453003,4.690994c4.539001,0.848999 11.075012,-0.769989 11.075012,-0.769989z" fill="#3D291E"/>
    </g>
   </g>
  </g>
 </g>
</svg>