<?xml version="1.0" encoding="utf-8"?>
<!-- Generator: Adobe Illustrator 14.0.0, SVG Export Plug-In . SVG Version: 6.00 Build 43363)  -->
<!DOCTYPE svg PUBLIC "-//W3C//DTD SVG 1.1//EN" "http://www.w3.org/Graphics/SVG/1.1/DTD/svg11.dtd">
<svg version="1.1" id="图层_1" xmlns="http://www.w3.org/2000/svg" xmlns:xlink="http://www.w3.org/1999/xlink" x="0px" y="0px"
	 width="900px" height="600px" viewBox="0 0 900 600" enable-background="new 0 0 900 600" xml:space="preserve">
<rect fill="#FFFFFF" width="900" height="600"/>
<linearGradient id="SVGID_1_" gradientUnits="userSpaceOnUse" x1="662.5439" y1="6.2432" x2="944.6582" y2="6.2432" gradientTransform="matrix(1.269 0 0 -1.269 -569.7991 307.9233)">
	<stop  offset="0" style="stop-color:#9EC813"/>
	<stop  offset="1" style="stop-color:#00ACD4"/>
</linearGradient>
<path fill="url(#SVGID_1_)" d="M600.611,204.956l-34.074,33.55c23.559,43.127,20.457,95.638-8.018,135.787l-18.779-18.468
	c18.986-29.45,21.744-66.302,7.346-98.174c-13.26,13.055-107.674,106.018-122.024,120.183c-5.108-1.582-10.046-3.655-14.742-6.188
	l181.608-178.813c-56.73-72.676-160.119-90.726-238.459-41.125l34.075,33.55c43.804-23.196,97.138-20.143,137.916,7.896
	l-18.756,18.467c-34.615-21.611-78.79-21.611-113.406,0c-31.045-30.567,18.385,18.109-52.171-51.361
	c-73.547,55.677-92.266,157.423-41.737,234.774l34.074-33.55c-23.56-43.13-20.459-95.644,8.019-135.795l18.802,18.475
	c-18.977,29.457-21.731,66.308-7.337,98.182l122.008-120.16c5.105,1.59,10.043,3.665,14.742,6.196L308.083,407.194
	c56.207,71.968,159.445,91.113,238.472,41.095l-34.072-33.55c-39.008,20.646-85.933,20.646-124.939,0l19.444-19.146
	c32.371,14.18,69.801,11.468,99.715-7.224l52.172,51.346C632.566,383.955,651.049,282.136,600.611,204.956z"/>
</svg>
