<?xml version="1.0" encoding="utf-8"?>
<!-- Generator: Adobe Illustrator 14.0.0, SVG Export Plug-In . SVG Version: 6.00 Build 43363)  -->
<!DOCTYPE svg PUBLIC "-//W3C//DTD SVG 1.1//EN" "http://www.w3.org/Graphics/SVG/1.1/DTD/svg11.dtd">
<svg version="1.1" id="图层_1" xmlns="http://www.w3.org/2000/svg" xmlns:xlink="http://www.w3.org/1999/xlink" x="0px" y="0px"
	 width="900px" height="600px" viewBox="0 0 900 600" enable-background="new 0 0 900 600" xml:space="preserve">
<title>4</title>
<rect fill="#FFFFFF" width="900" height="600"/>
<g>
	<g>
		<path fill="#0F8778" d="M276.629,115.25c-9.826,0.063-17.775,7.732-17.841,17.212v163.367h187.184V115.25H276.629z
			 M414.644,216.975c-2.872,3.296-10.312,10.356-21.168,9.102c-13.971-1.663-17.509-8.343-23.769-6.709
			c-2.691,0.729-6.471,2.742-11.188,4.551v1.488c1.556,0.963,2.867,2.248,3.841,3.763c4.687,7.322,1.692,13.915-1.452,19.516
			c-0.848,1.546-2.086,3.122-3.024,5.076c0.585,1.621,1.847,2.932,3.479,3.618c0.384,0.195,0.531,0.654,0.329,1.025
			c-0.074,0.135-0.189,0.246-0.329,0.317c-2.043,0.797-3.447,2.636-3.629,4.755c0.032,0.35,0.032,0.701,0,1.051
			c0.188,2.531,0.952,4.991,2.237,7.206c12.61,1.108,23.647,5.164,24.706,12.165h-64.411c1.089-7.001,12.097-11.056,24.706-12.165
			c1.284-2.214,2.048-4.675,2.238-7.206v-1.051c-0.204-2.146-1.66-3.993-3.75-4.755c-0.384-0.195-0.531-0.654-0.329-1.024
			c0.074-0.136,0.188-0.246,0.329-0.317c1.625-0.694,2.882-2.002,3.479-3.618c-1.119-1.955-2.329-3.53-3.206-5.076
			c-3.024-5.601-6.049-12.194-1.422-19.516c0.957-1.518,2.261-2.805,3.812-3.763v-1.488c-4.717-1.809-8.498-3.822-11.189-4.551
			c-6.259-1.634-9.768,5.046-23.737,6.709c-10.766,1.254-18.145-5.834-21.167-9.102c-8.044,6.213-10.282,1.75-10.07,0.379
			c0.211-1.371,8.074-8.752,21.772-26.751c11.49-15.111,16.542-40.695,17.901-48.776h-0.15c-1.008-0.016-1.814-0.808-1.814-1.779
			c0-0.972,0.808-1.764,1.814-1.78h28.124c-0.313-2.257-0.871-4.477-1.664-6.622l6.592-4.435l6.44,4.435
			c-0.789,2.145-1.336,4.365-1.633,6.622h28.093c1.02,0,1.846,0.797,1.846,1.78l0,0c0,0.983-0.826,1.779-1.846,1.779l0,0
			c1.392,8.081,6.473,33.665,17.902,48.776c13.729,18.087,21.562,25.147,21.803,26.693
			C425.379,218.842,422.778,223.188,414.644,216.975L414.644,216.975z"/>
		<path fill="#DB3354" d="M623.963,115.25H454.621v180.579h187.214V132.462C641.769,122.971,633.801,115.298,623.963,115.25
			L623.963,115.25z M546.066,278.383h-52.679c-0.101,0-0.182-0.078-0.182-0.175v-11.261h52.858v11.436H546.066z M546.066,262.921
			h-52.859V252.36h52.859V262.921z M546.066,248.335h-52.859v-23.221h52.859V248.335z M546.066,221.176h-52.859V207.26h52.859
			V221.176z M546.066,203.293h-52.859v-70.394c0.023-0.08,0.096-0.137,0.182-0.146h52.679L546.066,203.293L546.066,203.293z
			 M603.158,278.266c-0.016,0.102-0.105,0.176-0.212,0.175h-52.647v-11.494h52.92L603.158,278.266z M603.158,262.98h-52.859v-10.619
			h52.92L603.158,262.98z M603.158,248.394h-52.859v-115.64h52.708c0.117,0,0.212,0.091,0.212,0.204L603.158,248.394z"/>
		<path fill="#DB3354" d="M559.1,186.431c-2.321,0-4.203,1.815-4.203,4.055c0,2.24,1.882,4.055,4.203,4.055s4.203-1.815,4.203-4.055
			l0,0c0.018-2.223-1.839-4.039-4.143-4.055C559.14,186.431,559.119,186.431,559.1,186.431z"/>
		<path fill="#33C9D9" d="M454.59,304.143V484.75h169.344c9.826-0.063,17.775-7.732,17.842-17.212V304.172L454.59,304.143z
			 M549.423,360.445c-0.034-3.684,3.018-6.703,6.833-6.769h30.634c3.83,0.048,6.898,3.073,6.864,6.769v20.422
			c0.018,3.683-3.047,6.689-6.864,6.738h-30.634c-3.813-0.049-6.867-3.062-6.833-6.738V360.445z M502.672,360.445
			c-0.034-3.684,3.019-6.703,6.834-6.769h30.512c3.83,0.048,6.898,3.073,6.865,6.769v20.422c0.033,3.693-3.035,6.719-6.865,6.768
			h-30.512c-3.813-0.049-6.867-3.061-6.834-6.738V360.445z M619.307,394.373c-1.729,0-3.444-0.275-5.08-0.816
			c-2.631,16.949-5.686,31.535-11.794,41.658H493.993c-6.048-10.123-9.072-24.709-11.824-41.658
			c-1.624,0.543-3.331,0.818-5.05,0.816c-8.352,0-15.119-6.53-15.119-14.586c0-12.107,13.486-18.087,24.645-14.178
			c7.591,2.684,12.853,9.479,14.787,20.771c0.574,3.472,1.06,7.233,1.482,11.113c4.203-11.229,43.998-10.443,43.998,2.362v4.58
			H503.73c0,1.168,0.24,2.334,0.393,3.529c0.895-0.826,2.088-1.287,3.326-1.283h81.467c1.236,0.008,2.425,0.467,3.326,1.283
			l0.363-3.529h-43.184v-4.492c0-12.807,39.795-13.594,43.969-2.362c0.453-3.88,0.906-7.644,1.513-11.115
			c1.903-11.289,7.167-18.086,14.757-20.771c11.159-3.909,24.676,2.07,24.676,14.179
			C634.286,387.861,627.587,394.325,619.307,394.373z"/>
		<path fill="#ED9C1F" d="M352.531,361.611c3.757-0.079,6.733-3.082,6.65-6.707s-3.195-6.497-6.953-6.416
			c-3.696,0.078-6.651,2.992-6.652,6.561c-0.001,3.625,3.044,6.564,6.802,6.565C352.43,361.614,352.48,361.613,352.531,361.611z
			 M352.531,393.615c3.758,0,6.804-2.939,6.804-6.564s-3.046-6.563-6.804-6.563c-3.757,0-6.805,2.938-6.805,6.563l0,0
			C345.728,390.676,348.774,393.615,352.531,393.615z M352.531,425.617c3.758,0,6.804-2.938,6.804-6.564
			c0-3.623-3.046-6.563-6.804-6.563c-3.757,0-6.805,2.939-6.805,6.563C345.728,422.679,348.774,425.617,352.531,425.617z"/>
		<path fill="#ED9C1F" d="M258.788,304.143v163.366c0.066,9.479,8.015,17.148,17.841,17.212h169.343V304.143H258.788z
			 M311.526,447.088h-17.449v-4.143c0.201-2.29,1.955-4.173,4.294-4.609v-3.179h8.8v3.179c2.339,0.438,4.093,2.319,4.294,4.609
			L311.526,447.088z M410.683,447.088h-17.447v-4.143c0-2.275,1.844-3.821,4.323-4.609v-3.179h8.83v3.179
			c2.34,0.438,4.095,2.319,4.294,4.609V447.088z M416.912,432.269H287.879v-26.255h129.033V432.269z M416.912,401.783H287.879
			V372.23h129.033V401.783z M416.912,367.885H287.879v-26.256h129.033V367.885z"/>
	</g>
</g>
</svg>
