<svg width="600" height="400" xmlns="http://www.w3.org/2000/svg">
 <!-- Created with Method Draw - http://github.com/duopixel/Method-Draw/ -->

 <g>
  <title>background</title>
  <rect fill="#fff" id="canvas_background" height="402" width="602" y="-1" x="-1"/>
  <g display="none" overflow="visible" y="0" x="0" height="100%" width="100%" id="canvasGrid">
   <rect fill="url(#gridpattern)" stroke-width="0" y="0" x="0" height="100%" width="100%"/>
  </g>
 </g>
 <g>
  <title>Layer 1</title>
  <g stroke="null" id="svg_41">
   <g stroke="null" transform="matrix(1.86247 0 0 1.87598 -264.085 -157.096)" id="svg_5">
    <g stroke="null" id="svg_6">
     <path stroke="null" id="svg_7" d="m261.91861,145.601425c-1.399994,1.600006 -2.700012,3.299988 -4,5c-0.700012,1 -1.399994,2 -2,3l2,0l8.899994,0c1.5,-3.700012 3.200012,-7.100006 5.100006,-10.199997c1.5,-2.5 3.199982,-4.900009 4.899994,-7c1.899994,-2.200012 3.799988,-4.300003 5.899994,-6c-2,0.899994 -4,1.799988 -5.899994,2.899994c-5.5,3.199997 -10.5,7.399994 -14.899994,12.300003z" fill="#879577"/>
     <path stroke="null" id="svg_8" d="m347.718597,143.801422c-0.699982,-0.600006 -1.299988,-1.199997 -2,-1.800003c0.300018,0.300003 0.600006,0.699997 0.899994,1c0.400024,0.400009 0.700012,0.800003 1.100006,1.199997c2.399994,2.900009 4.600006,6.000015 6.5,9.300003l2.200012,0c-2,-2.799988 -4.300018,-5.399994 -6.700012,-7.899994c-0.699982,-0.5 -1.399994,-1.100006 -2,-1.800003z" fill="#879577"/>
     <path stroke="null" id="svg_9" d="m328.718597,136.401428c1.800018,2.099991 3.399994,4.399994 4.899994,7c1.900024,3.099991 3.600006,6.599991 5.100006,10.199997l8.899994,0l2,0c-0.599976,-1 -1.299988,-2 -2,-3c-1.299988,-1.800003 -2.599976,-3.399994 -4,-5c-4.399994,-5 -9.399994,-9.100006 -15,-12.300003c-1.799988,-1.100006 -3.799988,-2.100006 -5.799988,-2.899994c2.100006,1.699997 4.100006,3.699997 5.899994,6z" fill="#879577"/>
     <path stroke="null" id="svg_10" d="m259.018616,143.101425c0.299988,-0.400009 0.599976,-0.699997 0.899994,-1c-0.700012,0.599991 -1.300018,1.199997 -2,1.800003c-0.700012,0.599991 -1.300018,1.199997 -2,1.899994c-2.399994,2.400009 -4.700012,5.099991 -6.700012,7.900009l2.200012,0c1.899994,-3.300003 4.100006,-6.400009 6.5,-9.300003c0.399994,-0.5 0.699982,-0.900009 1.100006,-1.300003z" fill="#879577"/>
     <path stroke="null" id="svg_11" d="m359.018616,157.401428l-0.400024,0l-2.199982,0c0.799988,1.499985 1.5,3.099991 2.199982,4.699997c3.700012,8.699997 5.800018,18.300003 6.100006,28.5l4.399994,0c-0.399994,-12.100006 -4.099976,-23.5 -10.099976,-33.199997z" fill="#879577"/>
     <path stroke="null" id="svg_12" d="m340.218597,157.401428c0.300018,0.899994 0.700012,1.899994 1,2.800003c2.899994,9.099991 4.600006,19.399994 4.800018,30.299988l12.5,0l2.199982,0c-0.199982,-5.699997 -0.899994,-11.199997 -2.199982,-16.399994c-1.5,-6 -3.700012,-11.600006 -6.600006,-16.800003l-10.800018,0l-0.899994,0l0,0.100006z" fill="#879577"/>
     <path stroke="null" id="svg_13" d="m253.618591,157.401428c-2.799988,5.199997 -5.099976,10.800003 -6.599976,16.800003c-1.300018,5.199997 -2.100006,10.699982 -2.200012,16.399994l2.200012,0l12.5,0c0.199982,-10.899994 1.899994,-21.199997 4.799988,-30.300003c0.299988,-1 0.600006,-1.899994 0.899994,-2.899994l-0.899994,0l-10.700012,0z" fill="#879577"/>
     <path stroke="null" id="svg_14" d="m246.618591,157.401428c-6.099976,9.699997 -9.699982,21 -10,33.199997l4.400024,0c0.199982,-10.199997 2.399994,-19.800003 6.099976,-28.5c0.700012,-1.600006 1.400024,-3.200012 2.200012,-4.699997l-2.200012,0l-0.5,0z" fill="#879577"/>
     <path stroke="null" id="svg_15" d="m265.41861,227.701431c-0.300018,-0.900024 -0.600006,-1.900024 -0.899994,-2.900024c-2.900024,-9.099976 -4.600006,-19.399979 -4.800018,-30.299988l-12.600006,0l-2.199982,0c0.100006,5.700012 0.899994,11.200012 2.199982,16.399994c1.5,6 3.700012,11.600006 6.600006,16.800018l10.800018,0l0.899994,0z" fill="#879577"/>
     <path stroke="null" id="svg_16" d="m358.518616,222.901413c-0.700012,1.600006 -1.400024,3.200012 -2.200012,4.800018l2.200012,0l0.399994,0c6.100006,-9.700012 9.699982,-21 10,-33.200012l-4.399994,0c-0.200012,10.100006 -2.300018,19.800003 -6,28.399994z" fill="#879577"/>
     <path stroke="null" id="svg_17" d="m246.618591,227.701431l0.400024,0l2.199982,0c-0.799988,-1.5 -1.5,-3.100006 -2.199982,-4.800018c-3.700012,-8.699982 -5.800018,-18.299988 -6.100006,-28.499985l-4.300018,0c0.300018,12.199997 4,23.599991 10,33.300003z" fill="#879577"/>
     <path stroke="null" id="svg_18" d="m352.018616,227.701431c2.799988,-5.200012 5.099976,-10.800018 6.599976,-16.800018c1.300018,-5.199982 2.100006,-10.699982 2.200012,-16.399994l-2.200012,0l-12.5,0c-0.199982,10.900009 -1.899994,21.200012 -4.799988,30.399994c-0.299988,1 -0.600006,1.899994 -1,2.800018l1,0l10.700012,0z" fill="#879577"/>
     <path stroke="null" id="svg_19" d="m346.618591,242.001419c-0.299988,0.300018 -0.599976,0.700012 -0.899994,1c0.700012,-0.600006 1.300018,-1.200012 2,-1.799988c0.700012,-0.600006 1.300018,-1.200012 2,-1.899994c2.399994,-2.400024 4.700012,-5.100006 6.700012,-7.900024l-2.200012,0c-1.899994,3.300018 -4.100006,6.399994 -6.5,9.200012c-0.399994,0.600006 -0.699982,1 -1.100006,1.399994z" fill="#879577"/>
     <path stroke="null" id="svg_20" d="m257.91861,241.201431c0.699982,0.599976 1.299988,1.199982 2,1.799988c-0.300018,-0.299988 -0.600006,-0.699982 -0.899994,-1c-0.400024,-0.399994 -0.700012,-0.799988 -1.100006,-1.299988c-2.399994,-2.900024 -4.600006,-5.900024 -6.5,-9.200012l-2.200012,0c2,2.800018 4.300018,5.399994 6.700012,7.899994c0.699982,0.600006 1.399994,1.200012 2,1.800018z" fill="#879577"/>
     <path stroke="null" id="svg_21" d="m276.91861,248.701431c-1.700012,-2.100037 -3.399994,-4.400024 -4.899994,-7.000031c-1.900024,-3.100006 -3.600006,-6.600006 -5.100006,-10.199982l-8.899994,0l-2,0c0.599976,1 1.299988,2 2,3c1.299988,1.699982 2.599976,3.399994 4,5c4.399994,5 9.399994,9.099976 15,12.299988c1.899994,1.100006 3.899994,2.100006 5.899994,2.900024c-2.200012,-1.700012 -4.200012,-3.799988 -6,-6z" fill="#879577"/>
     <path stroke="null" id="svg_22" d="m343.718597,239.501419c1.399994,-1.600006 2.700012,-3.299988 4,-5c0.700012,-1 1.399994,-2 2,-3l-2,0l-8.899994,0c-1.5,3.700012 -3.200012,7.100006 -5.100006,10.200012c-1.5,2.5 -3.199982,4.899994 -4.899994,7c-1.899994,2.200012 -3.799988,4.299988 -5.899994,6c2,-0.900024 4,-1.799988 5.899994,-2.900024c5.5,-3.199982 10.5,-7.399963 14.899994,-12.299988z" fill="#879577"/>
    </g>
    <g stroke="null" id="svg_23">
     <g stroke="null" id="svg_24">
      <g stroke="null" id="svg_25">
       <path stroke="null" id="svg_26" d="m271.818604,193.501419c0.600006,32.200012 12.799988,61.299988 30.5,62.700027c0,-6.200027 0.200012,-11.800003 -4.299988,-17.500015c-9.300018,-11.900024 -24.300018,-23.5 -26.200012,-45.200012z" fill="#879577"/>
       <path stroke="null" id="svg_27" d="m288.818604,201.101425c-7.299988,-10.200012 -8.299988,-19.399994 -8.299988,-30.699997c0,-15 4.199982,-33.800003 15.199982,-43.100006c-12,6.899994 -21.699982,26.599991 -22.299988,54.199997c-0.300018,14.100006 4.100006,24.900009 10.299988,32.800003c7.200012,9.199997 16.100006,18.000015 18.600006,22.599991c0,-4.799988 0,-8.799988 0,-13.199982c-0.100006,-10.600006 -8,-14.800018 -13.5,-22.600006z" fill="#879577"/>
       <path stroke="null" id="svg_28" d="m332.218597,215.901413c-6.699982,16.200012 -27.100006,29.200012 -27.100006,40.000031c12.300018,-1.5 22.600006,-17.500031 27.100006,-40.000031z" fill="#879577"/>
       <path stroke="null" id="svg_29" d="m318.518616,209.201431c6.799988,-9.5 8.5,-21.100006 8.5,-32.5c0,-15 -3,-32.400009 -11.200012,-42.000015c8.799988,7.800003 17.799988,27.500015 18.399994,55.100006c0.300018,14.099991 -4.100006,24.900009 -10.299988,32.800003c-7.200012,9.199982 -15.300018,16.399994 -18.800018,23.100006c0,0 0,-13.800018 0,-13.800018c0,-10.199982 8.100006,-15.199982 13.400024,-22.699982z" fill="#879577"/>
      </g>
      <g stroke="null" id="svg_30">
       <path stroke="null" id="svg_31" d="m304.41861,181.101425c0,-7.699997 0.600006,-13 3.399994,-16.600006c3.299988,-4.199997 7.700012,-5.699997 9.899994,-9.899994c-0.199982,4.699997 2.200012,10.100006 -1,16.299988c-2.399994,4.600006 -8.199982,7.900009 -12.299988,10.200012z" fill="#FFEB5A"/>
       <path stroke="null" id="svg_32" d="m303.718597,145.701416c0,-4.699997 0.5,-7.299988 1.5,-10.299988c0.800018,-2.5 2,-4.300003 1.899994,-6.5c1.200012,2.699997 3.800018,6.899994 3,9.899994c-1,3.699997 -4.5,4.899994 -6.399994,6.899994z" fill="#FFEB5A"/>
       <path stroke="null" id="svg_33" d="m304.218597,202.901413c0,-9.799988 0.800018,-13.899994 3.300018,-17.499985c3.399994,-5 9.799988,-6.199997 12.799988,-12.100006c-0.200012,4.800003 1.299988,10.900009 -2.799988,17.699997c-3,4.600006 -8.600006,7.899994 -13.300018,11.899994z" fill="#FFEB5A"/>
       <path stroke="null" id="svg_34" d="m304.618591,218.301422c0,-5.800003 0.200012,-10.400009 2.200012,-13.099991c3.200012,-4.200012 8.799988,-5 11.299988,-9.700012c-0.199982,5.200012 -0.399994,10 -3.699982,14.700012c-2.600006,3.599991 -5.700012,5.099991 -9.800018,8.099991z" fill="#FFEB5A"/>
       <path stroke="null" id="svg_35" d="m303.018616,189.201431c0,-5.700012 0.299988,-11.800003 -2.300018,-15.600006c-3.5,-5.199997 -8.899994,-5 -11.699982,-10.800003c0.199982,4.699997 -1.100006,10.5 2.799988,17.099991c2.799988,4.700012 6.200012,6.700012 11.200012,9.300018z" fill="#FFEB5A"/>
       <path stroke="null" id="svg_36" d="m303.91861,163.201431c0,-5.700012 -0.399994,-10.600006 1.399994,-13.900009c2.399994,-4.5 6.600006,-4.800003 8,-10.100006c0.399994,5.600006 1.899994,9.600006 0.100006,14.500015c-1.700012,4.699997 -6.600006,7.199982 -9.5,9.5z" fill="#FFEB5A"/>
       <path stroke="null" id="svg_37" d="m302.518616,170.101425c0,-5.399994 0.399994,-10.100006 -1.400024,-13.399994c-2.399994,-4.600006 -7.399994,-5 -9.199982,-10.000015c-0.200012,3.800003 -1.600006,8.100006 1,13.900009c1.799988,4 5.699982,7.299988 9.600006,9.5z" fill="#FFEB5A"/>
       <path stroke="null" id="svg_38" d="m302.518616,153.001419c0,-4.899994 0.399994,-8.599991 -0.900024,-11.399994c-1.799988,-3.900009 -4.799988,-4.5 -5.299988,-8c-0.700012,3.300003 -1.600006,7.099991 -1,10.5c0.700012,4.100006 4.399994,6.100006 7.200012,8.899994z" fill="#FFEB5A"/>
       <path stroke="null" id="svg_39" d="m302.91861,209.001419c0,-4.799988 0.399994,-12 -2.100006,-15.699997c-3.399994,-5 -9.799988,-6.199997 -12.799988,-12.099991c0.199982,4.799988 0.199982,11.299988 2.699982,16.899994c2.700012,5.899994 8.399994,8.600006 12.200012,10.899994z" fill="#FFEB5A"/>
       <path stroke="null" id="svg_40" d="m302.818604,137.701416c0.799988,-3.399994 0.899994,-5 0.5,-7.099991c-0.299988,-2 -1.100006,-3.900009 -1.100006,-6.100006c-4,5.900009 -4.199982,8.100006 0.600006,13.199997z" fill="#FFEB5A"/>
      </g>
     </g>
    </g>
   </g>
  </g>
 </g>
</svg>