<?xml version="1.0" encoding="utf-8"?>
<!-- Generator: Adobe Illustrator 14.0.0, SVG Export Plug-In . SVG Version: 6.00 Build 43363)  -->
<!DOCTYPE svg PUBLIC "-//W3C//DTD SVG 1.1//EN" "http://www.w3.org/Graphics/SVG/1.1/DTD/svg11.dtd">
<svg version="1.1" id="图层_1" xmlns="http://www.w3.org/2000/svg" xmlns:xlink="http://www.w3.org/1999/xlink" x="0px" y="0px"
	 width="900px" height="600px" viewBox="0 0 900 600" enable-background="new 0 0 900 600" xml:space="preserve">
<rect fill="#FFFFFF" width="900" height="600"/>
<g>
	<g>
		<path fill="#F5952E" d="M287.77,399.588c-9.001-0.037-16.269-7.557-16.232-16.795c0.017-4.391,1.715-8.598,4.728-11.713
			l56.087-57.564c7.899-8.137,7.899-21.299,0-29.437l-54.063-55.486c-6.361-6.567-6.332-17.183,0.066-23.711
			c6.398-6.529,16.742-6.498,23.104,0.068l0,0l53.904,55.458c99.179,9.704,100.537,73.143,0,76.724l-56.061,57.563
			C296.246,397.837,292.095,399.598,287.77,399.588z"/>
		<ellipse fill="#F5952E" cx="295.333" cy="299.823" rx="25.833" ry="26.513"/>
		<path fill="#ADD13B" d="M547.035,133.5c-0.037-9.238-7.363-16.697-16.365-16.66c-4.277,0.018-8.377,1.76-11.413,4.852
			l-56.087,57.563c-7.93,8.107-20.753,8.107-28.684,0l-54.063-55.486c-6.398-6.529-16.742-6.499-23.104,0.068
			c-6.361,6.566-6.332,17.183,0.067,23.711l54.037,55.35c9.454,101.788,71.268,103.183,74.756,0l56.088-57.563
			C545.328,142.199,547.044,137.939,547.035,133.5z"/>
		<ellipse fill="#ADD13B" cx="449.827" cy="141.263" rx="25.833" ry="26.513"/>
		<path fill="#0084BF" d="M612.23,200.385c9.001,0.037,16.269,7.557,16.232,16.796c-0.018,4.402-1.726,8.621-4.754,11.74
			l-55.928,57.563c-7.899,8.138-7.899,21.299,0,29.438l53.93,55.485c6.578,6.308,6.929,16.894,0.783,23.644
			c-6.146,6.75-16.46,7.109-23.037,0.803c-0.271-0.259-0.531-0.526-0.782-0.803l-54.063-55.486
			c-99.179-9.703-100.537-73.143,0-76.724l56.087-57.563C603.755,202.136,607.905,200.375,612.23,200.385L612.23,200.385z"/>
		<ellipse fill="#0084BF" cx="604.667" cy="300.177" rx="25.833" ry="26.513"/>
		<path fill="#E8555D" d="M352.939,466.499c0.037,9.239,7.363,16.697,16.365,16.66c4.29-0.018,8.4-1.771,11.438-4.879l56.087-57.399
			c7.93-8.107,20.754-8.107,28.684,0l54.063,55.349c6.578,6.308,16.893,5.948,23.037-0.802c5.853-6.43,5.853-16.412,0-22.841
			l-54.063-55.486c-9.455-101.788-71.269-103.182-74.757,0l-56.087,57.563C354.645,457.801,352.93,462.061,352.939,466.499
			L352.939,466.499z"/>
		<ellipse fill="#E8555D" cx="450.173" cy="458.737" rx="25.833" ry="26.513"/>
	</g>
</g>
</svg>
