<svg width="600" height="400" xmlns="http://www.w3.org/2000/svg">
 <!-- Created with Method Draw - http://github.com/duopixel/Method-Draw/ -->

 <g>
  <title>background</title>
  <rect fill="#fff" id="canvas_background" height="402" width="602" y="-1" x="-1"/>
  <g display="none" overflow="visible" y="0" x="0" height="100%" width="100%" id="canvasGrid">
   <rect fill="url(#gridpattern)" stroke-width="0" y="0" x="0" height="100%" width="100%"/>
  </g>
 </g>
 <g>
  <title>Layer 1</title>
  <g stroke="null" id="svg_8">
   <path stroke="null" id="svg_4" fill="#5ba0f4" d="m235.342621,82.793564c-2.956055,1.775101 -5.815155,3.6735 -8.601593,5.670486l11.169952,0l-2.568359,-5.670486zm13.253754,29.166061l-46.812149,0a126.722191,128.942108 0 0 0 -15.143646,23.470917l72.689621,0l-10.733826,-23.470917zm85.410248,187.841278l-107.241364,0a127.08564,129.31192 0 0 0 114.679932,16.321136l-7.438568,-16.321136z"/>
   <path stroke="null" id="svg_5" fill="#73c4fc" d="m235.342621,82.793564l7.923141,17.405945l143.489304,0a127.667152,129.903625 0 0 0 -34.139862,-23.470909l-105.836136,0a121.73085,123.863327 0 0 0 -11.436447,6.064964zm93.333466,205.247238l58.151672,0a127.449089,129.681732 0 0 0 19.383881,-23.470917l-88.220978,0l10.685425,23.470917zm12.769104,28.081238q5.694,-2.021606 11.145721,-4.585663l-13.229492,0l2.083771,4.585663z"/>
   <path stroke="null" id="svg_6" fill="#5ba0f4" d="m253.53923,158.901474l-75.960617,0a125.292633,127.487503 0 0 0 -4.264465,23.49556l69.854736,0a57.327858,58.332127 0 0 1 10.370346,-23.49556zm-10.370346,46.966446l-69.854736,0a125.050339,127.240967 0 0 0 4.288696,23.470947l75.936386,0a57.061333,58.060928 0 0 1 -10.370346,-23.470947zm-56.504074,46.966507a127.449089,129.681732 0 0 0 15.119415,23.594223l121.561234,0l-10.685333,-23.470932l-125.995316,-0.123291z"/>
   <path stroke="null" id="svg_7" fill="#73c4fc" d="m352.615204,217.603409a58.006298,59.022449 0 0 1 -18.245117,23.49556l83.66571,0a126.867584,129.090042 0 0 0 6.566284,-23.49556l-71.986877,0zm4.845947,-23.470932l69.224701,0a126.84333,129.065369 0 0 0 -2.132233,-23.470917l-71.938416,0a57.134022,58.134892 0 0 1 4.845947,23.470917zm-92.388489,-46.966492a57.739769,58.751247 0 0 1 69.248962,0l83.714172,0a124.953423,127.142342 0 0 0 -11.87265,-23.470909l-152.236221,0l10.685349,23.470909l0.460388,0z"/>
  </g>
 </g>
</svg>