<?xml version="1.0" encoding="utf-8"?>
<!-- Generator: Adobe Illustrator 14.0.0, SVG Export Plug-In . SVG Version: 6.00 Build 43363)  -->
<!DOCTYPE svg PUBLIC "-//W3C//DTD SVG 1.1//EN" "http://www.w3.org/Graphics/SVG/1.1/DTD/svg11.dtd">
<svg version="1.1" id="图层_1" xmlns="http://www.w3.org/2000/svg" xmlns:xlink="http://www.w3.org/1999/xlink" x="0px" y="0px"
	 width="900px" height="600px" viewBox="0 0 900 600" enable-background="new 0 0 900 600" xml:space="preserve">
<rect fill="#2E5C4F" width="900" height="600"/>
<g>
	<path fill="#FFFFFF" d="M370.253,271.869l-82.733,84.102c30.293,90.984,127.557,139.828,217.244,109.098
		c13.215-4.529,25.836-10.676,37.582-18.307L370.253,271.869z"/>
	<path fill="#FFFFFF" d="M439.46,254.073l19.981-20.304l143.221,145.674c5.631-11.087,10.051-22.765,13.184-34.825l-89.258-90.545
		l19.98-20.304l74.77,76.024c0.207-3.273,0.309-6.582,0.309-9.925c0-96.167-76.848-174.127-171.647-174.127
		c-94.797,0-171.646,77.959-171.646,174.127c0.007,9.072,0.696,18.128,2.06,27.093l91.522-93.157l192.622,195.823
		c8.375-7.635,15.998-16.08,22.762-25.213L439.46,254.073z"/>
</g>
</svg>
