<?xml version="1.0" encoding="utf-8"?>
<!-- Generator: Adobe Illustrator 14.0.0, SVG Export Plug-In . SVG Version: 6.00 Build 43363)  -->
<!DOCTYPE svg PUBLIC "-//W3C//DTD SVG 1.1//EN" "http://www.w3.org/Graphics/SVG/1.1/DTD/svg11.dtd">
<svg version="1.1" id="图层_1" xmlns="http://www.w3.org/2000/svg" xmlns:xlink="http://www.w3.org/1999/xlink" x="0px" y="0px"
	 width="900px" height="600px" viewBox="0 0 900 600" enable-background="new 0 0 900 600" xml:space="preserve">
<rect fill="#F15A24" width="900" height="600"/>
<path fill="#FFFFFF" d="M449.05,487.328h0.965c106.586-0.017,192.979-83.877,192.961-187.309
	c-0.003-19.946-3.289-39.762-9.734-58.702C548.634,302.783,473.174,431.669,449.05,487.328z M551.605,182.849
	c3.011-0.412-172.65,35.321-294.583,114.803v2.397c0.463,27.422,6.716,54.459,18.373,79.444
	c109.889-97.385,195.269-138.175,335.11-183.534C551.31,109.946,431.468,86.786,342.831,144.23
	c-33.468,21.69-59.111,52.991-73.341,89.522C378.878,188.542,504.053,186.295,551.605,182.849z"/>
<path fill="#619A3F" d="M628.378,228.433c-3.334-7.735-7.203-15.244-11.58-22.474c-166.357,49.143-276.439,149.6-323.376,203.498
	c22.748,30.567,54.447,53.785,90.977,66.635C417.052,421.031,499.15,313.121,628.378,228.433L628.378,228.433z"/>
</svg>
