<?xml version="1.0" encoding="utf-8"?>
<!-- Generator: Adobe Illustrator 14.0.0, SVG Export Plug-In . SVG Version: 6.00 Build 43363)  -->
<!DOCTYPE svg PUBLIC "-//W3C//DTD SVG 1.1//EN" "http://www.w3.org/Graphics/SVG/1.1/DTD/svg11.dtd">
<svg version="1.1" id="图层_1" xmlns="http://www.w3.org/2000/svg" xmlns:xlink="http://www.w3.org/1999/xlink" x="0px" y="0px"
	 width="900px" height="600px" viewBox="0 0 900 600" enable-background="new 0 0 900 600" xml:space="preserve">
<rect fill="#FFFFFF" width="900" height="600"/>
<g>
	<g>
		<path fill="#0C54A4" d="M369.796,211.158l74.824-74.694c2.977-2.954,7.784-2.954,10.761,0l74.818,74.694
			c2.96,2.972,2.96,7.772,0,10.744l-74.815,74.694c-2.977,2.954-7.784,2.954-10.761,0l-74.827-74.694
			C366.836,218.93,366.836,214.13,369.796,211.158z"/>
		<path fill="#635F5D" d="M406.674,355.839l40.421-40.349c1.608-1.596,4.206-1.596,5.814,0l40.418,40.349
			c1.598,1.606,1.598,4.199,0,5.805l-40.421,40.346c-1.608,1.597-4.206,1.597-5.815,0l-40.417-40.346
			C405.077,360.038,405.077,357.445,406.674,355.839z M303.979,427.559l32.604-32.543c1.297-1.289,3.394-1.289,4.69,0l32.602,32.543
			c1.29,1.296,1.29,3.387,0,4.683l-32.604,32.543c-1.297,1.289-3.394,1.289-4.69,0l-32.601-32.549c-1.29-1.295-1.29-3.387,0-4.682
			V427.559z M526.13,427.559l32.604-32.543c1.298-1.287,3.393-1.287,4.689,0l32.602,32.543c1.29,1.296,1.29,3.387,0,4.683
			l-32.604,32.543c-1.297,1.287-3.393,1.287-4.689,0l-32.602-32.549C524.844,430.94,524.844,428.854,526.13,427.559z"/>
		<path fill="#0C54A4" d="M486.499,301.497l70.18-70.059c2.797-2.764,7.302-2.764,10.099,0l70.183,70.059
			c2.768,2.791,2.768,7.285,0,10.076l-70.183,70.062c-2.797,2.765-7.302,2.765-10.099,0l-70.18-70.058
			c-2.768-2.792-2.768-7.286,0-10.078V301.497z M263.041,301.497l70.181-70.059c2.796-2.764,7.301-2.764,10.098,0l70.183,70.059
			c2.767,2.791,2.767,7.285,0,10.076l-70.183,70.062c-2.796,2.765-7.301,2.765-10.098,0l-70.181-70.058
			C260.272,308.785,260.272,304.288,263.041,301.497z"/>
	</g>
</g>
</svg>
