<?xml version="1.0" encoding="utf-8"?>
<!-- Generator: Adobe Illustrator 14.0.0, SVG Export Plug-In . SVG Version: 6.00 Build 43363)  -->
<!DOCTYPE svg PUBLIC "-//W3C//DTD SVG 1.1//EN" "http://www.w3.org/Graphics/SVG/1.1/DTD/svg11.dtd">
<svg version="1.1" id="图层_1" xmlns="http://www.w3.org/2000/svg" xmlns:xlink="http://www.w3.org/1999/xlink" x="0px" y="0px"
	 width="900px" height="600px" viewBox="0 0 900 600" enable-background="new 0 0 900 600" xml:space="preserve">
<title>资源 150</title>
<rect fill="#F8981C" width="900" height="600"/>
<path fill="#FFFFFF" d="M283.485,299.136v-78.04c-0.717-51.248,41.894-93.351,95.173-94.041c17.89-0.231,35.494,4.327,50.846,13.165
	c39.725,21.734,79.366,43.724,118.924,65.97c27.845,15.724,50.89,36.399,61.787,66.5c10.897,30.101,8.249,59.863-12.447,86.55
	c-2.399,3.078-4.999,8.078-9.647,5.77c-4.649-2.308-0.75-7.02,0.3-10.338c11.747-39.957-9.998-89.002-52.289-114.293
	c-41.791-24.843-84.099-48.725-126.923-71.644c-29.183-15.748-66.111-5.758-82.483,22.312c-5.07,8.694-7.738,18.495-7.747,28.464
	c-0.333,53.661-0.333,107.306,0,160.935c-0.075,32.344,27.123,58.624,60.75,58.697c10.617,0.022,21.056-2.625,30.28-7.681
	c30.943-16.349,61.487-33.659,91.781-50.969c37.142-21.302,38.291-69.433,1.1-92.657c-32.395-20.195-66.637-37.697-99.979-56.401
	c-1.101-0.625-2.2-1.154-3.3-1.731c-21.546-11.828-21.546-11.828-21.546,12.598v126.122c0,13.512,0.551,13.848,12.398,7.309
	c33.192-18.319,66.535-36.351,99.328-55.296c8.898-5.145,12.146-3.173,14.996,5.146c4.895,12.111-0.086,25.849-11.746,32.408
	c-31.443,17.982-62.938,35.967-94.98,52.604c-17.988,9.481-40.563,3.143-50.422-14.161c-2.912-5.112-4.48-10.832-4.566-16.661
	c-1-52.891-0.9-105.783,0-158.675c0.187-19.942,17.146-35.963,37.879-35.784c6.291,0.054,12.466,1.628,17.959,4.578
	c41.491,22.022,83.133,44.044,122.974,68.663c60.787,37.89,58.487,116.169-3.449,152.328c-28.843,16.685-57.987,32.985-87.431,48.66
	c-70.335,37.072-147.269-6.587-147.519-83.569V299.136z"/>
<path fill="#ED2D24" d="M401.46,299.954c0-10.819,0.35-21.638,0-32.408c-0.399-9.136,3.3-9.232,9.997-5.385
	c19.746,11.155,39.492,22.263,59.338,33.129c6.648,3.654,6.248,6.347,0,9.617c-20.246,11.107-40.342,22.358-60.486,33.658
	c-6.35,3.559-8.998,1.924-8.849-5.145C401.609,322.36,401.46,311.157,401.46,299.954z"/>
</svg>
