<svg width="600" height="400" xmlns="http://www.w3.org/2000/svg">
 <!-- Created with Method Draw - http://github.com/duopixel/Method-Draw/ -->

 <g>
  <title>background</title>
  <rect fill="#fff" id="canvas_background" height="402" width="602" y="-1" x="-1"/>
  <g display="none" overflow="visible" y="0" x="0" height="100%" width="100%" id="canvasGrid">
   <rect fill="url(#gridpattern)" stroke-width="0" y="0" x="0" height="100%" width="100%"/>
  </g>
 </g>
 <g>
  <title>Layer 1</title>
  <g stroke="null" id="svg_25">
   <g stroke="null" transform="matrix(2.91601 0 0 2.79908 -290.104 -158.862)" id="svg_13">
    <g stroke="null" id="svg_14">
     <g stroke="null" id="svg_15">
      <path stroke="null" id="svg_16" d="m243.786499,166.287506c0,3.537003 -2.005005,3.537003 -4.303009,3.537003c-0.037994,0 -72.365982,0 -74.529984,0c-2.271011,0 -4.069,-0.755005 -4.069,-4.257004c0,-0.035995 0,-15.171997 0,-22.705002c9.876999,-7.480988 19.707001,-15.008995 29.692993,-22.377983c17.737,13.482994 35.708008,26.733986 53.271011,40.389992c-0.000031,1.561996 -0.062012,4.981995 -0.062012,5.412994z" fill="#A6A8AB" clip-rule="evenodd" fill-rule="evenodd"/>
      <path stroke="null" id="svg_17" d="m243.659485,90.57251c-0.47998,-1.677002 -1.812988,-3.049995 -3.638977,-3.492996c-2.403015,-0.582001 -6.188019,-0.438004 -9.162018,-0.438004c-18.846985,0 -62.562988,-0.114998 -65.606995,0c-1.85199,0.070999 -4.112991,0.304001 -4.145996,5.241005c-0.095001,13.192993 -0.440002,30.770996 -0.440002,40.168983c0.800003,-0.015991 1.307999,-0.778992 1.85701,-1.197998c9.300995,-7.117989 18.832993,-14.016991 28.054001,-21.067986c6.882996,5.233994 13.750992,10.483994 20.73999,15.608994c7.934998,-6.037003 15.880005,-12.065002 23.908997,-18.011993c3.022003,2.067001 5.669006,4.51799 8.841003,6.440002c0,-5.352005 0,-11.986008 0,-17.573006c0.001984,-2.014999 0.042999,-4.118004 -0.407013,-5.677002z" fill="#035BA9" clip-rule="evenodd" fill-rule="evenodd"/>
     </g>
     <g stroke="null" id="svg_18">
      <rect stroke="null" id="svg_19" height="6.417" width="6.414" fill="#FFFFFF" clip-rule="evenodd" fill-rule="evenodd" y="137.126508" x="183.0395"/>
      <rect stroke="null" id="svg_20" height="6.417" width="6.413" fill="#FFFFFF" clip-rule="evenodd" fill-rule="evenodd" y="137.126508" x="190.7675"/>
      <rect stroke="null" id="svg_21" height="6.42" width="6.414" fill="#FFFFFF" clip-rule="evenodd" fill-rule="evenodd" y="144.915508" x="183.0395"/>
      <rect stroke="null" id="svg_22" height="6.42" width="6.413" fill="#FFFFFF" clip-rule="evenodd" fill-rule="evenodd" y="144.915508" x="190.7675"/>
     </g>
    </g>
    <g stroke="null" id="svg_23">
     <path stroke="null" id="svg_24" d="m202.05249,105.940514c1.376007,-0.389 2.513016,0.213997 3.664001,0.916c0.564011,0.341995 1.016006,0.856003 1.583008,1.190994c0.375,0.225998 0.442001,-0.369003 0.759003,-0.009003c2.681992,3.070999 5.362,6.143005 8.048996,9.216003c1.009995,1.158005 2.022003,2.315002 3.031998,3.475006c0.751007,0.856995 0.237,2.479996 0.736008,3.485992c1.07399,2.158005 3.684998,4.266991 5.248993,6.079002c3.181,3.678986 6.35701,7.360992 9.53801,11.042999c0.932983,1.083984 3.692993,5.580994 5.194,5.027985c1.46698,-0.536987 5.083984,-3.084991 3.671997,-4.755981c-2.46701,-2.915009 -4.934021,-5.82901 -7.395996,-8.740005c-3.625,-4.284012 -7.248016,-8.568993 -10.874008,-12.853996c-0.845001,-0.996002 -2.508011,-0.477997 -3.378998,-1.5c-1.975006,-2.320999 -3.949997,-4.637009 -5.925995,-6.957001c-2.920013,-3.425003 -6.197006,-6.162003 -5.811005,-10.918999c0.438995,-5.433998 7.466995,-2.599998 10.373001,-4.541c-4.081009,-0.777 -7.932007,-1.224998 -12.085999,-1.063004c-1.701004,0.064003 -3.432007,0.327003 -4.955002,1.109001c-0.800003,0.411003 -1.556,0.987 -2.247009,1.556c-0.917999,0.759003 -0.806,1.229004 -1.259995,1.895004c-0.985992,1.440994 -2.156006,3.108994 -3.882996,3.775002c-1.875,0.718994 -4.063004,0.946999 -2.286011,3.344994c0.615005,0.824005 2.776001,3.962997 3.975006,3.087997c1.733994,-1.264999 1.940994,-3.258987 4.278992,-3.862991l0,0z" fill="#A6A8AB" clip-rule="evenodd" fill-rule="evenodd"/>
    </g>
   </g>
  </g>
 </g>
</svg>