<?xml version="1.0" encoding="utf-8"?>
<!-- Generator: Adobe Illustrator 14.0.0, SVG Export Plug-In . SVG Version: 6.00 Build 43363)  -->
<!DOCTYPE svg PUBLIC "-//W3C//DTD SVG 1.1//EN" "http://www.w3.org/Graphics/SVG/1.1/DTD/svg11.dtd">
<svg version="1.1" id="图层_1" xmlns="http://www.w3.org/2000/svg" xmlns:xlink="http://www.w3.org/1999/xlink" x="0px" y="0px"
	 width="900px" height="600px" viewBox="0 0 900 600" enable-background="new 0 0 900 600" xml:space="preserve">
<rect fill="#FFFFFF" width="900" height="600"/>
<g>
	<g>
		<path fill="#1DB7E9" d="M390.467,448.563c28.521,10.985,59.657,13.942,89.831,8.531l-10.935-4.786
			c-60.749-23.1-104.269-75.795-114.271-138.368c-5.659-37.195,12.156-74.067,45.237-93.632l-7.503,0.832
			c-42.806,6.3-81.325,28.73-107.197,62.421c-7.912,71.442,34.41,139.188,103.338,165.418L390.467,448.563z"/>
		<path fill="#CCCCCC" d="M390.681,447.939c19.719,7.547,40.764,11.292,61.959,11.027h13.722l12.22-2.289l-3.001-1.04l-5.36-1.873
			c-61.639-23.08-105.817-76.437-115.772-139.824c-5.056-33.207,8.507-66.512,35.589-87.391l4.931-3.121l2.788-1.873l-4.931,0.208
			c-42.278,6.617-80.212,29.021-105.696,62.422c-1.963,20.315,0.148,40.806,6.217,60.341c5.965,19.905,15.869,38.492,29.158,54.723
			C340.414,421.025,363.933,437.821,390.681,447.939z M420.911,457.719c-10.549-1.876-20.888-4.732-30.873-8.531
			c-69.452-26.105-112.245-94.16-104.41-166.042c25.919-33.641,64.415-56.057,107.197-62.421h10.077l-2.359,1.456l-4.716,1.249
			l-4.931,3.538c-26.889,20.721-40.301,53.819-35.16,86.766c9.724,62.674,53.223,115.523,114.057,138.576l5.359,1.872l5.36,1.873
			h2.358h-2.572l-13.722,1.873h-13.936c-10.565,0.858-21.192,0.719-31.73-0.416V457.719z"/>
		<path fill="#0B56A6" d="M348.231,175.572c-24.06,18.451-42.266,43.116-52.526,71.161l8.79-7.282
			c51.268-39.611,120.44-49.609,181.376-26.217c36.021,13.863,60,47.296,60.889,84.893c17.968-40.438,17.968-86.277,0-126.716
			c-59.776-42.314-141.327-40.61-199.172,4.162H348.231z"/>
		<path fill="#CCCCCC" d="M348.446,175.988c-8.235,6.224-15.844,13.191-22.726,20.807c-7.143,8.232-13.394,17.158-18.652,26.633
			c-2.287,3.884-4.359,7.907-6.217,12.068s-3.073,7.074-3.645,8.739l2.572-2.081l4.502-3.537
			c51.497-39.491,120.758-49.4,181.805-26.009c35.525,13.626,59.521,46.197,61.316,83.229c17.068-39.461,17.068-83.926,0-123.387
			c-59.507-42.177-140.741-40.473-198.313,4.162L348.446,175.988z M324.648,196.795c16.305-18.635,36.758-33.433,59.815-43.279
			c13.213-5.566,27.126-9.414,41.378-11.444c43-6.309,86.83,4.083,121.99,28.922c18.014,40.574,18.014,86.558,0,127.132
			l-1.072,2.498v-2.498c-1.029-37.404-25.005-70.585-60.889-84.269c-29.882-11.72-62.417-15.595-94.333-11.236
			c-31.78,4.819-61.67,17.744-86.615,37.453l-4.502,4.162l-4.288,3.745l-1.93,0.832v-2.289c1.572-4.3,3.288-8.462,5.146-12.484
			c1.858-4.023,4.431-8.045,7.718-12.068c4.999-8.994,10.887-17.496,17.581-25.385V196.795z"/>
		<path fill="#4DC8B1" d="M612.792,276.487c-4.438-29.448-17.371-57.076-37.304-79.692c0.857,3.607,1.572,7.283,2.145,11.028
			c4.844,30.814,1.219,62.324-10.506,91.343c-11.842,29.143-31.359,54.757-56.601,74.282c-13.29,10.228-29.107,16.899-45.88,19.351
			c-20.782,2.984-42-0.667-60.458-10.403l4.288,5.409c26.943,32.414,65.874,53.321,108.483,58.261
			C584.63,416.959,623.875,347.515,612.792,276.487L612.792,276.487z"/>
		<path fill="#CCCCCC" d="M612.149,276.487c-1.568-10.206-4.153-20.241-7.718-29.962c-3.561-9.63-8.085-18.899-13.508-27.673
			c-2.429-3.884-4.931-7.629-7.504-11.236c-2.572-3.606-4.858-6.52-6.859-8.739v8.739c2.094,15.47,2.094,31.139,0,46.608
			c-1.804,15.478-5.696,30.659-11.578,45.151c-11.887,29.231-31.479,54.92-56.814,74.49c-13.36,10.244-29.252,16.915-46.094,19.351
			c-16.151,2.155-32.603,0.294-47.81-5.41l-5.574-2.288l-3.002-1.457l2.144,2.705c26.642,32.088,65.069,52.898,107.197,58.053
			c67.368-28.938,106.445-98.055,95.405-168.747L612.149,276.487z M605.718,246.108c8.436,23.059,11.367,47.675,8.576,71.993
			c-6.613,56.485-43.571,105.341-97.121,128.381c-42.767-4.974-81.843-25.952-108.911-58.469l-2.144-2.705l-2.144-2.704
			l-1.715-2.289l2.573,1.249l5.36,2.704l5.574,2.289c31.787,12.094,67.802,6.863,94.547-13.733
			c51.182-39.463,76.699-102.486,66.891-165.209v-5.41l-1.072-5.41v-2.289l1.716,1.873c3.001,3.468,5.86,7.005,8.575,10.612
			c2.716,3.606,5.289,7.352,7.718,11.236C598.903,227.143,602.779,236.479,605.718,246.108L605.718,246.108z"/>
	</g>
</g>
</svg>
