<?xml version="1.0" encoding="utf-8"?>
<!-- Generator: Adobe Illustrator 14.0.0, SVG Export Plug-In . SVG Version: 6.00 Build 43363)  -->
<!DOCTYPE svg PUBLIC "-//W3C//DTD SVG 1.1//EN" "http://www.w3.org/Graphics/SVG/1.1/DTD/svg11.dtd">
<svg version="1.1" id="图层_1" xmlns="http://www.w3.org/2000/svg" xmlns:xlink="http://www.w3.org/1999/xlink" x="0px" y="0px"
	 width="900px" height="600px" viewBox="0 0 900 600" enable-background="new 0 0 900 600" xml:space="preserve">
<rect fill="#3045B0" width="900" height="600"/>
<title>资源 41</title>
<path fill="#42AD4F" d="M322.658,423.205c-61.333-62.133-67.83-159.259-15.31-228.864
	C254.828,263.946,261.324,361.072,322.658,423.205z M449.966,123.525c41.258-0.043,81.241,14.169,113.058,40.187
	c-75.97-61.796-188.116-50.96-250.595,24.213c-1.738,2.094-3.409,4.255-5.08,6.416C340.928,149.75,393.803,123.495,449.966,123.525z
	 M563.092,163.712c75.987,61.901,86.926,173.097,24.43,248.363c-44.394,53.467-116.252,76.28-183.753,58.341
	c95.032,25.227,192.718-30.63,218.187-124.76c18.085-66.84-4.944-137.982-58.897-181.944H563.092z M403.768,470.382
	c95.041,25.193,192.707-30.697,218.142-124.836c18.048-66.798-4.959-137.881-58.854-181.834c2.187,14.465,3.27,29.073,3.24,43.699
	C566.324,318.357,503.537,419.948,403.768,470.382L403.768,470.382z M322.658,423.171
	c129.104-24.55,226.745-129.947,240.366-259.459c-76.301-61.465-188.458-50.027-250.514,25.547
	C255.63,258.534,259.987,358.984,322.658,423.171z M345.637,442.792c8.588,6.184,17.716,11.597,27.275,16.176
	c-9.606-4.57-18.78-9.984-27.412-16.176H345.637z M563.159,205.081c0.955-13.796,0.955-27.64,0-41.437
	c-0.171,13.159-1.229,26.291-3.171,39.309C542.891,317.966,458.714,412.064,345.5,442.724c8.588,6.195,17.716,11.62,27.276,16.21
	C480.855,418.421,555.215,319.271,563.159,205.081z"/>
</svg>
