<?xml version="1.0" encoding="utf-8"?>
<!-- Generator: Adobe Illustrator 14.0.0, SVG Export Plug-In . SVG Version: 6.00 Build 43363)  -->
<!DOCTYPE svg PUBLIC "-//W3C//DTD SVG 1.1//EN" "http://www.w3.org/Graphics/SVG/1.1/DTD/svg11.dtd">
<svg version="1.1" id="图层_1" xmlns="http://www.w3.org/2000/svg" xmlns:xlink="http://www.w3.org/1999/xlink" x="0px" y="0px"
	 width="900px" height="600px" viewBox="0 0 900 600" enable-background="new 0 0 900 600" xml:space="preserve">
<rect fill="#FFFFFF" width="900" height="600"/>
<g>
	<g>
		<g>
			<defs>
				<polygon id="SVGID_1_" points="450,143.705 546.232,299.97 642.467,456.248 481.708,456.248 534.213,370.987 450,234.233 
					313.283,456.248 257.534,456.248 353.767,299.97 				"/>
			</defs>
			<clipPath id="SVGID_2_">
				<use xlink:href="#SVGID_1_"  overflow="visible"/>
			</clipPath>
			<g clip-path="url(#SVGID_2_)">
				<path fill="#ED6A00" d="M257.534,143.705h0.747v312.543h-0.747V143.705z"/>
				<path fill="#ED6A00" d="M257.534,143.705h2.25v312.543h-2.25V143.705z"/>
				<path fill="#ED6A00" d="M259.038,143.705h2.25v312.543h-2.25V143.705z"/>
				<path fill="#ED6C00" d="M260.542,143.705h2.25v312.543h-2.25V143.705z"/>
				<path fill="#ED6C00" d="M262.046,143.705h2.25v312.543h-2.25V143.705z"/>
				<path fill="#ED6C00" d="M263.55,143.705h2.25v312.543h-2.25V143.705z"/>
				<path fill="#ED6C00" d="M265.054,143.705h2.25v312.543h-2.25V143.705z"/>
				<path fill="#ED6F00" d="M266.558,143.705h2.25v312.543h-2.25V143.705z"/>
				<path fill="#ED6F00" d="M268.062,143.705h2.25v312.543h-2.25V143.705z"/>
				<path fill="#ED6F00" d="M269.566,143.705h2.25v312.543h-2.25V143.705z"/>
				<path fill="#ED6F00" d="M271.07,143.705h2.25v312.543h-2.25V143.705z"/>
				<path fill="#ED6F00" d="M272.574,143.705h2.25v312.543h-2.25V143.705z"/>
				<path fill="#ED6F00" d="M274.078,143.705h2.25v312.543h-2.25V143.705z"/>
				<path fill="#ED7100" d="M275.582,143.705h2.25v312.543h-2.25V143.705z"/>
				<path fill="#ED7100" d="M277.086,143.705h2.25v312.543h-2.25V143.705z"/>
				<path fill="#ED7100" d="M278.59,143.705h2.25v312.543h-2.25V143.705z"/>
				<path fill="#ED7100" d="M280.094,143.705h2.25v312.543h-2.25V143.705z"/>
				<path fill="#EE7300" d="M281.586,143.705h2.25v312.543h-2.25V143.705z"/>
				<path fill="#EE7300" d="M283.09,143.705h2.25v312.543h-2.25V143.705z"/>
				<path fill="#EE7300" d="M284.594,143.705h2.25v312.543h-2.25V143.705z"/>
				<path fill="#EE7300" d="M286.098,143.705h2.25v312.543h-2.25V143.705z"/>
				<path fill="#EE7300" d="M287.603,143.705h2.25v312.543h-2.25V143.705z"/>
				<path fill="#EE7300" d="M289.106,143.705h2.25v312.543h-2.25V143.705z"/>
				<path fill="#EE7500" d="M290.61,143.705h2.25v312.543h-2.25V143.705z"/>
				<path fill="#EE7500" d="M292.114,143.705h2.25v312.543h-2.25V143.705z"/>
				<path fill="#EE7500" d="M293.618,143.705h2.25v312.543h-2.25V143.705z"/>
				<path fill="#EE7500" d="M295.123,143.705h2.25v312.543h-2.25V143.705z"/>
				<path fill="#EE7800" d="M296.626,143.705h2.25v312.543h-2.25V143.705z"/>
				<path fill="#EE7800" d="M298.13,143.705h2.25v312.543h-2.25V143.705z"/>
				<path fill="#EE7800" d="M299.634,143.705h2.25v312.543h-2.25V143.705z"/>
				<path fill="#EE7800" d="M301.138,143.705h2.25v312.543h-2.25V143.705z"/>
				<path fill="#EE7800" d="M302.642,143.705h2.25v312.543h-2.25V143.705z"/>
				<path fill="#EE7800" d="M304.146,143.705h2.25v312.543h-2.25V143.705z"/>
				<path fill="#EF7A00" d="M305.65,143.705h2.25v312.543h-2.25V143.705z"/>
				<path fill="#EF7A00" d="M307.154,143.705h2.25v312.543h-2.25V143.705z"/>
				<path fill="#EF7A00" d="M308.658,143.705h2.25v312.543h-2.25V143.705z"/>
				<path fill="#EF7A00" d="M310.162,143.705h2.25v312.543h-2.25V143.705z"/>
				<path fill="#EF7A00" d="M311.667,143.705h2.25v312.543h-2.25V143.705z"/>
				<path fill="#EF7A00" d="M313.17,143.705h2.25v312.543h-2.25V143.705z"/>
				<path fill="#EF7C00" d="M314.674,143.705h2.25v312.543h-2.25V143.705z"/>
				<path fill="#EF7C00" d="M316.178,143.705h2.25v312.543h-2.25V143.705z"/>
				<path fill="#EF7C00" d="M317.682,143.705h2.25v312.543h-2.25V143.705z"/>
				<path fill="#EF7C00" d="M319.187,143.705h2.25v312.543h-2.25V143.705z"/>
				<path fill="#EF7E00" d="M320.69,143.705h2.25v312.543h-2.25V143.705z"/>
				<path fill="#EF7E00" d="M322.194,143.705h2.25v312.543h-2.25V143.705z"/>
				<path fill="#EF7E00" d="M323.698,143.705h2.25v312.543h-2.25V143.705z"/>
				<path fill="#EF7E00" d="M325.202,143.705h2.25v312.543h-2.25V143.705z"/>
				<path fill="#EF7E00" d="M326.706,143.705h2.25v312.543h-2.25V143.705z"/>
				<path fill="#EF7E00" d="M328.21,143.705h2.25v312.543h-2.25V143.705z"/>
				<path fill="#F08000" d="M329.703,143.705h2.25v312.543h-2.25V143.705z"/>
				<path fill="#F08000" d="M331.207,143.705h2.25v312.543h-2.25V143.705z"/>
				<path fill="#F08000" d="M332.711,143.705h2.25v312.543h-2.25V143.705z"/>
				<path fill="#F08300" d="M334.215,143.705h2.25v312.543h-2.25V143.705z"/>
				<path fill="#F08300" d="M335.719,143.705h2.25v312.543h-2.25V143.705z"/>
				<path fill="#F08300" d="M337.223,143.705h2.25v312.543h-2.25V143.705z"/>
				<path fill="#F08300" d="M338.727,143.705h2.25v312.543h-2.25V143.705z"/>
				<path fill="#F08300" d="M340.231,143.705h2.25v312.543h-2.25V143.705z"/>
				<path fill="#F08300" d="M341.735,143.705h2.25v312.543h-2.25V143.705z"/>
				<path fill="#F08500" d="M343.239,143.705h2.25v312.543h-2.25V143.705z"/>
				<path fill="#F08500" d="M344.743,143.705h2.25v312.543h-2.25V143.705z"/>
				<path fill="#F08500" d="M346.247,143.705h2.25v312.543h-2.25V143.705z"/>
				<path fill="#F08500" d="M347.751,143.705h2.25v312.543h-2.25V143.705z"/>
				<path fill="#F18700" d="M349.255,143.705h2.25v312.543h-2.25V143.705z"/>
				<path fill="#F18700" d="M350.759,143.705h2.25v312.543h-2.25V143.705z"/>
				<path fill="#F18700" d="M352.263,143.705h2.25v312.543h-2.25V143.705z"/>
				<path fill="#F18700" d="M353.767,143.705h2.25v312.543h-2.25V143.705z"/>
				<path fill="#F18700" d="M355.271,143.705h2.25v312.543h-2.25V143.705z"/>
				<path fill="#F18700" d="M356.775,143.705h2.25v312.543h-2.25V143.705z"/>
				<path fill="#F18900" d="M358.279,143.705h2.25v312.543h-2.25V143.705z"/>
				<path fill="#F18900" d="M359.783,143.705h2.25v312.543h-2.25V143.705z"/>
				<path fill="#F18900" d="M361.287,143.705h2.25v312.543h-2.25V143.705z"/>
				<path fill="#F18900" d="M362.791,143.705h2.25v312.543h-2.25V143.705z"/>
				<path fill="#F18B00" d="M364.295,143.705h2.25v312.543h-2.25V143.705z"/>
				<path fill="#F18B00" d="M365.799,143.705h2.25v312.543h-2.25V143.705z"/>
				<path fill="#F18B00" d="M367.303,143.705h2.25v312.543h-2.25V143.705z"/>
				<path fill="#F18B00" d="M368.807,143.705h2.25v312.543h-2.25V143.705z"/>
				<path fill="#F18B00" d="M370.311,143.705h2.25v312.543h-2.25V143.705z"/>
				<path fill="#F18B00" d="M371.815,143.705h2.25v312.543h-2.25V143.705z"/>
				<path fill="#F18D00" d="M373.319,143.705h2.25v312.543h-2.25V143.705z"/>
				<path fill="#F18D00" d="M374.823,143.705h2.25v312.543h-2.25V143.705z"/>
				<path fill="#F18D00" d="M376.327,143.705h2.25v312.543h-2.25V143.705z"/>
				<path fill="#F18D00" d="M377.82,143.705h2.25v312.543h-2.25V143.705z"/>
				<path fill="#F18D00" d="M379.324,143.705h2.25v312.543h-2.25V143.705z"/>
				<path fill="#F18D00" d="M380.828,143.705h2.25v312.543h-2.25V143.705z"/>
				<path fill="#F28F00" d="M382.332,143.705h2.25v312.543h-2.25V143.705z"/>
				<path fill="#F28F00" d="M383.835,143.705h2.25v312.543h-2.25V143.705z"/>
				<path fill="#F28F00" d="M385.339,143.705h2.25v312.543h-2.25V143.705z"/>
				<path fill="#F28F00" d="M386.843,143.705h2.25v312.543h-2.25V143.705z"/>
				<path fill="#F29100" d="M388.347,143.705h2.25v312.543h-2.25V143.705z"/>
				<path fill="#F29100" d="M389.852,143.705h2.25v312.543h-2.25V143.705z"/>
				<path fill="#F29100" d="M391.355,143.705h2.25v312.543h-2.25V143.705z"/>
				<path fill="#F29100" d="M392.859,143.705h2.25v312.543h-2.25V143.705z"/>
				<path fill="#F29100" d="M394.364,143.705h2.25v312.543h-2.25V143.705z"/>
				<path fill="#F29100" d="M395.867,143.705h2.25v312.543h-2.25V143.705z"/>
				<path fill="#F29300" d="M397.372,143.705h2.25v312.543h-2.25V143.705z"/>
				<path fill="#F29300" d="M398.875,143.705h2.25v312.543h-2.25V143.705z"/>
				<path fill="#F29300" d="M400.379,143.705h2.25v312.543h-2.25V143.705z"/>
				<path fill="#F29300" d="M401.883,143.705h2.25v312.543h-2.25V143.705z"/>
				<path fill="#F39500" d="M403.387,143.705h2.25v312.543h-2.25V143.705z"/>
				<path fill="#F39500" d="M404.892,143.705h2.25v312.543h-2.25V143.705z"/>
				<path fill="#F39500" d="M406.396,143.705h2.25v312.543h-2.25V143.705z"/>
				<path fill="#F39500" d="M407.899,143.705h2.25v312.543h-2.25V143.705z"/>
				<path fill="#F39500" d="M409.403,143.705h2.25v312.543h-2.25V143.705z"/>
				<path fill="#F39800" d="M410.907,143.705h2.25v312.543h-2.25V143.705z"/>
				<path fill="#F39800" d="M412.411,143.705h2.25v312.543h-2.25V143.705z"/>
				<path fill="#F39800" d="M413.916,143.705h2.25v312.543h-2.25V143.705z"/>
				<path fill="#F39800" d="M415.419,143.705h2.25v312.543h-2.25V143.705z"/>
				<path fill="#F39A00" d="M416.923,143.705h2.25v312.543h-2.25V143.705z"/>
				<path fill="#F39A00" d="M418.427,143.705h2.25v312.543h-2.25V143.705z"/>
				<path fill="#F39A00" d="M419.931,143.705h2.25v312.543h-2.25V143.705z"/>
				<path fill="#F39A00" d="M421.436,143.705h2.25v312.543h-2.25V143.705z"/>
				<path fill="#F39A00" d="M422.939,143.705h2.25v312.543h-2.25V143.705z"/>
				<path fill="#F39A00" d="M424.443,143.705h2.25v312.543h-2.25V143.705z"/>
				<path fill="#F49C00" d="M425.936,143.705h2.25v312.543h-2.25V143.705z"/>
				<path fill="#F49C00" d="M427.44,143.705h2.25v312.543h-2.25V143.705z"/>
				<path fill="#F49C00" d="M428.944,143.705h2.25v312.543h-2.25V143.705z"/>
				<path fill="#F49C00" d="M430.448,143.705h2.25v312.543h-2.25V143.705z"/>
				<path fill="#F49E00" d="M431.952,143.705h2.25v312.543h-2.25V143.705z"/>
				<path fill="#F49E00" d="M433.456,143.705h2.25v312.543h-2.25V143.705z"/>
				<path fill="#F49E00" d="M434.96,143.705h2.25v312.543h-2.25V143.705z"/>
				<path fill="#F49E00" d="M436.464,143.705h2.25v312.543h-2.25V143.705z"/>
				<path fill="#F49E00" d="M437.968,143.705h2.25v312.543h-2.25V143.705z"/>
				<path fill="#F49E00" d="M439.472,143.705h2.25v312.543h-2.25V143.705z"/>
				<path fill="#F5A000" d="M440.976,143.705h2.25v312.543h-2.25V143.705z"/>
				<path fill="#F5A000" d="M442.48,143.705h2.25v312.543h-2.25V143.705z"/>
				<path fill="#F5A000" d="M443.984,143.705h2.25v312.543h-2.25V143.705z"/>
				<path fill="#F5A000" d="M445.488,143.705h2.251v312.543h-2.251V143.705z"/>
				<path fill="#F5A200" d="M446.992,143.705h2.25v312.543h-2.25V143.705z"/>
				<path fill="#F5A200" d="M448.496,143.705h2.25v312.543h-2.25V143.705z"/>
				<path fill="#F5A200" d="M450,143.705h2.25v312.543H450V143.705z"/>
				<path fill="#F5A200" d="M451.504,143.705h2.25v312.543h-2.25V143.705z"/>
				<path fill="#F5A200" d="M453.008,143.705h2.25v312.543h-2.25V143.705z"/>
				<path fill="#F5A200" d="M454.512,143.705h2.25v312.543h-2.25V143.705z"/>
				<path fill="#F5A400" d="M456.016,143.705h2.251v312.543h-2.251V143.705z"/>
				<path fill="#F5A400" d="M457.52,143.705h2.251v312.543h-2.251V143.705z"/>
				<path fill="#F5A400" d="M459.023,143.705h2.251v312.543h-2.251V143.705z"/>
				<path fill="#F5A400" d="M460.527,143.705h2.251v312.543h-2.251V143.705z"/>
				<path fill="#F5A400" d="M462.031,143.705h2.251v312.543h-2.251V143.705z"/>
				<path fill="#F5A400" d="M463.535,143.705h2.251v312.543h-2.251V143.705z"/>
				<path fill="#F5A500" d="M465.04,143.705h2.25v312.543h-2.25V143.705z"/>
				<path fill="#F5A500" d="M466.544,143.705h2.251v312.543h-2.251V143.705z"/>
				<path fill="#F5A500" d="M468.048,143.705h2.251v312.543h-2.251V143.705z"/>
				<path fill="#F5A500" d="M469.553,143.705h2.25v312.543h-2.25V143.705z"/>
				<path fill="#F6A700" d="M471.057,143.705h2.25v312.543h-2.25V143.705z"/>
				<path fill="#F6A700" d="M472.561,143.705h2.25v312.543h-2.25V143.705z"/>
				<path fill="#F6A700" d="M474.053,143.705h2.25v312.543h-2.25V143.705z"/>
				<path fill="#F6A700" d="M475.557,143.705h2.25v312.543h-2.25V143.705z"/>
				<path fill="#F6A700" d="M477.061,143.705h2.25v312.543h-2.25V143.705z"/>
				<path fill="#F6A700" d="M478.564,143.705h2.25v312.543h-2.25V143.705z"/>
				<path fill="#F6A900" d="M480.068,143.705h2.25v312.543h-2.25V143.705z"/>
				<path fill="#F6A900" d="M481.572,143.705h2.25v312.543h-2.25V143.705z"/>
				<path fill="#F6A900" d="M483.076,143.705h2.251v312.543h-2.251V143.705z"/>
				<path fill="#F6A900" d="M484.58,143.705h2.251v312.543h-2.251V143.705z"/>
				<path fill="#F6AB00" d="M486.085,143.705h2.25v312.543h-2.25V143.705z"/>
				<path fill="#F6AB00" d="M487.588,143.705h2.252v312.543h-2.252V143.705z"/>
				<path fill="#F6AB00" d="M489.092,143.705h2.252v312.543h-2.252V143.705z"/>
				<path fill="#F6AB00" d="M490.597,143.705h2.25v312.543h-2.25V143.705z"/>
				<path fill="#F6AB00" d="M492.101,143.705h2.25v312.543h-2.25V143.705z"/>
				<path fill="#F7AD00" d="M493.604,143.705h2.251v312.543h-2.251V143.705z"/>
				<path fill="#F7AD00" d="M495.108,143.705h2.251v312.543h-2.251V143.705z"/>
				<path fill="#F7AD00" d="M496.613,143.705h2.25v312.543h-2.25V143.705z"/>
				<path fill="#F7AD00" d="M498.117,143.705h2.25v312.543h-2.25V143.705z"/>
				<path fill="#F7AF00" d="M499.621,143.705h2.25v312.543h-2.25V143.705z"/>
				<path fill="#F7AF00" d="M501.125,143.705h2.25v312.543h-2.25V143.705z"/>
				<path fill="#F7AF00" d="M502.629,143.705h2.25v312.543h-2.25V143.705z"/>
				<path fill="#F7AF00" d="M504.133,143.705h2.25v312.543h-2.25V143.705z"/>
				<path fill="#F7AF00" d="M505.637,143.705h2.25v312.543h-2.25V143.705z"/>
				<path fill="#F7AF00" d="M507.141,143.705h2.25v312.543h-2.25V143.705z"/>
				<path fill="#F8B100" d="M508.645,143.705h2.25v312.543h-2.25V143.705z"/>
				<path fill="#F8B100" d="M510.148,143.705h2.25v312.543h-2.25V143.705z"/>
				<path fill="#F8B100" d="M511.652,143.705h2.25v312.543h-2.25V143.705z"/>
				<path fill="#F8B100" d="M513.156,143.705h2.25v312.543h-2.25V143.705z"/>
				<path fill="#F8B300" d="M514.66,143.705h2.251v312.543h-2.251V143.705z"/>
				<path fill="#F8B300" d="M516.164,143.705h2.251v312.543h-2.251V143.705z"/>
				<path fill="#F8B300" d="M517.668,143.705h2.251v312.543h-2.251V143.705z"/>
				<path fill="#F8B300" d="M519.172,143.705h2.251v312.543h-2.251V143.705z"/>
				<path fill="#F8B300" d="M520.665,143.705h2.251v312.543h-2.251V143.705z"/>
				<path fill="#F8B300" d="M522.17,143.705h2.25v312.543h-2.25V143.705z"/>
				<path fill="#F8B500" d="M523.674,143.705h2.25v312.543h-2.25V143.705z"/>
				<path fill="#F8B500" d="M525.178,143.705h2.25v312.543h-2.25V143.705z"/>
				<path fill="#F8B500" d="M526.682,143.705h2.25v312.543h-2.25V143.705z"/>
				<path fill="#F8B500" d="M528.186,143.705h2.25v312.543h-2.25V143.705z"/>
				<path fill="#F8B500" d="M529.689,143.705h2.25v312.543h-2.25V143.705z"/>
				<path fill="#F8B500" d="M531.193,143.705h2.25v312.543h-2.25V143.705z"/>
				<path fill="#F9B700" d="M532.697,143.705h2.25v312.543h-2.25V143.705z"/>
				<path fill="#F9B700" d="M534.201,143.705h2.25v312.543h-2.25V143.705z"/>
				<path fill="#F9B700" d="M535.705,143.705h2.25v312.543h-2.25V143.705z"/>
				<path fill="#F9B700" d="M537.209,143.705h2.25v312.543h-2.25V143.705z"/>
				<path fill="#F9B900" d="M538.713,143.705h2.25v312.543h-2.25V143.705z"/>
				<path fill="#F9B900" d="M540.217,143.705h2.25v312.543h-2.25V143.705z"/>
				<path fill="#F9B900" d="M541.721,143.705h2.251v312.543h-2.251V143.705z"/>
				<path fill="#F9B900" d="M543.225,143.705h2.251v312.543h-2.251V143.705z"/>
				<path fill="#F9B900" d="M544.729,143.705h2.251v312.543h-2.251V143.705z"/>
				<path fill="#F9B900" d="M546.232,143.705h2.251v312.543h-2.251V143.705z"/>
				<path fill="#F9BB00" d="M547.736,143.705h2.252v312.543h-2.252V143.705z"/>
				<path fill="#F9BB00" d="M549.241,143.705h2.25v312.543h-2.25V143.705z"/>
				<path fill="#F9BB00" d="M550.745,143.705h2.25v312.543h-2.25V143.705z"/>
				<path fill="#F9BB00" d="M552.249,143.705h2.251v312.543h-2.251V143.705z"/>
				<path fill="#FABD00" d="M553.753,143.705h2.251v312.543h-2.251V143.705z"/>
				<path fill="#FABD00" d="M555.258,143.705h2.25v312.543h-2.25V143.705z"/>
				<path fill="#FABD00" d="M556.762,143.705h2.25v312.543h-2.25V143.705z"/>
				<path fill="#FABD00" d="M558.266,143.705h2.25v312.543h-2.25V143.705z"/>
				<path fill="#FABD00" d="M559.77,143.705h2.25v312.543h-2.25V143.705z"/>
				<path fill="#FABD00" d="M561.273,143.705h2.25v312.543h-2.25V143.705z"/>
				<path fill="#FABE00" d="M562.777,143.705h2.25v312.543h-2.25V143.705z"/>
				<path fill="#FABE00" d="M564.281,143.705h2.25v312.543h-2.25V143.705z"/>
				<path fill="#FABE00" d="M565.785,143.705h2.25v312.543h-2.25V143.705z"/>
				<path fill="#FAC000" d="M567.289,143.705h2.25v312.543h-2.25V143.705z"/>
				<path fill="#FAC000" d="M568.781,143.705h2.251v312.543h-2.251V143.705z"/>
				<path fill="#FAC000" d="M570.286,143.705h2.25v312.543h-2.25V143.705z"/>
				<path fill="#FAC000" d="M571.79,143.705h2.25v312.543h-2.25V143.705z"/>
				<path fill="#FAC000" d="M573.294,143.705h2.251v312.543h-2.251V143.705z"/>
				<path fill="#FAC000" d="M574.797,143.705h2.252v312.543h-2.252V143.705z"/>
				<path fill="#FBC200" d="M576.302,143.705h2.251v312.543h-2.251V143.705z"/>
				<path fill="#FBC200" d="M577.806,143.705h2.25v312.543h-2.25V143.705z"/>
				<path fill="#FBC200" d="M579.31,143.705h2.251v312.543h-2.251V143.705z"/>
				<path fill="#FBC200" d="M580.814,143.705h2.25v312.543h-2.25V143.705z"/>
				<path fill="#FBC400" d="M582.318,143.705h2.25v312.543h-2.25V143.705z"/>
				<path fill="#FBC400" d="M583.822,143.705h2.25v312.543h-2.25V143.705z"/>
				<path fill="#FBC400" d="M585.326,143.705h2.25v312.543h-2.25V143.705z"/>
				<path fill="#FBC400" d="M586.83,143.705h2.25v312.543h-2.25V143.705z"/>
				<path fill="#FBC400" d="M588.334,143.705h2.25v312.543h-2.25V143.705z"/>
				<path fill="#FBC400" d="M589.838,143.705h2.25v312.543h-2.25V143.705z"/>
				<path fill="#FBC600" d="M591.342,143.705h2.25v312.543h-2.25V143.705z"/>
				<path fill="#FBC600" d="M592.846,143.705h2.25v312.543h-2.25V143.705z"/>
				<path fill="#FBC600" d="M594.35,143.705h2.25v312.543h-2.25V143.705z"/>
				<path fill="#FBC600" d="M595.854,143.705h2.25v312.543h-2.25V143.705z"/>
				<path fill="#FCC800" d="M597.357,143.705h2.25v312.543h-2.25V143.705z"/>
				<path fill="#FCC800" d="M598.861,143.705h2.25v312.543h-2.25V143.705z"/>
				<path fill="#FCC800" d="M600.365,143.705h2.251v312.543h-2.251V143.705z"/>
				<path fill="#FCC800" d="M601.869,143.705h2.251v312.543h-2.251V143.705z"/>
				<path fill="#FCC800" d="M603.374,143.705h2.25v312.543h-2.25V143.705z"/>
				<path fill="#FCC800" d="M604.877,143.705h2.251v312.543h-2.251V143.705z"/>
				<path fill="#FCC900" d="M606.381,143.705h2.252v312.543h-2.252V143.705z"/>
				<path fill="#FCC900" d="M607.886,143.705h2.251v312.543h-2.251V143.705z"/>
				<path fill="#FCC900" d="M609.39,143.705h2.25v312.543h-2.25V143.705z"/>
				<path fill="#FCC900" d="M610.894,143.705h2.251v312.543h-2.251V143.705z"/>
				<path fill="#FCC900" d="M612.397,143.705h2.251v312.543h-2.251V143.705z"/>
				<path fill="#FCC900" d="M613.902,143.705h2.25v312.543h-2.25V143.705z"/>
				<path fill="#FCCB00" d="M615.406,143.705h2.25v312.543h-2.25V143.705z"/>
				<path fill="#FCCB00" d="M616.898,143.705h2.25v312.543h-2.25V143.705z"/>
				<path fill="#FCCB00" d="M618.402,143.705h2.25v312.543h-2.25V143.705z"/>
				<path fill="#FCCB00" d="M619.906,143.705h2.25v312.543h-2.25V143.705z"/>
				<path fill="#FDCD00" d="M621.41,143.705h2.25v312.543h-2.25V143.705z"/>
				<path fill="#FDCD00" d="M622.914,143.705h2.25v312.543h-2.25V143.705z"/>
				<path fill="#FDCD00" d="M624.418,143.705h2.25v312.543h-2.25V143.705z"/>
				<path fill="#FDCD00" d="M625.922,143.705h2.25v312.543h-2.25V143.705z"/>
				<path fill="#FDCD00" d="M627.426,143.705h2.251v312.543h-2.251V143.705z"/>
				<path fill="#FDCD00" d="M628.93,143.705h2.251v312.543h-2.251V143.705z"/>
				<path fill="#FDCF00" d="M630.435,143.705h2.25v312.543h-2.25V143.705z"/>
				<path fill="#FDCF00" d="M631.938,143.705h2.252v312.543h-2.252V143.705z"/>
				<path fill="#FDCF00" d="M633.441,143.705h2.252v312.543h-2.252V143.705z"/>
				<path fill="#FDCF00" d="M634.946,143.705h2.25v312.543h-2.25V143.705z"/>
				<path fill="#FDD000" d="M636.45,143.705h2.25v312.543h-2.25V143.705z"/>
				<path fill="#FDD000" d="M637.954,143.705h2.251v312.543h-2.251V143.705z"/>
				<path fill="#FDD000" d="M639.458,143.705h3.009v312.543h-3.009V143.705z"/>
			</g>
		</g>
		<path fill="#641D87" d="M461.342,456.248h-53.556l20.129-32.633l59.177-96.114l26.777,43.486l-32.432,52.628l-20.129,32.68
			L461.342,456.248z M388.223,456.248l20.128-32.633l68.98-111.952L450,267.291l-96.233,156.325l-20.129,32.633H388.223z"/>
	</g>
</g>
</svg>
