<?xml version="1.0" encoding="utf-8"?>
<!-- Generator: Adobe Illustrator 14.0.0, SVG Export Plug-In . SVG Version: 6.00 Build 43363)  -->
<!DOCTYPE svg PUBLIC "-//W3C//DTD SVG 1.1//EN" "http://www.w3.org/Graphics/SVG/1.1/DTD/svg11.dtd">
<svg version="1.1" id="cube" xmlns="http://www.w3.org/2000/svg" xmlns:xlink="http://www.w3.org/1999/xlink" x="0px" y="0px"
	 width="900px" height="600px" viewBox="0 0 900 600" enable-background="new 0 0 900 600" xml:space="preserve">
<rect fill="#F78D03" width="900" height="600"/>
<g>
	<path fill="#FFFFFF" d="M499.293,236.862v-22.061c41.358,0.262,81.285,6.735,118.859,18.495
		C591.506,166.77,526.286,119.75,450.013,119.75c-45.286,0-86.644,16.598-118.394,43.969c6.746,45.233,21.737,89.994,45.759,132.05
		l-19.172,11c-22.626-39.56-37.642-81.413-45.759-123.847c-27.062,31.493-43.44,72.368-43.44,117.079
		c0,81.438,54.275,150.258,128.746,172.579c35.695-28.349,66.878-63.44,91.273-104.948l19.139,11.018
		c-22.65,38.599-50.906,71.963-83.054,99.856c8.168,1.121,16.447,1.745,24.886,1.745c99.957,0,180.997-80.705,180.997-180.25
		c0-13.984-1.667-27.573-4.689-40.647C586.58,245.09,543.842,237.132,499.293,236.862z"/>
</g>
</svg>
