<svg id="svg" version="1.1" xmlns="http://www.w3.org/2000/svg" xmlns:xlink="http://www.w3.org/1999/xlink" width="400" height="266.6666666666667" viewBox="0, 0, 400,266.6666666666667"><g id="svgg"><path id="path0" d="M196.000 50.168 C 190.140 50.422,183.342 51.422,178.933 52.679 C 163.591 57.050,152.497 63.373,141.776 73.853 C 108.371 106.508,108.310 160.087,141.642 192.685 C 152.493 203.297,163.519 209.596,178.933 213.988 C 196.337 218.947,218.860 216.777,236.000 208.490 C 275.613 189.337,293.137 144.557,277.464 102.533 C 265.454 70.331,231.677 48.619,196.000 50.168 M208.816 54.947 C 235.081 58.188,256.579 74.584,267.538 99.733 C 274.541 115.803,274.512 139.364,267.471 155.067 C 264.624 161.416,261.929 166.160,258.571 170.733 L 258.033 171.467 241.150 171.467 L 224.267 171.467 224.267 168.400 L 224.267 165.333 200.000 165.333 L 175.733 165.333 175.733 166.533 L 175.733 167.733 157.533 167.731 L 139.333 167.729 138.362 166.198 C 120.281 137.689,124.369 100.007,148.133 76.131 C 160.965 63.240,177.256 55.816,195.467 54.560 C 197.828 54.398,206.369 54.645,208.816 54.947 M249.867 180.539 L 247.600 182.654 200.000 182.651 L 152.400 182.648 150.133 180.533 L 147.867 178.419 200.000 178.421 L 252.133 178.423 249.867 180.539 M239.575 188.532 C 239.429 188.678,237.942 189.578,236.269 190.532 L 233.229 192.267 200.000 192.267 L 166.771 192.267 163.731 190.532 C 162.058 189.578,160.571 188.678,160.425 188.532 C 160.249 188.356,173.592 188.267,200.000 188.267 C 226.408 188.267,239.751 188.356,239.575 188.532 M221.867 196.749 C 221.867 196.972,219.841 197.549,216.133 198.385 C 203.844 201.153,193.099 200.871,179.933 197.434 C 178.943 197.176,178.133 196.867,178.133 196.749 C 178.133 196.630,187.973 196.533,200.000 196.533 C 212.027 196.533,221.867 196.630,221.867 196.749 " stroke="none" fill="#0f870f" fill-rule="evenodd"></path><path id="path1" d="M180.228 61.363 C 171.198 62.528,163.308 70.794,162.732 79.691 L 162.588 81.915 161.361 81.691 C 139.818 77.753,127.191 108.688,141.697 129.867 C 150.578 142.833,168.302 148.514,182.821 143.049 C 186.264 141.753,186.238 141.794,184.254 140.799 C 178.122 137.721,172.336 130.692,170.537 124.133 C 170.295 123.253,169.965 122.053,169.804 121.467 C 168.683 117.396,169.464 112.000,171.889 107.067 C 176.525 97.634,172.662 86.032,163.760 82.653 L 162.538 82.189 163.736 81.866 C 169.231 80.384,173.189 82.412,175.989 88.143 C 178.783 93.862,179.026 100.561,176.661 106.667 C 174.845 111.354,174.608 112.293,174.466 115.355 C 174.163 121.919,175.818 125.683,181.200 130.670 L 183.067 132.400 183.135 107.226 C 183.209 79.869,183.114 81.333,184.804 81.333 C 186.207 81.333,186.132 80.337,186.142 99.155 L 186.151 116.133 186.690 115.467 C 186.987 115.100,187.673 114.261,188.215 113.603 L 189.200 112.406 189.333 96.936 L 189.467 81.467 190.667 81.467 L 191.867 81.467 191.933 95.600 C 191.970 103.373,192.056 109.883,192.125 110.067 C 192.243 110.381,192.833 110.174,194.933 109.083 C 195.278 108.904,195.352 106.991,195.467 95.171 L 195.600 81.467 196.800 81.467 L 198.000 81.467 198.069 94.867 L 198.138 108.267 200.000 108.267 L 201.862 108.267 201.931 94.867 L 202.000 81.467 203.200 81.467 L 204.400 81.467 204.469 95.103 C 204.522 105.579,204.615 108.797,204.869 108.990 C 205.214 109.252,207.478 110.133,207.807 110.133 C 207.910 110.133,208.026 103.683,208.064 95.800 L 208.133 81.467 209.333 81.467 L 210.533 81.467 210.667 96.933 L 210.800 112.400 212.267 114.180 L 213.733 115.960 213.867 98.713 L 214.000 81.467 215.019 81.383 C 216.938 81.225,216.800 79.226,216.800 107.109 C 216.800 131.004,216.824 132.273,217.267 132.034 C 218.043 131.617,221.805 127.785,222.663 126.538 C 226.407 121.097,226.619 114.584,223.312 106.634 C 219.334 97.069,223.688 82.833,231.012 81.459 C 233.044 81.078,238.361 82.085,236.620 82.521 C 234.452 83.064,230.787 86.089,229.012 88.800 C 225.309 94.453,225.003 100.724,228.119 107.067 C 230.354 111.614,230.534 112.338,230.516 116.667 C 230.474 126.545,224.145 136.907,215.787 140.782 C 214.008 141.606,214.101 141.813,216.713 142.850 C 243.572 153.513,271.593 127.141,262.952 99.333 C 258.906 86.316,249.737 79.662,238.639 81.691 L 237.412 81.915 237.268 79.691 C 236.139 62.248,212.873 54.742,201.222 68.061 L 200.000 69.458 198.778 68.061 C 194.275 62.913,187.413 60.436,180.228 61.363 M200.750 113.034 C 197.620 114.290,196.483 115.747,196.148 118.933 C 196.048 119.887,195.735 121.627,195.453 122.800 C 194.918 125.026,194.323 127.789,193.209 133.226 C 192.845 135.000,192.478 136.633,192.393 136.855 C 192.108 137.598,198.885 138.044,203.868 137.610 C 208.307 137.224,207.790 137.642,207.173 134.933 C 206.889 133.687,206.346 131.287,205.965 129.600 C 205.585 127.913,204.922 125.273,204.492 123.733 C 203.034 118.508,203.012 118.581,206.885 115.518 C 208.128 114.536,208.271 113.928,207.439 113.175 C 206.610 112.423,202.490 112.337,200.750 113.034 M201.283 114.204 C 201.389 114.755,200.620 115.126,200.213 114.720 C 199.807 114.314,200.178 113.544,200.729 113.650 C 200.985 113.699,201.234 113.948,201.283 114.204 M198.800 141.224 C 189.112 149.735,180.326 155.554,174.027 157.634 L 171.654 158.418 169.149 157.583 C 166.154 156.585,165.333 156.656,165.333 157.913 C 165.333 159.305,166.832 160.446,170.964 162.200 L 174.577 163.733 200.000 163.733 L 225.423 163.733 229.036 162.200 C 233.168 160.446,234.667 159.305,234.667 157.913 C 234.667 156.655,233.846 156.585,230.839 157.587 L 228.322 158.426 226.128 157.716 C 219.918 155.705,210.873 149.721,201.200 141.224 C 200.613 140.708,200.073 140.287,200.000 140.287 C 199.927 140.287,199.387 140.708,198.800 141.224 " stroke="none" fill="#ff0000" fill-rule="evenodd"></path><path id="path2" d="M0.000 133.333 L 0.000 266.667 200.000 266.667 L 400.000 266.667 400.000 133.333 L 400.000 0.000 200.000 0.000 L 0.000 0.000 0.000 133.333 M209.088 50.544 C 237.235 53.361,262.571 71.304,275.157 97.333 C 285.956 119.670,285.956 146.997,275.157 169.333 C 262.581 195.343,237.437 213.159,209.096 216.141 C 199.494 217.151,186.872 216.250,178.933 213.988 C 166.176 210.353,156.428 205.371,147.200 197.770 C 108.808 166.151,106.287 108.545,141.776 73.853 C 152.497 63.373,163.591 57.050,178.933 52.679 C 187.231 50.314,198.691 49.503,209.088 50.544 M195.467 54.560 C 140.148 58.374,108.820 119.620,138.362 166.198 L 139.333 167.729 157.533 167.731 L 175.733 167.733 175.733 166.533 L 175.733 165.333 200.000 165.333 L 224.267 165.333 224.267 168.400 L 224.267 171.467 241.150 171.467 L 258.033 171.467 258.571 170.733 C 261.929 166.160,264.624 161.416,267.471 155.067 C 274.512 139.364,274.541 115.803,267.538 99.733 C 254.676 70.217,226.304 52.435,195.467 54.560 M186.098 61.345 C 190.834 61.938,195.658 64.494,198.778 68.061 L 200.000 69.458 201.222 68.061 C 212.873 54.742,236.139 62.248,237.268 79.691 L 237.412 81.915 238.639 81.691 C 260.179 77.753,272.807 108.691,258.303 129.867 C 249.304 143.006,231.279 148.633,216.713 142.850 C 214.101 141.813,214.008 141.606,215.787 140.782 C 224.145 136.907,230.474 126.545,230.516 116.667 C 230.534 112.338,230.354 111.614,228.119 107.067 C 225.003 100.724,225.309 94.453,229.012 88.800 C 230.787 86.089,234.452 83.064,236.620 82.521 C 238.361 82.085,233.044 81.078,231.012 81.459 C 223.688 82.833,219.334 97.069,223.312 106.634 C 226.619 114.584,226.407 121.097,222.663 126.538 C 221.805 127.785,218.043 131.617,217.267 132.034 C 216.824 132.273,216.800 131.004,216.800 107.109 C 216.800 79.226,216.938 81.225,215.019 81.383 L 214.000 81.467 213.867 98.713 L 213.733 115.960 212.267 114.180 L 210.800 112.400 210.667 96.933 L 210.533 81.467 209.333 81.467 L 208.133 81.467 208.064 95.800 C 208.026 103.683,207.910 110.133,207.807 110.133 C 207.478 110.133,205.214 109.252,204.869 108.990 C 204.615 108.797,204.522 105.579,204.469 95.103 L 204.400 81.467 203.200 81.467 L 202.000 81.467 201.931 94.867 L 201.862 108.267 200.000 108.267 L 198.138 108.267 198.069 94.867 L 198.000 81.467 196.800 81.467 L 195.600 81.467 195.467 95.171 C 195.352 106.991,195.278 108.904,194.933 109.083 C 192.833 110.174,192.243 110.381,192.125 110.067 C 192.056 109.883,191.970 103.373,191.933 95.600 L 191.867 81.467 190.667 81.467 L 189.467 81.467 189.333 96.936 L 189.200 112.406 188.215 113.603 C 187.673 114.261,186.987 115.100,186.690 115.467 L 186.151 116.133 186.142 99.155 C 186.132 80.337,186.207 81.333,184.804 81.333 C 183.114 81.333,183.209 79.869,183.135 107.226 L 183.067 132.400 181.200 130.670 C 175.818 125.683,174.163 121.919,174.466 115.355 C 174.608 112.293,174.845 111.354,176.661 106.667 C 179.026 100.561,178.783 93.862,175.989 88.143 C 173.189 82.412,169.231 80.384,163.736 81.866 L 162.538 82.189 163.760 82.653 C 172.662 86.032,176.525 97.634,171.889 107.067 C 169.464 112.000,168.683 117.396,169.804 121.467 C 169.965 122.053,170.295 123.253,170.537 124.133 C 172.336 130.692,178.122 137.721,184.254 140.799 C 186.238 141.794,186.264 141.753,182.821 143.049 C 160.128 151.591,135.616 134.286,135.629 109.733 C 135.639 91.568,147.095 79.083,161.361 81.691 L 162.588 81.915 162.732 79.691 C 163.460 68.453,174.383 59.876,186.098 61.345 M207.439 113.175 C 208.271 113.928,208.128 114.536,206.885 115.518 C 203.012 118.581,203.034 118.508,204.492 123.733 C 204.922 125.273,205.585 127.913,205.965 129.600 C 206.346 131.287,206.889 133.687,207.173 134.933 C 207.457 136.179,207.669 137.219,207.645 137.242 C 206.719 138.133,192.046 137.760,192.393 136.855 C 192.478 136.633,192.845 135.000,193.209 133.226 C 194.323 127.789,194.918 125.026,195.453 122.800 C 195.735 121.627,196.048 119.887,196.148 118.933 C 196.483 115.747,197.620 114.290,200.750 113.034 C 202.490 112.337,206.610 112.423,207.439 113.175 M200.097 113.998 C 200.005 114.239,200.057 114.564,200.213 114.720 C 200.620 115.126,201.389 114.755,201.283 114.204 C 201.165 113.590,200.311 113.442,200.097 113.998 M201.200 141.224 C 210.873 149.721,219.918 155.705,226.128 157.716 L 228.322 158.426 230.839 157.587 C 233.846 156.585,234.667 156.655,234.667 157.913 C 234.667 159.305,233.168 160.446,229.036 162.200 L 225.423 163.733 200.000 163.733 L 174.577 163.733 170.964 162.200 C 166.832 160.446,165.333 159.305,165.333 157.913 C 165.333 156.656,166.154 156.585,169.149 157.583 L 171.654 158.418 174.027 157.634 C 180.326 155.554,189.112 149.735,198.800 141.224 C 199.387 140.708,199.927 140.287,200.000 140.287 C 200.073 140.287,200.613 140.708,201.200 141.224 M150.133 180.533 L 152.400 182.648 200.000 182.651 L 247.600 182.654 249.867 180.539 L 252.133 178.423 200.000 178.421 L 147.867 178.419 150.133 180.533 M160.425 188.532 C 160.571 188.678,162.058 189.578,163.731 190.532 L 166.771 192.267 200.000 192.267 L 233.229 192.267 236.269 190.532 C 237.942 189.578,239.429 188.678,239.575 188.532 C 239.751 188.356,226.408 188.267,200.000 188.267 C 173.592 188.267,160.249 188.356,160.425 188.532 M178.133 196.749 C 178.133 196.972,180.159 197.549,183.867 198.385 C 196.156 201.153,206.901 200.871,220.067 197.434 C 221.057 197.176,221.867 196.867,221.867 196.749 C 221.867 196.630,212.027 196.533,200.000 196.533 C 187.973 196.533,178.133 196.630,178.133 196.749 " stroke="none" fill="#ffffff" fill-rule="evenodd"></path></g></svg>