<?xml version="1.0" encoding="utf-8"?>
<!-- Generator: Adobe Illustrator 14.0.0, SVG Export Plug-In . SVG Version: 6.00 Build 43363)  -->
<!DOCTYPE svg PUBLIC "-//W3C//DTD SVG 1.1//EN" "http://www.w3.org/Graphics/SVG/1.1/DTD/svg11.dtd">
<svg version="1.1" id="图层_1" xmlns="http://www.w3.org/2000/svg" xmlns:xlink="http://www.w3.org/1999/xlink" x="0px" y="0px"
	 width="900px" height="600px" viewBox="0 0 900 600" enable-background="new 0 0 900 600" xml:space="preserve">
<rect fill="#FFFFFF" width="900" height="600"/>
<path fill="#D40682" d="M450,418.709L372.45,340.1l-31.703,32.09L450,482.928l52.525-53.098l-31.703-32.127L450,418.709z
	 M372.45,262.434l77.55-78.72l20.748,21.006l31.702-32.127L450,119.496L340.748,230.233L372.45,262.434z"/>
<path fill="#1D1C58" d="M511.417,356.49l54.515-55.278l-54.515-55.242l-54.551,55.242L511.417,356.49z M511.417,181.716
	l117.882,119.496L511.417,420.708L393.498,301.212L511.417,181.716z M270.701,301.212l29.64,30.019l31.703,32.129l61.304-62.146
	l-61.304-62.147L270.701,301.212z"/>
</svg>
