<svg width="600" height="400" xmlns="http://www.w3.org/2000/svg">
 <!-- Created with Method Draw - http://github.com/duopixel/Method-Draw/ -->

 <g>
  <title>background</title>
  <rect fill="#fff" id="canvas_background" height="402" width="602" y="-1" x="-1"/>
  <g display="none" overflow="visible" y="0" x="0" height="100%" width="100%" id="canvasGrid">
   <rect fill="url(#gridpattern)" stroke-width="0" y="0" x="0" height="100%" width="100%"/>
  </g>
 </g>
 <g>
  <title>Layer 1</title>
  <g stroke="null" id="svg_63">
   <g stroke="null" transform="matrix(1.98056 0 0 2.2029 -302.937 -227.652)" id="svg_35">
    <path stroke="null" id="svg_36" d="m296.728394,153.181549c-21.599976,0 -39.099976,17.5 -39.099976,39.100006c0,4.799988 1.100006,9.399979 2.699982,13.699997c11.5,2.199997 22.100006,7.799988 30.100006,15.799988l0,-13.899994l1,0l0,13.899994c6,-8.899994 14,-16.399994 24,-22.100006l0,-6.799988l2,0l0,6.300003c5,-3.400009 12,-6.100006 18.799988,-7.899994c-0.599976,-21.100006 -18.299988,-38.100006 -39.5,-38.100006zm-29.399994,48.699997c-3.5,1.300003 -3.600006,-4 -3.600006,-4c5.900024,0.800003 3.600006,4 3.600006,4zm0,-4c-3.5,1.300003 -3.600006,-4 -3.600006,-4c5.900024,0.800003 3.600006,4 3.600006,4zm0,-4.100006c-3.5,1.300018 -3.600006,-4 -3.600006,-4c5.900024,0.800003 3.600006,4 3.600006,4zm0.399994,-8.199997c0,0 3.700012,3.900009 0.300018,5.400009c0,0 -3.899994,-0.699997 -0.300018,-5.400009zm1,16.199997c0,0 -2.299988,-3.199982 3.600006,-4c0,0 -0.100006,5.300003 -3.600006,4zm0,-4.099991c0,0 -2.299988,-3.199997 3.600006,-4c0,0 -0.100006,5.399994 -3.600006,4zm0,-4c0,0 -2.299988,-3.199997 3.600006,-4c0,0 -0.100006,5.300003 -3.600006,4zm20.200012,15c-8.799988,3.300003 -9,-10.099991 -9,-10.099991c14.700012,2.099991 9,10.099991 9,10.099991zm0,-10.199997c-8.799988,3.299988 -9,-10.100006 -9,-10.100006c14.700012,2.100006 9,10.100006 9,10.100006zm0,-10.199997c-8.799988,3.300003 -9,-10.100006 -9,-10.100006c14.700012,2.100006 9,10.100006 9,10.100006zm1.799988,-7.100006c0,0 -9.799988,-1.699997 -0.599976,-13.5c-0.100006,-0.100006 9.199982,9.699997 0.599976,13.5zm1.800018,27.199997c0,0 -5.800018,-8 9,-10.099991c0,0 -0.300018,13.399994 -9,10.099991zm0,-10.199997c0,0 -5.800018,-8 9,-10.099991c0,-0.000015 -0.300018,13.399994 -9,10.099991zm0,-10.199997c0,0 -5.800018,-8 9,-10.100006c0,0 -0.300018,13.400009 -9,10.100006zm22.699982,4.300003c-5.299988,2 -5.399994,-6.100006 -5.399994,-6.100006c8.800018,1.300003 5.399994,6.100006 5.399994,6.100006zm0,-6.100006c-5.299988,2 -5.399994,-6.099991 -5.399994,-6.099991c8.800018,1.299988 5.399994,6.099991 5.399994,6.099991zm0,-6.100006c-5.299988,2 -5.399994,-6.099991 -5.399994,-6.099991c8.800018,1.199997 5.399994,6.099991 5.399994,6.099991zm0.700012,-12.5c0,0 5.5,5.900009 0.399994,8.100006c-0.100006,0.099991 -5.899994,-1 -0.399994,-8.100006zm1.399994,24.5c0,0 -3.5,-4.800003 5.399994,-6.099991c0,0.099991 -0.099976,8.099991 -5.399994,6.099991zm0,-6.099991c0,0 -3.5,-4.800003 5.399994,-6.100006c0,0 -0.099976,8.100006 -5.399994,6.100006zm0,-6.100006c0,0 -3.5,-4.800003 5.399994,-6.100006c0,0 -0.099976,8.100006 -5.399994,6.100006z" fill="none"/>
    <path stroke="null" id="svg_37" d="m260.028412,205.981552c-1.600006,-4.300018 -2.5,-8.900009 -2.5,-13.699997c0,-21.600006 17.5,-39.100006 39.100006,-39.100006c21.299988,0 38.599976,17 39.099976,38.100006c3.5,-0.900009 7,-1.700012 10.700012,-2.200012c-1.600006,-26.099991 -23.299988,-46.699997 -49.799988,-46.699997c-27.600006,0 -49.900009,22.299988 -49.900009,49.900009c0,4.399979 0.600006,8.699997 1.700012,12.699997c0.299988,0 0.700012,0 1,0c3.600006,0 7.199997,0.399994 10.599991,1z" fill="#FFC600"/>
    <path stroke="null" id="svg_38" d="m267.728394,185.581543c-3.599976,4.699997 0.300018,5.400009 0.300018,5.400009c3.399994,-1.5 -0.300018,-5.400009 -0.300018,-5.400009z" fill="#0FA24A"/>
    <path stroke="null" id="svg_39" d="m268.728394,193.681549c3.5,1.300003 3.600006,-4 3.600006,-4c-5.899994,0.800003 -3.600006,4 -3.600006,4z" fill="#0FA24A"/>
    <path stroke="null" id="svg_40" d="m263.728394,189.78154c0,0 0.100006,5.300018 3.600006,4c0,0 2.300018,-3.199997 -3.600006,-4z" fill="#0FA24A"/>
    <path stroke="null" id="svg_41" d="m268.728394,197.681549c3.5,1.300003 3.600006,-4 3.600006,-4c-5.899994,0.800003 -3.600006,4 -3.600006,4z" fill="#0FA24A"/>
    <path stroke="null" id="svg_42" d="m263.728394,193.78154c0,0 0.100006,5.300018 3.600006,4c0,0.100006 2.300018,-3.099991 -3.600006,-4z" fill="#0FA24A"/>
    <path stroke="null" id="svg_43" d="m268.728394,201.78154c3.5,1.300018 3.600006,-4 3.600006,-4c-5.899994,0.800003 -3.600006,4 -3.600006,4z" fill="#0FA24A"/>
    <path stroke="null" id="svg_44" d="m263.728394,197.881546c0,0 0.100006,5.300003 3.600006,4c0,0 2.300018,-3.199997 -3.600006,-4z" fill="#0FA24A"/>
    <path stroke="null" id="svg_45" d="m290.028412,167.581543c-9.100006,11.800003 0.600006,13.5 0.600006,13.5c8.699982,-3.699997 -0.600006,-13.5 -0.600006,-13.5z" fill="#0FA24A"/>
    <path stroke="null" id="svg_46" d="m292.528412,187.981552c8.799988,3.300003 9,-10.100006 9,-10.100006c-14.800018,2.100006 -9,10.100006 -9,10.100006z" fill="#0FA24A"/>
    <path stroke="null" id="svg_47" d="m279.928406,178.181549c0,0 0.200012,13.399994 9,10.100006c0,0 5.700012,-8 -9,-10.100006z" fill="#0FA24A"/>
    <path stroke="null" id="svg_48" d="m292.528412,198.181549c8.799988,3.300003 9,-10.099991 9,-10.099991c-14.800018,2.099991 -9,10.099991 -9,10.099991z" fill="#0FA24A"/>
    <path stroke="null" id="svg_49" d="m279.928406,188.381546c0,0 0.200012,13.399994 9,10.100006c0,0 5.700012,-8 -9,-10.100006z" fill="#0FA24A"/>
    <path stroke="null" id="svg_50" d="m292.528412,208.381546c8.799988,3.300003 9,-10.099991 9,-10.099991c-14.800018,2.099991 -9,10.099991 -9,10.099991z" fill="#0FA24A"/>
    <path stroke="null" id="svg_51" d="m279.928406,198.581543c0,0 0.200012,13.400009 9,10.099991c0,0.000015 5.700012,-7.999985 -9,-10.099991z" fill="#0FA24A"/>
    <path stroke="null" id="svg_52" d="m315.928406,167.581543c-5.5,7.100006 0.399994,8.100006 0.399994,8.100006c5.100006,-2.199997 -0.399994,-8.100006 -0.399994,-8.100006z" fill="#0FA24A"/>
    <path stroke="null" id="svg_53" d="m317.3284,179.881546c5.300018,2 5.399994,-6.100006 5.399994,-6.100006c-8.899994,1.300003 -5.399994,6.100006 -5.399994,6.100006z" fill="#0FA24A"/>
    <path stroke="null" id="svg_54" d="m309.8284,173.981552c0,0 0.100006,8.099991 5.399994,6.099991c0,0 3.400024,-4.899994 -5.399994,-6.099991z" fill="#0FA24A"/>
    <path stroke="null" id="svg_55" d="m317.3284,185.981552c5.300018,2 5.399994,-6.100006 5.399994,-6.100006c-8.899994,1.300003 -5.399994,6.100006 -5.399994,6.100006z" fill="#0FA24A"/>
    <path stroke="null" id="svg_56" d="m309.8284,180.081543c0,0 0.100006,8.100006 5.399994,6.100006c0,0 3.400024,-4.800003 -5.399994,-6.100006z" fill="#0FA24A"/>
    <path stroke="null" id="svg_57" d="m317.3284,192.081543c5.300018,2 5.399994,-6.099991 5.399994,-6.099991c-8.899994,1.300003 -5.399994,6.099991 -5.399994,6.099991z" fill="#0FA24A"/>
    <path stroke="null" id="svg_58" d="m309.8284,186.281555c0,0 0.100006,8.099991 5.399994,6.099991c0,-0.099991 3.400024,-4.899994 -5.399994,-6.099991z" fill="#0FA24A"/>
    <path stroke="null" id="svg_59" d="m244.428421,238.78154l0,7.100006l22.599991,0c-4.5,-5 -10.600006,-7.5 -17.599991,-7.5c-1.799988,0 -3.600006,0 -5,0.399994z" fill="#0FA24A"/>
    <path stroke="null" id="svg_60" d="m332.228394,245.881546l32.200012,0l0,-9.899994c-2.799988,-0.5 -4.700012,-0.700012 -7.200012,-0.700012c-9.799988,0 -18.599976,4.600006 -25,10.600006z" fill="#0FA24A"/>
    <path stroke="null" id="svg_61" d="m302.8284,245.881546l12.600006,0c8.5,-14 23.899994,-23.899994 41.700012,-23.899994c2.5,0 4.5,0.099991 7.200012,0.399994l0,-11.300003c-2.800018,-0.300003 -4.800018,-0.400009 -7.200012,-0.400009c-24.100006,0.000015 -44.800018,14.200012 -54.300018,35.200012z" fill="#0FA24A"/>
    <path stroke="null" id="svg_62" d="m357.228394,188.381546c-3.599976,0 -7.199982,0.300003 -10.699982,0.699997c-3.600006,0.5 -6.800018,1.200012 -10.300018,2.200012c-6.799988,1.799988 -13.799988,4.499985 -18.799988,7.899994l0,-6.300003l-2,0l0,6.800003c-10,5.600006 -18,13.199997 -24,22.099991l0,-13.899994l-1,0l0,13.899994c-8,-8 -18.600006,-13.599991 -30.200012,-15.799988c-3.399994,-0.600006 -7.09996,-1 -10.699966,-1c-0.300018,0 -0.700012,0 -1,0c-1.399994,0 -2.899994,0.099991 -4.100006,0.199997l0,8c1.399994,-0.199997 3.299988,-0.300003 5,-0.300003c14.699997,0 27.799973,6.400009 36.999985,16.399994c-1.399994,2.399994 -2.700012,4.899994 -3.899994,7.5c-7.800018,-9.799988 -19.600006,-16.100006 -33.099991,-16.100006c-1.799988,0 -3.700012,0.100006 -5,0.300018l0,8c1.399994,-0.300018 3.299988,-0.300018 5,-0.300018c12.599991,0 23.499985,7 29.499985,17l0.200012,0l8.5,0l3.399994,0c10,-27 35.899994,-46.099991 66.199982,-46.099991c2.5,0 4.5,0 7.200012,0.300003l0,-11.100006c-2.799988,-0.199997 -4.799988,-0.399994 -7.200012,-0.399994z" fill="#0FA24A"/>
   </g>
  </g>
 </g>
</svg>