<?xml version="1.0" encoding="utf-8"?>
<!-- Generator: Adobe Illustrator 14.0.0, SVG Export Plug-In . SVG Version: 6.00 Build 43363)  -->
<!DOCTYPE svg PUBLIC "-//W3C//DTD SVG 1.1//EN" "http://www.w3.org/Graphics/SVG/1.1/DTD/svg11.dtd">
<svg version="1.1" id="图层_1" xmlns="http://www.w3.org/2000/svg" xmlns:xlink="http://www.w3.org/1999/xlink" x="0px" y="0px"
	 width="900px" height="600px" viewBox="0 0 900 600" enable-background="new 0 0 900 600" xml:space="preserve">
<rect fill="#FFFFFF" width="900" height="600"/>
<path fill="#FFA200" d="M333.77,300c-0.979-48.202,36.586-88.087,83.904-89.085c47.319-0.998,86.473,37.267,87.454,85.469
	c0.024,1.205,0.024,2.411,0,3.616h98.124c0-103.416-82.3-187.25-183.821-187.25C317.91,112.75,235.61,196.584,235.61,300H333.77z"/>
<path fill="#F5D400" d="M603.251,300h-36.985c0.98,48.201-36.584,88.087-83.903,89.085c-47.318,0.999-86.474-37.269-87.453-85.47
	c-0.024-1.205-0.024-2.41,0-3.615h-98.16c0,103.416,82.299,187.25,183.82,187.25c101.521,0,183.82-83.834,183.82-187.25H603.251z
	 M566.266,300h37.021H296.748H566.266z"/>
</svg>
