<svg id="svg" version="1.1" xmlns="http://www.w3.org/2000/svg" xmlns:xlink="http://www.w3.org/1999/xlink" width="400" height="266.25" viewBox="0, 0, 400,266.25"><g id="svgg"><path id="path0" d="M0.000 133.156 L 0.000 266.312 200.000 266.312 L 400.000 266.312 400.000 133.156 L 400.000 0.000 200.000 0.000 L 0.000 0.000 0.000 133.156 M169.640 60.286 C 169.640 60.342,168.532 61.019,167.177 61.793 C 126.040 85.278,121.434 142.858,158.322 172.486 C 184.965 193.885,223.355 191.805,247.551 167.651 C 278.120 137.137,272.626 86.900,236.157 63.447 C 233.069 61.462,233.379 61.400,237.037 63.271 C 274.504 82.436,289.881 130.263,270.819 168.344 C 243.549 222.823,167.907 227.559,134.129 176.902 C 109.980 140.687,119.971 91.265,156.293 67.255 C 160.791 64.282,169.640 59.662,169.640 60.286 " stroke="none" fill="#ffffff" fill-rule="evenodd"></path><path id="path1" d="M167.493 61.072 C 123.411 80.320,107.217 136.543,134.129 176.902 C 167.907 227.559,243.549 222.823,270.819 168.344 C 289.881 130.263,274.504 82.436,237.037 63.271 C 233.379 61.400,233.069 61.462,236.157 63.447 C 272.626 86.900,278.120 137.137,247.551 167.651 C 223.355 191.805,184.965 193.885,158.322 172.486 C 121.434 142.858,126.040 85.278,167.177 61.793 C 169.278 60.594,169.906 60.173,169.574 60.190 C 169.537 60.191,168.601 60.589,167.493 61.072 " stroke="none" fill="#b80f0a" fill-rule="evenodd"></path></g></svg>