<?xml version="1.0" encoding="utf-8"?>
<!-- Generator: Adobe Illustrator 14.0.0, SVG Export Plug-In . SVG Version: 6.00 Build 43363)  -->
<!DOCTYPE svg PUBLIC "-//W3C//DTD SVG 1.1//EN" "http://www.w3.org/Graphics/SVG/1.1/DTD/svg11.dtd">
<svg version="1.1" id="图层_1" xmlns="http://www.w3.org/2000/svg" xmlns:xlink="http://www.w3.org/1999/xlink" x="0px" y="0px"
	 width="900px" height="600px" viewBox="0 0 900 600" enable-background="new 0 0 900 600" xml:space="preserve">
<rect fill="#FFFFFF" width="900" height="600"/>
<path fill="#29AAE1" d="M391.318,472.729c94.25,33.089,197.162-17.408,229.859-112.79c4.439-12.95,7.426-26.366,8.901-39.994
	L391.318,472.729z"/>
<path fill="#2696C7" d="M630.079,280.022c-10.87-100.356-100.073-172.792-199.24-161.792c-13.466,1.494-26.723,4.516-39.521,9.009
	L630.079,280.022z"/>
<path fill="#1B639D" d="M387.416,128.665c-24.145,9.131-46.082,23.378-64.342,41.788l202.382,129.531l-202.31,129.531
	c18.238,18.4,40.15,32.647,64.27,41.788l176.479-171.319L387.416,128.665z"/>
<path fill="#2A3D8F" d="M309.924,185.259c-53.338,66.959-53.338,162.489,0,229.449l118.17-114.725L309.924,185.259z"/>
</svg>
