<?xml version="1.0" encoding="utf-8"?>
<!-- Generator: Adobe Illustrator 14.0.0, SVG Export Plug-In . SVG Version: 6.00 Build 43363)  -->
<!DOCTYPE svg PUBLIC "-//W3C//DTD SVG 1.1//EN" "http://www.w3.org/Graphics/SVG/1.1/DTD/svg11.dtd">
<svg version="1.1" id="图层_1" xmlns="http://www.w3.org/2000/svg" xmlns:xlink="http://www.w3.org/1999/xlink" x="0px" y="0px"
	 width="900px" height="600px" viewBox="0 0 900 600" enable-background="new 0 0 900 600" xml:space="preserve">
<rect fill="#FFFFFF" width="900" height="600"/>
<g>
	<g>
		<path fill="#1CAACC" d="M428.907,318.436c0-0.161,0-0.334-0.061-0.494c-0.061-0.161,0-0.322-0.073-0.482
			c-0.073-0.161-0.085-0.368-0.134-0.552s-0.073-0.265-0.11-0.402c-0.036-0.138-0.122-0.391-0.194-0.574
			c-0.073-0.184-0.098-0.253-0.146-0.379c-0.049-0.126-0.159-0.356-0.244-0.54l-0.207-0.391l-0.268-0.46l-0.28-0.425l-0.28-0.379
			l-0.353-0.448l-0.292-0.333l-0.414-0.425l-0.341-0.311l-0.426-0.368l-0.426-0.321l-0.402-0.275l-0.56-0.346l-0.244-0.148
			l-75.974-41.359c-5.24-2.855-11.941-1.16-14.967,3.786s-1.23,11.27,4.011,14.125l70.496,38.417v127.318
			c0,5.711,4.905,10.34,10.957,10.34c6.051,0,10.956-4.629,10.956-10.34V319.331v-0.287
			C428.931,318.952,428.931,318.63,428.907,318.436L428.907,318.436z"/>
		<path fill="#DB429E" d="M613.82,247.47c-3.027-4.941-9.724-6.632-14.962-3.78l-122.354,66.634l-0.28,0.173l-0.512,0.31
			l-0.438,0.311l-0.39,0.298l-0.451,0.391l-0.304,0.288l-0.426,0.447l-0.269,0.311l-0.365,0.471l-0.268,0.368l-0.292,0.448
			l-0.256,0.447L472.05,315c-0.086,0.173-0.159,0.345-0.244,0.528l-0.146,0.391c-0.072,0.184-0.134,0.368-0.194,0.563
			c-0.061,0.196-0.073,0.276-0.109,0.414c-0.037,0.138-0.085,0.367-0.122,0.552c-0.036,0.184,0,0.321-0.085,0.494
			c-0.086,0.172,0,0.321-0.061,0.482c-0.062,0.161,0,0.402,0,0.608v83.086c0,5.711,4.904,10.341,10.956,10.341
			c6.051,0,10.955-4.63,10.955-10.341l0,0v-76.824l116.865-63.682c5.229-2.872,7.002-9.201,3.959-14.137
			C613.822,247.473,613.821,247.472,613.82,247.47L613.82,247.47z"/>
		<path fill="#71C266" d="M535.46,219.346c-3.026-4.941-9.724-6.633-14.961-3.78l-70.496,38.418l-116.865-63.682
			c-5.24-2.855-11.941-1.161-14.967,3.785c-3.025,4.946-1.23,11.27,4.011,14.125l122.354,66.634
			c0.304,0.161,0.609,0.299,0.925,0.425l0.389,0.184l0.378,0.126c1.196,0.418,2.461,0.636,3.737,0.644
			c1.247-0.013,2.482-0.227,3.653-0.632l0.426-0.138l0.377-0.172c0.317-0.138,0.634-0.275,0.95-0.437l75.974-41.359
			c5.268-2.81,7.124-9.118,4.146-14.089C535.482,219.381,535.471,219.363,535.46,219.346z"/>
		<path fill="#F9A55C" d="M613.26,391.975l0.269-0.368l0.28-0.437l0.255-0.448l0.207-0.413c0.085-0.173,0.158-0.345,0.231-0.518
			l0.158-0.391c0.073-0.184,0.134-0.367,0.194-0.563c0.062-0.195,0.073-0.275,0.11-0.413c0.036-0.139,0.085-0.356,0.122-0.541
			c0.036-0.184,0-0.333,0.085-0.505c0.085-0.173,0-0.311,0-0.471v-0.621V252.663c0-5.71-4.905-10.34-10.956-10.34
			s-10.956,4.629-10.956,10.34l0,0v127.363l-143.829,78.434c-5.241,2.855-7.037,9.18-4.012,14.126
			c3.026,4.945,9.727,6.641,14.967,3.785l0,0l149.416-81.421l0.244-0.149l0.56-0.344l0.401-0.288l0.427-0.321l0.438-0.379
			l0.328-0.299l0.414-0.437l0.28-0.322L613.26,391.975z"/>
		<path fill="#71C266" d="M423.465,443.708l-116.864-63.683v-154.74c0-5.71-4.905-10.34-10.956-10.34s-10.956,4.629-10.956,10.34
			v162.105c0,0.16,0,0.332,0.085,0.493c0.085,0.161,0.085,0.368,0.122,0.552c0.036,0.184,0.073,0.275,0.109,0.413
			s0.122,0.379,0.195,0.563l0.146,0.391c0.073,0.172,0.158,0.345,0.231,0.518l0.207,0.413l0.255,0.448l0.28,0.437l0.268,0.367
			l0.365,0.46l0.28,0.321l0.414,0.437l0.329,0.299l0.438,0.379l0.426,0.322l0.402,0.287l0.56,0.345l0.243,0.149l122.465,66.634
			c5.24,2.855,11.941,1.161,14.967-3.785C430.501,452.887,428.706,446.563,423.465,443.708L423.465,443.708z"/>
		<path fill="#F3F136" d="M602.949,203.974l-147.48-80.352l-0.268-0.126l-0.572-0.275l-0.486-0.207l-0.487-0.172l-0.585-0.173
			l-0.389-0.115l-0.633-0.126l-0.427-0.069l-0.633-0.115h-2.045l-0.56,0.057l-0.475,0.081l-0.572,0.115l-0.475,0.126l-0.524,0.161
			l-0.523,0.195l-0.438,0.23l-0.596,0.287l-0.256,0.126L322.17,190.256c-5.241,2.855-7.037,9.179-4.011,14.125
			s9.727,6.641,14.967,3.786l116.864-63.682l142.002,77.399c5.241,2.855,11.942,1.16,14.967-3.786
			C609.986,213.153,608.19,206.829,602.949,203.974L602.949,203.974L602.949,203.974z"/>
	</g>
</g>
</svg>
