<?xml version="1.0" encoding="utf-8"?>
<!-- Generator: Adobe Illustrator 14.0.0, SVG Export Plug-In . SVG Version: 6.00 Build 43363)  -->
<!DOCTYPE svg PUBLIC "-//W3C//DTD SVG 1.1//EN" "http://www.w3.org/Graphics/SVG/1.1/DTD/svg11.dtd">
<svg version="1.1" id="cube" xmlns="http://www.w3.org/2000/svg" xmlns:xlink="http://www.w3.org/1999/xlink" x="0px" y="0px"
	 width="900px" height="600px" viewBox="0 0 900 600" enable-background="new 0 0 900 600" xml:space="preserve">
<rect fill="#FFFFFF" width="900" height="600"/>
<g>
	<path fill="#009FE8" d="M591.924,130.5c0,0,1.813,18.3-25.065,28.945c-10.495,4.169-23.271,4.176-38.155,3.016
		c-31.28-0.642-58.562,0.148-86.965,8.839c-59.453,18.194-83.986,99.354-83.986,99.354s20.888-33.417,60.472-43.938
		c42.3-11.237,82.884-4.059,133.271-10.781C601.868,209.212,591.924,130.5,591.924,130.5z"/>
	<path fill="#8DC21F" d="M609.602,195.155c0,0,2.402,22.753-31.262,35.835c-13.147,5.125-29.166,5.058-47.862,3.521
		c-39.263-0.962-73.472-0.136-109.057,10.497c-74.503,22.266-104.771,122.983-104.771,122.983s26.001-41.397,75.605-54.257
		c53.026-13.723,103.97-4.564,167.153-12.638C622.563,293.037,609.602,195.155,609.602,195.155z"/>
	<path fill="#F29600" d="M624.223,277.451c0,0,3.568,26.36-36.899,40.607c-15.813,5.552-35.272,5.063-57.967,2.782
		c-47.663-2.159-89.125-2.128-132.002,9.215C307.621,353.813,273.797,469.5,273.797,469.5s30.332-47.201,90.163-60.733
		c63.912-14.438,126.005-2.504,202.411-10.146C642.765,390.979,624.223,277.451,624.223,277.451z"/>
</g>
</svg>
