<?xml version="1.0" encoding="utf-8"?>
<!-- Generator: Adobe Illustrator 14.0.0, SVG Export Plug-In . SVG Version: 6.00 Build 43363)  -->
<!DOCTYPE svg PUBLIC "-//W3C//DTD SVG 1.1//EN" "http://www.w3.org/Graphics/SVG/1.1/DTD/svg11.dtd">
<svg version="1.1" id="图层_1" xmlns="http://www.w3.org/2000/svg" xmlns:xlink="http://www.w3.org/1999/xlink" x="0px" y="0px"
	 width="900px" height="600px" viewBox="0 0 900 600" enable-background="new 0 0 900 600" xml:space="preserve">
<rect fill="#333333" width="900" height="600"/>
<path fill="#FFFFFF" d="M325.563,120.676h222.452l-141.11,145.313c-2.316-0.563-4.691-0.841-7.073-0.826
	c-18.946,0.009-34.298,15.613-34.29,34.853c0.008,19.229,15.355,34.813,34.29,34.822c2.171-0.02,4.335-0.224,6.472-0.61
	l141.465,145.097H325.563c-36.29-0.099-65.684-29.949-65.781-66.802V187.479C259.879,150.625,289.272,120.775,325.563,120.676z"/>
<path fill="#FC7901" d="M513.816,173.938c0.707,0.61,1.309,1.185,1.909,1.795c67.581,68.429,67.742,179.538,0.36,248.167
	c-0.121,0.122-0.24,0.244-0.36,0.365c-0.708,0.718-1.556,1.437-2.264,2.155l-29.106-29.918l2.122-2.154
	c51.256-52.132,51.256-136.567,0-188.698l-1.521-1.544L513.816,173.938z M460.768,229.355c0.412,0.332,0.802,0.691,1.166,1.077
	c37.834,38.299,37.932,100.494,0.217,138.916c-0.072,0.072-0.145,0.146-0.217,0.219l-1.874,1.796l-29.106-29.953
	c0.566-0.575,1.167-1.077,1.768-1.651c21.498-22.011,21.498-57.506,0-79.517c-0.34-0.208-0.63-0.49-0.848-0.826L460.768,229.355z
	 M565.345,120.425l2.476,2.514c96.293,97.449,96.563,255.721,0.604,353.509c-0.201,0.205-0.402,0.409-0.604,0.613l-2.582,2.515
	l-29.142-29.918c0.849-0.861,1.661-1.688,2.476-2.406c80.048-81.339,80.048-213.165,0-294.503c-0.814-0.719-1.521-1.437-2.229-2.155
	L565.345,120.425z"/>
<path fill="#FFFFFF" d="M399.725,277.841c12.057-0.615,22.32,8.811,22.926,21.055c0.605,12.242-8.678,22.666-20.732,23.28
	c-12.057,0.615-22.32-8.812-22.926-21.054c-0.018-0.374-0.027-0.748-0.027-1.121c-0.334-11.896,8.891-21.816,20.605-22.156
	C399.621,277.843,399.674,277.842,399.725,277.841z"/>
</svg>
