<?xml version="1.0" encoding="utf-8"?>
<!-- Generator: Adobe Illustrator 14.0.0, SVG Export Plug-In . SVG Version: 6.00 Build 43363)  -->
<!DOCTYPE svg PUBLIC "-//W3C//DTD SVG 1.1//EN" "http://www.w3.org/Graphics/SVG/1.1/DTD/svg11.dtd">
<svg version="1.1" id="图层_1" xmlns="http://www.w3.org/2000/svg" xmlns:xlink="http://www.w3.org/1999/xlink" x="0px" y="0px"
	 width="900px" height="600px" viewBox="0 0 900 600" enable-background="new 0 0 900 600" xml:space="preserve">
<rect fill="#A69473" width="900" height="600"/>
<path fill="#FFFFFF" d="M440.128,229.07c0.396-0.52,0.787-1.04,1.17-1.564c-10.356-15.966-16.754-31.827-16.754-41.621
	c0-20.168,15.154-29.559,25.398-29.559c10.255,0,25.42,9.395,25.42,29.559c0,12.013-9.833,33.319-23.915,51.826
	c-9.311,12.236-19.253,22.527-26.343,29.333c6.792,10.463,12.934,21.336,18.391,32.555c13.509-12.102,25.843-25.456,36.839-39.884
	c14.586-19.166,31.329-44.881,31.329-73.826c0-36.342-27.687-65.904-61.718-65.904c-34.016,0-61.691,29.563-61.691,65.904
	c0,27.324,14.775,51.393,28.206,69.62C425.319,246.879,433.667,237.561,440.128,229.07L440.128,229.07z M336.39,336.352h0.011
	c14.101,0,29.632-2.959,48.712-9.305c-4.064-8.282-10.195-19.73-17.785-30.711c-0.372-0.535-0.749-1.066-1.129-1.594
	c-18.011,4.831-35.521,6.082-44.711,3.09c-19.14-6.225-23.389-23.56-20.231-33.315c2.717-8.374,12.272-16.845,25.274-16.845
	c3.469,0,7.052,0.595,10.654,1.763c11.402,3.708,28.612,19.664,41.843,38.799c6.943,10.05,13.901,22.12,19.712,34.152
	c12.037-3.231,24.26-5.723,36.601-7.457c-7.338-16.596-16.209-32.468-26.497-47.41c-13.698-19.813-32.947-43.701-60.438-52.647
	c-6.946-2.276-14.206-3.444-21.515-3.459c-27.415,0-52.151,17.218-60.148,41.874c-4.854,14.972-3.221,31.967,4.482,46.633
	c8.08,15.386,21.947,26.925,39.04,32.479C318.341,335.014,327.132,336.352,336.39,336.352L336.39,336.352z M443.153,364.584
	c0.659-12.541,2.081-25.021,4.234-37.164c-18.033,1.838-35.852,5.381-53.217,10.586c-23.054,6.926-51.696,17.877-68.683,41.297
	c-21.327,29.396-16.28,69.613,11.252,89.646c9.958,7.235,22.004,11.067,34.84,11.067c21.217,0,40.801-10.234,53.747-28.078
	c16.035-22.098,18.214-50.273,18.048-72.928c-9.118,1.311-21.876,3.605-34.664,7.449c-0.623,0.191-1.245,0.385-1.866,0.58
	c-0.997,19.012-5.125,35.6-10.883,43.54c-8.317,11.463-18.617,13.174-24.021,13.174c-5.137,0-10.191-1.534-13.872-4.206
	c-4.723-3.437-8.185-9.367-9.261-15.875c-0.899-5.453-0.583-13.875,6.04-23.006c7.045-9.715,27.517-21.16,49.773-27.845
	C419.332,368.386,433.418,365.91,443.153,364.584L443.153,364.584z M510.724,339.569c-1.573,9.104-3.331,21.977-3.636,35.313
	c-0.015,0.655-0.022,1.303-0.026,1.959c17.751,6.824,32.229,15.888,37.986,23.816c11.839,16.31,5.096,32.826-3.188,38.859
	c-3.685,2.679-8.753,4.212-13.901,4.212c-5.408,0-15.712-1.706-24.025-13.162c-7.048-9.723-11.598-32.759-11.063-56.009
	c0.351-15.367,2.349-29.544,4.095-39.229c-11.635-4.471-22.984-9.654-33.982-15.521c-3.804,17.746-5.945,35.81-6.397,53.955
	c-0.55,24.091,1.005,54.746,17.996,78.163c12.938,17.831,32.525,28.059,53.731,28.066h0.004c12.855,0,24.909-3.833,34.878-11.072
	c12.72-9.25,21.376-23.962,23.754-40.369c2.483-17.199-1.961-34.696-12.524-49.253C558.373,357.189,532.294,346.412,510.724,339.569
	L510.724,339.569z M633.157,253.248c-7.996-24.637-32.722-41.844-60.133-41.844c-7.218,0-14.463,1.164-21.526,3.459
	c-25.951,8.444-44.248,29.951-57.408,48.37c10.917,5.773,22.346,10.846,32.416,14.38c0.621,0.215,1.231,0.426,1.841,0.629
	c11.975-14.798,25.052-25.787,34.366-28.816c3.444-1.147,7.047-1.744,10.677-1.768c12.99,0,22.53,8.46,25.247,16.818
	c3.169,9.768-1.068,27.121-20.22,33.35c-3.372,1.097-7.749,1.65-13.01,1.65c-12.464,0-28.353-3.063-43.602-8.418
	c-14.5-5.08-27.344-11.369-35.999-16.019c-7.837,9.702-16.264,18.912-25.232,27.577c15.665,9.127,32.158,16.748,49.261,22.757
	c13.438,4.71,33.625,10.981,53.642,10.985c9.277,0,18.079-1.335,26.159-3.969C624.141,321.161,643.672,285.663,633.157,253.248
	L633.157,253.248z"/>
</svg>
