<?xml version="1.0"?>
<svg width="900" height="600" xmlns="http://www.w3.org/2000/svg" xmlns:svg="http://www.w3.org/2000/svg">
 <g class="layer">
  <title>Layer 1</title>
  <rect fill="#ffffff" height="1250" id="svg_7" stroke="#000000" stroke-opacity="0" transform="rotate(-180 463 340.89)" width="1250" x="-162" y="-284.11"/>
  <g id="svg_1">
   <g id="svg_2">
    <path d="m290.29,182.29a197.97,196.49 0 0 0 -18.59,30.16c136.08,-44.59 294.38,-6.24 376.84,99.18c0,-3.84 0.6,-7.69 0.6,-11.7a198.49,197 0 0 0 -10.42,-62.79c-95.2,-71.42 -230.08,-91.41 -348.43,-54.85z" fill="#0082cd" id="svg_3"/>
    <path d="m585.01,155.13a197.97,196.49 0 0 0 -254.87,-12.64a444.58,441.24 0 0 1 254.87,12.64z" fill="#4ab134" id="svg_4"/>
    <path d="m250.87,298.13l0,1.88a198.66,197.17 0 0 0 265.2,186.23c31.16,-128.31 -119.3,-222.88 -265.2,-188.11z" fill="#e60012" id="svg_5"/>
    <path d="m259.04,244.31a197.97,196.49 0 0 0 -5.59,25.63c151.15,-44.34 320.46,36.31 328.81,177.61a199.52,198.02 0 0 0 43.64,-54.93c-47.08,-133.87 -218.8,-196.23 -366.85,-148.3z" fill="#b60081" id="svg_6"/>
   </g>
  </g>
 </g>
</svg>