<?xml version="1.0" encoding="utf-8"?>
<!-- Generator: Adobe Illustrator 14.0.0, SVG Export Plug-In . SVG Version: 6.00 Build 43363)  -->
<!DOCTYPE svg PUBLIC "-//W3C//DTD SVG 1.1//EN" "http://www.w3.org/Graphics/SVG/1.1/DTD/svg11.dtd">
<svg version="1.1" id="cube" xmlns="http://www.w3.org/2000/svg" xmlns:xlink="http://www.w3.org/1999/xlink" x="0px" y="0px"
	 width="900px" height="600px" viewBox="0 0 900 600" enable-background="new 0 0 900 600" xml:space="preserve">
<rect fill="#E50012" width="900" height="600"/>
<g>
	<path fill="#FFFFFF" d="M280.917,296.241c0,55.069,29.062,103.511,73.06,131.664c-38.443-42.737-64.114-96.636-71.112-156.057
		C281.586,279.791,280.917,287.939,280.917,296.241z"/>
	<path fill="#FFFFFF" d="M337.446,265.001c0-36.806,7.765-71.833,21.754-103.65c-23.813,13.992-43.599,33.821-57.333,57.424
		c-0.263,4.966-0.398,9.94-0.398,14.972c0,85.292,38.225,161.85,98.865,214.483c5.533,1.456,11.163,2.648,16.914,3.533
		C367.973,404.031,337.446,338.005,337.446,265.001z"/>
	<path fill="#FFFFFF" d="M619.083,313.48c-20.206-32.783-57.07-54.74-99.219-54.74c-15.591,0-30.444,3.021-44.005,8.47
		c4.735-0.607,9.554-0.958,14.455-0.958c60.311,0,109.194,47.564,109.194,106.254c0,0.184-0.008,0.359-0.008,0.557
		C609.845,355.076,616.686,334.926,619.083,313.48z"/>
	<path fill="#FFFFFF" d="M405.821,295.553c24.394-39.995,69.195-66.809,120.463-66.809c31.112,0,59.844,9.896,83.087,26.602
		c-6.646-24.101-19.004-45.904-35.594-63.971c-1.699-0.059-3.398-0.124-5.104-0.124
		C495.666,191.252,432.989,234.201,405.821,295.553z"/>
	<path fill="#FFFFFF" d="M519.037,154.739c-21.461-10.218-45.599-15.989-71.119-15.989c-3.135,0-6.247,0.103-9.329,0.271
		c-43.329,40.696-70.315,97.748-70.315,160.972c0,23.508,3.751,46.175,10.659,67.474c-1.909-10.547-2.961-21.395-2.961-32.482
		C375.972,248.383,436.74,175.592,519.037,154.739z"/>
	<ellipse fill="#FFFFFF" cx="489.052" cy="381.247" rx="82.215" ry="80.003"/>
</g>
</svg>
