<svg width="900" height="600" xmlns="http://www.w3.org/2000/svg" xmlns:svg="http://www.w3.org/2000/svg">
 <!-- Created with SVG-edit - http://svg-edit.googlecode.com/ -->
 <g>
  <title>Layer 1</title>
  <rect fill="#0393c7" stroke="#000000" stroke-width="0" x="0" y="0" width="900" height="600" id="svg_1"/>
  <path d="m485.0011,173.49971c-0.17065,-0.88667 -0.76819,-1.6978 -1.39584,-2.02083c-0.42404,-0.21823 -0.979,-0.40543 -1.6575,-0.58051c-1.76624,-0.45576 -2.90985,-0.60811 -4.19064,-0.79733c-1.40381,-0.2074 -2.914,-0.39645 -4.50601,-0.58051c-1.65067,-0.19083 -3.34015,-0.36891 -5.04599,-0.53549c-3.36966,-0.32904 -4.99625,-0.46703 -6.57733,-0.59866c-1.54056,-0.12827 -3.04639,-0.24417 -4.52252,-0.345c-1.45056,-0.09909 -2.88129,-0.18723 -4.29749,-0.255c-2.80603,-0.13429 -4.20724,-0.16925 -5.612,-0.20134c-1.41257,-0.03227 -2.83731,-0.05191 -4.27802,-0.0645c-1.46063,-0.01277 -2.94531,-0.01759 -4.45798,-0.0195c-3.12534,-0.00394 -4.74503,-0.00133 -6.40268,-0.00133c-1.69366,0 -3.42133,0 -5.181,0c-1.78967,0 -3.60733,0 -5.45099,0c-3.75735,0 -5.66617,0 -7.58801,0c-1.92783,0 -3.85468,0 -5.7735,0c-1.90384,0 -3.78568,0 -5.63849,0c-3.59067,0 -5.31567,0 -6.99069,0c-1.625,0 -3.19998,0 -4.72498,0c-1.47501,0 -2.90002,0 -4.27502,0c-2.59998,0 -3.82648,0 -5.01199,0c-1.1535,0 -2.284,0 -3.40048,0c-1.11151,0 -2.22702,0 -3.3555,0c-2.332,0 -3.5517,-0.00395 -4.80936,0.00667c-1.2937,0.01091 -2.6218,0.03502 -3.98099,0.0975c-1.39029,0.06392 -2.81039,0.15324 -4.25101,0.32249c-2.96478,0.34833 -4.47104,0.66183 -5.99332,1.00267c-1.54501,0.34593 -3.09647,0.75662 -4.65152,1.21649c-1.56915,0.46404 -3.13724,0.97319 -4.6965,1.53151c-3.12897,1.12038 -4.66412,1.75594 -6.18933,2.392c-1.51315,0.63103 -2.99734,1.28319 -4.44748,1.95149c-1.42319,0.65588 -2.80493,1.31793 -4.13251,1.99651c-2.52615,1.29123 -3.68805,1.95346 -4.79733,2.59467c-1.0636,0.61481 -2.07101,1.22583 -3.0285,1.8255c-0.91843,0.5752 -1.79068,1.1411 -2.6235,1.69051c-1.56717,1.03386 -2.30048,1.52788 -3.008,2.004c-0.68546,0.46126 -1.35049,0.91376 -1.9935,1.368c-0.633,0.44716 -1.25519,0.89729 -1.85849,1.368c-1.21671,0.94928 -1.80771,1.47044 -2.40268,2.00134c-0.6008,0.5361 -1.19312,1.08945 -1.78049,1.65149c-0.58728,0.56195 -1.16492,1.12976 -1.7355,1.6965c-1.12111,1.11354 -1.66588,1.65982 -2.20001,2.20267c-0.5302,0.53885 -1.05438,1.08203 -1.5645,1.6425c-0.5153,0.56619 -1.02827,1.15208 -1.5195,1.7775c-1.02669,1.30714 -1.51031,2.04057 -2,2.80534c-0.50636,0.7908 -0.99982,1.62556 -1.4805,2.50049c-0.49429,0.89969 -0.97763,1.83702 -1.4355,2.81551c-0.94774,2.02531 -1.37064,3.10013 -1.79999,4.192c-0.43509,1.10646 -0.85236,2.23224 -1.26451,3.36749c-0.41318,1.13808 -0.81465,2.27893 -1.2195,3.41251c-0.79803,2.23451 -1.19946,3.3239 -1.59866,4.39333c-0.39215,1.05057 -0.78242,2.07959 -1.161,3.09001c-0.37076,0.98958 -0.73384,1.95767 -1.071,2.90999c-0.64989,1.83562 -0.93231,2.72911 -1.20134,3.604c-0.26389,0.85815 -0.50966,1.70753 -0.7485,2.54851c-0.23715,0.83502 -0.46652,1.66969 -0.70349,2.50349c-0.479,1.68544 -0.73752,2.53897 -1,3.40134c-0.2645,0.86897 -0.5343,1.74065 -0.79651,2.616c-0.2618,0.87398 -0.52034,1.7448 -0.7515,2.616c-0.45441,1.71255 -0.63385,2.56149 -0.79866,3.40266c-0.16383,0.83624 -0.30426,1.6765 -0.429,2.52301c-0.12598,0.85486 -0.23703,1.72481 -0.339,2.61299c-0.21175,1.84431 -0.30255,2.81038 -0.40533,3.80534c-0.10588,1.02504 -0.21547,2.08035 -0.339,3.16499c-0.12704,1.11539 -0.26369,2.26122 -0.429,3.435c-0.34401,2.4427 -0.56905,3.70499 -0.79599,4.996c-0.23134,1.31601 -0.47702,2.65135 -0.71251,4.0065c-0.23787,1.36887 -0.47475,2.74863 -0.6675,4.14151c-0.38631,2.79163 -0.50072,4.19495 -0.59734,5.59467c-0.09636,1.39606 -0.15544,2.79044 -0.1935,4.18048c-0.03792,1.38467 -0.05273,2.76364 -0.0585,4.1355c-0.01141,2.71866 -0.004,4.06284 -0.004,5.392c0,1.30917 0,2.59335 0,3.8475c0,1.21918 0,2.39835 0,3.5325c0,2.11334 0,3.0845 0,4.00269c0,0.87216 0,1.70532 0,2.5065c0,0.77615 0,1.53433 0,2.28149c0,1.48932 -0.00243,2.24454 0.004,3.01065c0.00653,0.7782 0.02094,1.56964 0.0585,2.37451c0.0383,0.82053 0.09241,1.65814 0.1935,2.50949c0.20967,1.76578 0.39677,2.67383 0.604,3.60001c0.21251,0.94974 0.46846,1.91409 0.765,2.8905c0.30325,0.99847 0.64354,2.00986 1.035,3.02551c0.80629,2.09195 1.29536,3.13702 1.79466,4.19199c0.50333,1.06348 1.03563,2.11703 1.58701,3.1575c0.54736,1.0329 1.106,2.04333 1.677,3.02249c1.09811,1.88309 1.65482,2.75705 2.196,3.59735c0.52335,0.81259 1.04509,1.59091 1.5645,2.3385c0.50604,0.72836 1.01167,1.43243 1.5195,2.11349c0.99228,1.33081 1.49814,1.97269 2.008,2.608c0.51181,0.63776 1.04092,1.27301 1.5975,1.9035c0.56999,0.64569 1.17192,1.29861 1.82249,1.94849c1.38623,1.38477 2.17526,2.08136 3.008,2.80267c0.87135,0.75476 1.8027,1.5191 2.79451,2.2905c1.03333,0.80368 2.12639,1.6178 3.28949,2.42551c2.46068,1.7088 3.80565,2.5408 5.192,3.39734c1.42322,0.87933 2.89258,1.75424 4.39349,2.6355c1.5217,0.89346 3.06592,1.78326 4.6185,2.68048c3.11115,1.79788 4.6554,2.69955 6.19467,3.59467c1.53372,0.89188 3.06418,1.77878 4.60352,2.64151c1.53671,0.86127 3.07901,1.71039 4.6485,2.5065c3.1445,1.59506 4.76779,2.30658 6.40665,2.99866c1.6499,0.69675 3.33371,1.3522 5.04901,1.974c1.73541,0.62909 3.50739,1.22937 5.319,1.79401c3.71213,1.15698 5.64038,1.67795 7.60666,2.20267c2.00674,0.53552 4.06546,1.05072 6.1785,1.54501c2.16296,0.50598 4.38568,0.99625 6.67352,1.45499c4.75732,0.95389 7.24564,1.37646 9.79333,1.79599c2.59766,0.42773 5.24338,0.8262 7.92899,1.18652c2.71176,0.36383 5.44669,0.69724 8.19901,0.96149c5.50455,0.52853 8.25272,0.67221 10.98267,0.80133c2.7085,0.12808 5.39313,0.20703 8.04749,0.258c2.61902,0.05026 5.1983,0.07028 7.73251,0.078c4.9133,0.01495 7.28149,0.00534 9.57867,0.00534c2.21515,0 4.33731,0 6.3555,0c1.90317,0 3.68033,0 5.3205,0c2.82532,0 3.99316,0 5.008,0c0.87885,0 1.63867,0 2.29651,0c0.57281,0 1.07767,0 1.53149,0c0.82266,0 1.22253,0.00171 1.62134,-0.00266c0.39685,-0.00433 0.79095,-0.01349 1.18048,-0.039c0.38522,-0.02521 0.76596,-0.05927 1.1355,-0.129c0.72409,-0.13663 1.0675,-0.26373 1.40134,-0.40134c0.33505,-0.13812 0.66183,-0.30508 0.98401,-0.49051c0.32867,-0.18918 0.65509,-0.40009 0.98401,-0.62549c0.68777,-0.47128 1.03964,-0.73151 1.40265,-1.00269c0.37708,-0.28171 0.76398,-0.58322 1.155,-0.91348c0.40921,-0.34561 0.82889,-0.71997 1.245,-1.13852c0.89963,-0.90488 1.34113,-1.43878 1.80002,-2.00266c0.48148,-0.59161 0.96494,-1.22705 1.45499,-1.90051c0.51016,-0.70111 1.02567,-1.43985 1.54501,-2.21548c1.09192,-1.63074 1.63708,-2.50107 2.19598,-3.39069c0.56815,-0.90433 1.13385,-1.82288 1.6965,-2.74799c0.56131,-0.92291 1.11279,-1.84094 1.65152,-2.74799c1.0394,-1.75 1.52817,-2.58652 1.99731,-3.39734c0.45514,-0.78656 0.89301,-1.55533 1.30951,-2.31302c0.40878,-0.74368 0.80432,-1.48126 1.1745,-2.22299c0.73737,-1.47745 1.07266,-2.23697 1.39868,-3.00134c0.32532,-0.7627 0.62939,-1.52902 0.90598,-2.29648c0.27267,-0.75668 0.52341,-1.50647 0.72601,-2.2515c0.38831,-1.42795 0.50372,-2.12488 0.60132,-2.80002c0.09512,-0.65805 0.15536,-1.3075 0.19351,-1.94849c0.03778,-0.6351 0.05276,-1.26898 0.0585,-1.9035c0.0116,-1.28394 0.004,-1.93835 0.004,-2.59866c0,-0.66235 0,-1.32266 0,-1.97702c0,-0.64432 0,-1.27466 0,-1.88699c0,-1.15466 0,-1.69049 0,-2.20132c0,-0.49084 0,-0.96667 0,-1.4325c0,-0.46085 0,-0.92169 0,-1.38751c0,-0.96667 0,-1.47617 0,-2.00266c0,-0.5405 0,-1.09201 0,-1.65152c0,-0.56448 0,-1.13098 0,-1.6965c0,-1.116 0.00174,-1.66098 -0.00266,-2.19598c-0.0043,-0.52502 -0.01337,-1.04025 -0.039,-1.54501c-0.02515,-0.4953 -0.05914,-0.98178 -0.129,-1.45499c-0.13641,-0.92429 -0.26263,-1.36884 -0.40402,-1.80533c-0.14291,-0.44113 -0.32114,-0.8811 -0.52948,-1.323c-0.21677,-0.45975 -0.4686,-0.92987 -0.75452,-1.41302c-0.62454,-1.05542 -1.00043,-1.6142 -1.40533,-2.20132c-0.42773,-0.62021 -0.89828,-1.25977 -1.42349,-1.90649c-0.55042,-0.6778 -1.15076,-1.3689 -1.82849,-2.0415c-1.44614,-1.43521 -2.30249,-2.10867 -3.19467,-2.79065c-0.91739,-0.70123 -1.88644,-1.37534 -2.89349,-2.022c-1.01569,-0.65222 -2.05472,-1.27472 -3.1185,-1.84201c-2.08994,-1.1145 -3.1499,-1.56876 -4.19067,-1.99734c-1.01953,-0.41986 -2.03598,-0.79083 -3.04501,-1.11899c-0.99118,-0.32233 -1.9762,-0.60757 -2.95499,-0.849c-1.91306,-0.47186 -2.86374,-0.63992 -3.80002,-0.80533c-0.9238,-0.16321 -1.83939,-0.30292 -2.745,-0.42902c-0.89441,-0.12454 -1.77982,-0.23425 -2.655,-0.33899c-1.71964,-0.20578 -2.56534,-0.30133 -3.40134,-0.40399c-0.82834,-0.10172 -1.64969,-0.20657 -2.46448,-0.31952c-0.81058,-0.11237 -1.61737,-0.23004 -2.41953,-0.3645c-1.60349,-0.26877 -2.40311,-0.4339 -3.21198,-0.59998c-0.82584,-0.16956 -1.67435,-0.35223 -2.556,-0.53552c-0.92102,-0.19147 -1.88931,-0.39102 -2.91602,-0.58047c-2.24777,-0.41479 -3.48837,-0.60385 -4.79868,-0.79736c-1.37067,-0.20242 -2.79541,-0.39523 -4.2645,-0.58047c-1.5029,-0.18951 -3.03229,-0.37024 -4.5795,-0.53552c-3.10663,-0.33185 -4.65228,-0.46628 -6.18399,-0.60132c-1.51532,-0.13361 -3.01208,-0.2576 -4.48651,-0.384c-1.44958,-0.12427 -2.87173,-0.24496 -4.26147,-0.384c-2.67755,-0.26785 -3.95724,-0.43304 -5.20135,-0.59866c-1.2132,-0.1615 -2.39719,-0.33307 -3.55798,-0.49649c-1.14053,-0.16055 -2.26407,-0.32159 -3.37802,-0.45151c-2.20297,-0.25693 -3.30356,-0.33304 -4.39465,-0.39999c-1.07431,-0.06595 -2.12527,-0.10977 -3.14401,-0.1485c-0.97861,-0.0372 -1.90961,-0.06256 -2.784,-0.10352c-1.5499,-0.07257 -2.21133,-0.13025 -2.79733,-0.20267c-0.51999,-0.06424 -0.97784,-0.14227 -1.37698,-0.2355c-0.35281,-0.08243 -0.66168,-0.17404 -0.927,-0.28049c-0.45483,-0.18246 -0.64001,-0.29559 -0.81067,-0.39734c-0.15796,-0.09418 -0.29916,-0.18997 -0.42902,-0.28049c-0.12079,-0.0842 -0.23041,-0.16711 -0.33899,-0.2355c-0.19873,-0.12515 -0.30206,-0.16626 -0.40399,-0.20267c-0.10245,-0.03662 -0.20984,-0.06656 -0.31952,-0.10352c-0.11566,-0.03897 -0.23923,-0.0831 -0.3645,-0.1485c-0.28864,-0.15073 -0.43817,-0.2713 -0.60132,-0.40134c-0.17703,-0.14111 -0.36032,-0.30096 -0.55499,-0.47098c-0.20535,-0.17932 -0.41815,-0.36951 -0.64502,-0.561c-0.47614,-0.40192 -0.73444,-0.59882 -1.00131,-0.80133c-0.2774,-0.21051 -0.57019,-0.42688 -0.87451,-0.65851c-0.32104,-0.24435 -0.65979,-0.50479 -1.00949,-0.79349c-0.76901,-0.63483 -1.17371,-1.00577 -1.59866,-1.40134c-0.4465,-0.41565 -0.90378,-0.85889 -1.371,-1.32602c-0.48221,-0.48212 -0.97095,-0.98392 -1.461,-1.50598c-1.00479,-1.0704 -1.5011,-1.62894 -1.99469,-2.19867c-0.4978,-0.57462 -0.98804,-1.16409 -1.461,-1.77451c-0.47647,-0.61496 -0.94223,-1.24646 -1.371,-1.90948c-0.86792,-1.34207 -1.23834,-2.06509 -1.59598,-2.79602c-0.35812,-0.7319 -0.68161,-1.47839 -0.97052,-2.23199c-0.28568,-0.74524 -0.54114,-1.48962 -0.74548,-2.23199c-0.39246,-1.42578 -0.50479,-2.12323 -0.60266,-2.79602c-0.09482,-0.65173 -0.15512,-1.28882 -0.19351,-1.90948c-0.03741,-0.60478 -0.05273,-1.19629 -0.0585,-1.77451c-0.0112,-1.12128 -0.004,-1.66649 -0.004,-2.20267c0,-0.52817 0,-1.04933 0,-1.5645c0,-0.51016 0,-1.01633 0,-1.5195c0,-1.00133 0,-1.502 0,-2.00667c0,-0.51266 0,-1.03732 0,-1.57799c0,-0.56067 0,-1.14534 0,-1.75801c0,-1.32533 -0.00076,-2.04399 0.00134,-2.79466c0.0022,-0.77466 0.00684,-1.56537 0.0195,-2.364c0.01266,-0.79871 0.02899,-1.58965 0.06448,-2.364c0.06741,-1.47003 0.12769,-2.15102 0.20401,-2.79466c0.07278,-0.61374 0.16681,-1.19991 0.29401,-1.75801c0.12384,-0.54341 0.27362,-1.07246 0.474,-1.57799c0.40475,-1.02118 0.69809,-1.51031 0.99731,-2.00267c0.30341,-0.49922 0.63699,-0.98546 0.987,-1.461c0.34875,-0.47383 0.7099,-0.9313 1.077,-1.371c0.70554,-0.84506 1.05762,-1.22987 1.39734,-1.60001c0.32901,-0.35846 0.65613,-0.70117 0.98401,-1.02899c0.32288,-0.32283 0.64917,-0.63651 0.98401,-0.93901c0.67569,-0.61046 1.03613,-0.90413 1.39999,-1.20267c0.36743,-0.30147 0.74133,-0.59999 1.116,-0.89999c0.37466,-0.3 0.74939,-0.59752 1.116,-0.89999c0.72137,-0.59515 1.06372,-0.89902 1.40134,-1.20001c0.33539,-0.29901 0.6669,-0.60121 1.00351,-0.89999c0.33939,-0.30124 0.68457,-0.60538 1.04849,-0.89999c0.75504,-0.61127 1.17029,-0.90552 1.60532,-1.19867c0.44925,-0.30273 0.92529,-0.59776 1.4295,-0.88051c0.52109,-0.29222 1.07056,-0.57637 1.65451,-0.83549c1.22971,-0.54567 1.90326,-0.7719 2.59866,-0.99867c0.71594,-0.23349 1.45947,-0.44701 2.22601,-0.64499c0.78284,-0.20219 1.58542,-0.38905 2.40598,-0.55501c1.67371,-0.3385 2.53107,-0.47017 3.39334,-0.59999c0.86475,-0.13019 1.73145,-0.24466 2.5965,-0.345c0.85898,-0.09962 1.71042,-0.18665 2.55151,-0.255c1.63498,-0.13289 2.42618,-0.16887 3.19867,-0.20134c0.75616,-0.03178 1.4986,-0.05176 2.229,-0.0645c0.72031,-0.01256 1.43265,-0.01758 2.13898,-0.0195c1.40268,-0.00381 2.10269,-0.00133 2.80267,-0.00133c0.70001,0 1.39999,0 2.10001,0c0.70001,0 1.39999,0 2.10001,0c1.39999,0 2.10098,0 2.80798,0c0.71902,0 1.45602,0 2.21701,0c0.79099,0 1.61801,0 2.487,0c1.888,0 2.91867,0 4.01334,0c1.16266,0 2.39734,0 3.70801,0c1.39066,0 2.86533,0 4.42798,0c3.40533,0 5.25085,0 7.16934,0c1.96451,0 3.948,0 5.92349,0c1.94052,0 3.819,0 5.60852,0c3.20398,0 4.57117,0 5.78131,0c1.06619,0 2.00134,0 2.81851,0c0.71216,0 1.33234,0 1.8735,0c0.89734,0 1.27817,0 1.62399,0c0.31583,0 0.60666,0 0.8775,0c0.25583,0 0.50168,0 0.74249,0c0.48666,0 0.74188,0.00153 1.008,-0.00267c0.2782,-0.00438 0.56964,-0.0144 0.87451,-0.039c0.32056,-0.02586 0.65793,-0.06345 1.00949,-0.129c0.76535,-0.1427 1.17215,-0.26929 1.60135,-0.39732c0.45084,-0.13449 0.91916,-0.28535 1.41,-0.43201c0.50916,-0.15213 1.03702,-0.3071 1.59,-0.43201c1.15442,-0.26076 1.76843,-0.33176 2.39334,-0.39999c0.63348,-0.06918 1.27335,-0.11714 1.91248,-0.168c0.63422,-0.05046 1.2597,-0.0932 1.86752,-0.168c1.15637,-0.1423 1.69089,-0.26534 2.19464,-0.39999c0.48065,-0.12848 0.93082,-0.27855 1.35452,-0.43201c0.40158,-0.14545 0.77496,-0.29822 1.12949,-0.43201c0.63895,-0.2411 0.93112,-0.32877 1.20667,-0.40132c0.26187,-0.06895 0.51791,-0.12433 0.76801,-0.1875c0.25128,-0.06348 0.50909,-0.13144 0.76801,-0.2325c0.57458,-0.22429 0.87762,-0.40657 1.20267,-0.60133c0.34653,-0.20764 0.70209,-0.44153 1.07098,-0.68701c0.38046,-0.25316 0.76544,-0.51755 1.16101,-0.77699c0.79355,-0.52046 1.19586,-0.76311 1.60001,-0.99733c0.40454,-0.23445 0.81757,-0.46072 1.23898,-0.68401c0.42923,-0.22742 0.87216,-0.45369 1.32901,-0.68401c0.96161,-0.4848 1.47281,-0.73611 1.99734,-1.00266c0.53812,-0.27344 1.08472,-0.55617 1.63199,-0.85501c0.55148,-0.30113 1.10086,-0.60999 1.63199,-0.94499c1.04721,-0.66051 1.52954,-1.02829 1.99469,-1.396c0.4548,-0.35951 0.88327,-0.72833 1.28998,-1.09651c0.39322,-0.35597 0.76184,-0.70914 1.11002,-1.0515c0.64337,-0.63258 0.93088,-0.92595 1.20267,-1.2c0.25684,-0.25899 0.50006,-0.50665 0.729,-0.7485c0.22171,-0.23421 0.43591,-0.46616 0.63898,-0.70349c0.40933,-0.47839 0.60413,-0.73729 0.80136,-1c0.19843,-0.2643 0.39111,-0.53166 0.58047,-0.79651c0.1853,-0.25917 0.3624,-0.51193 0.53552,-0.7515c0.31631,-0.43771 0.46231,-0.62784 0.60132,-0.8c0.12979,-0.16077 0.25742,-0.30914 0.384,-0.4485c0.12411,-0.13663 0.25201,-0.26962 0.384,-0.40349c0.28131,-0.28534 0.43765,-0.4382 0.59866,-0.60133c0.16599,-0.16818 0.33334,-0.34009 0.49649,-0.51601c0.16086,-0.17345 0.3157,-0.34354 0.45151,-0.51601c0.24463,-0.3107 0.33063,-0.46034 0.39999,-0.59866c0.06332,-0.12631 0.10953,-0.24881 0.1485,-0.3645c0.03696,-0.1097 0.06531,-0.21764 0.10352,-0.31949c0.07666,-0.20424 0.1366,-0.30269 0.20132,-0.40134c0.06656,-0.10143 0.14133,-0.2 0.216,-0.3c0.07468,-0.10001 0.15094,-0.19762 0.216,-0.3c0.12436,-0.19569 0.16614,-0.29875 0.19867,-0.39999c0.03177,-0.09892 0.04932,-0.2 0.06448,-0.3l0.01016,-0.10001l0.0062,-0.09999l0.00314,-0.10001" id="svg_3" stroke-linecap="null" stroke-linejoin="null" stroke-dasharray="null" stroke-width="0" stroke="#000000" fill="#88ba2c"/>
  <path d="m547.0011,253.49971c-3.60132,-0.91467 -4.52069,-0.98621 -5.15717,-0.9955c-1.36472,-0.01993 -2.11407,-0.00157 -2.92618,-0.04617c-0.43573,-0.02394 -1.37799,-0.10519 -2.41666,-0.29166c-1.15973,-0.20819 -1.76709,-0.37164 -2.39734,-0.51733c-0.64441,-0.14896 -1.95712,-0.45323 -2.62134,-0.58134c-1.31128,-0.25293 -1.95728,-0.34494 -3.20615,-0.45366c-0.59573,-0.05186 -1.17072,-0.08546 -2.242,-0.10533c-1.3663,-0.02533 -2.09183,-0.009 -2.94983,-0.009c-0.67801,0 -1.69186,0.04094 -2.5405,-0.05716c-0.97241,-0.11241 -1.81866,-0.3817 -2.49753,-0.5175c-0.785,-0.15704 -2.23071,-0.3085 -2.784,-0.34001c-0.58075,-0.03307 -1.80295,-0.06651 -2.43198,-0.07466c-0.633,-0.00819 -1.26401,-0.00999 -3.08633,-0.01067c-0.57236,-0.00021 -1.67102,0 -2.20135,0c-1.03265,0 -1.539,0 -3.04132,0c-0.99133,0 -1.479,0 -2.42834,0c-0.90134,0 -2.12915,0 -2.86215,0c-0.689,0 -1.6925,0 -2.73117,0c-0.73132,0 -1.47867,0 -2.22601,0c-1.43134,0 -2.09998,0 -3.078,0c-0.65866,0 -1.69617,0 -2.43182,0c-0.76367,0 -1.94415,-0.0032 -3.14249,0.00017c-0.79135,0.00223 -1.56015,-0.0016 -2.28601,0.05699c-0.98389,0.07942 -1.81128,0.2814 -2.52899,0.55351c-0.96173,0.36464 -1.72665,0.70595 -2.52402,0.95332c-1.11038,0.34448 -1.82779,0.44011 -2.48532,0.60533c-0.99078,0.24896 -1.88083,0.55099 -2.39868,0.724c-1.17694,0.39319 -1.82959,0.62694 -2.52533,0.88c-1.52109,0.5533 -2.33698,0.86819 -3.18265,1.192c-0.8623,0.33018 -1.7276,0.66504 -2.586,0.993c-0.83762,0.32002 -1.64185,0.62794 -2.40601,0.903c-1.34027,0.48244 -1.90225,0.66293 -2.39334,0.79733c-0.78104,0.21375 -1.59921,0.21867 -2.52682,0.34584c-0.87628,0.12013 -1.42554,0.69313 -1.92383,1.4955c-0.52554,0.84624 -0.84976,1.54407 -1.23785,2.25633c-0.58881,1.08066 -0.98688,1.76024 -1.38483,2.38634c-0.36798,0.57896 -1.01746,1.54622 -1.57468,2.18533c-0.60803,0.6974 -1.28479,1.23434 -1.61066,2.08266c-0.33844,0.88109 -0.55609,1.6268 -0.82666,2.276c-0.41254,0.98981 -0.70895,1.78345 -0.91333,2.54401c-0.29474,1.0968 -0.28534,2.09084 -0.28534,2.79018c0,0.97916 0,1.76849 0,2.8125c0,0.79199 -0.1207,1.67554 0.11432,2.57117c0.21863,0.8331 0.78397,1.43384 1.25101,1.86749c0.55978,0.51978 1.71811,1.37421 2.17468,1.69733c0.98816,0.69937 1.52142,1.05313 2.06665,1.41602c0.55307,0.36813 1.10889,0.73898 2.77118,1.79282c0.53009,0.33606 1.04718,0.65536 2.01801,1.25934c0.44958,0.27969 1.26468,0.78568 2.21866,1.41934c0.86758,0.57629 1.42484,0.92282 2.44016,1.05783c0.98047,0.1304 1.70169,0.08307 2.77869,0.08533c0.68665,0.00143 1.72916,0 2.49081,0c1.3425,0 1.86151,0 2.99551,0c0.603,0 1.22198,0 1.85098,0c1.26401,0 2.496,0 3.086,0c1.12003,0 1.65002,0 2.65002,0c0.91998,0 2.15121,-0.00583 2.90149,0.00449c0.75443,0.01035 1.56982,0.03818 3.02518,0.16217c0.57468,0.04895 1.19336,0.11719 1.85248,0.186c0.69421,0.07248 1.41766,0.15448 2.93668,0.29468c0.78384,0.07236 2.37726,0.19055 3.17801,0.23117c0.80328,0.04074 1.61295,0.06744 2.43149,0.08548c0.83044,0.01831 1.67599,0.02689 2.53952,0.03152c0.88449,0.00473 2.72849,0.00449 3.69247,0.00449c0.98801,0 1.99402,0 3.01202,0c1.02399,0 2.04797,0 3.06598,0c1.00601,0 2.95801,0 3.89267,0c0.90268,0 1.77133,0 2.604,0c0.79468,0 1.54935,0 2.26199,0c0.66867,0 1.866,0 2.39151,0c0.47849,0 0.91299,0 1.30649,0c0.3555,0 0.67599,0 1.85834,0c0.83401,0 1.84106,-0.11539 2.543,0.44666c0.73163,0.58578 1.0162,1.40781 1.35718,2.07217c0.41626,0.81107 0.89935,1.78915 1.24283,2.50201c0.35129,0.7291 0.83887,1.81024 1.11734,2.49783c0.27344,0.67517 0.53403,1.38281 0.85199,2.13599c0.55597,1.31699 0.7984,1.7988 1.03601,2.30783c0.49411,1.05859 0.74994,1.59485 0.98932,2.13666c0.68921,1.56 0.87216,2.05481 1.20001,2.99551c0.31445,0.90222 0.43839,1.36227 0.77332,2.27335c0.54614,1.48563 0.79865,2.00192 1.03735,2.54181c0.49182,1.11227 0.75208,1.67206 0.98932,2.242c0.69589,1.67178 0.86987,2.22488 1.03735,2.76685c0.33163,1.07303 0.46512,1.62378 0.77332,2.74832c0.16116,0.58807 0.52417,1.83423 0.73734,2.49683c0.22137,0.68814 0.46121,1.3902 0.70801,2.1015c0.24786,0.71436 0.50421,1.42072 0.98132,2.79733c0.43979,1.26892 0.63861,1.84741 0.94916,2.91318c0.14252,0.48904 0.39047,1.41248 0.53085,2.30417c0.2103,1.33588 0.20926,1.80902 0.26266,2.78799c0.02811,0.5152 0.07437,1.60822 0.10934,2.18933c0.07486,1.24316 0.12662,1.90829 0.27765,3.31418c0.07919,0.73715 0.17596,1.49155 0.285,2.2605c0.1109,0.78207 0.22632,1.57446 0.51999,3.168c0.14764,0.80112 0.31522,1.59882 0.48151,2.39551c0.16571,0.79398 0.33429,1.58298 0.49051,2.3685c0.15475,0.7782 0.31735,1.54694 0.52798,3.06934c0.10294,0.74405 0.16956,1.48489 0.22351,2.22299c0.05405,0.73926 0.0903,1.48526 0.12451,2.241c0.03482,0.76959 0.05795,1.55789 0.15198,3.20267c0.04941,0.86447 0.11594,1.75345 0.186,2.66251c0.07123,0.92429 0.14835,1.85825 0.22202,2.79749c0.07367,0.93909 0.15329,1.87262 0.25867,3.70667c0.05112,0.89005 0.08441,1.7626 0.11398,2.61902c0.02908,0.84225 0.05154,1.6727 0.078,2.49298c0.02621,0.81238 0.04529,1.61942 0.14133,3.22134c0.048,0.80042 0.11536,1.60019 0.186,2.39999c0.07068,0.8002 0.14835,1.59991 0.22202,2.39999c0.07367,0.79993 0.15442,1.59909 0.25867,3.20001c0.05203,0.79926 0.08438,1.59729 0.1185,2.39099c0.03387,0.78766 0.06464,1.5676 0.1095,2.33701c0.04419,0.75793 0.07663,1.50528 0.272,2.93866c0.09439,0.69241 0.22885,1.36295 0.3765,2.0145c0.14453,0.63779 0.30823,1.25711 0.47549,1.86151c0.16379,0.59192 0.34973,1.16455 0.79315,2.83585c0.14185,0.5347 0.38815,1.5849 0.50067,2.10065c0.2215,1.01526 0.32187,1.51904 0.62067,3.02051c0.19724,0.99103 0.29727,1.4776 0.46417,2.42834c0.15802,0.90009 0.31989,2.12833 0.38333,2.85315c0.0574,0.65594 0.0401,1.55551 0.34201,2.53616c0.22437,0.72873 0.74149,1.47418 1.47549,2.32568c0.59473,0.68994 0.95413,1.03989 1.73917,1.77832c0.41837,0.39355 0.84949,0.8078 2.33884,1.97852c0.51929,0.40817 1.06473,0.79886 1.6185,1.18948c0.55725,0.39307 1.68872,1.15619 2.25601,1.52533c1.11258,0.72397 1.65872,1.06818 2.19998,1.39868c1.06262,0.64886 1.59891,0.95358 2.14401,1.23999c1.099,0.57742 2.26935,1.08667 2.88098,1.32501c0.62036,0.24176 1.25067,0.47018 2.51599,0.88c0.61743,0.19998 1.22253,0.37842 2.875,0.875c0.48096,0.14453 1.33929,0.41647 2.10419,0.625c0.69885,0.19052 2.08276,0.43451 2.81519,0.4845c0.74646,0.05093 1.49463,0.0549 2.58063,0.05716c1.01404,0.00211 1.66669,0.00006 2.6507,0c1.03717,-0.00009 1.76459,0.00974 2.49518,-0.02084c1.05249,-0.04404 1.98981,-0.16135 2.75946,-0.41516c0.9613,-0.31705 1.95172,-0.75732 2.508,-0.98532c0.92145,-0.37766 1.92957,-0.89688 2.6427,-1.35468c0.38666,-0.24823 1.19739,-0.8447 1.62933,-1.18933c0.461,-0.3678 1.98419,-1.69824 2.54596,-2.22101c0.59576,-0.55438 1.21387,-1.14877 1.854,-1.77899c0.6673,-0.65701 1.35168,-1.34705 2.052,-2.06699c0.72113,-0.74133 2.19843,-2.2988 2.94983,-3.10986c0.75928,-0.81958 1.51276,-1.64691 2.25153,-2.47647c0.72687,-0.81616 1.427,-1.61902 2.08948,-2.40451c0.63202,-0.74936 1.7464,-2.13766 2.20953,-2.76984c0.42426,-0.57907 0.79547,-1.12888 1.11298,-1.659c0.30005,-0.50104 0.56055,-0.99866 0.789,-1.49701c0.2276,-0.49649 0.63086,-1.54965 0.82721,-2.11566c0.20514,-0.59128 0.40564,-1.21091 0.61047,-1.854c0.21155,-0.66422 0.42444,-1.34961 0.64648,-2.052c0.22729,-0.71896 0.70715,-2.19678 0.96417,-2.95065c0.26031,-0.76349 0.53076,-1.53152 0.80402,-2.30402c0.27411,-0.77484 0.55054,-1.54889 0.82202,-2.32199c0.26984,-0.76825 0.78979,-2.28476 1.03082,-3.03134c0.23761,-0.73611 0.46191,-1.46689 0.66449,-2.19598c0.20105,-0.72363 0.38318,-1.44879 0.53851,-2.17801c0.1554,-0.72955 0.39423,-2.21298 0.47595,-2.96866c0.0824,-0.76175 0.13702,-1.5311 0.18152,-2.30402c0.04456,-0.77444 0.07544,-1.54935 0.1095,-2.32199c0.03394,-0.76871 0.11426,-2.28635 0.17316,-3.03149c0.05841,-0.73883 0.13049,-1.47308 0.20404,-2.20651c0.07379,-0.7356 0.15179,-1.47574 0.22198,-2.22449c0.07117,-0.75928 0.1908,-2.32327 0.23114,-3.13284c0.04114,-0.82507 0.06738,-1.6626 0.08551,-2.508c0.01825,-0.84927 0.02679,-1.69867 0.03149,-2.54401c0.00464,-0.83734 0.00452,-2.47198 0.00452,-3.26248c0,-0.7735 0,-1.53302 0,-2.28152c0,-0.74048 0,-1.47598 0,-2.2095c0,-0.7345 0.00049,-2.21848 -0.00018,-2.97348c-0.00067,-0.76501 -0.00244,-1.54004 -0.0105,-2.32501c-0.00818,-0.79501 -0.02203,-1.6001 -0.04651,-2.41498c-0.02478,-0.82513 -0.10382,-2.5054 -0.16479,-3.35968c-0.06158,-0.8631 -0.13995,-1.73233 -0.24603,-2.604c-0.10657,-0.87576 -0.23871,-1.75159 -0.40796,-2.62201c-0.16937,-0.87106 -0.60944,-2.5907 -0.88916,-3.43198c-0.28162,-0.84702 -0.61285,-1.69098 -0.98553,-2.53802c-0.38336,-0.87128 -0.8175,-1.75601 -1.2915,-2.664c-0.49506,-0.94827 -1.62097,-2.95404 -2.24298,-4.02481c-0.64587,-1.11197 -1.31903,-2.24484 -2.00549,-3.38852c-0.68658,-1.14398 -1.37128,-2.27112 -2.0415,-3.37048c-0.64575,-1.05927 -1.83484,-3.00131 -2.36017,-3.86252c-0.47998,-0.7868 -0.9173,-1.50601 -1.31702,-2.16299c-0.3656,-0.60101 -0.70087,-1.15231 -1.01099,-1.659c-0.28723,-0.46927 -0.81177,-1.31775 -1.05835,-1.70734c-0.23615,-0.37305 -0.46655,-0.7301 -0.69598,-1.07098c-0.22327,-0.33176 -0.44794,-0.65271 -0.67798,-0.96301c-0.22864,-0.30838 -0.71124,-0.91141 -0.96906,-1.20898c-0.26208,-0.30252 -0.53735,-0.60251 -0.82495,-0.90002c-0.29242,-0.30255 -0.58893,-0.61206 -1.24005,-1.19998c-1.01794,-0.91919 -1.39258,-1.20947 -2.15997,-1.80002c-0.79248,-0.60986 -1.20599,-0.91324 -2.52002,-1.79999c-0.45111,-0.30441 -1.37366,-0.89374 -1.82666,-1.18933c-0.87555,-0.57126 -1.33069,-0.79285 -2.33997,-1.64401c-0.77783,-0.65601 -1.03058,-1.52597 -1.8667,-1.996c-0.79871,-0.44897 -1.6853,-0.34131 -2.44818,-0.88049l-0.49048,-0.47549" id="svg_5" stroke-linecap="null" stroke-linejoin="null" stroke-dasharray="null" stroke-width="0" stroke="#000000" fill="#ffffff"/>
 </g>
</svg>
