<?xml version="1.0" encoding="utf-8"?>
<!-- Generator: Adobe Illustrator 14.0.0, SVG Export Plug-In . SVG Version: 6.00 Build 43363)  -->
<!DOCTYPE svg PUBLIC "-//W3C//DTD SVG 1.1//EN" "http://www.w3.org/Graphics/SVG/1.1/DTD/svg11.dtd">
<svg version="1.1" id="图层_1" xmlns="http://www.w3.org/2000/svg" xmlns:xlink="http://www.w3.org/1999/xlink" x="0px" y="0px"
	 width="900px" height="600px" viewBox="0 0 900 600" enable-background="new 0 0 900 600" xml:space="preserve">
<rect fill="#AF9E77" width="900" height="600"/>
<path opacity="0.8" fill="#7743A9" enable-background="new    " d="M340.46,193.82c-1.687-15.392,0.843-30.562,2.146-45.438
	c-49.589,33.507-84.615,88.85-84.615,151.482c0.021,102.086,86.167,184.826,192.413,184.807
	c62.891-0.012,121.805-29.56,157.771-79.13C473.752,417.01,354.596,322.775,340.46,193.82z"/>
<path opacity="0.8" fill="#AF2177" enable-background="new    " d="M450.367,116.79c-27.996-0.022-55.653,5.873-81.012,17.27
	c87.043,36.894,143.209,119.685,143.207,211.096c0.074,50.199-16.979,99.04-48.553,139.037
	c105.379-9.304,182.957-98.926,173.274-200.178C628.36,190.685,547.889,118.692,450.367,116.79z"/>
<path opacity="0.8" fill="#468FDA" enable-background="new    " d="M450.367,245.37c73.32-0.045,142.688,31.926,188.543,86.897
	c18.854-100.052-50.274-195.846-154.404-213.961c-104.129-18.116-203.828,48.306-222.682,148.358
	c-4.087,21.692-4.087,43.912,0,65.604C307.678,277.296,377.047,245.324,450.367,245.37z"/>
</svg>
