<svg width="599.9999999999999" height="400" xmlns="http://www.w3.org/2000/svg">
 <!-- Created with Method Draw - http://github.com/duopixel/Method-Draw/ -->

 <g>
  <title>background</title>
  <rect x="-1" y="-1" width="602" height="402" id="canvas_background" fill="#fff"/>
  <g id="canvasGrid" display="none">
   <rect id="svg_1" width="100%" height="100%" x="0" y="0" stroke-width="0" fill="url(#gridpattern)"/>
  </g>
 </g>
 <g>
  <title>Layer 1</title>
  <g stroke="null" id="svg_241">
   <g stroke="null" transform="matrix(2.93945 0 0 3.02815 -930.855 -627.517)" id="svg_216">
    <path stroke="null" id="svg_217" d="m421.384674,263.643738" fill="#231F20"/>
    <g stroke="null" id="svg_218">
     <path stroke="null" id="svg_219" d="m419.373688,252.095749c0.373993,0 0.778992,0.042999 1.223999,0.132996c0.44101,0.093994 0.846008,0.268005 1.220001,0.527008c0.368988,0.259003 0.679993,0.609985 0.937012,1.053986c0.259979,0.44101 0.384979,1.022003 0.384979,1.739014l0,8.442001l2.96701,-2.966003l0,-6.120987c0,-0.88501 -0.205017,-1.675995 -0.614014,-2.375c-0.412994,-0.705017 -0.944,-1.298004 -1.592987,-1.794006c-0.649017,-0.494995 -1.368988,-0.869995 -2.160004,-1.125c-0.794006,-0.26001 -1.580994,-0.386017 -2.364014,-0.386017c-0.759003,0 -1.54599,0.118011 -2.347992,0.370026c-0.803009,0.243988 -1.531006,0.597992 -2.175995,1.061981c-0.649017,0.464996 -1.175995,1.02301 -1.588989,1.684021c-0.414001,0.66098 -0.622009,1.411987 -0.622009,2.257996l0,18.307968c0,0.412994 0.145996,0.763 0.436981,1.053009c0.28302,0.287994 0.637024,0.429993 1.050018,0.429993c0.408997,0 0.759003,-0.141998 1.049988,-0.429993c0.292023,-0.290009 0.432007,-0.640991 0.432007,-1.053009l0,-17.356979c0,-0.716003 0.127014,-1.298004 0.386017,-1.739014c0.255981,-0.444 0.565979,-0.794983 0.940979,-1.053986c0.373016,-0.26001 0.774017,-0.433014 1.214996,-0.527008c0.443024,-0.089996 0.852997,-0.132996 1.222015,-0.132996z" fill="#D44227"/>
    </g>
    <g stroke="null" id="svg_220">
     <radialGradient stroke="null" gradientTransform="translate(-31.3011 -2.84217e-14) translate(-5.68434e-14 -26.7512) translate(399.791 0) translate(0 249.703)" gradientUnits="userSpaceOnUse" r="45.368" cy="12.1982" cx="76.7158" id="svg_214">
      <stop stroke="null" stop-color="#929497" offset="0"/>
      <stop stroke="null" stop-color="#404041" offset="0.6727"/>
      <stop stroke="null" stop-color="#231F20" offset="1"/>
     </radialGradient>
     <path stroke="null" id="svg_221" d="m437.645691,259.875732c0.259979,0.26001 0.510986,0.583008 0.763,0.959991c0.243988,0.377014 0.410004,0.791016 0.491974,1.235016c0.075012,0.44101 0.051025,0.911987 -0.08197,1.40799c-0.127014,0.494995 -0.449005,0.999023 -0.956024,1.502014l-5.967987,5.970978l4.192017,0l4.327972,-4.330994c0.625,-0.625 1.037994,-1.333984 1.247009,-2.119995c0.200012,-0.786987 0.247009,-1.582001 0.140991,-2.391998c-0.10498,-0.802002 -0.353973,-1.582001 -0.730988,-2.320007c-0.377014,-0.747986 -0.845001,-1.393005 -1.395996,-1.942993c-0.542999,-0.542999 -1.180023,-1.006989 -1.923004,-1.399994c-0.740021,-0.394012 -1.507019,-0.653 -2.294006,-0.787003c-0.78598,-0.125977 -1.558014,-0.109985 -2.312988,0.067017c-0.759003,0.177002 -1.433014,0.562973 -2.029999,1.159988l-12.949005,12.949982c-0.291992,0.287018 -0.44101,0.637024 -0.44101,1.046021c0,0.404999 0.149017,0.755005 0.44101,1.04599c0.290985,0.290985 0.636993,0.437012 1.04599,0.437012c0.408997,0 0.756012,-0.146027 1.046997,-0.437012l12.27301,-12.27301c0.510986,-0.510986 1.014008,-0.825989 1.505981,-0.958984c0.495026,-0.130005 0.968018,-0.157013 1.412018,-0.07901c0.44101,0.07901 0.854004,0.249023 1.230988,0.496002c0.378021,0.243988 0.701019,0.503998 0.96402,0.763z" fill="url(#svg_214)"/>
    </g>
    <g stroke="null" id="svg_222">
     <path stroke="null" id="svg_223" d="m445.01767,278.52475c0,0.369995 -0.047974,0.776001 -0.142975,1.220978c-0.091003,0.438995 -0.266998,0.852997 -0.52301,1.223999c-0.256012,0.369019 -0.608002,0.679016 -1.050018,0.935028c-0.439972,0.259979 -1.021973,0.389984 -1.741974,0.389984l-8.438019,0l2.963013,2.962006l6.125,0c0.880981,0 1.675995,-0.203003 2.376007,-0.617004c0.699005,-0.412994 1.296997,-0.940002 1.789001,-1.588989c0.494995,-0.650024 0.873993,-1.369019 1.128998,-2.160004c0.260986,-0.794006 0.385986,-1.580994 0.385986,-2.364014c0,-0.766998 -0.125,-1.544983 -0.368988,-2.346985c-0.248016,-0.804016 -0.605011,-1.527008 -1.067017,-2.181c-0.462982,-0.64502 -1.022003,-1.176025 -1.68399,-1.58902c-0.654999,-0.40799 -1.411011,-0.613007 -2.252991,-0.613007l-18.312012,0c-0.412994,0 -0.764008,0.141022 -1.050995,0.429016c-0.290009,0.287994 -0.433014,0.640991 -0.433014,1.049988c0,0.412018 0.143005,0.764008 0.433014,1.055023c0.286987,0.281982 0.638,0.427979 1.050995,0.427979l17.355011,0c0.720001,0 1.302002,0.131012 1.741974,0.386993c0.44101,0.256012 0.794006,0.570007 1.050018,0.939026c0.256989,0.376984 0.433014,0.778992 0.52301,1.223999c0.095001,0.441986 0.142975,0.843994 0.142975,1.216003z" fill="#D44227"/>
    </g>
    <g stroke="null" id="svg_224">
     <radialGradient stroke="null" gradientTransform="translate(-31.3011 -2.84217e-14) translate(-5.68434e-14 -26.7512) translate(399.791 0) translate(0 249.703)" gradientUnits="userSpaceOnUse" r="58.1518" cy="87.2471" cx="92.7529" id="svg_213">
      <stop stroke="null" stop-color="#929497" offset="0"/>
      <stop stroke="null" stop-color="#404041" offset="0.6727"/>
      <stop stroke="null" stop-color="#231F20" offset="1"/>
     </radialGradient>
     <path stroke="null" id="svg_225" d="m437.032684,296.63974c-0.264008,0.265015 -0.583008,0.520996 -0.963989,0.769012c-0.373993,0.246979 -0.791016,0.40799 -1.231018,0.48999c-0.444,0.079987 -0.912994,0.056 -1.40799,-0.078003c-0.496002,-0.130005 -1,-0.446991 -1.507019,-0.959015l-5.967987,-5.967987l0,4.188019l4.332001,4.335999c0.623993,0.620972 1.325012,1.037994 2.110992,1.242004c0.791016,0.204987 1.585999,0.252991 2.395996,0.142975c0.807007,-0.109985 1.585999,-0.354004 2.325012,-0.730988c0.743988,-0.378998 1.393005,-0.84201 1.942993,-1.401001c0.542999,-0.535004 1.007019,-1.17099 1.395996,-1.919006c0.397003,-0.739014 0.656006,-1.507996 0.787018,-2.294006c0.132996,-0.781982 0.108978,-1.553986 -0.067017,-2.312988c-0.173004,-0.76001 -0.55899,-1.437012 -1.155975,-2.033997l-12.950012,-12.944c-0.291016,-0.296021 -0.636993,-0.438019 -1.04599,-0.438019s-0.755005,0.141998 -1.047028,0.440002c-0.289978,0.286011 -0.438995,0.638 -0.438995,1.046997c0.003998,0.404022 0.149017,0.753998 0.438995,1.046021l12.27002,12.271973c0.507996,0.513 0.829987,1.011017 0.963989,1.503021c0.125,0.494995 0.157013,0.967987 0.075012,1.411987c-0.083008,0.444 -0.243988,0.854004 -0.492004,1.231018s-0.502991,0.700989 -0.763,0.959991z" fill="url(#svg_213)"/>
    </g>
    <g stroke="null" id="svg_226">
     <path stroke="null" id="svg_227" d="m419.774689,304.565735c-0.440002,0.091003 -0.846008,0.139008 -1.218994,0.139008c-0.365997,0 -0.775024,-0.048004 -1.216003,-0.139008c-0.445007,-0.089996 -0.850006,-0.264008 -1.220001,-0.522003c-0.369995,-0.259003 -0.68399,-0.609985 -0.944,-1.054993c-0.26001,-0.440002 -0.386017,-1.022003 -0.386017,-1.739014l0,-8.440979l-2.965973,2.96698l0,6.119995c0,0.88501 0.204987,1.676025 0.616974,2.377014c0.412994,0.699005 0.940002,1.296997 1.589996,1.794006c0.64801,0.494995 1.372009,0.871979 2.164001,1.125c0.790009,0.259003 1.578003,0.38501 2.360016,0.38501c0.763,0 1.545013,-0.118011 2.347992,-0.369019c0.803009,-0.243988 1.526001,-0.598999 2.179993,-1.062988c0.64502,-0.465027 1.176025,-1.022003 1.58902,-1.684021c0.408997,-0.66098 0.617981,-1.408997 0.617981,-2.259003l0,-18.307983c0,-0.416992 -0.145996,-0.761993 -0.43399,-1.053009c-0.28598,-0.291992 -0.632996,-0.432983 -1.049988,-0.432983c-0.408997,0 -0.763,0.140991 -1.046997,0.432983c-0.291016,0.291016 -0.436005,0.636017 -0.436005,1.053009l0,17.355011c0,0.71698 -0.131012,1.298981 -0.382019,1.738983" fill="#D44227"/>
    </g>
    <g stroke="null" id="svg_228">
     <radialGradient stroke="null" gradientTransform="translate(-31.3011 -2.84217e-14) translate(-5.68434e-14 -26.7512) translate(399.791 0) translate(0 249.703)" gradientUnits="userSpaceOnUse" r="76.9606" cy="85.1133" cx="-0.3135" id="svg_212">
      <stop stroke="null" stop-color="#929497" offset="0"/>
      <stop stroke="null" stop-color="#404041" offset="0.6727"/>
      <stop stroke="null" stop-color="#231F20" offset="1"/>
     </radialGradient>
     <path stroke="null" id="svg_229" d="m400.696686,296.742737c-0.264008,-0.264008 -0.519012,-0.583008 -0.766998,-0.959991c-0.244995,-0.382019 -0.410004,-0.794006 -0.488007,-1.236023c-0.082001,-0.44397 -0.054993,-0.911987 0.075012,-1.406982s0.453003,-0.998993 0.963989,-1.507019l5.963013,-5.96698l-4.192993,0l-4.328003,4.330994c-0.625,0.625 -1.038025,1.333984 -1.246002,2.11499c-0.201019,0.787018 -0.248016,1.585999 -0.138,2.393005c0.105988,0.806 0.354004,1.585022 0.731995,2.324005c0.376984,0.743011 0.84198,1.394012 1.391998,1.942993c0.542999,0.538025 1.181,1.002991 1.924011,1.399994c0.742981,0.394012 1.506989,0.653015 2.292969,0.786011c0.787018,0.131012 1.558014,0.102997 2.313019,-0.070007c0.759003,-0.173004 1.436005,-0.55899 2.033997,-1.156006l12.946014,-12.945984c0.29599,-0.294006 0.440002,-0.640991 0.440002,-1.049988s-0.14502,-0.755005 -0.440002,-1.046021c-0.291016,-0.290985 -0.638,-0.440979 -1.046021,-0.440979c-0.410004,0 -0.759979,0.149994 -1.04599,0.440979l-12.274017,12.269012c-0.510986,0.507996 -1.014984,0.82901 -1.501984,0.964996c-0.5,0.132996 -0.967987,0.156006 -1.412018,0.078003c-0.44397,-0.083008 -0.853973,-0.243988 -1.231995,-0.494995c-0.385986,-0.249023 -0.699982,-0.505005 -0.963989,-0.764008z" fill="url(#svg_212)"/>
    </g>
    <g stroke="null" id="svg_230">
     <path stroke="null" id="svg_231" d="m392.809692,278.521729c0,-0.368988 0.049988,-0.778992 0.140991,-1.220978c0.095001,-0.439026 0.266998,-0.848999 0.52301,-1.219025c0.259979,-0.368988 0.608978,-0.68399 1.049988,-0.938995c0.444,-0.255981 1.022003,-0.389984 1.746002,-0.386993l8.437988,0l-2.961975,-2.960999l-6.124023,0c-0.884979,0 -1.679993,0.204987 -2.380005,0.613007c-0.695984,0.410004 -1.293976,0.945007 -1.789978,1.588989c-0.490997,0.653015 -0.869019,1.368988 -1.125,2.162994c-0.256012,0.796021 -0.386017,1.582001 -0.386017,2.360992c0,0.762024 0.122009,1.541016 0.370026,2.348022c0.247986,0.806 0.60199,1.528992 1.065979,2.179993c0.46402,0.64801 1.022003,1.175995 1.68399,1.588989c0.657013,0.414001 1.40802,0.617004 2.253021,0.617004l18.312012,0c0.413971,0 0.763977,-0.140991 1.049988,-0.432007c0.287994,-0.286987 0.428986,-0.638 0.428986,-1.050995c0,-0.414001 -0.140991,-0.759003 -0.428986,-1.049988c-0.287018,-0.286987 -0.636993,-0.433014 -1.049988,-0.433014l-17.355011,0c-0.723999,0 -1.302002,-0.126984 -1.746002,-0.386993c-0.44101,-0.259003 -0.791016,-0.565002 -1.050018,-0.944c-0.255981,-0.368988 -0.428986,-0.773987 -0.52298,-1.218994c-0.091003,-0.437012 -0.141998,-0.847992 -0.141998,-1.21701z" fill="#D44227"/>
    </g>
    <g stroke="null" id="svg_232">
     <radialGradient stroke="null" gradientTransform="translate(-31.3011 -2.84217e-14) translate(-5.68434e-14 -26.7512) translate(399.791 0) translate(0 249.703)" gradientUnits="userSpaceOnUse" r="39.5282" cy="12.9648" cx="39.6699" id="svg_211">
      <stop stroke="null" stop-color="#929497" offset="0"/>
      <stop stroke="null" stop-color="#404041" offset="0.6727"/>
      <stop stroke="null" stop-color="#231F20" offset="1"/>
     </radialGradient>
     <path stroke="null" id="svg_233" d="m400.149689,258.565735c0.26001,-0.264008 0.582001,-0.514984 0.959991,-0.766998c0.378021,-0.244019 0.795013,-0.410004 1.235016,-0.488007c0.440979,-0.083008 0.912994,-0.054993 1.40799,0.074005c0.496002,0.130005 1,0.453003 1.506989,0.964996l5.96701,5.963013l0,-4.193024l-4.330994,-4.327957c-0.625,-0.628998 -1.32901,-1.039001 -2.115997,-1.243011c-0.791016,-0.208008 -1.585022,-0.252014 -2.391998,-0.141998c-0.807007,0.105011 -1.585022,0.350006 -2.325012,0.727997c-0.743988,0.381012 -1.388,0.845001 -1.942993,1.395981c-0.539001,0.542999 -1.007019,1.179993 -1.399994,1.923004c-0.394012,0.743988 -0.653015,1.506012 -0.787018,2.294006c-0.126007,0.78598 -0.105988,1.557983 0.070007,2.312988c0.173004,0.755005 0.554993,1.436005 1.157013,2.029999l12.949982,12.950012c0.291016,0.290985 0.636993,0.438995 1.046021,0.438995c0.404999,0 0.754974,-0.14801 1.04599,-0.438995c0.290985,-0.292023 0.436005,-0.638 0.436005,-1.048004c0,-0.408997 -0.146027,-0.753998 -0.436005,-1.045013l-12.268005,-12.271973c-0.507996,-0.511017 -0.830994,-1.014008 -0.964996,-1.51001c-0.128998,-0.496002 -0.157013,-0.959015 -0.074005,-1.40802c0.083008,-0.439972 0.243988,-0.848999 0.492004,-1.234985c0.247986,-0.378998 0.502991,-0.692993 0.763,-0.957001z" fill="url(#svg_211)"/>
    </g>
    <radialGradient stroke="null" gradientTransform="translate(-31.3011 -2.84217e-14) translate(-5.68434e-14 -26.7512) translate(399.791 0) translate(0 249.703)" gradientUnits="userSpaceOnUse" r="58.1615" cy="87.249" cx="92.7539" id="svg_210">
     <stop stroke="null" stop-color="#929497" offset="0"/>
     <stop stroke="null" stop-color="#404041" offset="0.6727"/>
     <stop stroke="null" stop-color="#231F20" offset="1"/>
    </radialGradient>
    <path stroke="null" id="svg_234" d="m447.888702,303.028748c0,1.979004 -1.604004,3.57901 -3.575012,3.57901c-1.975006,0 -3.575989,-1.601013 -3.575989,-3.57901c0,-1.971008 1.60199,-3.571991 3.575989,-3.571991c1.971008,-0.000031 3.575012,1.600983 3.575012,3.571991z" fill="url(#svg_210)"/>
    <path stroke="null" id="svg_235" d="m459.218689,278.52475c0,1.971985 -1.605011,3.574982 -3.580017,3.574982s-3.569977,-1.604004 -3.569977,-3.574982c0,-1.975006 1.595978,-3.575012 3.569977,-3.575012s3.580017,1.600983 3.580017,3.575012z" fill="#D44227"/>
    <radialGradient stroke="null" gradientTransform="translate(-31.3011 -2.84217e-14) translate(-5.68434e-14 -26.7512) translate(399.791 0) translate(0 249.703)" gradientUnits="userSpaceOnUse" r="45.3837" cy="12.1982" cx="76.7158" id="svg_209">
     <stop stroke="null" stop-color="#929497" offset="0"/>
     <stop stroke="null" stop-color="#404041" offset="0.6727"/>
     <stop stroke="null" stop-color="#231F20" offset="1"/>
    </radialGradient>
    <path stroke="null" id="svg_236" d="m447.888702,252.795761c0,1.974976 -1.604004,3.579971 -3.575012,3.579971c-1.975006,0 -3.575989,-1.604996 -3.575989,-3.579971c0,-1.975006 1.60199,-3.572021 3.575989,-3.572021c1.971008,0 3.575012,1.597015 3.575012,3.572021z" fill="url(#svg_209)"/>
    <path stroke="null" id="svg_237" d="m422.949677,242.551743c0,1.975006 -1.597992,3.572021 -3.575989,3.572021c-1.977997,0 -3.575012,-1.597015 -3.575012,-3.572021c0,-1.974976 1.597015,-3.579987 3.575012,-3.579987c1.977997,0.001007 3.575989,1.605011 3.575989,3.579987z" fill="#D44227"/>
    <radialGradient stroke="null" gradientTransform="translate(-31.3011 -2.84217e-14) translate(-5.68434e-14 -26.7512) translate(399.791 0) translate(0 249.703)" gradientUnits="userSpaceOnUse" r="39.5138" cy="12.9731" cx="39.6758" id="svg_208">
     <stop stroke="null" stop-color="#929497" offset="0"/>
     <stop stroke="null" stop-color="#404041" offset="0.6727"/>
     <stop stroke="null" stop-color="#231F20" offset="1"/>
    </radialGradient>
    <path stroke="null" id="svg_238" d="m398.245697,252.377762c0,1.975006 -1.601013,3.575989 -3.57901,3.575989c-1.975006,0 -3.571991,-1.601013 -3.571991,-3.575989c0,-1.975006 1.597992,-3.571014 3.571991,-3.571014c1.977997,0 3.57901,1.597015 3.57901,3.571014z" fill="url(#svg_208)"/>
    <path stroke="null" id="svg_239" d="m385.406677,277.176727c0,1.975006 -1.600983,3.571991 -3.571991,3.571991c-1.979004,0 -3.57901,-1.597992 -3.57901,-3.571991c0,-1.975983 1.601013,-3.579987 3.57901,-3.579987c1.971008,0 3.571991,1.604004 3.571991,3.579987z" fill="#D44227"/>
    <radialGradient stroke="null" gradientTransform="translate(-31.3011 -2.84217e-14) translate(-5.68434e-14 -26.7512) translate(399.791 0) translate(0 249.703)" gradientUnits="userSpaceOnUse" r="76.94" cy="85.1143" cx="-0.3081" id="svg_207">
     <stop stroke="null" stop-color="#929497" offset="0"/>
     <stop stroke="null" stop-color="#404041" offset="0.6727"/>
     <stop stroke="null" stop-color="#231F20" offset="1"/>
    </radialGradient>
    <path stroke="null" id="svg_240" d="m397.089691,303.028748c0,1.979004 -1.597992,3.57901 -3.572021,3.57901c-1.974976,0 -3.575989,-1.601013 -3.575989,-3.57901c0,-1.971008 1.601013,-3.571991 3.575989,-3.571991c1.97403,-0.000031 3.572021,1.600983 3.572021,3.571991z" fill="url(#svg_207)"/>
   </g>
  </g>
 </g>
</svg>