<svg width="599.9999999999999" height="400" xmlns="http://www.w3.org/2000/svg">
 <!-- Created with Method Draw - http://github.com/duopixel/Method-Draw/ -->

 <g>
  <title>background</title>
  <rect fill="#00bc80" id="canvas_background" height="402" width="602" y="-1" x="-1"/>
  <g display="none" overflow="visible" y="0" x="0" height="100%" width="100%" id="canvasGrid">
   <rect fill="url(#gridpattern)" stroke-width="0" y="0" x="0" height="100%" width="100%"/>
  </g>
 </g>
 <g>
  <title>Layer 1</title>
  <g stroke="null" id="svg_45">
   <path stroke="null" id="svg_40" d="m172.666779,68.731537l254.666443,0l0,262.536926l-254.666443,0l0,-262.536926z" fill="none"/>
   <path stroke="null" id="svg_41" fill="#a0d468" d="m236.000092,192.030396c1.454315,-15.069061 7.271393,-29.651978 18.905487,-40.83226c11.149384,-11.180252 25.692078,-17.499527 40.719482,-18.957809l0,-52.984772c-24.722473,0.972198 -49.445068,10.208099 -69.320038,26.735428l-20.359802,-3.888809l3.878082,20.416122c-16.48172,20.416199 -25.692047,44.721085 -26.66153,69.998245l52.838318,0l0,-0.486145z" class="st6"/>
   <path stroke="null" id="svg_42" fill="#ffce54" d="m295.625061,263.000763c-15.027405,-1.458282 -29.570099,-7.291443 -40.719482,-18.957794c-11.149353,-11.180298 -17.451172,-25.763214 -18.905487,-40.832275l-52.838318,0c0.969482,24.791016 10.17981,49.095917 26.66153,69.512024l-3.878082,20.416199l20.359802,-3.888794c20.359711,16.527313 44.597565,25.763214 69.320038,26.735413l0,-52.984772z" class="st7"/>
   <path stroke="null" id="svg_43" fill="#4fc1e9" d="m377.064056,106.963181c-20.359711,-17.013458 -45.082306,-26.249298 -70.289612,-27.221497l0,52.984711c15.027405,1.458282 29.085388,7.291489 40.719604,18.95787c11.149353,11.180237 17.451172,25.763214 18.905365,40.832275l52.838409,0c-0.969421,-24.791016 -9.695038,-49.095978 -26.176788,-69.026031l3.878082,-20.416138l-19.875061,3.888809z" class="st8"/>
   <path stroke="null" id="svg_44" fill="#fc6e51" d="m365.914673,203.210693c-1.454285,15.069061 -7.271271,29.165894 -18.905487,40.832275c-11.149353,11.180298 -25.692047,17.499512 -40.719482,18.957794l0,52.984772c24.237854,-0.972198 48.475616,-9.721954 68.350586,-25.763214l20.844513,4.374878l-3.878052,-20.416138c16.966461,-20.416138 26.176788,-45.207153 27.146332,-70.484283l-52.838409,0l0,-0.486084z" class="st9"/>
  </g>
 </g>
</svg>