<svg width="600" height="400" xmlns="http://www.w3.org/2000/svg">
 <!-- Created with Method Draw - http://github.com/duopixel/Method-Draw/ -->

 <g>
  <title>background</title>
  <rect fill="#fff" id="canvas_background" height="402" width="602" y="-1" x="-1"/>
  <g display="none" overflow="visible" y="0" x="0" height="100%" width="100%" id="canvasGrid">
   <rect fill="url(#gridpattern)" stroke-width="0" y="0" x="0" height="100%" width="100%"/>
  </g>
 </g>
 <g>
  <title>Layer 1</title>
  <g stroke="null" id="svg_43">
   <g stroke="null" transform="matrix(1.8053 0 0 1.92278 -829.579 -578.251)" id="svg_40">
    <path stroke="null" id="svg_41" d="m625.701416,374.603394l-0.200012,0.100037l-0.099976,-0.100037l0,0.300049l-40.700012,34.399994l0,54.199982l18.200012,0l0,-13.199982l0,-7.200043l0,-26.899963l22.700012,-19.5l22.799988,19.5l0,26.899963l0,7.200043l0,13.199982l18.200012,0l0,-54.199982l-40.900024,-34.399994l0,-0.300049zm34.900024,81.600037l-6.299988,0l0,-43l-28.5,-23.899994l0,-0.300018l-0.200012,0.099976l-0.200012,-0.099976l0,0.300018l-28.5,23.899994l0,43l-6.299988,0l0,-44l35,-29.799988l35,29.799988l0,44z" fill="#88AC59" clip-rule="evenodd" fill-rule="evenodd"/>
    <path stroke="null" id="svg_42" d="m691.10144,402.403442l-65.400024,-56.100006l0,-0.300018l-0.200012,0.200012l-0.099976,-0.299988l0,0.299988l-65.099976,55.5l0,19.200012l0,0l0,42.700012l18.099976,0l0,-55.700012l47.200012,-40.200012l47.200012,40.200012l0,55.700012l18.199951,0l0,-56.600037c0,0 0.100037,0 0.100037,0l0,-4.599976zm-6.100037,53.799988l-6.399963,0l0,-51l-52.799988,-45.200012l0,-0.299988l-0.200012,0.200012l-0.200012,-0.300049l0,0.300049l-52.799988,45.299988l0,51l-6.400024,0l0,-52.299988l59.400024,-50l59.399963,49.699951l0,52.600037z" fill="#0B4456" clip-rule="evenodd" fill-rule="evenodd"/>
   </g>
  </g>
 </g>
</svg>