<svg width="600" height="400" xmlns="http://www.w3.org/2000/svg">
 <!-- Created with Method Draw - http://github.com/duopixel/Method-Draw/ -->

 <g>
  <title>background</title>
  <rect fill="#7bb768" id="canvas_background" height="402" width="602" y="-1" x="-1"/>
  <g display="none" overflow="visible" y="0" x="0" height="100%" width="100%" id="canvasGrid">
   <rect fill="url(#gridpattern)" stroke-width="0" y="0" x="0" height="100%" width="100%"/>
  </g>
 </g>
 <g>
  <title>Layer 1</title>
  <g stroke="null" id="svg_18">
   <g stroke="null" transform="matrix(0.405446 0 0 0.407748 -625.504 -395.85)" id="svg_13">
    <path stroke="null" id="svg_14" d="m2139.126709,1475.101074c-72.350098,0 -131.039917,58.669922 -131.039917,131.039917c0,72.380127 58.67981,131.050049 131.039917,131.050049c72.389893,0 131.040039,-58.669922 131.040039,-131.050049l0.030029,0l0,-131.039917l-131.070068,0z" fill="#9a8aab"/>
    <path stroke="null" id="svg_15" d="m2426.216797,1475.101074c72.389893,0 131.060059,58.679932 131.060059,131.049927c0,72.380005 -58.670166,131.050049 -131.060059,131.050049c-72.370117,0 -131.040039,-58.670044 -131.040039,-131.050049l0,0l0,-131.049927l131.040039,0z" fill="#9a8aab"/>
    <path stroke="null" id="svg_16" d="m2139.126709,1447.531006c-72.350098,0 -131.039917,-58.679932 -131.039917,-131.039917c0,-72.380005 58.689819,-131.050049 131.039917,-131.050049c72.389893,0 131.040039,58.670044 131.040039,131.050049l0.030029,0l0,131.039917l-131.070068,0z" fill="#9a8aab"/>
    <path stroke="null" id="svg_17" d="m2426.216797,1187.630981c-72.370117,0 -131.040039,58.670044 -131.040039,131.050049c0,1.73999 0.050049,3.469971 0.119873,5.190063l0,125.72998l125.790039,0c1.719971,0.079956 3.410156,0.130005 5.130127,0.130005c72.389893,0 131.060059,-58.670044 131.060059,-131.050049l0,0l0,-131.050049l-131.060059,0zm1.859863,231.960083c-55.5,0 -100.459961,-44.98999 -100.459961,-100.47998c0,-55.490112 44.969971,-100.480103 100.459961,-100.480103c55.52002,0 100.52002,44.98999 100.52002,100.480103c0,55.48999 -45,100.47998 -100.52002,100.47998z" fill="#9a8aab"/>
   </g>
  </g>
 </g>
</svg>