<?xml version="1.0" encoding="utf-8"?>
<!-- Generator: Adobe Illustrator 14.0.0, SVG Export Plug-In . SVG Version: 6.00 Build 43363)  -->
<!DOCTYPE svg PUBLIC "-//W3C//DTD SVG 1.1//EN" "http://www.w3.org/Graphics/SVG/1.1/DTD/svg11.dtd">
<svg version="1.1" id="图层_1" xmlns="http://www.w3.org/2000/svg" xmlns:xlink="http://www.w3.org/1999/xlink" x="0px" y="0px"
	 width="900px" height="600px" viewBox="0 0 900 600" enable-background="new 0 0 900 600" xml:space="preserve">
<rect fill="#214254" width="900" height="600"/>
<path fill="#71AF44" d="M321.985,288.039c-10.393,16.749-16.386,35.771-17.443,55.356c27.188,56.836,75.455,101.32,134.926,124.352
	c19.852-2.266,38.818-9.346,55.191-20.603C409.897,432.792,341.987,370.218,321.985,288.039z"/>
<path fill="#71AF44" d="M441.551,374.582c-39.38-20.966-87.327-67.604-106.463-103.96c-6.074,19.15,16.099,90.211,89.697,134.37
	c26.852,16.127,56.895,23.747,86.343,27.577c18.715-6.885,35.389-18.244,48.512-33.051
	C518.656,402.512,477.661,393.855,441.551,374.582z"/>
<path fill="#FFFFFF" d="M509.917,175.592c-9.578-17.197-23.354-31.788-40.088-42.465c-63.699-5.283-127.045,13.539-177.086,52.615
	c-7.922,18.022-11.162,37.695-9.43,57.251C338.331,178.032,427.458,151.521,509.917,175.592z"/>
<radialGradient id="SVGID_1_" cx="337.0991" cy="407.375" r="0" gradientTransform="matrix(1.0261 0 0 -1.008 172.891 606.0833)" gradientUnits="userSpaceOnUse">
	<stop  offset="0" style="stop-color:#5E7074"/>
	<stop  offset="1" style="stop-color:#214254"/>
</radialGradient>
<path fill="url(#SVGID_1_)" d="M518.771,195.469"/>
<path fill="#FFFFFF" d="M518.721,195.469c-13.801-14.716-87.584-31.418-163.296,9.071c-27.632,14.837-49.385,36.568-67.433,59.752
	c-3.271,19.365-1.593,39.225,4.884,57.795c17.859-36.367,46-66.915,81.059-87.993C412.052,211.062,477.114,193.584,518.721,195.469z
	 M614.399,202.696c-11.913-15.764-27.638-28.363-45.752-36.659c29.744,79.292,8.546,168.367-53.898,226.487
	c19.942,0.448,39.686-3.975,57.459-12.872C608.734,328.112,623.828,264.809,614.399,202.696z"/>
<path fill="#FFFFFF" d="M566.452,246.603c0.779-30.904-7.511-60.286-18.858-87.249c-15.427-12.467-33.765-20.973-53.365-24.755
	c23.13,33.354,35.992,72.546,37.051,112.891c1.129,44.008-15.966,108.143-38.446,142.595
	C512.697,385.71,564.317,331.28,566.452,246.603z"/>
</svg>
