<?xml version="1.0" encoding="utf-8"?>
<!DOCTYPE svg PUBLIC "-//W3C//DTD SVG 1.1//EN" "http://www.w3.org/Graphics/SVG/1.1/DTD/svg11.dtd">
<svg xmlns="http://www.w3.org/2000/svg" xml:space="preserve" width="900" height="600">
  <path fill="#FFF" d="M0 0h900v600H0z"/>
  <path fill="#BE85F6" d="m561.186 452.57-67.252-58.65c-.571-.47-.899-1.11-.912-1.781V207.83c.013-.672.341-1.313.912-1.782l67.252-58.62c2.338-2.058 6.94-.86 6.94 1.751v301.64c0 2.612-4.603 3.81-6.94 1.751z"/>
  <path fill="#50D2F8" d="m474.025 450.205-48.438-56.377c-.356-.434-.547-.948-.548-1.475V207.646c.001-.526.192-1.041.548-1.475l48.438-56.377c2.045-2.396 7.306-1.352 7.306 1.475V448.73c-.073 2.827-5.261 3.871-7.306 1.475z"/>
  <path fill="#7385FB" d="m401.988 445.443-29.553-51.8c-.187-.326-.286-.683-.292-1.045V207.4c.006-.362.105-.718.292-1.044l29.553-51.799c1.607-2.827 7.525-1.997 7.525 1.075v288.767c.001 3.072-5.917 3.87-7.525 1.044z"/>
  <path fill="#F0C9E9" d="m342.847 444.92-10.959-37.789c-.018-.184-.018-.369 0-.553V193.421c-.018-.184-.018-.369 0-.553l10.959-37.79c.73-3.318 7.562-2.826 7.562.522v288.798c-.001 3.349-6.832 3.84-7.562.522z"/>
</svg>