<?xml version="1.0" encoding="utf-8"?>
<!-- Generator: Adobe Illustrator 14.0.0, SVG Export Plug-In . SVG Version: 6.00 Build 43363)  -->
<!DOCTYPE svg PUBLIC "-//W3C//DTD SVG 1.1//EN" "http://www.w3.org/Graphics/SVG/1.1/DTD/svg11.dtd">
<svg version="1.1" id="图层_1" xmlns="http://www.w3.org/2000/svg" xmlns:xlink="http://www.w3.org/1999/xlink" x="0px" y="0px"
	 width="900px" height="600px" viewBox="0 0 900 600" enable-background="new 0 0 900 600" xml:space="preserve">
<rect fill="#FFFFFF" width="900" height="600"/>
<g>
	<path fill="#C8D921" d="M515.007,283.343l-10.712,10.824l-9.956-10.061l6.585-6.655v-72.6l-50.943-51.479l-50.943,51.479v72.58
		l6.586,6.655l-9.957,10.061l-10.711-10.824v-84.364l65.025-65.709l65.026,65.709V283.343z M459.938,338.972l-9.957,10.062
		l-10.963-11.08l-21.831-22.059l9.956-10.062l17.047,17.284L459.938,338.972z"/>
	<path fill="#00A088" d="M515.007,401.041L449.98,466.75l-35.408-35.781v-20.121l35.408,35.78l50.943-51.479v-72.6l-6.585-6.654
		l9.956-10.062l10.712,10.825V401.041z M414.572,306.851l29.617-29.928l-9.957-10.061l-19.66,19.868V306.851z M414.572,430.969
		l-29.617-29.928v-27.032h14.082v21.14l15.496,15.659v20.161H414.572z M414.572,286.729v20.122l-15.496,15.659v20.65h-14.121
		v-26.502L414.572,286.729z"/>
	<path fill="#0091D9" d="M474.252,351.479h18.498v14.23h-18.498V351.479z M474.252,248.521h69.888L595.084,300l-50.944,51.479
		h-20.92v14.23h26.79L615.035,300l-65.064-65.709h-75.719V248.521z M466.504,365.709l-10.713-10.824l9.957-10.061l6.586,6.654h1.938
		v14.23H466.504z M474.252,234.291v14.23h-1.938l-6.586,6.655l-9.956-10.061l10.712-10.824H474.252z"/>
	<path fill="#85C12F" d="M425.709,351.479h1.938l6.586-6.654l9.957,10.061l-10.713,10.824h-7.748v-14.23H425.709z M425.709,248.521
		v-14.23h7.749L498.484,300l-32.775,33.139l-9.956-10.021L478.668,300l-50.943-51.479H425.709z M349.991,365.709L284.965,300
		l65.026-65.709h26.789v14.23h-20.959L304.877,300l50.944,51.479h69.888v14.23H349.991z M425.709,234.291h-18.498v14.23h18.498
		V234.291z"/>
</g>
</svg>
