<?xml version="1.0" encoding="utf-8"?>
<!-- Generator: Adobe Illustrator 14.0.0, SVG Export Plug-In . SVG Version: 6.00 Build 43363)  -->
<!DOCTYPE svg PUBLIC "-//W3C//DTD SVG 1.1//EN" "http://www.w3.org/Graphics/SVG/1.1/DTD/svg11.dtd">
<svg version="1.1" id="cube" xmlns="http://www.w3.org/2000/svg" xmlns:xlink="http://www.w3.org/1999/xlink" x="0px" y="0px"
	 width="900px" height="600px" viewBox="0 0 900 600" enable-background="new 0 0 900 600" xml:space="preserve">
<rect fill="#CDE82E" width="900" height="600"/>
<path fill="#FFFFFF" d="M526.841,193.381l-53.489,87.532c-7.114,11.649-3.044,26.626,9.09,33.452l85.787,48.266
	c12.134,6.826,27.756,2.845,32.579-9.834c6.271-16.465,9.687-34.243,9.687-52.793c0-44.385-19.568-84.381-50.878-112.488
	C549.348,178.291,533.955,181.732,526.841,193.381z"/>
<path fill="#FFFFFF" d="M462.363,274.734l53.639-87.777c7.115-11.649,2.998-26.682-10.189-31.38C488.43,149.385,469.627,146,450,146
	c-48.627,0-92.201,20.754-121.625,53.528c-9.183,10.229-5.197,25.238,6.938,32.064l92.188,51.865
	C439.64,290.282,455.248,286.377,462.363,274.734z"/>
<path fill="#FFFFFF" d="M379.416,410.476l50.728-83.023c7.114-11.649,3.044-26.626-9.091-33.452l-92.004-51.757
	c-12.134-6.832-27.396-2.656-31.735,10.186c-5.065,14.983-7.808,30.972-7.808,47.575c0,46.947,21.898,88.982,56.422,117.229
	C356.635,425.992,372.303,422.118,379.416,410.476z"/>
<path fill="#FFFFFF" d="M441.139,333.631l-50.584,82.785c-7.113,11.648-2.742,26.237,10.668,30.338
	c15.387,4.703,31.773,7.246,48.783,7.246c46.559,0,88.484-19.021,117.798-49.408c9.562-9.909,5.923-24.711-6.218-31.537
	l-85.584-48.146C463.861,318.082,448.252,321.988,441.139,333.631z"/>
</svg>
