<?xml version="1.0" encoding="utf-8"?>
<!-- Generator: Adobe Illustrator 14.0.0, SVG Export Plug-In . SVG Version: 6.00 Build 43363)  -->
<!DOCTYPE svg PUBLIC "-//W3C//DTD SVG 1.1//EN" "http://www.w3.org/Graphics/SVG/1.1/DTD/svg11.dtd">
<svg version="1.1" id="图层_1" xmlns="http://www.w3.org/2000/svg" xmlns:xlink="http://www.w3.org/1999/xlink" x="0px" y="0px"
	 width="900px" height="600px" viewBox="0 0 900 600" enable-background="new 0 0 900 600" xml:space="preserve">
<rect fill="#FFFFFF" width="900" height="600"/>
<g>
	<path fill="#EDB12A" d="M461.346,205.721l22.729,21.722l119.784,114.472L636,372.629v-43.442l-32.141-30.716l-97.055-92.75
		l11.383-10.842l85.672,81.871L636,307.465v-43.441l-32.141-30.68l-62.979-60.186l11.384-10.878l51.596,49.344L636,242.338V122.25
		h-87.309l-32.104,30.715l-21.129,20.193L484.075,184L461.346,205.721z"/>
	<path fill="#006CA0" d="M548.654,310.843l-22.729,21.722L406.141,447.035L374,477.75h45.459l32.141-30.715l97.055-92.75
		L560,365.164l-85.671,81.871l-32.141,30.715h45.458l32.104-30.715l62.979-60.187l11.384,10.878l-51.634,49.309l-32.142,30.715H636
		v-83.436l-32.141-30.68l-21.13-20.192l-11.346-10.878L548.654,310.843z"/>
	<path fill="#599D46" d="M438.654,394.279l-22.729-21.722L296.141,258.086L264,227.371v43.442l32.141,30.716l97.055,92.75
		l-11.346,10.842l-85.709-81.871L264,292.534v43.442l32.141,30.68l62.979,60.187l-11.383,10.878l-51.597-49.344L264,357.662V477.75
		h87.271l32.141-30.715l21.129-20.192L415.925,416L438.654,394.279z"/>
	<path fill="#C72631" d="M351.346,289.157l22.729-21.722l119.785-114.471L526,122.25h-45.459L448.4,152.965l-97.055,92.75
		L340,234.873l85.671-81.908l32.141-30.715h-45.458l-32.104,30.715l-62.979,60.187l-11.384-10.878l51.634-49.309l32.142-30.715H264
		v83.4l32.141,30.715l21.13,20.193l11.347,10.877L351.346,289.157z"/>
</g>
</svg>
