<?xml version="1.0" encoding="utf-8"?>
<!-- Generator: Adobe Illustrator 14.0.0, SVG Export Plug-In . SVG Version: 6.00 Build 43363)  -->
<!DOCTYPE svg PUBLIC "-//W3C//DTD SVG 1.1//EN" "http://www.w3.org/Graphics/SVG/1.1/DTD/svg11.dtd">
<svg version="1.1" id="图层_1" xmlns="http://www.w3.org/2000/svg" xmlns:xlink="http://www.w3.org/1999/xlink" x="0px" y="0px"
	 width="900px" height="600px" viewBox="0 0 900 600" enable-background="new 0 0 900 600" xml:space="preserve">
<rect fill="#E84218" width="900" height="600"/>
<title>资源 145</title>
<path fill="#09142E" d="M449.274,123.895c17.756-1.054,35.41,3.342,50.609,12.599c16.273,9.869,23.359,24.224,21.723,43.844
	c-1.557,17.982-10.354,32.142-20.594,45.638c-15.26,20.167-34.725,36.159-53.917,52.425c-22.852,19.503-46.366,38.228-66.688,60.5
	c-14.008,14.496-25.109,31.552-32.701,50.241c-3.996,11.242-5.419,23.24-4.166,35.106c0.463,3.883,0.632,7.794,0.506,11.702
	c-0.272,4.408-2.686,5.305-6.073,2.535c-19.231-16.266-36.361-33.74-46.444-57.146c-2.117-5.069-3.43-10.438-3.893-15.915
	c-2.764-27.305,8.564-48.914,25.421-69.159c20.01-24.146,43.875-44.936,65.442-67.911c8.223-8.323,15.568-17.473,21.917-27.305
	c2.655-3.902,4.104-8.501,4.166-13.223c0-10.571-4.399-14.862-14.949-15.954c-17.246-1.755-31.417,5.032-44.575,15.057
	c-23.358,17.67-39.592,41.036-54.23,65.805c-3.893,6.319-7.007,12.911-10.55,19.503c-0.491,0.899-1.137,1.705-1.908,2.379
	c-1.012,0.897-2.063,2.418-3.621,1.639c-1.557-0.781-1.362-2.653-0.895-4.135c3.29-13.688,7.758-27.066,13.353-39.982
	c6.425-15.715,15.165-30.375,25.928-43.493c18.384-22.636,42.219-40.208,69.256-51.06c11.656-4.618,23.71-8.157,36.011-10.571
	C428.573,125.008,438.909,123.963,449.274,123.895z"/>
<path fill="#FFFFFF" d="M454.063,475.738c-16.759,1.587-33.636-1.378-48.857-8.582c-19.465-9.479-31.144-28.163-27.251-48.642
	c2.836-13.858,8.729-26.905,17.246-38.188c14.322-18.925,30.943-35.985,49.48-50.788c28.535-23.91,57.422-47.393,82.064-75.439
	c12.413-13.442,21.788-29.408,27.485-46.809c4.602-12.784,5.146-26.681,1.557-39.787c-0.662-1.989-0.974-4.213,1.129-5.539
	c2.102-1.326,4.398,0.429,6.034,1.794c14.8,11.648,27.629,25.609,37.995,41.348c8.37,13.418,14.249,27.89,12.77,43.805
	c-2.147,16.693-8.691,32.512-18.959,45.833c-11.406,16.382-25.771,29.528-39.514,43.688c-18.181,18.527-37.49,35.965-52.828,57.067
	c-4.472,5.085-7.378,11.356-8.371,18.06c-0.505,8.191,6.307,14.589,15.572,15.604c16.001,1.872,29.705-3.511,42.317-12.639
	c24.487-17.709,42.317-41.152,57.11-67.131c3.894-7.1,8.098-14.16,12.225-21.181c0.739-1.327,1.479-3.354,3.62-2.263
	c2.142,1.092,1.519,2.73,1.479,4.369c-0.034,0.611-0.152,1.215-0.351,1.793c-5.026,17.847-11.753,35.168-20.088,51.725
	c-14.686,26.848-36.049,49.435-62.016,65.57c-16.966,10.562-35.491,18.369-54.892,23.132
	C477.697,475.931,465.813,477.018,454.063,475.738L454.063,475.738z"/>
</svg>
