<?xml version="1.0" encoding="utf-8"?>
<!-- Generator: Adobe Illustrator 14.0.0, SVG Export Plug-In . SVG Version: 6.00 Build 43363)  -->
<!DOCTYPE svg PUBLIC "-//W3C//DTD SVG 1.1//EN" "http://www.w3.org/Graphics/SVG/1.1/DTD/svg11.dtd">
<svg version="1.1" id="图层_1" xmlns="http://www.w3.org/2000/svg" xmlns:xlink="http://www.w3.org/1999/xlink" x="0px" y="0px"
	 width="900px" height="600px" viewBox="0 0 900 600" enable-background="new 0 0 900 600" xml:space="preserve">
<rect fill="#344C99" width="900" height="600"/>
<path fill="#45B657" d="M268.602,262.255l0.263-126.713H631.55l-0.408,131.404L523.383,197.12l-77.058,51.195l-73.175-50.473
	L268.602,262.255z"/>
<path fill="#FFFFFF" d="M522.4,263.06l106.799,65.744l0.241,134.795c0,0-146.181,0.25-220.458-0.305
	c58.577-41.913,178.155-121.072,178.155-121.072l-51.437-31.305l-88.299,61.191c0,0-27.037-17.161-41.68-27.215
	C444.289,317.841,522.4,263.06,522.4,263.06L522.4,263.06z M268.648,327.387c33.245-22.304,99.732-64.349,99.732-64.349
	l31.421,17.492l-91.606,61.718l91.439,61.104c0,0-58.908,45.042-81.342,60.719l-0.557,0.387l-49.231-0.943
	C268.505,463.515,268.313,372.745,268.648,327.387L268.648,327.387z"/>
</svg>
