<?xml version="1.0" encoding="utf-8"?>
<!-- Generator: Adobe Illustrator 14.0.0, SVG Export Plug-In . SVG Version: 6.00 Build 43363)  -->
<!DOCTYPE svg PUBLIC "-//W3C//DTD SVG 1.1//EN" "http://www.w3.org/Graphics/SVG/1.1/DTD/svg11.dtd">
<svg version="1.1" id="图层_1" xmlns="http://www.w3.org/2000/svg" xmlns:xlink="http://www.w3.org/1999/xlink" x="0px" y="0px"
	 width="900px" height="600px" viewBox="0 0 900 600" enable-background="new 0 0 900 600" xml:space="preserve">
<path pointer-events="none" fill="#FFFFFF" d="M0,0h900v600H0V0z"/>
<path fill="#03BFD7" d="M281.263,300c0,95.367,75.579,172.737,168.737,172.737S618.737,395.367,618.737,300
	S543.158,127.263,450,127.263C356.842,127.377,281.263,204.633,281.263,300L281.263,300z M551.221,300
	c0,57.197-45.348,103.619-101.221,103.619S348.78,357.197,348.78,300S394.127,196.381,450,196.381S551.221,242.803,551.221,300
	L551.221,300z"/>
<path fill="#03BFD7" d="M618.737,300c0-95.367-75.579-172.737-168.737-172.737S281.263,204.633,281.263,300
	c0-85.854,67.966-155.43,151.83-155.43c83.865,0,151.83,69.576,151.83,155.43c0,66.825-52.85,120.928-118.128,120.928
	c-65.277,0-118.127-54.103-118.127-120.928c0,76.34,60.463,138.121,134.923,138.121C558.273,438.236,618.737,376.34,618.737,300
	L618.737,300z"/>
<path fill="#03BFD7" d="M281.263,300c0,95.367,75.579,172.737,168.737,172.737S618.737,395.481,618.737,300
	c0,85.854-67.965,155.429-151.829,155.429c-83.865,0-151.83-69.575-151.83-155.429c0-66.825,52.849-120.928,118.127-120.928
	c65.277,0,118.127,54.103,118.127,120.928c0-76.339-60.463-138.121-134.922-138.121C341.727,161.879,281.263,223.775,281.263,300
	L281.263,300z"/>
<path fill="#78CFE1" d="M618.737,300c0-95.367-75.579-172.737-168.737-172.737S281.263,204.633,281.263,300
	c0-85.854,67.966-155.43,151.83-155.43c83.865,0,151.83,69.576,151.83,155.43c0,66.825-52.85,120.928-118.128,120.928
	c-65.277,0-118.127-54.103-118.127-120.928c0,76.34,60.463,138.121,134.923,138.121C558.273,438.236,618.737,376.34,618.737,300
	L618.737,300z"/>
<path fill="#08A7BC" d="M281.263,300c0,95.367,75.579,172.737,168.737,172.737S618.737,395.481,618.737,300
	c0,85.854-67.965,155.429-151.829,155.429c-83.865,0-151.83-69.575-151.83-155.429c0-66.825,52.849-120.928,118.127-120.928
	c65.277,0,118.127,54.103,118.127,120.928c0-76.339-60.463-138.121-134.922-138.121C341.727,161.879,281.263,223.775,281.263,300
	L281.263,300z"/>
</svg>
