<svg id="svg" version="1.1" xmlns="http://www.w3.org/2000/svg" xmlns:xlink="http://www.w3.org/1999/xlink" width="400" height="266.6666666666667" viewBox="0, 0, 400,266.6666666666667"><g id="svgg"><path id="path1" d="M132.667 67.532 C 132.378 69.122,132.644 145.818,132.940 146.113 C 133.123 146.297,137.650 146.330,146.750 146.216 C 156.095 146.099,160.201 145.961,160.010 145.770 C 159.582 145.342,159.636 132.628,160.067 132.349 C 160.250 132.230,169.220 132.073,180.000 132.000 L 199.600 131.867 199.733 119.212 L 199.867 106.557 200.533 106.372 C 200.900 106.270,203.568 106.175,206.462 106.160 C 211.687 106.134,211.724 106.129,211.868 105.533 C 211.948 105.203,211.981 96.353,211.940 85.867 L 211.867 66.800 172.346 66.732 L 132.824 66.665 132.667 67.532 " stroke="none" fill="#ce6a6a" fill-rule="evenodd"></path><path id="path2" d="M211.737 105.889 C 211.735 106.121,211.800 106.378,211.882 106.460 C 211.963 106.541,212.020 112.247,212.008 119.139 C 211.988 130.423,212.028 131.687,212.415 131.835 C 212.651 131.926,218.815 132.000,226.114 132.000 L 239.385 132.000 239.532 158.467 C 239.619 174.004,239.580 185.119,239.439 185.384 C 239.290 185.663,239.300 185.897,239.466 186.000 C 239.613 186.090,239.733 186.038,239.733 185.882 C 239.733 185.689,242.735 185.600,249.267 185.600 C 254.510 185.599,263.390 185.520,269.001 185.423 L 279.202 185.247 279.134 145.757 L 279.067 106.267 245.615 106.199 C 219.260 106.146,212.119 106.061,211.953 105.799 C 211.798 105.555,211.740 105.579,211.737 105.889 " stroke="none" fill="#6a85e0" fill-rule="evenodd"></path><path id="path3" d="M168.533 146.070 L 159.600 146.140 159.775 157.803 C 159.872 164.218,160.008 178.767,160.078 190.133 C 160.149 201.500,160.295 211.017,160.404 211.283 C 160.614 211.793,171.998 211.784,224.000 211.232 L 239.600 211.067 239.669 198.697 C 239.723 189.062,239.664 186.238,239.403 185.923 C 239.106 185.565,236.867 185.541,219.915 185.710 C 205.275 185.857,200.674 185.827,200.382 185.585 C 200.057 185.315,200.000 182.378,200.000 165.867 C 200.000 148.929,199.949 146.423,199.599 146.133 C 199.289 145.875,196.742 145.823,188.333 145.900 C 182.356 145.955,173.447 146.031,168.533 146.070 " stroke="none" fill="#70be8c" fill-rule="evenodd"></path><path id="path4" d="M180.000 132.000 C 169.220 132.073,160.250 132.230,160.067 132.349 C 159.525 132.700,159.593 145.419,160.140 145.872 C 160.593 146.248,199.146 146.011,199.538 145.630 C 199.650 145.520,199.710 142.379,199.671 138.649 L 199.600 131.867 180.000 132.000 " stroke="none" fill="#a15444" fill-rule="evenodd"></path><path id="path5" d="M211.434 106.374 C 212.444 107.014,211.286 107.200,206.304 107.200 C 202.669 107.200,201.080 107.293,200.853 107.520 C 200.342 108.032,200.398 131.556,200.912 131.982 C 201.178 132.203,202.811 132.283,206.415 132.249 L 211.539 132.202 211.486 138.561 C 211.452 142.566,211.328 145.045,211.150 145.260 C 210.940 145.514,209.594 145.600,205.850 145.600 C 203.090 145.600,200.776 145.690,200.707 145.800 C 200.495 146.143,210.728 145.881,211.148 145.533 C 211.937 144.878,211.998 143.453,212.009 125.311 C 212.021 106.807,211.999 106.130,211.384 106.137 C 211.175 106.140,211.193 106.221,211.434 106.374 " stroke="none" fill="#5954b0" fill-rule="evenodd"></path><path id="path6" d="M212.106 132.133 C 212.054 132.280,211.980 135.178,211.940 138.573 C 211.845 146.561,212.416 145.867,205.941 145.867 C 203.067 145.867,200.818 145.981,200.516 146.143 C 199.824 146.513,199.692 185.013,200.381 185.584 C 200.921 186.032,239.386 185.662,239.560 185.208 C 239.625 185.038,239.613 172.998,239.532 158.454 L 239.385 132.009 225.792 131.938 C 216.905 131.891,212.166 131.959,212.106 132.133 " stroke="none" fill="#3a6fbb" fill-rule="evenodd"></path><path id="path7" d="M200.615 106.403 C 199.733 106.758,199.727 106.895,199.661 127.267 C 199.604 144.830,199.631 146.133,200.051 146.133 C 200.299 146.133,200.576 146.013,200.667 145.867 C 200.767 145.704,202.792 145.600,205.850 145.600 C 209.594 145.600,210.940 145.514,211.150 145.260 C 211.328 145.045,211.452 142.566,211.486 138.561 L 211.539 132.202 206.415 132.249 C 202.811 132.283,201.178 132.203,200.912 131.982 C 200.398 131.556,200.342 108.032,200.853 107.520 C 201.080 107.293,202.669 107.200,206.304 107.200 C 211.286 107.200,212.444 107.014,211.434 106.374 C 210.955 106.071,201.377 106.096,200.615 106.403 " stroke="none" fill="#534c98" fill-rule="evenodd"></path><path id="path0" d="M0.000 133.333 L 0.000 266.667 200.000 266.667 L 400.000 266.667 400.000 133.333 L 400.000 0.000 200.000 0.000 L 0.000 0.000 0.000 133.333 M211.935 86.466 L 212.003 106.131 245.535 106.199 L 279.067 106.267 279.134 145.757 L 279.202 185.247 269.001 185.423 C 263.390 185.520,254.511 185.599,249.269 185.600 L 239.739 185.600 239.669 198.333 L 239.600 211.067 224.000 211.232 C 171.998 211.784,160.614 211.793,160.404 211.283 C 160.295 211.017,160.148 201.500,160.078 190.133 C 160.007 178.767,159.871 164.247,159.775 157.867 L 159.600 146.267 146.267 146.267 L 132.933 146.267 132.757 144.933 C 132.535 143.262,132.482 68.086,132.702 67.266 L 132.863 66.665 172.365 66.732 L 211.867 66.800 211.935 86.466 " stroke="none" fill="#ffffff" fill-rule="evenodd"></path><path id="path1" d="M132.667 67.532 C 132.378 69.122,132.644 145.818,132.940 146.113 C 133.123 146.297,137.650 146.330,146.750 146.216 C 156.095 146.099,160.201 145.961,160.010 145.770 C 159.582 145.342,159.636 132.628,160.067 132.349 C 160.250 132.230,169.220 132.073,180.000 132.000 L 199.600 131.867 199.733 119.212 L 199.867 106.557 200.533 106.372 C 200.900 106.270,203.568 106.175,206.462 106.160 C 211.687 106.134,211.724 106.129,211.868 105.533 C 211.948 105.203,211.981 96.353,211.940 85.867 L 211.867 66.800 172.346 66.732 L 132.824 66.665 132.667 67.532 " stroke="none" fill="#ce6a6a" fill-rule="evenodd"></path><path id="path2" d="M211.737 105.889 C 211.735 106.121,211.800 106.378,211.882 106.460 C 211.963 106.541,212.020 112.247,212.008 119.139 C 211.988 130.423,212.028 131.687,212.415 131.835 C 212.651 131.926,218.815 132.000,226.114 132.000 L 239.385 132.000 239.532 158.467 C 239.619 174.004,239.580 185.119,239.439 185.384 C 239.290 185.663,239.300 185.897,239.466 186.000 C 239.613 186.090,239.733 186.038,239.733 185.882 C 239.733 185.689,242.735 185.600,249.267 185.600 C 254.510 185.599,263.390 185.520,269.001 185.423 L 279.202 185.247 279.134 145.757 L 279.067 106.267 245.615 106.199 C 219.260 106.146,212.119 106.061,211.953 105.799 C 211.798 105.555,211.740 105.579,211.737 105.889 " stroke="none" fill="#6a85e0" fill-rule="evenodd"></path><path id="path3" d="M168.533 146.070 L 159.600 146.140 159.775 157.803 C 159.872 164.218,160.008 178.767,160.078 190.133 C 160.149 201.500,160.295 211.017,160.404 211.283 C 160.614 211.793,171.998 211.784,224.000 211.232 L 239.600 211.067 239.669 198.697 C 239.723 189.062,239.664 186.238,239.403 185.923 C 239.106 185.565,236.867 185.541,219.915 185.710 C 205.275 185.857,200.674 185.827,200.382 185.585 C 200.057 185.315,200.000 182.378,200.000 165.867 C 200.000 148.929,199.949 146.423,199.599 146.133 C 199.289 145.875,196.742 145.823,188.333 145.900 C 182.356 145.955,173.447 146.031,168.533 146.070 " stroke="none" fill="#70be8c" fill-rule="evenodd"></path><path id="path4" d="M180.000 132.000 C 169.220 132.073,160.250 132.230,160.067 132.349 C 159.525 132.700,159.593 145.419,160.140 145.872 C 160.593 146.248,199.146 146.011,199.538 145.630 C 199.650 145.520,199.710 142.379,199.671 138.649 L 199.600 131.867 180.000 132.000 " stroke="none" fill="#a15444" fill-rule="evenodd"></path><path id="path5" d="M211.434 106.374 C 212.444 107.014,211.286 107.200,206.304 107.200 C 202.669 107.200,201.080 107.293,200.853 107.520 C 200.342 108.032,200.398 131.556,200.912 131.982 C 201.178 132.203,202.811 132.283,206.415 132.249 L 211.539 132.202 211.486 138.561 C 211.452 142.566,211.328 145.045,211.150 145.260 C 210.940 145.514,209.594 145.600,205.850 145.600 C 203.090 145.600,200.776 145.690,200.707 145.800 C 200.495 146.143,210.728 145.881,211.148 145.533 C 211.937 144.878,211.998 143.453,212.009 125.311 C 212.021 106.807,211.999 106.130,211.384 106.137 C 211.175 106.140,211.193 106.221,211.434 106.374 " stroke="none" fill="#5954b0" fill-rule="evenodd"></path><path id="path6" d="M212.106 132.133 C 212.054 132.280,211.980 135.178,211.940 138.573 C 211.845 146.561,212.416 145.867,205.941 145.867 C 203.067 145.867,200.818 145.981,200.516 146.143 C 199.824 146.513,199.692 185.013,200.381 185.584 C 200.921 186.032,239.386 185.662,239.560 185.208 C 239.625 185.038,239.613 172.998,239.532 158.454 L 239.385 132.009 225.792 131.938 C 216.905 131.891,212.166 131.959,212.106 132.133 " stroke="none" fill="#3a6fbb" fill-rule="evenodd"></path><path id="path7" d="M200.615 106.403 C 199.733 106.758,199.727 106.895,199.661 127.267 C 199.604 144.830,199.631 146.133,200.051 146.133 C 200.299 146.133,200.576 146.013,200.667 145.867 C 200.767 145.704,202.792 145.600,205.850 145.600 C 209.594 145.600,210.940 145.514,211.150 145.260 C 211.328 145.045,211.452 142.566,211.486 138.561 L 211.539 132.202 206.415 132.249 C 202.811 132.283,201.178 132.203,200.912 131.982 C 200.398 131.556,200.342 108.032,200.853 107.520 C 201.080 107.293,202.669 107.200,206.304 107.200 C 211.286 107.200,212.444 107.014,211.434 106.374 C 210.955 106.071,201.377 106.096,200.615 106.403 " stroke="none" fill="#534c98" fill-rule="evenodd"></path><path id="path0" d="M0.000 133.333 L 0.000 266.667 200.000 266.667 L 400.000 266.667 400.000 133.333 L 400.000 0.000 200.000 0.000 L 0.000 0.000 0.000 133.333 M211.935 86.466 L 212.003 106.131 245.535 106.199 L 279.067 106.267 279.134 145.757 L 279.202 185.247 269.001 185.423 C 263.390 185.520,254.511 185.599,249.269 185.600 L 239.739 185.600 239.669 198.333 L 239.600 211.067 224.000 211.232 C 171.998 211.784,160.614 211.793,160.404 211.283 C 160.295 211.017,160.148 201.500,160.078 190.133 C 160.007 178.767,159.871 164.247,159.775 157.867 L 159.600 146.267 146.267 146.267 L 132.933 146.267 132.757 144.933 C 132.535 143.262,132.482 68.086,132.702 67.266 L 132.863 66.665 172.365 66.732 L 211.867 66.800 211.935 86.466 " stroke="none" fill="#ffffff" fill-rule="evenodd"></path><path id="path1" d="M132.667 67.532 C 132.378 69.122,132.644 145.818,132.940 146.113 C 133.123 146.297,137.650 146.330,146.750 146.216 C 156.095 146.099,160.201 145.961,160.010 145.770 C 159.582 145.342,159.636 132.628,160.067 132.349 C 160.250 132.230,169.220 132.073,180.000 132.000 L 199.600 131.867 199.733 119.212 L 199.867 106.557 200.533 106.372 C 200.900 106.270,203.568 106.175,206.462 106.160 C 211.687 106.134,211.724 106.129,211.868 105.533 C 211.948 105.203,211.981 96.353,211.940 85.867 L 211.867 66.800 172.346 66.732 L 132.824 66.665 132.667 67.532 " stroke="none" fill="#ce6a6a" fill-rule="evenodd"></path><path id="path2" d="M211.737 105.889 C 211.735 106.121,211.800 106.378,211.882 106.460 C 211.963 106.541,212.020 112.247,212.008 119.139 C 211.988 130.423,212.028 131.687,212.415 131.835 C 212.651 131.926,218.815 132.000,226.114 132.000 L 239.385 132.000 239.532 158.467 C 239.619 174.004,239.580 185.119,239.439 185.384 C 239.290 185.663,239.300 185.897,239.466 186.000 C 239.613 186.090,239.733 186.038,239.733 185.882 C 239.733 185.689,242.735 185.600,249.267 185.600 C 254.510 185.599,263.390 185.520,269.001 185.423 L 279.202 185.247 279.134 145.757 L 279.067 106.267 245.615 106.199 C 219.260 106.146,212.119 106.061,211.953 105.799 C 211.798 105.555,211.740 105.579,211.737 105.889 " stroke="none" fill="#6a85e0" fill-rule="evenodd"></path><path id="path3" d="M168.533 146.070 L 159.600 146.140 159.775 157.803 C 159.872 164.218,160.008 178.767,160.078 190.133 C 160.149 201.500,160.295 211.017,160.404 211.283 C 160.614 211.793,171.998 211.784,224.000 211.232 L 239.600 211.067 239.669 198.697 C 239.723 189.062,239.664 186.238,239.403 185.923 C 239.106 185.565,236.867 185.541,219.915 185.710 C 205.275 185.857,200.674 185.827,200.382 185.585 C 200.057 185.315,200.000 182.378,200.000 165.867 C 200.000 148.929,199.949 146.423,199.599 146.133 C 199.289 145.875,196.742 145.823,188.333 145.900 C 182.356 145.955,173.447 146.031,168.533 146.070 " stroke="none" fill="#70be8c" fill-rule="evenodd"></path><path id="path4" d="M180.000 132.000 C 169.220 132.073,160.250 132.230,160.067 132.349 C 159.525 132.700,159.593 145.419,160.140 145.872 C 160.593 146.248,199.146 146.011,199.538 145.630 C 199.650 145.520,199.710 142.379,199.671 138.649 L 199.600 131.867 180.000 132.000 " stroke="none" fill="#a15444" fill-rule="evenodd"></path><path id="path5" d="M211.434 106.374 C 212.444 107.014,211.286 107.200,206.304 107.200 C 202.669 107.200,201.080 107.293,200.853 107.520 C 200.342 108.032,200.398 131.556,200.912 131.982 C 201.178 132.203,202.811 132.283,206.415 132.249 L 211.539 132.202 211.486 138.561 C 211.452 142.566,211.328 145.045,211.150 145.260 C 210.940 145.514,209.594 145.600,205.850 145.600 C 203.090 145.600,200.776 145.690,200.707 145.800 C 200.495 146.143,210.728 145.881,211.148 145.533 C 211.937 144.878,211.998 143.453,212.009 125.311 C 212.021 106.807,211.999 106.130,211.384 106.137 C 211.175 106.140,211.193 106.221,211.434 106.374 " stroke="none" fill="#5954b0" fill-rule="evenodd"></path><path id="path6" d="M212.106 132.133 C 212.054 132.280,211.980 135.178,211.940 138.573 C 211.845 146.561,212.416 145.867,205.941 145.867 C 203.067 145.867,200.818 145.981,200.516 146.143 C 199.824 146.513,199.692 185.013,200.381 185.584 C 200.921 186.032,239.386 185.662,239.560 185.208 C 239.625 185.038,239.613 172.998,239.532 158.454 L 239.385 132.009 225.792 131.938 C 216.905 131.891,212.166 131.959,212.106 132.133 " stroke="none" fill="#3a6fbb" fill-rule="evenodd"></path><path id="path7" d="M200.615 106.403 C 199.733 106.758,199.727 106.895,199.661 127.267 C 199.604 144.830,199.631 146.133,200.051 146.133 C 200.299 146.133,200.576 146.013,200.667 145.867 C 200.767 145.704,202.792 145.600,205.850 145.600 C 209.594 145.600,210.940 145.514,211.150 145.260 C 211.328 145.045,211.452 142.566,211.486 138.561 L 211.539 132.202 206.415 132.249 C 202.811 132.283,201.178 132.203,200.912 131.982 C 200.398 131.556,200.342 108.032,200.853 107.520 C 201.080 107.293,202.669 107.200,206.304 107.200 C 211.286 107.200,212.444 107.014,211.434 106.374 C 210.955 106.071,201.377 106.096,200.615 106.403 " stroke="none" fill="#534c98" fill-rule="evenodd"></path></g></svg>