<?xml version="1.0"?>
<svg width="600" height="400" xmlns="http://www.w3.org/2000/svg" xmlns:svg="http://www.w3.org/2000/svg">
 <g class="layer">
  <title>Layer 1</title>
  <rect fill="#ffffff" height="927" id="svg_8" stroke="#ffffff" width="927" x="-100.33" y="-191.39"/>
  <g id="svg_1">
   <g fill-rule="evenodd" id="svg_2">
    <path d="m309.51,80.25a120.15,120.15 0 0 1 99.74,169.71c-19.58,-54 -144.29,-72.26 -144.29,-126.78c0,-20.7 22.5,-34.43 44.55,-42.93z" fill="#80ba27" id="svg_3"/>
    <path d="m300.01,79.88c2.29,0 4.57,0.07 6.83,0.2c-33.24,10.8 -65.6,30.9 -65.6,56.5c0,60.82 147.52,97 134.49,156.63q-4.28,3.48 -8.88,6.57a73.85,73.85 0 0 0 1.12,-12c0,-59.73 -167.75,-94 -127.71,-167.39c-11.93,8.16 -21.3,23.27 -21.3,37.43c0,51.79 103.73,96.89 103.73,145.31c0,14.08 -10.49,17 -22.68,17a120.11,120.11 0 1 1 0,-240.25z" fill="#003e83" id="svg_4"/>
   </g>
  </g>
  <polyline fill="none" id="svg_7" opacity="0.5" points="-146.33333333333337,305.94500732421875 " stroke="#ffffff" stroke-linecap="round"/>
 </g>
</svg>