<?xml version="1.0" encoding="utf-8"?>
<!-- Generator: Adobe Illustrator 14.0.0, SVG Export Plug-In . SVG Version: 6.00 Build 43363)  -->
<!DOCTYPE svg PUBLIC "-//W3C//DTD SVG 1.1//EN" "http://www.w3.org/Graphics/SVG/1.1/DTD/svg11.dtd">
<svg version="1.1" id="图层_1" xmlns="http://www.w3.org/2000/svg" xmlns:xlink="http://www.w3.org/1999/xlink" x="0px" y="0px"
	 width="900px" height="600px" viewBox="0 0 900 600" enable-background="new 0 0 900 600" xml:space="preserve">
<rect fill="#BF202F" width="900" height="600"/>
<path fill="#FDDD17" d="M539.76,299.89c0,14.714-0.173,29.449,0,44.185c0.444,4.023-1.773,7.864-5.46,9.46
	c-26.743,15.053-53.371,30.313-79.883,45.782c-2.782,1.917-6.459,1.863-9.185-0.137c-26.691-15.482-53.454-30.82-80.288-46.015
	c-3.095-1.289-5.039-4.415-4.843-7.786c0.193-30.599,0.154-61.198,0-91.796c-0.239-2.445,1.064-4.779,3.261-5.839
	c27.786-15.819,55.526-31.708,83.222-47.669c2.055-1.336,4.706-1.29,6.714,0.117c24.891,14.403,49.531,29.314,74.905,42.822
	c9.3,4.925,12.367,10.433,11.576,20.574c-0.965,12.068-0.23,24.272-0.23,36.418L539.76,299.89z"/>
<path fill="#FFFFFF" d="M553.17,300.142v-131.6c0-5.839,0-5.937,5.095-3.056c19.926,11.406,39.864,22.8,59.815,34.18
	c2.219,1.043,3.548,3.381,3.318,5.839c-0.077,62.962-0.077,125.93,0,188.905c0.181,2.731-1.365,5.282-3.858,6.365
	c-19.951,11.354-39.89,22.754-59.815,34.198c-4.496,2.59-4.535,2.57-4.535-2.646L553.17,300.142z M346.865,300.473v131.601
	c0,5.393,0,5.412-4.824,2.668c-19.777-11.329-39.517-22.754-59.353-33.947c-2.761-1.298-4.397-4.224-4.071-7.279
	c0.103-62.287,0.103-124.613,0-186.978c0-3.134,0.463-5.333,3.55-7.085c20.183-11.329,40.211-22.891,60.298-34.355
	c4.341-2.511,4.399-2.511,4.399,2.803V300.473z M360.275,193.729V158.79c-0.301-2.416,0.945-4.758,3.106-5.839
	c27.734-15.793,55.436-31.669,83.104-47.63c2.098-1.479,4.888-1.479,6.985,0c27.669,15.961,55.39,31.844,83.163,47.649
	c2.158,1.091,3.42,3.418,3.164,5.84v69.897c0,5.314-0.115,5.353-4.959,2.588c-26.743-15.318-53.506-30.598-80.172-46.072
	c-2.766-1.945-6.439-1.945-9.203,0c-26.647,15.475-53.43,30.754-80.173,46.072c-4.978,2.861-5.017,2.823-5.017-2.939v-34.472
	V193.729z M360.256,405.894c0-11.679,0.116-23.356,0-35.036c0-4.009,0.579-4.827,4.361-2.627
	c27.014,15.571,54.027,31.007,81.041,46.618c2.598,1.894,6.094,1.939,8.74,0.115c27.014-15.571,54.027-31.144,81.041-46.559
	c4.419-2.531,4.419-2.55,4.438,2.726v69.431c0.309,2.894-1.243,5.663-3.859,6.89c-27.516,15.571-54.967,31.293-82.354,47.163
	c-2.063,1.521-4.853,1.568-6.965,0.117c-27.593-15.884-55.204-31.676-82.835-47.377c-2.462-1.128-3.943-3.708-3.686-6.424
	C360.372,429.252,360.256,417.573,360.256,405.894z"/>
</svg>
