<?xml version="1.0" encoding="utf-8"?>
<!-- Generator: Adobe Illustrator 14.0.0, SVG Export Plug-In . SVG Version: 6.00 Build 43363)  -->
<!DOCTYPE svg PUBLIC "-//W3C//DTD SVG 1.1//EN" "http://www.w3.org/Graphics/SVG/1.1/DTD/svg11.dtd">
<svg version="1.1" id="图层_1" xmlns="http://www.w3.org/2000/svg" xmlns:xlink="http://www.w3.org/1999/xlink" x="0px" y="0px"
	 width="900px" height="600px" viewBox="0 0 900 600" enable-background="new 0 0 900 600" xml:space="preserve">
<rect fill="#01E786" width="900" height="600"/>
<path fill="#FB4516" d="M386.781,381.104L344.302,300l42.479-81.104h0.172l10.267-19.997h-0.138l6.133-11.676h0.034l26.632-51.668
	h-22.084L321.873,300l52.746,101.101h116.688l10.302-19.997H386.781L386.781,381.104z"/>
<path fill="#FFFFFF" d="M353.604,444.448L277.947,300l85.957-164.445h-22.463L255.141,300l86.301,164.445h117.24l10.302-19.997
	H353.604z"/>
<path fill="#FFFFFF" d="M513.598,218.896L556.078,300l-42.48,81.104h-0.653l-10.267,19.997h0.24l-6.098,11.677h-0.172
	l-10.303,19.996h0.173l-6.099,11.676h-0.103l-10.269,19.997h22.152L578.506,300l-53.125-101.101H408.589l-10.302,19.997H513.598
	L513.598,218.896z"/>
<path fill="#008EFA" d="M529.998,187.223L589.255,300l-86.337,164.445h22.463L611.717,300l-69.558-132.773H424.885l-10.267,19.996
	H529.998z"/>
<path fill="#FFCE1C" d="M370.003,412.776L311.125,300l85.957-164.445h-22.463L288.317,300l69.903,132.772h116.757l10.303-19.996
	H370.003L370.003,412.776z"/>
<path fill="#8707D2" d="M441.215,135.555l-10.301,19.997h115.861L622.432,300l-86.336,164.445h22.843L644.86,300l-85.924-164.445
	H441.215z"/>
</svg>
