<?xml version="1.0" encoding="utf-8"?>
<!-- Generator: Adobe Illustrator 14.0.0, SVG Export Plug-In . SVG Version: 6.00 Build 43363)  -->
<!DOCTYPE svg PUBLIC "-//W3C//DTD SVG 1.1//EN" "http://www.w3.org/Graphics/SVG/1.1/DTD/svg11.dtd">
<svg version="1.1" id="图层_1" xmlns="http://www.w3.org/2000/svg" xmlns:xlink="http://www.w3.org/1999/xlink" x="0px" y="0px"
	 width="900px" height="600px" viewBox="0 0 900 600" enable-background="new 0 0 900 600" xml:space="preserve">
<rect fill="#900000" width="900" height="600"/>
<path fill="#FFFFFF" d="M450.561,420.396c-67.018-0.026-121.324-53.939-121.299-120.42c0.027-66.479,54.377-120.351,121.394-120.324
	c60.036,0.024,111.03,43.593,119.95,102.486h30.092c-9.943-82.261-85.23-140.951-168.158-131.086
	c-82.927,9.864-142.091,84.547-132.146,166.809c9.943,82.262,85.23,140.951,168.158,131.087
	c69.252-8.238,123.842-62.39,132.146-131.087h-30.092C561.702,376.81,510.648,420.416,450.561,420.396z"/>
<path fill="#FFFFFF" d="M451.945,385.391l-92.406-170.782h-27.813l-0.588,0.316l92.223,170.465H451.945z M510.412,385.391
	l-92.395-170.782h-28.572l92.395,170.783L510.412,385.391L510.412,385.391z M568.878,385.391l-92.394-170.782h-28.572
	l92.419,170.783L568.878,385.391L568.878,385.391z"/>
</svg>
