<?xml version="1.0" encoding="utf-8"?>
<!-- Generator: Adobe Illustrator 14.0.0, SVG Export Plug-In . SVG Version: 6.00 Build 43363)  -->
<!DOCTYPE svg PUBLIC "-//W3C//DTD SVG 1.1//EN" "http://www.w3.org/Graphics/SVG/1.1/DTD/svg11.dtd">
<svg version="1.1" id="图层_1" xmlns="http://www.w3.org/2000/svg" xmlns:xlink="http://www.w3.org/1999/xlink" x="0px" y="0px"
	 width="900px" height="600px" viewBox="0 0 900 600" enable-background="new 0 0 900 600" xml:space="preserve">
<rect fill="#0072AE" width="900" height="600"/>
<path fill="#FFFFFF" d="M608.711,208.757c-18.254-26.536-55.658-31.19-86.115-29.011c-13.275-26.25-36.207-54.984-69.293-56.897
	c-32.693-1.884-57.275,23.833-71.726,49.008c-1.491,2.59-2.906,5.219-4.246,7.889c-29.952-2.15-66.552,2.268-85.218,27.739
	c-21.139,28.853-5.864,66.423,12.637,92.515c-18.501,26.092-33.776,63.662-12.637,92.515c18.666,25.471,55.255,29.888,85.218,27.738
	c13.265,26.25,36.208,54.985,69.293,56.897c32.694,1.884,57.275-23.833,71.726-49.008c1.491-2.591,2.906-5.221,4.246-7.89
	c30.199,2.17,67.212-2.366,85.672-28.37c20.613-28.971,5.317-65.93-13.163-91.883C613.451,274.233,628.634,237.708,608.711,208.757
	L608.711,208.757z M390.926,202.229c2.556,0.394,5.14,0.838,7.751,1.331c10.101-4.813,20.149-9.733,30.488-14.081
	c-9.513-2.8-19.182-5.084-28.962-6.843c13.471-24.16,30.92-39.03,49.771-39.03c18.853,0,36.302,14.87,49.772,39.03
	c-42.001,7.445-82.136,24.81-117.643,47.263C384.433,220.507,387.379,211.266,390.926,202.229z M449.943,218.736
	c22.565,9.019,44.025,20.38,63.996,33.882l-63.996,35.341l-63.965-35.332c19.957-13.521,41.416-24.887,63.985-33.892H449.943z
	 M375.104,270.664l63.965,35.323v70.672c-22.21-9.773-43.22-21.871-62.646-36.07c-1.829-13.469-2.745-27.036-2.742-40.618
	C373.682,290.011,374.177,280.219,375.104,270.664z M308.388,221.774c-1.144,1.903-2.339,3.895-2.7,4.477l2.71-4.477
	c3.999-6.627,2.062-3.491,0,0c11.564-19.17,39.29-22.187,60.038-21.625c-14.275,38.458-18.429,80.426-15.862,121.003
	c-7.331-6.638-14.216-13.712-20.614-21.181c1.639-1.913,3.339-3.835,5.154-5.749c0.68-10.847,1.236-21.644,2.432-32.422
	c-7.329,6.517-14.262,13.427-20.769,20.698c-15.089-23.252-19.779-45.124-10.389-60.694V221.774z M388.297,390.661
	c-9.451-5.977-18.975-11.833-28.127-18.233c2.204,9.264,4.957,18.399,8.246,27.364c-1.381,0-2.773,0.099-4.123,0.099
	c-18.913,0-42.599-3.362-54.349-19.387c-14.13-19.258-2.628-45.359,8.813-62.98c27.695,31.101,63.666,55.635,101.75,73.738
	c-9.703,2.777-19.584,4.951-29.581,6.508c-0.897-2.307-1.772-4.673-2.628-7.08V390.661z M508.98,397.741
	c-2.556-0.396-5.139-0.839-7.75-1.331c-10.102,4.813-20.16,9.732-30.488,14.08c9.521,2.803,19.201,5.088,28.993,6.845
	c-13.471,24.158-30.92,39.029-49.772,39.029c-18.851,0-36.3-14.842-49.761-39.001c42-7.444,82.155-24.799,117.644-47.271
	c-2.346,9.395-5.307,18.64-8.865,27.678V397.741z M523.492,340.676c-19.439,14.15-40.443,26.217-62.635,35.982v-70.644
	l63.965-35.351C527.096,293.976,526.65,317.459,523.492,340.676z M591.519,378.147c-11.564,19.169-39.29,22.187-60.038,21.625
	c14.286-38.458,18.439-80.505,15.852-121.121c7.35,6.663,14.235,13.778,20.614,21.299c-1.628,1.972-3.329,3.866-5.07,5.779
	c-0.691,10.777-1.248,21.565-2.443,32.304c7.271-6.47,14.152-13.328,20.614-20.54c15.491,24.09,19.346,46.03,10.482,60.704
	L591.519,378.147z M581.058,282.497c-27.706-31.082-63.563-55.645-101.647-73.75c9.701-2.767,19.578-4.932,29.57-6.479
	c0.918,2.307,1.794,4.674,2.648,7.08c9.453,5.986,18.986,11.833,28.139,18.272c-2.202-9.277-4.955-18.426-8.245-27.404
	c1.381,0,2.782-0.098,4.122-0.098c19.295,0,43.814,3.559,55.142,20.54C603.525,239.73,592.096,265.31,581.058,282.497
	L581.058,282.497z"/>
</svg>
