<?xml version="1.0" encoding="utf-8"?>
<!-- Generator: Adobe Illustrator 14.0.0, SVG Export Plug-In . SVG Version: 6.00 Build 43363)  -->
<!DOCTYPE svg PUBLIC "-//W3C//DTD SVG 1.1//EN" "http://www.w3.org/Graphics/SVG/1.1/DTD/svg11.dtd">
<svg version="1.1" id="图层_1" xmlns="http://www.w3.org/2000/svg" xmlns:xlink="http://www.w3.org/1999/xlink" x="0px" y="0px"
	 width="900px" height="600px" viewBox="0 0 900 600" enable-background="new 0 0 900 600" xml:space="preserve">
<rect fill="#C00836" width="900" height="600"/>
<path fill="#FFFFFF" d="M532.084,343.879c1.965,0.011,3.789-1.002,4.791-2.66c0.988-1.666,0.988-3.725,0-5.391l-85.451-145.87
	c-3.33-5.701-9.505-9.229-16.203-9.259l-43.077-0.276l27.721-46.884c2.317-3.91,6.589-6.308,11.2-6.288l39.238,0.242
	c4.553,0.063,8.737,2.462,11.025,6.323l122.223,208.613c3.508,5.916,3.508,13.225,0,19.141l-21.521,36.07l-141.42-0.898
	l27.614-46.159c2.631-4.343,7.426-6.978,12.575-6.91L532.084,343.879z"/>
<path fill="#0BB6B4" d="M402.781,418.887l184.462,0.38c4.575,0.023,8.817-2.347,11.131-6.219l23.493-39.388l27.544,47.023
	c2.325,3.906,2.325,8.738,0,12.645l-19.795,33.168c-2.31,3.882-6.549,6.264-11.13,6.254l-249.167-0.519
	c-4.667,0.054-8.989-2.398-11.271-6.392l-19.337-33.133c-2.311-3.911-2.311-8.735,0-12.646l67.979-113.357l26.946,46.539
	c2.586,4.393,2.586,9.807,0,14.199L402.781,418.887z"/>
<path fill="#F78B28" d="M405.951,263.516l-92.566,156.512c-2.29,3.891-2.29,8.685,0,12.576l23.001,39.663h-55.265
	c-4.611-0.048-8.85-2.495-11.131-6.427l-19.442-33.514c-2.271-3.884-2.271-8.656,0-12.541l123.28-208.44
	c3.379-5.728,9.632-9.236,16.379-9.19h35.469c4.607,0.026,8.852,2.463,11.13,6.392l66.22,114.256l-54.561-0.379
	c-5.16-0.028-9.914-2.755-12.469-7.152L405.951,263.516z"/>
</svg>
