<svg width="600" height="400" xmlns="http://www.w3.org/2000/svg">
 <!-- Created with MK Tools - http://tool.mkblog.cn/svg/ -->

 <g>
  <title>background</title>
  <rect fill="#fff" id="canvas_background" height="402" width="602" y="-1" x="-1"/>
  <g display="none" overflow="visible" y="0" x="0" height="100%" width="100%" id="canvasGrid">
   <rect fill="url(#gridpattern)" stroke-width="0" y="0" x="0" height="100%" width="100%"/>
  </g>
 </g>
 <g>
  <title>Layer 1</title>
  <g stroke="null" id="svg_27">
   <g stroke="null" transform="matrix(1.14569 0 0 1.12207 -287.264 -183.117)" id="svg_14">
    <path stroke="null" id="svg_15" d="m454.90802,267.812195c0,0 6.833008,-52.667007 66.834045,-49.999985c0,0 46.33197,5.175995 47.998962,52.504013c0,0 44.666992,-16.000015 66.167053,36.746002c0,0 16.5,49.583984 -31.167053,71.916992c0,0 22,32 -4.998962,61.498016c0,0 -34.335022,46.501953 -83.001038,10.501984c0,0 -4.665955,-4.333008 -8.665955,-2c0,0 -21.334045,29.499969 -61.667023,8.832977c0,0 -53,-23.665985 -26,-81c0,0 -45.667023,-14.5 -31,-67.5c0,0 13.499969,-49.999969 65.499969,-41.5z" fill="#F4F0ED"/>
    <path stroke="null" id="svg_16" d="m532.075073,237.645187c0,0 -40.334045,-4.332977 -48.667023,26.667038c0,0 14.998993,-3.333008 16.667023,9.666992c0,0 1,13.332977 -12.667023,16.332977c0,0 -20.333008,0.79303 -20,-26.436981c0,0 2,-32.564011 41.000031,-40.897018c0,0 52.666992,-9 59,50.667007c0,0 31.998962,-13.994995 55.332947,16.669006c0,0 -29.33197,-27.001984 -55.665955,-9.669006c0,0 -4.999023,-45.667007 -51,-48.332993c0,0 -38.334045,0.332977 -42.000031,37.332993c0,0 0.083008,13.791992 12.583008,11.666992c0,0 8.580994,-2.905975 2.75,-10.249969c0,0 -2.333008,-1.750031 -2.833008,-0.333008c0,0 -0.229004,1.270996 1.427002,3.36499c0,0 1.5,3.531006 -2.531006,4.906006c0,0 -2.5,0.781006 -5.353973,-2.770996c0,0 -3.208008,-3.604004 -3.208008,-8.291016c0,0 0.25,-14.625015 11.25,-22.375015c-0.001007,-0.000977 18.583008,-15.333984 43.916016,-7.917999z" fill="#E23B9A"/>
    <linearGradient stroke="null" gradientTransform="translate(-0.0000133185 0) translate(-16.511 0) translate(0 -0.0000135988) translate(0 -47.9907) translate(374.986 0) translate(0 251.506)" y2="0.043585" x2="0.46203" y1="1.290772" x1="0.714914" id="svg_11">
     <stop stroke="null" stop-color="#56D8FC" offset="0"/>
     <stop stroke="null" stop-color="#E854A2" offset="1"/>
    </linearGradient>
    <path stroke="null" id="svg_17" d="m623.934082,332.9552c0,0 -8.260986,-39.714996 -40.322021,-38.126984c0,0 7.778015,13.251007 -4.08197,18.82901c0,0 -12.382996,5.04599 -19.435059,-7.039001c0,0 -6.997986,-19.108002 19.019043,-27.151001c0,0 31.604004,-8.097015 51.510986,26.459991c0,0 24.737,47.358002 -30.10199,71.707977c0,0 23.145996,26.154022 1.128967,57.778015c0,0 16.689026,-36.208008 -7.893005,-55.945984c0,0 41.925049,-18.781006 30.337036,-63.377991c0,0 -12.08905,-36.380005 -48.427002,-28.507019c0,0 -13.099976,4.315002 -7.238037,15.558014c0,0 5.400024,7.274994 10.59906,-0.529999c0,0 0.948975,-2.757996 -0.55304,-2.799011c0,0 -1.280029,0.171997 -2.763977,2.391998c0,0 -2.898987,2.511993 -5.445984,-0.902008c0,0 -1.512024,-2.139984 0.992981,-5.945984c0,0 2.442993,-4.160004 6.904968,-5.600006c0,0 13.994995,-4.251984 24.748047,3.835999c-0.000061,0 20.29895,12.97699 21.020996,39.363983z" fill="url(#svg_11)"/>
    <path stroke="null" id="svg_18" d="m413.899048,295.691223c0,0 -16.486023,37.063995 10.468994,54.497986c0,0 1.424011,-15.299011 14.309998,-12.901978c0,0 12.998993,3.133972 11.665009,17.062988c0,0 -5.47702,19.597015 -31.292999,10.936005c0,0 -30.384003,-11.884003 -26.364014,-51.560028c0,0 7.574005,-52.890991 66.309998,-40.633972c0,0 -3.515015,-34.749039 32.824005,-47.562027c0,0 -34.69101,19.644989 -26.261993,50.023026c0,0 -45.002014,-9.236023 -61.639008,33.734009c0,0 -11.429993,36.59198 22.665985,51.419983c0,0 13.153015,4.147003 14.961029,-8.402008c0,0 -0.136017,-9.05899 -8.914032,-5.76001c0,0 -2.379974,1.684998 -1.185974,2.595001c0,0 1.140991,0.606995 3.640991,-0.326996c0,0 3.820984,-0.345001 3.894989,3.912994c0,0 -0.021973,2.620026 -4.278992,4.248016c0,0 -4.414001,1.949982 -8.875,0.513c0,0 -13.845001,-4.720001 -17.850983,-17.56601c-0.001007,0 -8.901001,-22.388 5.921997,-44.22998z" fill="#E23B9A"/>
    <linearGradient stroke="null" gradientTransform="translate(-0.0000133185 0) translate(-16.511 0) translate(0 -0.0000135988) translate(0 -47.9907) translate(374.986 0) translate(0 251.506)" y2="0.062761" x2="0.491334" y1="1.203544" x1="0.512568" id="svg_10">
     <stop stroke="null" stop-color="#569FFC" offset="0"/>
     <stop stroke="null" stop-color="#549FFB" offset="0"/>
     <stop stroke="null" stop-color="#4DA0F6" offset="0"/>
     <stop stroke="null" stop-color="#42A2EE" offset="0"/>
     <stop stroke="null" stop-color="#31A5E2" offset="0"/>
     <stop stroke="null" stop-color="#26A7DB" offset="0"/>
     <stop stroke="null" stop-color="#28A6DA" offset="0.3814"/>
     <stop stroke="null" stop-color="#2FA3D8" offset="0.5244"/>
     <stop stroke="null" stop-color="#3B9ED5" offset="0.6274"/>
     <stop stroke="null" stop-color="#4C97D0" offset="0.7111"/>
     <stop stroke="null" stop-color="#628DC9" offset="0.7831"/>
     <stop stroke="null" stop-color="#7E82C1" offset="0.847"/>
     <stop stroke="null" stop-color="#9E74B8" offset="0.9051"/>
     <stop stroke="null" stop-color="#C364AD" offset="0.9568"/>
     <stop stroke="null" stop-color="#E854A2" offset="1"/>
    </linearGradient>
    <path stroke="null" id="svg_19" d="m579.90802,394.812195c0,0 -7.250977,3.667023 -8.416992,-4c0,0 -0.33197,-7.5 9.084045,-7c0,0 8.248962,0.581024 12.665955,10.581024c0,0 10.166992,23.418976 -8.833008,42.418976c0,0 -23.75,31.25 -64.5,5.5c0,0 -25.749969,-23.249969 -47.499969,-19.75l-9.750031,11.25c0,0 29.500031,-6.749969 54.25,15c0,0 43.5,32 76,-6.5c0,0 24.500061,-33.75 0.5,-59.75c0,0 -18.5,-15.437988 -30,2c0,0 -6.625,16.125031 10.269043,19.233002c0,0 6.855957,1.142029 10.730957,-5.483002c0,0 2,-0.624969 3.25,2.750031c0,0 5.375,7.374969 1.25,25.749969c0,0 10.984009,-21.026978 -1.25,-35.749969c0,0 -8.25,-8.813019 -12.625,-2.250031c0,0 -2.062988,4.375031 4.875,6z" fill="url(#svg_10)"/>
    <path stroke="null" id="svg_20" d="m497.40802,413.312195l-9.75,7.5c0,0 24.417053,4.5 32.25,14.603027c0,0 14.333008,13.146973 32.5,14.146973c0,0 -18.75,-3.499969 -23.75,-16.25c0,0 -10,-16.249969 -31.25,-20z" fill="#09A4E0"/>
    <path stroke="null" id="svg_21" d="m527.65802,413.312195l-10,5.460022c0,0 17.509033,10.593018 23,19.789978c0,0 19.5,15.500031 37.25,0c0,0 -24,17.139038 -35,-9.180969c0,0 -2.75,-9.319 -15.25,-16.069031z" fill="#0FA0E6"/>
    <linearGradient stroke="null" gradientTransform="translate(-0.0000133185 0) translate(-16.511 0) translate(0 -0.0000135988) translate(0 -47.9907) translate(374.986 0) translate(0 251.506)" y2="0.204185" x2="0.392352" y1="1.134526" x1="0.743086" id="svg_9">
     <stop stroke="null" stop-color="#569FFC" offset="0"/>
     <stop stroke="null" stop-color="#549FFB" offset="0"/>
     <stop stroke="null" stop-color="#4DA0F6" offset="0"/>
     <stop stroke="null" stop-color="#42A2EE" offset="0"/>
     <stop stroke="null" stop-color="#31A5E2" offset="0"/>
     <stop stroke="null" stop-color="#26A7DB" offset="0"/>
     <stop stroke="null" stop-color="#28A6DA" offset="0.3814"/>
     <stop stroke="null" stop-color="#2FA3D8" offset="0.5244"/>
     <stop stroke="null" stop-color="#3B9ED5" offset="0.6274"/>
     <stop stroke="null" stop-color="#4C97D0" offset="0.7111"/>
     <stop stroke="null" stop-color="#628DC9" offset="0.7831"/>
     <stop stroke="null" stop-color="#7E82C1" offset="0.847"/>
     <stop stroke="null" stop-color="#9E74B8" offset="0.9051"/>
     <stop stroke="null" stop-color="#C364AD" offset="0.9568"/>
     <stop stroke="null" stop-color="#E854A2" offset="1"/>
    </linearGradient>
    <path stroke="null" id="svg_22" d="m390.074036,329.312195c0,0 -1.666992,37 34.333008,45.333008c0,0 -27.333008,42.166992 13.332977,74.916992c0,0 30.334015,18.083008 60.667023,-4.110992l-6.588989,-5.471985c0,0 -32.744019,27.332001 -63.744019,-15.334015c0,0 -14.687988,-24.30899 1.333008,-54c0.001007,0 -31,-0.333008 -39.333008,-41.333008z" fill="url(#svg_9)"/>
    <path stroke="null" id="svg_23" d="m482.075043,437.308228l7,1.665985c0,0 -30.334015,20 -56.666992,-13c0,0 20.666992,22.667999 49.666992,11.334015z" fill="#26A7DB"/>
    <path stroke="null" id="svg_24" d="m457.408051,458.30722c0,0 28.666992,6.287018 43.332977,-12.856018l3.666992,2.523041c0,-0.000031 -13.666992,19 -46.999969,10.332977z" fill="#26A7DB"/>
    <linearGradient stroke="null" gradientTransform="translate(-0.0000133185 0) translate(-16.511 0) translate(0 -0.0000135988) translate(0 -47.9907) translate(374.986 0) translate(0 251.506)" y2="-0.005552" x2="0.499443" y1="0.96597" x1="0.502894" id="svg_8">
     <stop stroke="null" stop-color="#569FFC" offset="0"/>
     <stop stroke="null" stop-color="#549FFB" offset="0"/>
     <stop stroke="null" stop-color="#4DA0F6" offset="0"/>
     <stop stroke="null" stop-color="#42A2EE" offset="0"/>
     <stop stroke="null" stop-color="#31A5E2" offset="0"/>
     <stop stroke="null" stop-color="#26A7DB" offset="0"/>
     <stop stroke="null" stop-color="#4D96D0" offset="0.0436"/>
     <stop stroke="null" stop-color="#7187C5" offset="0.0935"/>
     <stop stroke="null" stop-color="#9179BB" offset="0.1496"/>
     <stop stroke="null" stop-color="#AD6DB3" offset="0.2116"/>
     <stop stroke="null" stop-color="#C364AD" offset="0.2816"/>
     <stop stroke="null" stop-color="#D45DA8" offset="0.3634"/>
     <stop stroke="null" stop-color="#DF58A5" offset="0.4645"/>
     <stop stroke="null" stop-color="#E655A3" offset="0.6063"/>
     <stop stroke="null" stop-color="#E854A2" offset="1"/>
    </linearGradient>
    <path stroke="null" id="svg_25" d="m458.90802,306.062225c0,0 1.250031,2.749969 1.125031,5c0,0 -12.846008,2.125 -15.798004,8.875c0,0 -1.701996,3.624969 1.298004,11.374969c0,0 -1.298004,-7.5 7.749969,-7.624969c0,0 4.688019,-0.375031 8.625,6.375c0,0 1.313019,1.875 4.063019,1.249969c0,0 1.75,-0.249969 3.625,-2c0,0 -0.5,-4.75 2.375,-5.187988c0,0 7,-1.562988 10,8.813019c0,0 2.937988,9.541992 -9.395996,22.208984c0,0 -18.416992,29.415985 23.582977,40.415985c0,0 4.25,1 5,5.25c0,0 -4.082947,2.166016 -6.416992,0c0,0 -9.833008,-2.665985 -10,6.167023c0,0 -0.665985,6.998993 8.334015,6.332977c0,0 4.832977,-1.33197 3.665985,-6.165985c0,0 2.501038,-2.666992 8.834045,-0.166992c0,0 17.5,6 17.5,-7.5c0,0 -5.833008,-0.666016 -1.833008,-4.333008c0,0 26.165955,-8.334015 26.540955,-31.584015c0,0 -0.625,-28.499969 34.375,-30.499969l6.5,-16c0,0 -36,2.749969 -47,23.499969c0,0 -1.75,0 -5.5,20.25c0,0 -1.25,19.75 -14.5,19.250031c0,0 -1.75,-1.500031 3.25,-5.250031c0,0 14.289001,-9.749969 8.39502,-40.5c0,0 -1.727966,18 -14.062012,16.5c0,0 -11.5,-8 -0.5,-19.166992c0,0 6.834045,-6.666992 20.334045,-5.333008c0,0 22.5,-2.500977 16.332947,-22.834991c0,0 -0.500977,9.999023 -26.333984,11.498993c0,0 -23.333008,1.494019 -27.498962,15.994019c0,0 -4,20.397003 1.5,27.446991c0,0 4.762939,5.883026 13.130981,1.382996c0,0 2.464966,1.333008 0,6.833008c0,0 -15.465027,14.888 -25.798004,-8.21701c0,0 20.332977,-39.10498 -15.667023,-47.437988c0,0 -8.582977,1.833008 -9.332977,-3.666992l-0.25,-3l-6.250031,1.751007z" fill="url(#svg_8)"/>
    <ellipse stroke="null" id="svg_26" ry="2.386" rx="3.313" cy="250.744871" cx="540.910031" fill="#FFFFFF" transform="matrix(0.9185 0.3953 -0.3953 0.9185 91.9253 -35.1098)"/>
   </g>
  </g>
 </g>
</svg>