<svg width="599.9999999999999" height="400" xmlns="http://www.w3.org/2000/svg">
 <!-- Created with Method Draw - http://github.com/duopixel/Method-Draw/ -->

 <g>
  <title>background</title>
  <rect x="-1" y="-1" width="602" height="402" id="canvas_background" fill="#fff"/>
  <g id="canvasGrid" display="none">
   <rect id="svg_1" width="100%" height="100%" x="0" y="0" stroke-width="0" fill="url(#gridpattern)"/>
  </g>
 </g>
 <g>
  <title>Layer 1</title>
  <g stroke="null" id="svg_260">
   <g stroke="null" transform="matrix(10.7353 0 0 10.584 -661.549 -404.897)" id="svg_254">
    <g stroke="null" id="svg_255" fill-rule="evenodd">
     <path stroke="null" id="svg_256" fill="#00706a" d="m96.76265,65.058098l-7.739998,2.770004a2,2 0 0 1 -2.5,-2.75l0.469994,-1l9,-3.200001l1,0.469997a2,2 0 0 1 -0.229996,3.709999zm-9.389999,-1.779999l7.779999,-2.779999l-0.800003,-0.380001l-6.589996,2.359997l-0.379997,0.800003l-0.010002,0zm0.760002,-1.599995l5.419998,-1.940002l-0.790001,-0.390003l-4.25,1.530003l-0.379997,0.800003l0,0zm0.75,-1.600006l0.129997,-0.259998a2,2 0 0 1 2.68,-1l0.260002,0.119999l-3.07,1.139999z"/>
     <path stroke="null" id="svg_257" fill="#806b64" d="m87.852646,59.268097l-1.479996,3.139999c-1,-2.599995 -2.949997,-4.799992 -3.68,-7.799995l4.199997,2.000004a2,2 0 0 1 1,2.679996l-0.040001,-0.020004zm-1.849998,4.020004c-1.099998,-3.23 -3.439995,-5.490005 -4,-9l-0.309998,-0.150002a2.18,2.18 0 0 0 -0.470001,-0.159996c0.529999,4.159996 3.440002,6.719997 4.330002,10.309998l0.459999,-1l-0.010002,0zm-1,1.790001c-0.860001,-4.240005 -4.110001,-6.650002 -4.470001,-11.150002a2.11,2.11 0 0 0 -0.709999,0.230003c0.470001,4.619995 3.900002,7.279999 4.520004,11.379997a2,2 0 0 0 0.659996,-0.459999l0,0zm-1.199997,0.619995c-0.809998,-4.259995 -4,-6.659992 -4.470001,-10.999996a2,2 0 0 0 -0.360001,2l2.690002,7.649998a2,2 0 0 0 1.790001,1.330002l0.349998,0.019997z"/>
     <path stroke="null" id="svg_258" fill="#c7842a" d="m93.76265,49.768097l-2.129997,4.5c2.059998,-1 4.689995,0.120003 6.699997,-1.899998l-0.860001,-2.419998a2,2 0 0 0 -3.709999,-0.180004zm-2.599998,5.580002c2.349998,-1.689995 5.209999,0 7.389999,-2.359997l0.260002,0.719997c-2.360001,2.360001 -5.550003,0.489998 -7.690002,2.590004a2,2 0 0 1 0,-0.950005l0.040001,0zm0.139999,1.550003c2.419998,-2.099998 5.419998,-0.18 7.68,-2.620003l0.259995,0.720001c-2.290001,2.290001 -5.360001,0.590004 -7.5,2.409996a1.9,1.9 0 0 1 -0.439995,-0.540001l0,0.030006zm1,0.899994l5.110001,2.42001a2,2 0 0 0 2.75,-2.500004l-0.75,-2.09c-2.050003,2.220001 -4.779999,0.719997 -7.07,2.139996l-0.040001,0.029999z"/>
     <path stroke="null" id="svg_259" fill="#c3b099" d="m82.362648,49.248104l7.75,-2.780003a2,2 0 0 1 1.870003,0.27l-10.889999,3.899998a2,2 0 0 1 1.269997,-1.389996zm10.090004,-2l-11.410004,4.099995a2.09,2.09 0 0 0 0.150002,0.620003l11.57,-4.16a1.76,1.76 0 0 0 -0.270004,-0.570004l-0.039993,0.010006zm0.269997,1.199993l-11.269997,4a2.25,2.25 0 0 0 0.599998,0.450005l10.5,-3.760002a2.1,2.1 0 0 0 0.169998,-0.690002zm-0.82,0.330002l-8.980003,4.57l4.520004,2.09a2,2 0 0 0 2.68,-1l1.779999,-5.66z"/>
    </g>
   </g>
  </g>
 </g>
</svg>