<?xml version="1.0" encoding="utf-8"?>
<!-- Generator: Adobe Illustrator 14.0.0, SVG Export Plug-In . SVG Version: 6.00 Build 43363)  -->
<!DOCTYPE svg PUBLIC "-//W3C//DTD SVG 1.1//EN" "http://www.w3.org/Graphics/SVG/1.1/DTD/svg11.dtd">
<svg version="1.1" id="图层_1" xmlns="http://www.w3.org/2000/svg" xmlns:xlink="http://www.w3.org/1999/xlink" x="0px" y="0px"
	 width="900px" height="600px" viewBox="0 0 900 600" enable-background="new 0 0 900 600" xml:space="preserve">
<rect fill="#FFFFFF" width="900" height="600"/>
<g>
	<g>
		<path fill="#F39800" d="M461.068,121.718L634,290.789C632.01,198.283,555.76,123.736,461.068,121.718z"/>
		<path fill="#EE7800" d="M634,290.789L461.068,121.718C463.024,214.239,539.293,288.806,634,290.789z"/>
		<path fill="#62C0B4" d="M266,310.613L438.931,479.75C436.942,387.232,360.703,312.666,266,310.613z"/>
		<path fill="#00A1A4" d="M438.931,479.75L266,310.613C267.989,403.131,344.229,477.697,438.931,479.75z"/>
		<path fill="#8476B5" d="M633.453,309.277l-172.932,169.07C555.214,476.331,631.463,401.784,633.453,309.277L633.453,309.277z"/>
		<path fill="#584C9D" d="M460.521,478.348l172.932-169.07C538.762,311.295,462.512,385.842,460.521,478.348z"/>
		<path fill="#00A5E3" d="M438.931,120.25L266,289.387C360.703,287.334,436.942,212.768,438.931,120.25z"/>
		<path fill="#187FC4" d="M266,289.387L438.931,120.25C344.199,122.235,267.919,196.841,266,289.387z"/>
	</g>
</g>
</svg>
