<?xml version="1.0" encoding="utf-8"?>
<!-- Generator: Adobe Illustrator 14.0.0, SVG Export Plug-In . SVG Version: 6.00 Build 43363)  -->
<!DOCTYPE svg PUBLIC "-//W3C//DTD SVG 1.1//EN" "http://www.w3.org/Graphics/SVG/1.1/DTD/svg11.dtd">
<svg version="1.1" id="图层_1" xmlns="http://www.w3.org/2000/svg" xmlns:xlink="http://www.w3.org/1999/xlink" x="0px" y="0px"
	 width="900px" height="600px" viewBox="0 0 900 600" enable-background="new 0 0 900 600" xml:space="preserve">
<rect fill="#FFFFFF" width="900" height="600"/>
<path fill="#208AC9" d="M312.934,415.002c-13.763-14.016-22.758-31.266-29.19-49.525c-23.356-66.354-13.595-127.718,29.92-182.561
	c27.209-34.419,63.038-55.129,105.656-62.491c29.834-5.433,60.542-2.735,89.031,7.821c33.66,12.448,62.029,31.647,83.029,60.904
	c29.062,40.463,42.637,85.936,35.194,136.342c-4.239,31.379-16.495,61.06-35.53,86.05c-1.082,1.231-2.251,2.383-3.498,3.44
	c-3.31-1.012-4.113-4.358-5.815-6.769c-5.386-7.649-10.49-15.47-15.707-23.233c-0.412-0.096-0.563-0.324-0.486-0.707l0.094,0.211
	c-0.161-0.82-0.405-1.623-0.729-2.392c-24.859-44.173-49.726-88.313-74.597-132.421c-12.006-21.264-24.055-42.489-36.146-63.677
	c-1.327-2.333-2.862-6.253-5.91-2.734c-7.145,8.184-12.548,17.994-18.027,27.134c-8.452,14.188-15.146,29.716-23.282,44.191
	c-23.02,40.979-46.47,81.862-69.771,122.745c-1.272,2.219-2.581,4.265-0.841,6.788c-5.61,3.137-7.48,9.18-10.94,13.998
	C321.293,403.777,319.61,411.33,312.934,415.002L312.934,415.002z"/>
<path fill="#0C529F" d="M312.934,415.002c6.677-3.672,8.359-11.225,12.455-16.885c3.479-4.818,5.404-10.861,10.94-13.998
	c5.272-0.114,8.153-4.627,12.248-6.922c31.978-17.938,64.066-35.682,96.025-53.676c4.171-2.353,7.479-1.912,11.428,0.324
	c25.338,14.42,50.677,28.855,76.297,42.721c11.051,5.965,21.393,13.385,33.211,17.84l-0.094-0.211l0.448,0.229v0.479
	c5.218,7.763,10.322,15.584,15.708,23.232c1.702,2.409,2.507,5.735,5.815,6.77c-19.186,25.814-44.375,43.369-73.622,55.071
	c-30.299,12.229-63.362,15.443-95.372,9.273c-41.889-7.802-77.008-28.376-104.479-61.976
	C313.517,416.564,313.177,415.801,312.934,415.002L312.934,415.002z"/>
<path fill="#FCFDFD" d="M565.93,384.904v-0.479l-0.447-0.229C565.369,384.578,565.518,384.809,565.93,384.904z"/>
</svg>
