<?xml version="1.0" encoding="utf-8"?>
<!-- Generator: Adobe Illustrator 14.0.0, SVG Export Plug-In . SVG Version: 6.00 Build 43363)  -->
<!DOCTYPE svg PUBLIC "-//W3C//DTD SVG 1.1//EN" "http://www.w3.org/Graphics/SVG/1.1/DTD/svg11.dtd">
<svg version="1.1" id="图层_1" xmlns="http://www.w3.org/2000/svg" xmlns:xlink="http://www.w3.org/1999/xlink" x="0px" y="0px"
	 width="900px" height="600px" viewBox="0 0 900 600" enable-background="new 0 0 900 600" xml:space="preserve">
<rect fill="#FFFFFF" width="900" height="600"/>
<g>
	<path fill="#97AF09" d="M450.778,424.45c39.554,22.598,71.855,34.616,93.889,34.748c0.238-0.016,0.478-0.016,0.716,0
		c0,0,0.187,0,0.187-0.263c1.961-9.039,2.085-21.713,0.686-37.858c-2.404-24.083-6.397-47.961-11.951-71.461
		C508.534,377.015,480.592,402.05,450.778,424.45z"/>
	<path fill="#BF3CD6" d="M561.005,240.067c-1.587-40.282-7.406-72.443-17.084-93.992c-18.019,7.86-43.568,26.756-76.026,55.675
		C499.892,211.767,531.038,224.584,561.005,240.067z"/>
	<path fill="#00A3D3" d="M361.961,237.055c-43.132,23.646-73.879,46.963-89.221,67.563c13.973,14.541,39.305,30.131,74.688,46.439
		c0-2.881,0.188-5.73,0.218-8.678c0.031-2.947,0.219-6.026,0.343-9.105c2.614,0.492,5.259,0.885,7.936,1.408
		c7.821,1.18,15.913,2.271,24.273,3.275C372.237,304.73,366.147,271.037,361.961,237.055z"/>
	<path fill="#DD2A1B" d="M355.457,344.016c-1.019,24.879-0.312,49.803,2.116,74.572c1.321,15.152,4.404,30.079,9.181,44.441
		c0.107,0.271,0.267,0.517,0.467,0.721h0.342c18.05-5.175,41.701-18.602,69.896-39.496c35.982-26.98,69.526-57.393,100.207-90.849
		c4.264,11.429,7.998,22.401,11.421,32.75c39.834-25.185,66.847-49.453,78.174-70.249c-9.522-12.805-28.382-26.79-55.487-41.625
		c-38.214-20.221-78.245-36.392-119.501-48.274c7.594-9.126,14.917-17.63,21.971-25.512c-42.354-26.625-79.418-41.92-106.555-44.245
		c-3.454,16.637-3.112,42.182,0.249,76.144c4.889,46.281,12.991,92.122,24.242,137.157
		C379.357,347.892,367.117,346.047,355.457,344.016L355.457,344.016z"/>
</g>
</svg>
