<?xml version="1.0" encoding="utf-8" ?>	<!-- Generator: Assembly 2.4 - http://assemblyapp.co -->	<svg version="1.1" xmlns="http://www.w3.org/2000/svg" xmlns:xlink="http://www.w3.org/1999/xlink" width="900.00" height="600.00" viewBox="0 0 900.0 600.0">		<rect x="0" y="0" width="900.00" height="600.00" fill="#24682c" />		<g id="document" transform="scale(0.21994571693366874 0.21994571693366874) translate(2044.9183278852777 1365.3333333333333)">			<path d="M3.90563,647.449 C-26.0235,632.485 -46.5305,623.432 -66.2986,612.162 C-216.868,525.146 -366.144,436.282 -517.823,351.668 C-552.067,336.629 -572.57,301.085 -568.443,263.912 C-566.411,188.535 -571.954,112.789 -566.411,37.781 C-561.238,-26.6961 -578.605,-68.6338 -640.31,-96.346 C-702.016,-124.058 -758.919,-162.855 -825.058,-199.805 C-825.058,24.8486 -825.058,239.526 -823.58,452.355 C-819.84,469.704 -808.705,484.552 -793.097,493 C-540.547,640.244 -287.257,785.086 -34.7067,932.885 C-13.1553,947.768 15.5067,947.173 36.4212,931.407 C112.907,885.404 189.947,840.326 268.28,797.834 C295.194,785.458 311.186,757.266 308.001,727.814 C306.646,439.977 306.646,152.14 308.001,-135.697 C310.811,-166.974 293.547,-196.612 264.954,-209.597 C129.904,-286.267 -4.22328,-364.785 -138.166,-442.748 C-170.681,-461.777 -202.458,-481.915 -241.255,-505.378 C-220.194,-520.527 -207.446,-530.688 -193.405,-539.002 C-142.969,-568.746 -91.2396,-596.274 -41.9119,-627.496 C-16.1042,-645.116 17.9961,-644.598 43.2569,-626.203 C199.554,-533.952 356.774,-443.303 514.918,-354.254 C547.282,-339.176 566.662,-305.371 563.322,-269.824 C562.399,7.29753 562.399,284.419 562.399,561.541 L562.399,625.095 C640.362,580.755 707.056,541.219 775.967,504.269 C808.784,490.17 828.514,456.261 824.556,420.763 C822.339,143.518 822.339,-133.604 824.556,-410.602 C828.5,-453.845 804.729,-494.87 765.252,-512.953 C524.34,-649.297 284.538,-787.673 45.8434,-928.081 C16.8171,-948.242 -21.8332,-947.647 -50.2255,-926.603 C-244.211,-813.537 -439.12,-702.689 -633.659,-589.623 C-692.594,-556.184 -751.159,-520.527 -816.006,-482.284 C-791.988,-467.505 -776.47,-458.267 -760.581,-449.03 C-522.072,-311.208 -284.855,-172.832 -44.6831,-36.4877 C-9.34927,-20.5468 12.06,15.9749 8.70905,54.5931 C6.30733,229.919 7.60056,405.429 7.60056,580.94 C7.60056,598.86 5.75309,616.966 3.90561,647.449 L3.90563,647.449 Z " fill="#ffffff" fill-opacity="1.00" />		</g>	</svg>