<?xml version="1.0" encoding="utf-8" ?>	<!-- Generator: Assembly 2.4 - http://assemblyapp.co -->	<svg version="1.1" xmlns="http://www.w3.org/2000/svg" xmlns:xlink="http://www.w3.org/1999/xlink" width="900.00" height="600.00" viewBox="0 0 900.0 600.0">		<rect x="0" y="0" width="900.00" height="600.00" fill="#ffffff" />		<g id="document" transform="scale(0.21994571693366874 0.21994571693366874) translate(2044.9183278852777 1365.3333333333333)">			<g>				<path d="M-184.642,543.639 L-391.726,663.163 L93.511,943.356 L300.596,823.832 L300.596,245.424 L93.511,126.07 L93.511,704.308 L-184.642,543.639 L-184.642,543.639 Z " fill="#ff5910" fill-opacity="1.00" />				<path d="M378.465,431.766 L378.465,670.814 L863.702,390.621 L863.702,151.743 L362.823,-137.461 L155.908,-17.9371 L656.788,271.097 L378.465,431.766 L378.465,431.766 Z " fill="#ff5910" fill-opacity="1.00" />				<path d="M563.277,-111.788 L770.191,7.56588 L770.191,-552.65 L563.277,-672.174 L62.3974,-382.97 L62.3974,-144.092 L563.277,-433.296 L563.277,-111.788 Z " fill="#ff5910" fill-opacity="1.00" />				<path d="M184.812,-543.639 L391.726,-663.163 L-93.511,-943.356 L-300.425,-823.832 L-300.425,-245.594 L-93.511,-126.07 L-93.511,-704.308 L184.812,-543.639 L184.812,-543.639 Z " fill="#ff5910" fill-opacity="1.00" />				<path d="M-378.465,-431.936 L-378.465,-670.814 L-863.702,-390.621 L-863.702,-151.743 L-362.823,137.461 L-155.908,17.9371 L-656.788,-271.267 L-378.465,-431.936 L-378.465,-431.936 Z " fill="#ff5910" fill-opacity="1.00" />				<path d="M-563.107,111.788 L-770.191,-7.73595 L-770.191,552.65 L-563.107,672.174 L-62.3973,382.97 L-62.3973,143.922 L-563.107,433.126 L-563.107,111.788 L-563.107,111.788 Z " fill="#ff5910" fill-opacity="1.00" />			</g>		</g>	</svg>