<svg width="600" height="400" xmlns="http://www.w3.org/2000/svg">
 <!-- Created with Method Draw - http://github.com/duopixel/Method-Draw/ -->

 <g>
  <title>background</title>
  <rect fill="#fff" id="canvas_background" height="402" width="602" y="-1" x="-1"/>
  <g display="none" overflow="visible" y="0" x="0" height="100%" width="100%" id="canvasGrid">
   <rect fill="url(#gridpattern)" stroke-width="0" y="0" x="0" height="100%" width="100%"/>
  </g>
 </g>
 <g>
  <title>Layer 1</title>
  <rect stroke="#000" id="svg_2" height="588.000314" width="302.000149" y="-77.000163" x="148.999928" stroke-width="0" fill="#9A8AAB"/>
  <g stroke="null" id="svg_8">
   <g stroke="null" transform="matrix(1.86667 0 0 1.9604 -480.001 -339.119)" id="svg_6" fill="#165ba6">
    <path stroke="null" id="svg_7" d="m455.977539,237.130325l-37.720001,0l5.940002,10.290009l6.26001,10.849991l6.339996,10.970001l6.26001,10.850006l6.259979,-10.850006l-6.259979,-10.849976l-6.340027,-10.970016l-0.669983,-1.160004l12.679993,0l0.660004,1.160004l6.269989,10.849991l6.26001,-10.849991l5.940002,-10.290009l-11.880005,0zm-31.649994,32.470016l-0.209991,-0.360016l-6.26001,-10.849976l-12.279999,-21.260025l-12.519989,0l18.539978,32.110001l6.26001,10.850006l0.190002,0.330017l6.149994,10.639984l-6.339996,10.980011l-6.339996,-10.980011l-6.26001,-10.839996l-6.130005,-10.619995l-18.73999,-32.470016l-12.529999,0l24.98999,43.290024l6.150024,10.639984l6.259979,10.850006l6.339996,10.970001l12.52002,0l6.339996,-10.970001l6.259979,-10.850006l-6.259979,-10.839996l-6.130005,-10.619995z"/>
   </g>
  </g>
 </g>
</svg>