<?xml version="1.0" encoding="utf-8"?>
<!-- Generator: Adobe Illustrator 14.0.0, SVG Export Plug-In . SVG Version: 6.00 Build 43363)  -->
<!DOCTYPE svg PUBLIC "-//W3C//DTD SVG 1.1//EN" "http://www.w3.org/Graphics/SVG/1.1/DTD/svg11.dtd">
<svg version="1.1" id="图层_1" xmlns="http://www.w3.org/2000/svg" xmlns:xlink="http://www.w3.org/1999/xlink" x="0px" y="0px"
	 width="900px" height="600px" viewBox="0 0 900 600" enable-background="new 0 0 900 600" xml:space="preserve">
<rect fill="#FFFFFF" width="900" height="600"/>
<g>
	<g>
		
			<linearGradient id="SVGID_1_" gradientUnits="userSpaceOnUse" x1="1209.7578" y1="-1319.2227" x2="1572.8691" y2="-1319.2227" gradientTransform="matrix(-0.0017 -0.7892 -0.7892 0.0017 -665.2534 1417.0516)">
			<stop  offset="0" style="stop-color:#2FC62A"/>
			<stop  offset="1" style="stop-color:#00923D"/>
		</linearGradient>
		<path fill="url(#SVGID_1_)" d="M288.92,347.693l96.156-87.549l-80.652-86.452L183.258,277.932l0.108,52.092
			c0.149,72.069,58.786,130.369,130.966,130.219l205.817-0.43c14.993-0.022,29.869-2.627,43.976-7.697l-87.31-93.617L288.92,347.693
			z"/>
		
			<linearGradient id="SVGID_2_" gradientUnits="userSpaceOnUse" x1="-1551.0605" y1="722.4209" x2="-1187.9492" y2="722.4209" gradientTransform="matrix(0.0017 0.7892 0.7892 -0.0017 -41.4595 1365.1862)">
			<stop  offset="0.23" style="stop-color:#6D1287"/>
			<stop  offset="0.76" style="stop-color:#4E1287"/>
		</linearGradient>
		<path fill="url(#SVGID_2_)" d="M611.09,252.307l-96.146,87.55l80.633,86.451l121.166-104.244l-0.107-52.087
			c-0.141-72.069-58.777-130.368-130.957-130.219l-205.813,0.43c-14.993,0.022-29.869,2.627-43.975,7.697l87.305,93.617
			L611.09,252.307z"/>
	</g>
</g>
</svg>
