<svg width="600" height="400" xmlns="http://www.w3.org/2000/svg">
 <!-- Created with Method Draw - http://github.com/duopixel/Method-Draw/ -->

 <g>
  <title>background</title>
  <rect fill="#fff" id="canvas_background" height="402" width="602" y="-1" x="-1"/>
  <g display="none" overflow="visible" y="0" x="0" height="100%" width="100%" id="canvasGrid">
   <rect fill="url(#gridpattern)" stroke-width="0" y="0" x="0" height="100%" width="100%"/>
  </g>
 </g>
 <g>
  <title>Layer 1</title>
  <g stroke="null" id="svg_40">
   <g stroke="null" transform="matrix(0.154869 0 0 0.150107 -668.654 -398.247)" id="svg_37" fill="#2FA7E0" clip-rule="evenodd" fill-rule="evenodd">
    <path stroke="null" id="svg_38" d="m6254.688965,3229.39502c404.513184,0 732.562988,328.052002 732.562988,732.564941c0,124.512207 -31.143066,241.772949 -85.963867,344.466309c-181.880859,-270.866211 -398.448242,-445.660156 -646.600098,-533.01416c-248.153809,87.354004 -464.74707,262.146973 -646.604004,533.01416c-54.848145,-102.691895 -85.961914,-219.954102 -85.961914,-344.466309c0,-404.512939 328.052734,-732.564941 732.566895,-732.564941l0,0z"/>
    <path stroke="null" id="svg_39" d="m6838.087891,4451.941406c-133.831055,175.94873 -345.355957,289.586914 -583.398926,289.586914c-238.072266,0 -449.598145,-113.638184 -583.431152,-289.586914c123.667969,-40.200195 241.696289,-18.249023 355.834961,46.239746c-31.245117,-354.441895 68.425293,-551.790039 227.596191,-677.743164c159.167969,125.953125 258.812012,323.30127 227.563965,677.743164c114.166016,-64.48877 232.166016,-86.440918 355.834961,-46.239746z"/>
   </g>
  </g>
 </g>
</svg>