<?xml version="1.0" encoding="utf-8"?>
<!-- Generator: Adobe Illustrator 14.0.0, SVG Export Plug-In . SVG Version: 6.00 Build 43363)  -->
<!DOCTYPE svg PUBLIC "-//W3C//DTD SVG 1.1//EN" "http://www.w3.org/Graphics/SVG/1.1/DTD/svg11.dtd">
<svg version="1.1" id="图层_1" xmlns="http://www.w3.org/2000/svg" xmlns:xlink="http://www.w3.org/1999/xlink" x="0px" y="0px"
	 width="900px" height="600px" viewBox="0 0 900 600" enable-background="new 0 0 900 600" xml:space="preserve">
<rect fill="#FFFFFF" width="900" height="600"/>
<g>
	<g>
		<path fill="#1C7EAD" d="M268.395,367.617l0.902,0.874L386.16,254.825l52.273,50.421L269.297,469.333l-0.902-1.457V367.617
			L268.395,367.617z"/>
		<path fill="#676766" d="M268.395,252.202l43.862,42.552l-43.862,42.844V252.202z M268.395,142.325l42.66,41.386l-42.66,41.678
			V142.325z"/>
		<path fill="#1C7EAD" d="M324.875,282.222l43.861-42.552l-42.961-41.094l-43.861,42.552L324.875,282.222z M631.605,364.702
			l-0.901,1.458L513.84,252.202l-52.273,50.712L630.704,466.71l0.901-0.874V364.702z"/>
		<path fill="#676766" d="M631.605,249.579l-43.861,42.552l43.861,42.552V249.579z M631.605,139.994l-42.359,41.386l42.359,41.677
			V139.994z"/>
		<path fill="#1C7EAD" d="M531.445,237.338l42.9-41.619l43.981,42.668l-42.931,41.619L531.445,237.338z"/>
		<path fill="#1C7EAD" d="M509.635,466.71l0.9-0.874L402.984,361.205l47.467-46.633l155.618,151.264l-0.9,0.874H509.635z"/>
		<path fill="#676766" d="M399.98,466.71l40.857-39.638l40.256,39.638H399.98z M296.034,466.71l39.354-38.181l39.656,38.181H296.034
			L296.034,466.71z"/>
		<path fill="#1C7EAD" d="M429.121,415.998l-40.557-39.055l-39.355,38.18l40.557,39.346L429.121,415.998L429.121,415.998z
			 M508.133,130.667l0.9,0.874L401.482,236.172l48.067,46.632l155.318-151.263l-0.901-0.874H508.133z"/>
		<path fill="#676766" d="M399.078,130.667l40.258,39.346l40.557-39.346H399.078z M295.133,130.667l39.355,38.18l39.355-38.18
			H295.133z"/>
		<path fill="#1C7EAD" d="M427.92,181.379l-40.258,39.055l-39.655-38.18l40.558-39.346L427.92,181.379z"/>
	</g>
</g>
</svg>
