<?xml version="1.0" encoding="utf-8"?>
<!-- Generator: Adobe Illustrator 14.0.0, SVG Export Plug-In . SVG Version: 6.00 Build 43363)  -->
<!DOCTYPE svg PUBLIC "-//W3C//DTD SVG 1.1//EN" "http://www.w3.org/Graphics/SVG/1.1/DTD/svg11.dtd">
<svg version="1.1" id="图层_1" xmlns="http://www.w3.org/2000/svg" xmlns:xlink="http://www.w3.org/1999/xlink" x="0px" y="0px"
	 width="900px" height="600px" viewBox="0 0 900 600" enable-background="new 0 0 900 600" xml:space="preserve">
<rect fill="#FFFFFF" width="900" height="600"/>
<g>
	<g>
		<path fill="#DE0051" d="M549.866,329.313v-6.778c-0.269-11.087-2.41-16.16-14.324-29.537l-77.416-86.682v-20.515h17.224
			l76.747,86.098c17.447,20.111,15.93,25.318,15.751,53.868v39.009c0,21.547-6.737,37.887-18.16,47.448
			c0-28.864-0.269-54.227,0-83.091L549.866,329.313z M591.14,302.109v-5.521c0.223-20.38,1.115-22.894-14.412-40.4l-75.899-82.283
			c-12.807-14.319-9.549-13.467-30.878-13.467h-33.152v39.055c0,22.04,0,26.439,14.992,43.049l55.865,62.396
			c21.552,24.016,18.919,28.729,18.919,62.846v33.039c0,21.95-6.604,38.605-18.161,48.256V377.39
			c0-25.587,2.32-29.224-14.502-48.077l-55.998-62.846c-24.987-27.966-20.927-32.769-20.927-70.566v-59.613h66.038
			c16.242,0,18.383-0.673,32.751,14.858l78.31,84.662c18.294,19.796,15.216,24.42,15.216,56.336v32.681
			c-0.759,19.976-7.229,35.148-18.071,44.216v-67.335L591.14,302.109z"/>
		<path fill="#0062A9" d="M350.279,270.956v6.599c0.268,11.088,2.409,16.16,14.323,29.537l77.461,86.638v20.515h-17.536
			l-76.524-86.054c-17.491-20.11-15.929-25.273-15.751-53.867v-37.214c0-21.547,6.737-37.887,18.161-47.448
			c0,28.864,0.268,52.386,0,81.25L350.279,270.956z M309.004,298.114v5.521c-0.223,20.38-1.115,22.894,14.413,40.4l75.855,82.238
			c12.806,14.319,9.548,13.467,30.877,13.467h33.152v-39.054c0-22.041,0-26.44-14.992-43.05l-55.775-62.531
			c-21.552-24.15-18.964-28.64-18.964-62.621v-33.038c0-21.951,6.604-38.561,18.161-48.257v71.464
			c0,25.588-2.32,29.224,14.502,48.077l55.954,62.846c24.987,27.966,20.927,32.77,20.927,70.566v59.569h-66.083
			c-16.242,0-18.384,0.673-32.751-14.859l-78.175-84.616c-18.294-19.797-15.438-24.421-15.438-56.292v-32.68
			c0.759-19.977,7.229-35.148,18.071-44.216v67.334L309.004,298.114z"/>
	</g>
</g>
</svg>
