<?xml version="1.0" encoding="utf-8"?>
<!-- Generator: Adobe Illustrator 14.0.0, SVG Export Plug-In . SVG Version: 6.00 Build 43363)  -->
<!DOCTYPE svg PUBLIC "-//W3C//DTD SVG 1.1//EN" "http://www.w3.org/Graphics/SVG/1.1/DTD/svg11.dtd">
<svg version="1.1" id="图层_1" xmlns="http://www.w3.org/2000/svg" xmlns:xlink="http://www.w3.org/1999/xlink" x="0px" y="0px"
	 width="900px" height="600px" viewBox="0 0 900 600" enable-background="new 0 0 900 600" xml:space="preserve">
<title>资源 159</title>
<rect fill="#5BEBAF" width="900" height="600"/>
<path fill="#FF0069" d="M277.242,477.026v-8.56V278.631c-0.493-5.046,2.144-9.866,6.583-12.035
	c18.582-10.675,36.918-21.854,55.402-32.78c1.588-0.853,3.216-1.625,4.876-2.316c0.244,2.971,0.634,5.287,0.634,7.654v190.389
	c0.343,4.806-2.271,9.317-6.534,11.279c-18.19,10.473-36.138,21.45-54.183,32.226C282.558,474.156,280.606,475.113,277.242,477.026
	L277.242,477.026z"/>
<path fill="#FFFFFF" d="M555.223,349.933v-8.358V152.746c-0.455-5.557,2.536-10.805,7.462-13.092
	c17.508-10.071,34.625-20.494,51.89-30.767c2.193-1.359,4.486-2.518,7.802-4.28c0,3.676,0.391,6.093,0.391,8.51V302.65
	c0.455,5.053-2.222,9.853-6.681,11.984c-18.24,10.373-36.479,21.4-54.718,32.125C559.709,347.768,557.953,348.473,555.223,349.933
	L555.223,349.933z"/>
<path fill="#6691FF" d="M482.948,269.215c-9.754-5.891-18.582-11.027-27.311-16.365c-33.65-20.444-67.154-41.039-100.951-61.231
	c-5.627-2.682-9.008-8.734-8.438-15.106c0.439-20.846,0-41.693,0-62.54c0-2.417,0.293-4.784,0.537-8.51l11.168,6.697
	c40.478,24.438,80.857,48.894,121.141,73.366c3.444,1.598,5.523,5.282,5.17,9.164c-0.439,22.659-0.488,45.319-0.731,68.029
	C483.533,264.28,483.288,265.841,482.948,269.215z"/>
<path fill="#FFA217" d="M553.271,475.516c-7.071-4.229-13.118-7.754-19.165-11.43c-37.211-22.66-74.422-45.319-111.729-67.928
	c-4.212-2.107-6.675-6.73-6.145-11.531c0.438-21.703,0.39-43.456,0.536-65.209c0-2.014,0.244-4.028,0.439-7.049
	c1.975,0.691,3.898,1.533,5.754,2.518c41.259,25.177,82.42,50.354,123.727,75.179c4.85,2.328,7.772,7.539,7.314,13.041
	c-0.39,22.407,0,44.865,0,67.273C553.846,472.104,553.602,473.818,553.271,475.516z"/>
</svg>
