<?xml version="1.0" encoding="utf-8"?>
<!-- Generator: Adobe Illustrator 14.0.0, SVG Export Plug-In . SVG Version: 6.00 Build 43363)  -->
<!DOCTYPE svg PUBLIC "-//W3C//DTD SVG 1.1//EN" "http://www.w3.org/Graphics/SVG/1.1/DTD/svg11.dtd">
<svg version="1.1" id="图层_1" xmlns="http://www.w3.org/2000/svg" xmlns:xlink="http://www.w3.org/1999/xlink" x="0px" y="0px"
	 width="900px" height="600px" viewBox="0 0 900 600" enable-background="new 0 0 900 600" xml:space="preserve">
<rect fill="#FFFFFF" width="900" height="600"/>
<g>
	<path fill="#808080" d="M501.832,474.189c-33.823,10.098-69.841,10.098-103.664,0l51.93-135.703L501.832,474.189z"/>
	<path fill="#00BA2D" d="M440.591,287.588h19.014l62.749-154.206c41.849,18.385,75.257,51.935,93.565,93.959l-153.626,63.209v19.095
		l153.626,63.012c-18.346,41.998-51.743,75.536-93.565,93.96l-62.749-154.272h-19.014l-62.946,154.272
		c-41.848-18.386-75.257-51.936-93.565-93.96l153.561-63.012v-19.095L284.08,227.342c18.308-42.024,51.717-75.574,93.565-93.959
		L440.591,287.588z"/>
	<path fill="#808080" d="M411.61,300.099l-135.07,51.95c-10.055-33.965-10.055-70.133,0-104.098L411.61,300.099z M623.46,247.951
		c10.057,33.965,10.057,70.133,0,104.098l-135.136-51.95L623.46,247.951z M398.168,125.811c33.823-10.098,69.84-10.098,103.664,0
		l-51.733,135.638L398.168,125.811z"/>
</g>
</svg>
