<?xml version="1.0" encoding="utf-8"?>
<!-- Generator: Adobe Illustrator 14.0.0, SVG Export Plug-In . SVG Version: 6.00 Build 43363)  -->
<!DOCTYPE svg PUBLIC "-//W3C//DTD SVG 1.1//EN" "http://www.w3.org/Graphics/SVG/1.1/DTD/svg11.dtd">
<svg version="1.1" id="图层_1" xmlns="http://www.w3.org/2000/svg" xmlns:xlink="http://www.w3.org/1999/xlink" x="0px" y="0px"
	 width="900px" height="600px" viewBox="0 0 900 600" enable-background="new 0 0 900 600" xml:space="preserve">
<rect fill="#FFFFFF" width="900" height="600"/>
<g>
	<path fill="#89C900" d="M589.749,168.159l-53.089,96.375L556.196,300l-53.089,96.375l-53.126,96.375h106.215l53.089-96.375
		L662.41,300l-53.125-96.375L589.749,168.159z"/>
	<path fill="#00315C" d="M450.129,350.616l66.995-121.548L584.23,107.25h-56.069l-72.624,131.841l-72.662,131.84L315.77,492.75
		h56.069L450.129,350.616L450.129,350.616z"/>
	<path fill="#12A8FF" d="M343.804,300l53.089-96.375l53.088-96.375H343.804l-53.089,96.375L237.59,300l53.125,96.375l19.536,35.466
		l53.089-96.374L343.804,300L343.804,300z"/>
</g>
</svg>
