<?xml version="1.0" encoding="utf-8"?>
<!-- Generator: Adobe Illustrator 14.0.0, SVG Export Plug-In . SVG Version: 6.00 Build 43363)  -->
<!DOCTYPE svg PUBLIC "-//W3C//DTD SVG 1.1//EN" "http://www.w3.org/Graphics/SVG/1.1/DTD/svg11.dtd">
<svg version="1.1" id="图层_1" xmlns="http://www.w3.org/2000/svg" xmlns:xlink="http://www.w3.org/1999/xlink" x="0px" y="0px"
	 width="900px" height="600px" viewBox="0 0 900 600" enable-background="new 0 0 900 600" xml:space="preserve">
<rect fill="#17D3BE" width="900" height="600"/>
<g>
	<g>
		<path fill="#FFFFFF" d="M447.358,125.508l-159.229,85.197v9.726l159.229-85.207V125.508z M447.358,145.816l-159.229,85.196v9.727
			l159.229-85.197V145.816z M447.358,166.124l-159.229,85.207v9.716l159.229-85.196V166.124z M447.358,186.441l-159.229,85.196
			v9.716l159.229-85.197V186.441z M447.358,206.749l-159.229,85.197v9.716l159.229-85.196V206.749z M447.358,227.057
			l-159.229,85.195v9.727l159.229-85.207V227.057z M447.358,247.364l-159.229,85.197v9.727l159.229-85.208V247.364z
			 M447.358,267.671l-159.229,85.208v9.715l159.229-85.196V267.671L447.358,267.671z M447.358,287.979l-159.229,85.207v9.717
			l159.229-85.197V287.979L447.358,287.979z"/>
		<path fill="#FFFFFF" d="M457.543,299.414l154.328,83.424V215.99l-154.328-83.424V299.414z"/>
		<path fill="#FFFFFF" d="M452.214,301.978h-0.034l0.012,0.032L452.214,301.978z"/>
		<path fill="#FFFFFF" d="M452.473,307.643l-154.316,83.424l154.316,83.426l154.328-83.426L452.473,307.643L452.473,307.643z"/>
	</g>
</g>
</svg>
