<svg width="599.9999999999999" height="400" xmlns="http://www.w3.org/2000/svg">
 <!-- Created with Method Draw - http://github.com/duopixel/Method-Draw/ -->

 <g>
  <title>background</title>
  <rect fill="#00909e" id="canvas_background" height="402" width="602" y="-1" x="-1"/>
  <g display="none" overflow="visible" y="0" x="0" height="100%" width="100%" id="canvasGrid">
   <rect fill="url(#gridpattern)" stroke-width="0" y="0" x="0" height="100%" width="100%"/>
  </g>
 </g>
 <g>
  <title>Layer 1</title>
  <g stroke="null" id="svg_36">
   <g stroke="null" transform="matrix(0.637681 0 0 0.655988 -848.002 -550.001)" id="svg_29" fill="#00b3be">
    <path stroke="null" fill="#ffffff" id="svg_30" d="m1800.276489,1069.316406c-22.599976,0 -42.900024,10.199951 -56.400024,26.199951c-35.400024,41.800049 -61.699951,34.800049 -87.299927,13.100098c-7.900024,-6.700073 -18.100098,-10.800049 -29.300049,-10.800049c-25.199951,0.099976 -45.5,20.400024 -45.5,45.5s20.300049,45.400024 45.400024,45.400024c11.199951,0 21.400024,-4.099976 29.299927,-10.800049c25.600098,-21.699951 52,-28.599976 87.300049,13.099976c13.599976,16 33.800049,26.200073 56.400024,26.200073c40.799927,0 73.900024,-33.099976 73.900024,-73.900024c0.099976,-40.900024 -33,-74 -73.800049,-74z"/>
    <circle stroke="null" fill="#ffffff" id="svg_31" r="45.400002" cy="1265.716406" cx="1677.876459"/>
    <path stroke="null" fill="#ffffff" id="svg_32" d="m1800.276489,1271.016357c25.099976,0 45.400024,20.300049 45.400024,45.400024c0,25.100098 -20.300049,45.400024 -45.400024,45.400024c-25.099976,0 -45.400024,-20.299927 -45.400024,-45.400024c0,-25.099976 20.300049,-45.400024 45.400024,-45.400024zm90.300049,-37.399902c17.699951,-17.700073 46.5,-17.700073 64.199951,0c17.699951,17.699951 17.699951,46.399902 0,64.199951c-17.699951,17.699951 -46.399902,17.699951 -64.199951,0c-17.700073,-17.800049 -17.700073,-46.5 0,-64.199951z"/>
    <circle stroke="null" fill="#ffffff" id="svg_33" r="45.400002" cy="1143.316406" cx="1973.376459"/>
    <path stroke="null" fill="#ffffff" id="svg_34" d="m1890.576538,1053.016357c-17.700073,-17.699951 -17.700073,-46.5 0,-64.199951c17.699951,-17.699951 46.399902,-17.699951 64.199951,0c17.699951,17.699951 17.699951,46.5 0,64.199951c-17.800049,17.700073 -46.5,17.700073 -64.199951,0zm-90.300049,-37.399902c-25.099976,0 -45.400024,-20.300049 -45.400024,-45.400024c0,-25.099976 20.300049,-45.400024 45.400024,-45.400024c25.099976,0 45.400024,20.300049 45.400024,45.400024c0,25 -20.400024,45.400024 -45.400024,45.400024z"/>
    <circle stroke="null" fill="#ffffff" id="svg_35" r="45.400002" cy="1020.916406" cx="1677.876459"/>
   </g>
  </g>
 </g>
</svg>