<?xml version="1.0" encoding="utf-8"?>
<!-- Generator: Adobe Illustrator 14.0.0, SVG Export Plug-In . SVG Version: 6.00 Build 43363)  -->
<!DOCTYPE svg PUBLIC "-//W3C//DTD SVG 1.1//EN" "http://www.w3.org/Graphics/SVG/1.1/DTD/svg11.dtd">
<svg version="1.1" id="图层_1" xmlns="http://www.w3.org/2000/svg" xmlns:xlink="http://www.w3.org/1999/xlink" x="0px" y="0px"
	 width="900px" height="600px" viewBox="0 0 900 600" enable-background="new 0 0 900 600" xml:space="preserve">
<g>
	<path fill-rule="evenodd" clip-rule="evenodd" fill="#258DB1" d="M449.103,284.064c-10.42-27.589-22.312-53.706-33.008-81.018
		c11.517-27.492,21.399-56.619,35.008-82.019c10.215,27.794,22.04,53.977,33.008,81.019
		C472.861,229.806,462.923,258.876,449.103,284.064z"/>
	<path fill-rule="evenodd" clip-rule="evenodd" fill="#FBD34C" d="M1,0c299.732,0,599.479,0,899.205,0
		c0,200.045,0,400.092,0,600.137c-300.062,0-600.146,0-900.205,0C0,401.087,0,202.052,0,3C-0.086,1.581-0.165,0.168,1,0z
		 M484.11,202.046c-10.968-27.042-22.793-53.224-33.008-81.019c-13.609,25.4-23.491,54.527-35.008,82.019
		c10.696,27.313,22.588,53.429,33.008,81.018C462.923,258.876,472.861,229.806,484.11,202.046z M353.081,266.061
		c-28.009,10.333-53.743,22.941-82.019,33.008c25.829,13.514,54.611,24.073,83.019,35.008c26.335-11.34,52.966-22.385,80.018-33.008
		C409.343,287.149,379.918,277.898,353.081,266.061z M546.124,266.061c-25.915,12.427-55.695,20.988-80.018,35.008
		c27.485,10.523,53.763,22.255,81.019,33.008c27.491-11.517,56.618-21.399,82.019-35.008
		C600.439,289.096,575.049,275.812,546.124,266.061z M484.11,396.09c-11.341-26.335-22.385-52.966-33.008-80.018
		c-14.019,24.656-23.119,54.232-35.008,81.019c11.469,27.539,21.449,56.568,35.008,82.019
		C461.074,450.405,474.359,425.015,484.11,396.09z"/>
	<path fill-rule="evenodd" clip-rule="evenodd" fill="#258DB1" d="M629.144,299.068c-25.4,13.608-54.527,23.491-82.019,35.008
		c-27.256-10.753-53.533-22.484-81.019-33.008c24.322-14.02,54.103-22.581,80.018-35.008
		C575.049,275.812,600.439,289.096,629.144,299.068z"/>
	<path fill-rule="evenodd" clip-rule="evenodd" fill="#258DB1" d="M434.099,301.068c-27.052,10.623-53.683,21.668-80.018,33.008
		c-28.408-10.935-57.19-21.494-83.019-35.008c28.276-10.067,54.01-22.674,82.019-33.008
		C379.918,277.898,409.343,287.149,434.099,301.068z"/>
	<path fill-rule="evenodd" clip-rule="evenodd" fill="#258DB1" d="M451.103,479.109c-13.559-25.45-23.539-54.479-35.008-82.019
		c11.889-26.786,20.989-56.362,35.008-81.019c10.623,27.052,21.667,53.683,33.008,80.018
		C474.359,425.015,461.074,450.405,451.103,479.109z"/>
</g>
</svg>
