<?xml version="1.0" encoding="utf-8"?>
<!-- Generator: Adobe Illustrator 14.0.0, SVG Export Plug-In . SVG Version: 6.00 Build 43363)  -->
<!DOCTYPE svg PUBLIC "-//W3C//DTD SVG 1.1//EN" "http://www.w3.org/Graphics/SVG/1.1/DTD/svg11.dtd">
<svg version="1.1" id="cube" xmlns="http://www.w3.org/2000/svg" xmlns:xlink="http://www.w3.org/1999/xlink" x="0px" y="0px"
	 width="900px" height="600px" viewBox="0 0 900 600" enable-background="new 0 0 900 600" xml:space="preserve">
<rect fill="#FFFFFF" width="900" height="600"/>
<path fill="#231815" d="M535.014,366.335c0-20.687-16.677-37.458-37.232-37.458c-12.959,0-24.351,6.652-31.021,16.738
	c-14.286,20.466-37.898,33.868-64.645,33.868c-43.618,0-78.998-35.595-78.998-79.477s35.38-79.464,78.998-79.464
	c26.721,0,50.321,13.389,64.6,33.829c0.253,0.365,0.545,0.73,0.797,1.095c0.097,0.144,0.182,0.28,0.278,0.404h0.013
	c6.755,9.233,17.615,15.253,29.895,15.253c20.523,0,37.16-16.752,37.16-37.387c0-8.099-2.577-15.572-6.916-21.684l0.059-0.045
	c-27.699-40.038-73.727-66.257-125.892-66.257c-84.683,0-153.318,69.059-153.318,154.25c0,85.178,68.629,154.25,153.318,154.25
	c50.943,0,96.01-25.046,123.871-63.521C531.601,384.182,535.014,375.666,535.014,366.335z"/>
<path fill="#E50012" d="M595.035,243.483c-19.824,0-37.213,10.367-47.212,25.939c-10.718,15.898-28.767,26.336-49.271,26.336
	c-18.911,0-35.77-8.894-46.668-22.733c-9.514-17.592-28.055-29.542-49.369-29.542c-31.021,0-56.175,25.3-56.175,56.53
	c0,31.209,25.147,56.509,56.175,56.509c19.992,0,37.523-10.562,47.477-26.407c10.802-15.279,28.489-25.268,48.553-25.268
	c20.511,0,38.604,10.451,49.329,26.336l0.246-0.098c10.064,15.312,27.291,25.437,46.908,25.437c31.021,0,56.181-25.3,56.181-56.509
	C651.223,268.79,626.057,243.483,595.035,243.483z"/>
</svg>
