<?xml version="1.0" encoding="utf-8"?>
<!-- Generator: Adobe Illustrator 14.0.0, SVG Export Plug-In . SVG Version: 6.00 Build 43363)  -->
<!DOCTYPE svg PUBLIC "-//W3C//DTD SVG 1.1//EN" "http://www.w3.org/Graphics/SVG/1.1/DTD/svg11.dtd">
<svg version="1.1" id="图层_1" xmlns="http://www.w3.org/2000/svg" xmlns:xlink="http://www.w3.org/1999/xlink" x="0px" y="0px"
	 width="900px" height="600px" viewBox="0 0 900 600" enable-background="new 0 0 900 600" xml:space="preserve">
<rect fill="#FFFFFF" width="900" height="600"/>
<path fill="#333333" d="M494.57,134.68c14.787-13.036,38.127-12.443,52.129,1.324c13.465,13.238,13.465,33.967,0,47.205
	l-41.434,38.57l-51.979-48.669L494.57,134.68z M446.809,276.094l-22.6,21.039l-51.904-48.599l22.374-20.828L446.809,276.094z
	 M365.79,351.518l-40.077,37.309c-14.788,13.007-38.103,12.391-52.075-1.376c-13.394-13.196-13.418-33.824-0.055-47.048
	l40.227-37.413L365.79,351.518z M574.384,211.12c14.385-13.372,37.69-13.356,52.056,0.035c14.363,13.392,14.347,35.087-0.038,48.458
	l0,0l-40.076,37.344l-52.281-48.424L574.384,211.12z M527.678,351.377l-22.373,20.828l-52.017-48.389l22.411-20.828L527.678,351.377
	z M446.809,426.8l-41.433,38.57c-14.396,13.399-37.735,13.399-52.13,0c-14.396-13.4-14.396-35.128,0-48.528l41.433-38.57
	L446.809,426.8z"/>
<path fill="#119AD0" d="M353.247,183.209c-14.396-13.439-14.361-35.198,0.076-48.599c14.437-13.401,37.81-13.37,52.205,0.07
	L626.4,340.4c13.91,13.795,13.177,35.475-1.642,48.424c-14.16,12.377-36.215,12.377-50.376,0L353.247,183.209z"/>
<path fill="#D5860F" d="M273.583,259.613c-14.385-13.4-14.376-35.12,0.019-48.511c14.395-13.392,37.726-13.383,52.111,0.017
	l220.986,205.722c14.354,13.4,14.319,35.096-0.075,48.458c-14.396,13.362-37.701,13.331-52.054-0.069l0,0L273.583,259.613z"/>
</svg>
