<svg width="599.9999999999999" height="400" xmlns="http://www.w3.org/2000/svg">
 <!-- Created with Method Draw - http://github.com/duopixel/Method-Draw/ -->

 <g>
  <title>background</title>
  <rect fill="#fff" id="canvas_background" height="402" width="602" y="-1" x="-1"/>
 </g>
 <g>
  <title>Layer 1</title>
  <defs>
   <linearGradient y2="0.136828" x2="0.037181" y1="0.802938" x1="0.96857" id="svg_13">
    <stop stop-color="#e50040" offset="0"/>
    <stop stop-color="#ebf855" offset="1"/>
   </linearGradient>
  </defs>
  <g stroke="null" id="svg_20">
   <g stroke="null" transform="matrix(2.32572 0 0 2.36668 -663.592 -425.014)" id="svg_15" fill-rule="evenodd">
    <path stroke="null" id="svg_16" opacity="0.8" fill="#e9a316" d="m429.730408,216.518967a49.84,49.84 0 0 0 -15.429993,-2.429993c-1.350006,0 -2.690002,0.050003 -4,0.160004a50,50 0 0 0 4,99.840012a50.790001,50.790001 0 0 0 10.309998,-1.059998a50,50 0 0 0 5.119995,-96.510025l0,0zm-15.429993,77.430008a29.860001,29.860001 0 1 1 0,-59.720001l1.26001,0a29.879999,29.879999 0 0 1 27.73999,22.619995a30.280001,30.280001 0 0 1 0.860016,7.23999a29.860001,29.860001 0 0 1 -29.860016,29.860016z"/>
    <path stroke="null" id="svg_17" fill="url(#svg_13)" d="m443.300415,256.848969c-9,-8.940002 -22.48999,-10.089996 -26.48999,-18.160004a12.58,12.58 0 0 1 -1.25,-4.429993c-0.75,-7.98999 5.73999,-16.569992 14.169983,-17.740005a49.84,49.84 0 0 0 -15.429993,-2.429993c-1.350006,0 -2.690002,0.050003 -4,0.160004a49.91,49.91 0 0 0 -10.369995,1.929993a22.16,22.16 0 0 0 -10.119995,30.819992l0.259979,0.450012c5.809998,9.899994 33.460022,11 40,22.160004c3.790009,6.5 -1.089996,15.790009 -6.659973,19.799988c-4.110016,2.940002 -9.280029,4.080017 -14.890015,4a29.9,29.9 0 0 0 34.779999,-36.559998z"/>
    <path stroke="null" id="svg_18" opacity="0.2" fill="#e50040" d="m408.490417,293.388977c-15.190002,-0.299988 -33.640015,-9.630005 -42.5,-16.380005a50,50 0 0 0 48.309998,37.080017a50.790001,50.790001 0 0 0 10.309998,-1.059998c20.869995,-4.600006 31.820007,-26.620026 24.889984,-46.240021a26.09,26.09 0 0 0 -6.199982,-9.940002a30.219999,30.219999 0 0 1 0.860016,7.23999a29.91,29.91 0 0 1 -35.670013,29.300018"/>
    <path stroke="null" id="svg_19" opacity="0.8" fill="#e50040" d="m384.44043,264.088989a29.75,29.75 0 0 1 5.369995,-17.090027a22.16,22.16 0 0 1 10.119995,-30.819992a50.060001,50.060001 0 0 0 -33.940002,60.830002c8.859985,6.75 27.309998,16.080017 42.5,16.380005a29.879999,29.879999 0 0 1 -24,-29.299988"/>
   </g>
  </g>
 </g>
</svg>