<svg width="599.9999999999999" height="400" xmlns="http://www.w3.org/2000/svg">
 <!-- Created with Method Draw - http://github.com/duopixel/Method-Draw/ -->

 <g>
  <title>background</title>
  <rect x="-1" y="-1" width="602" height="402" id="canvas_background" fill="#fff"/>
  <g id="canvasGrid" display="none">
   <rect id="svg_1" width="100%" height="100%" x="0" y="0" stroke-width="0" fill="url(#gridpattern)"/>
  </g>
 </g>
 <g>
  <title>Layer 1</title>
  <g stroke="null" id="svg_195">
   <g stroke="null" transform="matrix(2.47909 0 0 2.50712 -738.678 -478.195)" id="svg_174">
    <g stroke="null" id="svg_175">
     <circle stroke="null" id="svg_176" r="8.667" cy="238.964533" cx="427.91869" fill="#016A37"/>
     <path stroke="null" id="svg_177" d="m454.722687,250.201523c0,4.787018 -3.882996,8.667007 -8.669006,8.667007c-4.785004,0 -8.661987,-3.880997 -8.661987,-8.667007c0,-4.790985 3.876984,-8.666992 8.661987,-8.666992c4.786011,-0.001007 8.669006,3.876007 8.669006,8.666992z" fill="#016A37"/>
     <path stroke="null" id="svg_178" d="m461.462677,269.137543c0,4.786011 -3.875977,8.667999 -8.661987,8.667999c-4.791016,0 -8.671997,-3.881989 -8.671997,-8.667999s3.880981,-8.666992 8.671997,-8.666992c4.78598,0 8.661987,3.880981 8.661987,8.666992z" fill="#016A37"/>
     <circle stroke="null" id="svg_179" r="8.667" cy="289.186533" cx="447.24369" fill="#016A37"/>
     <path stroke="null" id="svg_180" d="m399.409668,243.62352c2.407013,4.13501 7.708008,5.542023 11.848022,3.130005c4.139984,-2.402008 5.541992,-7.708008 3.134979,-11.842987c-2.406982,-4.140015 -7.707977,-5.546021 -11.847992,-3.140015c-4.139008,2.40799 -5.540985,7.71402 -3.13501,11.852997z" fill="#8CC23F"/>
     <path stroke="null" id="svg_181" d="m382.246674,256.222534c2.407013,4.140015 7.709015,5.542023 11.848022,3.13501c4.139984,-2.407013 5.541992,-7.70903 3.134979,-11.852005c-2.406982,-4.13501 -7.708984,-5.538025 -11.847992,-3.131012c-4.139008,2.407013 -5.541992,7.708984 -3.13501,11.848007z" fill="#8CC23F"/>
     <path stroke="null" id="svg_182" d="m377.664673,275.571533c2.407013,4.134003 7.708008,5.535004 11.847992,3.130005c4.144012,-2.401001 5.546021,-7.708008 3.140015,-11.842987c-2.407013,-4.140015 -7.713013,-5.546021 -11.847992,-3.140015c-4.140015,2.406006 -5.546997,7.712006 -3.140015,11.852997z" fill="#8CC23F"/>
     <path stroke="null" id="svg_183" d="m383.924683,294.208527c2.407013,4.13501 7.712982,5.542023 11.847992,3.13501c4.140015,-2.406006 5.541992,-7.713013 3.13501,-11.846985c-2.402008,-4.141022 -7.709015,-5.546997 -11.847992,-3.141022c-4.13501,2.407013 -5.541016,7.71402 -3.13501,11.852997z" fill="#8CC23F"/>
     <path stroke="null" id="svg_184" d="m401.259674,306.404541c2.407013,4.13501 7.713013,5.541992 11.852997,3.139008c4.13501,-2.404999 5.537018,-7.712006 3.13501,-11.851013c-2.407013,-4.140991 -7.712006,-5.541992 -11.85199,-3.136993c-4.13501,2.403992 -5.537018,7.714996 -3.136017,11.848999z" fill="#8CC23F"/>
     <path stroke="null" id="svg_185" d="m422.413696,306.404541c2.406982,4.13501 7.713989,5.541992 11.852997,3.139008c4.134979,-2.404999 5.541992,-7.712006 3.134979,-11.851013c-2.405975,-4.140991 -7.708984,-5.541992 -11.847992,-3.136993c-4.139984,2.403992 -5.542999,7.714996 -3.139984,11.848999z" fill="#016A37"/>
    </g>
    <g stroke="null" id="svg_186">
     <g stroke="null" id="svg_187">
      <path stroke="null" id="svg_188" d="m423.987671,254.566544c2.705017,6.518997 5.70401,12.521988 3.104004,19.582993c-1.61499,4.471008 -5.311005,7.872009 -7.035004,12.300018c-1.166992,-7.834015 -1.53299,-16.253021 0.85202,-23.757996c0.846008,-2.524017 1.470001,-5.858002 3.044006,-8.016037" fill="#8CC23F"/>
      <path stroke="null" id="svg_189" d="m432.958679,256.719543c0.700989,7.024994 1.837006,13.639008 -2.695007,19.647003c-2.84198,3.80899 -7.36499,5.992981 -10.296997,9.734009c1.149017,-7.840027 3.239014,-16.005005 7.694,-22.497009c1.537994,-2.17099 3.098999,-5.179016 5.229004,-6.790009" fill="#22A94B"/>
      <path stroke="null" id="svg_190" d="m441.399689,262.533539c-1.552002,6.88501 -2.569,13.518005 -8.776001,17.782013c-3.895996,2.714996 -8.880005,3.362 -12.843018,5.97699c3.569,-7.06601 8.139008,-14.151001 14.413025,-18.904999c2.14798,-1.574005 4.578003,-3.931 7.115967,-4.786011" fill="#016A37"/>
     </g>
     <g stroke="null" id="svg_191">
      <path stroke="null" id="svg_192" d="m413.899689,254.597519c-2.651001,6.53801 -5.605011,12.567032 -2.945007,19.615036c1.651001,4.451996 5.373993,7.821991 7.134003,12.235992c1.104004,-7.843018 1.39798,-16.266998 -1.044006,-23.753021c-0.863983,-2.515991 -1.510986,-5.844971 -3.108002,-7.988998" fill="#8CC23F"/>
      <path stroke="null" id="svg_193" d="m404.946686,256.823547c-0.647003,7.029999 -1.727997,13.653992 2.859009,19.623993c2.867981,3.786987 7.409973,5.937012 10.368988,9.653992c-1.213013,-7.825989 -3.371002,-15.977997 -7.876007,-22.432983c-1.556976,-2.15802 -3.139984,-5.157013 -5.283997,-6.75" fill="#22A94B"/>
      <path stroke="null" id="svg_194" d="m396.55069,262.704559c1.610992,6.875977 2.682983,13.498993 8.921997,17.714996c3.916992,2.681976 8.906982,3.285004 12.891998,5.871979c-3.628021,-7.039978 -8.251007,-14.087982 -14.567017,-18.787994c-2.161987,-1.556 -4.613983,-3.894989 -7.151978,-4.72699" fill="#016A37"/>
     </g>
    </g>
   </g>
  </g>
 </g>
</svg>