<svg width="599.9999999999999" height="400" xmlns="http://www.w3.org/2000/svg">
 <!-- Created with Method Draw - http://github.com/duopixel/Method-Draw/ -->

 <g>
  <title>background</title>
  <rect x="-1" y="-1" width="602" height="402" id="canvas_background" fill="#fff"/>
  <g id="canvasGrid" display="none">
   <rect id="svg_1" width="100%" height="100%" x="0" y="0" stroke-width="0" fill="url(#gridpattern)"/>
  </g>
 </g>
 <g>
  <title>Layer 1</title>
  <g stroke="null" id="svg_271">
   <g stroke="null" transform="matrix(3.07818 0 0 3.13187 -984.29 -652.634)" id="svg_265">
    <path stroke="null" id="svg_266" d="m418.399872,299.435913c-0.341003,-1.393005 -0.720001,-2.776001 -1.152008,-4.136993c-0.432983,-1.36203 -0.901001,-2.707001 -1.446991,-4.022003c-1.085999,-2.622009 -2.390015,-5.147003 -4.036011,-7.420013c-1.631989,-2.270996 -3.596985,-4.289001 -5.876984,-5.869995c-2.266998,-1.592987 -4.834015,-2.734009 -7.53302,-3.43399c-2.703003,-0.716003 -5.528992,-0.943024 -8.358978,-0.896027c-1.416016,0.026031 -2.835022,0.150024 -4.25,0.324005c-1.412018,0.173004 -2.822998,0.421997 -4.223022,0.723022c-1.403992,0.294983 -2.791992,0.661987 -4.173004,1.066986c-0.487,0.140015 -0.973999,0.298004 -1.460999,0.455994c28.026001,1.601013 41.962006,26.232025 43.872009,29.878998c-0.382996,-2.242004 -0.81601,-4.473999 -1.360992,-6.669983z" fill="#603813"/>
    <path stroke="null" id="svg_267" d="m377.171875,275.275909c1.345978,-0.561005 2.721985,-1.039001 4.113983,-1.468994c2.799011,-0.835022 5.69101,-1.428009 8.638,-1.632019c2.938995,-0.223999 5.938995,-0.031006 8.855011,0.628998c1.460999,0.334015 2.893005,0.81601 4.268982,1.412018c1.376007,0.608002 2.699005,1.353973 3.933014,2.208984c1.233002,0.860016 2.377991,1.848022 3.429993,2.919006c1.044006,1.083008 1.990997,2.242004 2.834015,3.472015c1.686005,2.46698 2.980988,5.154968 3.947998,7.927002c0.487,1.391998 0.912994,2.79599 1.256989,4.214996c0.345001,1.431 0.631012,2.856995 0.865997,4.296997c0.371002,2.385986 0.611023,4.78299 0.707001,7.18399c6.03302,-25.315002 27.605011,-53.430008 39.085999,-65.800034c-26.885986,15.790024 -41.177979,47.050034 -41.177979,47.050034c-0.440002,-19.032013 -11.871002,-24.692993 -11.871002,-24.692993c-18.231018,-10.44902 -29.862,11.414001 -30.721008,13.09198c0.608002,-0.286987 1.213989,-0.556976 1.833008,-0.811981z" fill="#009345"/>
    <path stroke="null" id="svg_268" d="m386.703857,268.358887l2.777008,0c0.447998,0 0.881012,0.065002 1.295013,0.186005c0.061981,-0.710999 0.142975,-1.418976 0.254974,-2.126984c0.545013,-3.492004 1.755005,-6.878998 3.496002,-9.984009c1.755005,-3.098007 4.067017,-5.91301 6.813019,-8.25502c1.380981,-1.16098 2.854004,-2.223999 4.423004,-3.139984c1.569977,-0.921021 3.224976,-1.694 4.941986,-2.335999c3.44101,-1.26001 7.138,-1.925018 10.884003,-1.933014c3.747009,-0.02301 7.528015,0.640991 11.147003,1.933014c1.811005,0.645996 3.569,1.466003 5.259979,2.440002c1.705017,0.955994 3.318024,2.09198 4.864014,3.337982c-5.003998,-6.190979 -12.744995,-10.39798 -21.05899,-11.315002c-4.145996,-0.467987 -8.429993,-0.177979 -12.540009,0.929016c-4.109985,1.097992 -8.039001,2.992981 -11.496002,5.548004c-6.955994,5.084991 -11.955994,12.935013 -13.595001,21.550003c-0.277985,1.425995 -0.453003,2.86499 -0.548981,4.311005c0.836975,-0.713013 1.914978,-1.14502 3.082977,-1.14502z" fill="#009345"/>
    <path stroke="null" id="svg_269" d="m450.865875,261.555908c0.401001,1.949005 0.679993,3.89801 0.740997,5.850983c0.096985,1.953003 0.02301,3.890015 -0.230011,5.796021c-0.496979,3.812988 -1.625,7.485992 -3.350006,10.811981c-3.418976,6.663025 -9.164978,11.908997 -15.842987,14.647003c-3.32901,1.388 -6.882996,2.146027 -10.442993,2.289001c-3.581024,0.124023 -7.138,-0.341003 -10.503021,-1.441986c-6.719971,-2.161011 -12.58197,-6.803009 -16.223999,-12.811005c-1.737,-2.803009 -2.961975,-5.90799 -3.665985,-9.134003c-0.571991,0.252014 -1.207001,0.391998 -1.868011,0.391998l-2.776978,0c-1.048004,0 -2.018005,-0.352997 -2.811005,-0.937988c0.056976,0.418976 0.11499,0.835999 0.184998,1.251007c0.789001,4.328979 2.381989,8.506989 4.67099,12.263977c2.312988,3.743011 5.296997,7.069 8.785004,9.734009c3.496002,2.654999 7.471008,4.687988 11.678009,5.888c8.42099,2.447998 17.664001,1.615997 25.376984,-2.261993c3.855011,-1.922028 7.319,-4.55899 10.166016,-7.71402c2.854004,-3.144989 5.084991,-6.805969 6.55899,-10.718994c2.96701,-7.825012 2.752991,-16.610992 -0.446991,-23.903992z" fill="#603813"/>
    <circle stroke="null" id="svg_270" r="5.684" cy="261.555892" cx="421.423866" fill="#603813"/>
   </g>
  </g>
 </g>
</svg>