<?xml version="1.0" encoding="utf-8"?>
<!-- Generator: Adobe Illustrator 14.0.0, SVG Export Plug-In . SVG Version: 6.00 Build 43363)  -->
<!DOCTYPE svg PUBLIC "-//W3C//DTD SVG 1.1//EN" "http://www.w3.org/Graphics/SVG/1.1/DTD/svg11.dtd">
<svg version="1.1" id="图层_1" xmlns="http://www.w3.org/2000/svg" xmlns:xlink="http://www.w3.org/1999/xlink" x="0px" y="0px"
	 width="900px" height="600px" viewBox="0 0 900 600" enable-background="new 0 0 900 600" xml:space="preserve">
<title>资源 135</title>
<rect fill="#1D98D2" width="900" height="600"/>
<path fill="#FFFFFF" d="M285.763,284.644c5.708,2.415,10.993,5.795,15.638,10.005c26.439,25.344,47.137,55.553,66.438,86.861
	c6.88,12.225,15.093,23.586,24.476,33.857c11.558,11.771,23.645,11.771,34.56-0.705c15.6-17.733,22.663-40.332,31.236-61.949
	c20.283-51.277,39.622-102.986,71.085-148.497c14.438-21.3,31.665-40.407,51.179-56.771c3.523-3.25,7.631-5.744,12.088-7.336
	c2.681,3.648,0,6.199-1.663,8.906c-4.169,6.932-7.66,14.279-10.425,21.931c-5.342,12.728-3.357,27.492,5.137,38.213
	c64.814,92.276,14.127,225.394-93.67,247.403c-82.496,17.751-163.236-37.282-180.393-122.956
	c-3.332-13.626-9.684-26.255-18.546-36.879C289.383,293.557,286.891,289.338,285.763,284.644z"/>
<path fill="#1A1B1D" d="M530.629,160.707c-31.807,18.919-59.463,44.521-81.206,75.17c-10.198,14.359-19.452,29.464-29.121,44.216
	c-3.021,4.59-5.892,9.337-8.989,13.889c-18.886,27.463-28.479,29.188-54.73,10.396c-12.992-9.337-26.1-18.439-41.17-23.54
	c-5.023-1.765-5.287-4.629-4.646-9.337c8.348-62.459,68.327-121.466,129.063-127.86c24.232-3.049,48.813-0.503,71.991,7.454
	C518.604,153.071,524.981,156.33,530.629,160.707z"/>
</svg>
