<svg width="600" height="400" xmlns="http://www.w3.org/2000/svg">
 <!-- Created with Method Draw - http://github.com/duopixel/Method-Draw/ -->

 <g>
  <title>background</title>
  <rect fill="#fff" id="canvas_background" height="402" width="602" y="-1" x="-1"/>
  <g display="none" overflow="visible" y="0" x="0" height="100%" width="100%" id="canvasGrid">
   <rect fill="url(#gridpattern)" stroke-width="0" y="0" x="0" height="100%" width="100%"/>
  </g>
 </g>
 <g>
  <title>Layer 1</title>
  <g stroke="null" id="svg_113">
   <g stroke="null" transform="matrix(2.8099 0 0 2.81225 -271.229 -162.339)" id="svg_108">
    <path stroke="null" id="svg_109" d="m202.1586,122.438942l-21.939011,15.145012c3.138,7.838989 10.354996,13.604004 19.025009,14.672989l0,-7.602997l5.485992,0l0,7.642014c8.966003,-0.973999 16.42601,-6.952011 19.516998,-15.084015l-22.088989,-14.773003zm-0.690002,19.244011l-5.669998,0l0,-5.669006l5.669998,0l0,5.669006zm0,-6.951004l-5.669998,0l0,-5.669998l5.669998,0l0,5.669998zm7.200989,6.951004l-5.669998,0l0,-5.669006l5.669998,0l0,5.669006zm0,-6.951004l-5.669998,0l0,-5.669998l5.669998,0l0,5.669998z" fill="#3BB44A"/>
    <path stroke="null" id="svg_110" d="m175.485596,140.894958c4.602997,10.145996 14.809998,17.201996 26.673004,17.201996c16.172989,0 29.281006,-13.108002 29.281006,-29.281006c0,-5.700996 -1.632004,-11.017998 -4.448013,-15.517006l-10.259995,5.087997l5.423996,-23.136002l22.447998,9.307007l-7.747009,3.843002c3.532013,5.987 5.56601,12.960999 5.56601,20.413994c0,22.238007 -18.026001,40.26001 -40.264999,40.26001c-15.604996,0 -29.134003,-8.876007 -35.822998,-21.855011l9.151001,-6.324982z" fill="#58595B"/>
    <path stroke="null" id="svg_111" d="m202.290588,88.610947c-22.261002,0 -40.310989,18.046997 -40.310989,40.300003c0,5.388 1.057999,10.531006 2.982986,15.229996l9.541,-6.116989c-0.940002,-2.865005 -1.444992,-5.933014 -1.444992,-9.113007c0,-16.141014 13.082001,-29.223007 29.231995,-29.223007c5.657013,0 10.937012,1.607002 15.408005,4.396004l1.972,-11.543007c-5.262009,-2.520996 -11.154999,-3.929993 -17.380005,-3.929993z" fill="#3BB44A"/>
    <path stroke="null" id="svg_112" d="m222.629593,117.014946l-7.542999,3.709991l1.787003,-10.384003c-4.031006,-3.223999 -9.153,-5.145996 -14.714996,-5.145996c-13.040009,0 -23.618011,10.574997 -23.618011,23.622017c0,0.403992 0.01001,0.810989 0.036011,1.214996l7.612,-5.229012l0,-6.865997l3.406998,-1.561005l0,6.085999l12.636002,-8.675995l23.534988,15.943001c0.014008,-0.301987 0.020004,-0.604996 0.020004,-0.912994c-0.000992,-4.300011 -1.149994,-8.332008 -3.156998,-11.801003z" fill="#3BB44A"/>
   </g>
  </g>
 </g>
</svg>