<?xml version="1.0"?>
<svg width="300" height="200" xmlns="http://www.w3.org/2000/svg" xmlns:svg="http://www.w3.org/2000/svg">
 <g class="layer">
  <title>Layer 1</title>
  <path d="m-163,-223.05l627,0l0,627l-627,0l0,-627z" fill="#ffffff" id="svg_8"/>
  <g id="svg_4">
   <path d="m118.75,68l10.48,-6l0,31.35l-10.48,-25.35zm10.48,71.59l0,-19.32l-6.46,15.59l6.46,3.73z" fill="#e25f3b" id="svg_1"/>
   <path d="m120.5,114.43l-12.75,12.76l-1.75,-1.01l0,-5.74l14.5,-6.01zm-7.95,15.57l5.55,3.2l6.19,-14.94l-11.74,11.74zm-6.55,-45.32l0,8.5l14.5,6l-14.5,-14.5zm8.07,-13.95l-8.07,4.66l0,1.72l18.29,18.29l-10.22,-24.67zm-8.07,28.27l0,5.16l12.45,0l-12.45,-5.16zm0,10.49l0,5.15l12.45,-5.15l-12.45,0z" fill="#ec9542" id="svg_2"/>
   <path d="m139.53,95.4l17.2,-41.51l15.41,8.9l-32.61,32.61zm54.47,8.73l0,-20.13l-48.63,20.13l48.63,0zm-3.5,24.05l3.46,-2l0,-16.69l-48.59,0l45.13,18.69zm-13.56,-62.62l-33.62,33.62l50.68,-20.97l0,-2.82l-17.06,-9.83zm-7.64,74.85l15.35,-8.86l-41.33,-17.12l25.98,25.98zm-34.71,2.27l12.2,7l-12.2,-29.41l0,22.41zm18.11,7.32l11.8,-6.81l-25,-25l13.2,31.81zm-2.7,-100l-15.41,8.89l0,34.46l17.46,-42.16l-2.05,-1.19z" fill="#df4d39" id="svg_3"/>
  </g>
 </g>
</svg>