<?xml version="1.0"?>
<svg width="300" height="200" xmlns="http://www.w3.org/2000/svg" xmlns:svg="http://www.w3.org/2000/svg">
 <!-- Created with SVG-edit - https://github.com/SVG-Edit/svgedit-->

 <g class="layer">
  <title>Layer 1</title>
  <rect fill="#ffffff" height="551" id="svg_1" stroke="#000000" stroke-dasharray="5,2,2,2,2,2" stroke-opacity="0" transform="matrix(1 0 0 1 0 0)" width="551" x="-117" y="-205.05"/>
  <path d="m150,42.67a57.83,57.33 0 1 0 57.83,57.33a57.85,57.35 0 0 0 -57.83,-57.33zm0,109.52a52.64,52.19 0 1 1 52.64,-52.19a52.7,52.25 0 0 1 -52.64,52.19z" fill="#8bc53f" id="svg_15"/>
  <path d="m97.84,101.48c0,0.79 0.07,1.57 0.14,2.33l83.32,37.21a51.77,51.33 0 0 0 4.84,-4.07l-87.64,-35.47l-0.66,0zm15.37,0l80.52,26.4c0.86,-1.29 1.65,-2.62 2.35,-4l-75.13,-22.4l-7.74,0zm-10.98,0l86.36,32.99a52.95,52.49 0 0 0 3.42,-4.14l-83.11,-28.85l-6.67,0z" fill="#36b34a" id="svg_14"/>
  <path d="m106.4,128.07l28.72,21.16a52.19,51.73 0 0 0 14.87,2.13l-48.15,-31.71a50.66,50.22 0 0 0 4.55,8.41zm43.83,-26.58l0,-0.07a21.78,21.59 0 0 1 4.79,-4.9a29.83,29.57 0 0 0 -2.82,1.97s-0.14,0 -0.09,-0.09a40.45,40.1 0 0 1 10.41,-8.33c-5.17,2.33 -9.48,5.1 -12.46,8.45a0.15,0.15 0 0 1 -0.27,-0.14a29.31,29.06 0 0 1 1.33,-3.5a35.79,35.48 0 0 1 5.84,-9.04c0.69,-0.78 1.18,-0.36 2.02,0c3.17,1.4 6.61,0.35 9.25,-1.63a32.5,32.22 0 0 0 6.31,-7.1l1.06,-1.49c1.45,-2.09 2.68,-4.67 4.14,-6.79l-7.87,1.17c-3.18,0.49 -6.44,1 -9.33,2.85a12.5,12.39 0 0 0 -5.64,9.33a22.54,22.35 0 0 1 11.06,-6.44c-8.98,4.5 -17.85,12.48 -20.33,24.67a0.28,0.28 0 0 1 -0.54,0c-3.02,-9.15 -9.97,-15.84 -17.17,-20.12a22.65,22.46 0 0 1 10.59,7.21a12.46,12.35 0 0 0 -4.95,-9.75c-2.74,-2.04 -5.95,-2.79 -9.1,-3.5l-7.75,-1.76c1.29,2.18 2.35,4.89 3.64,7.06l0.94,1.57a32.1,31.82 0 0 0 5.79,7.52a10.59,10.5 0 0 0 5.41,2.61a8.5,8.42 0 0 0 3.08,-0.13c0.99,-0.23 1.87,-1.04 2.62,0a36.1,35.79 0 0 1 4.57,7.93a0.16,0.16 0 0 1 -0.26,0.19c-3.53,-3.01 -8.39,-5.12 -14.12,-6.67a39.14,38.8 0 0 1 12.56,7.28a0.07,0.07 0 0 1 -0.08,0.12a26.18,25.95 0 0 0 -3.87,-1.78a23.11,22.91 0 0 1 4.97,3.29l-17.98,0l71.33,20.06a52.01,51.56 0 0 0 4.87,-20.06l-51.93,0.03z" fill="#8bc53f" id="svg_13"/>
  <path d="m98.66,108.99l72.48,37.95a53.41,52.95 0 0 0 6.73,-3.57l-79.72,-37.71c0.13,1.1 0.29,2.22 0.51,3.34z" fill="#36b34a" id="svg_12"/>
  <path d="m128.64,53.17l3.6,0l-11.98,6.3l13.19,-3.23l-10.03,9.1l11.97,-6.33l-7.42,11.27l9.98,-9.13l-4.35,12.75l7.37,-11.39l-1.02,13.41l4.32,-12.71l2.35,13.25l0.98,-13.43l5.64,12.31l-2.42,-13.3l8.52,10.5l-5.67,-12.25l10.88,8.05l-8.57,-10.44l12.57,5.11l-10.92,-8.01l13.45,1.87l-12.58,-5.07l7.25,-0.82a51.9,51.45 0 0 0 -37.09,2.2z" fill="#f6921d" id="svg_11"/>
  <path d="m100.5,116.06l56.39,34.84a52.01,51.56 0 0 0 9.5,-2.09l-67.22,-37.48a49.14,48.71 0 0 0 1.34,4.72z" fill="#8bc53f" id="svg_10"/>
 </g>
</svg>