<?xml version="1.0" encoding="utf-8"?>
<!-- Generator: Adobe Illustrator 14.0.0, SVG Export Plug-In . SVG Version: 6.00 Build 43363)  -->
<!DOCTYPE svg PUBLIC "-//W3C//DTD SVG 1.1//EN" "http://www.w3.org/Graphics/SVG/1.1/DTD/svg11.dtd">
<svg version="1.1" id="图层_1" xmlns="http://www.w3.org/2000/svg" xmlns:xlink="http://www.w3.org/1999/xlink" x="0px" y="0px"
	 width="900px" height="600px" viewBox="0 0 900 600" enable-background="new 0 0 900 600" xml:space="preserve">
<rect fill="#FFFFFF" width="900" height="600"/>
<g>
	<path fill="#00D6E9" d="M536.189,316.402l20.488-1.274l-43.373-45.317l-29.973,49.98l14.446-0.873
		c-8.675,30.189-22.581,62.56-42.8,87.214c-14.886,17.979-29.433,27.606-40.268,24.688c-14.886-3.958-20.624-30.189-22.514-42.97
		c-12.784-2.066-25.405-5.025-37.771-8.855c2.565,33.007,14.48,77.15,50.833,86.979c26.058,6.943,54.006-7.715,77.937-36.898
		c25.619-31.296,43.272-73.997,52.993-112.606 M363.305,285.71l-20.253,1.744l44.555,44.344l28.758-50.684l-14.446,1.241
		c8.642-30.424,22.648-63.431,43.104-88.455c14.852-18.013,29.399-27.64,40.268-24.722c14.886,3.958,20.624,30.189,22.514,42.969
		c12.773,2.063,25.384,5.022,37.736,8.856c-2.531-33.007-14.479-77.151-50.63-86.979c-26.092-6.944-54.006,7.715-77.937,36.898
		C390.779,202.723,372.891,246.33,363.305,285.71"/>
	<path fill="#0195FF" d="M423.555,386.073l-0.912,17.51l50.36-37.771l-46.512-35.321l-0.945,19.221
		c-17.721-1.309-111.825-15.028-111.825-49.712c0-11.17,13.13-22.642,34.395-32.101c5.366-2.363,10.854-4.445,16.438-6.239
		c4.463-14.264,9.853-28.225,16.135-41.795c-16.316,3.28-32.236,8.272-47.491,14.893c-34.699,15.43-56.166,38.408-56.166,65.243
		C277.03,361.921,376.029,382.584,423.555,386.073 M431.588,229.86l44.318,38.039l1.958-17.342
		c17.956,1.509,108.415,15.631,108.415,49.443c0,11.17-13.129,22.642-34.394,32.101c-5.367,2.363-10.854,4.445-16.438,6.239
		c-4.475,14.266-9.875,28.226-16.168,41.796c16.318-3.271,32.239-8.264,47.491-14.894c34.731-15.431,56.199-38.407,56.199-65.242
		c0-60.11-93.97-81.444-141.021-85.637l2.16-19.22L431.588,229.86z"/>
</g>
</svg>
