<?xml version="1.0" encoding="utf-8"?>
<!-- Generator: Adobe Illustrator 14.0.0, SVG Export Plug-In . SVG Version: 6.00 Build 43363)  -->
<!DOCTYPE svg PUBLIC "-//W3C//DTD SVG 1.1//EN" "http://www.w3.org/Graphics/SVG/1.1/DTD/svg11.dtd">
<svg version="1.1" id="图层_1" xmlns="http://www.w3.org/2000/svg" xmlns:xlink="http://www.w3.org/1999/xlink" x="0px" y="0px"
	 width="900px" height="600px" viewBox="0 0 900 600" enable-background="new 0 0 900 600" xml:space="preserve">
<title>资源 53</title>
<rect fill="#FFFFFF" width="900" height="600"/>
<path fill="#FBC64D" d="M551.599,259.068c-87.745-41.11-168.163-31.738-244.558,30.008c2.014-4.023,3.229-7.04,4.709-9.735
	l69.064-127.029c31.4-57.642,105.63-58.125,137.903-1.126c16.099,28.479,27.983,58.527,31.78,91.632
	C551.066,247.765,551.181,252.713,551.599,259.068L551.599,259.068z"/>
<path fill="#FC417F" d="M479.078,490.601c-2.126,0-4.252,0.401-6.379,0.401c-45.221,0-90.441,0.242-135.662,0
	c-41.424-0.361-71.799-24.858-80.57-65.002c-4.549-19.715-1.762-40.528,7.784-58.125c16.668-31.817,37.21-59.733,65.345-80.972
	c2.012-1.528,4.214-2.815,7.365-4.907C346.719,380.787,393.877,449.934,479.078,490.601L479.078,490.601z"/>
<path fill="#258BFA" d="M463.17,466.345c75.52-58.325,109.008-135.637,97.921-235.796c2.544,4.022,4.214,6.315,5.581,8.809
	c22.592,41.472,45.297,82.863,67.698,124.455c27.413,50.965,2.696,112.629-50.042,125.099
	C552.965,496.433,490.051,484.929,463.17,466.345z"/>
</svg>
