<?xml version="1.0" encoding="utf-8"?>
<!-- Generator: Adobe Illustrator 14.0.0, SVG Export Plug-In . SVG Version: 6.00 Build 43363)  -->
<!DOCTYPE svg PUBLIC "-//W3C//DTD SVG 1.1//EN" "http://www.w3.org/Graphics/SVG/1.1/DTD/svg11.dtd">
<svg version="1.1" id="图层_1" xmlns="http://www.w3.org/2000/svg" xmlns:xlink="http://www.w3.org/1999/xlink" x="0px" y="0px"
	 width="900px" height="600px" viewBox="0 0 900 600" enable-background="new 0 0 900 600" xml:space="preserve">
<rect fill="#333333" width="900" height="600"/>
<path fill="#FFFFFF" d="M515.673,178.28L450,142.25l-144.24,79.159v158.349l136.943,75.09v-71.714L371.1,343.918v-86.763
	C419.313,230.748,467.326,204.498,515.673,178.28z"/>
<path fill="#FFFFFF" d="M451.933,301.167l65.239-36.629l-57.843-31.739l-64.64,36.219l57.243,31.361V301.167L451.933,301.167z
	 M471.725,225.795L529,257.155v0.788l65.24-36.534l-57.876-31.866L471.725,225.795L471.725,225.795z"/>
<path fill="#EF1A24" d="M529,257.943v85.975l0.101,71.587l65.14-35.747V221.409L529,257.943z M517.172,350.417v-85.879
	l-65.239,36.629l0.101,84.996l0.1,71.587l65.039-35.746V350.417L517.172,350.417z"/>
</svg>
