<?xml version="1.0" encoding="utf-8"?>
<!-- Generator: Adobe Illustrator 14.0.0, SVG Export Plug-In . SVG Version: 6.00 Build 43363)  -->
<!DOCTYPE svg PUBLIC "-//W3C//DTD SVG 1.1//EN" "http://www.w3.org/Graphics/SVG/1.1/DTD/svg11.dtd">
<svg version="1.1" id="图层_1" xmlns="http://www.w3.org/2000/svg" xmlns:xlink="http://www.w3.org/1999/xlink" x="0px" y="0px"
	 width="900px" height="600px" viewBox="0 0 900 600" enable-background="new 0 0 900 600" xml:space="preserve">
<rect fill="#FFFFFF" width="900" height="600"/>
<path fill="#F79422" d="M468.906,233.311v-131.74c0-1.731-0.939-4.115,0.66-5.018c1.6-0.903,3.606,0.928,5.258,1.856
	c7.492,4.14,14.883,8.455,22.427,12.544c2.289,1.012,3.669,3.354,3.429,5.82v221.881c0.146,2.23-0.721,4.41-2.361,5.947
	c-8.256,7.525-16.383,15.203-24.611,22.729c-1.168,1.053-2.311,3.11-3.911,2.508c-1.6-0.603-0.838-2.885-0.838-4.39
	C468.906,321.447,468.889,277.4,468.906,233.311z M430.225,342.873c-9.904-10.212-19.582-20.072-29.283-30.107
	c-1.278-1.521-1.833-3.514-1.524-5.469V116.825c-0.306-2.258,0.837-4.467,2.87-5.545c8.229-4.516,16.407-9.082,24.535-13.773
	c3.378-1.932,4.443-1.355,4.419,2.634v238.466C431.478,340.105,431.113,341.636,430.225,342.873L430.225,342.873z"/>
<path fill="#1475AA" d="M638.06,233.235c0.98,1.667,1.34,3.619,1.017,5.52v139.994c0.034,4.729-0.237,9.454-0.813,14.149
	c-1.427,11.236-8.454,21.021-18.719,26.065c-3.733,2.058-7.364,4.341-11.021,6.549c-2.107,1.255-3.022,0.679-2.896-1.706v-2.509
	V267.607c0-1.907-0.481-3.964,1.22-5.545L638.06,233.235z"/>
<path fill="#F79422" d="M294.369,246.532v68.592c0.332,2.933-1.318,5.735-4.064,6.899c-8.28,4.34-16.407,9.057-24.382,13.824
	c-3.226,1.881-4.952,2.231-4.902-2.511c0.229-40.718-0.762-81.562,0.458-122.356c-0.048-11.372,5.937-21.938,15.772-27.848
	c4.191-2.509,8.534-5.018,12.699-7.678c3.454-2.283,4.546-1.957,4.521,2.509C294.268,200.821,294.369,223.677,294.369,246.532
	L294.369,246.532z"/>
<path fill="#1475AA" d="M399.747,327.343c10.49,10.988,20.319,21.175,29.97,31.335c1.188,1.393,1.729,3.213,1.498,5.018v136.207
	c0,3.763-0.736,4.815-4.368,2.709c-8.102-4.718-16.306-9.283-24.535-13.774c-1.989-0.861-3.204-2.878-3.021-5.018V330.453
	C399.417,329.801,399.543,329.174,399.747,327.343L399.747,327.343z M362.106,379.727v79.857c0,1.53,0.863,3.612-0.839,4.541
	c-1.701,0.928-2.997-0.878-4.367-1.631c-7.214-4.016-14.325-8.129-21.563-12.043c-1.979-0.869-3.184-2.885-2.997-5.019V314.121
	c-0.199-2.115,0.971-4.125,2.921-5.018c7.62-4.115,15.036-8.229,22.376-12.545c4.115-2.509,4.546-0.803,4.546,2.936v80.283
	L362.106,379.727z"/>
<path fill="#F79422" d="M537.965,221.068v-80.835c0-1.53-0.89-3.612,0.838-4.516c1.728-0.903,2.997,0.903,4.368,1.681
	c7.213,4.014,14.324,8.128,21.563,12.042c1.979,0.87,3.184,2.885,2.997,5.018v122.934c0.118,1.782-0.625,3.514-2.008,4.666
	c-8.051,7.226-15.949,14.677-23.925,22.028c-0.915,0.827-1.626,2.508-3.124,1.855c-1.499-0.652-0.711-2.51-0.711-3.588v-81.336
	L537.965,221.068L537.965,221.068z M332.339,223.928c0-22.58,0.127-45.159,0-67.588c-0.381-3.391,1.526-6.63,4.699-7.978
	c7.137-3.738,14.122-7.777,21.081-11.842c2.997-1.731,4.039-1.204,4.039,2.283v139.065c0.224,2.297-1.051,4.483-3.175,5.444
	c-7.366,3.989-14.604,8.279-21.919,12.369c-4.622,2.509-4.698,2.509-4.698-2.709L332.339,223.928z"/>
<path fill="#1475AA" d="M566.766,298.767c0.933,1.638,1.264,3.542,0.94,5.395V444.18c0.332,3.075-1.456,5.991-4.369,7.125
	c-7.01,3.639-13.791,7.678-20.647,11.591c-4.42,2.51-4.802,2.51-4.802-2.733v-104.77v-25.467c-0.23-3.086,1.089-6.088,3.531-8.027
	C549.979,314.497,558.156,306.67,566.766,298.767z M500.654,361.313v121.354c0.384,2.729-1.079,5.384-3.607,6.548
	c-8.152,4.29-16.127,8.932-24.127,13.522c-2.846,1.631-4.039,1.354-4.039-2.259V391.719c-0.172-1.469,0.32-2.937,1.346-4.014
	l29.361-26.971L500.654,361.313z M294.42,380.152v42.148c0,3.688-0.66,5.02-4.242,2.511c-4.267-2.785-8.762-5.245-13.004-8.079
	c-10.666-6.756-16.887-18.606-16.331-31.109V355.24c-0.221-2.084,0.893-4.086,2.794-5.018c9.042-5.019,18.024-10.193,26.948-15.529
	c3.479-2.082,3.759-0.502,3.759,2.509v43.103L294.42,380.152z"/>
<path fill="#F79422" d="M606.261,243.672c-1.499-2.509-0.405-5.168-0.433-7.652c0-19.394,0-38.787-0.126-58.18
	c0-4.366,0.964-4.691,4.597-2.509c8.561,5.193,17.499,9.885,23.366,18.415c3.34,5.28,5.206,11.339,5.41,17.562
	c0.146,1.648-0.536,3.263-1.829,4.315c-9.804,9.182-19.633,18.331-29.487,27.447C607.294,243.346,606.788,243.549,606.261,243.672z"
	/>
</svg>
