<?xml version="1.0" encoding="utf-8"?>
<!-- Generator: Adobe Illustrator 14.0.0, SVG Export Plug-In . SVG Version: 6.00 Build 43363)  -->
<!DOCTYPE svg PUBLIC "-//W3C//DTD SVG 1.1//EN" "http://www.w3.org/Graphics/SVG/1.1/DTD/svg11.dtd">
<svg version="1.1" id="cube" xmlns="http://www.w3.org/2000/svg" xmlns:xlink="http://www.w3.org/1999/xlink" x="0px" y="0px"
	 width="900px" height="600px" viewBox="0 0 900 600" enable-background="new 0 0 900 600" xml:space="preserve">
<rect fill="#FBC600" width="900" height="600"/>
<path fill="#FFFFFF" d="M449.997,121.75C352.799,121.75,274,201.551,274,299.997c0,98.44,78.799,178.253,175.997,178.253
	C547.201,478.25,626,398.438,626,299.997C626,201.551,547.201,121.75,449.997,121.75z M389.311,196.745
	c28.141,0,50.949,23.105,50.949,51.594c0,28.501-22.808,51.607-50.949,51.607c-28.142,0-50.949-23.106-50.949-51.607
	C338.362,219.857,361.169,196.745,389.311,196.745z M435.889,450.685c-76.952,0-139.34-63.18-139.34-141.115
	c0-77.948,18.455,30.814,108.187,22.164c42.092-4.056,64.899-27.38,90.396-57.117c32.855-38.311,80.104-12.643,80.104,34.953
	C575.234,387.499,512.847,450.685,435.889,450.685z"/>
</svg>
