<?xml version="1.0" encoding="utf-8"?>
<!-- Generator: Adobe Illustrator 14.0.0, SVG Export Plug-In . SVG Version: 6.00 Build 43363)  -->
<!DOCTYPE svg PUBLIC "-//W3C//DTD SVG 1.1//EN" "http://www.w3.org/Graphics/SVG/1.1/DTD/svg11.dtd">
<svg version="1.1" id="cube" xmlns="http://www.w3.org/2000/svg" xmlns:xlink="http://www.w3.org/1999/xlink" x="0px" y="0px"
	 width="900px" height="600px" viewBox="0 0 900 600" enable-background="new 0 0 900 600" xml:space="preserve">
<rect fill="#00698F" width="900" height="600"/>
<g>
	<path fill="#009FE8" d="M283.159,136.703v89.17c14.937-12.794,45.242-33.029,87.097-32.498
		c61.102,0.779,103.961,55.128,163.484,65.228c44.326,7.515,71.9-9.073,83.101-18.036V136.703H283.159z"/>
	<path fill="#0068B6" d="M512.307,344.009c-54.761-31.049-80.949-102.495-141.262-122.679c-46.663-15.619-76.685,2.68-87.886,11.767
		v7.748c18.442-10.733,42.771-17.898,68.052-5.542c66.676,32.622,98.402,146.744,143.628,191.009
		c42.071,41.148,111.59,36.83,121.005,36.874h0.997v-105.35C602.187,361.521,557.258,369.501,512.307,344.009z"/>
	<path fill="#00469B" d="M283.159,246.756v216.421h111.895c6.542-26.811,9.377-62.649,2.977-109.855
		C380.578,224.635,305.821,239.198,283.159,246.756z"/>
</g>
</svg>
