<?xml version="1.0" encoding="utf-8"?>
<!-- Generator: Adobe Illustrator 14.0.0, SVG Export Plug-In . SVG Version: 6.00 Build 43363)  -->
<!DOCTYPE svg PUBLIC "-//W3C//DTD SVG 1.1//EN" "http://www.w3.org/Graphics/SVG/1.1/DTD/svg11.dtd">
<svg version="1.1" id="cube" xmlns="http://www.w3.org/2000/svg" xmlns:xlink="http://www.w3.org/1999/xlink" x="0px" y="0px"
	 width="900px" height="600px" viewBox="0 0 900 600" enable-background="new 0 0 900 600" xml:space="preserve">
<rect fill="#FFFFFF" width="900" height="600"/>
<g>
	<path fill="#E9951A" d="M419.694,279.302l-79.213-78.612c-7.825-7.773-20.375-7.587-26.874,1.31
		c-15.176,20.771-25.654,45.147-29.886,71.587c-1.74,10.849,7.011,19.785,18.082,19.785h112.019
		C424.893,293.372,427.519,287.074,419.694,279.302z"/>
	<path fill="#E98934" d="M456.679,152.916v111.178c0,10.987,6.345,13.594,14.176,5.828l79.207-78.612
		c7.825-7.766,7.646-20.223-1.319-26.672c-20.928-15.063-45.489-25.461-72.129-29.662
		C465.683,133.25,456.679,141.929,456.679,152.916z"/>
	<path fill="#D9C322" d="M443.315,264.094V152.916c0-10.987-9.005-19.673-19.942-17.947c-26.64,4.201-51.201,14.599-72.129,29.662
		c-8.964,6.45-9.145,18.906-1.319,26.672l79.207,78.612C436.97,277.694,443.315,275.081,443.315,264.094z"/>
	<path fill="#E59910" d="M413.822,306.635H301.803c-11.071,0-19.822,8.938-18.082,19.793c4.232,26.439,14.709,50.815,29.886,71.586
		c6.499,8.897,19.049,9.083,26.874,1.311l79.207-78.612C427.519,312.933,424.893,306.635,413.822,306.635z"/>
	<path fill="#FB9908" d="M486.178,293.372h112.02c11.07,0,19.821-8.937,18.082-19.785c-4.232-26.44-14.71-50.816-29.887-71.587
		c-6.498-8.897-19.048-9.076-26.873-1.31l-79.214,78.612C472.475,287.074,475.107,293.372,486.178,293.372z"/>
	<path fill="#D1B704" d="M480.306,320.705l79.207,78.612c7.824,7.772,20.375,7.588,26.874-1.31
		c15.176-20.771,25.653-45.147,29.886-71.588c1.739-10.848-7.012-19.791-18.082-19.791H486.178
		C475.107,306.635,472.475,312.933,480.306,320.705z"/>
	<path fill="#F78D04" d="M429.138,330.079l-79.207,78.618c-7.825,7.766-7.645,20.223,1.32,26.672
		c20.928,15.063,45.489,25.461,72.129,29.661c10.93,1.727,19.935-6.959,19.935-17.946V335.906
		C443.315,324.919,436.97,322.313,429.138,330.079z"/>
	<path fill="#F9A104" d="M456.679,335.906v111.178c0,10.987,9.004,19.673,19.935,17.946c26.64-4.2,51.201-14.599,72.129-29.661
		c8.965-6.449,9.145-18.906,1.319-26.672l-79.207-78.618C463.023,322.313,456.679,324.919,456.679,335.906z"/>
</g>
</svg>
