<svg width="599.9999999999999" height="400" xmlns="http://www.w3.org/2000/svg">
 <!-- Created with Method Draw - http://github.com/duopixel/Method-Draw/ -->

 <g>
  <title>background</title>
  <rect x="-1" y="-1" width="602" height="402" id="canvas_background" fill="#fff"/>
  <g id="canvasGrid" display="none">
   <rect id="svg_1" width="100%" height="100%" x="0" y="0" stroke-width="0" fill="url(#gridpattern)"/>
  </g>
 </g>
 <g>
  <title>Layer 1</title>
  <g stroke="null" id="svg_250">
   <path stroke="null" id="svg_245" fill="#177fd3" d="m290.428772,167.132965l0,-76.52597l7.667542,0c3.249573,0 6.511353,0.08284 9.736572,0c1.582214,0 1.97168,0.497009 1.97168,1.96431l0,68.088837c0,4.816147 -1.910828,6.67395 -6.864288,6.685806l-11.720398,0c-0.194702,-0.059143 -0.37735,-0.130188 -0.791107,-0.212982z"/>
   <path stroke="null" id="svg_246" fill="#0c56a7" d="m290.319275,309.357391l0,-70.112274c0,-4.626831 1.89856,-6.508331 6.584259,-6.520203l11.136261,0c1.363098,0 1.789063,0.425995 1.789063,1.739502l0,73.153503c0,0.911133 0.072998,1.786804 -1.338684,1.774963c-5.939392,-0.059143 -11.866455,-0.035492 -18.170898,-0.035492zm121.987183,-118.806335l0,18.803131c-0.657166,0 -1.21701,0.094635 -1.789063,0.094635l-69.981781,0c-5.002106,0 -6.864288,-1.798676 -6.864288,-6.626617c0,-3.41983 0.085205,-6.839691 0,-10.259491c0,-1.621185 0.535583,-2.035309 2.129883,-2.023499l76.541779,0l-0.03653,0.011841z"/>
   <path stroke="null" id="svg_247" fill="#177fd3" d="m226.970505,209.448822l-37.14502,0c-1.764801,0 -2.202911,-0.485168 -2.166412,-2.141846c0.109528,-4.934479 0.085175,-9.880768 0,-14.815277c0,-1.443634 0.340851,-2.011627 1.959503,-2.011627l70.955399,0c3.724182,0 5.768921,2.04715 5.80542,5.703613s0,7.478668 0,11.217987c0,1.632996 -0.559875,1.999817 -2.142029,1.987946c-12.365555,0.035553 -24.816147,0.059204 -37.266861,0.059204zm23.976349,-99.470688l19.266281,0c0,0.662643 0.097412,1.277954 0.097412,1.881454l0,30.021118c0,4.188995 -2.044678,6.188797 -6.304443,6.200653l-13.05925,0l0,-38.103226zm79.00029,38.115021c0,-0.863785 -0.097412,-1.479141 -0.097412,-2.106293l0,-34.008926c0,-1.609329 0.365173,-2.212845 2.154236,-2.177338c5.075195,0.118332 10.162537,0 15.237823,0c0.632782,0 1.217072,0.070984 2.142029,0.118332l0,31.583099c0,4.603119 -1.935242,6.484634 -6.62088,6.496475l-12.815796,0.09465z"/>
   <path stroke="null" id="svg_248" fill="#0c56a7" d="m270.188843,251.930389l0,38.020355a3.651219,3.54999 0 0 1 -0.864166,0.212982l-17.039017,0c-1.217041,0 -1.557861,-0.425964 -1.557861,-1.561981l0,-31.157074a5.391634,5.242152 0 0 1 5.817673,-5.549805c4.563995,0.011871 9.006256,0.035522 13.643372,0.035522zm78.866302,38.25705l-15.103912,0c-4.113647,0 -4.113647,0 -4.113647,-3.999664l0,-28.115906c0,-4.129852 2.093414,-6.1297 6.377441,-6.141479l11.537872,0c0.985779,0 1.594391,0.165619 1.594391,1.325287l0,36.103424a5.160389,5.017318 0 0 1 -0.292145,0.828339zm-141.448227,-42.493408c0,-0.52066 -0.109528,-1.017609 -0.109528,-1.514618l0,-15.383331c0,-1.04129 0,-1.845978 1.497009,-1.834137l32.422821,0a5.14822,5.005486 0 0 1 5.294312,5.230286c0.072998,4.046997 0,8.105865 0,12.152863c0,0.982117 -0.20694,1.526428 -1.387482,1.526428l-36.926056,0a3.553854,3.455324 0 0 1 -0.791077,-0.17749l0,0zm185.056015,0.130188c-0.949341,0 -1.59436,0.094666 -2.227264,0.094666l-30.317322,0c-4.868317,0 -6.681763,-1.822327 -6.693878,-6.602997l0,-10.448761c0,-1.37265 0.450348,-1.917023 1.910858,-1.917023l35.587219,0c0.851807,0 1.776947,-0.106506 1.764709,1.183319c-0.03653,5.833832 -0.024323,11.655853 -0.024323,17.690796z"/>
   <path stroke="null" id="svg_249" fill="#177fd3" d="m227.140915,171.073425l-17.574493,0c-1.594391,0 -2.154297,-0.425964 -2.129913,-2.023499c0.085266,-5.005493 0.073029,-9.99913 0,-15.004608c0,-1.45549 0.47464,-1.96431 2.00824,-1.952515l31.449097,0c3.73642,0 5.756805,2.035355 5.793304,5.679993l0,11.584808c0,1.396347 -0.523376,1.680328 -1.825592,1.668472c-5.866333,0.047348 -11.793427,0.047348 -17.720642,0.047348zm165.522018,-0.106491c-0.851959,0 -1.436218,0.08284 -2.008209,0.08284l-30.499847,0c-4.868347,0 -6.706024,-1.857819 -6.730408,-6.602966l0,-10.448837c0,-1.384491 0.450348,-1.905167 1.910858,-1.893311l35.587219,0c0.839691,0 1.776947,-0.141983 1.764709,1.183319c-0.03653,5.810165 -0.024323,11.632141 -0.024323,17.678955z"/>
  </g>
 </g>
</svg>