<?xml version="1.0" encoding="utf-8"?>
<!-- Generator: Adobe Illustrator 14.0.0, SVG Export Plug-In . SVG Version: 6.00 Build 43363)  -->
<!DOCTYPE svg PUBLIC "-//W3C//DTD SVG 1.1//EN" "http://www.w3.org/Graphics/SVG/1.1/DTD/svg11.dtd">
<svg version="1.1" id="cube" xmlns="http://www.w3.org/2000/svg" xmlns:xlink="http://www.w3.org/1999/xlink" x="0px" y="0px"
	 width="900px" height="600px" viewBox="0 0 900 600" enable-background="new 0 0 900 600" xml:space="preserve">
<rect fill="#EA6000" width="900" height="600"/>
<path fill="#FFFFFF" d="M294.239,363.182c17.826,42.018,52.894,75.245,96.563,91.224c2.807-19.705-2.523-40.892-16.691-58.712
	C354.501,370.992,323.299,359.42,294.239,363.182z M281.893,312.041c0.963,12.968,3.411,25.534,7.255,37.516
	c37.719-11.215,85.784,17.117,111.358,67.441c7.435,14.692,12.13,29.714,14.347,44.253c10.48,2.162,21.334,3.331,32.426,3.499
	c-5.292-26.155-16.78-52.793-34.605-77.166C377.896,340,327.815,312.969,281.893,312.041z M438.844,218.524
	c43.004-7.343,79.08-28.735,102.057-56.995c-8.936-5.64-18.445-10.484-28.432-14.4c-17.969,32.292-61.531,55.08-112.493,55.08
	c-26.566,0-51.147-6.232-71.146-16.767c-3.411,3.441-6.666,7.021-9.764,10.747C350.911,216.967,393.997,226.188,438.844,218.524z
	 M613.099,260.036c-2.291-8.876-5.263-17.461-8.921-25.688c-28.216,23.24-49.064,59.105-55.402,101.319
	c-4.821,32.103-0.5,63.036,10.697,89.286c3.158-2.651,6.226-5.377,9.152-8.256c-6.92-25.257-5.606-57.893,5.553-91.032
	C583.158,299.021,597.095,276.351,613.099,260.036z M582.911,199.265c-6.188-7.861-13.107-15.153-20.624-21.772
	c-35.524,37.465-103.393,62.824-181.332,62.824c-29.754,0-58-3.711-83.589-10.353c-7.853,16.336-13.078,34.134-15.041,52.888
	c58.985,0.263,132.303,59.573,178.218,150c5.106,10.053,9.696,20.149,13.772,30.203c23.647-3.391,45.691-11.609,65.076-23.577
	c-15.049-44.084-14.078-103.767,6.375-164.45C555.293,246.805,568.072,221.256,582.911,199.265z M433.813,186.545
	c26.746-5.611,48.887-22.707,62.113-44.99c-14.675-4.062-30.164-6.305-46.183-6.305c-34.726,0-67.01,10.323-93.823,27.945
	C374.887,183.17,403.671,192.88,433.813,186.545z M617.988,295.076c-21.305,12.851-37.607,36.939-42.041,66.295
	c-2.322,15.539-0.985,30.561,3.225,44.047c24.305-28.58,38.936-65.309,38.936-105.403
	C618.107,298.371,618.041,296.727,617.988,295.076z"/>
</svg>
