<?xml version="1.0"?>
<svg width="300" height="200" xmlns="http://www.w3.org/2000/svg" xmlns:svg="http://www.w3.org/2000/svg">
 <g class="layer">
  <title>Layer 1</title>
  <rect fill="#ffffff" height="533" id="svg_11" stroke="#000000" stroke-opacity="0" width="533" x="-106" y="-163.22"/>
  <g id="svg_1">
   <g fill="#1488c8" id="svg_2">
    <path d="m164.26,120.76c0.14,-1.21 0.26,-2.45 0.37,-3.72q-1.59,1.5 -3.18,2.94l2.81,0.78zm-46.25,-19.2c3,-3.68 6.28,-7.4 9.81,-11.08c0.21,-4.44 0.56,-8.77 1,-12.92a96.59,96.59 0 0 0 -19.87,-2.45c-8.67,0 -12.53,2 -13.25,3.84c-1.51,4.01 6.43,13.13 22.31,22.61zm9.7,5.27q-0.09,-2.82 -0.11,-5.69q-1.74,2 -3.33,3.9c1.12,0.65 2.26,1.25 3.44,1.79zm-25.45,-7.39c-6.15,-4.86 -10.29,-9.48 -12.32,-13.73a61.67,61.67 0 0 0 10,50.38c0.26,-4.7 2.32,-10.55 6.18,-17.39a113.13,113.13 0 0 1 7.54,-11.5a113.13,113.13 0 0 1 -11.4,-7.76zm97.84,-35.54c-0.26,4.7 -2.32,10.55 -6.18,17.39a113,113 0 0 1 -7.54,11.54a113.11,113.11 0 0 1 11.35,7.76c6.17,4.86 10.31,9.48 12.34,13.73a61.67,61.67 0 0 0 -10,-50.38l0.03,-0.04zm-29.91,65.56a116.2,116.2 0 0 1 -3.45,15.24c-2.29,7.51 -5.11,13 -8.33,16.47a61.77,61.77 0 0 0 45.62,-31.25c-3,1.23 -7.18,2.05 -13,2.05a102.9,102.9 0 0 1 -20.84,-2.51zm-40.36,-58.93a116.24,116.24 0 0 1 3.43,-15.23c2.31,-7.47 5.13,-13.04 8.35,-16.47a61.77,61.77 0 0 0 -45.62,31.25c3,-1.23 7.18,-2.05 13,-2.05a102.9,102.9 0 0 1 20.84,2.5zm42.48,22.59q0.09,2.82 0.11,5.69q1.72,-2 3.33,-3.91c-1.12,-0.59 -2.26,-1.19 -3.44,-1.78zm-4.61,-34.44c8.09,-4.44 15.3,-6.92 20.8,-7a61.44,61.44 0 0 0 -30.09,-12.85c3.22,3.43 6,9 8.33,16.47c0.34,1.09 0.65,2.22 0.96,3.38zm4.18,26.34c2.87,1.37 5.66,2.78 8.32,4.22a107.62,107.62 0 0 0 7.55,-11.41c5.9,-10.48 6.07,-16.22 4.41,-18a5.09,5.09 0 0 0 -3.54,-1c-4.17,0 -10.91,2.29 -19.26,7.09a161.34,161.34 0 0 1 2.52,19.1zm-47.48,50.75a10.27,10.27 0 0 1 5.06,-8.84c-0.56,-3.84 -1,-7.82 -1.32,-12c-2.87,-1.37 -5.65,-2.78 -8.32,-4.22c-11.06,14.82 -14.93,26.28 -12,29.39a5.09,5.09 0 0 0 3.55,1.05c3.09,0 7.6,-1.26 13.12,-3.87a10.25,10.25 0 0 1 -0.09,-1.51zm3.57,7.77c-6.32,3 -12,4.7 -16.44,4.73a61.44,61.44 0 0 0 30.08,12.89c-3,-3.22 -5.69,-8.33 -7.91,-15.16a10.23,10.23 0 0 1 -5.73,-2.46zm27.1,-18.05c-3.5,2.91 -7,5.58 -10.38,8a10.21,10.21 0 0 1 -4.13,10.69c3,9 6.51,14 9.45,14c4.41,0.03 10.25,-11.25 13.25,-30.35q-4,-1.05 -8.19,-2.34zm-13.16,-4.59q-3.24,-1.26 -6.37,-2.6c0.25,2.56 0.55,5 0.89,7.35a10.21,10.21 0 0 1 4.39,1.89c2,-1.46 4.14,-3 6.3,-4.72c-1.74,-0.61 -3.47,-1.25 -5.21,-1.92z" id="svg_3"/>
    <circle cx="134.68" cy="135.77" id="svg_4" r="5.82"/>
    <path d="m182.02,98.43c-1.09,1.34 -2.23,2.68 -3.39,4a10.24,10.24 0 0 1 -6.91,14.4c-0.16,1.88 -0.34,3.74 -0.56,5.56a96.6,96.6 0 0 0 19.87,2.45c8.67,0 12.53,-2 13.25,-3.84c1.56,-3.96 -6.39,-13.09 -22.26,-22.57z" id="svg_5"/>
    <circle cx="169.36" cy="106.88" id="svg_6" r="5.82"/>
    <path d="m165.31,97.43c0,-2.65 -0.1,-5.25 -0.23,-7.75q-4.53,-2 -9.52,-4l-1.15,-0.43a10.23,10.23 0 0 1 -13.87,2.58l-1.11,1q-2.42,2.3 -4.66,4.58q-0.1,3.18 -0.1,6.53c0,3.57 0.1,7 0.27,10.32q4.53,2 9.52,4q4.54,1.76 9,3.25q3.29,-2.85 6.69,-6.06a10.25,10.25 0 0 1 5.13,-14l0.03,-0.02zm-27.05,-24.85a10.22,10.22 0 0 1 12.32,-2.58c3.66,-2.8 7.26,-5.34 10.74,-7.55c-3.18,-13.14 -7.71,-20.62 -11.31,-20.62c-4.41,0 -10.22,11.24 -13.26,30.34l1.51,0.41zm19.86,6.52q3.24,1.26 6.37,2.6c-0.41,-4.23 -1,-8.16 -1.59,-11.79q-3.55,2.36 -7.37,5.24a10.2,10.2 0 0 1 0.81,3.3l1.78,0.65z" id="svg_7"/>
    <circle cx="146.1" cy="79.23" id="svg_8" r="5.82"/>
   </g>
  </g>
 </g>
</svg>