<?xml version="1.0" encoding="utf-8"?>
<!-- Generator: Adobe Illustrator 14.0.0, SVG Export Plug-In . SVG Version: 6.00 Build 43363)  -->
<!DOCTYPE svg PUBLIC "-//W3C//DTD SVG 1.1//EN" "http://www.w3.org/Graphics/SVG/1.1/DTD/svg11.dtd">
<svg version="1.1" id="图层_1" xmlns="http://www.w3.org/2000/svg" xmlns:xlink="http://www.w3.org/1999/xlink" x="0px" y="0px"
	 width="900px" height="600px" viewBox="0 0 900 600" enable-background="new 0 0 900 600" xml:space="preserve">
<rect fill="#FFFFFF" width="900" height="600"/>
<path fill="#226893" d="M523.84,254.216c2.821-1.943,5.644-3.864,8.443-5.851l36.197-25.908
	c7.715-5.527,15.431-11.011,23.146-16.603c3.968-2.871,4.629-2.871,7.296,1.145c1.434,2.159,2.689,4.447,4.078,6.606
	c0.968,1.15,0.801,2.851-0.374,3.799c-0.169,0.136-0.354,0.253-0.552,0.346c-8.134,5.765-16.226,11.594-24.249,17.402
	l-40.959,29.362c-6.394,4.555-12.741,9.154-19.2,13.623c-1.874,1.317-1.741,2.159,0,3.325c2.425,1.597,4.827,3.26,7.076,5.073
	c1.396,1.457,3.73,1.534,5.225,0.173c7.209-5.225,14.505-10.342,21.78-15.501l45.478-32.385c3.571-2.526,7.032-5.161,10.647-7.622
	c2.646-1.813,3.505-1.511,4.783,1.447c1.059,2.461,1.874,5.03,3.087,7.427c1.291,2.106,0.595,4.838-1.557,6.102
	c-0.125,0.073-0.253,0.141-0.385,0.202c-4.629,3.195-9.17,6.477-13.756,9.737c-18.914,13.516-37.843,27.017-56.786,40.503
	c-1.499,1.058-1.786,1.813,0,2.936c2.763,1.828,5.46,3.721,8.091,5.678c1.208,1.068,3.045,1.068,4.254,0
	c12.978-9.183,25.983-18.417,39.02-27.699c7.893-5.613,15.799-11.212,23.72-16.797c2.359-1.641,3.483-1.231,4.102,1.511
	c0.794,3.541,1.345,7.125,2.006,10.795c0.289,1.657-0.536,3.309-2.05,4.102l-27.666,19.776
	c-8.422,6.023-16.864,12.069-25.308,18.051c-1.543,1.1-1.983,2.028-0.176,3.26c2.731,1.783,5.459,3.654,8.178,5.612
	c1.229,1.031,3.063,0.966,4.21-0.151c13.684-9.815,27.409-19.596,41.181-29.34c2.204-1.619,3.042-1.144,3.614,1.555
	c0.971,4.599-0.419,9.133-0.132,13.688c0,1.404-1.015,2.16-2.072,2.938c-9.192,6.605-18.385,13.257-27.601,19.841
	c-3.482,2.505-3.526,2.678,0,5.117c2.205,1.512,4.409,2.979,6.394,4.577c1.345,1.218,3.418,1.218,4.763,0
	c3.901-2.873,7.848-5.68,11.814-8.463c0.926-0.647,1.962-1.621,3.175-0.887c1.214,0.734,0.44,1.922,0.242,2.872
	c-2.107,10.12-5.163,20.028-9.126,29.601c-0.903,2.287-2.204,2.31-4.035,1.015l-39.281-28.065
	c-9.304-6.621-18.629-13.242-27.976-19.863c-10.03-7.104-20.127-14.143-30.112-21.332c-2.006-1.425-2.954-1.36-3.639,1.08
	c-0.837,2.936-1.896,5.83-2.82,8.636c-0.67,1.604-0.029,3.445,1.498,4.318c11.465,8.103,22.92,16.229,34.367,24.375
	c14.042,9.994,28.063,20.057,42.105,30.053c6.15,4.318,12.366,8.636,18.562,12.953c3.196,2.16,3.438,2.979,1.609,6.478
	c-1.301,2.354-2.756,4.62-4.146,6.931c-1.389,2.312-2.8,2.332-4.827,0.885c-10.566-7.569-21.142-15.104-31.723-22.604
	s-21.134-14.982-31.655-22.453c-9.7-6.908-19.393-13.832-29.077-20.771c-2.578-1.854-2.799-1.899-3.924,1.146
	c-0.882,2.331-1.433,4.793-2.47,7.038c-1.367,3.022-0.353,4.793,2.205,6.605c11.859,8.247,23.588,16.625,35.271,25.002
	c17.635,12.493,35.271,25.008,52.905,37.545c2.051,1.468,2.204,2.937,0.597,4.75c-2.007,2.157-4.035,4.317-5.996,6.672
	c-0.987,1.476-3.01,1.89-4.519,0.922c-0.209-0.135-0.401-0.292-0.574-0.469c-10.01-7.197-20.03-14.329-30.069-21.396l-49.467-35.17
	c-1.588-1.123-3.109-2.289-4.718-3.391c-1.61-1.102-2.358-0.646-2.889,0.95c-1.037,3.174-2.205,6.348-3.175,9.543
	c-0.507,1.407,0.111,2.967,1.455,3.67c10.993,7.801,21.971,15.603,32.935,23.403l45.435,32.385c2.313,1.663,2.359,2.721,0.242,4.556
	c-2.116,1.836-4.938,4.037-7.43,6.046c-1.413,1.318-3.635,1.318-5.048,0c-19.914-14.277-39.842-28.527-59.785-42.748
	c-3.792-2.722-7.649-5.312-11.419-8.031c-1.455-1.059-2.381-1.166-2.976,0.733c-1.06,3.261-2.205,6.478-3.241,9.802
	c-0.492,1.426,0.145,2.987,1.499,3.691l34.125,24.224c9.392,6.672,18.826,13.321,28.195,20.016c2.579,1.835,2.535,3.021-0.287,4.685
	c-2.821,1.663-5.951,3.261-8.949,4.88c-1.624,0.942-3.68,0.771-5.115-0.432c-17.399-12.479-34.83-24.915-52.289-37.308
	c-2.977-2.159-3.107-2.051-4.145,1.315c-0.793,2.656-1.697,5.289-2.734,7.859c-0.879,1.688-0.225,3.759,1.479,4.663
	c7.628,5.312,15.188,10.795,22.75,16.148c6.085,4.318,12.146,8.636,18.187,12.954c0.86,0.604,2.006,1.188,1.83,2.396
	s-1.434,1.425-2.425,1.813l-0.573,0.15c-17.854,5.679-11.021,5.29-28.658-6.478c-5.487-3.647-10.758-7.578-16.069-11.507
	c-2.072-1.533-2.953-0.993-3.594,1.273c-0.793,2.871-1.785,5.656-2.777,8.464c-0.761,1.594-0.111,3.493,1.477,4.316
	c4.103,2.741,8.069,5.699,12.06,8.637c0.838,0.604,2.205,1.145,1.787,2.375c-0.42,1.229-1.654,1.229-2.69,1.382
	c-3.964,0.558-7.966,0.803-11.97,0.733h-18.165c-4.123,0-4.695-0.799-3.438-4.642c5.114-15.459,10.257-30.91,15.433-46.354
	c6.921-20.8,13.828-41.599,20.721-62.396c8.406-25.446,16.857-50.923,25.352-76.428c9.199-27.736,18.342-55.472,27.425-83.208
	c4.907-14.725,9.832-29.449,14.77-44.173c1.103-3.282,2.072-3.563,5.07-1.663c6.625,4.042,12.919,8.582,18.826,13.58
	c2.557,2.267,2.445,2.85-0.267,4.793c-4.649,3.325-9.278,6.693-13.998,9.91c-1.563,1.028-2.715,2.554-3.262,4.318l-5.533,16.948
	c-0.199,0.604-0.75,1.338,0,1.856c0.749,0.518,1.455-0.194,2.027-0.604l21.295-15.113c3.792-2.699,7.628-5.333,11.396-8.031
	c1.499-1.08,2.777-1.209,4.057,0.302c2.006,2.332,3.969,4.707,6.129,6.909s1.608,3.519-0.617,5.095
	c-7.055,4.965-14.021,10.039-21.031,15.113c-10.072,7.211-20.126,14.465-30.267,21.59c-1.649,1.186-2.825,2.895-3.329,4.836
	c-2.072,6.24-4.232,12.458-6.348,18.675L523.84,254.216z"/>
<path fill="#5198C4" d="M291.071,325.203c0-1.986-1.433-2.85-2.756-3.799c-4.188-2.994-8.369-5.98-12.543-8.961
	c-1.062-0.541-1.787-1.558-1.94-2.721c0-4.836-1.278-9.672-0.154-14.53c0.573-2.504,1.939-2.007,3.395-0.993
	c5.225,3.735,10.471,7.319,15.607,11.14c4.078,3.044,4.277,3.044,5.709-1.792c0.705-2.396,1.478-4.771,2.205-7.125
	c0.631-1.465,0.032-3.16-1.389-3.929c-6.106-4.318-11.882-9.089-18.297-12.954c-4.85-2.764-6.128-6.196-4.806-11.205
	c0.529-2.029,0.86-4.124,1.411-6.153c0.728-2.699,1.742-3.087,4.145-1.403c7.385,5.16,14.704,10.385,22.044,15.566
	c2.844,1.986,2.932,1.965,4.1-1.295c1.06-2.871,1.896-5.829,2.91-8.636c0.55-1.396-0.095-2.97-1.477-3.606
	c-7.386-5.182-14.704-10.428-22.044-15.588c-4.409-3.022-4.409-3.346-2.513-8.204c0.706-1.792,1.411-3.562,2.205-5.333
	c1.741-4.059,2.535-4.318,6.128-1.771c4.762,3.368,9.479,6.758,14.197,10.126c2.358,1.706,4.739,3.389,7.054,5.138
	c1.478,1.146,2.47,1.339,3.13-0.799c0.904-3.022,2.007-6.002,3.086-8.96c0.828-1.708,0.139-3.752-1.564-4.642
	c-6.922-4.793-13.711-9.78-20.611-14.617c-1.984-1.36-2.491-2.72-1.103-4.771c1.389-2.051,2.8-4.599,4.409-6.823
	c2.204-3.217,2.932-3.346,6.041-1.123c5.113,3.642,10.214,7.326,15.299,11.054c3.417,2.482,3.813,2.354,5.004-1.555
	c0.75-2.483,1.521-4.965,2.491-7.362c0.854-1.512,0.298-3.418-1.246-4.256c-0.04-0.021-0.08-0.042-0.121-0.063
	c-4.276-2.871-8.377-5.959-12.565-8.917c-3.615-2.396-3.615-3.066-1.146-6.11c1.83-2.159,3.792-4.318,5.688-6.477
	c0.765-1.191,2.37-1.55,3.586-0.801c0.171,0.104,0.329,0.229,0.471,0.369c2.976,2.159,6.062,4.188,9.016,6.369
	c1.543,1.123,2.425,0.885,2.976-0.906c1.015-3.088,2.072-6.153,3.086-9.263c0.75-2.159-0.507-3.519-2.203-4.685
	c-3.881-2.591-3.969-3.066-0.42-6.045c7.83-6.464,16.249-12.209,25.153-17.164c0.729-0.432,1.631-1.015,2.425-0.345
	c0.794,0.669,0.441,1.792,0.155,2.699c-2.205,6.909-4.542,13.817-6.812,20.726l-13.624,41.172l-31.437,94.844
	c-6.804,20.539-13.594,41.072-20.369,61.597c-0.375,1.102-0.375,2.764-1.94,2.894c-1.565,0.131-1.808-1.468-2.204-2.568
	c-5.368-11.392-9.37-23.353-11.926-35.646c-0.177-0.819-0.639-1.771,0.243-2.375c0.881-0.604,1.896,0,2.689,0.496
	c1.631,1.06,3.196,2.159,4.784,3.325c0.948,0.689,2.205,1.273,2.646-0.131C288.857,332.709,290.103,328.992,291.071,325.203z"/>
<path fill="#2A78B4" d="M486.518,130.657c3.484,0.885,7.012,1.705,10.449,2.72c2.072,0.626,1.721,2.311,1.213,3.822
	c-3.196,9.607-6.438,19.237-9.634,28.866c-6.437,19.445-12.866,38.876-19.289,58.293c-6.745,20.366-13.513,40.718-20.303,61.056
	c-6.938,20.711-13.807,41.438-20.611,62.178c-8.127,24.469-16.254,48.895-24.381,73.277c-4.101,12.349-8.157,24.713-12.169,37.091
	c-1.521,4.687-2.028,4.966-6.613,3.195c-2.446-0.95-4.828-2.159-7.274-3.022c-2.05-0.799-2.402-1.985-1.72-4.059
	c5.38-15.978,10.625-31.976,15.916-47.951c5.82-17.432,11.61-34.781,17.371-52.055c6.938-20.885,13.889-41.754,20.854-62.61
	c10.214-30.672,20.406-61.366,30.576-92.081c7.172-21.59,14.313-43.216,21.427-64.877
	C482.99,132.406,483.719,130.506,486.518,130.657z M416.879,469.921c-3.443-0.433-6.847-1.118-10.185-2.051
	c-2.491-0.69-2.205-2.483-1.632-4.318c1.72-5.065,3.433-10.146,5.137-15.242c11.154-33.708,22.324-67.411,33.508-101.104
	c8.023-24.21,16.07-48.383,24.139-72.521c9.126-27.534,18.225-55.047,27.291-82.538c5.481-16.625,10.999-33.249,16.557-49.873
	c1.102-3.282,1.784-3.627,5.092-2.311c2.513,1.015,4.938,2.289,7.518,3.174c3.064,1.058,2.977,2.979,2.204,5.441
	c-2.204,6.153-4.188,12.328-6.239,18.502c-5.172,15.271-10.295,30.507-15.363,45.706c-7.274,22-14.439,44.13-21.715,66
	c-6.438,19.431-13.006,38.861-19.465,58.293c-7.129,21.432-14.227,42.878-21.296,64.338c-7.068,21.461-14.241,43.101-21.515,64.921
	C420.384,467.978,420.076,470.202,416.879,469.921z M468.243,130.916c-1.521,4.599-3.263,9.867-5.026,15.113
	c-5.012,15.084-10.028,30.197-15.057,45.339c-5.305,15.977-10.618,31.953-15.938,47.93c-4.916,14.811-9.743,29.643-14.638,44.454
	c-10.669,32.112-21.317,64.237-31.942,96.378c-7.348,21.892-14.645,43.784-21.89,65.677c-1.256,3.8-1.874,4.06-5.313,2.158
	c-2.535-1.425-4.96-3.064-7.451-4.533c-1.75-0.813-2.496-2.858-1.667-4.572c0.004-0.009,0.009-0.019,0.013-0.026
	c5.114-15.142,10.186-30.298,15.21-45.468c4.96-14.984,9.854-29.988,14.836-44.994c5.908-17.789,11.904-35.559,17.813-53.37
	c4.167-12.565,8.289-25.131,12.433-37.653c5.261-15.833,10.545-31.723,15.85-47.67c5.63-16.984,11.243-33.983,16.843-50.996
	c3.152-9.543,6.327-19.064,9.457-28.628c0.257-1.476,1.558-2.559,3.086-2.569c3.795-0.267,7.606-0.144,11.375,0.367
	C467.626,128.109,468.729,128.52,468.243,130.916z M324.094,418.84c0.331-1.059,0.882-2.895,1.478-4.707
	c10.288-31.146,20.647-62.295,31.083-93.441c8.817-26.425,17.577-52.865,26.276-79.32c11.154-33.565,22.347-67.152,33.574-100.76
	c0.884-2.321,1.621-4.693,2.205-7.103c0.425-2.743,2.833-4.771,5.666-4.771c2.888-0.345,5.798-0.626,8.818-0.799
	c3.417-0.216,3.879,0.367,2.888,3.519c-1.918,6.11-3.924,12.198-5.93,18.287L410.819,207.8c-4.409,13.443-8.885,26.887-13.427,40.33
	c-5.797,17.531-11.528,35.084-17.349,52.615c-4.012,12.069-8.113,24.116-12.125,36.207c-7.789,23.444-15.542,46.886-23.257,70.317
	c-2.309,6.994-4.652,13.982-7.032,20.964c-1.235,3.627-2.072,3.777-4.96,1.145l-7.099-6.477
	C324.375,421.899,323.813,420.354,324.094,418.84L324.094,418.84z M301.102,391.895c1.146-3.604,2.336-7.446,3.615-11.248
	c7.495-22.539,15.058-45.037,22.529-67.576c6.746-20.25,13.381-40.545,20.104-60.796c8.127-24.469,16.284-48.995,24.471-73.579
	c4.042-12.177,8.039-24.368,11.991-36.573c0.452-1.789,1.796-3.234,3.571-3.843c3.857-1.339,7.737-2.677,11.661-3.843
	c3.153-0.928,4.035,0,3.021,3.131c-3.087,9.564-6.262,19.107-9.413,28.649l-17.459,52.593c-5.07,15.329-10.148,30.593-15.233,45.792
	c-6.893,20.784-13.763,41.588-20.612,62.417L315.1,400.057c-0.572,1.728-1.058,3.476-1.696,5.183
	c-0.641,1.704-1.809,2.157-2.91,0.776c-3.322-3.881-6.274-8.051-8.818-12.457C301.419,393.025,301.227,392.469,301.102,391.895
	L301.102,391.895z"/>
</svg>
