<?xml version="1.0" encoding="utf-8"?>
<!-- Generator: Adobe Illustrator 14.0.0, SVG Export Plug-In . SVG Version: 6.00 Build 43363)  -->
<!DOCTYPE svg PUBLIC "-//W3C//DTD SVG 1.1//EN" "http://www.w3.org/Graphics/SVG/1.1/DTD/svg11.dtd">
<svg version="1.1" id="图层_1" xmlns="http://www.w3.org/2000/svg" xmlns:xlink="http://www.w3.org/1999/xlink" x="0px" y="0px"
	 width="900px" height="600px" viewBox="0 0 900 600" enable-background="new 0 0 900 600" xml:space="preserve">
<rect fill="#FFFFFF" width="900" height="600"/>
<g>
	<g>
		<path fill="#E3003E" d="M474.438,384.174l-21.42-35.474l-27.939-46.294c-0.865-1.273-2.314-2.075-3.899-2.157h-67.903
			l-96.458,159.822h386.363l-5.275-8.731H413.495c-2.376-0.124-4.548-1.325-5.849-3.232l-30.217-50.082
			c-0.18-0.338-0.18-0.737,0-1.075l1.471-2.437c0.116-0.344,0.5-0.532,0.858-0.422c0.209,0.064,0.373,0.221,0.44,0.422
			l27.915,46.287c0.867,1.271,2.315,2.069,3.899,2.151h220.841l-2.66-4.405H426.831c-2.377-0.123-4.55-1.324-5.848-3.232
			l-30.211-50.076c-0.18-0.338-0.18-0.738,0-1.076l1.471-2.438c0.126-0.342,0.519-0.522,0.877-0.402
			c0.197,0.066,0.352,0.215,0.42,0.402l27.933,46.294c0.868,1.271,2.315,2.069,3.899,2.151h199.769l-2.662-4.405H440.196
			c-2.376-0.124-4.548-1.325-5.848-3.233L404.13,372.45c-0.178-0.339-0.178-0.737,0-1.075l1.471-2.438
			c0.126-0.344,0.519-0.523,0.876-0.403c0.197,0.066,0.352,0.215,0.421,0.403l27.933,46.293c0.867,1.271,2.315,2.07,3.899,2.152
			h178.683l-2.662-4.406h-161.19c-2.377-0.123-4.55-1.324-5.849-3.232L417.49,359.64c-0.18-0.338-0.18-0.737,0-1.076l1.471-2.437
			c0.126-0.344,0.519-0.523,0.877-0.402c0.197,0.065,0.352,0.213,0.421,0.402l27.92,46.316c0.867,1.271,2.315,2.069,3.899,2.151
			h157.633l-2.66-4.405h-140.13c-2.378-0.125-4.55-1.325-5.849-3.233l-30.235-50.075c-0.177-0.34-0.177-0.738,0-1.076l1.471-2.438
			c0.126-0.343,0.519-0.523,0.877-0.402c0.197,0.066,0.352,0.214,0.421,0.402l27.933,46.294c0.864,1.273,2.313,2.075,3.898,2.157
			h136.554l-2.661-4.406H480.285C477.908,387.287,475.734,386.084,474.438,384.174L474.438,384.174z"/>
		<path fill="#00A0E9" d="M425.563,295.071l21.42,35.474l27.939,46.294c0.867,1.271,2.315,2.071,3.898,2.151h115.457
			L449.974,139.929l-53.067,87.981h89.623c2.377,0.125,4.549,1.325,5.848,3.233l30.217,50.082c0.182,0.337,0.182,0.738,0,1.076
			l-1.459,2.438c-0.125,0.343-0.518,0.523-0.876,0.402c-0.196-0.066-0.353-0.214-0.421-0.402l-27.933-46.294
			c-0.866-1.271-2.315-2.071-3.899-2.151h-96.152l-2.661,4.406h83.972c2.377,0.123,4.549,1.324,5.849,3.232l30.217,50.082
			c0.181,0.34,0.181,0.742,0,1.082l-1.472,2.438c-0.125,0.343-0.518,0.523-0.876,0.403c-0.197-0.066-0.353-0.214-0.421-0.403
			l-27.934-46.294c-0.867-1.271-2.314-2.07-3.898-2.151h-90.49l-2.661,4.406h78.338c2.377,0.125,4.549,1.325,5.849,3.233
			l30.217,50.081c0.18,0.339,0.18,0.737,0,1.076l-1.471,2.443c-0.126,0.343-0.519,0.522-0.877,0.401
			c-0.197-0.065-0.353-0.213-0.421-0.401l-27.951-46.312c-0.865-1.272-2.314-2.074-3.898-2.157h-84.845l-2.661,4.405h72.681
			c2.377,0.124,4.549,1.325,5.848,3.233l30.217,50.093c0.181,0.338,0.181,0.738,0,1.076l-1.471,2.438
			c-0.125,0.342-0.518,0.522-0.877,0.402c-0.196-0.066-0.352-0.215-0.42-0.402l-27.939-46.294c-0.865-1.271-2.314-2.071-3.899-2.152
			h-79.193l-2.661,4.406h67.03c2.376,0.124,4.549,1.324,5.848,3.232l30.217,50.082c0.179,0.341,0.179,0.741,0,1.081l-1.471,2.438
			c-0.126,0.344-0.519,0.523-0.877,0.402c-0.196-0.065-0.352-0.213-0.421-0.402l-27.932-46.293
			c-0.866-1.273-2.314-2.074-3.899-2.157h-73.555l-2.661,4.406h61.385C422.085,291.97,424.259,293.166,425.563,295.071
			L425.563,295.071z"/>
		<path fill="#FFFFFF" d="M491.887,238.444l27.934,46.294c0.125,0.343,0.518,0.523,0.876,0.402c0.197-0.066,0.353-0.214,0.421-0.402
			l1.472-2.438c0.181-0.338,0.181-0.738,0-1.076l-30.218-50.082c-1.299-1.908-3.471-3.108-5.848-3.233h-89.617l-5.06,8.382h96.141
			C489.572,236.373,491.021,237.172,491.887,238.444z"/>
		<path fill="#FFFFFF" d="M478.527,251.232l27.934,46.293c0.125,0.343,0.518,0.523,0.877,0.403c0.196-0.066,0.352-0.214,0.42-0.403
			l1.472-2.438c0.181-0.34,0.181-0.742,0-1.082l-30.217-50.081c-1.3-1.909-3.472-3.11-5.849-3.233h-83.972l-5.059,8.382h90.496
			C476.214,249.157,477.662,249.959,478.527,251.232z"/>
		<path fill="#FFFFFF" d="M465.162,264.014l27.934,46.294c0.125,0.343,0.518,0.523,0.877,0.402c0.195-0.065,0.352-0.214,0.42-0.402
			l1.471-2.442c0.182-0.339,0.182-0.738,0-1.076l-30.217-50.082c-1.299-1.908-3.472-3.108-5.848-3.233H381.46l-5.042,8.388h84.845
			C462.848,261.944,464.295,262.743,465.162,264.014z"/>
		<path fill="#FFFFFF" d="M451.797,276.802l27.939,46.294c0.125,0.342,0.518,0.523,0.876,0.402c0.197-0.066,0.353-0.215,0.421-0.402
			l1.471-2.438c0.181-0.338,0.181-0.738,0-1.076l-30.217-50.081c-1.299-1.908-3.471-3.109-5.848-3.233h-72.675l-5.059,8.382h79.193
			C449.482,274.731,450.932,275.53,451.797,276.802L451.797,276.802z"/>
		<path fill="#FFFFFF" d="M438.438,289.589l27.932,46.293c0.126,0.344,0.519,0.523,0.877,0.403c0.197-0.066,0.352-0.214,0.421-0.403
			l1.471-2.438c0.179-0.34,0.179-0.74,0-1.08l-30.21-50.082c-1.299-1.909-3.472-3.109-5.849-3.233h-67.03l-5.059,8.382h73.554
			C436.128,287.517,437.574,288.318,438.438,289.589L438.438,289.589z M408.113,440.801l-27.939-46.293
			c-0.115-0.344-0.5-0.531-0.858-0.422c-0.208,0.064-0.373,0.221-0.439,0.422l-1.471,2.437c-0.18,0.339-0.18,0.737,0,1.076
			l30.217,50.081c1.3,1.907,3.472,3.108,5.849,3.233h224.443l-5.053-8.383H412.006C410.425,442.869,408.979,442.07,408.113,440.801z
			"/>
		<path fill="#FFFFFF" d="M421.473,428.013l-27.933-46.294c-0.125-0.342-0.518-0.522-0.876-0.402
			c-0.197,0.066-0.352,0.215-0.421,0.402l-1.471,2.443c-0.18,0.338-0.18,0.738,0,1.076l30.217,50.082
			c1.298,1.908,3.471,3.109,5.848,3.232h203.363l-5.059-8.383H425.372C423.787,430.086,422.339,429.285,421.473,428.013
			L421.473,428.013z"/>
		<path fill="#FFFFFF" d="M434.838,415.23l-27.921-46.293c-0.125-0.344-0.518-0.523-0.876-0.403
			c-0.197,0.066-0.352,0.215-0.421,0.403l-1.471,2.438c-0.178,0.338-0.178,0.736,0,1.075l30.217,50.081
			c1.3,1.908,3.472,3.109,5.849,3.233h182.271l-5.07-8.382H438.737C437.153,417.301,435.705,416.502,434.838,415.23z"/>
		<path fill="#FFFFFF" d="M448.179,402.443l-27.915-46.295c-0.126-0.342-0.519-0.522-0.877-0.401
			c-0.197,0.065-0.352,0.214-0.421,0.401l-1.471,2.438c-0.18,0.339-0.18,0.738,0,1.076l30.217,50.082
			c1.299,1.908,3.472,3.109,5.849,3.232h161.202l-5.059-8.382H452.103C450.51,404.52,449.051,403.721,448.179,402.443z"/>
		<path fill="#FFFFFF" d="M461.563,389.655l-27.933-46.294c-0.126-0.343-0.519-0.523-0.877-0.402
			c-0.197,0.066-0.352,0.214-0.421,0.402l-1.495,2.443c-0.177,0.338-0.177,0.736,0,1.076l30.217,50.08
			c1.299,1.909,3.472,3.109,5.848,3.233h140.148l-5.06-8.382h-136.53C463.877,391.73,462.428,390.929,461.563,389.655z"/>
		<path fill="#FFFFFF" d="M478.826,379.024c-1.583-0.081-3.032-0.88-3.898-2.151l-27.945-46.294l-21.42-35.474
			c-1.3-1.907-3.472-3.108-5.849-3.232h-61.379l-5.059,8.382h67.897c1.585,0.082,3.034,0.884,3.898,2.157l27.939,46.293
			l21.42,35.475c1.299,1.908,3.472,3.109,5.848,3.232h119.057l-5.059-8.382L478.826,379.024z"/>
	</g>
</g>
</svg>
