<?xml version="1.0" encoding="utf-8"?>
<!-- Generator: Adobe Illustrator 14.0.0, SVG Export Plug-In . SVG Version: 6.00 Build 43363)  -->
<!DOCTYPE svg PUBLIC "-//W3C//DTD SVG 1.1//EN" "http://www.w3.org/Graphics/SVG/1.1/DTD/svg11.dtd">
<svg version="1.1" id="图层_1" xmlns="http://www.w3.org/2000/svg" xmlns:xlink="http://www.w3.org/1999/xlink" x="0px" y="0px"
	 width="900px" height="600px" viewBox="0 0 900 600" enable-background="new 0 0 900 600" xml:space="preserve">
<rect fill="#F6941F" width="900" height="600"/>
<path fill="#1471B8" d="M510.004,217.338c2.63-3.834,6.546-6.432,9.669-9.787c3.441-3.676,3.54-3.635-0.691-6.571
	c-15.754-11.323-34.032-18.542-53.212-21.014c-40.022-4.794-74.31,7.331-102.369,36.354c-18.091,18.656-29.498,42.882-32.409,68.832
	c-0.703,7.301-0.968,14.639-0.791,21.973c0,3.994,1.206,5.253,5.299,5.232c66.322-0.146,132.637-0.146,198.945,0
	c1.8,0,4.548-0.898,5.181,0.539c0.87,1.998-1.858,3.156-3.184,4.495l-75.14,75.903c-1.073,1.627-2.698,2.799-4.568,3.297v-9.209
	c0-7.65-0.119-15.301,0-22.951c0-3.156-0.87-4.115-3.955-4.095c-24.855,0.12-49.711,0-74.547,0h-81.746
	c-3.282,0-4.884-0.839-5.932-4.175c-19.497-60.982-9.709-116.892,30.787-166.508c27.684-33.957,64.068-53.533,107.195-59.025
	c67.531-8.889,133.725,24.139,167.781,83.713c1.838,3.156,1.088,3.775-2.215,3.756h-81.33
	C511.923,218.058,510.934,218.438,510.004,217.338z"/>
<path fill="#FFFFFF" d="M390.115,382.709c-3.757,3.734-7.237,7.37-10.935,10.766c-1.979,1.878-1.979,2.996,0.316,4.595
	c15.927,11.813,34.549,19.37,54.141,21.972c39.765,4.934,74.092-6.891,102.27-35.654c18.322-18.641,29.936-42.945,32.982-69.033
	c0.717-7.199,1.007-14.437,0.871-21.672c0-2.916-0.988-3.635-3.678-3.596H362.669c-1.385,0-1.582-0.818-0.712-1.817
	s2.194-2.337,3.321-3.476l75.576-76.264c0.938-1.227,2.252-2.104,3.737-2.496v9.986c0,6.972,0.139,13.982,0,20.934
	c-0.118,3.576,1.147,4.515,4.588,4.515c51.688-0.259,103.358,1.219,155.048,0.54c3.953,0,5.438,1.258,6.523,4.973
	c16.314,55.051,9.076,106.585-24.104,153.386c-25.805,36.413-61.299,58.944-104.939,67.235
	c-47.635,9.027-91.276-1.119-130.745-29.324c-19.272-13.951-35.399-31.869-47.319-52.572c-1.285-2.178-2.115-3.995,1.74-3.995
	c27.9,0.14,55.803,0.18,83.703,0.28C389.126,382.029,389.226,382.149,390.115,382.709L390.115,382.709z"/>
</svg>
