<?xml version="1.0" encoding="utf-8"?>
<!-- Generator: Adobe Illustrator 14.0.0, SVG Export Plug-In . SVG Version: 6.00 Build 43363)  -->
<!DOCTYPE svg PUBLIC "-//W3C//DTD SVG 1.1//EN" "http://www.w3.org/Graphics/SVG/1.1/DTD/svg11.dtd">
<svg version="1.1" id="图层_1" xmlns="http://www.w3.org/2000/svg" xmlns:xlink="http://www.w3.org/1999/xlink" x="0px" y="0px"
	 width="900px" height="600px" viewBox="0 0 900 600" enable-background="new 0 0 900 600" xml:space="preserve">
<rect fill="#FFFFFF" width="900" height="600"/>
<g>
	<path fill="#F9BE03" d="M330.781,431.363c29.001,23.094,70.648,20.766,96.91-5.416l11.182,11.158
		c-35.933,33.211-91.91,30.924-125.029-5.107c-31.198-33.941-31.232-86.201-0.078-120.184l33.6-33.529l-11.29-11.213
		c-22.148-22.299-22.148-58.357,0-80.656c22.237-22.209,58.196-22.209,80.434,0l-11.128,11.321
		c-17.05-15.032-43.025-13.357-58.016,3.74c-13.647,15.565-13.647,38.871,0,54.437l10.804,11.159l29.062-29.142l19.717-19.717
		l20.744-20.476l11.127,10.834l-20.527,20.583l-48.617,48.751l69.144,69.822l-11.127,11.213l-69.522-69.498l-33.492,33.583
		c-26.11,26.335-28.431,68.098-5.402,97.178c3.265,4.141,6.999,7.885,11.128,11.158"/>
	<path fill="#42C014" d="M580.347,420.205c23.029-29.08,20.708-70.843-5.401-97.178l11.128-11.213
		c33.119,36.032,30.838,92.164-5.095,125.376c-33.847,31.284-85.963,31.317-119.852,0.077l-33.437-33.691l-11.182,11.32
		c-22.261,22.15-58.172,22.15-80.434,0c-22.148-22.299-22.148-58.357,0-80.656l11.29,11.158
		c-14.991,17.099-13.321,43.145,3.729,58.178c15.522,13.685,38.764,13.685,54.287,0l11.128-10.834l-22.04-22.101l-7.022-7.042
		l-19.663-19.771l-20.419-20.801l10.804-11.158l20.527,20.584l48.617,48.752l69.63-69.336l11.181,11.158l-69.305,69.715
		l33.492,33.584c26.251,26.205,67.917,28.535,96.909,5.416c4.129-3.273,7.863-7.018,11.128-11.158"/>
	<path fill="#0098FF" d="M569.219,169.95c-29-23.093-70.647-20.765-96.909,5.417l-11.183-11.321
		c35.253-33.936,91.266-32.79,125.107,2.559c32.871,34.334,32.871,88.56,0,122.894l-33.6,33.529l11.183,11.213
		c22.089,22.324,22.089,58.334,0,80.656c-22.249,22.18-58.185,22.18-80.435,0l11.236-11.32c17.051,15.031,43.025,13.357,58.016-3.74
		c13.648-15.564,13.648-38.871,0-54.438l-10.803-11.158l-29.063,29.143L493.053,383.1l-20.743,20.477l-11.128-10.834l20.527-20.584
		l48.617-48.751l-69.145-69.822l11.128-11.213l69.522,69.497l33.491-33.583c26.109-26.334,28.431-68.096,5.401-97.177
		c-3.265-4.14-6.999-7.885-11.127-11.158"/>
	<path fill="#FF5B00" d="M319.653,181.108c-23.03,29.081-20.708,70.843,5.402,97.177l-11.29,11.212
		c-33.843-35.349-32.701-91.516,2.551-125.453c34.24-32.961,88.316-32.961,122.556,0l33.438,33.692l11.182-11.321
		c22.237-22.209,58.196-22.209,80.435,0c22.118,22.311,22.118,58.345,0,80.656l-11.291-11.159
		c14.991-17.098,13.322-43.144-3.729-58.176c-15.522-13.685-38.765-13.685-54.287,0l-11.128,10.834l29.062,29.142l19.664,19.771
		l20.526,20.584l-10.911,11.375l-20.527-20.583l-48.617-48.751l-69.63,69.335l-11.182-11.158l69.306-69.714l-33.491-33.584
		c-26.262-26.182-67.909-28.51-96.91-5.417C326.63,172.962,322.895,176.835,319.653,181.108"/>
</g>
</svg>
