<?xml version="1.0" encoding="utf-8"?>
<!-- Generator: Adobe Illustrator 14.0.0, SVG Export Plug-In . SVG Version: 6.00 Build 43363)  -->
<!DOCTYPE svg PUBLIC "-//W3C//DTD SVG 1.1//EN" "http://www.w3.org/Graphics/SVG/1.1/DTD/svg11.dtd">
<svg version="1.1" id="图层_1" xmlns="http://www.w3.org/2000/svg" xmlns:xlink="http://www.w3.org/1999/xlink" x="0px" y="0px"
	 width="900px" height="600px" viewBox="0 0 900 600" enable-background="new 0 0 900 600" xml:space="preserve">
<rect fill="#036EB7" width="900" height="600"/>
<path fill="#FDD300" d="M454.195,285.71l0.205-156.003h-4.311c-92.814-0.068-168.109,76.116-168.176,170.162
	c-0.035,48.988,20.753,95.619,57.052,127.977l-0.445-228.804L454.195,285.71z"/>
<path fill="#F29600" d="M501.992,383.645l0.375-245.548c-7.297-2.415-14.75-4.315-22.306-5.686l-0.308,203.913l-115.607-86.772
	l0.376,196.98c7.107,4.282,14.518,8.024,22.17,11.196l-0.308-160.855L501.992,383.645z"/>
<path fill="#FFFFFF" d="M524.675,147.353l-0.411,283.613l-115.64-86.772l0.239,120.885c90.014,23.01,181.392-32.277,204.099-123.485
	C632.314,263.861,595.55,182.978,524.675,147.353z"/>
</svg>
