<svg id="svg" version="1.1" xmlns="http://www.w3.org/2000/svg" xmlns:xlink="http://www.w3.org/1999/xlink" width="400" height="266.25" viewBox="0, 0, 400,266.25"><g id="svgg"><path id="path0" d="M0.000 133.156 L 0.000 266.312 200.000 266.312 L 400.000 266.312 400.000 133.156 L 400.000 0.000 200.000 0.000 L 0.000 0.000 0.000 133.156 M207.360 26.919 C 228.711 29.889,237.671 55.969,222.666 71.468 C 219.739 74.493,216.542 76.569,212.583 78.018 L 210.919 78.627 210.919 100.831 L 210.919 123.036 233.391 123.036 L 255.864 123.036 256.319 121.638 C 261.785 104.834,282.821 98.250,297.110 108.872 C 315.818 122.779,308.652 152.168,285.571 156.193 C 272.798 158.420,259.047 149.645,255.937 137.284 C 255.753 136.551,255.547 135.742,255.480 135.486 C 255.364 135.047,254.075 135.020,233.138 135.020 L 210.919 135.020 210.919 158.730 C 210.919 177.466,210.989 182.462,211.252 182.542 C 227.064 187.382,234.647 205.024,227.284 219.840 C 219.456 235.593,198.385 239.153,185.519 226.898 C 170.610 212.696,177.119 187.706,197.137 182.297 L 198.935 181.812 198.935 158.416 L 198.935 135.020 175.815 135.020 L 152.696 135.020 152.065 137.203 C 146.441 156.668,122.364 163.013,108.034 148.807 C 94.631 135.520,99.157 112.838,116.643 105.663 C 130.310 100.055,146.521 107.064,151.281 120.639 C 151.614 121.591,152.002 122.521,152.143 122.705 C 152.345 122.969,157.233 123.025,175.600 122.971 L 198.802 122.903 198.802 101.065 L 198.802 79.228 197.204 78.743 C 187.310 75.741,180.448 68.820,178.109 59.488 C 173.611 41.541,189.032 24.370,207.360 26.919 M223.245 53.129 C 223.247 53.862,223.299 54.130,223.360 53.725 C 223.421 53.320,223.420 52.721,223.357 52.393 C 223.293 52.066,223.243 52.397,223.245 53.129 M126.036 110.444 C 126.440 110.505,127.040 110.504,127.367 110.440 C 127.695 110.377,127.364 110.327,126.631 110.329 C 125.899 110.331,125.631 110.383,126.036 110.444 M280.763 110.444 C 281.167 110.505,281.767 110.504,282.094 110.440 C 282.422 110.377,282.091 110.327,281.358 110.329 C 280.626 110.331,280.358 110.383,280.763 110.444 M122.903 113.456 C 122.547 113.613,122.768 113.639,123.569 113.533 C 124.228 113.446,124.817 113.331,124.878 113.279 C 125.109 113.078,123.411 113.230,122.903 113.456 M128.384 113.279 C 128.445 113.331,129.035 113.446,129.694 113.533 C 130.494 113.639,130.715 113.613,130.360 113.456 C 129.851 113.230,128.153 113.078,128.384 113.279 M277.630 113.456 C 277.274 113.613,277.495 113.639,278.296 113.533 C 278.955 113.446,279.544 113.331,279.605 113.279 C 279.836 113.078,278.138 113.230,277.630 113.456 M283.111 113.281 C 283.172 113.336,283.822 113.450,284.554 113.534 C 285.452 113.638,285.669 113.614,285.220 113.462 C 284.554 113.236,282.902 113.094,283.111 113.281 M264.509 128.096 C 264.509 128.609,264.564 128.818,264.631 128.562 C 264.698 128.306,264.698 127.886,264.631 127.630 C 264.564 127.374,264.509 127.583,264.509 128.096 M271.448 130.093 C 271.450 130.826,271.501 131.094,271.563 130.689 C 271.624 130.284,271.622 129.685,271.559 129.357 C 271.496 129.030,271.446 129.361,271.448 130.093 M291.421 130.093 C 291.423 130.826,291.475 131.094,291.536 130.689 C 291.597 130.284,291.596 129.685,291.532 129.357 C 291.469 129.030,291.419 129.361,291.421 130.093 M264.509 132.091 C 264.509 132.603,264.564 132.813,264.631 132.557 C 264.698 132.300,264.698 131.881,264.631 131.625 C 264.564 131.368,264.509 131.578,264.509 132.091 M125.341 147.071 C 125.409 147.180,125.989 147.270,126.631 147.270 C 127.273 147.270,127.854 147.180,127.922 147.071 C 127.989 146.961,127.409 146.871,126.631 146.871 C 125.854 146.871,125.273 146.961,125.341 147.071 M280.068 147.071 C 280.136 147.180,280.783 147.270,281.507 147.270 C 282.231 147.270,282.823 147.180,282.823 147.071 C 282.823 146.961,282.175 146.871,281.384 146.871 C 280.592 146.871,280.000 146.961,280.068 147.071 M125.375 149.597 C 126.149 149.651,127.347 149.651,128.038 149.596 C 128.729 149.542,128.096 149.497,126.631 149.498 C 125.166 149.499,124.601 149.543,125.375 149.597 M280.102 149.597 C 280.876 149.651,282.074 149.651,282.765 149.596 C 283.456 149.542,282.823 149.497,281.358 149.498 C 279.893 149.499,279.328 149.543,280.102 149.597 M223.245 207.856 C 223.247 208.589,223.299 208.857,223.360 208.452 C 223.421 208.047,223.420 207.448,223.357 207.120 C 223.293 206.793,223.243 207.124,223.245 207.856 " stroke="none" fill="#1e90ff" fill-rule="evenodd"></path><path id="path1" d="M199.867 26.927 C 178.642 29.987,169.917 56.370,185.069 71.672 C 188.497 75.134,191.958 77.151,197.204 78.743 L 198.802 79.228 198.802 101.065 L 198.802 122.903 175.600 122.971 C 157.233 123.025,152.345 122.969,152.143 122.705 C 152.002 122.521,151.614 121.591,151.281 120.639 C 146.521 107.064,130.310 100.055,116.643 105.663 C 99.157 112.838,94.631 135.520,108.034 148.807 C 122.364 163.013,146.441 156.668,152.065 137.203 L 152.696 135.020 175.815 135.020 L 198.935 135.020 198.935 158.416 L 198.935 181.812 197.137 182.297 C 177.119 187.706,170.610 212.696,185.519 226.898 C 202.423 242.999,229.868 231.317,229.945 207.989 C 229.984 195.880,222.778 186.070,211.252 182.542 C 210.989 182.462,210.919 177.466,210.919 158.730 L 210.919 135.020 233.138 135.020 C 254.075 135.020,255.364 135.047,255.480 135.486 C 255.547 135.742,255.753 136.551,255.937 137.284 C 259.047 149.645,272.798 158.420,285.571 156.193 C 308.652 152.168,315.818 122.779,297.110 108.872 C 282.821 98.250,261.785 104.834,256.319 121.638 L 255.864 123.036 233.391 123.036 L 210.919 123.036 210.919 100.831 L 210.919 78.627 212.583 78.018 C 227.248 72.651,234.162 56.161,227.711 41.934 C 223.005 31.554,211.347 25.271,199.867 26.927 M223.360 53.725 C 223.299 54.130,223.247 53.862,223.245 53.129 C 223.243 52.397,223.293 52.066,223.357 52.393 C 223.420 52.721,223.421 53.320,223.360 53.725 M127.367 110.440 C 127.040 110.504,126.440 110.505,126.036 110.444 C 125.631 110.383,125.899 110.331,126.631 110.329 C 127.364 110.327,127.695 110.377,127.367 110.440 M282.094 110.440 C 281.767 110.504,281.167 110.505,280.763 110.444 C 280.358 110.383,280.626 110.331,281.358 110.329 C 282.091 110.327,282.422 110.377,282.094 110.440 M124.878 113.279 C 124.817 113.331,124.228 113.446,123.569 113.533 C 122.768 113.639,122.547 113.613,122.903 113.456 C 123.411 113.230,125.109 113.078,124.878 113.279 M130.360 113.456 C 130.715 113.613,130.494 113.639,129.694 113.533 C 129.035 113.446,128.445 113.331,128.384 113.279 C 128.153 113.078,129.851 113.230,130.360 113.456 M279.605 113.279 C 279.544 113.331,278.955 113.446,278.296 113.533 C 277.495 113.639,277.274 113.613,277.630 113.456 C 278.138 113.230,279.836 113.078,279.605 113.279 M285.220 113.462 C 285.669 113.614,285.452 113.638,284.554 113.534 C 283.822 113.450,283.172 113.336,283.111 113.281 C 282.902 113.094,284.554 113.236,285.220 113.462 M264.631 128.562 C 264.564 128.818,264.509 128.609,264.509 128.096 C 264.509 127.583,264.564 127.374,264.631 127.630 C 264.698 127.886,264.698 128.306,264.631 128.562 M271.563 130.689 C 271.501 131.094,271.450 130.826,271.448 130.093 C 271.446 129.361,271.496 129.030,271.559 129.357 C 271.622 129.685,271.624 130.284,271.563 130.689 M291.536 130.689 C 291.475 131.094,291.423 130.826,291.421 130.093 C 291.419 129.361,291.469 129.030,291.532 129.357 C 291.596 129.685,291.597 130.284,291.536 130.689 M264.631 132.557 C 264.564 132.813,264.509 132.603,264.509 132.091 C 264.509 131.578,264.564 131.368,264.631 131.625 C 264.698 131.881,264.698 132.300,264.631 132.557 M127.922 147.071 C 127.854 147.180,127.273 147.270,126.631 147.270 C 125.989 147.270,125.409 147.180,125.341 147.071 C 125.273 146.961,125.854 146.871,126.631 146.871 C 127.409 146.871,127.989 146.961,127.922 147.071 M282.823 147.071 C 282.823 147.180,282.231 147.270,281.507 147.270 C 280.783 147.270,280.136 147.180,280.068 147.071 C 280.000 146.961,280.592 146.871,281.384 146.871 C 282.175 146.871,282.823 146.961,282.823 147.071 M128.038 149.596 C 127.347 149.651,126.149 149.651,125.375 149.597 C 124.601 149.543,125.166 149.499,126.631 149.498 C 128.096 149.497,128.729 149.542,128.038 149.596 M282.765 149.596 C 282.074 149.651,280.876 149.651,280.102 149.597 C 279.328 149.543,279.893 149.499,281.358 149.498 C 282.823 149.497,283.456 149.542,282.765 149.596 M223.360 208.452 C 223.299 208.857,223.247 208.589,223.245 207.856 C 223.243 207.124,223.293 206.793,223.357 207.120 C 223.420 207.448,223.421 208.047,223.360 208.452 " stroke="none" fill="#ffffff" fill-rule="evenodd"></path></g></svg>