<?xml version="1.0" encoding="utf-8" standalone="yes"?>
<!DOCTYPE svg PUBLIC "-//W3C//DTD SVG 1.1//EN" "http://www.w3.org/Graphics/SVG/1.1/DTD/svg11.dtd">
<svg xmlns="http://www.w3.org/2000/svg" xmlns:xlink="http://www.w3.org/1999/xlink" version="1.1" width="600" height="400">
<rect width="600" height="400" x="0" y="0" fill="#660099" /><polygon points="600,400 600,0 0,400" fill="#660099" />
<path d="M 203.520,-126.170 A 300.000,400.000 40.000 1,1 663.147,259.503 z" fill="#000000" /><path d="M -63.147,259.503 A 300.000,400.000 320.000 1,1 396.480,-126.170 z" fill="#000000" /><path d="M 603.147,207.164 A 300.000,400.000 140.000 1,1 143.520,592.836 z" fill="#000000" /><path d="M 456.480,592.836 A 300.000,400.000 220.000 1,1 -3.147,207.164 z" fill="#000000" /><polygon points="33.333,0 0,0 0,22.222 566.667,400 600,400 600,377.778 33.333,0" fill="#000000" /><polygon points="566.667,0 600,0 600,22.222 33.333,400 0,400 0,377.778 566.667,0" fill="#000000" /><polygon points="0,0 300.000,200.000 283.333,200.000 0,11.111" fill="#ffffff" /><polygon points="300.000,200.000 300.000,188.889 583.333,0 600,0" fill="#ffffff" /><polygon points="300.000,200.000 300.000,211.111 16.667,400 0,400" fill="#ffffff" /><polygon points="300.000,200.000 316.667,200.000 600,388.889 600,400" fill="#ffffff" /></svg>
