<?xml version="1.0" encoding="utf-8" standalone="yes"?>
<!DOCTYPE svg PUBLIC "-//W3C//DTD SVG 1.1//EN" "http://www.w3.org/Graphics/SVG/1.1/DTD/svg11.dtd">
<svg xmlns="http://www.w3.org/2000/svg" xmlns:xlink="http://www.w3.org/1999/xlink" version="1.1" width="600" height="400">
<rect width="600" height="400" x="0" y="0" fill="#6299ab" /><polygon points="600,400 600,0 0,400" fill="#990000" />
<g transform="translate(137.500,137.500) rotate(0.000) scale(1.250)"><path d="M 0 -104.1875 L -25 -33.34375 L 0 -0.21875 L 0 -104.1875 z M 0 -0.21875 L 100.03125 -33.34375 L 25 -33.34375 L 0 -0.21875 z M 0 -0.21875 L 62.53125 83.375 L 41.6875 12.5 L 0 -0.21875 z M 0 -0.21875 L -62.53125 83.375 L 0 41.6875 L 0 -0.21875 z M 0 -0.21875 L -100.03125 -33.34375 L -41.6875 12.5 L 0 -0.21875 z" fill="#ffffff"  /></g><polygon points="587.500,0 600,0 600,8.333 12.500,400 0,400 0,391.667 587.500,0" fill="#000000" /></svg>
