<?xml version="1.0" encoding="utf-8" standalone="yes"?>
<!DOCTYPE svg PUBLIC "-//W3C//DTD SVG 1.1//EN" "http://www.w3.org/Graphics/SVG/1.1/DTD/svg11.dtd">
<svg xmlns="http://www.w3.org/2000/svg" xmlns:xlink="http://www.w3.org/1999/xlink" version="1.1" width="600" height="400">
<rect width="600" height="400" x="0" y="0" fill="#660099" /><rect width="600.000" height="400.000" x="0.000" y="0.000" fill="#660099" />
<g transform="translate(0.000,0.000) rotate(0.000) scale(2.479)"><path d="m 4.9e-6,-121 -7.5,89 a 7.5,7.5 0 0 0 15,0 L 4.9e-6,-121 z m -44.8437499,12.78125 21.875,67.124995 a 5.5,5.5 0 1 0 10.15625,-4.1875 l -32.03125,-62.937495 z m 89.6875,0 -32.03125,62.937495 a 5.5,5.5 0 1 0 10.15625,4.1875 l 21.875,-67.124995 z m -130.40625,22.656245 57.625,68.25 a 7.5130096,7.5130096 0 1 0 10.625,-10.625 l -68.25,-57.625 z m 171.125,0 -68.25,57.625 a 7.5130096,7.5130096 0 1 0 10.625,10.625 l 57.625,-68.25 z m -193.781255,40.71875 62.937505,32.03125 a 5.5,5.5 0 1 0 4.1875,-10.15625 l -67.125005,-21.875 z m 216.4375,0 -67.124995,21.875 a 5.5,5.5 0 1 0 4.1875,10.15625 l 62.937495,-32.03125 z M 4.9e-6,-19.5 c -10.7695499,0 -19.5,8.73045 -19.5,19.5 0,10.76954966 8.73045,19.5 19.5,19.5 10.7695501,0 19.5,-8.73045 19.5,-19.5 C 19.5,-10.769555 10.769555,-19.5 4.9e-6,-19.5 z M -32,-7.5 -121,-4.66e-6 -32,7.4999953 a 7.5,7.5 0 0 0 0,-15 z m 64,0 a 7.5,7.5 0 1 0 0,15 L 121,-4.66e-6 32,-7.5 z m 11.15625,19.8749997 a 5.5,5.5 0 0 0 -2.0625,10.59375 l 67.124995,21.875 -62.937495,-32.03125 a 5.5,5.5 0 0 0 -2.125,-0.4375 z m -86.625,0.03125 a 5.5,5.5 0 0 0 -1.8125,0.40625 l -62.937505,32.03125 67.125005,-21.875 a 5.5,5.5 0 0 0 -2.375,-10.5625 z m 20.53125,2.71875 a 7.5,7.5 0 0 0 -5,2.1875 l -57.625,68.25 68.25,-57.625 a 7.5,7.5 0 0 0 -5.625,-12.8125 z m 45.46875,0 a 7.5,7.5 0 0 0 -5.21875,12.8125 l 68.25,57.625 -57.625,-68.25 a 7.5,7.5 0 0 0 -5.40625,-2.1875 z m -22.75,9.375 a 7.5,7.5 0 0 0 -7.28124998,7.5 L 4.9e-6,121 l 7.5,-89 a 7.5,7.5 0 0 0 -7.71875002,-7.5 z m -17.875,13.1875 a 5.5,5.5 0 0 0 -4.875,3.40625 l -21.875,67.125005 32.03125,-62.937505 a 5.5,5.5 0 0 0 -5.28125,-7.59375 z m 35.875,0 a 5.5,5.5 0 0 0 -4.96875,7.59375 l 32.03125,62.937505 -21.875,-67.125005 a 5.5,5.5 0 0 0 -5.1875,-3.40625 z" fill="#fddd00"  /></g><g transform="translate(400.000,200.000) rotate(0.000) scale(1.802)"><path d="m -0.4843747,-54.366127 c -1.25109,0.02695 -2.473955,1.045785 -3.046875,1.59375 -3.846085,0.514125 -7.3641003,2.06916 -10.1250003,4.75 -3.3935,3.2951 -5.56961,8.16111 -6.25,14.34375 -0.69757,6.33894 1.05909,13.41249 2.875,19.03125 1.81591,5.6187593 3.8125,9.8124993 3.8125,9.8124993 l 0.578125,1.25 -22.9375,30.8750007 -4.515625,-1.5625 L -48,42.586998 c 0,0 19.546875,12.24125 47.9218753,11.90625 31.1439997,-0.37035 48.0624997,-12.46875 48.0624997,-12.46875 l -8.15625,-16.640625 -4,1.734375 -24.484375,-32.3750007 1.09375,0.421875 c 0,0 2.07438,-4.26921 3.9375,-9.9999993 1.86312,-5.73079 3.60353,-12.92763 2.6875,-19.375 -0.8657,-6.09312 -2.78248,-10.87581 -6.1875,-14.125 -2.64831,-2.52711 -6.09314,-3.95535 -10.1249997,-4.4375 -0.471755,-0.442455 -1.8365,-1.60821 -3.234375,-1.578125 l 0,-0.01563 z m 3.453125,6.640625 c 2.7646397,0.435535 4.8340697,1.45575 6.4687497,3.015625 2.30173,2.1964 3.9152,5.75172 4.6875,11.1875 0.70707,4.97663 -0.74874,11.76954 -2.5,17.15625 -1.20928,3.719625 -2.2624,6.162995 -2.921875,7.6249993 L 4.84375,-13.850502 4.79688,-25.803627 l 5.171875,0 -7.0312497,-6.609375 0.03125,-15.3125 z m -6.8125,0.0625 0.125,15.46875 -6.3906253,6.6875 5.1718753,0 -0.046875,11.609375 -4.0625,5.4687493 -0.234375,0 c -0.44792,-0.9791 -1.5563903,-3.2831993 -3.0000003,-7.7499993 -1.71176,-5.29649 -3.17193,-11.96744 -2.625,-16.9375 0.58681,-5.33236 2.34872,-8.98085 4.75,-11.3125 1.7297053,-1.679545 3.8305803,-2.751305 6.3125003,-3.234375 z M 36.3125,30.915123 37.578125,32.758873 34,38.055748 l -3.6875,-4.71875 6,-2.421875 z m -73.765625,1.71875 1.484375,4.625 -4.375,0.921875 c 0,0 2.544825,-5.085815 2.890625,-5.546875 z m 4.609375,0.125 6.453125,1.953125 1.5,3.21875 -5.65625,1.625 -2.296875,-6.796875 z m 59.015625,2.0625 1.84375,1.96875 -5.421875,4.265625 -3.34375,-4.15625 6.921875,-2.078125 z m 12.5625,0.703125 2.1875,4.375 -4.375,1.5 -0.359375,-2.078125 2.546875,-3.796875 z m -59.71875,0.6875 6.453125,1.375 1.84375,2.78125 -5.640625,2.1875 -2.65625,-6.34375 z m 35.046875,1.15625 1.734375,2.53125 -6.453125,3.125 -2.78125,-4.734375 7.5,-0.921875 z m -22.9374997,0.6875 10.484375,0.46875 0.921875,2.1875 -8.1875,3 -3.21875,-5.65625 z m 38.0312497,1.03125 3.34375,4.5 -7.140625,1.84375 -1.390625,-2.421875 5.1875,-3.921875 z m -64.09375,0.125 0.9375,3.6875 -5.546875,-2.1875 4.609375,-1.5 z m 10.953125,1.046875 3,6.328125 -7.484375,-1.84375 -0.8125,-2.765625 5.296875,-1.71875 z m 41.15625,1.609375 3.921875,4.609375 -8.65625,1.375 -1.71875,-2.765625 6.453125,-3.21875 z m -28.46875,0.921875 3.6875003,5.765625 -8.7656253,-1.28125 -0.921875,-2.40625 6,-2.078125 z m 15.2187503,0 3.7968747,5.640625 -10.1406247,0.34375 -1.734375,-3 8.078125,-2.984375 z" fill="#ffffff"  /></g></svg>
