<?xml version="1.0" encoding="utf-8" standalone="yes"?>
<!DOCTYPE svg PUBLIC "-//W3C//DTD SVG 1.1//EN" "http://www.w3.org/Graphics/SVG/1.1/DTD/svg11.dtd">
<svg xmlns="http://www.w3.org/2000/svg" xmlns:xlink="http://www.w3.org/1999/xlink" version="1.1" width="600" height="400">
<rect width="600" height="400" x="0" y="0" fill="#ffffff" /><rect width="400.000" height="400" x="0" y="0" fill="#337320" /><rect width="200.000" height="400" x="0" y="0" fill="#000099" />
<g transform="translate(66.667,66.667) rotate(0.000) scale(0.333)"><path d="M -83.20869,-55.472461 A 50.0022,50.0022 0 1 0 0,0 50.0022,50.0022 0 0 1 83.20869,55.472461 100.0044,100.0044 0 0 1 -83.20869,-55.472461 z" fill="#c50b2f"  /></g><g transform="translate(533.333,333.333) rotate(0.000) scale(0.333)"><path d="M 83.20869,-55.472461 A 50.0022,50.0022 0 0 1 0,0 50.0022,50.0022 0 1 0 -83.20869,55.472461 100.0044,100.0044 0 1 0 83.20869,-55.472461 z" fill="#000000"  /></g><g transform="translate(300.000,200.000) rotate(0.000) scale(1.087)"><path d="m 11,58.4 c 0,20 14,25 20.93525,33 L -32,91.4 c 10,-9 21,-18 21,-33 l 0,-19 c -14,13 -29,18 -47,23 4,-13 19,-15 25,-28 -23,13 -25,13 -46,4 19,-10 26,-10 37,-28 -15,12 -20,10 -40,2 22,-8 27,-7 46,-27 -12,0 -21,-1 -36,1 19,-9 32,-15 47,-25 -9,1 -19,-1 -29,-2 10,-8 28,-17 40,-26 -7,1 -12,1 -19,0 12,-6 26.0000003,-15 33.00000030000001,-25 C 10,-80.6 24,-70.6 38,-64.6 c -6,1 -16,3 -22,0 12,10 22,21 36,27 -8,1 -14,-1 -22,-1 13,10 23,17 37,25 -11,1 -15,0 -26,-3 13,13 19,14 41,30 -16,2 -20,3 -36,1 16,15 18,16 36,26 -10,1 -32,3 -45,-4 3,10 15,21 22,28 -17,-3 -33,-10 -48,-25 l 0,19 z" fill="#fddd00"  /></g></svg>
