<?xml version="1.0" encoding="utf-8" standalone="yes"?>
<!DOCTYPE svg PUBLIC "-//W3C//DTD SVG 1.1//EN" "http://www.w3.org/Graphics/SVG/1.1/DTD/svg11.dtd">
<svg xmlns="http://www.w3.org/2000/svg" xmlns:xlink="http://www.w3.org/1999/xlink" version="1.1" width="600" height="400">
<rect width="600" height="400" x="0" y="0" fill="#009900" /><polygon points="0,0 600,400 600,0 0,400" fill="#fddd00" />
<polygon points="0,0 300.000,200.000 250.000,200.000 0,33.333" fill="#000099" /><polygon points="300.000,200.000 300.000,166.667 550.000,0 600,0" fill="#000099" /><polygon points="300.000,200.000 300.000,233.333 50.000,400 0,400" fill="#000099" /><polygon points="300.000,200.000 350.000,200.000 600,366.667 600,400" fill="#000099" /><path d="M 0,0 600,0 600,400 0,400 Z M 100.000,100.000 500.000,100.000 500.000,300.000 100.000,300.000 Z" fill="#c50b2f" fill-rule="evenodd" /></svg>
