<?xml version="1.0" encoding="utf-8" standalone="yes"?>
<!DOCTYPE svg PUBLIC "-//W3C//DTD SVG 1.1//EN" "http://www.w3.org/Graphics/SVG/1.1/DTD/svg11.dtd">
<svg xmlns="http://www.w3.org/2000/svg" xmlns:xlink="http://www.w3.org/1999/xlink" version="1.1" width="600" height="400">
<rect width="600" height="400" x="0" y="0" fill="#337320" /><rect width="300.000" height="200.000" x="0.000" y="0.000" fill="#337320" /><rect width="300.000" height="200.000" x="0.000" y="200.000" fill="#ffffff" /><rect width="300.000" height="200.000" x="300.000" y="0.000" fill="#ffffff" /><rect width="300.000" height="200.000" x="300.000" y="200.000" fill="#337320" />
<path d="M 0,0 600,0 600,400 0,400 Z M 100.000,100.000 500.000,100.000 500.000,300.000 100.000,300.000 Z" fill="#000000" fill-rule="evenodd" /><g transform="translate(200.000,200.000) rotate(0.000) scale(10.000)"><path d="M 3,10 3,3 10,3 10,-3 3,-3 3,-10 -3,-10 -3,-3 -10,-3 -10,3 -3,3 -3,10 Z" fill="#000000"  /></g><g transform="translate(400.000,200.000) rotate(0.000) scale(10.000)"><path d="M 3,10 3,3 10,3 10,-3 3,-3 3,-10 -3,-10 -3,-3 -10,-3 -10,3 -3,3 -3,10 Z" fill="#000000"  /></g></svg>
