<?xml version="1.0" encoding="utf-8" standalone="yes"?>
<!DOCTYPE svg PUBLIC "-//W3C//DTD SVG 1.1//EN" "http://www.w3.org/Graphics/SVG/1.1/DTD/svg11.dtd">
<svg xmlns="http://www.w3.org/2000/svg" xmlns:xlink="http://www.w3.org/1999/xlink" version="1.1" width="600" height="400">
<rect width="600" height="400" x="0" y="0" fill="#ffffff" /><rect width="300.000" height="200.000" x="0.000" y="0.000" fill="#ffffff" /><rect width="300.000" height="200.000" x="0.000" y="200.000" fill="#ffffff" /><rect width="300.000" height="200.000" x="300.000" y="0.000" fill="#ffffff" /><rect width="300.000" height="200.000" x="300.000" y="200.000" fill="#ffffff" />
<polygon points="0.000,0.000 200.000,400.000 600.000,400.000 400.000,200.000" fill="#000000" /><g transform="translate(300.000,300.000) rotate(0.000) scale(0.278)"><path d="M -155.90625,-270 A 352.46,352.46 0 0 1 -31.84375,-31.71875 352.46,352.46 0 0 1 -270,-155.90625 l 0,311.8125 A 352.46,352.46 0 0 1 -31.71875,31.84375 352.46,352.46 0 0 1 -155.90625,270 l 311.8125,0 A 352.46,352.46 0 0 1 31.84375,31.71875 352.46,352.46 0 0 1 270,155.90625 l 0,-311.8125 A 352.46,352.46 0 0 1 31.71875,-31.84375 352.46,352.46 0 0 1 155.90625,-270 l -311.8125,0 z" fill="#ffffff"  /></g></svg>
