<?xml version="1.0" encoding="utf-8" standalone="yes"?>
<!DOCTYPE svg PUBLIC "-//W3C//DTD SVG 1.1//EN" "http://www.w3.org/Graphics/SVG/1.1/DTD/svg11.dtd">
<svg xmlns="http://www.w3.org/2000/svg" xmlns:xlink="http://www.w3.org/1999/xlink" version="1.1" width="600" height="400">
<rect width="600" height="400" x="0" y="0" fill="#000099" /><rect width="600.000" height="400.000" x="0.000" y="0.000" fill="#000099" />
<g transform="translate(301.613,200.000) rotate(0.000) scale(6.667)"><path d="m -47.998328 -1.8672054 q 6 2.9333319 12 0 6 -2.9333332 11.99999 0 6 2.9333319 12 0 6.0000006 -2.9333332 12.00000069 0 5.99999991 2.9333319 11.99998931 0 5.999999 -2.9333332 11.999999 0 6 2.9333319 12 0 6 -2.9333332 11.999991 0 v 3.7333318 q -5.99999 -2.933333 -11.99999 0 -6 2.9333319 -12 0 -6 -2.933333 -12 0 -5.9999892 2.9333319 -11.99998931 0 -5.99999989 -2.933333 -12.00000069 0 -6 2.9333319 -12 0 -5.99999 -2.933333 -11.99999 0 -6 2.9333319 -12 0 z" fill="#ffffff"  /></g></svg>
