<?xml version="1.0" encoding="utf-8" standalone="yes"?>
<!DOCTYPE svg PUBLIC "-//W3C//DTD SVG 1.1//EN" "http://www.w3.org/Graphics/SVG/1.1/DTD/svg11.dtd">
<svg xmlns="http://www.w3.org/2000/svg" xmlns:xlink="http://www.w3.org/1999/xlink" version="1.1" width="600" height="400">
<rect width="600" height="400" x="0" y="0" fill="#ffffff" /><rect width="600.000" height="400.000" x="0.000" y="0.000" fill="#ffffff" />
<line x1="0" y1="200.000" x2="600" y2="200.000" stroke="#000000" stroke-width="50.000" /><line x1="300.000" y1="0" x2="300.000000" y2="400" stroke="#000000" stroke-width="50.000" /><line x1="0" y1="0.000" x2="600" y2="0.000" stroke="#fcc72e" stroke-width="360.000" /><rect width="600.000" height="400.000" x="320.000" y="225.000" fill="#6299ab" /><g transform="translate(300.000,100.000) rotate(0.000) scale(0.156)"><path d="m -493.41622,150.39561 c -9.93543,-49.6736 -41.3953,-91.0689 -51.3307,-94.3807 -9.93425,-3.31063 -28.1492,-8.27835 -28.1492,-8.27835 0,0 13.2472,-9.93543 6.6248,-28.1492 -6.6248,-18.2137995 -36.4287,-67.8886 -38.0846,-96.0366 -1.65472,-28.1492 6.62362,-64.5768 0,-87.7583 -6.62244,-23.1803 -31.4598,-43.05 -33.1157,-86.1024 -1.65591,-43.05 69.5433,-102.659 110.94,-104.315 41.3953,-1.65591 79.4776,13.2461 102.659,11.5913 23.1815,-1.65709 51.3295,-31.461 69.5445,-38.0846 18.2138,-6.62244 26.4921,3.31181 38.0823,-1.65472 11.5913,-4.96772 105.973,-82.7917 200.353,-82.7917 94.381905,0 165.581005,34.7728 187.108005,34.7728 21.524395,0 61.263795,-9.93543 91.068895,0 29.8051,9.93425 66.2315,54.6413 109.284,66.2315 43.05,11.5913 291.422,56.2984 319.57,101.004 28.1492,44.7071 46.363,109.283 46.363,140.745 0,31.4598 -8.27835,115.9060005 -8.27835,132.464 0,16.5567 8.27835,38.0835 4.96654,59.6091 -3.31181,21.5244 -13.2461,29.8039 -13.2461,29.8039 0,0 -6.62362,-36.4276 -8.27835,-57.9531 -1.65709,-21.5256 13.2449,-81.1346 11.5902,-115.906 -1.65591,-34.7728 -16.5579,-77.8228 -16.5579,-77.8228 0,0 -9.93543,49.6736 -18.215,81.1346 -8.27835,31.4598 -33.1157,120.874 -33.1157,172.204 0,51.3295 14.902,125.841 14.902,125.841 0,0 -41.3953,71.2004 -44.7071,99.3484 -3.31063,28.1492 -9.93307,94.3819 -8.27835,102.661 1.65591,8.27835 -9.93425,-3.31181 -13.2461,6.62244 -3.31181,9.93543 -1.65591,23.1803 -1.65591,23.1803 l -38.0846,-3.31063 c 0,0 1.65709,-16.5591 8.27953,-28.1492 6.62362,-11.5902 16.5579,-19.8697 14.9031,-34.7717 -1.65591,-14.902 1.65472,-79.4787 1.65472,-79.4787 0,0 -28.148,48.0189 -36.4276,66.2327 -8.27953,18.2138 -8.27953,41.3953 -11.5902,49.6748 -3.31181,8.27835 -9.93425,8.27835 -13.2461,18.2126 -3.31299,9.93543 -8.27953,9.93543 -8.27953,9.93543 l -29.8051,1.65472 c 0,0 57.9543,-142.398 61.2661,-178.826 3.31063,-36.4287 -36.4287,-110.939 -44.7071,-135.776 -8.27953,-24.8374 -8.27953,-44.7071 -16.5591,-54.6413 -8.27835,-9.93543 -36.4276,-21.5256 -46.3618,-16.5591 -9.93543,4.96772 -64.5768,56.2984 -76.1669,71.2004 -11.5913,14.902 -41.3953,43.05 -41.3953,43.05 0,0 -66.2327,-36.4276 -101.004,-44.7071 -34.7717,-8.27835 -120.873995,-14.902 -120.873995,-14.902 0,0 6.62362,127.498 3.31063,147.367 -3.31063,19.8697 -19.8697,26.4933 -19.8697,39.7394 0,13.2461 0,31.461 0,41.3953 0,9.93543 -26.4921,13.2472 -33.1146,21.5256 -6.6248,8.27953 0,14.902 -8.27953,26.4933 -8.27953,11.5902 -19.8697,8.27835 -24.8374,14.9008 -4.96772,6.6248 -1.65591,46.3642 -1.65591,46.3642 l -66.232705,-1.65709 c 0,0 26.4933,-54.6402 24.8374,-86.1012 -1.65591,-31.4598 -28.148,-77.8228 -33.1157,-102.66 -4.96772,-24.8362 -19.8697,-62.9209 -39.7394,-62.9209 -19.8697,0 -36.4276,9.93543 -36.4276,9.93543 0,0 4.96772,-82.7906 -23.1815,-117.562 -28.1492,-34.7717 -96.0366,-31.461 -117.562,-26.4933 -21.5268,4.96654 -44.7071,36.4276 -52.9866,39.7394 -8.27953,3.31181 -14.902,0 -28.1492,4.96654 -13.2449,4.96772 -29.8039,18.215 -41.3941,28.1492 z" fill="#000000"  /></g><g transform="translate(450.000,315.000) rotate(0.000) scale(0.526)"><path d="m 43.067725,122.68503 c 7.01003,-7.67916 15.28575,-11.43735 23.06874,-10.47609 9.09189,1.12297 16.55562,-0.70293 17.84533,-4.36563 0.41287,-1.17253 0.48526,-4.82934 0.27944,-14.116175 -0.23326,-10.51951 -0.15366,-13.30273 0.49499,-17.3193 1.68399,-10.42869 3.09461,-14.96509 7.91792,-25.46288 4.32913,-9.42226 7.941555,-14.78327 13.279395,-19.70718 7.37335,-6.80164 13.06015,-12.81249 16.55509,-17.49847 13.63968,-18.2880504 19.60537,-40.64952 16.81814,-63.03999 -2.24296,-18.01794 -9.35817,-33.91708 -21.19041,-47.35033 -12.34428,-14.014655 -27.439985,-23.093795 -45.583265,-27.415435 -8.50235,-2.02525 -12.90557,-2.44615 -23.5149,-2.24762 -10.35888,0.19374 -13.2446,0.62226 -22.44027,3.33174 -1.26027,0.37133 -3.68171,1.07789 -5.38101,1.57014 -9.57596,2.77385 -24.2752897,10.15842 -39.39005,19.78847 -11.50484,7.330075 -19.00287,11.409165 -22.01597,11.977175 -0.82313,0.15505 -1.82685,0.44922 -2.23052,0.65349 -1.45402,0.73574 -14.33529,3.22583 -22.18006,4.28761 -7.50693,1.01604 -13.83491,2.64807 -19.001292,4.90043 -10.24946,4.46853 -13.65674,8.30573 -19.457873,21.91324 -3.36783,7.89977 -4.89003,13.70104 -5.5208,21.04051 -0.72557,8.44256 -1.38067,12.17325 -3.01358,17.16181 -1.95168,5.96237 -5.96956,14.5717096 -8.29424,17.7726396 -6.03848,8.31469 -13.43781,19.5058704 -15.17287,22.9484604 -4.14387,8.22202 -6.61144,18.90025 -3.02798,13.10341 1.87961,-3.04056 6.44622,-8.92051 9.46654,-12.18918 1.62012,-1.75322 4.34262,-5.03477 6.05009,-7.29232 1.70751,-2.25755 3.56702,-4.51482 4.13232,-5.01617 0.56527,-0.50135 2.74613,-2.9846104 4.84634,-5.5183704 4.33515,-5.23 8.48234,-9.20697 11.31417,-10.84989 2.09952,-1.21804 7.900373,-2.9516696 11.557243,-3.4540096 8.2485,-1.13306 14.275712,-3.09151 23.601382,-7.66891 6.97982,-3.42592 7.16311,-3.48617 10.54043,-3.46332 4.3158,0.0293 7.14609,1.27896 11.68611,5.16038 7.36587,6.29729 15.48195,11.4857796 26.58022,16.9923696 7.19044,3.5676 7.70558,3.80139 11.3188403,5.13579 5.26894,1.94591 8.00357,2.77238 15.71966,4.7509004 1.00822,0.25841 4.5140497,0.98935 7.7907597,1.62399 3.27669,0.63467 6.78252,1.34929 7.79074,1.58811 8.98617,2.1284 11.99259,2.96919 16.07474,4.49564 5.82236,2.17718 12.74403,7.19357 19.71611,14.289 6.36157,6.474119.92063,12.28478 12.59706,20.56644 3.08593,9.54873 3.38146,17.1609 1.05705,27.22428 -1.69206,7.32554 -6.16755,14.44631 -10.78966,17.1669 -5.26682,3.100045 -12.13545,3.580475 -22.65662,1.584595 -4.68827,-0.889375 -5.43897,-0.918335 -9.68587,-0.373265 -2.68886,0.345075 -5.1082,0.919555 -5.81658,1.381155 -1.24754,0.81296 -1.22368,1.66188 0.0467,1.66188 1.10274,0 9.27382,2.76329 9.56725,3.23547 0.14261,0.2294 -0.1147,0.54695 -0.57185,0.70565 -5.81153,2.01774 -17.624,9.90985 -17.05422,11.39421 0.11276,0.29406 2.0339,-0.13874 4.99535,-1.12527 4.50947,-1.50227 5.25842,-1.61442 11.91526,-1.78439 8.92573,-0.22801 9.40958,-0.0194 7.8102,3.35031 -2.20587,4.64892 -3.32754,8.83563 -2.36716,8.83563 0.2211,0 1.98661,-1.73595 3.92343,-3.85763 z M 5.4105553,94.983675 c 6.1093697,-7.55429 12.5888697,-12.86497 17.3209797,-14.19652 1.62241,-0.45652 4.2903,-1.20909 5.92865,-1.67238 2.32659,-0.65789 3.41065,-1.28023 4.95111,-2.84231 1.68874,-1.71248 2.02952,-2.38706 2.37023,-4.69242 0.47877,-3.23937 1.64029,-8.23443 2.63975,-11.35209 1.30107,-4.05839 5.33599,-11.30792 8.26359,-14.84717 1.57089,-1.89911 2.85618,-3.77236 2.85618,-4.16285 0,-1.05291 -3.34263,-3.8633 -5.03458,-4.23284 -1.25845,-0.27499 -1.68771,-0.11276 -2.96714,1.12046 -2.92149,2.8161 -8.33926,11.4712 -11.45056,18.29272 -3.70394,8.12086 -3.92797,8.51641 -5.75139,10.15474 -1.92628,1.73075 -3.11307,2.13067 -9.39645,3.16652 -3.33022,0.54902 -4.78642,0.58064 -7.5615897,0.16417 -4.65663,-0.69871 -13.35687,-0.65355 -16.76923,0.0871 -2.9869003,0.64829 -7.1078903,2.64677 -7.4144503,3.59573 -0.14426,0.44616 1.02199,0.5585 5.14132,0.49535 3.0810903,-0.0473 5.5222903,0.11193 5.7891103,0.37717 0.30968,0.30797 -0.23631,1.63236 -1.66003,4.02746 -1.16678,1.96272 -2.15534,4.09703 -2.1968,4.74292 l -0.0754,1.17435 5.06124,-0.15975 c 6.21722,-0.19622 6.3228,-0.11801 5.44047003,4.03385 -0.95795,4.50761 -0.65377,10.40636 0.55724997,10.806975 0.28517,0.0942 2.06616,-1.742225 3.95776,-4.081175 z" fill="#000000"  /></g><g transform="translate(150.000,315.000) rotate(0.000) scale(0.605)"><path d="m -3.842289,-118.73886 c -6.5265,8.50423 -7.71313,9.69086 -23.86456,22.282385 -1.18664,0.92294 -1.18664,1.12071 -0.32962,2.96659 2.30734,4.41692 2.24142,4.68062 -1.58219,6.59242 -15.95368,8.042748 -28.74298,23.666788 -33.22583,40.477458 -2.57104,9.427161 -2.37327,21.557214 0.46147,30.720677 4.81247,15.755884 17.46992,30.852527 31.57773,37.576794 2.90066,1.450333 5.27394,2.768817 5.27394,3.032514 0,0.263696 -0.98887,2.636968 -2.24143,5.405785 l -2.24142,4.87839 5.33986,2.439195 c 2.96659,1.384408 7.84498,4.219149 10.87749,6.394644 l 5.4057904,3.88953 0,7.64721 c 0,6.85612 -0.13185,7.58128 -1.12071,7.18574 -0.5933204,-0.2637 -4.6806204,-2.57105 -9.0316204,-5.14209 -23.00758,-13.51446 -41.8619,-30.786603 -50.62982,-46.344713 -10.21825,-18.063232 -14.50332,-43.905518 -9.49308,-57.222206 2.90066,-7.713131 4.87839,-10.745645 13.58038,-20.502426 4.74654,-5.405781 8.50422,-9.888631 8.37238,-10.020481 -0.46147,-0.52739 -8.76792,3.09844 -13.25077,5.80133 -5.40578,3.230287 -14.56925,11.73451 -18.59062,17.338067 -4.351,6.196874 -7.91091,14.107778 -9.82271,22.282379 -1.648101,6.724268 -1.779951,8.240525 -1.51626,17.27214 0.39555,11.536735 1.91181,18.854321 6.72427,31.775466 5.07617,13.646308 8.24053,19.118017 19.77726,34.346504 5.80133,7.71313 11.53674,15.55811 12.72337,17.46992 2.4392,3.95545 4.6147,9.95455 5.20802,14.4374 0.26369,1.77995 0.59331,3.16436 0.85701,3.16436 0.19777,0 5.86725,-4.87839 12.59152,-10.8775 6.7243,-5.93317 12.65748,-10.81156 13.18488,-10.81156 1.51625,-0.0659 8.24052,2.90066 12.19597,5.27393 l 3.55991,2.10958 -6.39465,2.76881 c -8.04275,3.42806 -11.00934,5.33986 -15.68996,9.95456 -4.54877,4.61469 -6.13098,7.910903 -6.19691,12.987063 0,3.559905 0.19778,4.087295 2.24146,6.130945 1.84588,1.84588 2.70289,2.24143 5.07616,2.24143 3.75768,0 7.97683,-2.50512 9.49309,-5.73541 1.12071,-2.307345 1.12071,-2.702885 0.13185,-6.526485 -0.65925,-2.24143 -1.12071,-4.285083 -1.12071,-4.416933 0,-0.59331 8.10867,-4.87839 10.54787,-5.60355 1.25256,-0.39555 3.42806,-0.85702 4.81246,-1.12071 l 2.4392004,-0.39555 0,9.493093 c 0,9.163455 -0.0659,9.493075 -1.58218,10.943405 -5.3398604,5.01024 -4.6806204,12.2619 1.45033,16.94252 3.3621296,2.63696 9.0975397,2.96658 13.5803897,0.85702 3.88952,-1.77996 6.9879599,-6.19688 6.9879599,-9.82271 0,-2.24142 -2.8347399,-7.77905 -4.5487699,-8.83384 -0.85701,-0.5274 -1.05479,-19.513558 -0.19777,-19.513558 2.3732699,0.0659 8.7019899,2.24142 12.3937499,4.21914 2.50512,1.38441 4.61469,2.57105 4.74654,2.7029 0.13185,0.0659 -0.32962,2.175493 -0.98886,4.548773 -1.12071,4.35099 -1.12071,4.48284 0.13185,6.856105 2.50512,4.54877 9.75678,6.92204 13.44853,4.351 1.77996,-1.25256 3.36214,-4.68062 3.36214,-7.383505 0,-4.28507 -2.10958,-8.240533 -6.85612,-12.987073 -4.68062,-4.61469 -9.88863,-7.84498 -18.06323,-11.20711 l -3.62583,-1.45033 3.95545,-2.30735 c 2.10957,-1.25256 5.53763,-2.83474 7.51536,-3.49398 1.97773,-0.65925 3.88953,-1.31849 4.28507,-1.45034 0.39555,-0.13184 6.32873,4.6147 13.18484,10.6138 6.85612,5.9991 12.65745,10.94342 12.85522,10.94342 0.19777,0 0.59332,-1.77996 0.79109,-3.95545 0.59332,-6.72427 4.21915,-13.25077 15.29442,-27.68817 5.47171,-7.11981 10.74564,-13.975929 11.73451,-15.360337 2.900663,-3.823604 9.29531,-17.733609 12.2619,-26.501528 6.196869,-18.458777 6.856109,-35.533145 2.04365,-50.695711 -5.33986,-16.612898 -19.71134,-32.039161 -35.59907,-38.30196 -2.30735,-0.92294 -4.351,-1.51626 -4.48285,-1.31848 -0.39554,0.39554 3.49398,5.27393 10.54787,13.118912 10.28418,11.404887 12.65745,17.469913 12.72338,32.039161 0,10.481948 -0.85702,15.821808 -4.41693,26.897074 -6.32872,19.909109 -20.83204,37.313097 -46.01509,54.980779 -4.61469,3.23029 -20.3046499,12.39375 -21.2275899,12.39375 -0.2637,0 -0.52739,-3.36213 -0.52739,-7.44943 l 0,-7.38351 5.4716999,-3.88953 c 2.96659,-2.109574 7.97683,-5.076163 11.07527,-6.59242 l 5.66948,-2.768816 -2.50512,-5.010238 -2.50512,-5.010239 3.42806,-1.384409 c 9.22939,-3.889527 20.7002,-13.382612 26.63338,-22.150532 6.72426,-9.954554 9.88863,-19.052094 10.54787,-30.325132 0.92294,-17.206216 -5.60356,-33.093948 -18.98617,-46.27879 -5.27394,-5.208013 -13.91001,-11.075261 -18.72247,-12.855211 l -2.1755,-0.72517 1.51625,-3.49398 1.51626,-3.42806 -4.02138,-2.83474 C 15.209801,-105.02662 9.3425511,-110.76203 2.0249611,-120.32104 l -2.30735005,-3.09844 -3.55990005,4.68062 z m -15.16257,51.618654 c 4.21915,14.964794 6.65835,29.929587 6.65835,40.477459 0,5.933178 -1.45034,17.272141 -2.96659,23.139394 -0.85702,3.559907 -4.81247,15.624036 -5.33986,16.283279 -0.2637,0.461468 -5.99911,-2.768818 -10.74565,-6.065028 -8.8998,-6.13095 -16.15146,-16.546974 -18.92028,-27.424467 -1.58218,-6.065026 -1.38441,-16.678822 0.32962,-23.271242 3.29621,-12.591522 12.72341,-24.457879 24.39199,-30.720673 2.04365,-1.05479 3.75768,-1.84588 3.8236,-1.77996 0.13185,0.0659 1.31849,4.28508 2.76882,9.361238 z m 45.81732,-7.185738 c 5.86725,3.09844 15.42626,12.459675 19.05209,18.65655 3.42806,5.933178 6.32873,16.546973 6.39465,23.271242 0,4.614694 -1.77995,11.93228 -4.21915,17.27214 -2.30734,4.944315 -8.57014,13.64631 -12.72337,17.535837 -2.76881,2.702893 -13.97593,11.14119 -14.70109,11.14119 -0.5274,0 -3.03252,-8.767918 -6.39465,-22.084607 -1.71403,-6.724268 -1.84588,-8.174601 -1.77996,-19.447639 0.0659,-9.229388 0.39555,-14.041854 1.45034,-19.711335 1.71403,-9.624933 6.79019,-29.072568 7.58128,-29.072568 0.32962,0 2.70289,1.12071 5.33986,2.43919 z" fill="#000000"  /></g></svg>
