<?xml version="1.0" encoding="utf-8" standalone="yes"?>
<!DOCTYPE svg PUBLIC "-//W3C//DTD SVG 1.1//EN" "http://www.w3.org/Graphics/SVG/1.1/DTD/svg11.dtd">
<svg xmlns="http://www.w3.org/2000/svg" xmlns:xlink="http://www.w3.org/1999/xlink" version="1.1" width="600" height="400">
<rect width="600" height="400" x="0" y="0" fill="#000099" /><rect width="400.000" height="400" x="0" y="0" fill="#c50b2f" /><rect width="200.000" height="400" x="0" y="0" fill="#337320" />
<path d="M 0,0 50.000,0 633.333,166.667 600,166.667 600,233.333 633.333,233.333 50.000,400 0,400 0,350.000 566.667,200.000 0,50.000" fill="#000000" /><polygon points="200.000,100.000 300.000,200.000 200.000,300.000 100.000,200.000" fill="#000000" /><g transform="translate(200.000,200.000) rotate(0.000) scale(0.417)"><path d="m -90.189954,-114.36858 21.81,48.630011 H -120 l 60.370046,180.309989 h 119 L 119.74,-65.738569 H 68.120046 l 21.809981,-48.630011 z" fill="#ffffff"  /></g></svg>
