<?xml version="1.0" encoding="utf-8" standalone="yes"?>
<!DOCTYPE svg PUBLIC "-//W3C//DTD SVG 1.1//EN" "http://www.w3.org/Graphics/SVG/1.1/DTD/svg11.dtd">
<svg xmlns="http://www.w3.org/2000/svg" xmlns:xlink="http://www.w3.org/1999/xlink" version="1.1" width="600" height="400">
<rect width="600" height="400" x="0" y="0" fill="#ffffff" /><rect width="600.000" height="400.000" x="0.000" y="0.000" fill="#ffffff" />
<g transform="translate(300.000,300.000) rotate(0.000) scale(6.667)"><path d="m -47.998328 -1.8672054 q 6 2.9333319 12 0 6 -2.9333332 11.99999 0 6 2.9333319 12 0 6.0000006 -2.9333332 12.00000069 0 5.99999991 2.9333319 11.99998931 0 5.999999 -2.9333332 11.999999 0 6 2.9333319 12 0 6 -2.9333332 11.999991 0 v 3.7333318 q -5.99999 -2.933333 -11.99999 0 -6 2.9333319 -12 0 -6 -2.933333 -12 0 -5.9999892 2.9333319 -11.99998931 0 -5.99999989 -2.933333 -12.00000069 0 -6 2.9333319 -12 0 -5.99999 -2.933333 -11.99999 0 -6 2.9333319 -12 0 z" fill="#3399ff"  /></g><g transform="translate(300.000,350.000) rotate(0.000) scale(6.667)"><path d="m -47.998328 -1.8672054 q 6 2.9333319 12 0 6 -2.9333332 11.99999 0 6 2.9333319 12 0 6.0000006 -2.9333332 12.00000069 0 5.99999991 2.9333319 11.99998931 0 5.999999 -2.9333332 11.999999 0 6 2.9333319 12 0 6 -2.9333332 11.999991 0 v 3.7333318 q -5.99999 -2.933333 -11.99999 0 -6 2.9333319 -12 0 -6 -2.933333 -12 0 -5.9999892 2.9333319 -11.99998931 0 -5.99999989 -2.933333 -12.00000069 0 -6 2.9333319 -12 0 -5.99999 -2.933333 -11.99999 0 -6 2.9333319 -12 0 z" fill="#3399ff"  /></g><polygon points="300.000,0.000 400.000,100.000 300.000,200.000 200.000,100.000" fill="#337320" /><line x1="0" y1="200.000" x2="600" y2="200.000" stroke="#ffffff" stroke-width="150.000" /><line x1="0" y1="150.000" x2="600" y2="150.000" stroke="#ffffff" stroke-width="100.000" /><rect width="100.000" height="150.000" x="250.000" y="100.000" fill="#3399ff" /></svg>
