<?xml version="1.0" encoding="utf-8" standalone="yes"?>
<!DOCTYPE svg PUBLIC "-//W3C//DTD SVG 1.1//EN" "http://www.w3.org/Graphics/SVG/1.1/DTD/svg11.dtd">
<svg xmlns="http://www.w3.org/2000/svg" xmlns:xlink="http://www.w3.org/1999/xlink" version="1.1" width="600" height="400">
<rect width="600" height="400" x="0" y="0" fill="#660099" /><rect width="600.000" height="44.444" x="0.000" y="0.000" fill="#660099" /><rect width="600.000" height="44.444" x="0.000" y="44.444" fill="#ff9900" /><rect width="600.000" height="44.444" x="0.000" y="88.889" fill="#660099" /><rect width="600.000" height="44.444" x="0.000" y="133.333" fill="#ff9900" /><rect width="600.000" height="44.444" x="0.000" y="177.778" fill="#660099" /><rect width="600.000" height="44.444" x="0.000" y="222.222" fill="#ff9900" /><rect width="600.000" height="44.444" x="0.000" y="266.667" fill="#660099" /><rect width="600.000" height="44.444" x="0.000" y="311.111" fill="#ff9900" /><rect width="600.000" height="44.444" x="0.000" y="355.556" fill="#660099" />
<path d="M 300.000,200.000 538.351,0.000 415.470,0.000 Z" fill="#fddd00" /><path d="M 300.000,200.000 335.265,0.000 264.735,0.000 Z" fill="#fddd00" /><path d="M 300.000,200.000 184.530,0.000 61.649,0.000 Z" fill="#fddd00" /><path d="M 300.000,200.000 0.000,90.809 0.000,200.000 Z" fill="#fddd00" /><path d="M 300.000,200.000 0.000,309.191 0,400.000 61.649,400.000 Z" fill="#fddd00" /><path d="M 300.000,200.000 184.530,400.000 264.735,400.000 Z" fill="#fddd00" /><path d="M 300.000,200.000 335.265,400.000 415.470,400.000 Z" fill="#fddd00" /><path d="M 300.000,200.000 538.351,400.000 600.000,400.000 600.000,309.191 Z" fill="#fddd00" /><path d="M 300.000,200.000 600.000,200.000 600.000,90.809 Z" fill="#fddd00" /></svg>
