<?xml version="1.0" encoding="utf-8" standalone="yes"?>
<!DOCTYPE svg PUBLIC "-//W3C//DTD SVG 1.1//EN" "http://www.w3.org/Graphics/SVG/1.1/DTD/svg11.dtd">
<svg xmlns="http://www.w3.org/2000/svg" xmlns:xlink="http://www.w3.org/1999/xlink" version="1.1" width="600" height="400">
<rect width="600" height="400" x="0" y="0" fill="#ff6666" /><polygon points="0,0 0,600 600,400" fill="#6299ab" />
<polygon points="100.000,0 0,0 0,66.667 500.000,400 600,400 600,333.333 100.000,0" fill="#000000" /><polygon points="75.000,0 0,0 0,50.000 525.000,400 600,400 600,350.000 75.000,0" fill="#ffffff" /><g transform="translate(100.000,300.000) rotate(0.000) scale(0.857)"><path d="m 2.4937496,-85.286266 -1.84375,6.09375 c -4.28256,-1.288956 -8.73777,-2.174427 -13.3124996,-2.65625 l -1.4375,13.34375 c 29.39798,3.083208 52.4375,27.69611 52.4375,57.90625 1e-5,17.8974497 -8.0437,33.92268 -20.71875,44.65625 L 34.025,45.401234 c 2.14706,-2.07639 4.19678,-4.25105 6.09375,-6.5625 l -4.625,-3.78125 c 2.98286,-3.62986 5.60796,-7.54683 7.84375,-11.71875 l 5.28125,2.8125 c 2.40847,-4.50591 4.39187,-9.23582 5.875,-14.125 l -5.75,-1.75 c 1.34513,-4.4429203 2.28699,-9.0845001 2.75,-13.8437501 l 5.96875,0.59375 c 0.50081,-5.08459 0.50081,-10.2279099 0,-15.3124999 l -5.96875,0.59375 c -0.47043,-4.7682 -1.42037,-9.40353 -2.78125,-13.84375 l 5.78125,-1.75 c -1.48313,-4.88919 -3.46653,-9.6191 -5.875,-14.125 l -5.375,2.875 c -2.24785,-4.1449 -4.8807,-8.05623 -7.875,-11.65625 l 4.75,-3.90625 c -3.24125,-3.94946 -6.86303,-7.571252 -10.8125,-10.8125 l -3.96875,4.84375 c -3.63027,-2.946007 -7.55183,-5.542497 -11.71875,-7.75 l 3,-5.59375 c -4.50591,-2.408448 -9.2357904,-4.391872 -14.1250004,-5.875 z m -22.6562496,20.65625 -6.0625,18.65625 -19.625,0 15.875,11.53125 -6.0625,18.65625 15.875,-11.53125 15.8749996,11.53125 -6.0624996,-18.65625 15.8749996,-11.53125 -19.6249996,0 -6.0625,-18.65625 z m -25.90625,43.8125 c -12.0067,23.4383297 3.22968,37.45821 13.03125,43.03125 24.9510696,14.18684 41.4959996,23.52974 67.53125,40.84375 L 38.15,58.744984 C 15.70074,41.779764 -9.51081,26.364264 -29.6,7.4324837 a 0.750075,0.750075 0 0 1 0.5,-1.3125 0.750075,0.750075 0 0 1 0.53125,0.21875 C -8.6138304,25.143984 16.59545,40.534174 39.15,57.588734 l 2.0625,-2.40625 c -25.69636,-18.36449 -86.52539,-60.6127601 -87.28125,-76 z m -11,55.21875 -8.53125,10.4375 c 3.60498,2.95982 7.47768,5.55943 11.59375,7.8125 l -2.9375,5.5 c 4.5059,2.40847 9.23582,4.3919 14.125,5.875 l 1.78125,-5.84375 c 4.432,1.39048 9.04731,2.35972 13.8125,2.84375 l -0.59375,5.96875 c 5.08459,0.50078 10.2279,0.50078 15.3125,0 L -13.1,61.057484 c 4.7594996,-0.46493 9.4008796,-1.40284 13.8437496,-2.75 l 1.75,5.71875 c 2.40397,-0.72922 4.7745,-1.60031 7.0937504,-2.5625 l -3.1562504,-12.28125 -7.5625,-4.46875 c -5.97239,2.05806 -12.3627296,3.1875 -19.0312496,3.1875 -14.07946,-2e-5 -26.80789,-5.2037 -36.90625,-13.5 z m 99.78125,21.28125 -7.28125,8.5625 c -0.30888,0.36224 -0.20533,1.18271 0.1875,1.25 8.18213,1.40175 10.74464,4.32247 14,7.09375 4.39519,4.44819 6.19345,9.82129 9.0625,11.8125 5.30537,3.68208 9.15716,-2.61736 5.75,-8.15625 -2.32474,-3.77926 -5.22024,-6.51699 -8.96875,-9.84375 -3.74851,-3.32678 -8.91175,-7.00444 -12.75,-10.71875 z m 2.53125,4.96875 c 0.17401,0 0.34412,0.06615 0.5,0.15625 0.31177,0.18021 0.50054,0.48365 0.5,0.84375 5.4e-4,0.36009 -0.18823,0.69479 -0.5,0.875 -0.31176,0.18021 -0.68823,0.18021 -1,0 -0.31176,-0.18021 -0.50054,-0.51491 -0.5,-0.875 -5.4e-4,-0.3601 0.18824,-0.66354 0.5,-0.84375 0.15589,-0.0901 0.32599,-0.15625 0.5,-0.15625 z m 7.40625,6.46875 c 0.17401,0 0.34412,0.0349 0.5,0.125 0.31177,0.18021 0.50054,0.5149 0.5,0.875 5.4e-4,0.36009 -0.18823,0.69479 -0.5,0.875 -0.31176,0.18021 -0.68823,0.18021 -1,0 -0.31176,-0.18021 -0.50054,-0.51491 -0.5,-0.875 -5.4e-4,-0.3601 0.18824,-0.69479 0.5,-0.875 0.15589,-0.0901 0.32599,-0.125 0.5,-0.125 z m 6.53125,6.625 c 0.17401,0 0.34412,0.0349 0.5,0.125 0.31177,0.18021 0.50054,0.5149 0.5,0.875 5.4e-4,0.36009 -0.18823,0.69479 -0.5,0.875 -0.31176,0.18021 -0.68823,0.18021 -1,0 -0.31176,-0.18021 -0.50054,-0.51491 -0.5,-0.875 -5.4e-4,-0.3601 0.18824,-0.69479 0.5,-0.875 0.15589,-0.0901 0.32599,-0.125 0.5,-0.125 z" fill="#000000"  /></g><g transform="translate(500.000,100.000) rotate(0.000) scale(0.990)"><path d="m 24.465738,18.132503 c 1.60698,-2.38998 1.46998,-7.62192 -1.74298,-9.4689124 -2.45798,-1.22898 -5.23395,-0.74799 -6.53094,0.31 -2.08798,1.2629924 -4.098961,5.3019524 -4.098961,9.3919124 l 7.209931,-0.009 -0.002,8.05092 -14.963845,-0.008 c 0.196,4.14096 2.4539801,7.45792 6.655924,9.3049 -0.540987,1.74499 -3.0749639,5.30195 -6.554924,5.06095 -0.6869901,3.76397 -1.3399901,5.87694 -4.46895996,9.29691 -3.13096014,-3.41897 -3.78396014,-5.53294 -4.47095014,-9.29691 -3.4799703,0.241 -6.0139459,-3.31596 -6.5549459,-5.06095 4.2019656,-1.84698 6.4599459,-5.16394 6.6559459,-9.3049 l -14.9648549,0.008 v -8.05092 l 7.207929,0.009 c 0,-4.08996 -2.00798,-8.12892 -4.097959,-9.3919124 -1.29699,-1.05699 -4.07196,-1.53798 -6.52894,-0.31 -3.21496,1.8469924 -3.35296,7.0799324 -1.74598,9.4689124 -15.18185,-2.81897 -13.67586,-17.48083228 -8.50391,-22.8037727 4.17995,-4.299957 8.73691,-4.9719467 12.25087,-3.615967 7.985919,2.862967 13.3568746,12.4028773 13.6178746,26.6527397 h 4.1759503 c 0,-12.9538724 -2.2539703,-17.0838324 -8.1269259,-33.353667 -2.95797,-7.68892 -1.18098,-17.19483 4.1069656,-25.94774 1.8939803,-3.13697 4.2599603,-5.96894 6.97893044,-9.00191 2.71697986,3.03297 5.08295006,5.86494 6.97693006,9.00191 5.2879439,8.75291 7.0649239,18.25882 4.1089539,25.94774 C 5.1789332,1.2816706 2.9249529,5.4106306 2.9249529,18.365503 h 4.1759602 c 0.261,-14.2498624 5.6339439,-23.7897727 13.6178649,-26.6527397 3.51396,-1.3549797 8.07392,-0.68399 12.25187,3.615967 5.17095,5.32294042 6.67694,19.9848027 -8.50491,22.8037727 z" fill="#000000"  /></g><g transform="translate(300.000,200.000) rotate(0.000) scale(0.166)"><path d="m 0.0840585,-210.996 -34.1131205,63.62529 c -3.87086,6.91501 -10.80627,6.27363 -17.74169,2.41138 l -24.69699,-12.78858 18.40705,97.727112 c 3.87086,17.85419 -8.54859,17.85419 -14.67765,10.13435 l -43.101048,-48.25099 -6.99738,24.503 c -0.80692,3.21777 -4.35481,6.59744 -9.67748,5.79261 l -54.50177,-11.45912 14.31524,52.04475 c 3.06451,11.58054 5.4549,16.37528 -3.09375,19.4295901 l -19.42619,9.13025 93.82127,76.2083799 c 3.713498,2.88151 5.589708,8.067 4.267678,12.7621 l -8.211358,26.947068 c 32.304048,-3.72371 61.248978,-9.32594 93.569388,-12.77619 2.8532305,-0.30459 7.6298805,4.40408 7.6102905,7.71058 l -4.28024,98.72342 15.7063895,0 -2.4723695,-98.5117 c -0.0197,-3.3065 4.3137195,-8.22689 7.1669495,-7.9223 32.32041,3.45026 61.26538,9.05248 93.569422,12.77619 L 97.31536,90.274122 c -1.322032,-4.6951 0.55417,-9.88059 4.26767,-12.7621 L 195.40428,1.3036421 175.97811,-7.826608 c -8.54867,-3.05431 -6.15828,-7.84905 -3.09377,-19.42959 l 14.31527,-52.04475 -54.5018,11.45912 c -5.32267,0.80483 -8.87056,-2.57484 -9.6775,-5.79261 l -6.99737,-24.503 -43.101032,48.25099 c -6.12908,7.71984 -18.54854,7.71984 -14.67768,-10.13435 l 18.40702,-97.727112 -24.69694,12.78858 c -6.93559,3.86225 -13.87083,4.50363 -17.7417,-2.41138 z" fill="#000000"  /></g></svg>
