<?xml version="1.0" encoding="utf-8" standalone="yes"?>
<!DOCTYPE svg PUBLIC "-//W3C//DTD SVG 1.1//EN" "http://www.w3.org/Graphics/SVG/1.1/DTD/svg11.dtd">
<svg xmlns="http://www.w3.org/2000/svg" xmlns:xlink="http://www.w3.org/1999/xlink" version="1.1" width="600" height="400">
<rect width="600" height="400" x="0" y="0" fill="#6299ab" /><rect width="400.000" height="400" x="0" y="0" fill="#ffffcc" /><rect width="200.000" height="400" x="0" y="0" fill="#ff6600" />
<polygon points="200.000,200.000 200.000,400.000 400.000,400.000 400.000,200.000" fill="#5d3527" /><g transform="translate(300.000,100.000) rotate(0.000) scale(0.442)"><path d="M -180.28125 -66.25 C -180.74625 -66.25 -181.18175 -66.16825 -181.59375 -66.03125 C -181.62775 -65.72225 -181.95455 -62.614 -181.6875 -58.875 C -181.3105 -53.606 -180.0105 -49.66825 -177.8125 -47.15625 C -175.4015 -44.40125 -171.2695 -41.289 -166.1875 -38.375 C -161.6105 -35.751 -157.44975 -33.92425 -155.09375 -33.53125 C -155.02115 -33.51987 -154.94829 -33.53295 -154.875 -33.53125 C -154.715 -33.53125 -154.5775 -33.565 -154.4375 -33.625 C -154.2875 -33.697 -154.11225 -33.8675 -154.03125 -34.0625 C -153.83725 -34.5335 -153.88425 -35.05275 -154.03125 -35.84375 C -154.28825 -37.23275 -154.9385 -39.06175 -156.0625 -41.59375 C -157.8325 -45.58075 -160.11 -49.68125 -160.375 -50.15625 L -160.40625 -50.1875 C -160.43725 -50.2265 -163.58175 -54.19925 -167.59375 -58.15625 C -169.91875 -60.44925 -172.11275 -62.3225 -174.09375 -63.6875 C -176.63575 -65.4385 -178.51725 -66.221 -180.28125 -66.25 z M 180.28125 -66.25 C 178.62225 -66.222 176.66325 -65.4155 174.15625 -63.6875 C 172.17625 -62.3215 170.0135 -60.45025 167.6875 -58.15625 C 163.6765 -54.19925 160.49975 -50.2275 160.46875 -50.1875 L 160.4375 -50.15625 C 160.2125 -49.75325 157.913 -45.62175 156.125 -41.59375 C 155.002 -39.06575 154.383 -37.23475 154.125 -35.84375 C 153.978 -35.05275 153.932 -34.5335 154.125 -34.0625 C 154.206 -33.8665 154.35 -33.697 154.5 -33.625 C 154.628 -33.563 154.7745 -33.53125 154.9375 -33.53125 L 155.1875 -33.53125 C 157.5435 -33.92325 161.673 -35.751 166.25 -38.375 C 171.332 -41.289 175.464 -44.40125 177.875 -47.15625 C 180.073 -49.66825 181.373 -53.606 181.75 -58.875 C 182.03 -62.797 181.65625 -66.03125 181.65625 -66.03125 L 181.65625 -66.0625 C 181.26125 -66.1935 180.82725 -66.25 180.28125 -66.25 z M -152.09375 -58.5 C -152.06375 -58.283 -151.70175 -55.735 -151.34375 -52.75 C -151.06075 -50.397 -150.59375 -46.141 -150.59375 -44.125 C -150.59375 -42.037 -149.1355 -39.47625 -147.5625 -37.03125 C -146.0645 -34.70125 -144.54925 -32.8345 -144.53125 -32.8125 C -144.52425 -32.8875 -143.78125 -40.41725 -143.78125 -47.90625 C -143.78125 -55.38325 -151.75675 -58.377 -152.09375 -58.5 z M 152.15625 -58.5 C 151.81725 -58.377 143.84375 -55.38325 143.84375 -47.90625 C 143.84375 -40.42225 144.58575 -32.8845 144.59375 -32.8125 C 144.60775 -32.8315 146.126 -34.70225 147.625 -37.03125 C 149.198 -39.47525 150.65625 -42.036 150.65625 -44.125 C 150.65625 -46.148 151.12425 -50.399 151.40625 -52.75 C 151.77025 -55.774 152.13525 -58.348 152.15625 -58.5 z M -133.59375 -34.5625 C -135.33775 -34.4525 -136.46575 -33.84475 -136.46875 -33.84375 C -131.49875 -21.97375 -124.632 -14.62325 -119.75 -10.53125 C -114.51 -6.14025 -110.31825 -4.4525 -110.28125 -4.4375 L -110.25 -4.4375 C -113.804 -15.7485 -117.98025 -24.04675 -122.65625 -29.09375 C -126.72725 -33.48675 -130.4015 -34.4945 -132.8125 -34.5625 C -132.9705 -34.5665 -133.13125 -34.5625 -133.28125 -34.5625 C -133.38425 -34.5625 -133.49275 -34.5695 -133.59375 -34.5625 z M 132.84375 -34.5625 C 130.47975 -34.4965 126.82 -33.48675 122.75 -29.09375 C 118.074 -24.04675 113.89275 -15.76375 110.34375 -4.46875 L 110.34375 -4.40625 L 110.375 -4.4375 C 110.416 -4.4545 114.60475 -6.109 119.84375 -10.5 C 124.72675 -14.591 131.5895 -21.97375 136.5625 -33.84375 C 136.4575 -33.89875 135.32625 -34.4585 133.65625 -34.5625 C 133.55625 -34.5695 133.479 -34.5625 133.375 -34.5625 C 133.224 -34.5625 133.04975 -34.5685 132.84375 -34.5625 z M -179.3125 -33.5625 C -179.3085 -33.5315 -178.899 -30.4975 -177.5 -27.3125 C -176.215 -24.3885 -173.794 -20.7185 -169.5 -19.9375 C -165.17 -19.1505 -161.03575 -19 -158.34375 -19 C -155.51282 -19.0014 -153.64492 -19.1875 -153.625 -19.1875 C -153.634 -19.4035 -153.7945 -22.80375 -156.8125 -26.09375 C -159.7355 -29.27975 -165.99925 -33.1725 -179.28125 -33.5625 L -179.3125 -33.5625 z M 179.375 -33.5625 C 166.091 -33.1725 159.82925 -29.28075 156.90625 -26.09375 C 153.80425 -22.71075 153.6885 -19.2085 153.6875 -19.1875 C 153.7055 -19.1855 155.5865 -19 158.4375 -19 C 161.1375 -19 165.2325 -19.1675 169.5625 -19.9375 C 173.8565 -20.7185 176.30775 -24.3875 177.59375 -27.3125 C 178.99275 -30.4965 179.373 -33.51725 179.375 -33.53125 L 179.375 -33.5625 z M -148.53125 -28.125 C -149.29325 -28.096 -149.8115 -27.96875 -149.8125 -27.96875 L -149.84375 -27.96875 C -149.01675 -18.58875 -142.2315 -12.538 -136.6875 -9.125 C -130.6975 -5.436 -124.81375 -3.92925 -124.71875 -3.90625 C -129.02875 -13.63625 -133.8425 -20.55125 -139.0625 -24.53125 C -143.1635 -27.64925 -146.56275 -28.125 -148.21875 -28.125 C -148.33575 -28.125 -148.42625 -28.129 -148.53125 -28.125 z M 147.90625 -28.125 C 145.95325 -28.043 142.84825 -27.34025 139.15625 -24.53125 C 133.93925 -20.56325 129.08625 -13.63525 124.78125 -3.90625 C 124.91125 -3.93625 130.77 -5.455 136.75 -9.125 C 142.294 -12.537 149.07925 -18.5705 149.90625 -27.9375 L 149.90625 -27.96875 C 149.88625 -27.97475 149.38 -28.096 148.625 -28.125 C 148.502 -28.129 148.386 -28.125 148.25 -28.125 C 148.139 -28.125 148.02825 -28.13 147.90625 -28.125 z M -152.78125 -13.3125 C -153.57425 -13.3015 -154.4075 -13.195 -155.1875 -13 L -155.1875 -12.96875 C -155.1895 -12.95075 -155.423 -11.099 -154.625 -9.25 C -154.139 -8.125 -152.5085 -5.53125 -147.6875 -5.53125 C -145.8575 -5.53125 -144.67625 -5.94 -144.15625 -6.75 C -143.50925 -7.777 -144.27625 -9.08975 -144.53125 -9.46875 C -145.81725 -11.38075 -148.826 -13.3125 -152.625 -13.3125 L -152.78125 -13.3125 z M 152.6875 -13.3125 C 148.8885 -13.3125 145.911 -11.38075 144.625 -9.46875 C 144.369 -9.08975 143.57275 -7.776 144.21875 -6.75 C 144.72875 -5.94 145.919 -5.53125 147.75 -5.53125 C 152.57 -5.53125 154.22875 -8.13 154.71875 -9.25 C 155.52075 -11.107 155.254 -12.94275 155.25 -12.96875 L 155.25 -13 C 154.478 -13.193 153.67 -13.3005 152.875 -13.3125 L 152.6875 -13.3125 z M -106 -9.625 C -106.5 -9.613 -107.0365 -9.50225 -107.5625 -9.28125 C -107.5765 -9.09825 -107.72475 -7.10875 -107.21875 -5.09375 C -106.90275 -3.82875 -106.42025 -2.8785 -105.78125 -2.1875 C -105.00425 -1.3465 -103.894 -0.875 -102.625 -0.875 C -101.535 -0.875 -100.6225 -1.41 -100.3125 -2.25 C -100.0055 -3.076 -100.06325 -4.09325 -100.53125 -5.28125 C -101.38225 -7.44025 -103.369 -9.625 -105.875 -9.625 L -106 -9.625 z M 105.625 -9.625 C 103.282 -9.436 101.423 -7.30525 100.625 -5.28125 C 100.156 -4.09425 100.067 -3.076 100.375 -2.25 C 100.686 -1.412 101.5945 -0.875 102.6875 -0.875 C 103.9575 -0.875 105.095 -1.3375 105.875 -2.1875 C 106.514 -2.8785 106.96425 -3.82775 107.28125 -5.09375 C 107.80925 -7.19675 107.625 -9.27425 107.625 -9.28125 C 107.108 -9.50025 106.5675 -9.613 106.0625 -9.625 L 105.75 -9.625 C 105.703 -9.625 105.67 -9.629 105.625 -9.625 z M -91.9375 -4.90625 C -94.2675 -4.84725 -95.82075 -4.4445 -95.84375 -4.4375 C -95.79075 -4.2455 -94.596 -0.1125 -90.625 4.3125 C -86.837 8.5345 -79.661 13.947 -67 15.875 C -72.921 -1.887 -84.507 -4.76725 -90.875 -4.90625 C -91.063 -4.91125 -91.22525 -4.90625 -91.40625 -4.90625 C -91.58525 -4.90625 -91.7685 -4.91125 -91.9375 -4.90625 z M 90.9375 -4.90625 C 84.5705 -4.76725 73.01575 -1.893 67.09375 15.875 C 79.73439 13.950813 86.921863 8.5290425 90.71875 4.3125 C 94.76575 -0.1965 95.89625 -4.4025 95.90625 -4.4375 C 95.89125 -4.4425 94.36025 -4.84725 92.03125 -4.90625 C 91.86025 -4.91125 91.68 -4.90625 91.5 -4.90625 C 91.319 -4.90625 91.1255 -4.91125 90.9375 -4.90625 z M -145.21875 -2.59375 C -151.28275 -2.50075 -155.6705 -1.254 -155.6875 -1.25 L -155.71875 -1.25 C -155.72775 -1.176 -155.7725 -0.7435 -155.6875 -0.1875 C -155.5995 0.3945 -155.34825 1.30375 -154.65625 2.34375 C -153.43825 4.17575 -150.59775 6.717 -143.96875 8.375 C -140.18075 9.322 -136.149 9.8125 -132 9.8125 C -124.96 9.8125 -119.96625 8.385 -119.90625 8.375 L -119.875 8.375 C -119.928 8.295 -125.4015 0.357 -135.9375 -1.75 C -138.6935 -2.301 -141.573 -2.59375 -144.5 -2.59375 C -144.745 -2.59375 -144.97975 -2.59775 -145.21875 -2.59375 z M 144.59375 -2.59375 C 141.66775 -2.59375 138.78625 -2.301 136.03125 -1.75 C 125.49525 0.357 120.01375 8.309 119.96875 8.375 C 120.01875 8.39 125.04975 9.8125 132.09375 9.8125 C 136.24375 9.8125 140.2925 9.325 144.0625 8.375 C 150.6895 6.718 153.531 4.17575 154.75 2.34375 C 155.441 1.30375 155.69225 0.3935 155.78125 -0.1875 C 155.86825 -0.7645 155.8105 -1.21875 155.8125 -1.21875 L 155.78125 -1.25 C 155.73725 -1.263 151.3765 -2.50075 145.3125 -2.59375 C 145.0735 -2.59775 144.83775 -2.59375 144.59375 -2.59375 z M -113.3125 0.3125 C -115.7085 0.3595 -117.21575 0.90625 -117.21875 0.90625 C -117.17675 1.09525 -116.9405 2.06975 -116.3125 3.34375 C -115.6465 4.69275 -114.39075 6.72325 -112.09375 8.78125 C -108.01375 12.43725 -99.83075 16.91475 -84.09375 17.46875 C -96.83475 2.54475 -107.66175 0.3125 -112.96875 0.3125 L -113.3125 0.3125 z M 112.28125 0.3125 C 107.08425 0.5035 96.5475 2.98975 84.1875 17.46875 C 99.901603 16.910819 108.07801 12.434774 112.15625 8.78125 C 114.45425 6.72325 115.74025 4.69275 116.40625 3.34375 C 117.09525 1.94575 117.3115 0.90625 117.3125 0.90625 C 117.1645 0.85425 115.696 0.3585 113.375 0.3125 C 113.177 0.3095 112.962 0.3125 112.75 0.3125 C 112.6 0.3125 112.43625 0.3075 112.28125 0.3125 z M -58.96875 9.875 C -59.46875 9.887 -60.00525 9.99775 -60.53125 10.21875 C -60.54525 10.41075 -60.6915 12.4195 -60.1875 14.4375 C -59.8795 15.6695 -59.399 16.6065 -58.75 17.3125 C -57.959 18.1715 -56.84675 18.65625 -55.59375 18.65625 C -54.50375 18.65625 -53.55 18.10125 -53.25 17.28125 C -52.95 16.47325 -53.05025 15.44575 -53.53125 14.21875 C -54.37925 12.05975 -56.33275 9.875 -58.84375 9.875 L -58.96875 9.875 z M 58.59375 9.875 C 56.24775 10.063 54.38975 12.19575 53.59375 14.21875 C 53.11275 15.44575 53.0125 16.47225 53.3125 17.28125 C 53.6185 18.10625 54.55925 18.65625 55.65625 18.65625 C 56.90625 18.65625 58.05375 18.1725 58.84375 17.3125 C 59.49275 16.6065 59.941 15.6685 60.25 14.4375 C 60.778 12.3255 60.59375 10.22375 60.59375 10.21875 C 60.07475 9.99975 59.53525 9.887 59.03125 9.875 L 58.71875 9.875 C 58.67175 9.875 58.63875 9.871 58.59375 9.875 z M -116.78125 12.3125 C -117.22725 12.3235 -117.636 12.42175 -118 12.59375 L -118 12.625 C -118.001 12.643 -118.1055 14.43325 -117.6875 16.28125 C -117.4375 17.38725 -117.09975 18.1985 -116.59375 18.8125 C -115.98175 19.5535 -115.088 19.96875 -114.125 19.96875 C -113.205 19.96875 -112.5125 19.34 -112.3125 18.75 C -112.0685 18.007 -112.135 17.155 -112.5 16.125 C -112.855 15.125 -113.4545 14.17375 -114.1875 13.46875 C -114.7375 12.94075 -115.62425 12.3125 -116.78125 12.3125 z M 116.375 12.3125 C 115.47194 12.439792 114.73125 13.005875 114.25 13.46875 C 113.516 14.17475 112.9175 15.125 112.5625 16.125 C 112.1965 17.155 112.16225 18.007 112.40625 18.75 C 112.60425 19.356 113.2685 19.96875 114.1875 19.96875 C 115.1475 19.96875 116.0775 19.5425 116.6875 18.8125 C 117.1925 18.1975 117.53125 17.38725 117.78125 16.28125 C 118.19225 14.46625 118.0695 12.69275 118.0625 12.59375 C 117.7025 12.42275 117.30625 12.3265 116.78125 12.3125 C 116.64638 12.3125 116.50401 12.294315 116.375 12.3125 z M -45.09375 13.9375 C -46.69075 13.9455 -47.745 14.25 -47.75 14.25 C -47.757 14.298 -48.448 19.06975 -45.125 24.21875 C -42.009 29.04675 -34.64025 35.30225 -17.28125 37.78125 C -28.64925 16.26225 -40.47575 13.9375 -45.09375 13.9375 z M 45.09375 13.9375 C 40.54275 13.9375 28.71475 16.25725 17.34375 37.78125 L 17.375 37.78125 C 34.734 35.30225 42.0715 29.04675 45.1875 24.21875 C 48.5105 19.06975 47.84375 14.28725 47.84375 14.28125 L 47.8125 14.25 C 47.6285 14.202 46.62775 13.9445 45.09375 13.9375 z M -97.03125 21.78125 C -97.52725 21.78125 -98.012 21.8005 -98.5 21.8125 C -106.681 22.0115 -113.96125 23.857 -114.03125 23.875 C -107.33125 30.574 -96.60125 32.96875 -88.78125 32.96875 L -88.78125 33 L -88.15625 32.96875 C -83.90325 32.90075 -80.90175 32.23975 -79.21875 30.96875 C -78.42275 30.36875 -78.02225 29.5585 -78.15625 28.8125 C -78.31625 27.9195 -79.03875 27.01025 -80.34375 26.03125 C -84.08175 23.22825 -89.69925 21.78125 -97.03125 21.78125 z M 96.125 21.8125 C 89.272 21.9305 84.0015 23.35825 80.4375 26.03125 C 79.1325 27.00925 78.411 27.9185 78.25 28.8125 C 78.116 29.5585 78.5175 30.36775 79.3125 30.96875 C 80.9945 32.23975 83.998 32.90175 88.25 32.96875 L 88.84375 32.96875 C 96.66375 32.96875 107.40275 30.59725 114.09375 23.90625 L 114.09375 23.875 C 114.02175 23.857 106.77475 22.0105 98.59375 21.8125 C 98.22075 21.8035 97.8185 21.8125 97.4375 21.8125 C 96.9965 21.8125 96.564 21.8045 96.125 21.8125 z M -65 22.71875 C -65.405 22.71975 -65.77325 22.732 -66.15625 22.75 C -70.68925 22.962 -73.7415 24.31625 -73.9375 24.40625 C -73.9205 24.57325 -73.81375 25.4235 -73.34375 26.4375 C -72.84175 27.5195 -71.79425 29.1125 -69.65625 30.5625 C -65.93625 33.0865 -60.291 34.34275 -52.875 34.34375 C -49.425 34.34375 -45.54375 34.05 -41.34375 33.5 C -50.54175 24.59 -59.268 22.71875 -65 22.71875 z M 63.90625 22.71875 C 58.223165 22.956536 50.032187 25.143125 41.40625 33.5 C 45.59725 34.059 49.4825 34.34275 52.9375 34.34375 C 60.3515 34.34375 65.99875 33.0855 69.71875 30.5625 C 71.85675 29.1125 72.90425 27.5195 73.40625 26.4375 C 73.89625 25.3845 73.99 24.50725 74 24.40625 C 73.793 24.31325 70.775 22.962 66.25 22.75 C 65.867 22.733 65.47625 22.71975 65.03125 22.71875 C 64.6755 22.71875 64.285122 22.702898 63.90625 22.71875 z M -72.34375 35 C -72.84375 35.012 -73.38025 35.12275 -73.90625 35.34375 C -73.92025 35.53575 -74.0665 37.5445 -73.5625 39.5625 C -73.2545 40.7945 -72.774 41.76275 -72.125 42.46875 C -71.334 43.32775 -70.22175 43.78125 -68.96875 43.78125 C -67.86875 43.78125 -66.925 43.21625 -66.625 42.40625 C -66.325 41.59825 -66.42525 40.57075 -66.90625 39.34375 C -67.75425 37.18475 -69.739 35 -72.25 35 L -72.34375 35 z M 71.96875 35 C 69.62275 35.188 67.76475 37.32075 66.96875 39.34375 C 66.48775 40.57075 66.3875 41.59725 66.6875 42.40625 C 66.9935 43.23125 67.93425 43.78125 69.03125 43.78125 C 70.29125 43.78125 71.42875 43.32875 72.21875 42.46875 C 72.86775 41.76275 73.316 40.7935 73.625 39.5625 C 74.153 37.4505 73.96875 35.38 73.96875 35.375 L 73.96875 35.34375 C 73.44975 35.12475 72.91025 35.012 72.40625 35 L 72.09375 35 C 72.04675 35 72.01375 34.996 71.96875 35 z M -45.53125 38.46875 C -51.18925 38.49075 -54.684 40.2 -56.625 41.625 C -58.663 43.12 -59.5 44.71875 -59.5 44.71875 C -53.076 48.41175 -46.37075 50.28025 -39.59375 50.28125 C -28.78375 50.28125 -21.35125 45.462 -21.03125 45.25 C -30.50325 40.757 -38.70525 38.46875 -45.40625 38.46875 L -45.53125 38.46875 z M 44.1875 38.46875 C 37.728619 38.736599 29.971875 41.037813 21.09375 45.25 C 21.33575 45.412 28.7865 50.28125 39.6875 50.28125 L 39.6875 50.3125 C 46.4675 50.3125 53.1425 48.41875 59.5625 44.71875 C 59.4815 44.56875 58.6345 43.054 56.6875 41.625 C 54.7455 40.201 51.25075 38.49075 45.59375 38.46875 L 45.46875 38.46875 C 45.049813 38.46875 44.618092 38.450893 44.1875 38.46875 z M -10.375 41.28125 L -13.40625 44.6875 L -7.71875 47.34375 L -22.0625 57.90625 C -22.0425 57.92425 -19.9845 59.639 -17.9375 61.5 C -17.0255 62.33 -15.8745 63.39525 -15.0625 64.28125 C -14.6875 64.69025 -14.38225 65.1105 -14.15625 65.4375 C -14.01825 65.6375 -13.918 65.80325 -13.875 65.90625 L -14.78125 65.34375 L -15.75 66.09375 L -13.75 66.28125 L -13.625 66.28125 C -13.511 66.22625 -13.47675 66.1895 -13.34375 66.0625 L -13.21875 65.96875 C -12.89475 65.67275 -12.347 65.1335 -11.625 64.3125 C -10.294 62.8005 -8.5075 60.582 -6.9375 58.625 C -3.8245 54.746 -1.235 51.41325 -0.75 50.78125 L 0.03125 49.75 L 0.8125 50.78125 C 1.2975 51.41125 3.885 54.742 7 58.625 C 8.571 60.582 10.3555 62.7995 11.6875 64.3125 C 12.4085 65.1335 12.95725 65.67175 13.28125 65.96875 L 13.40625 66.0625 C 13.53525 66.1855 13.57 66.2265 13.75 66.3125 L 13.84375 66.28125 L 15.8125 66.09375 L 14.84375 65.34375 L 13.96875 65.90625 C 14.00575 65.81825 14.08075 65.6385 14.21875 65.4375 C 14.44375 65.1105 14.75 64.68925 15.125 64.28125 C 15.938 63.39425 17.11825 62.33 18.03125 61.5 C 20.07825 59.639 22.12725 57.93025 22.15625 57.90625 L 7.8125 47.34375 L 13.46875 44.6875 L 10.4375 41.28125 L 0.03125 45.75 L -10.375 41.28125 z" fill="#000000"  /></g><g transform="translate(300.000,300.000) rotate(0.000) scale(0.418)"><path d="m 90.061189,-123.07714 10.375001,10.5 c 8.49902,13.58984 20.59668,26.45899 33.90625,36.031248 l -1.53125,-3.499998 c -2.67774,-11.01025 -6.83008,-21.63672 -16,-29.84375 -7.80664,-7.01172 -17.625,-9.31836 -26.750001,-13.1875 z m -183.4375,1.75 c -12.525389,4.87695 -26.537109,9.5039 -34.093749,22.6875 -5.31055,7.12988 -5.44336,16.39453 -9.1875,24.156248 6.93555,-6.514158 14.75684,-11.487308 20.875,-19.062498 6.8252,-9.51172 13.20606,-19.71582 22.406249,-27.78125 z m 217.500001,14.78125 c 4.96191,3.31787 8.63671,8.48779 10.5,13.75 3.72167,12.14404 5.50976,24.957038 10.84375,36.343748 l -0.3125,0.3125 c -2.00098,-3.18017 -3.02148,-7.0708 -6.125,-9.875 -9.27539,-12.163568 -25.41895,-15.346678 -31.40625,-29.781248 1.51465,8.6211 4.13184,16.75684 10.1875,23.437498 10.44922,11.2583 25.65917,17.90234 32.8125,31.96875 l 0.0937,-0.125 c -2.67187,-13.27539 1.56446,-26.06982 -1.34375,-39.218748 -2.53418,-11.62695 -13.07422,-24.32422 -25.25,-26.8125 z m -251.28125,2.25 c -6.38379,1.63232 -12.05664,5.5 -16.53125,11.0625 -10.31055,10.8125 -9.2627,27.447748 -7.8125,42.031248 0.2998,4.51513 -0.60937,8.75391 -0.3125,12.96875 3.02833,-6.20166 8.31348,-11.70704 13.8125,-16.53125 13.33496,-9.38916 27.27149,-22.51269 27.46875,-39.218748 -4.31445,12.02197 -17.32129,17.060548 -26.125,25.187498 -4.52441,4.43555 -8.15625,9.59522 -10.21875,15.03125 l -0.3125,-0.25 c 1.08398,-4.80859 3.24707,-9.15284 4.5,-13.84375 3.92969,-12.685548 3.13574,-27.922368 15.53125,-36.437498 z m 278.34375,20.25 c 4.36914,6.087398 5.13476,13.698248 5.25,21.562498 -1.99512,14.51856 -2.63281,29.92383 -0.5625,44.625 0,0.25488 -0.24902,0.4375 -0.5,0.4375 -1.19531,-3.88086 -1.10449,-8.39063 -3.03125,-12 -4.70312,-14.27149 -21.93555,-20.95605 -28.9375,-33.90625 0.98242,5.63867 2.73437,10.99316 4.8125,16.1875 6.55273,15.88428 22.50195,27.90234 26.90625,44.75 0.50293,1.55176 0.62403,3.41993 1.1875,4.8125 1.18067,-8.07324 3.30664,-15.86231 6.3125,-23.15625 8.06446,-17.21192 5.63477,-41.11963 -5.4375,-56.125 -1.94824,-2.435058 -3.19825,-5.555178 -6,-7.187498 z m -305.03125,2.5 c -0.1984,0.0509 -0.34302,0.21838 -0.53125,0.3125 -8.64356,11.011228 -14.7793,23.065428 -14.40625,37.843748 -1.16406,18.18945 10.53125,31.00586 11.84375,48.15625 2.70508,-17.89649 17.51562,-30.71192 25.53125,-46.34375 2.80468,-6.25196 4.90918,-13.05225 5.75,-19.8125 -1.12988,2.87988 -3.08204,5.3584 -5.28125,7.8125 -10.29883,9.38282 -22.07129,19.01661 -24.3125,32.59375 -0.37598,1.92969 -0.5,3.93652 -1.0625,5.8125 -0.4414,0.19434 -0.43847,-0.31543 -0.625,-0.4375 l 1.25,-16.84375 c 0.43359,-16.43995 -7.45215,-34.63525 2.0625,-49.093748 -0.0808,-0.0151 -0.15262,-0.017 -0.21875,0 z m 324.71875,42.968748 c 2.81543,15.33203 -4.0918,28.14551 -9.625,40.84375 -3.89356,8.82422 -5.15234,18.79199 -7.65625,28.25 l -0.75,0.84375 -0.3125,-0.3125 c 0.875,-4.10938 2.32421,-8.07715 1.9375,-12.75 1.06543,-19.28125 -15.80567,-31.0918 -19.625,-48.28125 l -0.21875,6.4375 c 1.43847,16.83203 5.92481,32.41309 11,47.75 2.92871,7.12207 2.02051,16.35645 1.34375,23.875 6.06641,-9.49609 14.02735,-18.1875 20.59375,-27.53125 9.19922,-16.87793 11.72852,-41.04883 3.3125,-59.125 z m -342.96875,2.5625 c -2.01172,4.24121 -2.80957,9.03418 -3.875,13.65625 -2.24903,11.94434 -0.0527,24.63183 3.25,35.59375 4.01367,13.75 17.51855,23.57031 24.34375,36.15625 l 0.9375,0.75 c -0.99414,-6.83301 -1.49805,-14.19726 0.4375,-20.71875 2.94141,-10.43652 6.33007,-20.61915 8.59375,-31.375 1.18261,-8.45313 3.23926,-17.8584 2.25,-26 -1.12598,4.38672 -2.45508,8.65234 -4.71875,12.46875 -9.30957,14.08496 -18.57422,30.79199 -12.15625,48.78125 -0.14844,0.19043 -0.35352,0.44238 -0.59375,0.3125 -2.57911,-5.94336 -3.00879,-12.72852 -4.8125,-19.0625 -4.31055,-16.93457 -17.46777,-31.02539 -13.65625,-50.5625 z m 309.75,46.34375 -2.8125,7.53125 c -7.54883,22.40918 -1.56054,50.38769 -13.8125,70.75 l 0,0.75 c 7.99903,-6.19434 16.42578,-11.23925 24.75,-16.6875 20.19531,-13.77246 33.85449,-35.11036 30.15625,-59.4375 -1.42969,14.57226 -12.5166,25.34277 -23.40625,35.84375 -7.01562,7.50976 -11.68457,15.89746 -17.6875,23.78125 l -0.75,0 c 4.44336,-6.75684 7.19922,-14.25684 7.625,-22.71875 0.42578,-14.00782 -5.6377,-25.85254 -4.0625,-39.8125 z m -275.96875,2.28125 c 1.69336,11.125 -2.75,20.95411 -3.75,31.53125 -0.86816,8.69043 0.45117,17.24707 4.0625,24.4375 0.75586,2.25977 2.83399,4.13769 3.34375,6.34375 -3.26367,-2.93653 -5.40137,-6.83593 -7.84375,-10.34375 -10.32227,-17.14355 -32.59082,-28.07324 -34.09375,-48.78125 -0.75391,9.21093 -0.35938,19.13574 3.125,27.15625 8.26758,23.26172 33.67676,35.33887 52.3125,48.03125 -1.75781,-4.42968 -4.45313,-8.58399 -5.78125,-13.21875 -5.07129,-21.19141 -2.30469,-45.59961 -11.375,-65.15625 z m 264.59375,33.46875 c -4.39062,4.80859 -7.51465,10.12011 -11.28125,15.1875 -11.82422,17.89746 -10.80859,41.429202 -28.531251,56.625002 10.463871,-3.56836 21.944341,-4.48975 32.718751,-7.375 20.81934,-6.62012 42.94043,-27.467772 45.6875,-49.687502 -2.55664,6.56738 -7.87208,12.64746 -13.6875,17.28125 -14.51758,10.88086 -32.07911,14.63867 -45.5,28.031252 -1.44532,0.9502 -2.85644,2.34475 -4.5,2.40625 5.03028,-4.36816 9.56933,-9.750982 12.75,-15.312502 8.26269,-14.00098 5.15137,-32.72852 12.34375,-47.15625 z m -253.21875,2 c 7.65136,15.27149 4.06934,35.14453 14.28125,49.34375 2.80469,4.694342 7.43164,8.846682 11.4375,12.468752 l -0.1875,0.1875 c -3.625,-1.68848 -6.97657,-4.12305 -10.1875,-6.96875 -17.44825,-14.313482 -43.48437,-16.244142 -53.875,-39.750002 2.81934,17.25781 16.27735,32.95899 31.34375,42.218752 13.79883,9.62647 32.11621,8.1914 47.749999,13.34375 -14.446289,-11.64209 -16.819339,-29.036132 -23.062499,-44.437502 -4.19727,-9.43457 -10.54786,-18.08984 -17.5,-26.40625 z m 228.75,35.53125 c -12.572271,8.5752 -22.647461,19.773932 -33.968751,30.656252 -7.68652,6.93945 -17.06152,9.80859 -26.71875,12 l 0,0.125 3.875,0.5 c 20.19629,3.26367 41.42188,13.02148 62.500001,5.0625 12.26563,-4.3125 25.71484,-14.55322 31.09375,-26.8125 -14.48828,17.59328 -38.09766,14.25781 -58.750001,17.5 -5.55469,0.5625 -10.70312,2.5586 -16.3125,2.4375 3.9336,-1.88867 8.75097,-2.31836 12.5625,-4.8125 15.40136,-7.68555 16.39551,-24.702152 25.718751,-36.656252 z m -203.75,1.6875 c 9.443359,12.69922 11.979489,31.544922 29.374999,37.656252 2.88769,1.52148 6.57324,1.32617 9.21875,3 -3.32227,0.50977 -6.20899,-0.72851 -9.34375,-1.15625 -22.19239,-4.95898 -49.402339,1.354 -66.062499,-17.59375 6.32324,12.38135 19.27636,22.32422 31.84375,26.28125 19.331049,6.55859 39.583979,-0.76758 57.812499,-5.25 2.61719,-0.68555 5.81153,-0.45313 8.25,-1.34375 -10.14648,-2.0625 -19.75,-5.30469 -27.75,-12.3125 -11.12989,-10.47021 -21.2793,-21.269532 -33.343749,-29.281252 z M 19.373689,126.26661 c -5.35068,0.007 -10.68341,0.63696 -15.8125002,1.96875 -3.25586,2.92187 -6.58496,-0.53325 -10.03125,-0.59375 -22.0830098,-4.81641 -41.1191398,5.27344 -59.4374998,13.21875 -13.65137,5.37109 -31.52735,4.48829 -43.531249,-3.78125 5.93945,7.44727 13.859369,12.04492 22.062499,15.15625 15.25293,6.08008 33.41016,1.9375 46.03125,-6.875 10.83105,-6.08008 20.13769,-18.01953 34.4062498,-13.5 -14.5205098,6.75 -27.7812498,16.17383 -39.7812498,28.3125 l 7.53125,6.21875 c 8.75,-11.71875 20.38672,-21.27735 32.1562498,-28.71875 2.55274,-1.3711 5.23145,-3.10156 8.0625,-3.46875 14.4570302,7.0625 27.3720702,19.15625 39.0312502,31.71875 2.4873,-2.00782 5.11719,-4.17188 7.15625,-6.5 -12.09863,-11.6875 -25.31738,-20.83985 -39.5625,-27.46875 2.36719,-0.68358 5.05859,-0.8027 7.84375,-0.75 7.67871,-0.48047 12.90723,4.94531 18.84375,8.71875 14.66309,11.11914 34.25781,18.44336 53.03125,11.4375 8.41602,-3.01367 16.565431,-8.32422 22.531251,-15.75 -11.60351,8.24805 -29.119141,9.63086 -42.656251,4.625 l -14.5625,-5.84375 c -9.71497,-5.15759 -21.541,-8.14072 -33.3125,-8.125 z" fill="#ffffff"  /></g></svg>
