<?xml version="1.0" encoding="utf-8" standalone="yes"?>
<!DOCTYPE svg PUBLIC "-//W3C//DTD SVG 1.1//EN" "http://www.w3.org/Graphics/SVG/1.1/DTD/svg11.dtd">
<svg xmlns="http://www.w3.org/2000/svg" xmlns:xlink="http://www.w3.org/1999/xlink" version="1.1" width="600" height="400">
<rect width="600" height="400" x="0" y="0" fill="#fddd00" /><rect width="600.000" height="200.000" x="0.000" y="0.000" fill="#fddd00" /><rect width="600.000" height="200.000" x="0.000" y="200.000" fill="#ff9900" />
<g transform="translate(300.000,300.000) rotate(0.000) scale(1.000)"><path d="M -83.20869,-55.472461 A 50.0022,50.0022 0 1 0 0,0 50.0022,50.0022 0 0 1 83.20869,55.472461 100.0044,100.0044 0 0 1 -83.20869,-55.472461 z" fill="#000000"  /></g><g transform="translate(300.000,100.000) rotate(180.000) scale(1.000)"><path d="M -83.20869,-55.472461 A 50.0022,50.0022 0 1 0 0,0 50.0022,50.0022 0 0 1 83.20869,55.472461 100.0044,100.0044 0 0 1 -83.20869,-55.472461 z" fill="#000000"  /></g></svg>
