<?xml version="1.0" encoding="utf-8" standalone="yes"?>
<!DOCTYPE svg PUBLIC "-//W3C//DTD SVG 1.1//EN" "http://www.w3.org/Graphics/SVG/1.1/DTD/svg11.dtd">
<svg xmlns="http://www.w3.org/2000/svg" xmlns:xlink="http://www.w3.org/1999/xlink" version="1.1" width="600" height="400">
<rect width="600" height="400" x="0" y="0" fill="#337320" /><rect width="300.000" height="400.000" x="0.000" y="0.000" fill="#337320" /><rect width="300.000" height="400.000" x="300.000" y="0.000" fill="#ff6600" />
<rect width="100.000" height="133.333" fill="#000000" x="0.000" y="0.000"/><rect width="100.000" height="133.333" fill="#000000" x="0.000" y="266.667"/><rect width="100.000" height="133.333" fill="#000000" x="100.000" y="133.333"/><rect width="100.000" height="133.333" fill="#000000" x="200.000" y="0.000"/><rect width="100.000" height="133.333" fill="#000000" x="200.000" y="266.667"/><line x1="450.000" y1="0" x2="450.000000" y2="400" stroke="#ffffff" stroke-width="100.000" /><g transform="translate(150.000,200.000) rotate(0.000) scale(2.000)"><path d="m -1.938154,-24.65782 0,5.00872 c -1.306425,0.12409 -2.570063,0.37191 -3.789199,0.74041 l -1.916375,-4.61672 -3.571429,1.48084 1.916377,4.6385 c -1.14189,0.6132 -2.230759,1.31513 -3.222997,2.13414 l -3.549652,-3.52787 -2.743902,2.7439 3.549652,3.54965 c -0.803025,0.98714 -1.489705,2.06858 -2.090593,3.20122 l -4.682055,-1.93815 -1.480837,3.57142 4.682056,1.93816 c -0.362258,1.21904 -0.600395,2.48381 -0.718641,3.7892 l -5.095819,0 0,3.87631 5.117596,0 c 0.132383,1.24682 0.384786,2.44898 0.740418,3.61498 l -4.769164,1.9817 1.567945,3.7892 4.812717,-1.98171 c 0.577158,1.03709 1.232484,2.02932 1.981708,2.9399 l -3.680314,3.70209 2.896341,2.89634 3.723868,-3.72387 c 0.915165,0.73 1.901861,1.37938 2.939896,1.93816 l -2.025262,4.89982 3.789199,1.56795 2.047037,-4.89983 c 1.11069,0.3214 2.258621,0.5331 3.440767,0.65331 l 0,5.33537 4.115854,0 0,-5.35715 c 1.181575,-0.12692 2.331429,-0.32534 3.440767,-0.65331 l 2.025261,4.92161 3.810976,-1.56795 -2.047039,-4.94338 c 1.029478,-0.56085 2.01076,-1.2084 2.918119,-1.93815 l 3.789199,3.76742 2.896341,-2.89634 -3.767422,-3.76742 c 0.739157,-0.90573 1.390258,-1.88845 1.959931,-2.91812 l 4.899826,2.04704 1.589721,-3.7892 -4.878049,-2.02525 c 0.340948,-1.12351 0.562718,-2.28564 0.696864,-3.48433 l 5.270035,0 0,-4.09407 -5.248258,0 C 19.284418,-3.28939 19.066558,-4.4881 18.728223,-5.64649 l 4.790941,-1.98171 -1.480836,-3.59321 -4.769164,1.98171 c -0.596363,-1.13518 -1.291582,-2.21092 -2.090593,-3.20122 l 3.614983,-3.61498 -2.743902,-2.7439 -3.593206,3.5932 c -0.979331,-0.8161 -2.052376,-1.51933 -3.179443,-2.13414 l 1.959931,-4.68206 -3.593206,-1.50261 -1.916376,4.66028 c -1.219547,-0.37821 -2.480871,-0.62915 -3.789199,-0.7622 l 0,-5.03049 -3.876307,0 z m -0.43554,9.51656 c 0.02122,-0.003 0.04408,0.003 0.06533,0 l 0,6.83797 c -2.907173,0.80188 -5.196875,3.12494 -5.945121,6.05402 l -6.816202,0 c 0.915603,-6.62159 6.104297,-11.88376 12.695993,-12.89199 z m 4.703833,0.0218 c 6.549199,1.04196 11.697429,6.27863 12.608885,12.87021 l -6.816202,0 C 7.387763,-5.12671 5.164014,-7.41984 2.330139,-8.25971 l 0,-6.85975 z m -2.39547003,10.64895 c 2.38678003,0 4.33362403,1.92507 4.33362403,4.31185 0,2.38677 -1.946844,4.33362 -4.33362403,4.33362 -2.38678097,1e-5 -4.31184697,-1.94684 -4.31184697,-4.33362 0,-2.38679 1.925066,-4.31185 4.31184697,-4.31185 z m -14.93902397,6.85976 6.859756,0 c 0.853633,2.72633 3.074954,4.83052 5.836236,5.59668 l 0,6.83798 C -8.777295,13.86265 -13.913997,8.81535 -15.004355,2.38925 z m 23.018292,0 6.859756,0 C 13.791951,8.76453 8.726885,13.78442 2.330139,14.80213 l 0,-6.85975 C 5.019666,7.14094 7.176049,5.0653 8.013937,2.38925 z" fill="#ffffff"  /></g><g transform="translate(450.000,200.000) rotate(0.000) scale(2.000)"><path d="M -1.9375 -24.65625 L -1.9375 -19.65625 C -3.243925 -19.53216 -4.499614 -19.27475 -5.71875 -18.90625 L -7.65625 -23.53125 L -11.21875 -22.03125 L -9.3125 -17.40625 C -10.45439 -16.79305 -11.539012 -16.10026 -12.53125 -15.28125 L -16.0625 -18.8125 L -18.8125 -16.0625 L -15.28125 -12.5 C -16.084275 -11.51286 -16.742862 -10.44514 -17.34375 -9.3125 L -22.03125 -11.25 L -23.53125 -7.65625 L -18.84375 -5.71875 C -19.206008 -4.49971 -19.444254 -3.24289 -19.5625 -1.9375 L -24.65625 -1.9375 L -24.65625 1.9375 L -19.53125 1.9375 C -19.398867 3.18432 -19.136882 4.3965 -18.78125 5.5625 L -23.5625 7.53125 L -22 11.3125 L -17.1875 9.34375 C -16.610342 10.38084 -15.936724 11.37067 -15.1875 12.28125 L -18.875 15.96875 L -15.96875 18.875 L -12.25 15.15625 C -11.334835 15.88625 -10.350535 16.53497 -9.3125 17.09375 L -11.34375 22 L -7.5625 23.5625 L -5.5 18.65625 C -4.38931 18.97765 -3.244646 19.19229 -2.0625 19.3125 L -2.0625 24.65625 L 2.0625 24.65625 L 2.0625 19.28125 C 3.244075 19.15433 4.390662 18.95297 5.5 18.625 L 7.5 23.5625 L 11.3125 22 L 9.28125 17.03125 C 10.310728 16.4704 11.280141 15.8235 12.1875 15.09375 L 15.96875 18.875 L 18.875 15.96875 L 15.125 12.21875 C 15.864157 11.31302 16.492827 10.31092 17.0625 9.28125 L 21.96875 11.34375 L 23.5625 7.5625 L 18.6875 5.53125 C 19.028448 4.40774 19.240854 3.22994 19.375 2.03125 L 24.65625 2.03125 L 24.65625 -2.0625 L 19.40625 -2.0625 C 19.287358 -3.29861 19.057085 -4.49786 18.71875 -5.65625 L 23.53125 -7.625 L 22.03125 -11.21875 L 17.28125 -9.25 C 16.684887 -10.38518 15.986511 -11.4472 15.1875 -12.4375 L 18.78125 -16.0625 L 16.0625 -18.8125 L 12.46875 -15.21875 C 11.489419 -16.03485 10.408317 -16.72894 9.28125 -17.34375 L 11.25 -22.03125 L 7.65625 -23.53125 L 5.71875 -18.875 C 4.499203 -19.25321 3.245828 -19.49195 1.9375 -19.625 L 1.9375 -24.65625 L -1.9375 -24.65625 z M -0.09375 -15.3125 C 8.277471 -15.3125 15.09375 -8.5587214 15.09375 -0.1875 C 15.09375 8.1836863 8.277471 15 -0.09375 15 C -8.464975 15.000035 -15.21875 8.1837215 -15.21875 -0.1875 C -15.21875 -8.5587564 -8.464975 -15.3125 -0.09375 -15.3125 z " fill="#000000"  /></g><g transform="translate(450.000,200.000) rotate(0.000) scale(0.248)"><path d="M -0.13113898,99.64762 C 7.076591,97.20211 7.474791,90.85885 9.820301,85.414343 c 3.87464,7.224947 13.33109,7.627627 24.45728,5.989527 8.10634,-2.00519 10.43964,1.31863 13.47644,3.99302 1.67016,-5.4654 -2.3216,-12.499147 -10.4817,-13.975567 -8.56768,0.85217 -15.26119,0.29873 -18.96681,-2.49564 1.89144,-1.77919 8.81392,-2.64462 14.97382,-4.49215 -8.39676,-10.74933 -12.65196,-5.90405 -18.85748,-6.79291 -4.7915,-3.92206 -6.35546,-7.45547 -7.98608,-10.98081 1.98639,-1.15075 10.00608,1.46933 18.3584,4.29727 -2.95541,-9.48551 -7.18186,-8.76559 -11.97907,-12.47819 -6.55129,-2.34656 -5.78119,-5.91335 -7.98609,-8.9843 4.41537,2.49281 7.64501,5.51258 15.473,6.48867 -12.11068,-12.49668 -13.80485,-19.2811 -13.47645,-24.95639 7.98047,-2.21036 16.89346,24.91956 19.96511,32.94242 2.44056,-2.48127 4.50567,-5.43187 8.48515,-5.98953 4.77871,5.27471 10.48372,9.31437 16.47124,12.97732 -4.08634,3.08044 -9.28825,-3.98114 -13.47644,-0.49912 -4.75593,6.07116 -2.43464,10.4771 -0.49918,14.97383 -0.16871,-4.2275 2.28459,-4.84965 5.33036,-4.6572 3.24047,0.71166 5.53093,-0.71414 7.14985,-3.65099 1.72407,-1.90879 3.44814,-1.90325 5.17222,-1.8255 -0.12258,5.51746 1.04618,12.51083 -1.67335,15.06034 -2.65964,8.63877 4.65598,5.39003 2.12974,14.147577 3.14294,-1.83871 5.91412,-2.49317 8.67108,-9.735967 -0.35551,-5.30547 -1.68376,-5.84738 -3.19459,-7.30198 l -0.30427,-10.04022 c 3.56103,2.16446 6.81113,4.76412 8.36685,9.73597 1.74707,8.51442 9.29846,0.0493 11.71361,8.82322 2.90129,-8.81739 -0.0119,-17.04336 -5.62861,-17.49433 -6.53273,1.1046 -10.9452,-3.64575 -11.1051,-6.99772 5.44345,-0.62957 11.74954,2.22726 16.12521,-4.25949 1.05551,-0.89911 2.07969,-1.83736 4.71588,-0.76062 -3.18665,-5.34031 -6.22851,-7.31919 -10.953,-8.06261 -7.51891,-1.90268 -6.20696,8.436 -13.99546,10.34448 l -5.4765,-1.36913 -15.97304,-13.08271 6.23711,-2.12974 c -10.0217,-7.59331 -12.51835,-19.29116 -18.55923,-29.0558 3.17103,-3.85677 8.50784,18.49786 18.71135,22.81869 0.76067,-4.8173 -6.74418,-10.95297 -12.17001,-27.38243 4.0032,-1.87399 8.77253,20.48611 26.62181,30.2728 3.84325,1.9324 7.10866,1.00565 9.73598,-0.30426 -10.65912,-12.00294 -18.59051,-24.66395 -24.79629,-39.09601 0.37794,-1.3370302 0.77469,-2.6270002 2.73825,0 5.67108,14.70034 15.56722,23.89245 30.4249,32.09829 -10.76052,-10.59282 -19.24603,-22.32314 -26.77392,-34.5322802 -0.18959,-3.478628 0.95067,-4.075855 3.19464,-2.28187 4.35443,7.4520502 8.94619,14.7722702 16.88583,20.2325702 4.97417,1.76619 9.27371,1.17119 12.62634,-2.73824 -11.66036,-6.69118 -16.5848,-19.5059182 -24.26387,-29.816425 -0.71526,-3.786645 1.00881,-3.507753 2.66216,-3.346742 3.34088,8.999604 11.92676,15.7513168 20.84104,22.362317 l 2.73825,-0.45638 c -8.64444,-8.6844102 -15.23222,-18.397189 -22.36228,-27.838794 0.44562,-1.153464 -0.57994,-3.009145 2.12975,-1.521243 3.17227,3.441063 5.94144,6.830785 10.64871,9.888095 3.52505,1.639237 6.5651,1.095737 9.27959,-0.912748 -7.81196,-6.626686 -13.43418,-13.910301 -17.19011,-21.753812 l 1.0649,-2.738243 c 3.27459,5.606671 8.08428,10.062001 14.60397,13.234837 l -14.75608,-20.841067 c -0.20356,-2.181841 0.84907,-1.851428 1.82546,-1.673372 2.53366,3.445073 5.51541,7.561313 13.38696,5.020117 -12.92892,-8.862298 -10.34443,-31.946167 -17.79856,-41.225767 -6.91902,-7.422625 -16.65629,-3.939006 -20.53681,-0.304247 -4.80427,6.839661 -4.72165,15.724198 1.67336,17.646451 3.91386,3.881475 2.91072,8.03612 -0.45634,12.322095 -6.52088,9.021826 -13.46681,16.555757 -21.60171,19.928314 -9.73546,1.46099 -12.34464,-1.612912 -13.23485,-5.780733 5.95928,0.25949 9.9114,-2.035577 11.40934,-7.454101 -9.52573,1.085361 -14.1547,-0.375593 -13.53908,-4.563743 7.22258,0.982552 9.17175,-1.257536 9.12748,-4.715861 -3.6266,3.502763 -4.78861,0.341603 -6.84562,-2.43399 -1.12475,-1.862856 -0.38212,-10.2331 1.36912,-12.93059 1.15181,-3.04249 2.12412,-6.084986 -0.30423,-9.127476 -1.1402,-1.521248 -1.62185,-3.04249 0.45634,-4.563738 3.73892,0.512171 4.84202,-2.929351 6.23712,-5.932856 -6.2865,2.174634 -13.83222,2.333392 -19.47190998,-0.304248 -6.23330012,-2.668223 -14.19799402,-3.102603 -17.03799402,1.977619 -6.954383,1.128181 -10.030156,4.328738 -8.975311,8.823223 l 1.825464,3.65099 c 0.417784,-6.517104 15.7192809,-1.513783 14.4518609,0.912748 l -8.3668599,0.760624 c 5.05531,2.703036 12.1569599,5.033104 11.4093299,11.865718 -1.13185,9.389388 -9.1856179,7.511393 -14.9081959,7.454105 -0.622114,3.05168 0.735567,5.820526 5.780722,8.062599 -3.245928,1.431155 -5.764949,4.497774 -10.496599,2.586119 -0.57366,3.825312 4.154485,6.086178 9.888094,7.60623 -4.687269,4.098011 -9.970002,5.219042 -16.057013,1.551356 -7.914589,-3.038202 -9.306393,-9.091035 -15.827219,-18.112861 -1.88598,-3.915702 -2.518866,-8.070341 -0.456392,-12.322095 6.395053,-1.922253 6.477682,-10.806785 1.673403,-17.646451 -3.880568,-3.634758 -13.617786,-7.118377 -20.536859,0.304253 -7.454074,9.279599 -4.86964,32.363464 -17.79856,41.225759 7.871599,2.541198 10.853301,-1.575042 13.386961,-5.020114 0.976443,-0.178057 2.029021,-0.50847 1.825516,1.673371 l -14.756085,20.841072 c 6.519692,-3.17284 11.329383,-7.628171 14.603971,-13.234842 l 1.064846,2.738243 c -3.755877,7.843511 -9.378094,15.127126 -17.190054,21.753813 2.714485,2.008484 5.754485,2.551985 9.279589,0.912752 4.707269,-3.057315 7.476444,-6.447037 10.648713,-9.888099 2.709639,-1.487902 1.684124,0.367783 2.129742,1.521242 -7.130104,9.441605 -13.717837,19.1543898 -22.362323,27.838796 l 2.738248,0.45638 c 8.91428,-6.6109922 17.500209,-13.362715 20.841086,-22.362314 1.653351,-0.161015 3.377423,-0.439907 2.662165,3.346743 -7.679073,10.3105018 -12.603507,23.125231 -24.263869,29.816421 3.352577,3.90943 7.652166,4.50442 12.626342,2.73823 7.939589,-5.4603 12.531393,-12.78051 16.885827,-20.2325622 2.243918,-1.793984 3.384227,-1.196757 3.19464,2.281862 -7.527888,12.2091502 -16.013405,23.9394702 -26.773974,34.5322802 14.857683,-8.20583 24.75387,-17.39794 30.424954,-32.0982902 1.963557,-2.62699 2.360309,-1.33703 2.738248,0 -6.205775,14.4320602 -14.137219,27.0930802 -24.796345,39.0960302 2.627372,1.30989 5.892785,2.23665 9.735981,0.30424 17.849282,-9.78668 22.618664,-32.14678 26.621809,-30.27278 -5.425774,16.42945 -12.930621,22.56512 -12.169951,27.38242 10.203507,-4.32083 15.540261,-26.67547 18.711292,-22.81869 -6.040877,9.76464 -8.537527,21.46249 -18.559178,29.0558 l 6.237114,2.12974 -15.973095,13.08272 -5.476496,1.36912 c -7.788455,-1.90848 -6.476496,-12.24716 -13.995466,-10.34448 -4.724434,0.74341 -7.76629,2.7223 -10.95294,8.06261 2.636186,-1.07674 3.660362,-0.13849 4.715877,0.76062 4.375619,6.48675 10.681754,3.62992 16.125209,4.25948 -0.159897,3.35198 -4.572372,8.10233 -11.105105,6.99774 -5.617011,0.45096 -8.52995,8.67693 -5.628609,17.49432 2.415155,-8.77396 9.966496,-0.3088 11.713558,-8.82322 1.555722,-4.97185 4.805877,-7.57151 8.366857,-9.73597 l -0.304226,10.04022 c -1.510825,1.45461 -2.839073,1.99651 -3.19464,7.30198 2.756959,7.242787 5.528145,7.897247 8.671135,9.735967 -2.526289,-8.757547 4.789382,-5.508807 2.129743,-14.147577 -2.719588,-2.54951 -1.550774,-9.54288 -1.673402,-15.06034 1.724072,-0.0777 3.448196,-0.0833 5.172268,1.82549 1.618867,2.93685 3.909382,4.36265 7.149847,3.651 3.045774,-0.19245 5.499073,0.42971 5.33031,4.6572 1.935516,-4.49672 4.256753,-8.90267 -0.499124,-14.97384 -4.188248,-3.48201 -9.390156,3.57957 -13.476445,0.49913 5.987527,-3.66295 11.692527,-7.70261 16.471188,-12.97731 3.979485,0.55765 6.04464,3.50824 8.485208,5.98953 3.071598,-8.02287 11.984589,-35.15279 19.9651019,-32.94243 0.32835,5.67528 -1.36582,12.45971 -13.4764419,24.95639 7.82794,-0.97608 11.057632,-3.99586 15.4729419,-6.48867 -2.2049,3.07096 -1.4348,6.63774 -7.9860329,8.9843 -4.797269,3.71261 -9.023661,2.99268 -11.979074,12.47819 8.352269,-2.82794 16.3720169,-5.44802 18.3583569,-4.29727 -1.63062,3.52534 -3.1945399,7.05875 -7.9860359,10.98081 -6.205568,0.88886 -10.460723,-3.95642 -18.857477,6.79291 6.159846,1.84752 13.082373,2.71297 14.973817,4.49215 -3.70562,2.79437 -10.399177,3.34781 -18.966859,2.49564 -8.160105,1.47642 -12.151806,8.51017 -10.481651,13.975567 3.036804,-2.6744 5.370052,-5.998207 13.476445,-3.99302 11.126187,1.63809 20.582632,1.23542 24.457221,-5.989527 2.3455699,5.444497 2.7437599,11.787767 9.98258002,14.973827 l 0,0 z" fill="#000000"  /></g></svg>
