<?xml version="1.0" encoding="utf-8" standalone="yes"?>
<!DOCTYPE svg PUBLIC "-//W3C//DTD SVG 1.1//EN" "http://www.w3.org/Graphics/SVG/1.1/DTD/svg11.dtd">
<svg xmlns="http://www.w3.org/2000/svg" xmlns:xlink="http://www.w3.org/1999/xlink" version="1.1" width="600" height="400">
<rect width="600" height="400" x="0" y="0" fill="#6299ab" /><polygon points="0,0 600,400 600,0 0,400" fill="#009900" />
<path d="M 300.000,200.000 600.000,200.000 600.000,0 300.000,0.000 Z" fill="#3399ff" /><path d="M 300.000,200.000 0.000,200.000 0,400.000 300.000,400.000 Z" fill="#3399ff" /><g transform="translate(150.000,300.000) rotate(0.000) scale(4.651)"><path d="m 21.702102 14.65406 -5.16063 -5.6212406 -14.5992298 -6.6443 -10.84285 0.0132 5.11713 -3.33502996 -9.4761002 -9.62816944 -8.481 -4.10825 8.67802 0 10.6845902 13.0693494 6.03996 -0.89038 -1.01136 3.9475899 15.8394898 4.5588501 3.21198 8.6384006" fill="#000000"  /></g><g transform="translate(450.000,110.000) rotate(0.000) scale(4.651)"><path d="m 21.702102 14.65406 -5.16063 -5.6212406 -14.5992298 -6.6443 -10.84285 0.0132 5.11713 -3.33502996 -9.4761002 -9.62816944 -8.481 -4.10825 8.67802 0 10.6845902 13.0693494 6.03996 -0.89038 -1.01136 3.9475899 15.8394898 4.5588501 3.21198 8.6384006" fill="#000000"  /></g></svg>
