<?xml version="1.0" encoding="utf-8" standalone="yes"?>
<!DOCTYPE svg PUBLIC "-//W3C//DTD SVG 1.1//EN" "http://www.w3.org/Graphics/SVG/1.1/DTD/svg11.dtd">
<svg xmlns="http://www.w3.org/2000/svg" xmlns:xlink="http://www.w3.org/1999/xlink" version="1.1" width="600" height="400">
<rect width="600" height="400" x="0" y="0" fill="#660099" /><polygon points="600,400 600,0 0,400" fill="#6299ab" />
<polygon points="100.000,0 0,0 0,66.667 500.000,400 600,400 600,333.333 100.000,0" fill="#ffffff" /><polygon points="566.667,0 600,0 600,22.222 33.333,400 0,400 0,377.778 566.667,0" fill="#ffffff" /><g transform="translate(300.000,200.000) rotate(0.000) scale(0.207)"><path d="m 62.353503,-160.6321 -191.463733,190.475 114.298053,0 L -138,156.57082 -127.44397,160.7 104.12739,-5.7821001 l -110.816867,0 L 137.77859,-129.2821 z" fill="#000000"  /></g></svg>
