<?xml version="1.0" encoding="utf-8" standalone="yes"?>
<!DOCTYPE svg PUBLIC "-//W3C//DTD SVG 1.1//EN" "http://www.w3.org/Graphics/SVG/1.1/DTD/svg11.dtd">
<svg xmlns="http://www.w3.org/2000/svg" xmlns:xlink="http://www.w3.org/1999/xlink" version="1.1" width="600" height="400">
<rect width="600" height="400" x="0" y="0" fill="#337320" /><rect width="600.000" height="400.000" x="0.000" y="0.000" fill="#337320" />
<path d="M 300.000,200.000 600.000,200.000 600.000,0 0.000,200.000 Z" fill="#000000" /><path d="M 200.000,200.000 0.000,200.000 0,400.000 600.000,200.000 Z" fill="#ffffff" /><g transform="translate(150.000,270.000) rotate(0.000) scale(2.128)"><path d="M 7 -20.375 C 6.4838727 -20.32384 6.007199 -20.1734 5.5625 -19.96875 C 4.969567 -19.695883 4.333795 -19.295734 3.65625 -18.75 C 2.978705 -18.204266 2.3932245 -17.562884 1.90625 -16.8125 C 1.4192774 -16.062116 1.0957983 -15.537091 0.96875 -15.21875 C 0.84170174 -14.90041 0.70060383 -13.418959 0.53125 -10.78125 C 0.36189801 -8.1435389 0.25102229 -6.6961848 0.1875 -6.46875 L 0.09375 -6.125 L -0.03125 -6.125 C -0.1159927 -6.125 -0.2983702 -7.2573533 -0.53125 -9.53125 C -0.76412704 -11.805146 -0.93545174 -13.368899 -1.0625 -14.1875 C -1.1895464 -15.006101 -1.3709053 -15.721293 -1.625 -16.3125 C -1.8790956 -16.903707 -2.2830921 -17.44576 -2.8125 -17.96875 C -3.3419089 -18.491741 -3.947455 -18.90041 -4.625 -19.21875 C -5.302546 -19.537094 -5.8980606 -19.735773 -6.40625 -19.78125 C -6.9144412 -19.82673 -7.4786663 -19.72739 -8.15625 -19.5 C -8.8338328 -19.27261 -9.4696072 -18.906511 -10.0625 -18.40625 C -10.655394 -17.905989 -11.119881 -17.480307 -11.4375 -17.09375 C -11.75512 -16.707193 -12.22969 -16.091344 -12.84375 -15.25 C -13.45781 -14.408656 -13.810452 -13.843873 -13.9375 -13.59375 L -14.15625 -13.21875 L -14.28125 -13.1875 C -14.36595 -13.16476 -14.910023 -12.673785 -15.96875 -11.71875 C -17.027477 -10.763716 -17.744881 -9.8725944 -18.0625 -9.03125 C -18.380119 -8.1899056 -18.511099 -7.3328247 -18.46875 -6.46875 C -18.4264 -5.6047168 -18.325647 -5.0057997 -18.15625 -4.6875 C -17.986853 -4.3692013 -17.663417 -3.9775171 -17.21875 -3.5 C -16.774083 -3.0224829 -15.987179 -2.5144845 -14.84375 -1.96875 C -13.70032 -1.4230164 -11.853453 -1.0399348 -9.3125 -0.8125 C -6.7715449 -0.58506424 -5.4495806 -0.4261475 -5.34375 -0.3125 L -5.1875 -0.125 L -5.46875 0.1875 C -5.6593224 0.39215124 -6.9610932 0.51706897 -9.375 0.5625 C -11.788906 0.6079319 -13.322416 0.75838321 -14 1.03125 C -14.677584 1.3041168 -15.32344 1.6958009 -15.9375 2.21875 C -16.55156 2.7416981 -17.076512 3.3661515 -17.5 4.09375 C -17.923492 4.8213485 -18.216702 5.8033517 -18.34375 7.03125 C -18.470798 8.2591519 -18.490949 9.0083832 -18.40625 9.28125 C -18.32155 9.5541168 -17.98804 10.07058 -17.4375 10.84375 C -16.886964 11.616919 -16.453714 12.190167 -16.09375 12.53125 C -15.733786 12.872335 -15.470798 13.105103 -15.34375 13.21875 L -15.15625 13.375 L -14.6875 14.46875 C -14.369881 15.196351 -13.875167 15.988181 -13.21875 16.875 C -12.562332 17.761819 -11.976941 18.369199 -11.46875 18.6875 C -10.960559 19.0058 -10.163585 19.238564 -9.0625 19.375 C -7.9614154 19.511431 -7.1644403 19.494369 -6.65625 19.3125 C -6.1480588 19.130635 -5.6734503 18.880802 -5.25 18.5625 C -4.8265487 18.2442 -4.4628142 17.920649 -4.1875 17.625 C -3.9121877 17.329351 -3.6200846 16.869666 -3.28125 16.1875 C -2.9424135 15.505333 -2.5888365 14.023937 -2.25 11.75 C -1.9111635 9.4760591 -1.6895483 8.1280516 -1.5625 7.71875 C -1.4354527 7.3094512 -1.2440642 7.0682155 -0.96875 7 L -0.5625 6.90625 L -0.71875 10.46875 C -0.82457969 12.856337 -0.8145464 14.527899 -0.6875 15.4375 C -0.56045174 16.347099 -0.30758922 17.263715 0.03125 18.21875 C 0.37008646 19.173784 0.71260706 19.940083 1.09375 20.53125 C 1.4748929 21.122419 1.9595356 21.695799 2.53125 22.21875 C 3.1029653 22.7417 3.6883179 23.051068 4.28125 23.1875 L 5.15625 23.40625 L 5.1875 23.375 C 5.2087186 23.352217 5.2902573 23.09405 5.375 22.59375 C 5.4597436 22.093449 5.2369726 21.602517 4.75 21.125 C 4.2630255 20.647483 3.8599244 20.165017 3.5 19.6875 C 3.1400738 19.209983 2.7359485 18.369968 2.3125 17.1875 C 1.8890515 16.005032 1.6270473 14.438571 1.5 12.4375 C 1.3729517 10.43643 1.3729517 9.1224137 1.5 8.53125 L 1.6875 7.65625 L 2.0625 8.875 C 2.3165965 9.6936004 2.5382118 10.65853 2.75 11.75 C 2.9617891 12.841466 3.132985 13.516845 3.28125 13.8125 C 3.4295159 14.108152 3.742832 14.590618 4.1875 15.25 C 4.6321662 15.909386 5.0765524 16.482765 5.5 16.9375 C 5.9234494 17.392232 6.4172282 17.834982 7.03125 18.3125 C 7.64527 18.790017 8.4231659 19.113569 9.3125 19.25 C 10.201835 19.386435 10.978706 19.27012 11.65625 18.90625 C 12.333793 18.542382 12.716702 18.26715 12.84375 18.0625 C 12.970798 17.857849 13.163212 17.659215 13.375 17.5 C 13.586791 17.340783 13.798372 17.091082 14.03125 16.75 C 14.264131 16.408914 14.536166 15.866919 14.875 15.09375 C 15.213836 14.32058 15.648061 13.571348 16.15625 12.84375 C 16.66444 12.116152 17.108825 11.633687 17.46875 11.40625 L 18 11.0625 L 18.0625 10.875 C 18.104811 10.761351 18.255938 10.477517 18.53125 10 C 18.80656 9.5224829 19.029202 8.6314029 19.15625 7.3125 C 19.283296 5.9935943 19.263107 5.1109817 19.09375 4.65625 C 18.924396 4.2015174 18.671402 3.7190526 18.375 3.21875 C 18.078592 2.7184465 17.685662 2.2445852 17.15625 1.8125 C 16.626845 1.380413 15.828883 1.0057987 14.8125 0.6875 C 13.79612 0.3692031 11.980502 0.24428353 9.3125 0.3125 C 6.6444966 0.38071739 5.2610546 0.36364842 5.21875 0.25 L 5.15625 0.0625 L 5.25 -0.03125 C 5.313524 -0.099467389 6.3030011 -0.23284968 8.1875 -0.4375 C 10.071995 -0.6421494 11.293251 -0.84938695 11.84375 -1.03125 C 12.394245 -1.2131158 13.030022 -1.4798804 13.75 -1.84375 C 14.469981 -2.2076196 15.19643 -2.698549 15.9375 -3.3125 C 16.678574 -3.9264501 17.223666 -4.5678316 17.5625 -5.25 C 17.901336 -5.9321665 18.132986 -6.83185 18.28125 -7.96875 C 18.429514 -9.1056905 18.429514 -9.9372388 18.28125 -10.4375 C 18.132986 -10.93776 17.901336 -11.454266 17.5625 -12 C 17.223666 -12.545733 16.718954 -13.036707 16.0625 -13.46875 C 15.406046 -13.900794 14.800501 -14.309449 14.25 -14.71875 C 13.699505 -15.12805 13.134214 -15.817709 12.5625 -16.75 C 11.990786 -17.682291 11.455724 -18.366233 10.96875 -18.84375 C 10.481776 -19.321267 9.9879958 -19.695883 9.4375 -19.96875 C 8.8870023 -20.241617 8.2512312 -20.375 7.53125 -20.375 C 7.3512547 -20.375 7.1720424 -20.39205 7 -20.375 z" fill="#000000"  /></g><g transform="translate(450.000,130.000) rotate(0.000) scale(1.563)"><path d="m -2.7319827 -1.915573 0.0551 0.0276 0.011 0.0165 0.0165 0.011 0.0165 0.011 0.011 0.0165 0.011 0.0165 0.0165 0.011 0.0165 0.011 0.011 0.0165 0.011 0.0165 0.0165 0.011 0.0165 0.011 0.011 0.0165 0.011 0.0165 0.0165 0.011 0.0165 0.011 0.011 0.0166 0.011 0.0165 0.0165 0.011 0.0165 0.011 0.011 0.0165 0.011 0.0166 0.0165 0.011 0.0165 0.011 0.011 0.0165 -0.0827 0 -0.0827 0 -0.0827 -0.0276 -0.0827 -0.0276 -0.0827 -0.0276 -0.0827 -0.0276 -1.51631 -0.46868 q -1.5163 -0.46868 -3.25316 -0.79951 -1.73686 -0.33083 -2.9498993 -0.4411 -1.213041 -0.11028 -3.087751 -0.0827 -1.8747 0.0276 -3.3083 0.24812 -1.433599 0.22056 -2.64664 0.57895 -1.21304 0.3584 -2.31581 0.90979 -1.10277 0.55138 -1.753399 1.03108036 -0.64512 0.48522 -1.25164 1.09174 -0.60652 0.60651984 -1.04763 1.29574964 -0.4411 0.68923 -0.771931 1.46117 -0.330829 0.77194 -0.52382 1.68172 -0.19298 0.90978 -0.22055 1.1579 -0.0276 0.2481303 -0.0441 0.2481303 l -0.011 0 0 0.99249 0 0.99249 0.011 0 0.0165 0 0.0276 0.22055 0.0276 0.22055 0.0276 0.16542 q 0.0276 0.16541 0.19298 0.7995 0.16542 0.6340897 0.49625 1.2957497 0.33083 0.66166 0.86567 1.37846 0.54035 0.7168 0.82707 0.96492 0.29224 0.24813 1.09174 0.82708 0.799511 0.57895 2.19451 1.33986 1.38948 0.75539 1.54387 1.10277 0.14887 0.34185 0.58998 2.21656 0.44111 1.8747 0.77194 2.86719 0.33083 0.99249 0.64512 1.477711 0.3198 0.4797 0.77193 0.849129 0.45765 0.37494 1.21305 0.7168 0.76091 0.347371 1.80854 0.56792 1.04763 0.22055 2.20553 0.22055 1.157901 0 1.847131 -0.16541 0.6892293 -0.16542 1.4060293 -0.49625 0.7168 -0.33083 1.51631 -0.92081 0.7995 -0.59549 0.7995 -0.65063 0 -0.0551 0.0551 -0.0551 0.0551 0 0.54035 -0.578949 0.47971 -0.57895 1.08623 -1.543871 0.60652 -0.96492 1.18547 -2.26067 0.57896 -1.29575 1.10277 -3.03261 0.52381 -1.73686 0.9373501 -3.88725 0.41354 -2.1503996 0.7168 -4.9624497 l 0.30325993 -2.8120603 0.0165 -0.11028 0.011 -0.11027 0.0551 0 0.0551 0 0.011 0.11027 0.0166 0.11028 0.0276 0.11028 0.0276 0.11027 0.49624997 2.7293503 q 0.49624 2.7293501 0.68923 4.5764797 0.19297995 1.84714 0.16540995 3.88726 -0.0276 2.04011 -0.24811995 3.3083 -0.22055 1.26818 -0.57895 2.26067 -0.35839997 0.99249 -0.77193997 1.654151 -0.41353993 0.66166 -0.83809993 1.0366 -0.43008 0.36942 -1.1468801 0.86567 -0.7168 0.49624 -0.94838 0.81053 -0.23709 0.3198 -0.3198 0.54036 -0.0827 0.22055 -0.11028 0.33083 l -0.0276 0.11027 -0.0165 0.011 -0.011 0.0165 0.011 0.0165 0.0165 0.011 0.0166 0.011 0.011 0.0165 0.0551 0.0276 q 0.0551 0.0276 0.44111 0.13785 0.38597 0.11027 1.10277 0.137841 0.7167901 0.0276 1.0751901 -0.0551 0.3584 -0.0827 0.79950993 -0.46867 0.44111 -0.38597 0.89323997 -0.95389 0.45765 -0.56242 0.87119 -1.334351 0.41353 -0.77194 0.77193 -1.90227 0.3584 -1.13034 0.55139 -2.45366 0.19298 -1.32332 0.22055 -2.9499 0.0276 -1.626579 -0.0827 -3.198019 -0.11028 -1.57145 -0.52381 -4.3835006 l -0.41354 -2.81206 0 -0.1654103 0 -0.16542 0.0165 0.011 0.011 0.0165 0.011 0.0165 0.0165 0.011 0.0276 0.0551 0.0276 0.0551 0.0276 0.0551 0.0276 0.0551 0.0276 0.0827 0.0276 0.0827 0.0276 0.0551 q 0.0276 0.0551 0.16542 0.38597 0.13784 0.33083 1.04763 2.15039 0.9097803 1.8195709 2.1779603 3.9423909 1.26818 2.12283 2.17796 3.33587 0.90979 1.213049 1.7754594 2.084229 0.87118 0.865671 1.65415 1.45565 0.78848 0.5955 1.48873 0.97044 0.70577 0.36942 1.56042 0.58998 0.85464 0.22055 2.04012 0.24812 1.18547 0.0276 1.68171 -0.0551 0.49625 -0.0827 1.13034 -0.30326 0.63409 -0.22055 1.26818 -0.57895 0.63409 -0.3584 1.14137 -0.81605 0.51278 -0.45213 1.00903 -1.14136 0.49624 -0.68923 0.88221 -1.57144 0.38597 -0.88222 0.60652 -1.902279 0.22055 -1.02006 0.24812 -2.42608 0.0276 -1.40603 -0.0551 -2.04012 -0.0827 -0.63409 -0.46868 -2.1228307 -0.38597 -1.4887301 0.24812 -2.20553 0.63409 -0.7168003 1.31229 -1.6431203 0.67269 -0.92081 1.2351 -2.00704 0.56793 -1.09174 0.87119 -2.05665994 0.30326 -0.96492 0.37494 -1.76441996 l 0.0662 -0.7995101 -0.0662 -0.77194 q -0.0717 -0.77193 -0.34737 -1.5163 -0.27569 -0.74437 -0.68923 -1.37846 -0.41354 -0.63409 -0.50727 -0.77194 -0.0992 -0.13784 -0.89876 -0.73334 -0.7995 -0.58998 -1.84713 -1.08622 -1.04763 -0.49625 -2.1504 -0.79951 -1.10276 -0.30326 -1.95741 -0.41353 -0.85464 -0.11028 -1.76442 -0.0827 -0.90979 0.0276 -2.17797 0.30326 -1.26818 0.2756898 -2.56393 0.77194 -1.29575 0.49624 -2.7734602 1.28472 -1.4721892 0.78296 -5.0396392 3.03261 -3.5729703 2.24413 -3.93137035 2.43711 -0.35838995 0.19299 -0.41352995 0.22055 l -0.0551 0.0276 -0.0551 0.0276 -0.0551 0.0276 -0.0551 0.0276 -0.0551 0.0276 -0.0551 0.0276 -0.0551 0.0276 -0.0827 0 -0.0827 0 0.011 -0.0165 0.0165 -0.011 0.0165 -0.011 0.011 -0.0165 0.011 -0.0165 0.0165 -0.011 0.0165 -0.011 0.011 -0.0165 0.0551 -0.0276 0.0551 -0.0276 0.011 -0.0165 0.0166 -0.011 0.0165 -0.011 0.011 -0.0165 0.011 -0.0166 0.0165 -0.011 0.0166 -0.011 0.011 -0.0165 0.011 -0.0165 0.0165 -0.011 0.0165 -0.011 0.011 -0.0165 1.99601 -1.61555 q 2.0015203 -1.61004 3.1759703 -2.72384 1.16893 -1.11931 2.04012 -2.09525 0.86567 -0.98147 1.6100294 -2.0842302 0.7443698 -1.1027698 1.26819 -2.1503998 0.52381 -1.04763 0.88221 -2.177959 0.3584 -1.13034 0.55138 -2.34338 0.19299 -1.21304 0.16542 -2.56393 -0.0276 -1.35089 -0.27569 -2.34338 -0.24813 -0.99249 -0.60653 -1.70929 -0.35839 -0.7168 -0.81604 -1.25715 -0.4521402 -0.53485 -0.89324 -0.89325 -0.44111 -0.35839 -1.1579094 -0.71679 -0.7168 -0.3584 -1.59901 -0.55139 -0.88221 -0.19298 -2.34338 -0.16541 -1.4611603 0.0276 -2.5087903 0.24812 -1.04763 0.22055 -2.15039997 0.63409 -1.10275993 0.41354 -2.28824003 1.0752 -1.18547 0.66166 -2.04012 0.49624 -0.85464 -0.16541 -2.89476 -0.66166 -2.04012 -0.49624 -2.8947593 -0.60652 -0.854651 -0.11027 -1.571441 -0.0827 -0.7168 0.0276 -1.32332 0.19299 -0.60653 0.16541 -1.0752 0.46867 -0.46868 0.30327 -0.86567 0.76091 -0.40251 0.45214 -0.84362 1.27921 -0.44111 0.82708 -0.7168 1.76443 -0.27569 0.93735 -0.3584 1.59901 -0.0827 0.66166 -0.0551 1.40603 0.0276 0.74437 0.24812 1.62658 0.22056 0.88221 0.64513 1.80854 0.43007 0.92081 1.14687 1.995999 0.7168 1.0752 1.69826 2.24965 0.97595 1.1689304 2.31581 2.5032803 1.3343508 1.3398601 2.6025303 2.24964 1.26818 0.90978 3.35241 2.21656 2.07872 1.31229 2.31581 1.48874 0.23158 0.18195 0.28672 0.20952 z" fill="#ffffff"  /></g></svg>
