<?xml version="1.0" encoding="utf-8" standalone="yes"?>
<!DOCTYPE svg PUBLIC "-//W3C//DTD SVG 1.1//EN" "http://www.w3.org/Graphics/SVG/1.1/DTD/svg11.dtd">
<svg xmlns="http://www.w3.org/2000/svg" xmlns:xlink="http://www.w3.org/1999/xlink" version="1.1" width="600" height="400">
<rect width="600" height="400" x="0" y="0" fill="#009900" /><rect width="600.000" height="400.000" x="0.000" y="0.000" fill="#009900" />
<polygon points="600.000,0.000 900.000,200.000 600.000,400.000 300.000,200.000" fill="#0000cc" /><rect width="66.667" height="400" x="300.000" y="0" fill="#0000cc" /><rect width="600" height="66.667" x="0" y="166.667" fill="#0000cc" /><g transform="translate(133.333,85.000) rotate(0.000) scale(0.552)"><path d="m -19.213396,-150.36461 -4.587386,10.70389 c 14.762566,6.35251 29.519187,16.7746 38.082587,26.14083 l 8.592249,-7.86409 c -10.077409,-11.02216 -25.7142702,-21.93506 -42.08745,-28.98063 z m -30.801027,9.46603 -1.820392,11.50488 c 21.564809,3.34874 38.268304,16.91792 50.2428061,28.17966 l 8.0097229,-8.51944 c -12.4915516,-11.74801 -31.105985,-27.23227 -56.432137,-31.1651 z m -24.466064,13.61653 -0.582527,11.6505 c 19.518377,0.90488 32.443587,5.97921 41.504932,11.50488 9.061345,5.52567 13.964484,11.318188 18.203917,15.218472 l 7.9369075,-8.519432 c -3.0421335,-2.79875 -9.4109765,-10.20269 -20.0243085,-16.67479 -10.613333,-6.47209 -25.720405,-12.1913 -47.038921,-13.17963 z m 147.014824,0 c -14.380104,1.9678 -42.738624,7.88824 -69.2476964,28.61656 -26.5090686,20.728306 -50.8071796,56.417967 -56.7962136,115.922535 l 11.650504,1.165051 c 5.725317,-56.884181 28.115563,-89.016559 52.281644,-107.912817 24.166087,-18.896259 50.423858,-24.395029 63.713707,-26.213639 l -1.601945,-11.57769 z m -163.835242,15.87381 -0.946606,11.5777 c 40.269,3.42367 48.232679,11.988635 63.349632,24.757321 l 7.500014,-8.956329 C -36.280968,-96.60071 -49.350414,-107.8416 -91.300905,-111.40824 z m 180.291583,0.87379 c -13.723688,0.76243 -42.358514,4.4494 -68.956435,22.281596 -26.5979145,17.832188 -50.677298,50.221302 -54.247666,105.728346 l 11.650507,0.728157 c 3.377994,-52.516103 25.1089806,-80.702504 49.077753,-96.772019 23.968775,-16.06952 50.641232,-19.62169 63.13118,-20.31557 l -0.655339,-11.65051 z m -195.728508,15.801 0.21833,11.650507 c 37.504265,-0.565851 48.60785,9.025797 67.93702,22.936936 l 6.844674,-9.466039 C -50.85531,-83.370855 -67.023116,-95.33265 -106.73794,-94.73345 z m 210.5829,1.45631 c -17.21998,0.15239 -45.933004,3.663656 -71.359348,19.368971 -25.426344,15.705315 -47.031086,44.276446 -48.422413,91.602108 l 11.6505071,0.291263 C -2.9923019,-26.026078 15.901971,-49.983774 38.602238,-64.00524 61.302506,-78.026701 88.29801,-81.487755 103.99071,-81.626631 l -0.14564,-11.650509 z m -204.1023,16.456343 c -5.13748,-0.05746 -10.39165,0.30239 -15.72819,1.019422 l 1.60195,11.504874 c 25.731424,-3.457367 47.295651,2.627619 66.553517,18.859258 l 7.500013,-8.883513 c -16.139167,-13.603015 -34.605195,-21.030177 -54.830194,-22.281591 -1.68541,-0.104295 -3.384616,-0.199296 -5.097096,-0.21845 z m 202.57318,0.655344 C 87.435199,-75.746048 67.679551,-71.629455 49.160507,-61.529506 24.468449,-48.062909 2.6463289,-22.754802 3.1410094,17.912386 L 14.791515,17.766755 c -0.444816,-36.569472 17.897601,-57.027923 39.902987,-69.02925 22.005381,-12.00133 48.295008,-14.373896 58.762238,-12.669928 l 1.89321,-11.504874 c -3.64533,-0.593427 -8.07375,-0.867958 -13.034,-0.728156 z m -200.60716,17.475758 c -9.00104,-0.04544 -17.96252,1.626073 -26.21364,4.805834 l 4.22331,10.849534 c 20.95712,-8.076321 47.170756,-4.339738 63.786522,14.781581 l 8.73788,-7.645645 c -12.552068,-14.444853 -29.535315,-21.630244 -46.67484,-22.645671 -1.285473,-0.07615 -2.573364,-0.139131 -3.859232,-0.145633 z m 203.44697,1.237867 c -12.976336,-0.03711 -28.408716,3.385171 -42.88843,10.558273 -22.064312,10.930434 -41.54128,32.208989 -40.776774,64.878757 l 11.650507,-0.291263 c -0.656623,-28.059825 14.991473,-44.611514 34.296179,-54.174855 19.304701,-9.563351 42.697548,-10.502426 51.480678,-7.208751 l 4.07767,-10.92235 c -3.62946,-1.361051 -7.80024,-2.231843 -12.45148,-2.621367 -1.74421,-0.146073 -3.5346,-0.213156 -5.38835,-0.218444 z m -208.17999,18.203916 c -0.92307,-6.36e-4 -1.83908,0.03062 -2.76699,0.07282 -7.42345,0.337585 -14.99472,2.069409 -22.20878,5.752438 l 5.31554,10.41264 c 11.2447,-5.740787 23.7994,-5.646045 34.878705,-2.257286 11.079305,3.38876 20.368841,10.281829 24.320431,16.237894 l 9.757301,-6.407779 c -6.096966,-9.189687 -17.282382,-16.880605 -30.655393,-20.970912 -5.850701,-1.789518 -12.179416,-2.83522 -18.640814,-2.839811 z m 205.99552,1.01942 c -9.483749,-0.03355 -19.577537,2.039118 -29.053453,5.970884 -18.951811,7.863556 -35.480127,25.144403 -33.422392,50.534072 l 11.650507,-0.873788 c -1.635244,-20.1766266 10.352176,-32.302264 26.213641,-38.883565 15.861467,-6.581302 35.266037,-5.652407 43.252507,-0.364078 l 6.48059,-9.684484 c -6.78348,-4.491759 -15.63766,-6.665441 -25.1214,-6.699041 z M 52.946924,25.485216 41.369233,26.504635 52.291585,150 63.869275,148.98059 52.946924,25.485216 z m -107.475919,0.07281 -9.902929,123.495364 11.57769,0.87379 9.975746,-123.495366 -11.650507,-0.873788 z m 19.660231,0.07282 -7.208751,123.495374 11.650507,0.72815 7.208751,-123.495368 -11.650507,-0.728156 z m 68.373905,0.07282 -11.650506,0.582526 6.480594,123.495368 11.650507,-0.58253 -6.480595,-123.495364 z m -49.587463,0.145631 -2.69418,123.495363 11.6505071,0.29126 L -4.4318152,26.140556 -16.082322,25.849293 z M 14.791515,25.922117 3.1410094,26.067749 5.179848,149.56312 16.757538,149.41749 14.791515,25.922117 z" fill="#000000"  /></g><g transform="translate(133.333,315.333) rotate(180.000) scale(0.552)"><path d="m -19.213396,-150.36461 -4.587386,10.70389 c 14.762566,6.35251 29.519187,16.7746 38.082587,26.14083 l 8.592249,-7.86409 c -10.077409,-11.02216 -25.7142702,-21.93506 -42.08745,-28.98063 z m -30.801027,9.46603 -1.820392,11.50488 c 21.564809,3.34874 38.268304,16.91792 50.2428061,28.17966 l 8.0097229,-8.51944 c -12.4915516,-11.74801 -31.105985,-27.23227 -56.432137,-31.1651 z m -24.466064,13.61653 -0.582527,11.6505 c 19.518377,0.90488 32.443587,5.97921 41.504932,11.50488 9.061345,5.52567 13.964484,11.318188 18.203917,15.218472 l 7.9369075,-8.519432 c -3.0421335,-2.79875 -9.4109765,-10.20269 -20.0243085,-16.67479 -10.613333,-6.47209 -25.720405,-12.1913 -47.038921,-13.17963 z m 147.014824,0 c -14.380104,1.9678 -42.738624,7.88824 -69.2476964,28.61656 -26.5090686,20.728306 -50.8071796,56.417967 -56.7962136,115.922535 l 11.650504,1.165051 c 5.725317,-56.884181 28.115563,-89.016559 52.281644,-107.912817 24.166087,-18.896259 50.423858,-24.395029 63.713707,-26.213639 l -1.601945,-11.57769 z m -163.835242,15.87381 -0.946606,11.5777 c 40.269,3.42367 48.232679,11.988635 63.349632,24.757321 l 7.500014,-8.956329 C -36.280968,-96.60071 -49.350414,-107.8416 -91.300905,-111.40824 z m 180.291583,0.87379 c -13.723688,0.76243 -42.358514,4.4494 -68.956435,22.281596 -26.5979145,17.832188 -50.677298,50.221302 -54.247666,105.728346 l 11.650507,0.728157 c 3.377994,-52.516103 25.1089806,-80.702504 49.077753,-96.772019 23.968775,-16.06952 50.641232,-19.62169 63.13118,-20.31557 l -0.655339,-11.65051 z m -195.728508,15.801 0.21833,11.650507 c 37.504265,-0.565851 48.60785,9.025797 67.93702,22.936936 l 6.844674,-9.466039 C -50.85531,-83.370855 -67.023116,-95.33265 -106.73794,-94.73345 z m 210.5829,1.45631 c -17.21998,0.15239 -45.933004,3.663656 -71.359348,19.368971 -25.426344,15.705315 -47.031086,44.276446 -48.422413,91.602108 l 11.6505071,0.291263 C -2.9923019,-26.026078 15.901971,-49.983774 38.602238,-64.00524 61.302506,-78.026701 88.29801,-81.487755 103.99071,-81.626631 l -0.14564,-11.650509 z m -204.1023,16.456343 c -5.13748,-0.05746 -10.39165,0.30239 -15.72819,1.019422 l 1.60195,11.504874 c 25.731424,-3.457367 47.295651,2.627619 66.553517,18.859258 l 7.500013,-8.883513 c -16.139167,-13.603015 -34.605195,-21.030177 -54.830194,-22.281591 -1.68541,-0.104295 -3.384616,-0.199296 -5.097096,-0.21845 z m 202.57318,0.655344 C 87.435199,-75.746048 67.679551,-71.629455 49.160507,-61.529506 24.468449,-48.062909 2.6463289,-22.754802 3.1410094,17.912386 L 14.791515,17.766755 c -0.444816,-36.569472 17.897601,-57.027923 39.902987,-69.02925 22.005381,-12.00133 48.295008,-14.373896 58.762238,-12.669928 l 1.89321,-11.504874 c -3.64533,-0.593427 -8.07375,-0.867958 -13.034,-0.728156 z m -200.60716,17.475758 c -9.00104,-0.04544 -17.96252,1.626073 -26.21364,4.805834 l 4.22331,10.849534 c 20.95712,-8.076321 47.170756,-4.339738 63.786522,14.781581 l 8.73788,-7.645645 c -12.552068,-14.444853 -29.535315,-21.630244 -46.67484,-22.645671 -1.285473,-0.07615 -2.573364,-0.139131 -3.859232,-0.145633 z m 203.44697,1.237867 c -12.976336,-0.03711 -28.408716,3.385171 -42.88843,10.558273 -22.064312,10.930434 -41.54128,32.208989 -40.776774,64.878757 l 11.650507,-0.291263 c -0.656623,-28.059825 14.991473,-44.611514 34.296179,-54.174855 19.304701,-9.563351 42.697548,-10.502426 51.480678,-7.208751 l 4.07767,-10.92235 c -3.62946,-1.361051 -7.80024,-2.231843 -12.45148,-2.621367 -1.74421,-0.146073 -3.5346,-0.213156 -5.38835,-0.218444 z m -208.17999,18.203916 c -0.92307,-6.36e-4 -1.83908,0.03062 -2.76699,0.07282 -7.42345,0.337585 -14.99472,2.069409 -22.20878,5.752438 l 5.31554,10.41264 c 11.2447,-5.740787 23.7994,-5.646045 34.878705,-2.257286 11.079305,3.38876 20.368841,10.281829 24.320431,16.237894 l 9.757301,-6.407779 c -6.096966,-9.189687 -17.282382,-16.880605 -30.655393,-20.970912 -5.850701,-1.789518 -12.179416,-2.83522 -18.640814,-2.839811 z m 205.99552,1.01942 c -9.483749,-0.03355 -19.577537,2.039118 -29.053453,5.970884 -18.951811,7.863556 -35.480127,25.144403 -33.422392,50.534072 l 11.650507,-0.873788 c -1.635244,-20.1766266 10.352176,-32.302264 26.213641,-38.883565 15.861467,-6.581302 35.266037,-5.652407 43.252507,-0.364078 l 6.48059,-9.684484 c -6.78348,-4.491759 -15.63766,-6.665441 -25.1214,-6.699041 z M 52.946924,25.485216 41.369233,26.504635 52.291585,150 63.869275,148.98059 52.946924,25.485216 z m -107.475919,0.07281 -9.902929,123.495364 11.57769,0.87379 9.975746,-123.495366 -11.650507,-0.873788 z m 19.660231,0.07282 -7.208751,123.495374 11.650507,0.72815 7.208751,-123.495368 -11.650507,-0.728156 z m 68.373905,0.07282 -11.650506,0.582526 6.480594,123.495368 11.650507,-0.58253 -6.480595,-123.495364 z m -49.587463,0.145631 -2.69418,123.495363 11.6505071,0.29126 L -4.4318152,26.140556 -16.082322,25.849293 z M 14.791515,25.922117 3.1410094,26.067749 5.179848,149.56312 16.757538,149.41749 14.791515,25.922117 z" fill="#000000"  /></g><g transform="translate(500.000,200.000) rotate(0.000) scale(1.042)"><path d="m 63.673978,-44.799664 c -5.926,-0.843 -12.469,2.489 -14.576,7.483 -1.512,3.571 -0.358,7.043 0.489,10.039 -3.834,0.211 -8.335,0.823 -11.123,3.353 -4.528,3.268 -5.1,9.146 -3.473,13.887 2.566,6.541 9.173,7.696 15.563,7.385 0.113,7.8980001 -5.261,11.046 -9.479,11.046 -5.136,0 -8.784,-2.11 -12.101,-7.862 -3.51,5.896 -8.705,7.862 -13.647,7.862 -6.6839999,0 -13.2259999,-7.738 -12.5209999,-15.346 2.902,1.474 6.755,3.677 12.0269999,3.677 5.276,0 11.749,-4.159 11.749,-12.952 0,-11.396 -13.718,-12.028 -15.548,-10.69 0.845,-2.041 2.674,-4.996 1.407,-9.867 -0.574,-2.213 -4.4399999,-8.565 -11.8909999,-8.565 -8.6160001,0 -11.3530001,8.565 -11.3530001,8.565 -1.521,4.309 -0.115,7.053 1.292,9.867 -2.674,-1.408 -15.829,-1.27 -16.051,10.69 -0.181,9.649 6.755,12.952 11.478,12.952 4.725,0 9.5680001,-2.307 12.1240001,-3.677 0.933,6.318 -5.582,15.346 -13.3910001,15.346 -6.19,0 -9.267,-3.3329999 -12.17,-7.862 -2.207,4.6380001 -5.698,7.862 -11.772,7.862 -6.096,0 -9.847,-6.2 -11.125,-11.046 5.229,0.631 11.041,-0.313 14.76,-4.104 5.813,-5.159 4.184,-15.065 -3.021,-18.544 -3.137,-1.896 -6.979,-2.184 -10.579,-1.975 0.696,-3.477 1.498,-6.773 -0.129,-10.039 -1.858,-5.479 -8.693,-8.011 -14.502,-7.482 2.832,20.689 6.438,41.271 9.968,61.869 h 107.62 l 9.97,-61.87 z m -117.1,64.65 4.146,25.604 h 98.086 c 1.673,-8.597 3.156,-16.941 4.489,-25.604 h -106.72 z" fill="#000000"  /></g></svg>
