<?xml version="1.0" encoding="utf-8" standalone="yes"?>
<!DOCTYPE svg PUBLIC "-//W3C//DTD SVG 1.1//EN" "http://www.w3.org/Graphics/SVG/1.1/DTD/svg11.dtd">
<svg xmlns="http://www.w3.org/2000/svg" xmlns:xlink="http://www.w3.org/1999/xlink" version="1.1" width="600" height="400">
<rect width="600" height="400" x="0" y="0" fill="#000000" /><rect width="600.000" height="400.000" x="0.000" y="0.000" fill="#000000" />
<path d="M 0,0 16.667,0 211.111,188.889 600,188.889 600,211.111 211.111,211.111 16.667,400 0,400 0,383.333 188.889,200.000 0,16.667" fill="#ffffff" /><g transform="translate(66.667,200.000) rotate(0.000) scale(0.417)"><path d="M 0.22136364,-81.695795 15.998909,-32.640158 64.189364,-50.890431 35.673273,-7.9693381 79.988182,18.328569 28.651545,22.79466 l 7.069364,51.043364 -35.49954536,-37.352 -35.49963664,37.352 7.069364,-51.043364 -51.336546,-4.466091 44.31491,-26.2979071 -28.516182,-42.9210929 48.190454,18.250273 15.77763664,-49.055637 z" fill="#ffffff"  /></g></svg>
